0
SECTION
2
HEADER
9
$INSUNITS
70
4
9
$ACADVER
1
AC1014
9
$HANDSEED
5
FFFF
0
ENDSEC
0
SECTION
2
TABLES
0
TABLE
2
VPORT
5
8
100
AcDbSymbolTable
0
ENDTAB
0
TABLE
2
LTYPE
5
5
100
AcDbSymbolTable
70
3
0
LTYPE
5
14
100
AcDbSymbolTableRecord
100
AcDbLinetypeTableRecord
2
BYBLOCK
70
0
0
LTYPE
5
15
100
AcDbSymbolTableRecord
100
AcDbLinetypeTableRecord
2
BYLAYER
70
0
0
LTYPE
5
16
100
AcDbSymbolTableRecord
100
AcDbLinetypeTableRecord
2
DASHED
70
0
3
Dashed __ __ __ __ __ __ __ __ __ __ __ __ __ _
72
65
73
2
40
0.75
49
0.5
74
0
49
-0.25
74
0
0
ENDTAB
0
TABLE
2
LAYER
5
2
100
AcDbSymbolTable
70
5
0
LAYER
5
50
100
AcDbSymbolTableRecord
100
AcDbLayerTableRecord
2
0
70
0
6
CONTINUOUS
0
LAYER
5
51
100
AcDbSymbolTableRecord
100
AcDbLayerTableRecord
2
PERIMETER D 4.0
70
0
62
5
6
CONTINUOUS
0
LAYER
5
52
100
AcDbSymbolTableRecord
100
AcDbLayerTableRecord
2
INSETS D 0.1
70
0
62
3
6
CONTINUOUS
0
LAYER
5
53
100
AcDbSymbolTableRecord
100
AcDbLayerTableRecord
2
CUTOUTS D 4.0
70
0
62
5
6
CONTINUOUS
0
LAYER
5
54
100
AcDbSymbolTableRecord
100
AcDbLayerTableRecord
2
HOLES DIAM 2.5 D 4.0
70
0
62
5
6
CONTINUOUS
0
ENDTAB
0
TABLE
2
STYLE
5
3
100
AcDbSymbolTable
70
1
0
STYLE
5
11
100
AcDbSymbolTableRecord
100
AcDbTextStyleTableRecord
2
STANDARD
70
0
0
ENDTAB
0
TABLE
2
VIEW
5
6
100
AcDbSymbolTable
0
ENDTAB
0
TABLE
2
UCS
5
7
100
AcDbSymbolTable
0
ENDTAB
0
TABLE
2
APPID
5
9
100
AcDbSymbolTable
70
1
0
APPID
5
12
100
AcDbSymbolTableRecord
100
AcDbRegAppTableRecord
2
ACAD
70
0
0
ENDTAB
0
TABLE
2
DIMSTYLE
5
A
100
AcDbSymbolTable
0
ENDTAB
0
TABLE
2
BLOCK_RECORD
5
1
100
AcDbSymbolTable
70
2
0
BLOCK_RECORD
5
1F
100
AcDbSymbolTableRecord
100
AcDbBlockTableRecord
2
*MODEL_SPACE
0
BLOCK_RECORD
5
1B
100
AcDbSymbolTableRecord
100
AcDbBlockTableRecord
2
*PAPER_SPACE
0
ENDTAB
0
ENDSEC
0
SECTION
2
BLOCKS
0
BLOCK
5
20
100
AcDbEntity
100
AcDbBlockBegin
2
*MODEL_SPACE
0
ENDBLK
5
21
100
AcDbEntity
100
AcDbBlockEnd
0
BLOCK
5
1C
100
AcDbEntity
100
AcDbBlockBegin
2
*PAPER_SPACE
0
ENDBLK
5
1D
100
AcDbEntity
100
AcDbBlockEnd
0
ENDSEC
0
SECTION
2
ENTITIES
0
LWPOLYLINE
5
100
100
AcDbEntity
8
PERIMETER D 4.0
100
AcDbPolyline
90
26
70
1
43
0.0
10
28.106088531114022
20
-34.281659337955205
10
27.077630026514395
20
-35.213550458616012
10
27.077630026514399
20
-38.411630026514494
10
23.377630026514389
20
-38.411630026514494
10
23.377630026514389
20
-35.21355045861602
10
22.349171521914752
20
-34.281659337955205
42
0.13746801118644986
10
10.151135999745172
20
-39.313205990744777
10
13.219393502150735
20
-42.381463493150207
10
9.0474634931566911
20
-46.553393502157434
10
5.9792059907446538
20
-43.485135999745481
42
0.13746801118644777
10
0.9476593379550291
20
-55.683171521914744
10
1.8795504586159244
20
-56.711630026514484
10
5.0776300265142087
20
-56.711630026514484
10
5.0776300265029173
20
-60.411630026514501
10
1.8795504586159237
20
-60.411630026514501
10
0.94765933795510904
20
-61.440088531114121
42
0.34666206495557345
10
22.349171521914766
20
-82.841600715073753
10
23.377630026514392
20
-81.909709594412945
10
23.377630026514396
20
-78.711630026514484
10
27.077630026514392
20
-78.711630026514456
10
27.077630026514395
20
-81.909709594412988
10
28.106088531114018
20
-82.841600715073781
42
0.35854207283885359
10
49.607539788447227
20
-60.411630026514509
10
45.377630026514389
20
-60.411630026514487
10
45.377630026514368
20
-56.711630026514499
10
49.607539788447482
20
-56.711630026514499
42
0.35854207283885126
0
LWPOLYLINE
5
101
100
AcDbEntity
8
PERIMETER D 4.0
100
AcDbPolyline
90
26
70
1
43
0.0
10
28.106088531114008
20
-83.736659337955217
10
27.077630026514395
20
-84.668550458616011
10
27.077630026514399
20
-87.866630026514486
10
23.377630026514389
20
-87.866630026514486
10
23.377630026514389
20
-84.668550458616011
10
22.349171521914755
20
-83.736659337955203
42
0.13746801118644925
10
10.151135999745126
20
-88.76820599074469
10
13.219393502150737
20
-91.836463493150191
10
9.0474634931566928
20
-96.008393502157418
10
5.9792059907446511
20
-92.940135999745479
42
0.1374680111864473
10
0.94765933795493806
20
-105.13817152191464
10
1.879550458615924
20
-106.1666300265145
10
5.0776300265142087
20
-106.16663002651448
10
5.0776300265029173
20
-109.86663002651447
10
1.879550458615924
20
-109.86663002651447
10
0.94765933795510904
20
-110.89508853111408
42
0.34666206495557633
10
22.349171521914741
20
-132.29660071507379
10
23.377630026514392
20
-131.36470959441294
10
23.377630026514396
20
-128.1666300265145
10
27.077630026514392
20
-128.16663002651447
10
27.077630026514395
20
-131.36470959441297
10
28.106088531114025
20
-132.29660071507377
42
0.35854207283885353
10
49.607539788446971
20
-109.86663002651449
10
45.377630026514389
20
-109.86663002651447
10
45.377630026514368
20
-106.1666300265145
10
49.607539788447482
20
-106.1666300265145
42
0.35854207283884854
0
LWPOLYLINE
5
102
100
AcDbEntity
8
PERIMETER D 4.0
100
AcDbPolyline
90
26
70
1
43
0.0
10
71.869792228586022
20
-132.19190046220052
10
72.831630026514404
20
-131.32037467929658
10
72.831630026514389
20
-128.06663002651447
10
76.731630026514409
20
-128.06663002651447
10
76.731630026514395
20
-131.32037467929658
10
77.693467824442791
20
-132.19190046220052
42
0.35676603754618841
10
99.053424356559418
20
-109.96663002651451
10
94.831630026514361
20
-109.96663002651448
10
94.831630026514389
20
-106.06663002651447
10
99.053424356559304
20
-106.06663002651447
42
0.35676603754618985
10
77.693467824442834
20
-83.841359590828404
10
76.731630026514409
20
-84.712885373732377
10
76.731630026514395
20
-87.966630026514508
10
72.831630026514404
20
-87.966630026514494
10
72.831630026514404
20
-84.712885373732405
10
71.869792228586007
20
-83.841359590828432
42
0.34561644563073962
10
50.606359590828454
20
-105.10479222858619
10
51.477885373732306
20
-106.06663002651447
10
54.731630026502629
20
-106.06663002651447
10
54.731630026514523
20
-109.96663002651451
10
51.477885373732306
20
-109.96663002651451
10
50.606359590828362
20
-110.92846782444289
42
0.13581140840441724
10
55.542507212409831
20
-122.94240147538102
10
58.601463493156757
20
-119.88344519463418
10
62.914814858394557
20
-124.19679655987227
10
59.855858577647723
20
-127.25575284061897
42
0.13581140840441916
0
LWPOLYLINE
5
103
100
AcDbEntity
8
PERIMETER D 4.0
100
AcDbPolyline
90
20
70
1
43
0.0
10
50.949999999965158
20
-135.29399999999416
10
50.949999999965115
20
-133.29400000031566
10
5.0499999999979295
20
-133.29400000031566
10
5.0499999999968859
20
-135.29399999999995
10
1.0500000000005947
20
-135.29399999999944
10
1.0499999999993983
20
-141.19399999968061
10
5.0499999999996392
20
-141.19399999968061
10
5.0499999999897494
20
-143.19399999968059
10
50.949999999965158
20
-143.19399999968061
10
50.949999999965158
20
-141.19399999968027
10
55.049999999994441
20
-141.19399999968027
10
55.049999999994441
20
-143.19400000039425
10
117.95000000000057
20
-143.19400000039414
10
117.95000000000057
20
-141.19399999997248
10
179.00000000000057
20
-141.19399999999516
42
0.99999999999999989
10
179.00000000000057
20
-135.29399999999515
10
117.95000000000057
20
-135.29399999997247
10
117.95000000000057
20
-133.29399999968575
10
55.049999999994448
20
-133.29399999968575
10
55.049999999994441
20
-135.29399999999418
0
LWPOLYLINE
5
104
100
AcDbEntity
8
PERIMETER D 4.0
100
AcDbPolyline
90
32
70
1
43
0.0
10
192.00351099866441
20
-154.03398378563378
10
189.85193956047343
20
-153.79400000003943
10
168.80471941225937
20
-153.79400000015633
10
168.80471941226116
20
-145.24400000000094
42
0.41421356237304574
10
167.85471941226126
20
-144.29400000000095
10
159.85471941226126
20
-144.2940000000001
42
0.41421356237312795
10
158.90471941226116
20
-145.24400000000009
10
158.90471941226207
20
-148.89400000000106
10
154.80471941226173
20
-148.89399999999713
10
154.80471941226182
20
-145.24400000000097
42
0.41421356237309503
10
153.85471941226183
20
-144.29400000000098
10
92.854719412261801
20
-144.29400000000098
42
0.41421356237312795
10
91.904719412261841
20
-145.24400000000097
10
91.904719412261841
20
-148.89400000000097
10
87.804719412261818
20
-148.89400000000097
10
87.804719412261818
20
-145.24400000000097
42
0.41421356237310603
10
86.854719412261829
20
-144.29400000000098
10
42.854719412261829
20
-144.29400000000098
42
0.41421356237309231
10
41.904719412261819
20
-145.24400000000094
10
41.904719412261791
20
-148.89400000000097
10
37.804719412261839
20
-148.89400000000097
10
37.804719412261832
20
-145.24400000000097
42
0.41421356237309637
10
36.854719412261836
20
-144.29400000000098
10
28.854719412261829
20
-144.29400000000098
42
0.41421356237309231
10
27.904719412261827
20
-145.24400000000094
10
27.904719412261834
20
-153.09400000000099
10
15.904719412261834
20
-153.09400000000099
10
15.904719412261832
20
-153.75138216344638
10
1.3747238164820752
20
-201.88518157571394
42
0.50293296002494714
10
8.9855212316743494
20
-212.13262857290511
10
45.881474390190334
20
-212.13262857290513
42
0.096289048197535004
10
50.35802318151049
20
-211.26247563497824
0
LWPOLYLINE
5
105
100
AcDbEntity
8
PERIMETER D 4.0
100
AcDbPolyline
90
32
70
1
43
0.0
10
192.00351099866438
20
-271.33164478727144
10
189.85193956047323
20
-271.57162857286579
10
168.80471941225937
20
-271.57162857274886
10
168.80471941226116
20
-280.12162857290423
42
-0.4142135623730841
10
167.85471941226126
20
-281.07162857290422
10
159.85471941226126
20
-281.07162857290513
42
-0.41421356237315532
10
158.90471941226116
20
-280.12162857290514
10
158.90471941226207
20
-276.47162857290419
10
154.80471941226173
20
-276.47162857290806
10
154.80471941226185
20
-280.12162857290423
42
-0.41421356237308959
10
153.85471941226183
20
-281.07162857290422
10
92.854719412261801
20
-281.07162857290416
42
-0.41421356237311696
10
91.904719412261841
20
-280.12162857290423
10
91.904719412261841
20
-276.47162857290425
10
87.804719412261818
20
-276.47162857290425
10
87.804719412261846
20
-280.12162857290423
42
-0.41421356237310603
10
86.854719412261829
20
-281.07162857290422
10
42.854719412261829
20
-281.07162857290422
42
-0.41421356237310047
10
41.904719412261827
20
-280.12162857290423
10
41.904719412261784
20
-276.47162857290419
10
37.804719412261846
20
-276.47162857290419
10
37.804719412261861
20
-280.12162857290423
42
-0.4142135623730745
10
36.854719412261836
20
-281.07162857290427
10
28.854719412261829
20
-281.07162857290422
42
-0.4142135623730745
10
27.904719412261834
20
-280.12162857290423
10
27.904719412261834
20
-272.27162857290421
10
15.904719412261832
20
-272.27162857290421
10
15.904719412261827
20
-271.61424640945881
10
1.3747238164820563
20
-223.48044699719125
42
-0.50293296002494692
10
8.985521231674344
20
-213.23300000000006
10
45.881474390190327
20
-213.23300000000006
42
-0.096289048197536392
10
50.358023181510475
20
-214.10315293792695
0
LWPOLYLINE
5
106
100
AcDbEntity
8
PERIMETER D 4.0
100
AcDbPolyline
90
32
70
1
43
0.0
10
0.79782028459934329
20
-340.3261631277112
10
3.3481914500150545
20
-340.61062857286583
10
24.300971301805685
20
-340.61062857274953
10
24.300971301803884
20
-349.06062857290431
42
0.41421356237308515
10
25.350971301803767
20
-350.11062857290432
10
33.350971301803789
20
-350.11062857290517
42
0.41421356237307899
10
34.400971301803892
20
-349.06062857290516
10
34.400971301803004
20
-345.51062857290441
10
38.300971301803301
20
-345.51062857290799
10
38.300971301803209
20
-349.06062857290431
42
0.41421356237307649
10
39.350971301803206
20
-350.11062857290432
10
100.35097130180321
20
-350.11062857290432
42
0.41421356237308021
10
101.4009713018032
20
-349.06062857290431
10
101.40097130180322
20
-345.51062857290435
10
105.30097130180322
20
-345.51062857290435
10
105.30097130180322
20
-349.06062857290431
42
0.41421356237307527
10
106.35097130180321
20
-350.11062857290432
10
150.35097130180321
20
-350.11062857290432
42
0.41421356237307527
10
151.40097130180317
20
-349.06062857290431
10
151.40097130180325
20
-345.51062857290435
10
155.3009713018032
20
-345.51062857290435
10
155.3009713018032
20
-349.06062857290431
42
0.41421356237307022
10
156.35097130180321
20
-350.11062857290432
10
164.35097130180321
20
-350.11062857290432
42
0.41421356237309503
10
165.40097130180322
20
-349.06062857290431
10
165.40097130180322
20
-341.31062857290431
10
177.4009713018032
20
-341.31062857290431
10
177.4009713018032
20
-340.56801073634972
10
191.92670019840301
20
-292.44834570155848
42
0.50293296002494658
10
184.2201694823907
20
-282.07200000000012
10
147.32421632387471
20
-282.07200000000012
42
0.096289048197535171
10
142.81020687321296
20
-282.94943455247039
0
LWPOLYLINE
5
107
100
AcDbEntity
8
PERIMETER D 4.0
100
AcDbPolyline
90
32
70
1
43
0.0
10
192.00351099866438
20
-360.85098378563373
10
189.85193956047357
20
-360.61100000003938
10
168.80471941225937
20
-360.61100000015637
10
168.80471941226116
20
-352.06100000000094
42
0.41421356237301837
10
167.85471941226126
20
-351.1110000000009
10
159.85471941226126
20
-351.11100000000016
42
0.41421356237314433
10
158.90471941226116
20
-352.06100000000004
10
158.90471941226207
20
-355.71100000000104
10
154.80471941226173
20
-355.71099999999711
10
154.80471941226182
20
-352.06100000000094
42
0.41421356237302387
10
153.85471941226183
20
-351.1110000000009
10
92.854719412261801
20
-351.1110000000009
42
0.41421356237304574
10
91.904719412261812
20
-352.06100000000094
10
91.904719412261841
20
-355.71100000000092
10
87.804719412261818
20
-355.71100000000092
10
87.804719412261818
20
-352.06100000000094
42
0.41421356237302387
10
86.854719412261815
20
-351.1110000000009
10
42.854719412261829
20
-351.1110000000009
42
0.41421356237304302
10
41.904719412261841
20
-352.06100000000094
10
41.904719412261791
20
-355.71100000000092
10
37.804719412261839
20
-355.71100000000092
10
37.804719412261832
20
-352.06100000000094
42
0.41421356237304574
10
36.854719412261829
20
-351.1110000000009
10
28.854719412261829
20
-351.1110000000009
42
0.41421356237304574
10
27.904719412261834
20
-352.06100000000094
10
27.904719412261834
20
-359.91100000000097
10
15.904719412261832
20
-359.91100000000097
10
15.904719412261839
20
-360.5683821634463
10
1.3747238164820619
20
-408.70218157571395
42
0.50293296002494559
10
8.9855212316743405
20
-418.949628572905
10
45.881474390190327
20
-418.949628572905
42
0.096289048197536059
10
50.358023181510475
20
-418.07947563497817
0
SPLINE
5
108
100
AcDbEntity
8
INSETS D 0.1
100
AcDbSpline
70
0
71
3
72
17
73
13
74
0
42
0.000000001
43
0.0000000001
44
0.0000000001
40
-0.00059501299772893356
40
-0.00059501299772893356
40
-0.00059501299772893356
40
-0.00059501299772893356
40
0
40
0
40
0
40
0.085001900003028263
40
0.085001900003028263
40
0.085001900003028263
40
0.18223550499347119
40
0.18223550499347119
40
0.18223550499347119
40
0.18235310922765319
40
0.18235310922765319
40
0.18235310922765319
40
0.18235310922765319
10
22.218112557582018
20
-260.94029461940858
30
0
10
22.216815805621927
20
-260.94184283164378
30
0
10
22.215519053661758
20
-260.94339104387905
30
0
10
22.214222301701586
20
-260.94493925611425
30
0
10
22.028971927562129
20
-261.16611254494518
30
0
10
21.841529459006779
20
-261.39075943401463
30
0
10
21.608608018702245
20
-261.55890069358264
30
0
10
21.342169370630035
20
-261.75123734505581
30
0
10
21.025537516949342
20
-261.86291432383808
30
0
10
20.713577353534181
20
-261.97369003739993
30
0
10
20.71320003711034
20
-261.97382402084077
30
0
10
20.7128227206865
20
-261.97395800428154
30
0
10
20.712445404264383
20
-261.97409198772175
30
0
0
LINE
5
109
100
AcDbEntity
8
INSETS D 0.1
100
AcDbLine
10
20.55372694549331
20
-262.0220038196378
30
0
11
20.712445404264386
21
-261.97409198772175
31
0
0
LINE
5
10A
100
AcDbEntity
8
INSETS D 0.1
100
AcDbLine
10
19.62397800427339
20
-258.94200639324856
30
0
11
20.55372694549331
21
-262.0220038196378
31
0
0
SPLINE
5
10B
100
AcDbEntity
8
INSETS D 0.1
100
AcDbSpline
70
0
71
3
72
11
73
7
74
0
42
0.000000001
43
0.0000000001
44
0.0000000001
40
0.0054972734387590903
40
0.0054972734387590903
40
0.0054972734387590903
40
0.0054972734387590903
40
0.060403719764057742
40
0.060403719764057742
40
0.060403719764057742
40
0.11515183312554765
40
0.11515183312554765
40
0.11515183312554765
40
0.11515183312554765
10
19.62397800427339
20
-258.94200639324856
30
0
10
19.45304103024365
20
-259.01664042590892
30
0
10
19.28902545869159
20
-259.09363894298008
30
0
10
19.159858994268653
20
-259.20451428916851
30
0
10
19.031065005401974
20
-259.31506990564662
30
0
10
18.929429359378325
20
-259.46586556477814
30
0
10
18.82622687911671
20
-259.62108484109012
30
0
0
SPLINE
5
10C
100
AcDbEntity
8
INSETS D 0.1
100
AcDbSpline
70
0
71
3
72
11
73
7
74
0
42
0.000000001
43
0.0000000001
44
0.0000000001
40
0.00056390334437873206
40
0.00056390334437873206
40
0.00056390334437873206
40
0.00056390334437873206
40
0.054897213981493567
40
0.054897213981493567
40
0.054897213981493567
40
0.11368765387470987
40
0.11368765387470987
40
0.11368765387470987
40
0.11368765387470987
10
18.8262268791167
20
-259.62108484109012
30
0
10
18.76151402169635
20
-259.79453337776528
30
0
10
18.699534282899812
20
-259.96403981669334
30
0
10
18.686667352120839
20
-260.1316220084633
30
0
10
18.672744907276208
20
-260.31295148492796
30
0
10
18.715414018739345
20
-260.50398459546153
30
0
10
18.760333315186827
20
-260.69966187931254
30
0
0
SPLINE
5
10D
100
AcDbEntity
8
INSETS D 0.1
100
AcDbSpline
70
0
71
3
72
14
73
10
74
0
42
0.000000001
43
0.0000000001
44
0.0000000001
40
0.00037029948808500035
40
0.00037029948808500035
40
0.00037029948808500035
40
0.00037029948808500035
40
0.087313748466005314
40
0.087313748466005314
40
0.087313748466005314
40
0.17690613786265119
40
0.17690613786265119
40
0.17690613786265119
40
0.18585642340316044
40
0.18585642340316044
40
0.18585642340316044
40
0.18585642340316044
10
18.760333315186802
20
-260.69966187931254
30
0
10
18.868410043531142
20
-260.9735332552018
30
0
10
18.975752666093836
20
-261.24342734570786
30
0
10
19.135935280409928
20
-261.4705282785053
30
0
10
19.300998241738107
20
-261.70454838516912
30
0
10
19.527454194589168
20
-261.90061159508622
30
0
10
19.757313608869289
20
-262.09891667339957
30
0
10
19.780276579338501
20
-262.11872736364899
30
0
10
19.803239549807714
20
-262.13853805389834
30
0
10
19.826202520276933
20
-262.15834874414776
30
0
0
LINE
5
10E
100
AcDbEntity
8
INSETS D 0.1
100
AcDbLine
10
18.863636577170119
20
-262.44891543709036
30
0
11
19.826202520276933
21
-262.1583487441477
31
0
0
SPLINE
5
10F
100
AcDbEntity
8
INSETS D 0.1
100
AcDbSpline
70
0
71
3
72
17
73
13
74
0
42
0.000000001
43
0.0000000001
44
0.0000000001
40
-0.0027545606466637777
40
-0.0027545606466637777
40
-0.0027545606466637777
40
-0.0027545606466637777
40
0
40
0
40
0
40
0.048038803564106614
40
0.048038803564106614
40
0.048038803564106614
40
0.092300167557522558
40
0.092300167557522558
40
0.092300167557522558
40
0.092552745674382264
40
0.092552745674382264
40
0.092552745674382264
40
0.092552745674382264
10
18.863636577170119
20
-262.44891543709036
30
0
10
18.856689926662799
20
-262.44285793554678
30
0
10
18.849743276155458
20
-262.43680043400309
30
0
10
18.84279662564812
20
-262.43074293245945
30
0
10
18.72164889214114
20
-262.32510171991311
30
0
10
18.598932453376197
20
-262.2182505508141
30
0
10
18.489217080875441
20
-262.09683571934653
30
0
10
18.388128967149857
20
-261.98496811126552
30
0
10
18.300484918458871
20
-261.86340101925856
30
0
10
18.213824252473611
20
-261.74336880365894
30
0
10
18.213329722123774
20
-261.74268383807629
30
0
10
18.212835191773934
20
-261.74199887249358
30
0
10
18.212340661424051
20
-261.74131390691082
30
0
0
SPLINE
5
110
100
AcDbEntity
8
INSETS D 0.1
100
AcDbSpline
70
0
71
3
72
17
73
13
74
0
42
0.000000001
43
0.0000000001
44
0.0000000001
40
-0.00025273150610950355
40
-0.00025273150610950355
40
-0.00025273150610950355
40
-0.00025273150610950355
40
0
40
0
40
0
40
0.045544604095680945
40
0.045544604095680945
40
0.045544604095680945
40
0.097383432099052952
40
0.097383432099052952
40
0.097383432099052952
40
0.097525170531117561
40
0.097525170531117561
40
0.097525170531117561
40
0.097525170531117561
10
18.212340661420917
20
-261.74131390691275
30
0
10
18.211917929481881
20
-261.74058244545455
30
0
10
18.211495197542796
20
-261.73985098399623
30
0
10
18.21107246560371
20
-261.73911952253792
30
0
10
18.134892178070213
20
-261.60730326012236
30
0
10
18.057823062822646
20
-261.474111907652
30
0
10
17.993929355326799
20
-261.33318635623806
30
0
10
17.921205594101068
20
-261.17278501855867
30
0
10
17.86723136321076
20
-261.00607149721191
30
0
10
17.813732034815214
20
-260.84116354914141
30
0
10
17.813585756220288
20
-260.84071265557583
30
0
10
17.813439477625359
20
-260.84026176201024
30
0
10
17.813293199030461
20
-260.83981086844477
30
0
0
SPLINE
5
111
100
AcDbEntity
8
INSETS D 0.1
100
AcDbSpline
70
0
71
3
72
17
73
13
74
0
42
0.000000001
43
0.0000000001
44
0.0000000001
40
-0.00014012915852325817
40
-0.00014012915852325817
40
-0.00014012915852325817
40
-0.00014012915852325817
40
0
40
0
40
0
40
0.068953244690415777
40
0.068953244690415777
40
0.068953244690415777
40
0.12791379926259622
40
0.12791379926259622
40
0.12791379926259622
40
0.12835973929588074
40
0.12835973929588074
40
0.12835973929588074
40
0.12835973929588074
10
17.813293199042558
20
-260.83981086844165
30
0
10
17.813172784551284
20
-260.83935238982019
30
0
10
17.81305237006011
20
-260.83889391119931
30
0
10
17.812931955568938
20
-260.83843543257842
30
0
10
17.753679691713685
20
-260.61283221859588
30
0
10
17.69295038509917
20
-260.38353605432866
30
0
10
17.688451605167728
20
-260.14818925562957
30
0
10
17.684604787503861
20
-259.94694886686483
30
0
10
17.722003703704683
20
-259.7481322674584
30
0
10
17.758434732966602
20
-259.55254120053149
30
0
10
17.758710274038418
20
-259.55106187443749
30
0
10
17.758985815110236
20
-259.54958254834349
30
0
10
17.759261356182037
20
-259.54810322224955
30
0
0
SPLINE
5
112
100
AcDbEntity
8
INSETS D 0.1
100
AcDbSpline
70
0
71
3
72
17
73
13
74
0
42
0.000000001
43
0.0000000001
44
0.0000000001
40
-0.00044719563767704339
40
-0.00044719563767704339
40
-0.00044719563767704339
40
-0.00044719563767704339
40
0
40
0
40
0
40
0.055967442459423838
40
0.055967442459423838
40
0.055967442459423838
40
0.11382009482840263
40
0.11382009482840263
40
0.11382009482840263
40
0.11414091039169476
40
0.11414091039169476
40
0.11414091039169476
40
0.11414091039169476
10
17.759261356182176
20
-259.54810322225023
30
0
10
17.759797406713957
20
-259.54669717161158
30
0
10
17.760333457245665
20
-259.5452911209731
30
0
10
17.760869507777372
20
-259.54388507033462
30
0
10
17.82795732071925
20
-259.36791497676541
30
0
10
17.895855876441239
20
-259.18900808278897
30
0
10
17.995407149959515
20
-259.02567498846759
30
0
10
18.098311713160118
20
-258.85684017467429
30
0
10
18.231483331275825
20
-258.71047665491932
30
0
10
18.362317943610883
20
-258.56623107698897
30
0
10
18.363043472659868
20
-258.56543117889544
30
0
10
18.363769001708853
20
-258.56463128080185
30
0
10
18.364494530757845
20
-258.56383138270832
30
0
0
SPLINE
5
113
100
AcDbEntity
8
INSETS D 0.1
100
AcDbSpline
70
0
71
3
72
17
73
13
74
0
42
0.000000001
43
0.0000000001
44
0.0000000001
40
-0.00032109714226893026
40
-0.00032109714226893026
40
-0.00032109714226893026
40
-0.00032109714226893026
40
0
40
0
40
0
40
0.061002914420729325
40
0.061002914420729325
40
0.061002914420729325
40
0.1269577514821929
40
0.1269577514821929
40
0.1269577514821929
40
0.12721663050804441
40
0.12721663050804441
40
0.12721663050804441
40
0.12721663050804441
10
18.364494530759856
20
-258.5638313827103
30
0
10
18.365317218931882
20
-258.56313180176329
30
0
10
18.366139907103769
20
-258.56243222081639
30
0
10
18.366962595275641
20
-258.56173263986949
30
0
10
18.523259147128282
20
-258.42882433575426
30
0
10
18.681608147390158
20
-258.29381869656493
30
0
10
18.861054673822444
20
-258.18912336849525
30
0
10
19.055067804579767
20
-258.07592937818345
30
0
10
19.267666858189965
20
-258.00171072033157
30
0
10
19.477172823971664
20
-257.92824522538479
30
0
10
19.477995154868779
20
-257.92795686631041
30
0
10
19.478817485765912
20
-257.92766850723604
30
0
10
19.479639816662718
20
-257.92738014816177
30
0
0
SPLINE
5
114
100
AcDbEntity
8
INSETS D 0.1
100
AcDbSpline
70
0
71
3
72
17
73
13
74
0
42
0.000000001
43
0.0000000001
44
0.0000000001
40
-0.00025552636462600772
40
-0.00025552636462600772
40
-0.00025552636462600772
40
-0.00025552636462600772
40
0
40
0
40
0
40
0.095999883482440929
40
0.095999883482440929
40
0.095999883482440929
40
0.18344331149241405
40
0.18344331149241405
40
0.18344331149241405
40
0.18399738366308799
40
0.18399738366308799
40
0.18399738366308799
40
0.18399738366308799
10
19.479639816661695
20
-257.92738014815779
30
0
10
19.480487735462749
20
-257.92717911877594
30
0
10
19.481335654263724
20
-257.92697808939408
30
0
10
19.482183573064685
20
-257.92677706001223
30
0
10
19.80074211484698
20
-257.85125140040657
30
0
10
20.123830041915749
20
-257.77386614870017
30
0
10
20.447568392626643
20
-257.79331374202025
30
0
10
20.742451991830521
20
-257.81102797421266
30
0
10
21.028156453632135
20
-257.90850096627912
30
0
10
21.309926290530314
20
-258.00396709238487
30
0
10
21.311711682854405
20
-258.00457199917912
30
0
10
21.313497075178489
20
-258.00517690597349
30
0
10
21.315282467502538
20
-258.00578181276768
30
0
0
SPLINE
5
115
100
AcDbEntity
8
INSETS D 0.1
100
AcDbSpline
70
0
71
3
72
17
73
13
74
0
42
0.000000001
43
0.0000000001
44
0.0000000001
40
-0.00055002492962453781
40
-0.00055002492962453781
40
-0.00055002492962453781
40
-0.00055002492962453781
40
0
40
0
40
0
40
0.084002401311457461
40
0.084002401311457461
40
0.084002401311457461
40
0.17136973285320489
40
0.17136973285320489
40
0.17136973285320489
40
0.17177626808828286
40
0.17177626808828286
40
0.17177626808828286
40
0.17177626808828286
10
21.315282467502126
20
-258.00578181276921
30
0
10
21.316887649159394
20
-258.00677021036688
30
0
10
21.318492830816528
20
-258.00775860796455
30
0
10
21.320098012473668
20
-258.00874700556216
30
0
10
21.565248925597974
20
-258.1596997482078
30
0
10
21.815255400883192
20
-258.31257656453431
30
0
10
21.999284597037814
20
-258.52920065859672
30
0
10
22.190685551567555
20
-258.75450218272471
30
0
10
22.302113732966454
20
-259.03863033946584
30
0
10
22.412473740519999
20
-259.3174020991529
30
0
10
22.412987264635049
20
-259.3186992721449
30
0
10
22.413500788750099
20
-259.31999644513684
30
0
10
22.414014312865135
20
-259.32129361812878
30
0
0
SPLINE
5
116
100
AcDbEntity
8
INSETS D 0.1
100
AcDbSpline
70
0
71
3
72
17
73
13
74
0
42
0.000000001
43
0.0000000001
44
0.0000000001
40
-0.00040557036770520576
40
-0.00040557036770520576
40
-0.00040557036770520576
40
-0.00040557036770520576
40
0
40
0
40
0
40
0.083493631343096758
40
0.083493631343096758
40
0.083493631343096758
40
0.16300993216919582
40
0.16300993216919582
40
0.16300993216919582
40
0.16359804489160212
40
0.16359804489160212
40
0.16359804489160212
40
0.16359804489160212
10
22.414014312864822
20
-259.32129361812861
30
0
10
22.414305035973626
20
-259.32265811248891
30
0
10
22.414595759082424
20
-259.32402260684916
30
0
10
22.414886482191218
20
-259.32538710120929
30
0
10
22.474736831234484
20
-259.60629171888195
30
0
10
22.536800249171879
20
-259.8924486640143
30
0
10
22.499772356348235
20
-260.17302618864062
30
0
10
22.46450833659776
20
-260.44023802856589
30
0
10
22.341040071290344
20
-260.68971085766213
30
0
10
22.220780913870684
20
-260.9348552613958
30
0
10
22.219891461774331
20
-260.93666838073318
30
0
10
22.219002009677979
20
-260.93848150007057
30
0
10
22.218112557581588
20
-260.94029461940801
30
0
0
SPLINE
5
117
100
AcDbEntity
8
INSETS D 0.1
100
AcDbSpline
70
0
71
3
72
11
73
7
74
0
42
0.000000001
43
0.0000000001
44
0.0000000001
40
0.00032156976780005889
40
0.00032156976780005889
40
0.00032156976780005889
40
0.00032156976780005889
40
0.045007555215987337
40
0.045007555215987337
40
0.045007555215987337
40
0.086289527170167732
40
0.086289527170167732
40
0.086289527170167732
40
0.086289527170167732
10
21.564436954767263
20
-259.57785565660578
30
0
10
21.510620699011817
20
-259.4351611505528
30
0
10
21.45753648388024
20
-259.29748766834956
30
0
10
21.374206648473933
20
-259.19009189043862
30
0
10
21.29722457246762
20
-259.09087712663182
30
0
10
21.188259188444988
20
-259.00953476791921
30
0
10
21.074919603149397
20
-258.92641100335015
30
0
0
SPLINE
5
118
100
AcDbEntity
8
INSETS D 0.1
100
AcDbSpline
70
0
71
3
72
11
73
7
74
0
42
0.000000001
43
0.0000000001
44
0.0000000001
40
0.00056211604773567932
40
0.00056211604773567932
40
0.00056211604773567932
40
0.00056211604773567932
40
0.043937859068320678
40
0.043937859068320678
40
0.043937859068320678
40
0.088135065351972269
40
0.088135065351972269
40
0.088135065351972269
40
0.088135065351972269
10
21.074919603149361
20
-258.92641100335021
30
0
10
20.940164273109009
20
-258.86855147093604
30
0
10
20.808483466483718
20
-258.81291064075737
30
0
10
20.675542295839993
20
-258.78861714215827
30
0
10
20.540083444109356
20
-258.76386356575443
30
0
10
20.395569165072356
20
-258.77014965799594
30
0
10
20.247105630067594
20
-258.78103150091761
30
0
0
LINE
5
119
100
AcDbEntity
8
INSETS D 0.1
100
AcDbLine
10
20.879611373106993
20
-260.87634559525947
30
0
11
20.247105630067594
21
-258.78103150091766
31
0
0
SPLINE
5
11A
100
AcDbEntity
8
INSETS D 0.1
100
AcDbSpline
70
0
71
3
72
11
73
7
74
0
42
0.000000001
43
0.0000000001
44
0.0000000001
40
0.005473467851622677
40
0.005473467851622677
40
0.005473467851622677
40
0.005473467851622677
40
0.049074928644739883
40
0.049074928644739883
40
0.049074928644739883
40
0.090599515844262929
40
0.090599515844262929
40
0.090599515844262929
40
0.090599515844262929
10
20.879611373106993
20
-260.87634559525947
30
0
10
21.015119259164038
20
-260.81824901721052
30
0
10
21.144365927125342
20
-260.75796428551484
30
0
10
21.247872844832365
20
-260.67251647399945
30
0
10
21.346449405156175
20
-260.59113880830347
30
0
10
21.428156861191255
20
-260.4814720545275
30
0
10
21.511457386445947
20
-260.36792415148784
30
0
0
SPLINE
5
11B
100
AcDbEntity
8
INSETS D 0.1
100
AcDbSpline
70
0
71
3
72
11
73
7
74
0
42
0.000000001
43
0.0000000001
44
0.0000000001
40
0.00062906138860936711
40
0.00062906138860936711
40
0.00062906138860936711
40
0.00062906138860936711
40
0.040420798154495022
40
0.040420798154495022
40
0.040420798154495022
40
0.084554988159654801
40
0.084554988159654801
40
0.084554988159654801
40
0.084554988159654801
10
21.51145738644605
20
-260.3679241514879
30
0
10
21.561368820295442
20
-260.24172930460901
30
0
10
21.608346460186212
20
-260.11947517477705
30
0
10
21.618926215874783
20
-259.9998518090984
30
0
10
21.630660535251558
20
-259.8671740026237
30
0
10
21.598733121637007
20
-259.72493928959534
30
0
10
21.564436954767302
20
-259.57785565660572
30
0
0
LWPOLYLINE
5
11C
100
AcDbEntity
8
INSETS D 0.1
100
AcDbPolyline
90
6
70
1
43
0.0
10
12.657002515963004
20
-235.24507905248026
10
11.113959684318939
20
-238.0593331479073
10
11.424413007724535
20
-239.08777791908238
10
12.950836400098723
20
-236.22288396546693
10
15.604794904184661
20
-237.42122537999472
10
15.331819336458175
20
-236.51693390001569
0
LINE
5
11D
100
AcDbEntity
8
INSETS D 0.1
100
AcDbLine
10
11.363393333930205
20
-246.97131166617484
30
0
11
13.728822976104482
21
-246.25726700935189
31
0
0
SPLINE
5
11E
100
AcDbEntity
8
INSETS D 0.1
100
AcDbSpline
70
0
71
3
72
14
73
10
74
0
42
0.000000001
43
0.0000000001
44
0.0000000001
40
0.00036197947765374925
40
0.00036197947765374925
40
0.00036197947765374925
40
0.00036197947765374925
40
0.046396857256805743
40
0.046396857256805743
40
0.046396857256805743
40
0.099306608517088085
40
0.099306608517088085
40
0.099306608517088085
40
0.10623213394236893
40
0.10623213394236893
40
0.10623213394236893
40
0.10623213394236893
10
13.818827063496768
20
-247.29519253662869
30
0
10
13.783911697604863
20
-247.14511495942213
30
0
10
13.749709331199751
20
-246.99693199869782
30
0
10
13.73382584828396
20
-246.84895775496355
30
0
10
13.715570317461157
20
-246.67888495784507
30
0
10
13.720971742870338
20
-246.50401336804276
30
0
10
13.726609244580565
20
-246.32683954354579
30
0
10
13.727347155088538
20
-246.3036486988145
30
0
10
13.728085065596511
20
-246.28045785408321
30
0
10
13.728822976104485
20
-246.25726700935192
30
0
0
SPLINE
5
11F
100
AcDbEntity
8
INSETS D 0.1
100
AcDbSpline
70
0
71
3
72
11
73
7
74
0
42
0.000000001
43
0.0000000001
44
0.0000000001
40
0.00052960178759372081
40
0.00052960178759372081
40
0.00052960178759372081
40
0.00052960178759372081
40
0.088055415173311891
40
0.088055415173311891
40
0.088055415173311891
40
0.1794334910264247
40
0.1794334910264247
40
0.1794334910264247
40
0.1794334910264247
10
14.899009267085823
20
-248.6334221935893
30
0
10
14.648835651798201
20
-248.46920435646956
30
0
10
14.403599683752686
20
-248.3066519091829
30
0
10
14.228897607486452
20
-248.09417713278287
30
0
10
14.046506391007254
20
-247.87235073113385
30
0
10
13.933047560113421
20
-247.58643773580269
30
0
10
13.818827063496933
20
-247.29519253662858
30
0
0
SPLINE
5
120
100
AcDbEntity
8
INSETS D 0.1
100
AcDbSpline
70
0
71
3
72
11
73
7
74
0
42
0.000000001
43
0.0000000001
44
0.0000000001
40
0.00033270639827303401
40
0.00033270639827303401
40
0.00033270639827303401
40
0.00033270639827303401
40
0.095264564298093476
40
0.095264564298093476
40
0.095264564298093476
40
0.18415295595373449
40
0.18415295595373449
40
0.18415295595373449
40
0.18415295595373449
10
16.668177848603683
20
-248.75261958315545
30
0
10
16.351842950746843
20
-248.82406936481104
30
0
10
16.040183218687211
20
-248.89330074240655
30
0
10
15.741278595146518
20
-248.86921121006361
30
0
10
15.461402567933336
20
-248.84665524378349
30
0
10
15.182208275369897
20
-248.74144065962065
30
0
10
14.899009267085825
20
-248.63342219358935
30
0
0
SPLINE
5
121
100
AcDbEntity
8
INSETS D 0.1
100
AcDbSpline
70
0
71
3
72
11
73
7
74
0
42
0.000000001
43
0.0000000001
44
0.0000000001
40
0.00066220910890993183
40
0.00066220910890993183
40
0.00066220910890993183
40
0.00066220910890993183
40
0.088907677572973035
40
0.088907677572973035
40
0.088907677572973035
40
0.18708004051594893
40
0.18708004051594893
40
0.18708004051594893
40
0.18708004051594893
10
18.066894195806501
20
-247.63816032323496
30
0
10
17.903981867750879
20
-247.89254129235317
30
0
10
17.74258534558102
20
-248.14183217415174
30
0
10
17.530264283880765
20
-248.31930908063529
30
0
10
17.294058836819612
20
-248.51675068959906
30
0
10
16.984006937732765
20
-248.6343410409452
30
0
10
16.668177848603698
20
-248.75261958315548
30
0
0
SPLINE
5
122
100
AcDbEntity
8
INSETS D 0.1
100
AcDbSpline
70
0
71
3
72
11
73
7
74
0
42
0.000000001
43
0.0000000001
44
0.0000000001
40
0.00010610724146285263
40
0.00010610724146285263
40
0.00010610724146285263
40
0.00010610724146285263
40
0.10947818782303688
40
0.10947818782303688
40
0.10947818782303688
40
0.20212689763751213
40
0.20212689763751213
40
0.20212689763751213
40
0.20212689763751213
10
18.097765721879998
20
-245.67973733233785
30
0
10
18.189952320638199
20
-246.04114111694369
30
0
10
18.280069463521837
20
-246.39798343819041
30
0
10
18.263842000753488
20
-246.74583665970633
30
0
10
18.250095773370273
20
-247.04050191620408
30
0
10
18.159640517059859
20
-247.33747515091576
30
0
10
18.066894195806398
20
-247.63816032323493
30
0
0
LINE
5
123
100
AcDbEntity
8
INSETS D 0.1
100
AcDbLine
10
18.097765721879998
20
-245.67973733233785
30
0
11
17.653774776580661
21
-244.20891988019139
31
0
0
LINE
5
124
100
AcDbEntity
8
INSETS D 0.1
100
AcDbLine
10
17.653774776580661
20
-244.20891988019139
30
0
11
11.124490605429251
21
-246.1798939443382
31
0
0
LINE
5
125
100
AcDbEntity
8
INSETS D 0.1
100
AcDbLine
10
11.124490605429251
20
-246.1798939443382
30
0
11
11.363393333930205
21
-246.97131166617484
31
0
0
SPLINE
5
126
100
AcDbEntity
8
INSETS D 0.1
100
AcDbSpline
70
0
71
3
72
11
73
7
74
0
42
0.000000001
43
0.0000000001
44
0.0000000001
40
0.00034880662630154069
40
0.00034880662630154069
40
0.00034880662630154069
40
0.00034880662630154069
40
0.037337767742803896
40
0.037337767742803896
40
0.037337767742803896
40
0.072753534410099338
40
0.072753534410099338
40
0.072753534410099338
40
0.072753534410099338
10
17.094421087721628
20
-247.47289528865531
30
0
10
17.175550362699742
20
-247.37757325368852
30
0
10
17.253540195503465
20
-247.28477649029017
30
0
10
17.304535370783412
20
-247.18317925532841
30
0
10
17.353361646903583
20
-247.08590309890661
30
0
10
17.381078628929476
20
-246.97332111850039
30
0
10
17.4088910922518
20
-246.8568659867862
30
0
0
SPLINE
5
127
100
AcDbEntity
8
INSETS D 0.1
100
AcDbSpline
70
0
71
3
72
11
73
7
74
0
42
0.000000001
43
0.0000000001
44
0.0000000001
40
0.00050182543730094731
40
0.00050182543730094731
40
0.00050182543730094731
40
0.00050182543730094731
40
0.042373761146204933
40
0.042373761146204933
40
0.042373761146204933
40
0.098506511718999878
40
0.098506511718999878
40
0.098506511718999878
40
0.098506511718999878
10
17.408891092251974
20
-246.8568659867862
30
0
10
17.413549757151017
20
-246.71661259319936
30
0
10
17.417764258187024
20
-246.57857446598979
30
0
10
17.404006207403121
20
-246.44498406880362
30
0
10
17.385562416354389
20
-246.26589522762123
30
0
10
17.334065135679214
20
-246.08755065544915
30
0
10
17.281467372431411
20
-245.90640248455034
30
0
0
LINE
5
128
100
AcDbEntity
8
INSETS D 0.1
100
AcDbLine
10
17.110738658099692
20
-245.34083583297726
30
0
11
17.281467372431411
21
-245.90640248455034
31
0
0
LINE
5
129
100
AcDbEntity
8
INSETS D 0.1
100
AcDbLine
10
14.490088804448236
20
-246.13192299618862
30
0
11
17.110738658099692
21
-245.34083583297726
31
0
0
SPLINE
5
12A
100
AcDbEntity
8
INSETS D 0.1
100
AcDbSpline
70
0
71
3
72
11
73
7
74
0
42
0.000000001
43
0.0000000001
44
0.0000000001
40
0.0032220527068224209
40
0.0032220527068224209
40
0.0032220527068224209
40
0.0032220527068224209
40
0.045673041467539872
40
0.045673041467539872
40
0.045673041467539872
40
0.090376870296770981
40
0.090376870296770981
40
0.090376870296770981
40
0.090376870296770981
10
14.490088804448236
20
-246.13192299618862
30
0
10
14.472360182676866
20
-246.27317887590937
30
0
10
14.456834419043783
20
-246.41180543402368
30
0
10
14.464201884106542
20
-246.54643688361077
30
0
10
14.47196033465589
20
-246.6882131166991
30
0
10
14.505474192282058
20
-246.8316987097715
30
0
10
14.540125662275196
20
-246.97793693951181
30
0
0
SPLINE
5
12B
100
AcDbEntity
8
INSETS D 0.1
100
AcDbSpline
70
0
71
3
72
11
73
7
74
0
42
0.000000001
43
0.0000000001
44
0.0000000001
40
0.00035508670749003868
40
0.00035508670749003868
40
0.00035508670749003868
40
0.00035508670749003868
40
0.058906399807304867
40
0.058906399807304867
40
0.058906399807304867
40
0.11537369142235961
40
0.11537369142235961
40
0.11537369142235961
40
0.11537369142235961
10
14.540125662275008
20
-246.97793693951186
30
0
10
14.614331304442658
20
-247.16450051847437
30
0
10
14.687758713166971
20
-247.3455825776563
30
0
10
14.803778499497222
20
-247.48251889333335
30
0
10
14.915668784462447
20
-247.614581223974
30
0
10
15.074957167449597
20
-247.71478209052555
30
0
10
15.239413596871428
20
-247.81653484768864
30
0
0
SPLINE
5
12C
100
AcDbEntity
8
INSETS D 0.1
100
AcDbSpline
70
0
71
3
72
11
73
7
74
0
42
0.000000001
43
0.0000000001
44
0.0000000001
40
0.00054009974866134249
40
0.00054009974866134249
40
0.00054009974866134249
40
0.00054009974866134249
40
0.059104911789703417
40
0.059104911789703417
40
0.059104911789703417
40
0.12303561555522265
40
0.12303561555522265
40
0.12303561555522265
40
0.12303561555522265
10
15.239413596871508
20
-247.81653484768842
30
0
10
15.427641751485332
20
-247.88192368534109
30
0
10
15.611994975994296
20
-247.94480478117848
30
0
10
15.79412792318093
20
-247.95648649933509
30
0
10
15.992948462114287
20
-247.9692385331403
30
0
10
16.200736401083986
20
-247.92171478747935
30
0
10
16.413046827244862
20
-247.8720931963212
30
0
0
SPLINE
5
12D
100
AcDbEntity
8
INSETS D 0.1
100
AcDbSpline
70
0
71
3
72
11
73
7
74
0
42
0.000000001
43
0.0000000001
44
0.0000000001
40
0.00027550501652384024
40
0.00027550501652384024
40
0.00027550501652384024
40
0.00027550501652384024
40
0.042494384022309498
40
0.042494384022309498
40
0.042494384022309498
40
0.081823649364194603
40
0.081823649364194603
40
0.081823649364194603
40
0.081823649364194603
10
16.413046827244873
20
-247.87209319632123
30
0
10
16.547053125816792
20
-247.8245605704127
30
0
10
16.677798475780691
20
-247.77764688749863
30
0
10
16.791869074243564
20
-247.70941162720334
30
0
10
16.898132265979172
20
-247.64584663635037
30
0
10
16.995298849713112
20
-247.56056634285673
30
0
10
17.094421087721724
20
-247.47289528865539
30
0
0
SPLINE
5
12E
100
AcDbEntity
8
INSETS D 0.1
100
AcDbSpline
70
0
71
3
72
11
73
7
74
0
42
0.000000001
43
0.0000000001
44
0.0000000001
40
0.00061635933184003616
40
0.00061635933184003616
40
0.00061635933184003616
40
0.00061635933184003616
40
0.058845440366734614
40
0.058845440366734614
40
0.058845440366734614
40
0.12413820334194377
40
0.12413820334194377
40
0.12413820334194377
40
0.12413820334194377
10
17.538909037212697
20
-255.30527031164723
30
0
10
17.470627616752516
20
-255.49151082180583
30
0
10
17.40506037844586
20
-255.67385190273046
30
0
10
17.391605388883917
20
-255.85424126401597
30
0
10
17.37651819484465
20
-256.05651338647328
30
0
10
17.426033731673552
20
-256.26881721276732
30
0
10
17.477905797423837
20
-256.48585974380489
30
0
0
SPLINE
5
12F
100
AcDbEntity
8
INSETS D 0.1
100
AcDbSpline
70
0
71
3
72
14
73
10
74
0
42
0.000000001
43
0.0000000001
44
0.0000000001
40
0.0003640454855954147
40
0.0003640454855954147
40
0.0003640454855954147
40
0.0003640454855954147
40
0.056685774850149993
40
0.056685774850149993
40
0.056685774850149993
40
0.12452670188655487
40
0.12452670188655487
40
0.12452670188655487
40
0.13200175363067754
40
0.13200175363067754
40
0.13200175363067754
40
0.13200175363067754
10
17.477905797423759
20
-256.48585974380489
30
0
10
17.54809532764147
20
-256.66116926947029
30
0
10
17.617725677158795
20
-256.83418170827395
30
0
10
17.70853229707069
20
-256.99191625609399
30
0
10
17.817911134428311
20
-257.18191145103049
30
0
10
17.961248605381755
20
-257.35535131341544
30
0
10
18.106571836133625
20
-257.53080628618426
30
0
10
18.122584274597362
20
-257.55013879028616
30
0
10
18.138596713061098
20
-257.56947129438811
30
0
10
18.154609151524834
20
-257.58880379849006
30
0
0
LINE
5
130
100
AcDbEntity
8
INSETS D 0.1
100
AcDbLine
10
17.189442956871719
20
-257.88015542102437
30
0
11
18.154609151524834
21
-257.58880379849006
31
0
0
SPLINE
5
131
100
AcDbEntity
8
INSETS D 0.1
100
AcDbSpline
70
0
71
3
72
17
73
13
74
0
42
0.000000001
43
0.0000000001
44
0.0000000001
40
-0.0035891916169339382
40
-0.0035891916169339382
40
-0.0035891916169339382
40
-0.0035891916169339382
40
0
40
0
40
0
40
0.070146919361611298
40
0.070146919361611298
40
0.070146919361611298
40
0.13646613414313108
40
0.13646613414313108
40
0.13646613414313108
40
0.13675356917057988
40
0.13675356917057988
40
0.13675356917057988
40
0.13675356917057988
10
17.189442956871666
20
-257.8801554210242
30
0
10
17.182515543016812
20
-257.87032543888768
30
0
10
17.175588129161952
20
-257.86049545675104
30
0
10
17.168660715307091
20
-257.85066547461446
30
0
10
17.033271805233596
20
-257.65854896542334
30
0
10
16.896432759852736
20
-257.46465347575065
30
0
10
16.78756423308776
20
-257.25357124624242
30
0
10
16.684636331546507
20
-257.05400713362388
30
0
10
16.608708734876952
20
-256.84295648787582
30
0
10
16.53337930483762
20
-256.63398878697092
30
0
10
16.533052818511411
20
-256.63308309716382
30
0
10
16.532726332185206
20
-256.63217740735666
30
0
10
16.532399845858986
20
-256.63127171754957
30
0
0
SPLINE
5
132
100
AcDbEntity
8
INSETS D 0.1
100
AcDbSpline
70
0
71
3
72
17
73
13
74
0
42
0.000000001
43
0.0000000001
44
0.0000000001
40
-0.00028139255578564103
40
-0.00028139255578564103
40
-0.00028139255578564103
40
-0.00028139255578564103
40
0
40
0
40
0
40
0.098022599558058476
40
0.098022599558058476
40
0.098022599558058476
40
0.18690805937010144
40
0.18690805937010144
40
0.18690805937010144
40
0.18751430177198686
40
0.18751430177198686
40
0.18751430177198686
40
0.18751430177198686
10
16.532399845860336
20
-256.63127171754877
30
0
10
16.532179816309839
20
-256.63033445860464
30
0
10
16.531959786759344
20
-256.6293971996605
30
0
10
16.531739757208847
20
-256.62845994071637
30
0
10
16.455092852109232
20
-256.30196744376531
30
0
10
16.376404959078343
20
-255.97064486949267
30
0
10
16.403715078688741
20
-255.64092469085074
30
0
10
16.428479495772521
20
-255.34193925463472
30
0
10
16.539534634590495
20
-255.05477114795804
30
0
10
16.648242836395475
20
-254.77167479581081
30
0
10
16.648984279613593
20
-254.76974393993342
30
0
10
16.649725722831711
20
-254.76781308405606
30
0
10
16.650467166049843
20
-254.76588222817864
30
0
0
SPLINE
5
133
100
AcDbEntity
8
INSETS D 0.1
100
AcDbSpline
70
0
71
3
72
17
73
13
74
0
42
0.000000001
43
0.0000000001
44
0.0000000001
40
-0.0006060655558741111
40
-0.0006060655558741111
40
-0.0006060655558741111
40
-0.0006060655558741111
40
0
40
0
40
0
40
0.088724084640446121
40
0.088724084640446121
40
0.088724084640446121
40
0.18632650659513406
40
0.18632650659513406
40
0.18632650659513406
40
0.18663020694524612
40
0.18663020694524612
40
0.18663020694524612
40
0.18663020694524612
10
16.650467166049559
20
-254.76588222817861
30
0
10
16.65165808479879
20
-254.76419117673026
30
0
10
16.652849003548003
20
-254.76250012528192
30
0
10
16.654039922297216
20
-254.76080907383363
30
0
10
16.828382738649424
20
-254.513250059174
30
0
10
17.004809951321292
20
-254.26144265870079
30
0
10
17.239310978090067
20
-254.07516518675206
30
0
10
17.497277777705378
20
-253.87024751990353
30
0
10
17.815440859007566
20
-253.75263522490667
30
0
10
18.128429428166928
20
-253.63599971284754
30
0
10
18.129403325495822
20
-253.63563678900672
30
0
10
18.130377222824716
20
-253.63527386516591
30
0
10
18.131351120153674
20
-253.63491094132507
30
0
0
SPLINE
5
134
100
AcDbEntity
8
INSETS D 0.1
100
AcDbSpline
70
0
71
3
72
17
73
13
74
0
42
0.000000001
43
0.0000000001
44
0.0000000001
40
-0.00030437813022812256
40
-0.00030437813022812256
40
-0.00030437813022812256
40
-0.00030437813022812256
40
0
40
0
40
0
40
0.098884645047248795
40
0.098884645047248795
40
0.098884645047248795
40
0.18870963772357419
40
0.18870963772357419
40
0.18870963772357419
40
0.18928676192879457
40
0.18928676192879457
40
0.18928676192879457
40
0.18928676192879457
10
18.131351120153436
20
-253.63491094132576
30
0
10
18.132362560487969
20
-253.63467182176376
30
0
10
18.133374000822137
20
-253.63443270220182
30
0
10
18.134385441156287
20
-253.63419358263985
30
0
10
18.462976455105522
20
-253.55650977207796
30
0
10
18.796216414556412
20
-253.47689417498319
30
0
10
19.12916542047904
20
-253.4998224201268
30
0
10
19.431610173193668
20
-253.52065001627292
30
0
10
19.723803076206746
20
-253.62540507283251
30
0
10
20.012006158063713
20
-253.72802504761833
30
0
10
20.013857858460263
20
-253.72868437938806
30
0
10
20.01570955885682
20
-253.72934371115781
30
0
10
20.017561259253419
20
-253.73000304292759
30
0
0
SPLINE
5
135
100
AcDbEntity
8
INSETS D 0.1
100
AcDbSpline
70
0
71
3
72
17
73
13
74
0
42
0.000000001
43
0.0000000001
44
0.0000000001
40
-0.00057451449135194105
40
-0.00057451449135194105
40
-0.00057451449135194105
40
-0.00057451449135194105
40
0
40
0
40
0
40
0.087582994266084777
40
0.087582994266084777
40
0.087582994266084777
40
0.18086311808274508
40
0.18086311808274508
40
0.18086311808274508
40
0.18109304692425321
40
0.18109304692425321
40
0.18109304692425321
40
0.18109304692425321
10
20.017561259252361
20
-253.73000304292759
30
0
10
20.019208773824246
20
-253.73107505434155
30
0
10
20.020856288395894
20
-253.73214706575538
30
0
10
20.022503802967538
20
-253.73321907716922
30
0
10
20.273662409853628
20
-253.89664397057822
30
0
10
20.529429101630651
20
-254.06206697594649
30
0
10
20.717947702935323
20
-254.29005172071254
30
0
10
20.918729128813705
20
-254.53286649769399
30
0
10
21.034847294132263
20
-254.83650669386805
30
0
10
21.14993708944769
20
-255.13485189381294
30
0
10
21.150220777571413
20
-255.13558729341776
30
0
10
21.150504465695139
20
-255.13632269302258
30
0
10
21.150788153818855
20
-255.1370580926274
30
0
0
SPLINE
5
136
100
AcDbEntity
8
INSETS D 0.1
100
AcDbSpline
70
0
71
3
72
17
73
13
74
0
42
0.000000001
43
0.0000000001
44
0.0000000001
40
-0.00023593383347395578
40
-0.00023593383347395578
40
-0.00023593383347395578
40
-0.00023593383347395578
40
0
40
0
40
0
40
0.033609516902260807
40
0.033609516902260807
40
0.033609516902260807
40
0.063986680983139282
40
0.063986680983139282
40
0.063986680983139282
40
0.064195339502679083
40
0.064195339502679083
40
0.064195339502679083
40
0.064195339502679083
10
21.150788153817341
20
-255.13705809262831
30
0
10
21.151001172136272
20
-255.13781698307298
30
0
10
21.151214190455182
20
-255.13857587351754
30
0
10
21.151427208774088
20
-255.1393347639621
30
0
10
21.181772338525459
20
-255.24744109549971
30
0
10
21.212599154250547
20
-255.35700140185966
30
0
10
21.233372155889171
20
-255.47002002802361
30
0
10
21.252147340342553
20
-255.57216923061887
30
0
10
21.26222649463908
20
-255.67451555573308
30
0
10
21.272227057220441
20
-255.7754810820507
30
0
10
21.272295750353784
20
-255.77617460687054
30
0
10
21.272364443487124
20
-255.77686813169038
30
0
10
21.272433136620457
20
-255.77756165651007
30
0
0
SPLINE
5
137
100
AcDbEntity
8
INSETS D 0.1
100
AcDbSpline
70
0
71
3
72
17
73
13
74
0
42
0.000000001
43
0.0000000001
44
0.0000000001
40
-0.00020885015489697405
40
-0.00020885015489697405
40
-0.00020885015489697405
40
-0.00020885015489697405
40
0
40
0
40
0
40
0.03289833745880362
40
0.03289833745880362
40
0.03289833745880362
40
0.073988419875364503
40
0.073988419875364503
40
0.073988419875364503
40
0.077256512987238124
40
0.077256512987238124
40
0.077256512987238124
40
0.077256512987238124
10
21.272433136619902
20
-255.77756165651022
30
0
10
21.272443691552994
20
-255.77825849509222
30
0
10
21.272454246486092
20
-255.77895533367416
30
0
10
21.272464801419183
20
-255.77965217225614
30
0
10
21.27412742767352
20
-255.88941905672496
30
0
10
21.275834594541134
20
-256.00017468338223
30
0
10
21.270897071109079
20
-256.11160266728223
30
0
10
21.264730095497892
20
-256.2507764187734
30
0
10
21.248321550046505
20
-256.38819704059478
30
0
10
21.232104994907605
20
-256.52439491591059
30
0
10
21.230815213796667
20
-256.53522739207011
30
0
10
21.22952543268573
20
-256.54605986822963
30
0
10
21.228235651574792
20
-256.55689234438921
30
0
0
LINE
5
138
100
AcDbEntity
8
INSETS D 0.1
100
AcDbLine
10
20.187522077069566
20
-256.87104921209288
30
0
11
21.228235651574789
21
-256.55689234438915
31
0
0
SPLINE
5
139
100
AcDbEntity
8
INSETS D 0.1
100
AcDbSpline
70
0
71
3
72
14
73
10
74
0
42
0.000000001
43
0.0000000001
44
0.0000000001
40
-0.0086634483206320945
40
-0.0086634483206320945
40
-0.0086634483206320945
40
-0.0086634483206320945
40
0
40
0
40
0
40
0.073973902195125008
40
0.073973902195125008
40
0.073973902195125008
40
0.13572964143389632
40
0.13572964143389632
40
0.13572964143389632
40
0.13572964143389632
10
20.187522077069531
20
-256.871049212093
30
0
10
20.194551364675025
20
-256.84263187598737
30
0
10
20.201580652280519
20
-256.81421453988179
30
0
10
20.20860993988601
20
-256.78579720377616
30
0
10
20.268630362999946
20
-256.5431523395232
30
0
10
20.327295948991907
20
-256.3040942456322
30
0
10
20.330453808039422
20
-256.0677449076727
30
0
10
20.333090088053098
20
-255.87043304969083
30
0
10
20.297130882184927
20
-255.66870709278106
30
0
10
20.259988371870385
20
-255.46395106713925
30
0
0
SPLINE
5
13A
100
AcDbEntity
8
INSETS D 0.1
100
AcDbSpline
70
0
71
3
72
11
73
7
74
0
42
0.000000001
43
0.0000000001
44
0.0000000001
40
0.00048938176099065514
40
0.00048938176099065514
40
0.00048938176099065514
40
0.00048938176099065514
40
0.056831050507936541
40
0.056831050507936541
40
0.056831050507936541
40
0.11158055301065448
40
0.11158055301065448
40
0.11158055301065448
40
0.11158055301065448
10
20.259988371870207
20
-255.46395106713933
30
0
10
20.188305496183592
20
-255.28458219248688
30
0
10
20.117298834030713
20
-255.11074360853073
30
0
10
20.005770625014314
20
-254.97937073352637
30
0
10
19.897394105566651
20
-254.85171034098204
30
0
10
19.742913002298035
20
-254.75490951751809
30
0
10
19.583251920842486
20
-254.65655634934944
30
0
0
SPLINE
5
13B
100
AcDbEntity
8
INSETS D 0.1
100
AcDbSpline
70
0
71
3
72
11
73
7
74
0
42
0.000000001
43
0.0000000001
44
0.0000000001
40
0.00052903738081594984
40
0.00052903738081594984
40
0.00052903738081594984
40
0.00052903738081594984
40
0.057215450632932249
40
0.057215450632932249
40
0.057215450632932249
40
0.11853208683071846
40
0.11853208683071846
40
0.11853208683071846
40
0.11853208683071846
10
19.583251920842521
20
-254.65655634934944
30
0
10
19.401199281042988
20
-254.59280706664225
30
0
10
19.223034148466752
20
-254.53157982403582
30
0
10
19.047097403810469
20
-254.52008663830182
30
0
10
18.856789907763162
20
-254.50765467360381
30
0
10
18.657587786043401
20
-254.55266975424354
30
0
10
18.453881473639338
20
-254.59980303567451
30
0
0
SPLINE
5
13C
100
AcDbEntity
8
INSETS D 0.1
100
AcDbSpline
70
0
71
3
72
11
73
7
74
0
42
0.000000001
43
0.0000000001
44
0.0000000001
40
0.00031774919274380414
40
0.00031774919274380414
40
0.00031774919274380414
40
0.00031774919274380414
40
0.063918334244350852
40
0.063918334244350852
40
0.063918334244350852
40
0.12144422593424098
40
0.12144422593424098
40
0.12144422593424098
40
0.12144422593424098
10
18.453881473639349
20
-254.59980303567454
30
0
10
18.249877980796072
20
-254.67607793088661
30
0
10
18.051294240470625
20
-254.75163973399049
30
0
10
17.898196146358526
20
-254.8748615863708
30
0
10
17.759720936222092
20
-254.9863141292696
30
0
10
17.650145236147516
20
-255.14343344392231
30
0
10
17.538909037212878
20
-255.30527031164735
30
0
0
SPLINE
5
13D
100
AcDbEntity
8
INSETS D 0.1
100
AcDbSpline
70
0
71
3
72
17
73
13
74
0
42
0.000000001
43
0.0000000001
44
0.0000000001
40
-0.00067275839847336615
40
-0.00067275839847336615
40
-0.00067275839847336615
40
-0.00067275839847336615
40
0
40
0
40
0
40
0.036511837975104801
40
0.036511837975104801
40
0.036511837975104801
40
0.075986634208622478
40
0.075986634208622478
40
0.075986634208622478
40
0.076560074427749369
40
0.076560074427749369
40
0.076560074427749369
40
0.076560074427749369
10
11.745402003038755
20
-227.78810686248349
30
0
10
11.746489842131654
20
-227.78606115004689
30
0
10
11.747577681224538
20
-227.78401543761026
30
0
10
11.748665520317418
20
-227.78196972517367
30
0
10
11.80770455244647
20
-227.67094514161047
30
0
10
11.870270430690828
20
-227.55557156755444
30
0
10
11.889737794008937
20
-227.42705098306189
30
0
10
11.910784945913754
20
-227.28810087356271
30
0
10
11.879111148101222
20
-227.14928446512519
30
0
10
11.849936948774731
20
-227.01607011151893
30
0
10
11.849513142679429
20
-227.01413494084264
30
0
10
11.849089336584125
20
-227.01219977016638
30
0
10
11.848665530488828
20
-227.01026459949017
30
0
0
SPLINE
5
13E
100
AcDbEntity
8
INSETS D 0.1
100
AcDbSpline
70
0
71
3
72
17
73
13
74
0
42
0.000000001
43
0.0000000001
44
0.0000000001
40
-0.00057869945045609193
40
-0.00057869945045609193
40
-0.00057869945045609193
40
-0.00057869945045609193
40
0
40
0
40
0
40
0.056252138248555204
40
0.056252138248555204
40
0.056252138248555204
40
0.1224673531256425
40
0.1224673531256425
40
0.1224673531256425
40
0.12439936581228929
40
0.12439936581228929
40
0.12439936581228929
40
0.12439936581228929
10
11.848665530488788
20
-227.01026459949017
30
0
10
11.847799904974718
20
-227.00848269331368
30
0
10
11.846934279460665
20
-227.00670078713725
30
0
10
11.846068653946613
20
-227.00491888096082
30
0
10
11.761926037170936
20
-226.83170974363799
30
0
10
11.676404170229585
20
-226.6537639946925
30
0
10
11.544385130146381
20
-226.51257030583608
30
0
10
11.388983586682379
20
-226.34636914907992
30
0
10
11.179648288385597
20
-226.2423026740635
30
0
10
10.97603499115711
20
-226.13984749723502
30
0
10
10.970094008044008
20
-226.13685808306772
30
0
10
10.964153024930903
20
-226.13386866890039
30
0
10
10.958212041817779
20
-226.13087925473306
30
0
0
LINE
5
13F
100
AcDbEntity
8
INSETS D 0.1
100
AcDbLine
10
7.8008643411402998
20
-227.08397767508131
30
0
11
10.958212041817781
21
-226.13087925473309
31
0
0
LINE
5
140
100
AcDbEntity
8
INSETS D 0.1
100
AcDbLine
10
7.5662809461373017
20
-226.30686869345146
30
0
11
7.8008643411402998
21
-227.08397767508131
31
0
0
LINE
5
141
100
AcDbEntity
8
INSETS D 0.1
100
AcDbLine
10
9.960455062359868
20
-225.58414703447144
30
0
11
7.5662809461373017
21
-226.30686869345146
31
0
0
SPLINE
5
142
100
AcDbEntity
8
INSETS D 0.1
100
AcDbSpline
70
0
71
3
72
14
73
10
74
0
42
0.000000001
43
0.0000000001
44
0.0000000001
40
1.0594505721750011e-06
40
1.0594505721750011e-06
40
1.0594505721750011e-06
40
1.0594505721750011e-06
40
0.064907593951376255
40
0.064907593951376255
40
0.064907593951376255
40
0.10929876477752751
40
0.10929876477752751
40
0.10929876477752751
40
0.11025009470016021
40
0.11025009470016021
40
0.11025009470016021
40
0.11025009470016021
10
9.9604550623597472
20
-225.58414703447144
30
0
10
10.170552329958888
20
-225.52082418075227
30
0
10
10.384663677609394
20
-225.45681440465557
30
0
10
10.576186991769635
20
-225.34341953011281
30
0
10
10.707174483575606
20
-225.26586599431926
30
0
10
10.823305396005082
20
-225.1677510677948
30
0
10
10.937508969012683
20
-225.07157002418725
30
0
10
10.939956421383316
20
-225.06950880563699
30
0
10
10.94240387375395
20
-225.06744758708675
30
0
10
10.944851326124629
20
-225.06538636853648
30
0
0
SPLINE
5
143
100
AcDbEntity
8
INSETS D 0.1
100
AcDbSpline
70
0
71
3
72
17
73
13
74
0
42
0.000000001
43
0.0000000001
44
0.0000000001
40
-0.00092832560841663156
40
-0.00092832560841663156
40
-0.00092832560841663156
40
-0.00092832560841663156
40
0
40
0
40
0
40
0.036006387600690588
40
0.036006387600690588
40
0.036006387600690588
40
0.079878969255586296
40
0.079878969255586296
40
0.079878969255586296
40
0.080118661397557245
40
0.080118661397557245
40
0.080118661397557245
40
0.080118661397557245
10
10.944851326124851
20
-225.06538636853668
30
0
10
10.946361450149762
20
-225.06256534559259
30
0
10
10.947871574174673
20
-225.0597443226485
30
0
10
10.949381698199581
20
-225.05692329970441
30
0
10
11.00795393888003
20
-224.94750603852515
30
0
10
11.069988831145423
20
-224.83386421606497
30
0
10
11.090110827604027
20
-224.70757094461359
30
0
10
11.114628808760035
20
-224.55368680811918
30
0
10
11.073958515287357
20
-224.3996999475807
30
0
10
11.036435684850588
20
-224.25186159979663
30
0
10
11.036230683748283
20
-224.25105390421751
30
0
10
11.036025682645977
20
-224.25024620863843
30
0
10
11.035820681543688
20
-224.2494385130594
30
0
0
SPLINE
5
144
100
AcDbEntity
8
INSETS D 0.1
100
AcDbSpline
70
0
71
3
72
17
73
13
74
0
42
0.000000001
43
0.0000000001
44
0.0000000001
40
-0.00024747759085024478
40
-0.00024747759085024478
40
-0.00024747759085024478
40
-0.00024747759085024478
40
0
40
0
40
0
40
0.02740730109328474
40
0.02740730109328474
40
0.02740730109328474
40
0.054087785525823578
40
0.054087785525823578
40
0.054087785525823578
40
0.054454760355611254
40
0.054454760355611254
40
0.054454760355611254
40
0.054454760355611254
10
11.035820681544315
20
-224.24943851305954
30
0
10
11.035536137387423
20
-224.24865529391423
30
0
10
11.035251593230605
20
-224.24787207476908
30
0
10
11.034967049073783
20
-224.24708885562393
30
0
10
11.003454751925778
20
-224.16035000036362
30
0
10
10.971154025580956
20
-224.07051187663725
30
0
10
10.921194655090844
20
-223.98725329593356
30
0
10
10.872560161600088
20
-223.90620265695298
30
0
10
10.810564069978422
20
-223.83700847311809
30
0
10
10.750850373521054
20
-223.76992580759591
30
0
10
10.750029045720613
20
-223.76900312383339
30
0
10
10.749207717920173
20
-223.76808044007083
30
0
10
10.74838639012011
20
-223.76715775630882
30
0
0
SPLINE
5
145
100
AcDbEntity
8
INSETS D 0.1
100
AcDbSpline
70
0
71
3
72
17
73
13
74
0
42
0.000000001
43
0.0000000001
44
0.0000000001
40
-0.00036940414044223514
40
-0.00036940414044223514
40
-0.00036940414044223514
40
-0.00036940414044223514
40
0
40
0
40
0
40
0.031050967951378308
40
0.031050967951378308
40
0.031050967951378308
40
0.071084621424839553
40
0.071084621424839553
40
0.071084621424839553
40
0.073062468821607926
40
0.073062468821607926
40
0.073062468821607926
40
0.073062468821607926
10
10.748386390120954
20
-223.7671577563074
30
0
10
10.747438010803517
20
-223.76636623791282
30
0
10
10.746489631486085
20
-223.76557471951827
30
0
10
10.745541252168644
20
-223.76478320112372
30
0
10
10.665823424005927
20
-223.69825061631886
30
0
10
10.58486758141151
20
-223.63057148316045
30
0
10
10.496531980939894
20
-223.57091268115386
30
0
10
10.382641913996157
20
-223.49399527845281
30
0
10
10.260723155459811
20
-223.43327198283276
30
0
10
10.140819276490401
20
-223.37339372665451
30
0
10
10.134895471034094
20
-223.370435464222
30
0
10
10.128971665577787
20
-223.36747720178954
30
0
10
10.123047860121515
20
-223.36451893935708
30
0
0
LINE
5
146
100
AcDbEntity
8
INSETS D 0.1
100
AcDbLine
10
6.9657843560518895
20
-224.31759194354541
30
0
11
10.123047860121515
21
-223.36451893935714
31
0
0
LINE
5
147
100
AcDbEntity
8
INSETS D 0.1
100
AcDbLine
10
6.7326406240484058
20
-223.54525216157447
30
0
11
6.9657843560518895
21
-224.31759194354541
31
0
0
LINE
5
148
100
AcDbEntity
8
INSETS D 0.1
100
AcDbLine
10
11.024967301540121
20
-222.24954127896945
30
0
11
6.7326406240484058
21
-223.54525216157447
31
0
0
LINE
5
149
100
AcDbEntity
8
INSETS D 0.1
100
AcDbLine
10
11.258111033543614
20
-223.02188106094039
30
0
11
11.024967301540121
21
-222.24954127896945
31
0
0
LINE
5
14A
100
AcDbEntity
8
INSETS D 0.1
100
AcDbLine
10
10.618400931347548
20
-223.21498829704018
30
0
11
11.258111033543614
21
-223.02188106094039
31
0
0
SPLINE
5
14B
100
AcDbEntity
8
INSETS D 0.1
100
AcDbSpline
70
0
71
3
72
14
73
10
74
0
42
0.000000001
43
0.0000000001
44
0.0000000001
40
-0.011234152123709928
40
-0.011234152123709928
40
-0.011234152123709928
40
-0.011234152123709928
40
0
40
0
40
0
40
0.085969139195963787
40
0.085969139195963787
40
0.085969139195963787
40
0.15442533947211834
40
0.15442533947211834
40
0.15442533947211834
40
0.15442533947211834
10
10.618400931347624
20
-223.21498829704026
30
0
10
10.651685085542271
20
-223.23425443378528
30
0
10
10.684969239736915
20
-223.25352057053033
30
0
10
10.718253393931558
20
-223.27278670727534
30
0
10
10.972959761930634
20
-223.42022045869356
30
0
10
11.222541957004147
20
-223.56576887630624
30
0
10
11.400992370332608
20
-223.76829443243582
30
0
10
11.543090306271338
20
-223.92956311746761
30
0
10
11.645975637988325
20
-224.13361873577736
30
0
10
11.749706340783488
20
-224.34209535420041
30
0
0
SPLINE
5
14C
100
AcDbEntity
8
INSETS D 0.1
100
AcDbSpline
70
0
71
3
72
14
73
10
74
0
42
0.000000001
43
0.0000000001
44
0.0000000001
40
0.00073730259171283054
40
0.00073730259171283054
40
0.00073730259171283054
40
0.00073730259171283054
40
0.080064565331417453
40
0.080064565331417453
40
0.080064565331417453
40
0.16475960286360386
40
0.16475960286360386
40
0.16475960286360386
40
0.17056673803928918
40
0.17056673803928918
40
0.17056673803928918
40
0.17056673803928918
10
11.749706340783543
20
-224.34209535420038
30
0
10
11.792587609195284
20
-224.61500436711441
30
0
10
11.832094114911747
20
-224.8817080545212
30
0
10
11.774928426190513
20
-225.11506105828715
30
0
10
11.713894552279031
20
-225.36420417415468
30
0
10
11.538114657317816
20
-225.59375439889982
30
0
10
11.356810582871944
20
-225.82766609685279
30
0
10
11.344379426349819
20
-225.84370430745835
30
0
10
11.331948269827697
20
-225.85974251806391
30
0
10
11.319517113305579
20
-225.87578072866947
30
0
0
SPLINE
5
14D
100
AcDbEntity
8
INSETS D 0.1
100
AcDbSpline
70
0
71
3
72
14
73
10
74
0
42
0.000000001
43
0.0000000001
44
0.0000000001
40
-0.0058966953054133547
40
-0.0058966953054133547
40
-0.0058966953054133547
40
-0.0058966953054133547
40
0
40
0
40
0
40
0.097314555888658824
40
0.097314555888658824
40
0.097314555888658824
40
0.17704031908278797
40
0.17704031908278797
40
0.17704031908278797
40
0.17704031908278797
10
11.319517113305546
20
-225.87578072866938
30
0
10
11.33766508818657
20
-225.88485866123273
30
0
10
11.355813063067613
20
-225.89393659379598
30
0
10
11.373961037948654
20
-225.90301452635927
30
0
10
11.673461355390165
20
-226.05282979237313
30
0
10
11.967227526840549
20
-226.20103805721982
30
0
10
12.175751763442291
20
-226.42298654074619
30
0
10
12.346586986968029
20
-226.60481969075477
30
0
10
12.467355555158647
20
-226.84372705457687
30
0
10
12.589077771410286
20
-227.0875700014721
30
0
0
SPLINE
5
14E
100
AcDbEntity
8
INSETS D 0.1
100
AcDbSpline
70
0
71
3
72
11
73
7
74
0
42
0.000000001
43
0.0000000001
44
0.0000000001
40
0.0006413595443180972
40
0.0006413595443180972
40
0.0006413595443180972
40
0.0006413595443180972
40
0.06205756595680785
40
0.06205756595680785
40
0.06205756595680785
40
0.12258923799489034
40
0.12258923799489034
40
0.12258923799489034
40
0.12258923799489034
10
12.589077771410388
20
-227.08757000147205
30
0
10
12.631005526715871
20
-227.29412039995327
30
0
10
12.670260281560804
20
-227.49560465827702
30
0
10
12.646153727200014
20
-227.68252012044957
30
0
10
12.622394362566922
20
-227.86674357083803
30
0
10
12.535472736845023
20
-228.04932943009871
30
0
10
12.44476242769024
20
-228.23608892436781
30
0
0
SPLINE
5
14F
100
AcDbEntity
8
INSETS D 0.1
100
AcDbSpline
70
0
71
3
72
11
73
7
74
0
42
0.000000001
43
0.0000000001
44
0.0000000001
40
0.00065780301472729067
40
0.00065780301472729067
40
0.00065780301472729067
40
0.00065780301472729067
40
0.069613432471544126
40
0.069613432471544126
40
0.069613432471544126
40
0.15752409584191698
40
0.15752409584191698
40
0.15752409584191698
40
0.15752409584191698
10
12.444762427690261
20
-228.23608892436781
30
0
10
12.290966050274388
20
-228.412076605002
30
0
10
12.139008479374869
20
-228.58448373288269
30
0
10
11.961042007883592
20
-228.7107811897317
30
0
10
11.734154795197345
20
-228.87179622651763
30
0
10
11.454641223370176
20
-228.96519176692451
30
0
10
11.170154902283748
20
-229.05934796980785
30
0
0
LINE
5
150
100
AcDbEntity
8
INSETS D 0.1
100
AcDbLine
10
8.6287453222323265
20
-229.82651512586273
30
0
11
11.170154902283748
21
-229.05934796980779
31
0
0
LINE
5
151
100
AcDbEntity
8
INSETS D 0.1
100
AcDbLine
10
8.395601590228841
20
-229.05417534389181
30
0
11
8.6287453222323265
21
-229.82651512586273
31
0
0
LINE
5
152
100
AcDbEntity
8
INSETS D 0.1
100
AcDbLine
10
10.947852020611196
20
-228.28373569512945
30
0
11
8.395601590228841
21
-229.05417534389181
31
0
0
SPLINE
5
153
100
AcDbEntity
8
INSETS D 0.1
100
AcDbSpline
70
0
71
3
72
17
73
13
74
0
42
0.000000001
43
0.0000000001
44
0.0000000001
40
-6.858486256429601e-05
40
-6.858486256429601e-05
40
-6.858486256429601e-05
40
-6.858486256429601e-05
40
0
40
0
40
0
40
0.050907136812113798
40
0.050907136812113798
40
0.050907136812113798
40
0.091969780983128233
40
0.091969780983128233
40
0.091969780983128233
40
0.092655044094213213
40
0.092655044094213213
40
0.092655044094213213
40
0.092655044094213213
10
10.947852020611855
20
-228.2837356951292
30
0
10
10.94807296838486
20
-228.28366220341042
30
0
10
10.948293916158658
20
-228.28358871169138
30
0
10
10.948514863932452
20
-228.28351521997234
30
0
10
11.112513421758351
20
-228.22896596733014
30
0
10
11.280943219968469
20
-228.17360545169709
30
0
10
11.427727252380098
20
-228.07545193616463
30
0
10
11.546125985256195
20
-227.99627948344317
30
0
10
11.644437464576484
20
-227.89327650189574
30
0
10
11.740588242325803
20
-227.79312111289352
30
0
10
11.74219282923012
20
-227.7914496960901
30
0
10
11.743797416134443
20
-227.78977827928671
30
0
10
11.745402003038771
20
-227.78810686248332
30
0
0
SPLINE
5
154
100
AcDbEntity
8
INSETS D 0.1
100
AcDbSpline
70
0
71
3
72
17
73
13
74
0
42
0.000000001
43
0.0000000001
44
0.0000000001
40
-0.00018749086052605591
40
-0.00018749086052605591
40
-0.00018749086052605591
40
-0.00018749086052605591
40
0
40
0
40
0
40
0.038673366001420476
40
0.038673366001420476
40
0.038673366001420476
40
0.073422368900172827
40
0.073422368900172827
40
0.073422368900172827
40
0.073650907590916304
40
0.073650907590916304
40
0.073650907590916304
40
0.073650907590916304
10
12.43510121624001
20
-243.05788453223539
30
0
10
12.434933072504501
20
-243.05728070513439
30
0
10
12.434764928769027
20
-243.05667687803353
30
0
10
12.434596785033554
20
-243.05607305093275
30
0
10
12.399914111942387
20
-242.93152283868707
30
0
10
12.364674316948708
20
-242.80531620315003
30
0
10
12.342741798621981
20
-242.67501607642455
30
0
10
12.32303487311453
20
-242.55793809875061
30
0
10
12.314575253287101
20
-242.44054749558981
30
0
10
12.306154781087223
20
-242.32472457850943
30
0
10
12.306099400974659
20
-242.32396282952041
30
0
10
12.306044020862096
20
-242.32320108053145
30
0
10
12.305988640749529
20
-242.32243933154234
30
0
0
SPLINE
5
155
100
AcDbEntity
8
INSETS D 0.1
100
AcDbSpline
70
0
71
3
72
17
73
13
74
0
42
0.000000001
43
0.0000000001
44
0.0000000001
40
-0.00022888829237013462
40
-0.00022888829237013462
40
-0.00022888829237013462
40
-0.00022888829237013462
40
0
40
0
40
0
40
0.038070142952938354
40
0.038070142952938354
40
0.038070142952938354
40
0.086494308688875671
40
0.086494308688875671
40
0.086494308688875671
40
0.089646321352611455
40
0.089646321352611455
40
0.089646321352611455
40
0.089646321352611455
10
12.305988640749497
20
-242.32243933154217
30
0
10
12.306003161598261
20
-242.32167571015401
30
0
10
12.306017682447024
20
-242.32091208876591
30
0
10
12.306032203295787
20
-242.32014846737775
30
0
10
12.308447402354201
20
-242.19313814672427
30
0
10
12.310852625670293
20
-242.06515731537297
30
0
10
12.320791940768601
20
-241.93681775150378
30
0
10
12.333434473848058
20
-241.77357338651768
30
0
10
12.358048037698728
20
-241.61256936460342
30
0
10
12.38242984366563
20
-241.45277957667753
30
0
10
12.384016897567424
20
-241.44237858313591
30
0
10
12.38560395146922
20
-241.43197758959428
30
0
10
12.387191005371019
20
-241.42157659605263
30
0
0
LINE
5
156
100
AcDbEntity
8
INSETS D 0.1
100
AcDbLine
10
13.441705792858427
20
-241.10325360046613
30
0
11
12.387191005371017
21
-241.42157659605266
31
0
0
SPLINE
5
157
100
AcDbEntity
8
INSETS D 0.1
100
AcDbSpline
70
0
71
3
72
14
73
10
74
0
42
0.000000001
43
0.0000000001
44
0.0000000001
40
-0.0093260256415036644
40
-0.0093260256415036644
40
-0.0093260256415036644
40
-0.0093260256415036644
40
0
40
0
40
0
40
0.045807156650359157
40
0.045807156650359157
40
0.045807156650359157
40
0.089785530882596554
40
0.089785530882596554
40
0.089785530882596554
40
0.089785530882596554
10
13.441705792858397
20
-241.1032536004663
30
0
10
13.432652687368714
20
-241.13305431813231
30
0
10
13.423599581879033
20
-241.16285503579834
30
0
10
13.414546476389352
20
-241.19265575346435
30
0
10
13.370079836763944
20
-241.33902958888956
30
0
10
13.326070634126353
20
-241.48409670375776
30
0
10
13.294595421918242
20
-241.63043936431538
30
0
10
13.264376810619286
20
-241.7709395123876
30
0
10
13.245157249616536
20
-241.91519039649049
30
0
10
13.225845629921963
20
-242.06076741138537
30
0
0
SPLINE
5
158
100
AcDbEntity
8
INSETS D 0.1
100
AcDbSpline
70
0
71
3
72
11
73
7
74
0
42
0.000000001
43
0.0000000001
44
0.0000000001
40
0.00011312613156624191
40
0.00011312613156624191
40
0.00011312613156624191
40
0.00011312613156624191
40
0.038994382986698599
40
0.038994382986698599
40
0.038994382986698599
40
0.069486383030850446
40
0.069486383030850446
40
0.069486383030850446
40
0.069486383030850446
10
13.2258456299211
20
-242.06076741138526
30
0
10
13.214597038592121
20
-242.19071054154813
30
0
10
13.203848124865027
20
-242.31803753202371
30
0
10
13.212883925540222
20
-242.44139144505215
30
0
10
13.219970106823236
20
-242.53812976643727
30
0
10
13.239500426799966
20
-242.63623016627355
30
0
10
13.259713580498797
20
-242.73629751816793
30
0
0
SPLINE
5
159
100
AcDbEntity
8
INSETS D 0.1
100
AcDbSpline
70
0
71
3
72
11
73
7
74
0
42
0.000000001
43
0.0000000001
44
0.0000000001
40
0.00036616326816466324
40
0.00036616326816466324
40
0.00036616326816466324
40
0.00036616326816466324
40
0.026634885523951501
40
0.026634885523951501
40
0.026634885523951501
40
0.051001221170848467
40
0.051001221170848467
40
0.051001221170848467
40
0.051001221170848467
10
13.259713580498468
20
-242.73629751816804
30
0
10
13.289958661445313
20
-242.81975392957492
30
0
10
13.319578115598102
20
-242.89934079170277
30
0
10
13.362881043933514
20
-242.96503152431472
30
0
10
13.403047964731574
20
-243.02596491970903
30
0
10
13.459096594707351
20
-243.08117780646725
30
0
10
13.518151899557633
20
-243.13839492149427
30
0
0
SPLINE
5
15A
100
AcDbEntity
8
INSETS D 0.1
100
AcDbSpline
70
0
71
3
72
11
73
7
74
0
42
0.000000001
43
0.0000000001
44
0.0000000001
40
0.00036462600428337438
40
0.00036462600428337438
40
0.00036462600428337438
40
0.00036462600428337438
40
0.021666219679793736
40
0.021666219679793736
40
0.021666219679793736
40
0.0398356863176548
40
0.0398356863176548
40
0.0398356863176548
40
0.0398356863176548
10
13.518151899557642
20
-243.13839492149427
30
0
10
13.578296621321917
20
-243.18114226740681
30
0
10
13.63418356341646
20
-243.2186008444053
30
0
10
13.68787404379967
20
-243.23053072704062
30
0
10
13.733670025403404
20
-243.24070647294192
30
0
10
13.790330082418476
20
-243.23511730547153
30
0
10
13.852205202930573
20
-243.22722630247782
30
0
0
SPLINE
5
15B
100
AcDbEntity
8
INSETS D 0.1
100
AcDbSpline
70
0
71
3
72
11
73
7
74
0
42
0.000000001
43
0.0000000001
44
0.0000000001
40
0.00060481818894055084
40
0.00060481818894055084
40
0.00060481818894055084
40
0.00060481818894055084
40
0.018543483101993736
40
0.018543483101993736
40
0.018543483101993736
40
0.035908127560637257
40
0.035908127560637257
40
0.035908127560637257
40
0.035908127560637257
10
13.852205202930552
20
-243.22722630247779
30
0
10
13.909011847716519
20
-243.20494538907383
30
0
10
13.960789687633932
20
-243.1832360345922
30
0
10
13.998397495759185
20
-243.15282716924031
30
0
10
14.03480188929289
20
-243.1233913590624
30
0
10
14.06624994460323
20
-243.0790698616139
30
0
10
14.099374903570496
20
-243.03019392119097
30
0
0
SPLINE
5
15C
100
AcDbEntity
8
INSETS D 0.1
100
AcDbSpline
70
0
71
3
72
11
73
7
74
0
42
0.000000001
43
0.0000000001
44
0.0000000001
40
0.00052388455236610551
40
0.00052388455236610551
40
0.00052388455236610551
40
0.00052388455236610551
40
0.026371218030490091
40
0.026371218030490091
40
0.026371218030490091
40
0.068679372678804834
40
0.068679372678804834
40
0.068679372678804834
40
0.068679372678804834
10
14.099374903570531
20
-243.030193921191
30
0
10
14.131874910571224
20
-242.95031262932338
30
0
10
14.163853698521276
20
-242.87134057817491
30
0
10
14.190405423543375
20
-242.79173395773051
30
0
10
14.233866560041857
20
-242.66143002476809
30
0
10
14.264221725745006
20
-242.52511311581057
30
0
10
14.294853577559582
20
-242.38708987617858
30
0
0
SPLINE
5
15D
100
AcDbEntity
8
INSETS D 0.1
100
AcDbSpline
70
0
71
3
72
14
73
10
74
0
42
0.000000001
43
0.0000000001
44
0.0000000001
40
0
40
0
40
0
40
0
40
0.08552130750725459
40
0.08552130750725459
40
0.08552130750725459
40
0.14249108349268724
40
0.14249108349268724
40
0.14249108349268724
40
0.14300307748386332
40
0.14300307748386332
40
0.14300307748386332
40
0.14300307748386332
10
14.294854468597947
20
-242.38709007391108
30
0
10
14.35529818804544
20
-242.10673906927622
30
0
10
14.416092239505716
20
-241.82376011253368
30
0
10
14.520897770570393
20
-241.55409636773646
30
0
10
14.590713677282087
20
-241.37446063039476
30
0
10
14.678966401197728
20
-241.20354763462316
30
0
10
14.766334020009012
20
-241.03414497999552
30
0
10
14.767119202942967
20
-241.03262253867007
30
0
10
14.767904385876919
20
-241.03110009734468
30
0
10
14.768689568810846
20
-241.02957765601931
30
0
0
SPLINE
5
15E
100
AcDbEntity
8
INSETS D 0.1
100
AcDbSpline
70
0
71
3
72
17
73
13
74
0
42
0.000000001
43
0.0000000001
44
0.0000000001
40
-0.00050464988897536448
40
-0.00050464988897536448
40
-0.00050464988897536448
40
-0.00050464988897536448
40
0
40
0
40
0
40
0.041520531458852102
40
0.041520531458852102
40
0.041520531458852102
40
0.081399692025765025
40
0.081399692025765025
40
0.081399692025765025
40
0.081873473995512119
40
0.081873473995512119
40
0.081873473995512119
40
0.081873473995512119
10
14.768689568812281
20
-241.02957765602054
30
0
10
14.769768016532886
20
-241.02824675770643
30
0
10
14.770846464253431
20
-241.02691585939232
30
0
10
14.771924911973972
20
-241.02558496107829
30
0
10
14.860655185151009
20
-240.91608408428303
30
0
10
14.951612944269144
20
-240.80289936774727
30
0
10
15.068796032562862
20
-240.71718370578949
30
0
10
15.181346691949848
20
-240.63485651665655
30
0
10
15.310766590168765
20
-240.58322724470719
30
0
10
15.436194937572363
20
-240.53262165051919
30
0
10
15.437685081513468
20
-240.53202043379966
30
0
10
15.439175225454573
20
-240.5314192170801
30
0
10
15.440665369395539
20
-240.53081800036063
30
0
0
SPLINE
5
15F
100
AcDbEntity
8
INSETS D 0.1
100
AcDbSpline
70
0
71
3
72
17
73
13
74
0
42
0.000000001
43
0.0000000001
44
0.0000000001
40
-0.00046668208382512062
40
-0.00046668208382512062
40
-0.00046668208382512062
40
-0.00046668208382512062
40
0
40
0
40
0
40
0.049042355483484103
40
0.049042355483484103
40
0.049042355483484103
40
0.098159533104228452
40
0.098159533104228452
40
0.098159533104228452
40
0.098680158989429473
40
0.098680158989429473
40
0.098680158989429473
40
0.098680158989429473
10
15.44066536939704
20
-240.53081800036131
30
0
10
15.442242926880446
20
-240.53051254515552
30
0
10
15.443820484363899
20
-240.53020708994967
30
0
10
15.44539804184736
20
-240.52990163474388
30
0
10
15.61117928260815
20
-240.49780217494674
30
0
10
15.782251276822755
20
-240.46356893437195
30
0
10
15.951218950293594
20
-240.48935620242219
30
0
10
16.120444411595617
20
-240.51518281316891
30
0
10
16.273715797738998
20
-240.59910042160638
30
0
10
16.422568641192633
20
-240.6793935396216
30
0
10
16.424146432245404
20
-240.68024462019397
30
0
10
16.425724223298182
20
-240.68109570076638
30
0
10
16.427302014351053
20
-240.6819467813387
30
0
0
SPLINE
5
160
100
AcDbEntity
8
INSETS D 0.1
100
AcDbSpline
70
0
71
3
72
17
73
13
74
0
42
0.000000001
43
0.0000000001
44
0.0000000001
40
-0.00052861021410173059
40
-0.00052861021410173059
40
-0.00052861021410173059
40
-0.00052861021410173059
40
0
40
0
40
0
40
0.053269469039209462
40
0.053269469039209462
40
0.053269469039209462
40
0.11271038999960609
40
0.11271038999960609
40
0.11271038999960609
40
0.11303563107894191
40
0.11303563107894191
40
0.11303563107894191
40
0.11303563107894191
10
16.427302014351419
20
-240.68194678133895
30
0
10
16.428662720766177
20
-240.68311393205749
30
0
10
16.430023427180988
20
-240.68428108277607
30
0
10
16.431384133595802
20
-240.6854482334947
30
0
10
16.568506168510076
20
-240.80306514177329
30
0
10
16.709013083466807
20
-240.92288928384718
30
0
10
16.815142099377795
20
-241.07222024291963
30
0
10
16.933566528232632
20
-241.23885170922219
30
0
10
17.002936691080318
20
-241.43342624028628
30
0
10
17.071395755260546
20
-241.62354028229828
30
0
10
17.071770340639855
20
-241.62458052351974
30
0
10
17.072144926019163
20
-241.62562076474109
30
0
10
17.07251951139839
20
-241.62666100596232
30
0
0
SPLINE
5
161
100
AcDbEntity
8
INSETS D 0.1
100
AcDbSpline
70
0
71
3
72
17
73
13
74
0
42
0.000000001
43
0.0000000001
44
0.0000000001
40
-0.00032873212813621061
40
-0.00032873212813621061
40
-0.00032873212813621061
40
-0.00032873212813621061
40
0
40
0
40
0
40
0.068786153652932544
40
0.068786153652932544
40
0.068786153652932544
40
0.14421202123726423
40
0.14421202123726423
40
0.14421202123726423
40
0.14731968264040926
40
0.14731968264040926
40
0.14731968264040926
40
0.14731968264040926
10
17.072519511397303
20
-241.62666100596266
30
0
10
17.07275340451319
20
-241.62774161227506
30
0
10
17.07298729762908
20
-241.62882221858746
30
0
10
17.073221190744967
20
-241.62990282489986
30
0
10
17.122162582324808
20
-241.85601626341833
30
0
10
17.171982530294404
20
-242.08492411820686
30
0
10
17.18058779283168
20
-242.31824045499286
30
0
10
17.190023694654879
20
-242.57407809366183
30
0
10
17.149640042090514
20
-242.82804046636809
30
0
10
17.110073289002191
20
-243.07888299326896
30
0
10
17.108443078102951
20
-243.08921809002135
30
0
10
17.106812867203715
20
-243.09955318677373
30
0
10
17.105182656304482
20
-243.10988828352612
30
0
0
LINE
5
162
100
AcDbEntity
8
INSETS D 0.1
100
AcDbLine
10
16.132511473104373
20
-243.4035054128741
30
0
11
17.105182656304478
21
-243.10988828352609
31
0
0
SPLINE
5
163
100
AcDbEntity
8
INSETS D 0.1
100
AcDbSpline
70
0
71
3
72
14
73
10
74
0
42
0.000000001
43
0.0000000001
44
0.0000000001
40
-0.0086774510873944936
40
-0.0086774510873944936
40
-0.0086774510873944936
40
-0.0086774510873944936
40
0
40
0
40
0
40
0.081994324451745759
40
0.081994324451745759
40
0.081994324451745759
40
0.14144600831418361
40
0.14144600831418361
40
0.14144600831418361
40
0.14144600831418361
10
16.132511473104415
20
-243.40350541287395
30
0
10
16.139545969109363
20
-243.37508437397139
30
0
10
16.146580465114312
20
-243.3466633350688
30
0
10
16.153614961119263
20
-243.31824229616618
30
0
10
16.220084796785887
20
-243.04968833238522
30
0
10
16.285255966664923
20
-242.78462601147839
30
0
10
16.290719620160182
20
-242.52106774713093
30
0
10
16.294681155333571
20
-242.32996936665049
30
0
10
16.267359231584038
20
-242.13475058407741
30
0
10
16.239197025152215
20
-241.93694720629742
30
0
0
SPLINE
5
164
100
AcDbEntity
8
INSETS D 0.1
100
AcDbSpline
70
0
71
3
72
11
73
7
74
0
42
0.000000001
43
0.0000000001
44
0.0000000001
40
0.00046717236039808504
40
0.00046717236039808504
40
0.00046717236039808504
40
0.00046717236039808504
40
0.024016998770477166
40
0.024016998770477166
40
0.024016998770477166
40
0.044044233901799366
40
0.044044233901799366
40
0.044044233901799366
40
0.044044233901799366
10
16.239197025152155
20
-241.93694720629748
30
0
10
16.213367083044954
20
-241.86168395391067
30
0
10
16.188036710509259
20
-241.79045723855396
30
0
10
16.150272707080337
20
-241.73214107402998
30
0
10
16.118157456504736
20
-241.6825478618108
30
0
10
16.073398932108521
20
-241.63664335469801
30
0
10
16.025796605999737
20
-241.58885215440995
30
0
0
SPLINE
5
165
100
AcDbEntity
8
INSETS D 0.1
100
AcDbSpline
70
0
71
3
72
11
73
7
74
0
42
0.000000001
43
0.0000000001
44
0.0000000001
40
0.00050775535995035536
40
0.00050775535995035536
40
0.00050775535995035536
40
0.00050775535995035536
40
0.017812262202834918
40
0.017812262202834918
40
0.017812262202834918
40
0.034304868958704542
40
0.034304868958704542
40
0.034304868958704542
40
0.034304868958704542
10
16.025796605999791
20
-241.58885215440992
30
0
10
15.975806953609679
20
-241.55631401673423
30
0
10
15.929945267378923
20
-241.52861827907907
30
0
10
15.887913748959585
20
-241.52026810237797
30
0
10
15.847854282894714
20
-241.51230970275856
30
0
10
15.797424475254505
20
-241.51915003440359
30
0
10
15.741596291722395
20
-241.52873538139744
30
0
0
SPLINE
5
166
100
AcDbEntity
8
INSETS D 0.1
100
AcDbSpline
70
0
71
3
72
11
73
7
74
0
42
0.000000001
43
0.0000000001
44
0.0000000001
40
0.00065044879044854882
40
0.00065044879044854882
40
0.00065044879044854882
40
0.00065044879044854882
40
0.01601636274716876
40
0.01601636274716876
40
0.01601636274716876
40
0.034158155273293245
40
0.034158155273293245
40
0.034158155273293245
40
0.034158155273293245
10
15.741596291722393
20
-241.52873538139744
30
0
10
15.694394576026795
20
-241.5506516554068
30
0
10
15.651620093491644
20
-241.5717680787574
30
0
10
15.620624330788901
20
-241.59857154266126
30
0
10
15.584029130677425
20
-241.63021709804414
30
0
10
15.55402293787839
20
-241.67834860609855
30
0
10
15.522372726579842
20
-241.73158882966592
30
0
0
SPLINE
5
167
100
AcDbEntity
8
INSETS D 0.1
100
AcDbSpline
70
0
71
3
72
14
73
10
74
0
42
0.000000001
43
0.0000000001
44
0.0000000001
40
0.00033991703014353303
40
0.00033991703014353303
40
0.00033991703014353303
40
0.00033991703014353303
40
0.02575556939703922
40
0.02575556939703922
40
0.02575556939703922
40
0.062353006296236718
40
0.062353006296236718
40
0.062353006296236718
40
0.06237808677733804
40
0.06237808677733804
40
0.06237808677733804
40
0.06237808677733804
10
15.522372726579633
20
-241.73158882966587
30
0
10
15.489309622732684
20
-241.80973029334982
30
0
10
15.456856317209397
20
-241.88676896381267
30
0
10
15.43079604599636
20
-241.96454018371128
30
0
10
15.393270385921731
20
-242.07652736671665
30
0
10
15.367579468579271
20
-242.19428304224439
30
0
10
15.341599377403147
20
-242.31384172653509
30
0
10
15.341581573063785
20
-242.31392366094303
30
0
10
15.341563768724427
20
-242.31400559535098
30
0
10
15.3415459643847
20
-242.31408752976063
30
0
0
LINE
5
168
100
AcDbEntity
8
INSETS D 0.1
100
AcDbLine
10
15.258624597367307
20
-242.67800084566187
30
0
11
15.341545964384702
21
-242.31408752976066
31
0
0
SPLINE
5
169
100
AcDbEntity
8
INSETS D 0.1
100
AcDbSpline
70
0
71
3
72
17
73
13
74
0
42
0.000000001
43
0.0000000001
44
0.0000000001
40
-3.1107822064724722e-05
40
-3.1107822064724722e-05
40
-3.1107822064724722e-05
40
-3.1107822064724722e-05
40
0
40
0
40
0
40
0.10976226483182566
40
0.10976226483182566
40
0.10976226483182566
40
0.1902469221872487
40
0.1902469221872487
40
0.1902469221872487
40
0.19113333880470471
40
0.19113333880470471
40
0.19113333880470471
40
0.19113333880470471
10
15.258624597367517
20
-242.67800084566105
30
0
10
15.258599003015622
20
-242.67810675795789
30
0
10
15.258573408663931
20
-242.67821267025394
30
0
10
15.258547814312243
20
-242.67831858254993
30
0
10
15.168239530994034
20
-243.05202438106423
30
0
10
15.077997803728508
20
-243.43351559661545
30
0
10
14.843753950530214
20
-243.71856107916255
30
0
10
14.671991493813739
20
-243.92757451404992
30
0
10
14.43057652286673
20
-244.0752466508992
30
0
10
14.194181007994182
20
-244.22106529165711
30
0
10
14.191577469387447
20
-244.22267126316211
30
0
10
14.188973930780708
20
-244.22427723466711
30
0
10
14.186370392173966
20
-244.22588320617211
30
0
0
SPLINE
5
16A
100
AcDbEntity
8
INSETS D 0.1
100
AcDbSpline
70
0
71
3
72
17
73
13
74
0
42
0.000000001
43
0.0000000001
44
0.0000000001
40
-0.00088880787273429599
40
-0.00088880787273429599
40
-0.00088880787273429599
40
-0.00088880787273429599
40
0
40
0
40
0
40
0.052412112617616483
40
0.052412112617616483
40
0.052412112617616483
40
0.10520547579765856
40
0.10520547579765856
40
0.10520547579765856
40
0.10571928415346102
40
0.10571928415346102
40
0.10571928415346102
40
0.10571928415346102
10
14.186370392174087
20
-244.22588320617194
30
0
10
14.183366238621499
20
-244.22645993763695
30
0
10
14.180362085069033
20
-244.22703666910201
30
0
10
14.177357931516568
20
-244.22761340056709
30
0
10
14.000205996725459
20
-244.26162267908967
30
0
10
13.81780017192958
20
-244.29773165774745
30
0
10
13.638049319638323
20
-244.27049506613133
30
0
10
13.456990942996118
20
-244.24306035302479
30
0
10
13.292457576542255
20
-244.15345126192139
30
0
10
13.132344621470914
20
-244.06744970714436
30
0
10
13.130786331389883
20
-244.06661270198322
30
0
10
13.129228041308851
20
-244.06577569682207
30
0
10
13.127669751227764
20
-244.06493869166093
30
0
0
SPLINE
5
16B
100
AcDbEntity
8
INSETS D 0.1
100
AcDbSpline
70
0
71
3
72
17
73
13
74
0
42
0.000000001
43
0.0000000001
44
0.0000000001
40
-0.00052143914061262057
40
-0.00052143914061262057
40
-0.00052143914061262057
40
-0.00052143914061262057
40
0
40
0
40
0
40
0.057200034437710601
40
0.057200034437710601
40
0.057200034437710601
40
0.1208066587031261
40
0.1208066587031261
40
0.1208066587031261
40
0.12099100217477078
40
0.12099100217477078
40
0.12099100217477078
40
0.12099100217477078
10
13.127669751227074
20
-244.06493869166152
30
0
10
13.126321860733192
20
-244.06379324989413
30
0
10
13.124973970239132
20
-244.06264780812663
30
0
10
13.123626079745069
20
-244.06150236635912
30
0
10
12.975767246999812
20
-243.93585144481474
30
0
10
12.824481403888505
20
-243.80799414787955
30
0
10
12.710456801653001
20
-243.64840298012243
30
0
10
12.583661073246484
20
-243.47093708270833
30
0
10
12.509242316789702
20
-243.26305379833173
30
0
10
12.435740282704383
20
-243.05965300877864
30
0
10
12.435527260549959
20
-243.05906351659735
30
0
10
12.435314238395536
20
-243.05847402441606
30
0
10
12.435101216241126
20
-243.05788453223485
30
0
0
SPLINE
5
16C
100
AcDbEntity
8
INSETS D 0.1
100
AcDbSpline
70
0
71
3
72
17
73
13
74
0
42
0.000000001
43
0.0000000001
44
0.0000000001
40
-0.00015868627476447821
40
-0.00015868627476447821
40
-0.00015868627476447821
40
-0.00015868627476447821
40
0
40
0
40
0
40
0.022871445187830394
40
0.022871445187830394
40
0.022871445187830394
40
0.044245739643799499
40
0.044245739643799499
40
0.044245739643799499
40
0.044541544377138864
40
0.044541544377138864
40
0.044541544377138864
40
0.044541544377138864
10
19.390765339021517
20
-251.88478669764535
30
0
10
19.390388069879997
20
-251.8851616393481
30
0
10
19.390010800738086
20
-251.88553658105127
30
0
10
19.389633531596196
20
-251.88591152275444
30
0
10
19.335257748219561
20
-251.93995185249531
30
0
10
19.279315111055645
20
-251.99579469204508
30
0
10
19.214524798185238
20
-252.0439358545849
30
0
10
19.153975619337391
20
-252.08892572624055
30
0
10
19.089287003846454
20
-252.12452323499622
30
0
10
19.026617475784974
20
-252.15917807872927
30
0
10
19.025750174968298
20
-252.15965767663278
30
0
10
19.024882874151636
20
-252.16013727453628
30
0
10
19.024015573335724
20
-252.16061687243928
30
0
0
SPLINE
5
16D
100
AcDbEntity
8
INSETS D 0.1
100
AcDbSpline
70
0
71
3
72
14
73
10
74
0
42
0.000000001
43
0.0000000001
44
0.0000000001
40
-0.0002971822700255836
40
-0.0002971822700255836
40
-0.0002971822700255836
40
-0.0002971822700255836
40
0
40
0
40
0
40
0.030053806467789632
40
0.030053806467789632
40
0.030053806467789632
40
0.078574809352162198
40
0.078574809352162198
40
0.078574809352162198
40
0.078574809352162198
10
19.024015573335681
20
-252.16061687244144
30
0
10
19.02309754748164
20
-252.16099030705035
30
0
10
19.022179521627393
20
-252.16136374165939
30
0
10
19.021261495773146
20
-252.16173717626842
30
0
10
18.928422271704882
20
-252.19950232109619
30
0
10
18.835019240009025
20
-252.23750904052781
30
0
10
18.739788427435915
20
-252.27221835714349
30
0
10
18.586041029864401
20
-252.3282555467564
30
0
10
18.429973303124562
20
-252.37480730641349
30
0
10
18.274863807831277
20
-252.42110384123481
30
0
0
LINE
5
16E
100
AcDbEntity
8
INSETS D 0.1
100
AcDbLine
10
16.410654233658029
20
-252.98384705684188
30
0
11
18.274863807831277
21
-252.42110384123487
31
0
0
SPLINE
5
16F
100
AcDbEntity
8
INSETS D 0.1
100
AcDbSpline
70
0
71
3
72
11
73
7
74
0
42
0.000000001
43
0.0000000001
44
0.0000000001
40
5.2440992132374065e-05
40
5.2440992132374065e-05
40
5.2440992132374065e-05
40
5.2440992132374065e-05
40
0.018008792101509699
40
0.018008792101509699
40
0.018008792101509699
40
0.030047821589193793
40
0.030047821589193793
40
0.030047821589193793
40
0.030047821589193793
10
16.410654233658097
20
-252.98384705684211
30
0
10
16.346484096077749
20
-253.00488871657549
30
0
10
16.295726307781845
20
-253.02754929433513
30
0
10
16.281997074572519
20
-253.05062524476395
30
0
10
16.27279216192386
20
-253.06609676489506
30
0
10
16.268274877612633
20
-253.10088150837973
30
0
10
16.267690524077196
20
-253.14323786297854
30
0
0
SPLINE
5
170
100
AcDbEntity
8
INSETS D 0.1
100
AcDbSpline
70
0
71
3
72
14
73
10
74
0
42
0.000000001
43
0.0000000001
44
0.0000000001
40
0.001368791808967664
40
0.001368791808967664
40
0.001368791808967664
40
0.001368791808967664
40
0.021916906017568013
40
0.021916906017568013
40
0.021916906017568013
40
0.05729088051590199
40
0.05729088051590199
40
0.05729088051590199
40
0.066907785452774621
40
0.066907785452774621
40
0.066907785452774621
40
0.066907785452774621
10
16.26769052407721
20
-253.14323786297854
30
0
10
16.302244558037678
20
-253.20264899334657
30
0
10
16.336296985678668
20
-253.25972824285219
30
0
10
16.375822524796764
20
-253.3090712709332
30
0
10
16.4438665019035
20
-253.39401624443724
30
0
10
16.535179839342192
20
-253.46473085572211
30
0
10
16.62999423279286
20
-253.53750937577968
30
0
10
16.655770838938864
20
-253.55729522452205
30
0
10
16.681547445084867
20
-253.57708107326442
30
0
10
16.707324051230867
20
-253.5968669220068
30
0
0
LINE
5
171
100
AcDbEntity
8
INSETS D 0.1
100
AcDbLine
10
16.05836566324221
20
-253.79276590846649
30
0
11
16.707324051230867
21
-253.59686692200683
31
0
0
SPLINE
5
172
100
AcDbEntity
8
INSETS D 0.1
100
AcDbSpline
70
0
71
3
72
17
73
13
74
0
42
0.000000001
43
0.0000000001
44
0.0000000001
40
-0.002732619625764628
40
-0.002732619625764628
40
-0.002732619625764628
40
-0.002732619625764628
40
0
40
0
40
0
40
0.03249028598233665
40
0.03249028598233665
40
0.03249028598233665
40
0.056585206526025694
40
0.056585206526025694
40
0.056585206526025694
40
0.056845426334413633
40
0.056845426334413633
40
0.056845426334413633
40
0.056845426334413633
10
16.058365663242245
20
-253.79276590846649
30
0
10
16.051437940860353
20
-253.78682835033874
30
0
10
16.044510218478443
20
-253.78089079221101
30
0
10
16.037582496096537
20
-253.77495323408328
30
0
10
15.955213300152826
20
-253.70435688771016
30
0
10
15.871768352060476
20
-253.63291281597353
30
0
10
15.793750949083584
20
-253.55406527381845
30
0
10
15.735892944177907
20
-253.49559163451829
30
0
10
15.68227450346755
20
-253.43431412157057
30
0
10
15.629300267292525
20
-253.37381940540806
30
0
10
15.628728157267842
20
-253.37316607586416
30
0
10
15.628156047243158
20
-253.3725127463203
30
0
10
15.627583937218908
20
-253.37185941677689
30
0
0
SPLINE
5
173
100
AcDbEntity
8
INSETS D 0.1
100
AcDbSpline
70
0
71
3
72
17
73
13
74
0
42
0.000000001
43
0.0000000001
44
0.0000000001
40
-0.0002591398834026385
40
-0.0002591398834026385
40
-0.0002591398834026385
40
-0.0002591398834026385
40
0
40
0
40
0
40
0.019872163845580638
40
0.019872163845580638
40
0.019872163845580638
40
0.039944736341909148
40
0.039944736341909148
40
0.039944736341909148
40
0.040235865083683611
40
0.040235865083683611
40
0.040235865083683611
40
0.040235865083683611
10
15.627583937215936
20
-253.37185941677777
30
0
10
15.627082824470676
20
-253.37115016687764
30
0
10
15.626581711725233
20
-253.3704409169772
30
0
10
15.626080598979788
20
-253.36973166707676
30
0
10
15.587652725771539
20
-253.31534277855863
30
0
10
15.547766188258727
20
-253.25917071435188
30
0
10
15.515369777094307
20
-253.19644753871344
30
0
10
15.482646651582069
20
-253.13309180654522
30
0
10
15.459790328446378
20
-253.06735974138039
30
0
10
15.437545441322406
20
-253.00387352132759
30
0
10
15.4372228057459
20
-253.00295272936793
30
0
10
15.436900170169395
20
-253.00203193740828
30
0
10
15.436577534592972
20
-253.00111114544882
30
0
0
SPLINE
5
174
100
AcDbEntity
8
INSETS D 0.1
100
AcDbSpline
70
0
71
3
72
14
73
10
74
0
42
0.000000001
43
0.0000000001
44
0.0000000001
40
-0.00026908504136946652
40
-0.00026908504136946652
40
-0.00026908504136946652
40
-0.00026908504136946652
40
0
40
0
40
0
40
0.047730454080729512
40
0.047730454080729512
40
0.047730454080729512
40
0.083298071508556851
40
0.083298071508556851
40
0.083298071508556851
40
0.083298071508556851
10
15.436577534591642
20
-253.00111114544882
30
0
10
15.436364542424709
20
-253.00015899740416
30
0
10
15.43615155025778
20
-252.9992068493595
30
0
10
15.435938558090847
20
-252.99825470131481
30
0
10
15.398157889230571
20
-252.82936215235196
30
0
10
15.354936204836013
20
-252.65206013265171
30
0
10
15.413636471831119
20
-252.49330835260855
30
0
10
15.457378537135206
20
-252.37501024111333
30
0
10
15.551877505861103
20
-252.28424234848518
30
0
10
15.64757403208359
20
-252.19842139860748
30
0
0
SPLINE
5
175
100
AcDbEntity
8
INSETS D 0.1
100
AcDbSpline
70
0
71
3
72
14
73
10
74
0
42
0.000000001
43
0.0000000001
44
0.0000000001
40
0.0057839329878460605
40
0.0057839329878460605
40
0.0057839329878460605
40
0.0057839329878460605
40
0.068487283133106328
40
0.068487283133106328
40
0.068487283133106328
40
0.13286931280063174
40
0.13286931280063174
40
0.13286931280063174
40
0.1333037061459727
40
0.1333037061459727
40
0.1333037061459727
40
0.1333037061459727
10
15.647574032083565
20
-252.19842139860748
30
0
10
15.481926563450459
20
-252.0639159430051
30
0
10
15.316622822102808
20
-251.92496607186681
30
0
10
15.190140546430353
20
-251.7522326567935
30
0
10
15.06027211665913
20
-251.57487486286294
30
0
10
14.976462732307112
20
-251.36904663408336
30
0
10
14.893687526847994
20
-251.16711735953339
30
0
10
14.893129032519738
20
-251.16575491828158
30
0
10
14.892570538191485
20
-251.16439247702976
30
0
10
14.892012043863257
20
-251.16303003577801
30
0
0
SPLINE
5
176
100
AcDbEntity
8
INSETS D 0.1
100
AcDbSpline
70
0
71
3
72
17
73
13
74
0
42
0.000000001
43
0.0000000001
44
0.0000000001
40
-0.00043071279370064967
40
-0.00043071279370064967
40
-0.00043071279370064967
40
-0.00043071279370064967
40
0
40
0
40
0
40
0.044551208370185905
40
0.044551208370185905
40
0.044551208370185905
40
0.087560352614610967
40
0.087560352614610967
40
0.087560352614610967
40
0.088063527745607315
40
0.088063527745607315
40
0.088063527745607315
40
0.088063527745607315
10
14.892012043863605
20
-251.16303003577752
30
0
10
14.891701074176865
20
-251.1615907790499
30
0
10
14.891390104490124
20
-251.16015152232228
30
0
10
14.891079134803384
20
-251.15871226559474
30
0
10
14.858913674400808
20
-251.00984130725237
30
0
10
14.824870638851234
20
-250.8562491844483
30
0
10
14.839178599415435
20
-250.70097955778959
30
0
10
14.852991314317261
20
-250.55108432455032
30
0
10
14.910833664316119
20
-250.41083672723883
30
0
10
14.966135344917436
20
-250.27476059118794
30
0
10
14.966782333618788
20
-250.27316860118705
30
0
10
14.96742932232014
20
-250.27157661118619
30
0
10
14.968076311021504
20
-250.26998462118527
30
0
0
SPLINE
5
177
100
AcDbEntity
8
INSETS D 0.1
100
AcDbSpline
70
0
71
3
72
17
73
13
74
0
42
0.000000001
43
0.0000000001
44
0.0000000001
40
-0.00050291978772557086
40
-0.00050291978772557086
40
-0.00050291978772557086
40
-0.00050291978772557086
40
0
40
0
40
0
40
0.042957311416246771
40
0.042957311416246771
40
0.042957311416246771
40
0.087458269826074658
40
0.087458269826074658
40
0.087458269826074658
40
0.087894707623868043
40
0.087894707623868043
40
0.087894707623868043
40
0.087894707623868043
10
14.968076311021409
20
-250.26998462118573
30
0
10
14.969034523187815
20
-250.26855813740198
30
0
10
14.969992735354268
20
-250.26713165361815
30
0
10
14.970950947520716
20
-250.26570516983435
30
0
10
15.052797435652982
20
-250.14386087253729
30
0
10
15.136694368526269
20
-250.01752758129723
30
0
10
15.253449823382157
20
-249.92270565998319
30
0
10
15.374400820298998
20
-249.8244763658858
30
0
10
15.521107671302637
20
-249.7677831316513
30
0
10
15.662788921252506
20
-249.71214245814093
30
0
10
15.664178443072389
20
-249.71159676892697
30
0
10
15.665567964892276
20
-249.711051079713
30
0
10
15.666957486712448
20
-249.71050539049898
30
0
0
SPLINE
5
178
100
AcDbEntity
8
INSETS D 0.1
100
AcDbSpline
70
0
71
3
72
17
73
13
74
0
42
0.000000001
43
0.0000000001
44
0.0000000001
40
-0.0004382623042519301
40
-0.0004382623042519301
40
-0.0004382623042519301
40
-0.0004382623042519301
40
0
40
0
40
0
40
0.041772706931018921
40
0.041772706931018921
40
0.041772706931018921
40
0.085047763533435086
40
0.085047763533435086
40
0.085047763533435086
40
0.085462669857407553
40
0.085462669857407553
40
0.085462669857407553
40
0.085462669857407553
10
15.666957486711766
20
-249.7105053904998
30
0
10
15.668421867008579
20
-249.71021532508348
30
0
10
15.669886247305907
20
-249.70992525966716
30
0
10
15.67135062760322
20
-249.70963519425081
30
0
10
15.810927151533846
20
-249.68198778421669
30
0
10
15.954842597212007
20
-249.65277548420318
30
0
10
16.100564492439613
20
-249.66477490678295
30
0
10
16.25152725562852
20
-249.6772058869488
30
0
10
16.393241390420062
20
-249.73294417868573
30
0
10
16.530805045372443
20
-249.7862786216495
30
0
10
16.532123958272177
20
-249.78678997390199
30
0
10
16.533442871171903
20
-249.78730132615451
30
0
10
16.53476178407206
20
-249.78781267840716
30
0
0
SPLINE
5
179
100
AcDbEntity
8
INSETS D 0.1
100
AcDbSpline
70
0
71
3
72
17
73
13
74
0
42
0.000000001
43
0.0000000001
44
0.0000000001
40
-0.00042068873271604887
40
-0.00042068873271604887
40
-0.00042068873271604887
40
-0.00042068873271604887
40
0
40
0
40
0
40
0.048524893586022508
40
0.048524893586022508
40
0.048524893586022508
40
0.10444819106270883
40
0.10444819106270883
40
0.10444819106270883
40
0.1045405397109181
40
0.1045405397109181
40
0.1045405397109181
40
0.1045405397109181
10
16.534761784071122
20
-249.7878126784066
30
0
10
16.535975650414926
20
-249.78853899849057
30
0
10
16.537189516758858
20
-249.78926531857462
30
0
10
16.538403383102786
20
-249.78999163865865
30
0
10
16.678418388468408
20
-249.87376998128605
30
0
10
16.821005515848604
20
-249.95879018155779
30
0
10
16.946991311244219
20
-250.06735740408408
30
0
10
17.092185676302549
20
-250.19247745346235
30
0
10
17.209601636136721
20
-250.34393434177545
30
0
10
17.325260394528449
20
-250.49258346140545
30
0
10
17.325451387021204
20
-250.49282893236065
30
0
10
17.325642379513972
20
-250.49307440331589
30
0
10
17.325833372007523
20
-250.49331987427217
30
0
0
LINE
5
17A
100
AcDbEntity
8
INSETS D 0.1
100
AcDbLine
10
18.022565908482257
20
-251.46124644769708
30
0
11
17.325833372007523
21
-250.49331987427212
31
0
0
LINE
5
17B
100
AcDbEntity
8
INSETS D 0.1
100
AcDbLine
10
18.218701887321295
20
-251.4020395090489
30
0
11
18.022565908482257
21
-251.46124644769708
31
0
0
SPLINE
5
17C
100
AcDbEntity
8
INSETS D 0.1
100
AcDbSpline
70
0
71
3
72
11
73
7
74
0
42
0.000000001
43
0.0000000001
44
0.0000000001
40
0.0003178675940227521
40
0.0003178675940227521
40
0.0003178675940227521
40
0.0003178675940227521
40
0.065383739570607682
40
0.065383739570607682
40
0.065383739570607682
40
0.13007509480633775
40
0.13007509480633775
40
0.13007509480633775
40
0.13007509480633775
10
18.218701887321284
20
-251.40203950904888
30
0
10
18.438507922929237
20
-251.29987806766351
30
0
10
18.646636429770826
20
-251.1970897645956
30
0
10
18.726556681377506
20
-251.04805593226001
30
0
10
18.806016914986262
20
-250.89987993312434
30
0
10
18.777328435875845
20
-250.67142259733234
30
0
10
18.741042750348306
20
-250.43330013866805
30
0
0
SPLINE
5
17D
100
AcDbEntity
8
INSETS D 0.1
100
AcDbSpline
70
0
71
3
72
14
73
10
74
0
42
0.000000001
43
0.0000000001
44
0.0000000001
40
0.00075591143789743853
40
0.00075591143789743853
40
0.00075591143789743853
40
0.00075591143789743853
40
0.075708347522323652
40
0.075708347522323652
40
0.075708347522323652
40
0.16729065153019493
40
0.16729065153019493
40
0.16729065153019493
40
0.17906242679491413
40
0.17906242679491413
40
0.17906242679491413
40
0.17906242679491413
10
18.741042750348392
20
-250.43330013866805
30
0
10
18.627832931314593
20
-250.20392329782382
30
0
10
18.515472902239758
20
-249.97937391557159
30
0
10
18.357121730227107
20
-249.80614801485555
30
0
10
18.163636822559404
20
-249.59448808850524
30
0
10
17.891443882923326
20
-249.44850594459814
30
0
10
17.613760776993143
20
-249.30079363716831
30
0
10
17.578068039698188
20
-249.28180704247919
30
0
10
17.54237530240324
20
-249.26282044779003
30
0
10
17.506682565108292
20
-249.24383385310085
30
0
0
LINE
5
17E
100
AcDbEntity
8
INSETS D 0.1
100
AcDbLine
10
18.593411240235149
20
-248.91578655460776
30
0
11
17.506682565108292
21
-249.24383385310091
31
0
0
SPLINE
5
17F
100
AcDbEntity
8
INSETS D 0.1
100
AcDbSpline
70
0
71
3
72
17
73
13
74
0
42
0.000000001
43
0.0000000001
44
0.0000000001
40
-0.0021789459155458915
40
-0.0021789459155458915
40
-0.0021789459155458915
40
-0.0021789459155458915
40
0
40
0
40
0
40
0.079551005802504543
40
0.079551005802504543
40
0.079551005802504543
40
0.16848674783957018
40
0.16848674783957018
40
0.16848674783957018
40
0.16876696269231647
40
0.16876696269231647
40
0.16876696269231647
40
0.16876696269231647
10
18.593411240235142
20
-248.91578655460785
30
0
10
18.599782569474645
20
-248.91969109981511
30
0
10
18.606153898714162
20
-248.92359564502243
30
0
10
18.612525227953679
20
-248.92750019022972
30
0
10
18.845135705196959
20
-249.07005099712524
30
0
10
19.08256366289886
20
-249.21448906511884
30
0
10
19.257637695637634
20
-249.41912034861923
30
0
10
19.453365441075569
20
-249.64789225236211
30
0
10
19.561456315890979
20
-249.9405480114275
30
0
10
19.668580192560206
20
-250.22740247533508
30
0
10
19.668917713793398
20
-250.22830628385486
30
0
10
19.669255235026583
20
-250.22921009237464
30
0
10
19.669592756259785
20
-250.23011390089442
30
0
0
SPLINE
5
180
100
AcDbEntity
8
INSETS D 0.1
100
AcDbSpline
70
0
71
3
72
17
73
13
74
0
42
0.000000001
43
0.0000000001
44
0.0000000001
40
-0.00028323321096134825
40
-0.00028323321096134825
40
-0.00028323321096134825
40
-0.00028323321096134825
40
0
40
0
40
0
40
0.067587845816128977
40
0.067587845816128977
40
0.067587845816128977
40
0.12736358191420927
40
0.12736358191420927
40
0.12736358191420927
40
0.1277652244947636
40
0.1277652244947636
40
0.1277652244947636
40
0.1277652244947636
10
19.669592756259291
20
-250.23011390089496
30
0
10
19.669823735930532
20
-250.23105061793203
30
0
10
19.670054715601811
20
-250.23198733496935
30
0
10
19.670285695273094
20
-250.23292405200661
30
0
10
19.725404296499221
20
-250.45645252337835
30
0
10
19.782366529938241
20
-250.68441297737064
30
0
10
19.771973386115327
20
-250.91553800164078
30
0
10
19.762781528986487
20
-251.11994854749577
30
0
10
19.701309207961202
20
-251.31779692311525
30
0
10
19.641607976155939
20
-251.51184204543245
30
0
10
19.641206834181453
20
-251.51314586515528
30
0
10
19.640805692206975
20
-251.51444968487809
30
0
10
19.640404550232507
20
-251.51575350460089
30
0
0
SPLINE
5
181
100
AcDbEntity
8
INSETS D 0.1
100
AcDbSpline
70
0
71
3
72
17
73
13
74
0
42
0.000000001
43
0.0000000001
44
0.0000000001
40
-0.00040740368038912414
40
-0.00040740368038912414
40
-0.00040740368038912414
40
-0.00040740368038912414
40
0
40
0
40
0
40
0.020302150741569731
40
0.020302150741569731
40
0.020302150741569731
40
0.042844463362869886
40
0.042844463362869886
40
0.042844463362869886
40
0.043003220986531594
40
0.043003220986531594
40
0.043003220986531594
40
0.043003220986531594
10
19.640404550232923
20
-251.5157535046005
30
0
10
19.639796737216205
20
-251.51697474335384
30
0
10
19.639188924199498
20
-251.51819598210719
30
0
10
19.638581111182791
20
-251.51941722086053
30
0
10
19.608291960441008
20
-251.58027522105908
30
0
10
19.577198904532466
20
-251.64304348686247
30
0
10
19.537585250435299
20
-251.70267411816303
30
0
10
19.493600581712403
20
-251.7688844596039
30
0
10
19.441888669309265
20
-251.82704590555926
30
0
10
19.391823121446613
20
-251.88359199465455
30
0
10
19.391470527303362
20
-251.88399022898312
30
0
10
19.391117933160096
20
-251.88438846331169
30
0
10
19.390765339016966
20
-251.88478669764024
30
0
0
SPLINE
5
182
100
AcDbEntity
8
INSETS D 0.1
100
AcDbSpline
70
0
71
3
72
11
73
7
74
0
42
0.000000001
43
0.0000000001
44
0.0000000001
40
0.00055185781253675413
40
0.00055185781253675413
40
0.00055185781253675413
40
0.00055185781253675413
40
0.024823811912838764
40
0.024823811912838764
40
0.024823811912838764
40
0.050960286796424184
40
0.050960286796424184
40
0.050960286796424184
40
0.050960286796424184
10
15.743028402336016
20
-250.90878264878415
30
0
10
15.712993473576699
20
-250.98575086540512
30
0
10
15.685740610939014
20
-251.05881865437854
30
0
10
15.679834996375629
20
-251.12818796119291
30
0
10
15.673475724844778
20
-251.20288607316834
30
0
10
15.690862561378918
20
-251.28523829929807
30
0
10
15.710571664516351
20
-251.37222553467888
30
0
0
SPLINE
5
183
100
AcDbEntity
8
INSETS D 0.1
100
AcDbSpline
70
0
71
3
72
11
73
7
74
0
42
0.000000001
43
0.0000000001
44
0.0000000001
40
0.00046440089812602484
40
0.00046440089812602484
40
0.00046440089812602484
40
0.00046440089812602484
40
0.042652942577050504
40
0.042652942577050504
40
0.042652942577050504
40
0.087131545637548366
40
0.087131545637548366
40
0.087131545637548366
40
0.087131545637548366
10
15.710571664516262
20
-251.3722255346789
30
0
10
15.768138843853439
20
-251.50387760620833
30
0
10
15.824860906525997
20
-251.63090832862076
30
0
10
15.906656975263227
20
-251.72997395928729
30
0
10
15.992893065170314
20
-251.83441703051011
30
0
10
16.114087364029363
20
-251.91644119021532
30
0
10
16.241080108107674
20
-251.99901785052521
30
0
0
LINE
5
184
100
AcDbEntity
8
INSETS D 0.1
100
AcDbLine
10
17.451231225098908
20
-251.63371341549603
30
0
11
16.241080108107674
21
-251.99901785052518
31
0
0
LINE
5
185
100
AcDbEntity
8
INSETS D 0.1
100
AcDbLine
10
17.09664778232785
20
-251.177665502688
30
0
11
17.451231225098908
21
-251.63371341549603
31
0
0
SPLINE
5
186
100
AcDbEntity
8
INSETS D 0.1
100
AcDbSpline
70
0
71
3
72
11
73
7
74
0
42
0.000000001
43
0.0000000001
44
0.0000000001
40
0
40
0
40
0
40
0
40
0.043658043856969364
40
0.043658043856969364
40
0.043658043856969364
40
0.075084344696127583
40
0.075084344696127583
40
0.075084344696127583
40
0.075084344696127583
10
17.09664778232785
20
-251.177665502688
30
0
10
17.004794997286112
20
-251.06360951308301
30
0
10
16.914440881722793
20
-250.95175634794987
30
0
10
16.810758753482208
20
-250.85830815568681
30
0
10
16.736125410668979
20
-250.79104149086442
30
0
10
16.652087990921029
20
-250.73105453678443
30
0
10
16.56632805110976
20
-250.67022049407174
30
0
0
SPLINE
5
187
100
AcDbEntity
8
INSETS D 0.1
100
AcDbSpline
70
0
71
3
72
11
73
7
74
0
42
0.000000001
43
0.0000000001
44
0.0000000001
40
0.00051857486405774283
40
0.00051857486405774283
40
0.00051857486405774283
40
0.00051857486405774283
40
0.025444662215721968
40
0.025444662215721968
40
0.025444662215721968
40
0.05109623024935047
40
0.05109623024935047
40
0.05109623024935047
40
0.05109623024935047
10
16.566328051109757
20
-250.67022049407174
30
0
10
16.488170133274828
20
-250.63671167995432
30
0
10
16.414035740073704
20
-250.60629263335642
30
0
10
16.343318369396126
20
-250.59903093337979
30
0
10
16.270542750041862
20
-250.59155787961242
30
0
10
16.189496471211871
20
-250.6073984283189
30
0
10
16.103746712631754
20
-250.62545466574522
30
0
0
SPLINE
5
188
100
AcDbEntity
8
INSETS D 0.1
100
AcDbSpline
70
0
71
3
72
11
73
7
74
0
42
0.000000001
43
0.0000000001
44
0.0000000001
40
0.0003899238226845241
40
0.0003899238226845241
40
0.0003899238226845241
40
0.0003899238226845241
40
0.026180675285918935
40
0.026180675285918935
40
0.026180675285918935
40
0.050294779616601483
40
0.050294779616601483
40
0.050294779616601483
40
0.050294779616601483
10
16.103746712631757
20
-250.62545466574531
30
0
10
16.021516397398617
20
-250.6570957263263
30
0
10
15.944489798518633
20
-250.68803352277754
30
0
10
15.887260360705671
20
-250.73427507629458
30
0
10
15.833751387298081
20
-250.77751048366571
30
0
10
15.789223116211106
20
-250.84083607893621
30
0
10
15.743028402336034
20
-250.90878264878415
30
0
0
SPLINE
5
189
100
AcDbEntity
8
INSETS D 0.1
100
AcDbSpline
70
0
71
3
72
17
73
13
74
0
42
0.000000001
43
0.0000000001
44
0.0000000001
40
-0.00018748987993916363
40
-0.00018748987993916363
40
-0.00018748987993916363
40
-0.00018748987993916363
40
0
40
0
40
0
40
0.038673574286052149
40
0.038673574286052149
40
0.038673574286052149
40
0.073422489375155733
40
0.073422489375155733
40
0.073422489375155733
40
0.073651026566391997
40
0.073651026566391997
40
0.073651026566391997
40
0.073651026566391997
10
5.8005348648596051
20
-221.07942735543176
30
0
10
5.8003667216102164
20
-221.07882353156739
30
0
10
5.8001985783608223
20
-221.078219707703
30
0
10
5.8000304351114265
20
-221.07761588383863
30
0
10
5.7653474941016931
20
-220.95306501697965
30
0
10
5.7301074238756069
20
-220.82685771138301
30
0
10
5.7081748341655096
20
-220.69655686301428
30
0
10
5.688468000453085
20
-220.57947916332938
30
0
10
5.6800084649525395
20
-220.46208884361113
30
0
10
5.6715880761582156
20
-220.34626621263865
30
0
10
5.671532696817617
20
-220.34550446860442
30
0
10
5.6714773174770183
20
-220.34474272457027
30
0
10
5.671421938136417
20
-220.34398098053603
30
0
0
SPLINE
5
18A
100
AcDbEntity
8
INSETS D 0.1
100
AcDbSpline
70
0
71
3
72
17
73
13
74
0
42
0.000000001
43
0.0000000001
44
0.0000000001
40
-0.00022888679240788928
40
-0.00022888679240788928
40
-0.00022888679240788928
40
-0.00022888679240788928
40
0
40
0
40
0
40
0.038070142952938354
40
0.038070142952938354
40
0.038070142952938354
40
0.086494281475758744
40
0.086494281475758744
40
0.086494281475758744
40
0.089646293017794254
40
0.089646293017794254
40
0.089646293017794254
40
0.089646293017794254
10
5.6714219381367297
20
-220.34398098053566
30
0
10
5.6714364588438926
20
-220.343217364146
30
0
10
5.6714509795510555
20
-220.34245374775637
30
0
10
5.6714655002582193
20
-220.34169013136676
30
0
10
5.673880691592263
20
-220.21467980976342
30
0
10
5.6762859070030931
20
-220.08669897440956
30
0
10
5.6862252382624767
20
-219.95835940633228
30
0
10
5.6988677847935874
20
-219.79511512773274
30
0
10
5.7234813864800387
20
-219.63411119903878
30
0
10
5.7478632291828813
20
-219.47432150738217
30
0
10
5.7494502858029843
20
-219.46392051796317
30
0
10
5.7510373424230874
20
-219.45351952854418
30
0
10
5.7526243990431913
20
-219.44311853912518
30
0
0
LINE
5
18B
100
AcDbEntity
8
INSETS D 0.1
100
AcDbLine
10
6.807138987455696
20
-219.12479560363261
30
0
11
5.7526243990431905
21
-219.44311853912512
31
0
0
SPLINE
5
18C
100
AcDbEntity
8
INSETS D 0.1
100
AcDbSpline
70
0
71
3
72
14
73
10
74
0
42
0.000000001
43
0.0000000001
44
0.0000000001
40
-0.0093260067094734778
40
-0.0093260067094734778
40
-0.0093260067094734778
40
-0.0093260067094734778
40
0
40
0
40
0
40
0.045807244999713011
40
0.045807244999713011
40
0.045807244999713011
40
0.089785506259006345
40
0.089785506259006345
40
0.089785506259006345
40
0.089785506259006345
10
6.8071389874557013
20
-219.12479560363261
30
0
10
6.7980859533113369
20
-219.15459627435956
30
0
10
6.7890329191669725
20
-219.18439694508658
30
0
10
6.7799798850226081
20
-219.21419761581353
30
0
10
6.7355134197968827
20
-219.36057180014262
30
0
10
6.6915043791362088
20
-219.50563928853563
30
0
10
6.6600291076685014
20
-219.65198230371075
30
0
10
6.6298105753856102
20
-219.79248216033571
30
0
10
6.6105908008355225
20
-219.9367326553284
30
0
10
6.5912789676172281
20
-220.08230924872689
30
0
0
SPLINE
5
18D
100
AcDbEntity
8
INSETS D 0.1
100
AcDbSpline
70
0
71
3
72
11
73
7
74
0
42
0.000000001
43
0.0000000001
44
0.0000000001
40
0.00011313182117472099
40
0.00011313182117472099
40
0.00011313182117472099
40
0.00011313182117472099
40
0.038994425324202275
40
0.038994425324202275
40
0.038994425324202275
40
0.069486367350506936
40
0.069486367350506936
40
0.069486367350506936
40
0.069486367350506936
10
6.5912789676175221
20
-220.08230924872692
30
0
10
6.5800304269274434
20
-220.21225250179566
30
0
10
6.5692815640172899
20
-220.3395796204581
30
0
10
6.578317394231985
20
-220.4629336687151
30
0
10
6.5854035785186404
20
-220.55967182090308
30
0
10
6.6049338180271944
20
-220.6577720450272
30
0
10
6.6251468859175091
20
-220.75783921195622
30
0
0
SPLINE
5
18E
100
AcDbEntity
8
INSETS D 0.1
100
AcDbSpline
70
0
71
3
72
11
73
7
74
0
42
0.000000001
43
0.0000000001
44
0.0000000001
40
0.00036616218878340499
40
0.00036616218878340499
40
0.00036616218878340499
40
0.00036616218878340499
40
0.0266350037069151
40
0.0266350037069151
40
0.0266350037069151
40
0.051001341296909281
40
0.051001341296909281
40
0.051001341296909281
40
0.051001341296909281
10
6.6251468859175073
20
-220.75783921195622
30
0
10
6.6553920332671659
20
-220.84129603767957
30
0
10
6.685011555545314
20
-220.92088329650878
30
0
10
6.7283146838324761
20
-220.98657432402857
30
0
10
6.7684816109434287
20
-221.04750772118948
30
0
10
6.8245302474020919
20
-221.10272061562441
30
0
10
6.883585556422287
20
-221.1599377383618
30
0
0
SPLINE
5
18F
100
AcDbEntity
8
INSETS D 0.1
100
AcDbSpline
70
0
71
3
72
11
73
7
74
0
42
0.000000001
43
0.0000000001
44
0.0000000001
40
0.00036462365296152091
40
0.00036462365296152091
40
0.00036462365296152091
40
0.00036462365296152091
40
0.02166619860642072
40
0.02166619860642072
40
0.02166619860642072
40
0.039835631281285561
40
0.039835631281285561
40
0.039835631281285561
40
0.039835631281285561
10
6.8835855564223261
20
-221.15993773836175
30
0
10
6.9437302661386289
20
-221.20268514929029
30
0
10
6.9996171450239082
20
-221.24014368224326
30
0
10
7.0533073261735328
20
-221.25207318324198
30
0
10
7.0991030071891696
20
-221.26224859354443
30
0
10
7.1557628819200119
20
-221.25665887250875
30
0
10
7.2176378696317309
20
-221.24876722105239
30
0
0
SPLINE
5
190
100
AcDbEntity
8
INSETS D 0.1
100
AcDbSpline
70
0
71
3
72
11
73
7
74
0
42
0.000000001
43
0.0000000001
44
0.0000000001
40
0.00060480454762396442
40
0.00060480454762396442
40
0.00060480454762396442
40
0.00060480454762396442
40
0.01854349371147803
40
0.01854349371147803
40
0.01854349371147803
40
0.035908058549186557
40
0.035908058549186557
40
0.035908058549186557
40
0.035908058549186557
10
7.2176378696317398
20
-221.24876722105245
30
0
10
7.274444439906306
20
-221.22648602004435
30
0
10
7.3262223071619506
20
-221.20477641659033
30
0
10
7.3638303946737969
20
-221.17436737735187
30
0
10
7.4002348425159123
20
-221.14493157361593
30
0
10
7.4316830787148032
20
-221.1006104806998
30
0
10
7.464808219443003
20
-221.05173507095091
30
0
0
SPLINE
5
191
100
AcDbEntity
8
INSETS D 0.1
100
AcDbSpline
70
0
71
3
72
11
73
7
74
0
42
0.000000001
43
0.0000000001
44
0.0000000001
40
0.00052389785708279162
40
0.00052389785708279162
40
0.00052389785708279162
40
0.00052389785708279162
40
0.026371147298031632
40
0.026371147298031632
40
0.026371147298031632
40
0.068679252358593484
40
0.068679252358593484
40
0.068679252358593484
40
0.068679252358593484
10
7.4648082194430376
20
-221.05173507095091
30
0
10
7.4973083055033989
20
-220.97185411280148
30
0
10
7.5292871623329489
20
-220.89288240224283
30
0
10
7.555838918095481
20
-220.81327611348843
30
0
10
7.5993001952774151
20
-220.68297245252063
30
0
10
7.6296553655173414
20
-220.54665572751733
30
0
10
7.6602872252079717
20
-220.40863265031339
30
0
0
SPLINE
5
192
100
AcDbEntity
8
INSETS D 0.1
100
AcDbSpline
70
0
71
3
72
14
73
10
74
0
42
0.000000001
43
0.0000000001
44
0.0000000001
40
0
40
0
40
0
40
0
40
0.085521282223969722
40
0.085521282223969722
40
0.085521282223969722
40
0.14249112457266516
40
0.14249112457266516
40
0.14249112457266516
40
0.14300312176371474
40
0.14300312176371474
40
0.14300312176371474
40
0.14300312176371474
10
7.6602881161664449
20
-220.40863284802836
30
0
10
7.7207319733497801
20
-220.1282819856267
30
0
10
7.7815261629788415
20
-219.84530319158387
30
0
10
7.8863314869788983
20
-219.57563948412684
30
0
10
7.956147357722636
20
-219.39600350929712
30
0
10
8.0443999577177614
20
-219.22509022172122
30
0
10
8.1317674603597006
20
-219.05568726762681
30
0
10
8.1325526462422246
20
-219.05416481586855
30
0
10
8.1333378321247469
20
-219.05264236411028
30
0
10
8.134123018007271
20
-219.05111991235202
30
0
0
SPLINE
5
193
100
AcDbEntity
8
INSETS D 0.1
100
AcDbSpline
70
0
71
3
72
17
73
13
74
0
42
0.000000001
43
0.0000000001
44
0.0000000001
40
-0.00050465302026148008
40
-0.00050465302026148008
40
-0.00050465302026148008
40
-0.00050465302026148008
40
0
40
0
40
0
40
0.041520531458852102
40
0.041520531458852102
40
0.041520531458852102
40
0.081399692025765025
40
0.081399692025765025
40
0.081399692025765025
40
0.081873470610839119
40
0.081873470610839119
40
0.081873470610839119
40
0.081873470610839119
10
8.1341230180075499
20
-219.05111991235219
30
0
10
8.1352014724196913
20
-219.0497890057801
30
0
10
8.1362799268318611
20
-219.04845809920801
30
0
10
8.1373583812440309
20
-219.04712719263588
30
0
10
8.2260886544210692
20
-218.93762631584065
30
0
10
8.3170464135392059
20
-218.82444159930486
30
0
10
8.4342295018329221
20
-218.73872593734711
30
0
10
8.5467801612199139
20
-218.6563987482142
30
0
10
8.6762000594388216
20
-218.60476947626483
30
0
10
8.8016284068424113
20
-218.55416388207681
30
0
10
8.8031185401380174
20
-218.55356266965228
30
0
10
8.80460867343362
20
-218.55296145722775
30
0
10
8.8060988067295884
20
-218.55236024480308
30
0
0
SPLINE
5
194
100
AcDbEntity
8
INSETS D 0.1
100
AcDbSpline
70
0
71
3
72
17
73
13
74
0
42
0.000000001
43
0.0000000001
44
0.0000000001
40
-0.00046667859515884462
40
-0.00046667859515884462
40
-0.00046667859515884462
40
-0.00046667859515884462
40
0
40
0
40
0
40
0.049042346116786303
40
0.049042346116786303
40
0.049042346116786303
40
0.098159598556628411
40
0.098159598556628411
40
0.098159598556628411
40
0.098680214415049108
40
0.098680214415049108
40
0.098680214415049108
40
0.098680214415049108
10
8.806098806729544
20
-218.55236024480314
30
0
10
8.8076763525302422
20
-218.55205478962597
30
0
10
8.8092538983312814
20
-218.55174933444874
30
0
10
8.8108314441323206
20
-218.55144387927155
30
0
10
8.9766126648529383
20
-218.51934418865108
30
0
10
9.1476846585915279
20
-218.48511069350923
30
0
10
9.3166523049045562
20
-218.51089800823584
30
0
10
9.4858780291054305
20
-218.53672471000405
30
0
10
9.6391495123796922
20
-218.62064289368303
30
0
10
9.7880024377485615
20
-218.70093654484816
30
0
10
9.7895801968794203
20
-218.70178761338417
30
0
10
9.7911579560102755
20
-218.70263868192018
30
0
10
9.7927357151409957
20
-218.70348975045616
30
0
0
SPLINE
5
195
100
AcDbEntity
8
INSETS D 0.1
100
AcDbSpline
70
0
71
3
72
17
73
13
74
0
42
0.000000001
43
0.0000000001
44
0.0000000001
40
-0.0005286001884806206
40
-0.0005286001884806206
40
-0.0005286001884806206
40
-0.0005286001884806206
40
0
40
0
40
0
40
0.053269337510174992
40
0.053269337510174992
40
0.053269337510174992
40
0.11271039125274504
40
0.11271039125274504
40
0.11271039125274504
40
0.11303563016432183
40
0.11303563016432183
40
0.11303563016432183
40
0.11303563016432183
10
9.7927357151412693
20
-218.70348975045587
30
0
10
9.7940963976058981
20
-218.70465687716828
30
0
10
9.7954570800704648
20
-218.70582400388071
30
0
10
9.7968177625350332
20
-218.70699113059314
30
0
10
9.9339396460090672
20
-218.82460756001547
30
0
10
10.074446419909975
20
-218.94443122102672
30
0
10
10.180575325599806
20
-219.09376172218225
30
0
10
10.299000188412201
20
-219.2603934611802
30
0
10
10.368370348479615
20
-219.45496855492405
30
0
10
10.436829411880183
20
-219.64508312640396
30
0
10
10.43720399392182
20
-219.64612336126538
30
0
10
10.437578575963457
20
-219.6471635961268
30
0
10
10.437953158005071
20
-219.64820383098817
30
0
0
SPLINE
5
196
100
AcDbEntity
8
INSETS D 0.1
100
AcDbSpline
70
0
71
3
72
17
73
13
74
0
42
0.000000001
43
0.0000000001
44
0.0000000001
40
-0.0003287300110860719
40
-0.0003287300110860719
40
-0.0003287300110860719
40
-0.0003287300110860719
40
0
40
0
40
0
40
0.068786124134165572
40
0.068786124134165572
40
0.068786124134165572
40
0.14421196410924927
40
0.14421196410924927
40
0.14421196410924927
40
0.14731962489361819
40
0.14731962489361819
40
0.14731962489361819
40
0.14731962489361819
10
10.437953158004236
20
-219.64820383098882
30
0
10
10.43818704957047
20
-219.64928443035819
30
0
10
10.438420941136711
20
-219.65036502972765
30
0
10
10.438654832702952
20
-219.65144562909705
30
0
10
10.4875961942058
20
-219.87755897396562
30
0
10
10.53741611235205
20
-220.10646673600306
30
0
10
10.546021348407537
20
-220.33978297676401
30
0
10
10.555457221788089
20
-220.59562052628056
30
0
10
10.515073539129357
20
-220.84958280323687
30
0
10
10.475506756927393
20
-221.10042523335264
30
0
10
10.473876544556493
20
-221.11076032784257
30
0
10
10.472246332185595
20
-221.12109542233247
30
0
10
10.4706161198147
20
-221.13143051682246
30
0
0
LINE
5
197
100
AcDbEntity
8
INSETS D 0.1
100
AcDbLine
10
9.4979450395738834
20
-221.42504761509042
30
0
11
10.4706161198147
21
-221.13143051682243
31
0
0
SPLINE
5
198
100
AcDbEntity
8
INSETS D 0.1
100
AcDbSpline
70
0
71
3
72
14
73
10
74
0
42
0.000000001
43
0.0000000001
44
0.0000000001
40
-0.0086774416771486958
40
-0.0086774416771486958
40
-0.0086774416771486958
40
-0.0086774416771486958
40
0
40
0
40
0
40
0.081994457777014793
40
0.081994457777014793
40
0.081994457777014793
40
0.14144610406014216
40
0.14144610406014216
40
0.14144610406014216
40
0.14144610406014216
10
9.4979450395739313
20
-221.42504761509031
30
0
10
9.5049794991990328
20
-221.3966266020484
30
0
10
9.5120139588241397
20
-221.36820558900652
30
0
10
9.5190484184492465
20
-221.33978457596464
30
0
10
9.5855180905225019
20
-221.07123012863491
30
0
10
9.6506891047808487
20
-220.80616731683943
30
0
10
9.6561526583742907
20
-220.54260857297609
30
0
10
9.660114112166319
20
-220.35151027633756
30
0
10
9.6327922754174935
20
-220.15629161119378
30
0
10
9.6046301577309219
20
-219.95848836317063
30
0
0
SPLINE
5
199
100
AcDbEntity
8
INSETS D 0.1
100
AcDbSpline
70
0
71
3
72
11
73
7
74
0
42
0.000000001
43
0.0000000001
44
0.0000000001
40
0.00046718094945393234
40
0.00046718094945393234
40
0.00046718094945393234
40
0.00046718094945393234
40
0.024016732385743159
40
0.024016732385743159
40
0.024016732385743159
40
0.044044098968487599
40
0.044044098968487599
40
0.044044098968487599
40
0.044044098968487599
10
9.6046301577307442
20
-219.95848836317069
30
0
10
9.5788003073311749
20
-219.88322611325918
30
0
10
9.5534700309576461
20
-219.81200030286948
30
0
10
9.515706542969026
20
-219.75368463328547
30
0
10
9.48359114495657
20
-219.70409093739551
30
0
10
9.4388324554444232
20
-219.65818597367473
30
0
10
9.3912299804277204
20
-219.61039431491122
30
0
0
SPLINE
5
19A
100
AcDbEntity
8
INSETS D 0.1
100
AcDbSpline
70
0
71
3
72
11
73
7
74
0
42
0.000000001
43
0.0000000001
44
0.0000000001
40
0.00050775933421675398
40
0.00050775933421675398
40
0.00050775933421675398
40
0.00050775933421675398
40
0.017812272362189262
40
0.017812272362189262
40
0.017812272362189262
40
0.034304879384815086
40
0.034304879384815086
40
0.034304879384815086
40
0.034304879384815086
10
9.3912299804277151
20
-219.61039431491119
30
0
10
9.341240331897394
20
-219.5778560748393
30
0
10
9.2953786673762604
20
-219.55016029253943
30
0
10
9.2533472540063659
20
-219.54181020694432
30
0
10
9.2132879017325671
20
-219.53385189687214
30
0
10
9.1628581245020602
20
-219.54069242315671
30
0
10
9.1070299433500814
20
-219.5502780043478
30
0
0
SPLINE
5
19B
100
AcDbEntity
8
INSETS D 0.1
100
AcDbSpline
70
0
71
3
72
11
73
7
74
0
42
0.000000001
43
0.0000000001
44
0.0000000001
40
0.00065043464380929849
40
0.00065043464380929849
40
0.00065043464380929849
40
0.00065043464380929849
40
0.016016355922749886
40
0.016016355922749886
40
0.016016355922749886
40
0.03415809522581631
40
0.03415809522581631
40
0.03415809522581631
40
0.03415809522581631
10
9.1070299433500459
20
-219.5502780043478
30
0
10
9.0598281675599619
20
-219.57219421223704
30
0
10
9.0170536157545325
20
-219.59331056733976
30
0
10
8.9860577572805695
20
-219.62011399110295
30
0
10
8.9494625688957399
20
-219.65175939117458
30
0
10
8.9194562908965231
20
-219.69989064111076
30
0
10
8.8878059868281802
20
-219.75313057685662
30
0
0
SPLINE
5
19C
100
AcDbEntity
8
INSETS D 0.1
100
AcDbSpline
70
0
71
3
72
14
73
10
74
0
42
0.000000001
43
0.0000000001
44
0.0000000001
40
0.00033992601152134014
40
0.00033992601152134014
40
0.00033992601152134014
40
0.00033992601152134014
40
0.02575556939703922
40
0.02575556939703922
40
0.02575556939703922
40
0.062353031804763308
40
0.062353031804763308
40
0.062353031804763308
40
0.062378110706959852
40
0.062378110706959852
40
0.062378110706959852
40
0.062378110706959852
10
8.8878059868281341
20
-219.75313057685656
30
0
10
8.8547428888177464
20
-219.83127201049467
30
0
10
8.82228959282617
20
-219.90831064919715
30
0
10
8.7962293454433365
20
-219.98608183741223
30
0
10
8.7587036802668763
20
-220.09806909242411
30
0
10
8.733012810111644
20
-220.21582486128386
30
0
10
8.7070327664211771
20
-220.3353836457589
30
0
10
8.7070149632476479
20
-220.33546557502012
30
0
10
8.7069971600741134
20
-220.33554750428141
30
0
10
8.7069793569004634
20
-220.33562943354326
30
0
0
LINE
5
19D
100
AcDbEntity
8
INSETS D 0.1
100
AcDbLine
10
8.6240582434381068
20
-220.69954362960567
30
0
11
8.7069793569004634
21
-220.33562943354329
31
0
0
SPLINE
5
19E
100
AcDbEntity
8
INSETS D 0.1
100
AcDbSpline
70
0
71
3
72
17
73
13
74
0
42
0.000000001
43
0.0000000001
44
0.0000000001
40
-3.1111676610303518e-05
40
-3.1111676610303518e-05
40
-3.1111676610303518e-05
40
-3.1111676610303518e-05
40
0
40
0
40
0
40
0.10976221814594261
40
0.10976221814594261
40
0.10976221814594261
40
0.19024687550136565
40
0.19024687550136565
40
0.19024687550136565
40
0.19113329700608589
40
0.19113329700608589
40
0.19113329700608589
40
0.19113329700608589
10
8.6240582434382436
20
-220.69954362960505
30
0
10
8.6240326458708054
20
-220.69964955500689
30
0
10
8.6240070483035076
20
-220.69975548040816
30
0
10
8.6239814507362009
20
-220.69986140580949
30
0
10
8.5336730498663247
20
-221.07356698062432
30
0
10
8.4434312001322525
20
-221.45505796566584
30
0
10
8.2091874171331192
20
-221.74010331396573
30
0
10
8.0374249388342971
20
-221.94911673931554
30
0
10
7.7960099815194663
20
-222.09678887902456
30
0
10
7.5596144785658321
20
-222.24260752241184
30
0
10
7.5570109257357316
20
-222.24421350280039
30
0
10
7.5544073729056329
20
-222.24581948318888
30
0
10
7.5518038200753859
20
-222.24742546357749
30
0
0
SPLINE
5
19F
100
AcDbEntity
8
INSETS D 0.1
100
AcDbSpline
70
0
71
3
72
17
73
13
74
0
42
0.000000001
43
0.0000000001
44
0.0000000001
40
-0.00088881288816277911
40
-0.00088881288816277911
40
-0.00088881288816277911
40
-0.00088881288816277911
40
0
40
0
40
0
40
0.052412131421300523
40
0.052412131421300523
40
0.052412131421300523
40
0.105205513269302
40
0.105205513269302
40
0.105205513269302
40
0.10571931982593268
40
0.10571931982593268
40
0.10571931982593268
40
0.10571931982593268
10
7.5518038200756541
20
-222.24742546357771
30
0
10
7.5487996489483375
20
-222.24800219244798
30
0
10
7.5457954778210823
20
-222.2485789213182
30
0
10
7.542791306693827
20
-222.24915565018841
30
0
10
7.3656392716245813
20
-222.28316459598892
30
0
10
7.1832333546307119
20
-222.31927322343734
30
0
10
7.0034824782889267
20
-222.29203643385017
30
0
10
6.8224240783558088
20
-222.26460152147408
30
0
10
6.6578907073524443
20
-222.17499239455722
30
0
10
6.4977777379011261
20
-222.08899079299221
30
0
10
6.4962194536877416
20
-222.08815379060255
30
0
10
6.4946611694743526
20
-222.08731678821292
30
0
10
6.4931028852609547
20
-222.08647978582331
30
0
0
SPLINE
5
1A0
100
AcDbEntity
8
INSETS D 0.1
100
AcDbSpline
70
0
71
3
72
17
73
13
74
0
42
0.000000001
43
0.0000000001
44
0.0000000001
40
-0.00052143721068332607
40
-0.00052143721068332607
40
-0.00052143721068332607
40
-0.00052143721068332607
40
0
40
0
40
0
40
0.057199981937088008
40
0.057199981937088008
40
0.057199981937088008
40
0.12080648819990428
40
0.12080648819990428
40
0.12080648819990428
40
0.12099083072662604
40
0.12099083072662604
40
0.12099083072662604
40
0.12099083072662604
10
6.4931028852616626
20
-222.08647978582138
30
0
10
6.4917549990482071
20
-222.08533434903831
30
0
10
6.4904071128348821
20
-222.0841889122554
30
0
10
6.489059226621551
20
-222.08304347547252
30
0
10
6.3412004519219725
20
-221.95739275099524
30
0
10
6.1899146612707643
20
-221.82953565108934
30
0
10
6.0758901074828557
20
-221.66994465339508
30
0
10
5.9490945518023954
20
-221.49247911143917
30
0
10
5.8746758784411623
20
-221.28459621945422
30
0
10
5.8011739284974482
20
-221.08119582277666
30
0
10
5.8009609072836259
20
-221.08060633366208
30
0
10
5.8007478860698019
20
-221.08001684454746
30
0
10
5.8005348648560986
20
-221.07942735543321
30
0
0
LINE
5
1A1
100
AcDbEntity
8
INSETS D 0.1
100
AcDbLine
10
13.327196170905864
20
-229.87617969525147
30
0
11
9.0348694934141491
21
-231.17189057785652
31
0
0
LINE
5
1A2
100
AcDbEntity
8
INSETS D 0.1
100
AcDbLine
10
9.0348694934141491
20
-231.17189057785652
30
0
11
9.2694528884171525
21
-231.94899955948642
31
0
0
LINE
5
1A3
100
AcDbEntity
8
INSETS D 0.1
100
AcDbLine
10
9.2694528884171525
20
-231.94899955948642
30
0
11
11.517366956303066
21
-231.27042895203607
31
0
0
SPLINE
5
1A4
100
AcDbEntity
8
INSETS D 0.1
100
AcDbSpline
70
0
71
3
72
17
73
13
74
0
42
0.000000001
43
0.0000000001
44
0.0000000001
40
-0.0003905428407552816
40
-0.0003905428407552816
40
-0.0003905428407552816
40
-0.0003905428407552816
40
0
40
0
40
0
40
0.051676309512115555
40
0.051676309512115555
40
0.051676309512115555
40
0.10571101798514906
40
0.10571101798514906
40
0.10571101798514906
40
0.10587405352556485
40
0.10587405352556485
40
0.10587405352556485
40
0.10587405352556485
10
12.589479237859095
20
-231.29279194702298
30
0
10
12.588203918056148
20
-231.29243711263317
30
0
10
12.586928598252596
20
-231.29208227824321
30
0
10
12.585653278449042
20
-231.29172744385329
30
0
10
12.416904004315839
20
-231.24477604736916
30
0
10
12.244430545982169
20
-231.19624499075755
30
0
10
12.066378763395186
20
-231.19128768310659
30
0
10
11.880201068896008
20
-231.18610413427615
30
0
10
11.69760714859304
20
-231.22883124032765
30
0
10
11.518983803387554
20
-231.27005579920021
30
0
10
11.518444854359377
20
-231.27018018347883
30
0
10
11.517905905331212
20
-231.27030456775742
30
0
10
11.51736695630362
20
-231.27042895203596
30
0
0
SPLINE
5
1A5
100
AcDbEntity
8
INSETS D 0.1
100
AcDbSpline
70
0
71
3
72
17
73
13
74
0
42
0.000000001
43
0.0000000001
44
0.0000000001
40
-0.00079719752596663215
40
-0.00079719752596663215
40
-0.00079719752596663215
40
-0.00079719752596663215
40
0
40
0
40
0
40
0.04223283572855336
40
0.04223283572855336
40
0.04223283572855336
40
0.089292028705116308
40
0.089292028705116308
40
0.089292028705116308
40
0.089675019279956483
40
0.089675019279956483
40
0.089675019279956483
40
0.089675019279956483
10
13.241245306561808
20
-231.93259140159375
30
0
10
13.240082672669086
20
-231.93010624935297
30
0
10
13.238920038776412
20
-231.92762109711219
30
0
10
13.237757404883737
20
-231.92513594487141
30
0
10
13.176164983178122
20
-231.79348096235219
30
0
10
13.113226679145711
20
-231.65650274366499
30
0
10
13.009951909366887
20
-231.55003985741735
30
0
10
12.894874926332422
20
-231.43141042081098
30
0
10
12.740944390184666
20
-231.36223632940249
30
0
10
12.593089190206042
20
-231.29444705321234
30
0
10
12.591885872757295
20
-231.29389535114916
30
0
10
12.590682555308547
20
-231.29334364908601
30
0
10
12.589479237859852
20
-231.29279194702289
30
0
0
SPLINE
5
1A6
100
AcDbEntity
8
INSETS D 0.1
100
AcDbSpline
70
0
71
3
72
14
73
10
74
0
42
0.000000001
43
0.0000000001
44
0.0000000001
40
0.0059296305379890691
40
0.0059296305379890691
40
0.0059296305379890691
40
0.0059296305379890691
40
0.056649552719834753
40
0.056649552719834753
40
0.056649552719834753
40
0.10021604460056588
40
0.10021604460056588
40
0.10021604460056588
40
0.10102438735676061
40
0.10102438735676061
40
0.10102438735676061
40
0.10102438735676061
10
13.087854630081353
20
-232.88177668523116
30
0
10
13.162076074406324
20
-232.72429957318599
30
0
10
13.233616920466922
20
-232.56250394601071
30
0
10
13.256392572831221
20
-232.38823161589991
30
0
10
13.275955995469173
20
-232.23853828578027
30
0
10
13.258579234972929
20
-232.08772978000394
30
0
10
13.242159285187903
20
-231.94077149548826
30
0
10
13.241854625645836
20
-231.9380447975233
30
0
10
13.241549966103769
20
-231.93531809955834
30
0
10
13.241245306561705
20
-231.93259140159344
30
0
0
LINE
5
1A7
100
AcDbEntity
8
INSETS D 0.1
100
AcDbLine
10
13.087854630081353
20
-232.88177668523116
30
0
11
13.889603796003128
21
-233.08415073359583
31
0
0
SPLINE
5
1A8
100
AcDbEntity
8
INSETS D 0.1
100
AcDbSpline
70
0
71
3
72
11
73
7
74
0
42
0.000000001
43
0.0000000001
44
0.0000000001
40
0.0011257732356977101
40
0.0011257732356977101
40
0.0011257732356977101
40
0.0011257732356977101
40
0.054013957358674217
40
0.054013957358674217
40
0.054013957358674217
40
0.11700494618358051
40
0.11700494618358051
40
0.11700494618358051
40
0.11700494618358051
10
14.056384923837243
20
-231.98558557106855
30
0
10
14.079876152989289
20
-232.16348756213921
30
0
10
14.101464404853683
20
-232.33748683901905
30
0
10
14.082318135859524
20
-232.50130242588983
30
0
10
14.059514508995623
20
-232.69641038758368
30
0
10
13.977628377313756
20
-232.88861671029863
30
0
10
13.889603796003133
20
-233.08415073359581
30
0
0
SPLINE
5
1A9
100
AcDbEntity
8
INSETS D 0.1
100
AcDbSpline
70
0
71
3
72
14
73
10
74
0
42
0.000000001
43
0.0000000001
44
0.0000000001
40
-8.5634369003225159e-06
40
-8.5634369003225159e-06
40
-8.5634369003225159e-06
40
-8.5634369003225159e-06
40
0
40
0
40
0
40
0.10324601448452081
40
0.10324601448452081
40
0.10324601448452081
40
0.17304647567125966
40
0.17304647567125966
40
0.17304647567125966
40
0.17304647567125966
10
12.695385488867041
20
-231.06343465750359
30
0
10
12.695414312923774
20
-231.06344238252646
30
0
10
12.695443136977236
20
-231.06345010754842
30
0
10
12.695471961031277
20
-231.06345783257058
30
0
10
13.042992296216624
20
-231.15659540038473
30
0
10
13.383063256223078
20
-231.24949155161141
30
0
10
13.628480300258728
20
-231.45321841937357
30
0
10
13.794396853476798
20
-231.5909499279158
30
0
10
13.924785999489572
20
-231.78570926945596
30
0
10
14.056384923837271
20
-231.98558557106853
30
0
0
LINE
5
1AA
100
AcDbEntity
8
INSETS D 0.1
100
AcDbLine
10
12.695385488867041
20
-231.06343465750359
30
0
11
12.436353665780828
21
-230.99301738252905
31
0
0
LINE
5
1AB
100
AcDbEntity
8
INSETS D 0.1
100
AcDbLine
10
12.436353665780828
20
-230.99301738252905
30
0
11
13.561779565908868
21
-230.65328867688137
31
0
0
LINE
5
1AC
100
AcDbEntity
8
INSETS D 0.1
100
AcDbLine
10
13.561779565908868
20
-230.65328867688137
30
0
11
13.327196170905864
21
-229.87617969525147
31
0
0
LWPOLYLINE
5
1AD
100
AcDbEntity
8
INSETS D 0.1
100
AcDbPolyline
90
4
70
1
43
0.0
10
10.185264613346366
20
-234.98282689801286
10
10.418408345349849
20
-235.7551666799838
10
16.985848966847577
20
-233.77267445059232
10
16.752705234844093
20
-233.00033466862141
0
SPLINE
5
1AE
100
AcDbEntity
8
INSETS D 0.1
100
AcDbSpline
70
0
71
3
72
11
73
7
74
0
42
0.000000001
43
0.0000000001
44
0.0000000001
40
0.00042788279188156106
40
0.00042788279188156106
40
0.00042788279188156106
40
0.00042788279188156106
40
0.023818750705751474
40
0.023818750705751474
40
0.023818750705751474
40
0.046766525574745005
40
0.046766525574745005
40
0.046766525574745005
40
0.046766525574745005
10
11.997572921195879
20
-239.40080940798441
30
0
10
12.075662597622934
20
-239.38442821507215
30
0
10
12.149162924887548
20
-239.37021672777735
30
0
10
12.214950781144395
20
-239.37660601046423
30
0
10
12.279492418507104
20
-239.38287426101451
30
0
10
12.347668409216993
20
-239.41004018356028
30
0
10
12.41985291046683
20
-239.44016183621778
30
0
0
SPLINE
5
1AF
100
AcDbEntity
8
INSETS D 0.1
100
AcDbSpline
70
0
71
3
72
11
73
7
74
0
42
0.000000001
43
0.0000000001
44
0.0000000001
40
0.00047415911680378429
40
0.00047415911680378429
40
0.00047415911680378429
40
0.00047415911680378429
40
0.023422016900138745
40
0.023422016900138745
40
0.023422016900138745
40
0.046815705447735154
40
0.046815705447735154
40
0.046815705447735154
40
0.046815705447735154
10
12.419852910466862
20
-239.44016183621778
30
0
10
12.484884433483534
20
-239.48362292369652
30
0
10
12.545235894497411
20
-239.52538047170393
30
0
10
12.586168975833163
20
-239.57567377441376
30
0
10
12.627897304686469
20
-239.62694417493361
30
0
10
12.656729815702905
20
-239.69604205060671
30
0
10
12.686296626984028
20
-239.77016276472969
30
0
0
SPLINE
5
1B0
100
AcDbEntity
8
INSETS D 0.1
100
AcDbSpline
70
0
71
3
72
11
73
7
74
0
42
0.000000001
43
0.0000000001
44
0.0000000001
40
0.00042536783412817642
40
0.00042536783412817642
40
0.00042536783412817642
40
0.00042536783412817642
40
0.023941220094750953
40
0.023941220094750953
40
0.023941220094750953
40
0.047212194818829809
40
0.047212194818829809
40
0.047212194818829809
40
0.047212194818829809
10
12.686296626983991
20
-239.77016276472969
30
0
10
12.702662920722734
20
-239.84861275726485
30
0
10
12.716933169635995
20
-239.92257056022493
30
0
10
12.710856011962719
20
-239.98910076250181
30
0
10
12.704842137532754
20
-240.05493816607168
30
0
10
12.677909277401323
20
-240.12440375902679
30
0
10
12.648120819350757
20
-240.19786221168314
30
0
0
SPLINE
5
1B1
100
AcDbEntity
8
INSETS D 0.1
100
AcDbSpline
70
0
71
3
72
11
73
7
74
0
42
0.000000001
43
0.0000000001
44
0.0000000001
40
0.0004610510700612517
40
0.0004610510700612517
40
0.0004610510700612517
40
0.0004610510700612517
40
0.023632712152692931
40
0.023632712152692931
40
0.023632712152692931
40
0.047032853195846602
40
0.047032853195846602
40
0.047032853195846602
40
0.047032853195846602
10
12.648120819350833
20
-240.1978622116832
30
0
10
12.605190652192608
20
-240.26426191182486
30
0
10
12.563924758789256
20
-240.32583827566378
30
0
10
12.513653555454447
20
-240.36745345750373
30
0
10
12.46288666203888
20
-240.40947897829477
30
0
10
12.393906165250803
20
-240.43862033632712
30
0
10
12.319824727017528
20
-240.46849935703432
30
0
0
SPLINE
5
1B2
100
AcDbEntity
8
INSETS D 0.1
100
AcDbSpline
70
0
71
3
72
11
73
7
74
0
42
0.000000001
43
0.0000000001
44
0.0000000001
40
0.00044148762437122617
40
0.00044148762437122617
40
0.00044148762437122617
40
0.00044148762437122617
40
0.023340818376385266
40
0.023340818376385266
40
0.023340818376385266
40
0.045978927772299318
40
0.045978927772299318
40
0.045978927772299318
40
0.045978927772299318
10
12.31982472701751
20
-240.4684993570342
30
0
10
12.243220914327768
20
-240.48422738378761
30
0
10
12.171317324263509
20
-240.49772047109326
30
0
10
12.107567194537801
20
-240.49076080419468
30
0
10
12.044544286734794
20
-240.48388052885755
30
0
10
11.977954221864916
20
-240.45575528990031
30
0
10
11.907306296823723
20
-240.42446188768113
30
0
0
SPLINE
5
1B3
100
AcDbEntity
8
INSETS D 0.1
100
AcDbSpline
70
0
71
3
72
11
73
7
74
0
42
0.000000001
43
0.0000000001
44
0.0000000001
40
0.0004804141230036527
40
0.0004804141230036527
40
0.0004804141230036527
40
0.0004804141230036527
40
0.023476705251550409
40
0.023476705251550409
40
0.023476705251550409
40
0.047304271934224623
40
0.047304271934224623
40
0.047304271934224623
40
0.047304271934224623
10
11.907306296823702
20
-240.42446188768116
30
0
10
11.84329563923859
20
-240.37943476049446
30
0
10
11.783738985567426
20
-240.33617415247423
30
0
10
11.743071441772358
20
-240.28485149645115
30
0
10
11.700933837661289
20
-240.23167361651014
30
0
10
11.672058365259295
20
-240.16097343976455
30
0
10
11.642455325789028
20
-240.08536186945494
30
0
0
SPLINE
5
1B4
100
AcDbEntity
8
INSETS D 0.1
100
AcDbSpline
70
0
71
3
72
11
73
7
74
0
42
0.000000001
43
0.0000000001
44
0.0000000001
40
0.00039766041154953505
40
0.00039766041154953505
40
0.00039766041154953505
40
0.00039766041154953505
40
0.023796148150504706
40
0.023796148150504706
40
0.023796148150504706
40
0.046533212078997577
40
0.046533212078997577
40
0.046533212078997577
40
0.046533212078997577
10
11.642455325788951
20
-240.08536186945497
30
0
10
11.625786742893196
20
-240.00736133170881
30
0
10
11.611235460109896
20
-239.93388406310481
30
0
10
11.617088361655544
20
-239.8677965801258
30
0
10
11.622775814541184
20
-239.8035772450076
30
0
10
11.648671147609335
20
-239.73564128414137
30
0
10
11.677375887404576
20
-239.6637438133445
30
0
0
SPLINE
5
1B5
100
AcDbEntity
8
INSETS D 0.1
100
AcDbSpline
70
0
71
3
72
11
73
7
74
0
42
0.000000001
43
0.0000000001
44
0.0000000001
40
0.0004774099099767555
40
0.0004774099099767555
40
0.0004774099099767555
40
0.0004774099099767555
40
0.02301033461257429
40
0.02301033461257429
40
0.02301033461257429
40
0.045911886525065067
40
0.045911886525065067
40
0.045911886525065067
40
0.045911886525065067
10
11.677375887404446
20
-239.66374381334444
30
0
10
11.719191604987886
20
-239.5992442469834
30
0
10
11.759352866177121
20
-239.53955358814241
30
0
10
11.808068762931773
20
-239.49927558659829
30
0
10
11.857581627028003
20
-239.4583386573949
30
0
10
11.925021281837109
20
-239.42994481693714
30
0
10
11.997572921195934
20
-239.40080940798467
30
0
0
LWPOLYLINE
5
1B6
100
AcDbEntity
8
CUTOUTS D 4.0
100
AcDbPolyline
90
3
70
1
43
0.0
10
13.442826076243772
20
-46.776826076243864
10
14.438302169052836
20
-47.3637327067404
42
-107.63958183074537
10
14.029732706740269
20
-47.772302169052956
0
LWPOLYLINE
5
1B7
100
AcDbEntity
8
CUTOUTS D 4.0
100
AcDbPolyline
90
3
70
1
43
0.0
10
13.442826076243772
20
-96.231826076243863
10
14.438302169052834
20
-96.818732706740391
42
-107.63958183074537
10
14.029732706740264
20
-97.227302169052962
0
LWPOLYLINE
5
1B8
100
AcDbEntity
8
CUTOUTS D 4.0
100
AcDbPolyline
90
3
70
1
43
0.0
10
63.583732706740285
20
-118.80595788397601
10
62.996826076243792
20
-119.80143397678511
10
63.99230216905287
20
-119.21452734628861
42
107.63958183072994
0
CIRCLE
5
1B9
100
AcDbEntity
8
HOLES DIAM 2.5 D 4.0
100
AcDbCircle
10
9.0182007523819898
20
-138.24399999997249
30
0
40
1.2
210
0
220
0
230
1
0
CIRCLE
5
1BA
100
AcDbEntity
8
HOLES DIAM 2.5 D 4.0
100
AcDbCircle
10
21.018200752381986
20
-138.24399999997249
30
0
40
1.2
210
0
220
0
230
1
0
CIRCLE
5
1BB
100
AcDbEntity
8
HOLES DIAM 2.5 D 4.0
100
AcDbCircle
10
169.00000000000057
20
-138.24399999997249
30
0
40
1.2
210
0
220
0
230
1
0
CIRCLE
5
1BC
100
AcDbEntity
8
HOLES DIAM 2.5 D 4.0
100
AcDbCircle
10
157.00000000000057
20
-138.24399999997249
30
0
40
1.2
210
0
220
0
230
1
0
ENDSEC
0
SECTION
2
OBJECTS
0
DICTIONARY
5
C
100
AcDbDictionary
3
ACAD_GROUP
350
D
3
ACAD_MLINESTYLE
350
17
0
DICTIONARY
5
D
100
AcDbDictionary
0
DICTIONARY
5
1A
330
C
100
AcDbDictionary
0
DICTIONARY
5
17
100
AcDbDictionary
0
ENDSEC
0
EOF
