0
SECTION
2
HEADER
9
$INSUNITS
70
4
9
$ACADVER
1
AC1014
9
$HANDSEED
5
FFFF
0
ENDSEC
0
SECTION
2
TABLES
0
TABLE
2
VPORT
5
8
100
AcDbSymbolTable
0
ENDTAB
0
TABLE
2
LTYPE
5
5
100
AcDbSymbolTable
0
LTYPE
5
14
100
AcDbSymbolTableRecord
100
AcDbLinetypeTableRecord
2
BYBLOCK
70
0
0
LTYPE
5
15
100
AcDbSymbolTableRecord
100
AcDbLinetypeTableRecord
2
BYLAYER
70
0
0
LTYPE
5
16
100
AcDbSymbolTableRecord
100
AcDbLinetypeTableRecord
2
DASHED
70
0
3
Dashed __ __ __ __ __ __ __ __ __ __ __ __ __ _
72
65
73
2
40
0.75
49
0.5
74
0
49
-0.25
74
0
0
ENDTAB
0
TABLE
2
LAYER
5
2
100
AcDbSymbolTable
70
3
0
LAYER
5
50
100
AcDbSymbolTableRecord
100
AcDbLayerTableRecord
2
1
70
0
62
7
6
DASHED
0
LAYER
5
51
100
AcDbSymbolTableRecord
100
AcDbLayerTableRecord
2
0
70
0
62
7
6
CONTINUOUS
0
ENDTAB
0
TABLE
2
STYLE
5
3
100
AcDbSymbolTable
70
1
0
STYLE
5
11
100
AcDbSymbolTableRecord
100
AcDbTextStyleTableRecord
2
STANDARD
70
0
0
ENDTAB
0
TABLE
2
VIEW
5
6
100
AcDbSymbolTable
70
0
0
ENDTAB
0
TABLE
2
UCS
5
7
100
AcDbSymbolTable
70
0
0
ENDTAB
0
TABLE
2
APPID
5
9
100
AcDbSymbolTable
70
2
0
APPID
5
12
100
AcDbSymbolTableRecord
100
AcDbRegAppTableRecord
2
ACAD
70
0
0
ENDTAB
0
TABLE
2
DIMSTYLE
5
A
100
AcDbSymbolTable
70
1
0
ENDTAB
0
TABLE
2
BLOCK_RECORD
5
1
100
AcDbSymbolTable
70
1
0
BLOCK_RECORD
5
1F
100
AcDbSymbolTableRecord
100
AcDbBlockTableRecord
2
*MODEL_SPACE
0
BLOCK_RECORD
5
1B
100
AcDbSymbolTableRecord
100
AcDbBlockTableRecord
2
*PAPER_SPACE
0
ENDTAB
0
ENDSEC
0
SECTION
2
BLOCKS
0
BLOCK
5
20
100
AcDbEntity
100
AcDbBlockBegin
2
*MODEL_SPACE
0
ENDBLK
5
21
100
AcDbEntity
100
AcDbBlockEnd
0
BLOCK
5
1C
100
AcDbEntity
100
AcDbBlockBegin
2
*PAPER_SPACE
0
ENDBLK
5
1D
100
AcDbEntity
100
AcDbBlockEnd
0
ENDSEC
0
SECTION
2
ENTITIES
0
SPLINE
5
100
100
AcDbEntity
8
0
100
AcDbSpline
70
2
71
3
72
20
73
16
74
0
42
0.000000001
43
0.0000000001
44
0.0000000001
40
-3.1415926535897931
40
-3.1415926535897931
40
-3.1415926535897931
40
-3.1415926535897931
40
-1.7908771096870322
40
-1.7908771096870322
40
-1.7908771096870322
40
-0.40829284858044934
40
-0.40829284858044934
40
-0.40829284858044934
40
0.94832101891916443
40
0.94832101891916443
40
0.94832101891916443
40
2.3195066865355223
40
2.3195066865355223
40
2.3195066865355223
40
3.1415926535897931
40
3.1415926535897931
40
3.1415926535897931
40
3.1415926535897931
10
-190.9999999999998
20
22.637093689193311
30
0
10
-191.45023851463407
20
22.637093689193311
30
0
10
-191.87758894097979
20
22.294780814839896
30
0
10
-191.97587981692604
20
21.855402120491672
30
0
10
-192.07648976304469
20
21.405656746483341
30
9.8607613152626476e-31
10
-191.82002168274914
20
20.902275496505357
30
0
10
-191.39704308378356
20
20.719293650670913
30
0
10
-190.98200969366451
20
20.539748926676292
30
0
10
-190.45121926703032
20
20.68665754969533
30
9.8607613152626476e-31
10
-190.18756227615356
20
21.054045656549345
30
0
10
-189.92107326574458
20
21.425379990245503
30
4.9303806576313238e-31
10
-189.95631312124229
20
21.982959637370922
30
0
10
-190.2674326710445
20
22.317788256230902
30
0
10
-190.45396249119153
20
22.518532703488326
30
0
10
-190.72597134431504
20
22.637093689193311
30
0
10
-190.9999999999998
20
22.637093689193311
30
0
0
LINE
5
101
100
AcDbEntity
8
0
100
AcDbLine
10
-152.99999999999753
20
43.274187309590346
30
0
11
0
21
43.274187309590346
31
0
0
LINE
5
102
100
AcDbEntity
8
0
100
AcDbLine
10
0
20
78.539816339744831
30
0
11
-152.99999999999753
21
78.539816339744831
31
0
0
LINE
5
103
100
AcDbEntity
8
0
100
AcDbLine
10
-152.99999999999753
20
78.539816339744831
30
0
11
-152.99999999999753
21
82.544095479462754
31
0
0
LINE
5
104
100
AcDbEntity
8
0
100
AcDbLine
10
-152.99999999999753
20
82.544095479462754
30
0
11
0
21
82.544095479462754
31
0
0
LINE
5
105
100
AcDbEntity
8
0
100
AcDbLine
10
0
20
117.80972450961724
30
0
11
-152.99999999999753
21
117.80972450961724
31
0
0
LINE
5
106
100
AcDbEntity
8
0
100
AcDbLine
10
-152.99999999999753
20
117.80972450961724
30
0
11
-152.99999999999753
21
121.81400364933516
31
0
0
LINE
5
107
100
AcDbEntity
8
0
100
AcDbLine
10
-152.99999999999753
20
121.81400364933516
30
0
11
0
21
121.81400364933516
31
0
0
LINE
5
108
100
AcDbEntity
8
0
100
AcDbLine
10
0
20
0
30
0
11
-152.99999999999753
21
0
31
0
0
LINE
5
109
100
AcDbEntity
8
0
100
AcDbLine
10
-152.99999999999753
20
0
30
0
11
-152.99999999999753
21
4.00427913971793
31
0
0
LINE
5
110
100
AcDbEntity
8
0
100
AcDbLine
10
-152.99999999999753
20
4.00427913971793
30
0
11
0
21
4.00427913971793
31
0
0
LINE
5
111
100
AcDbEntity
8
0
100
AcDbLine
10
0
20
39.269908169872409
30
0
11
-152.99999999999753
21
39.269908169872409
31
0
0
LINE
5
112
100
AcDbEntity
8
0
100
AcDbLine
10
-152.99999999999753
20
39.269908169872409
30
0
11
-152.99999999999753
21
43.274187309590346
31
0
0
LINE
5
113
100
AcDbEntity
8
0
100
AcDbLine
10
-46.013461959246385
20
102.98279725089159
30
0
11
-26
21
102.98279725089159
31
0
0
LINE
5
114
100
AcDbEntity
8
0
100
AcDbLine
10
-26
20
102.98279725089159
30
0
11
-26
21
97.371022738188373
31
0
0
LINE
5
115
100
AcDbEntity
8
0
100
AcDbLine
10
-26
20
97.371022738188373
30
0
11
-46.022951030517589
21
97.371022738188373
31
0
0
LWPOLYLINE
5
116
100
AcDbEntity
8
0
100
AcDbPolyline
90
4
70
1
43
0.0
10
-174
20
102.98279725089161
10
-174
20
97.371022738188373
10
-194
20
97.371022738188373
10
-194
20
102.98279725089161
0
SPLINE
5
117
100
AcDbEntity
8
0
100
AcDbSpline
70
0
71
3
72
14
73
10
74
0
42
0.000000001
43
0.0000000001
44
0.0000000001
40
0.30138383982514705
40
0.30138383982514705
40
0.30138383982514705
40
0.30138383982514705
40
0.35392836871287903
40
0.35392836871287903
40
0.35392836871287903
40
0.44705038809110653
40
0.44705038809110653
40
0.44705038809110653
40
0.45207575973771269
40
0.45207575973771269
40
0.45207575973771269
40
0.45207575973771269
10
-440
20
101.17717688781539
30
0
10
-439.81655647736875
20
101.17717688781538
30
0
10
-439.63442149820253
20
101.12603351744511
30
0
10
-439.47710234928115
20
101.02947074112259
30
0
10
-439.19829355330307
20
100.85833740111048
30
0
10
-439.01726825698188
20
100.54269903378453
30
0
10
-439.00128392794068
20
100.22756777873157
30
0
10
-439.00042132643682
20
100.2105615788588
30
0
10
-439
20
100.19366123393822
30
0
10
-439
20
100.17690999453998
30
0
0
SPLINE
5
118
100
AcDbEntity
8
0
100
AcDbSpline
70
0
71
3
72
14
73
10
74
0
42
0.000000001
43
0.0000000001
44
0.0000000001
40
0.30138383982513117
40
0.30138383982513117
40
0.30138383982513117
40
0.30138383982513117
40
0.3539283687116801
40
0.3539283687116801
40
0.3539283687116801
40
0.44705038809034614
40
0.44705038809034614
40
0.44705038809034614
40
0.45207575973769132
40
0.45207575973769132
40
0.45207575973769132
40
0.45207575973769132
10
-439.99999999999989
20
55.362284022964246
30
0
10
-439.81655647737284
20
55.362284022964232
30
0
10
-439.63442149821117
20
55.311140652596521
30
0
10
-439.47710234929184
20
55.214577876277964
30
0
10
-439.19829355330978
20
55.043444536268197
30
0
10
-439.01726825698483
20
54.727806168943012
30
0
10
-439.00128392794107
20
54.41267491388794
30
0
10
-439.00042132643705
20
54.395668714012629
30
0
10
-439
20
54.378768369089556
30
0
10
-439
20
54.362017129688866
30
0
0
SPLINE
5
119
100
AcDbEntity
8
0
100
AcDbSpline
70
0
71
3
72
14
73
10
74
0
42
0.000000001
43
0.0000000001
44
0.0000000001
40
0.30138383982514255
40
0.30138383982514255
40
0.30138383982514255
40
0.30138383982514255
40
0.35392836871303063
40
0.35392836871303063
40
0.35392836871303063
40
0.4470503880911415
40
0.4470503880911415
40
0.4470503880911415
40
0.4520757597377123
40
0.4520757597377123
40
0.4520757597377123
40
0.4520757597377123
10
-440
20
3.0024064631343705
30
0
10
-439.81655647736829
20
3.0024064631343563
30
0
10
-439.63442149820139
20
2.9512630927636927
30
0
10
-439.47710234927973
20
2.8547003164406979
30
0
10
-439.19829355330245
20
2.6835669764284535
30
0
10
-439.01726825698177
20
2.3679286091027167
30
0
10
-439.00128392794068
20
2.0527973540501758
30
0
10
-439.00042132643682
20
2.0357911541775215
30
0
10
-439
20
2.0188908092570688
30
0
10
-439
20
2.0021395698589566
30
0
0
LINE
5
120
100
AcDbEntity
8
0
100
AcDbLine
10
-181.02352156886749
20
23.5566349477402
30
0
11
-178.17768231033099
21
23.556775526897397
31
0
0
LINE
5
121
100
AcDbEntity
8
0
100
AcDbLine
10
-178.17768231033099
20
23.556775526897397
30
0
11
-178.17763641405963
21
22.630445547462159
31
0
0
LINE
5
122
100
AcDbEntity
8
0
100
AcDbLine
10
-178.17763641405963
20
22.630445547462159
30
0
11
-185.17763633189065
21
22.630099414028209
31
0
0
LINE
5
123
100
AcDbEntity
8
0
100
AcDbLine
10
-185.17763620702266
20
22.630099067554465
30
0
11
-185.17776715484183
21
25.270618297287328
31
0
0
SPLINE
5
124
100
AcDbEntity
8
0
100
AcDbSpline
70
0
71
3
72
11
73
7
74
0
42
0.000000001
43
0.0000000001
44
0.0000000001
40
0
40
0
40
0
40
0
40
0.061499418717352372
40
0.061499418717352372
40
0.061499418717352372
40
0.10678124475422604
40
0.10678124475422604
40
0.10678124475422604
40
0.10678124475422604
10
-185.17776702999112
20
25.270618297293517
30
0
10
-185.177138482027
20
25.475881854155304
30
0
10
-185.17650993406289
20
25.681145411017084
30
0
10
-185.16108535990327
20
25.885386219473215
30
0
10
-185.14972829509912
20
26.035768075936705
30
0
10
-185.13034981626035
20
26.185595466741201
30
0
10
-185.11097133742157
20
26.335422857545701
30
0
0
SPLINE
5
125
100
AcDbEntity
8
0
100
AcDbSpline
70
0
71
3
72
11
73
7
74
0
42
0.000000001
43
0.0000000001
44
0.0000000001
40
0
40
0
40
0
40
0
40
0.049005232641060777
40
0.049005232641060777
40
0.049005232641060777
40
0.092972466186196923
40
0.092972466186196923
40
0.092972466186196923
40
0.092972466186196923
10
-185.11097133742157
20
26.335422857545701
30
0
10
-185.07825092921223
20
26.496805693795665
30
0
10
-185.04553052100283
20
26.658188530045631
30
0
10
-184.98625031984034
20
26.809338425812157
30
0
10
-184.93306443929967
20
26.944949306718815
30
0
10
-184.85849903359889
20
27.072323097490237
30
0
10
-184.78393362789805
20
27.199696888261663
30
0
0
SPLINE
5
126
100
AcDbEntity
8
0
100
AcDbSpline
70
0
71
3
72
11
73
7
74
0
42
0.000000001
43
0.0000000001
44
0.0000000001
40
0
40
0
40
0
40
0
40
0.042747706554647623
40
0.042747706554647623
40
0.042747706554647623
40
0.08856160040370771
40
0.08856160040370771
40
0.08856160040370771
40
0.08856160040370771
10
-184.78393362789805
20
27.199696888261663
30
0
10
-184.6931458680356
20
27.311351018198987
30
0
10
-184.60235810817312
20
27.423005148136312
30
4.9303806576313238e-31
10
-184.49447089535653
20
27.514256858450278
30
0
10
-184.37884519952343
20
27.612053828318707
30
0
10
-184.24357907385593
20
27.686416581189832
30
0
10
-184.10831294818846
20
27.760779334060949
30
0
0
SPLINE
5
127
100
AcDbEntity
8
0
100
AcDbSpline
70
0
71
3
72
11
73
7
74
0
42
0.000000001
43
0.0000000001
44
0.0000000001
40
0
40
0
40
0
40
0
40
0.048304706092017258
40
0.048304706092017258
40
0.048304706092017258
40
0.098484353968759458
40
0.098484353968759458
40
0.098484353968759458
40
0.098484353968759458
10
-184.10831294818846
20
27.760779334060949
30
0
10
-183.95830403160983
20
27.822754201544413
30
0
10
-183.8082951150312
20
27.884729069027866
30
0
10
-183.65231818403191
20
27.920163272627811
30
0
10
-183.49028702583524
20
27.956972850892321
30
0
10
-183.32181556620426
20
27.96514143340373
30
4.9303806576313238e-31
10
-183.15334410657331
20
27.973310015915146
30
0
0
SPLINE
5
128
100
AcDbEntity
8
0
100
AcDbSpline
70
0
71
3
72
11
73
7
74
0
42
0.000000001
43
0.0000000001
44
0.0000000001
40
0
40
0
40
0
40
0
40
0.083641787290889044
40
0.083641787290889044
40
0.083641787290889044
40
0.1644851828059759
40
0.1644851828059759
40
0.1644851828059759
40
0.1644851828059759
10
-183.15334410657331
20
27.973310015915146
30
0
10
-182.86896817338786
20
27.95130213326955
30
0
10
-182.5845922402024
20
27.929294250623961
30
0
10
-182.32907010625055
20
27.831298636438582
30
0
10
-182.08209694119751
20
27.736581648041625
30
0
10
-181.86207915802785
20
27.570876492522597
30
0
10
-181.64206137485817
20
27.405171337003566
30
0
0
SPLINE
5
129
100
AcDbEntity
8
0
100
AcDbSpline
70
0
71
3
72
11
73
7
74
0
42
0.000000001
43
0.0000000001
44
0.0000000001
40
0
40
0
40
0
40
0
40
0.092246104481509814
40
0.092246104481509814
40
0.092246104481509814
40
0.21877383347106916
40
0.21877383347106916
40
0.21877383347106916
40
0.21877383347106916
10
-181.64206137485817
20
27.405171337003566
30
0
10
-181.46279047737988
20
27.14768014835078
30
0
10
-181.28351957990162
20
26.890188959697991
30
0
10
-181.17825962271257
20
26.60778663834785
30
0
10
-181.03388167405527
20
26.220434515646826
30
0
10
-181.0287460540668
20
25.786215212053321
30
0
10
-181.02361043407828
20
25.351995908459813
30
0
0
LINE
5
130
100
AcDbEntity
8
0
100
AcDbLine
10
-181.02361043407831
20
25.351995908459809
30
0
11
-181.02352156886749
21
23.5566349477402
31
0
0
SPLINE
5
131
100
AcDbEntity
8
0
100
AcDbSpline
70
2
71
3
72
26
73
22
74
0
42
0.000000001
43
0.0000000001
44
0.0000000001
40
-3.1415926535897931
40
-3.1415926535897931
40
-3.1415926535897931
40
-3.1415926535897931
40
-2.1540704102609385
40
-2.1540704102609385
40
-2.1540704102609385
40
-1.1710169344468708
40
-1.1710169344468708
40
-1.1710169344468708
40
-0.19162213389138438
40
-0.19162213389138438
40
-0.19162213389138438
40
0.79785340881950617
40
0.79785340881950617
40
0.79785340881950617
40
1.7785516935044354
40
1.7785516935044354
40
1.7785516935044354
40
2.7622597955635415
40
2.7622597955635415
40
2.7622597955635415
40
3.1415926535897931
40
3.1415926535897931
40
3.1415926535897931
40
3.1415926535897931
10
-190.9999999999998
20
25.137093775188681
30
0
10
-189.84789071611613
20
25.137093775188681
30
0
10
-188.7132116699733
20
24.526376526023586
30
0
10
-188.07867637193618
20
23.564752472053843
30
0
10
-187.44701249350098
20
22.607479990276875
30
0
10
-187.32959674049536
20
21.33130007131652
30
0
10
-187.77598591910606
20
20.27484061887759
30
0
10
-188.22071375061449
20
19.222313040090942
30
0
10
-189.21170615080089
20
18.41877066082872
30
0
10
-190.33341944145627
20
18.201155475613525
30
0
10
-191.46667833399653
20
17.98130041474246
30
-9.8607613152626476e-31
10
-192.69946042074849
20
18.366857122671878
30
0
10
-193.50550613192254
20
19.193236164314349
30
0
10
-194.30440172075168
20
20.012284714436163
30
4.9303806576313238e-31
10
-194.66073388946921
20
21.239473176797283
30
0
10
-194.4247372828134
20
22.359017874891471
30
0
10
-194.18801638949566
20
23.481998517695782
30
0
10
-193.36212743100018
20
24.463306096900816
30
0
10
-192.29605292514816
20
24.888285365907919
30
0
10
-191.88495832469982
20
25.052163858294971
30
0
10
-191.44255500103043
20
25.137093775188681
30
0
10
-190.9999999999998
20
25.137093775188681
30
0
0
SPLINE
5
132
100
AcDbEntity
8
0
100
AcDbSpline
70
0
71
3
72
11
73
7
74
0
42
0.000000001
43
0.0000000001
44
0.0000000001
40
0
40
0
40
0
40
0
40
0.072732942050085403
40
0.072732942050085403
40
0.072732942050085403
40
0.14146581539765749
40
0.14146581539765749
40
0.14146581539765749
40
0.14146581539765749
10
-178.85069341935096
20
18.514450892409513
30
0
10
-178.86719968590705
20
18.761231111213657
30
0
10
-178.88370595246306
20
19.008011330017808
30
0
10
-178.96293890503523
20
19.233066973774697
30
0
10
-179.03781431005243
20
19.44574530937463
30
4.9303806576313238e-31
10
-179.16870661011532
20
19.639022919101322
30
0
10
-179.29959891017828
20
19.832300528828021
30
0
0
SPLINE
5
133
100
AcDbEntity
8
0
100
AcDbSpline
70
0
71
3
72
11
73
7
74
0
42
0.000000001
43
0.0000000001
44
0.0000000001
40
0
40
0
40
0
40
0
40
0.071795371334655092
40
0.071795371334655092
40
0.071795371334655092
40
0.154109551359293
40
0.154109551359293
40
0.154109551359293
40
0.154109551359293
10
-179.29959891017828
20
19.832300528828021
30
0
10
-179.47624839582733
20
19.999390931268803
30
0
10
-179.65289788147641
20
20.166481333709584
30
0
10
-179.85709102866019
20
20.28469425824796
30
0
10
-180.09120070961353
20
20.420226671700284
30
0
10
-180.36151618601457
20
20.491510257352317
30
0
10
-180.63183166241566
20
20.562793843004354
30
0
0
LINE
5
134
100
AcDbEntity
8
0
100
AcDbLine
10
-180.63183166241561
20
20.562793843004354
30
0
11
-180.39790722892059
21
21.489135544160575
31
0
0
SPLINE
5
135
100
AcDbEntity
8
0
100
AcDbSpline
70
0
71
3
72
11
73
7
74
0
42
0.000000001
43
0.0000000001
44
0.0000000001
40
0
40
0
40
0
40
0
40
0.10851928775097092
40
0.10851928775097092
40
0.10851928775097092
40
0.20598684934969194
40
0.20598684934969194
40
0.20598684934969194
40
0.20598684934969194
10
-180.39790722892059
20
21.489135544160568
30
0
10
-180.04618619497788
20
21.38008217817805
30
-9.8607613152626476e-31
10
-179.69446516103517
20
21.271028812195535
30
0
10
-179.39217370867965
20
21.081528283317926
30
0
10
-179.12066795736251
20
20.911326701146152
30
0
10
-178.88903652397613
20
20.676229247981635
30
0
10
-178.65740509058975
20
20.441131794817107
30
0
0
SPLINE
5
136
100
AcDbEntity
8
0
100
AcDbSpline
70
0
71
3
72
11
73
7
74
0
42
0.000000001
43
0.0000000001
44
0.0000000001
40
0
40
0
40
0
40
0
40
0.09535408284228028
40
0.09535408284228028
40
0.09535408284228028
40
0.19738925471372171
40
0.19738925471372171
40
0.19738925471372171
40
0.19738925471372171
10
-178.65740509058975
20
20.441131794817107
30
0
10
-178.48266568060995
20
20.169044662155184
30
-9.8607613152626476e-31
10
-178.30792627063019
20
19.896957529493264
30
9.8607613152626476e-31
10
-178.20792596603673
20
19.600174794303001
30
0
10
-178.10091902976046
20
19.282597649298072
30
0
10
-178.07949146825874
20
18.936743015378457
30
-9.8607613152626476e-31
10
-178.05806390675696
20
18.590888381458846
30
0
0
SPLINE
5
137
100
AcDbEntity
8
0
100
AcDbSpline
70
0
71
3
72
11
73
7
74
0
42
0.000000001
43
0.0000000001
44
0.0000000001
40
0
40
0
40
0
40
0
40
0.10324527801545623
40
0.10324527801545623
40
0.10324527801545623
40
0.19174338453792689
40
0.19174338453792689
40
0.19174338453792689
40
0.19174338453792689
10
-178.05806390675696
20
18.590888381458846
30
0
10
-178.07060097894271
20
18.242107689657743
30
0
10
-178.08313805112849
20
17.89332699785664
30
9.8607613152626476e-31
10
-178.17320744292599
20
17.564876304654057
30
0
10
-178.25041165781042
20
17.283340286802758
30
4.9303806576313238e-31
10
-178.384581166126
20
17.016741321543464
30
0
10
-178.51875067444158
20
16.750142356284169
30
0
0
SPLINE
5
138
100
AcDbEntity
8
0
100
AcDbSpline
70
0
71
3
72
11
73
7
74
0
42
0.000000001
43
0.0000000001
44
0.0000000001
40
0
40
0
40
0
40
0
40
0.084137265301809663
40
0.084137265301809663
40
0.084137265301809663
40
0.17361336969441477
40
0.17361336969441477
40
0.17361336969441477
40
0.17361336969441477
10
-178.51875067444158
20
16.750142356284169
30
0
10
-178.69378437223082
20
16.5261444257557
30
9.8607613152626476e-31
10
-178.86881807002013
20
16.302146495227245
30
0
10
-179.08275435298751
20
16.12579644362782
30
0
10
-179.31026573120369
20
15.938256290403805
30
0
10
-179.58177337481371
20
15.804602754668508
30
0
10
-179.8532810184237
20
15.670949218933217
30
0
0
SPLINE
5
139
100
AcDbEntity
8
0
100
AcDbSpline
70
0
71
3
72
11
73
7
74
0
42
0.000000001
43
0.0000000001
44
0.0000000001
40
0
40
0
40
0
40
0
40
0.09475928061705971
40
0.09475928061705971
40
0.09475928061705971
40
0.1922490044582556
40
0.1922490044582556
40
0.1922490044582556
40
0.1922490044582556
10
-179.8532810184237
20
15.670949218933217
30
0
10
-180.15222554374159
20
15.56300801340184
30
0
10
-180.45117006905946
20
15.455066807870466
30
0
10
-180.75930437204818
20
15.39336353073165
30
0
10
-181.07631741719533
20
15.329882303255166
30
0
10
-181.40305746814283
20
15.31534204190211
30
0
10
-181.72979751909037
20
15.300801780549058
30
0
0
SPLINE
5
140
100
AcDbEntity
8
0
100
AcDbSpline
70
0
71
3
72
11
73
7
74
0
42
0.000000001
43
0.0000000001
44
0.0000000001
40
0
40
0
40
0
40
0
40
0.10289342019089084
40
0.10289342019089084
40
0.10289342019089084
40
0.19667839848683238
40
0.19667839848683238
40
0.19667839848683238
40
0.19667839848683238
10
-181.72979751909037
20
15.300801780549058
30
0
10
-182.07569688461047
20
15.314733400911019
30
0
10
-182.42159625013056
20
15.328665021272981
30
0
10
-182.75342156478928
20
15.405201999297478
30
0
10
-183.0558726824174
20
15.474963688718898
30
0
10
-183.34663121671508
20
15.596737294866632
30
0
10
-183.63738975101279
20
15.718510901014362
30
0
0
SPLINE
5
141
100
AcDbEntity
8
0
100
AcDbSpline
70
0
71
3
72
11
73
7
74
0
42
0.000000001
43
0.0000000001
44
0.0000000001
40
0
40
0
40
0
40
0
40
0.087702264509345415
40
0.087702264509345415
40
0.087702264509345415
40
0.17355750182960872
40
0.17355750182960872
40
0.17355750182960872
40
0.17355750182960872
10
-183.63738975101279
20
15.718510901014362
30
0
10
-183.89168697321526
20
15.871094988068501
30
0
10
-184.14598419541775
20
16.02367907512264
30
0
10
-184.35364924814712
20
16.224614714863907
30
0
10
-184.55694083343235
20
16.421318609941181
30
0
10
-184.71554373197134
20
16.664358916473077
30
-9.8607613152626476e-31
10
-184.8741466305103
20
16.907399223004976
30
0
0
SPLINE
5
142
100
AcDbEntity
8
0
100
AcDbSpline
70
0
71
3
72
11
73
7
74
0
42
0.000000001
43
0.0000000001
44
0.0000000001
40
0
40
0
40
0
40
0
40
0.086974357513681599
40
0.086974357513681599
40
0.086974357513681599
40
0.17635430074245984
40
0.17635430074245984
40
0.17635430074245984
40
0.17635430074245984
10
-184.8741466305103
20
16.907399223004976
30
0
10
-184.99740536007465
20
17.172959647121711
30
0
10
-185.12066408963898
20
17.43852007123844
30
0
10
-185.19112056046322
20
17.717326046459458
30
0
10
-185.2635257559989
20
18.003843394209671
30
0
10
-185.2801674301117
20
18.304349131668694
30
9.8607613152626476e-31
10
-185.29680910422454
20
18.60485486912772
30
0
0
SPLINE
5
143
100
AcDbEntity
8
0
100
AcDbSpline
70
0
71
3
72
11
73
7
74
0
42
0.000000001
43
0.0000000001
44
0.0000000001
40
0
40
0
40
0
40
0
40
0.097611617098775444
40
0.097611617098775444
40
0.097611617098775444
40
0.18708490235826059
40
0.18708490235826059
40
0.18708490235826059
40
0.18708490235826059
10
-185.29680910422454
20
18.60485486912772
30
0
10
-185.27868439961821
20
18.935367890282173
30
9.8607613152626476e-31
10
-185.26055969501189
20
19.265880911436625
30
0
10
-185.16315987145521
20
19.571778199161916
30
0
10
-185.07388072153094
20
19.852171415648144
30
0
10
-184.917994451727
20
20.111882441692373
30
4.9303806576313238e-31
10
-184.76210818192303
20
20.371593467736609
30
0
0
SPLINE
5
144
100
AcDbEntity
8
0
100
AcDbSpline
70
0
71
3
72
11
73
7
74
0
42
0.000000001
43
0.0000000001
44
0.0000000001
40
0
40
0
40
0
40
0
40
0.088496949361025853
40
0.088496949361025853
40
0.088496949361025853
40
0.18300268528081287
40
0.18300268528081287
40
0.18300268528081287
40
0.18300268528081287
10
-184.76210818192303
20
20.371593467736609
30
0
10
-184.56074665991227
20
20.593649599207726
30
9.8607613152626476e-31
10
-184.35938513790148
20
20.815705730678854
30
0
10
-184.11872101828345
20
20.979231507761892
30
0
10
-183.86171623000303
20
21.15386039629049
30
0
10
-183.55989049852982
20
21.261740880164218
30
0
10
-183.25806476705668
20
21.36962136403795
30
0
0
LINE
5
145
100
AcDbEntity
8
0
100
AcDbLine
10
-183.25806476705668
20
21.369621364037954
30
0
11
-183.04314964963163
21
20.457626663940999
31
0
0
SPLINE
5
146
100
AcDbEntity
8
0
100
AcDbSpline
70
0
71
3
72
11
73
7
74
0
42
0.000000001
43
0.0000000001
44
0.0000000001
40
0
40
0
40
0
40
0
40
0.072445311086734174
40
0.072445311086734174
40
0.072445311086734174
40
0.13338432716486726
40
0.13338432716486726
40
0.13338432716486726
40
0.13338432716486726
10
-183.04314964963163
20
20.457626663940999
30
0
10
-183.27425804695957
20
20.375057267348989
30
0
10
-183.50536644428752
20
20.292487870756982
30
0
10
-183.7032643648341
20
20.159162463831652
30
0
10
-183.86973068792824
20
20.047012774716247
30
0
10
-184.01269822520521
20
19.89894958084728
30
0
10
-184.15566576248222
20
19.750886386978308
30
0
0
SPLINE
5
147
100
AcDbEntity
8
0
100
AcDbSpline
70
0
71
3
72
11
73
7
74
0
42
0.000000001
43
0.0000000001
44
0.0000000001
40
0
40
0
40
0
40
0
40
0.058456544476194576
40
0.058456544476194576
40
0.058456544476194576
40
0.12326738988770361
40
0.12326738988770361
40
0.12326738988770361
40
0.12326738988770361
10
-184.15566576248222
20
19.750886386978308
30
0
10
-184.25724936310553
20
19.581055764329133
30
0
10
-184.35883296372879
20
19.411225141679953
30
0
10
-184.41706525845959
20
19.2280220819043
30
0
10
-184.48162747789235
20
19.024904615888659
30
0
10
-184.49290146934703
20
18.805349502527775
30
0
10
-184.50417546080178
20
18.585794389166892
30
0
0
SPLINE
5
148
100
AcDbEntity
8
0
100
AcDbSpline
70
0
71
3
72
11
73
7
74
0
42
0.000000001
43
0.0000000001
44
0.0000000001
40
0
40
0
40
0
40
0
40
0.074699044908242404
40
0.074699044908242404
40
0.074699044908242404
40
0.14208255736858139
40
0.14208255736858139
40
0.14208255736858139
40
0.14208255736858139
10
-184.50417546080178
20
18.585794389166892
30
0
10
-184.49163680405715
20
18.333068307191624
30
0
10
-184.47909814731247
20
18.080342225216349
30
0
10
-184.40744695125068
20
17.845093124010244
30
0
10
-184.34281280139567
20
17.632882770291843
30
4.9303806576313238e-31
10
-184.23007735211343
20
17.434893857485513
30
9.8607613152626476e-31
10
-184.11734190283119
20
17.236904944679175
30
0
0
SPLINE
5
149
100
AcDbEntity
8
0
100
AcDbSpline
70
0
71
3
72
11
73
7
74
0
42
0.000000001
43
0.0000000001
44
0.0000000001
40
0
40
0
40
0
40
0
40
0.064660032628997471
40
0.064660032628997471
40
0.064660032628997471
40
0.13046037935984678
40
0.13046037935984678
40
0.13046037935984678
40
0.13046037935984678
10
-184.11734190283119
20
17.236904944679175
30
0
10
-183.97643475284377
20
17.069378623828388
30
0
10
-183.83552760285627
20
16.901852302977595
30
0
10
-183.66430081859056
20
16.775552831222029
30
0
10
-183.49005435881935
20
16.647026001037407
30
0
10
-183.28440942921299
20
16.561192956860733
30
0
10
-183.07876449960659
20
16.475359912684056
30
0
0
SPLINE
5
150
100
AcDbEntity
8
0
100
AcDbSpline
70
0
71
3
72
11
73
7
74
0
42
0.000000001
43
0.0000000001
44
0.0000000001
40
0
40
0
40
0
40
0
40
0.068211155464526302
40
0.068211155464526302
40
0.068211155464526302
40
0.13665312026504034
40
0.13665312026504034
40
0.13665312026504034
40
0.13665312026504034
10
-183.07876449960659
20
16.475359912684056
30
0
10
-182.85961793137312
20
16.411307600837375
30
0
10
-182.64047136313962
20
16.347255288990695
30
0
10
-182.41683573946852
20
16.310658694264639
30
0
10
-182.19244338928468
20
16.273938265897726
30
0
10
-181.96353155260326
20
16.264859675448221
30
4.9303806576313238e-31
10
-181.73461971592178
20
16.255781084998723
30
0
0
SPLINE
5
151
100
AcDbEntity
8
0
100
AcDbSpline
70
0
71
3
72
11
73
7
74
0
42
0.000000001
43
0.0000000001
44
0.0000000001
40
0
40
0
40
0
40
0
40
0.083873067510826349
40
0.083873067510826349
40
0.083873067510826349
40
0.1587418546051523
40
0.1587418546051523
40
0.1587418546051523
40
0.1587418546051523
10
-181.73461971592178
20
16.255781084998723
30
0
10
-181.45355426586144
20
16.263955832058748
30
0
10
-181.17248881580105
20
16.272130579118784
30
0
10
-180.89841924278056
20
16.320880350566654
30
0
10
-180.65377269388861
20
16.364396539585936
30
0
10
-180.41470055243883
20
16.440243445201006
30
0
10
-180.17562841098908
20
16.516090350816075
30
0
0
SPLINE
5
152
100
AcDbEntity
8
0
100
AcDbSpline
70
0
71
3
72
11
73
7
74
0
42
0.000000001
43
0.0000000001
44
0.0000000001
40
0
40
0
40
0
40
0
40
0.067020818789436526
40
0.067020818789436526
40
0.067020818789436526
40
0.13014871750787044
40
0.13014871750787044
40
0.13014871750787044
40
0.13014871750787044
10
-180.17562841098908
20
16.516090350816075
30
0
10
-179.969396437635
20
16.611997119959277
30
9.8607613152626476e-31
10
-179.76316446428092
20
16.707903889102479
30
0
10
-179.59370445460314
20
16.848571225017555
30
0
10
-179.43408756956671
20
16.981067865539625
30
0
10
-179.30709489656658
20
17.153276234107725
30
0
10
-179.18010222356645
20
17.325484602675829
30
0
0
SPLINE
5
153
100
AcDbEntity
8
0
100
AcDbSpline
70
0
71
3
72
11
73
7
74
0
42
0.000000001
43
0.0000000001
44
0.0000000001
40
0
40
0
40
0
40
0
40
0.062290230122516381
40
0.062290230122516381
40
0.062290230122516381
40
0.12455304395443478
40
0.12455304395443478
40
0.12455304395443478
40
0.12455304395443478
10
-179.18010222356645
20
17.325484602675829
30
0
10
-179.0840165147635
20
17.512283677154297
30
0
10
-178.98793080596056
20
17.699082751632762
30
0
10
-178.93302933832049
20
17.897290766285149
30
0
10
-178.87815203489669
20
18.095411542079731
30
0
10
-178.86442272712384
20
18.304931217244626
30
0
10
-178.85069341935096
20
18.514450892409513
30
0
0
LINE
5
154
100
AcDbEntity
8
0
100
AcDbLine
10
-184.35171370355076
20
25.347055652586334
30
0
11
-184.35162490109673
21
23.556470075312266
31
0
0
LINE
5
155
100
AcDbEntity
8
0
100
AcDbLine
10
-184.35162490109673
20
23.556470075312266
30
0
11
-181.84957876350595
21
23.556593795573917
31
0
0
LINE
5
156
100
AcDbEntity
8
0
100
AcDbLine
10
-181.84957876350595
20
23.556593795573917
30
0
11
-181.84966842542795
21
25.36627920970178
31
0
0
SPLINE
5
157
100
AcDbEntity
8
0
100
AcDbSpline
70
0
71
3
72
11
73
7
74
0
42
0.000000001
43
0.0000000001
44
0.0000000001
40
0
40
0
40
0
40
0
40
0.077209980760615679
40
0.077209980760615679
40
0.077209980760615679
40
0.13379870221834253
40
0.13379870221834253
40
0.13379870221834253
40
0.13379870221834253
10
-181.84966833773603
20
25.366279209706125
30
0
10
-181.85267614046725
20
25.62938152169815
30
0
10
-181.85568394319853
20
25.892483833690175
30
4.9303806576313238e-31
10
-181.93326727349012
20
26.133839872701266
30
0
10
-181.99012963020078
20
26.310734485666977
30
0
10
-182.08705182682115
20
26.475947622916078
30
0
10
-182.18397402344158
20
26.641160760165189
30
0
0
SPLINE
5
158
100
AcDbEntity
8
0
100
AcDbSpline
70
0
71
3
72
11
73
7
74
0
42
0.000000001
43
0.0000000001
44
0.0000000001
40
0
40
0
40
0
40
0
40
0.049180667112726312
40
0.049180667112726312
40
0.049180667112726312
40
0.10383737132717667
40
0.10383737132717667
40
0.10383737132717667
40
0.10383737132717667
10
-182.18397402344158
20
26.641160760165189
30
0
10
-182.31158992427837
20
26.751093817366023
30
0
10
-182.43920582511515
20
26.86102687456685
30
0
10
-182.58627288702223
20
26.924055496123174
30
0
10
-182.74971517795171
20
26.994102059695653
30
-9.8607613152626476e-31
10
-182.93718137266643
20
27.006217497976948
30
0
10
-183.1246475673812
20
27.018332936258254
30
0
0
SPLINE
5
159
100
AcDbEntity
8
0
100
AcDbSpline
70
0
71
3
72
11
73
7
74
0
42
0.000000001
43
0.0000000001
44
0.0000000001
40
0
40
0
40
0
40
0
40
0.041141824470904885
40
0.041141824470904885
40
0.041141824470904885
40
0.079395596219272863
40
0.079395596219272863
40
0.079395596219272863
40
0.079395596219272863
10
-183.1246475673812
20
27.018332936258254
30
0
10
-183.26375114647362
20
27.010496936877765
30
0
10
-183.40285472556602
20
27.002660937497271
30
4.9303806576313238e-31
10
-183.53230125056291
20
26.962804143006629
30
0
10
-183.65266095469693
20
26.925745195362119
30
0
10
-183.76467181966731
20
26.861003222892151
30
0
10
-183.8766826846377
20
26.796261250422177
30
0
0
SPLINE
5
160
100
AcDbEntity
8
0
100
AcDbSpline
70
0
71
3
72
11
73
7
74
0
42
0.000000001
43
0.0000000001
44
0.0000000001
40
0
40
0
40
0
40
0
40
0.036549420708375066
40
0.036549420708375066
40
0.036549420708375066
40
0.072729848254199952
40
0.072729848254199952
40
0.072729848254199952
40
0.072729848254199952
10
-183.8766826846377
20
26.796261250422177
30
0
10
-183.97199101064356
20
26.716686648998365
30
0
10
-184.0672993366494
20
26.637112047574561
30
0
10
-184.13630480376605
20
26.539001896414973
30
0
10
-184.20461361016811
20
26.441882239064938
30
0
10
-184.24714797003088
20
26.326599402656932
30
0
10
-184.28968232989362
20
26.211316566248932
30
0
0
SPLINE
5
161
100
AcDbEntity
8
0
100
AcDbSpline
70
0
71
3
72
11
73
7
74
0
42
0.000000001
43
0.0000000001
44
0.0000000001
40
0
40
0
40
0
40
0
40
0.033628743615128472
40
0.033628743615128472
40
0.033628743615128472
40
0.086772258323820739
40
0.086772258323820739
40
0.086772258323820739
40
0.086772258323820739
10
-184.28968232989362
20
26.211316566248932
30
0
10
-184.30756811829397
20
26.10049913913198
30
0
10
-184.32545390669432
20
25.989681712015042
30
0
10
-184.33622124474715
20
25.878264953509145
30
0
10
-184.35323687264966
20
25.702193013022217
30
0
10
-184.35247524469747
20
25.524624332806425
30
4.9303806576313238e-31
10
-184.35171361674526
20
25.34705565259063
30
0
0
SPLINE
5
162
100
AcDbEntity
8
0
100
AcDbSpline
70
0
71
3
72
11
73
7
74
0
42
0.000000001
43
0.0000000001
44
0.0000000001
40
0.15069191991256742
40
0.15069191991256742
40
0.15069191991256742
40
0.15069191991256742
40
0.23808532383713926
40
0.23808532383713926
40
0.23808532383713926
40
0.30138383982514705
40
0.30138383982514705
40
0.30138383982514705
40
0.30138383982514705
10
-441
20
100.17690999453998
30
0
10
-441
20
100.46822135097577
30
0
10
-440.85294032191075
20
100.77978852861328
30
0
10
-440.61522460109848
20
100.96539261830385
30
0
10
-440.4430485365591
20
101.09982454235222
30
0
10
-440.22098785536707
20
101.17717688781541
30
0
10
-440
20
101.17717688781539
30
0
0
SPLINE
5
163
100
AcDbEntity
8
0
100
AcDbSpline
70
0
71
3
72
11
73
7
74
0
42
0.000000001
43
0.0000000001
44
0.0000000001
40
0.15069191991256098
40
0.15069191991256098
40
0.15069191991256098
40
0.15069191991256098
40
0.23808532383712333
40
0.23808532383712333
40
0.23808532383712333
40
0.30138383982513117
40
0.30138383982513117
40
0.30138383982513117
40
0.30138383982513117
10
-441
20
54.362017129688851
30
0
10
-441
20
54.653328486124629
30
4.9303806576313238e-31
10
-440.85294032191064
20
54.964895663762086
30
0
10
-440.61522460109842
20
55.150499753452692
30
0
10
-440.44304853655899
20
55.28493167750112
30
0
10
-440.22098785536684
20
55.362284022964275
30
0
10
-439.99999999999989
20
55.362284022964246
30
0
0
SPLINE
5
164
100
AcDbEntity
8
0
100
AcDbSpline
70
0
71
3
72
11
73
7
74
0
42
0.000000001
43
0.0000000001
44
0.0000000001
40
0.15069191991256745
40
0.15069191991256745
40
0.15069191991256745
40
0.15069191991256745
40
0.23808532383797126
40
0.23808532383797126
40
0.23808532383797126
40
0.30138383982514255
40
0.30138383982514255
40
0.30138383982514255
40
0.30138383982514255
10
-440.99999999999994
20
2.002139569858961
30
0
10
-440.99999999999994
20
2.2934509262975196
30
0
10
-440.85294032190825
20
2.60501810393745
30
0
10
-440.6152246010916
20
2.7906221936281561
30
0
10
-440.44304853655291
20
2.9250541176735867
30
0
10
-440.220987855364
20
3.0024064631343883
30
0
10
-440
20
3.0024064631343705
30
0
0
SPLINE
5
165
100
AcDbEntity
8
0
100
AcDbSpline
70
0
71
3
72
17
73
13
74
0
42
0.000000001
43
0.0000000001
44
0.0000000001
40
0.45207575973771269
40
0.45207575973771269
40
0.45207575973771269
40
0.45207575973771269
40
0.53946916366130981
40
0.53946916366130981
40
0.53946916366130981
40
0.65531220853858196
40
0.65531220853858196
40
0.65531220853858196
40
0.74843422791657843
40
0.74843422791657843
40
0.74843422791657843
40
0.75345959956285768
40
0.75345959956285768
40
0.75345959956285768
40
0.75345959956285768
10
-439
20
100.17690999453998
30
0
10
-439
20
99.885598638107467
30
0
10
-439.14705967808629
20
99.57403146047298
30
0
10
-439.38477539889368
20
99.38842737078231
30
0
10
-439.69987598632019
20
99.142402591724164
30
0
10
-440.17606174574473
20
99.111460746190843
30
0
10
-440.52289765072379
20
99.324349247960484
30
0
10
-440.8017064467
20
99.495482587973655
30
0
10
-440.98273174301943
20
99.811120955299799
30
0
10
-440.99871607205955
20
100.12625221035172
30
0
10
-440.99957867356324
20
100.14325841022338
30
0
10
-441
20
100.16015875514285
30
0
10
-441
20
100.17690999453998
30
0
0
SPLINE
5
166
100
AcDbEntity
8
0
100
AcDbSpline
70
0
71
3
72
17
73
13
74
0
42
0.000000001
43
0.0000000001
44
0.0000000001
40
0.45207575973769132
40
0.45207575973769132
40
0.45207575973769132
40
0.45207575973769132
40
0.53946916366256747
40
0.53946916366256747
40
0.53946916366256747
40
0.65531220853786554
40
0.65531220853786554
40
0.65531220853786554
40
0.74843422791617975
40
0.74843422791617975
40
0.74843422791617975
40
0.75345959956282238
40
0.75345959956282238
40
0.75345959956282238
40
0.75345959956282238
10
-439
20
54.362017129688851
30
0
10
-439
20
54.07070577325203
30
0
10
-439.14705967809016
20
53.759138595613713
30
0
10
-439.38477539890414
20
53.573534505922993
30
0
10
-439.6998759863294
20
53.327509726872577
30
0
10
-440.17606174574297
20
53.296567881342021
30
0
10
-440.52289765071777
20
53.509456383105594
30
0
10
-440.80170644669624
20
53.680589723117407
30
0
10
-440.98273174301789
20
53.996228090443559
30
0
10
-440.99871607205927
20
54.311359345496911
30
0
10
-440.99957867356306
20
54.32836554536982
30
0
10
-441
20
54.345265890290506
30
0
10
-441
20
54.362017129688866
30
0
0
SPLINE
5
167
100
AcDbEntity
8
0
100
AcDbSpline
70
0
71
3
72
17
73
13
74
0
42
0.000000001
43
0.0000000001
44
0.0000000001
40
0.4520757597377123
40
0.4520757597377123
40
0.4520757597377123
40
0.4520757597377123
40
0.53946916366185982
40
0.53946916366185982
40
0.53946916366185982
40
0.65531220853731398
40
0.65531220853731398
40
0.65531220853731398
40
0.74843422791573688
40
0.74843422791573688
40
0.74843422791573688
40
0.75345959956285735
40
0.75345959956285735
40
0.75345959956285735
40
0.75345959956285735
10
-439
20
2.002139569858965
30
0
10
-439
20
1.7108282134245945
30
0
10
-439.14705967808794
20
1.3992610357884725
30
0
10
-439.38477539889817
20
1.2136569460977524
30
0
10
-439.6998759863215
20
0.96763216704495969
30
0
10
-440.17606174573518
20
0.93669032151026932
30
0
10
-440.52289765071248
20
1.1495788232724471
30
0
10
-440.80170644669295
20
1.3207121632831045
30
0
10
-440.98273174301607
20
1.6363505306081922
30
0
10
-440.99871607205904
20
1.9514817856621698
30
0
10
-440.99957867356301
20
1.9684879855367043
30
0
10
-441
20
1.9853883304590196
30
0
10
-441
20
2.002139569858965
30
0
0
SPLINE
5
168
100
AcDbEntity
8
0
100
AcDbSpline
70
0
71
3
72
8
73
4
74
0
42
0.000000001
43
0.0000000001
44
0.0000000001
40
-1.6830318170435252
40
-1.6830318170435252
40
-1.6830318170435252
40
-1.6830318170435252
40
-1.4585608365353961
40
-1.4585608365353961
40
-1.4585608365353961
40
-1.4585608365353961
10
-46.022951030517589
20
97.371022738188373
30
0
10
-46.019801299258859
20
99.241614242422784
30
0
10
-46.016611690505123
20
101.11220574665721
30
0
10
-46.013461959246399
20
102.98279725089161
30
0
0
ENDSEC
0
SECTION
2
OBJECTS
0
DICTIONARY
5
C
100
AcDbDictionary
3
ACAD_GROUP
350
D
3
ACAD_MLINESTYLE
350
17
0
DICTIONARY
5
D
100
AcDbDictionary
0
DICTIONARY
5
1A
330
C
100
AcDbDictionary
0
DICTIONARY
5
17
100
AcDbDictionary
0
ENDSEC
0
EOF
