0
SECTION
2
HEADER
9
$INSUNITS
70
4
9
$ACADVER
1
AC1014
9
$HANDSEED
5
FFFF
0
ENDSEC
0
SECTION
2
TABLES
0
TABLE
2
VPORT
5
8
100
AcDbSymbolTable
0
ENDTAB
0
TABLE
2
LTYPE
5
5
100
AcDbSymbolTable
70
3
0
LTYPE
5
14
100
AcDbSymbolTableRecord
100
AcDbLinetypeTableRecord
2
BYBLOCK
70
0
0
LTYPE
5
15
100
AcDbSymbolTableRecord
100
AcDbLinetypeTableRecord
2
BYLAYER
70
0
0
LTYPE
5
16
100
AcDbSymbolTableRecord
100
AcDbLinetypeTableRecord
2
DASHED
70
0
3
Dashed __ __ __ __ __ __ __ __ __ __ __ __ __ _
72
65
73
2
40
0.75
49
0.5
74
0
49
-0.25
74
0
0
ENDTAB
0
TABLE
2
LAYER
5
2
100
AcDbSymbolTable
70
3
0
LAYER
5
50
100
AcDbSymbolTableRecord
100
AcDbLayerTableRecord
2
0
70
0
6
CONTINUOUS
0
LAYER
5
51
100
AcDbSymbolTableRecord
100
AcDbLayerTableRecord
2
PERIMETER D 6.0
70
0
62
5
6
CONTINUOUS
0
LAYER
5
52
100
AcDbSymbolTableRecord
100
AcDbLayerTableRecord
2
HOLES DIAM 41.4 D 6.0
70
0
62
5
6
CONTINUOUS
0
ENDTAB
0
TABLE
2
STYLE
5
3
100
AcDbSymbolTable
70
1
0
STYLE
5
11
100
AcDbSymbolTableRecord
100
AcDbTextStyleTableRecord
2
STANDARD
70
0
0
ENDTAB
0
TABLE
2
VIEW
5
6
100
AcDbSymbolTable
0
ENDTAB
0
TABLE
2
UCS
5
7
100
AcDbSymbolTable
0
ENDTAB
0
TABLE
2
APPID
5
9
100
AcDbSymbolTable
70
1
0
APPID
5
12
100
AcDbSymbolTableRecord
100
AcDbRegAppTableRecord
2
ACAD
70
0
0
ENDTAB
0
TABLE
2
DIMSTYLE
5
A
100
AcDbSymbolTable
0
ENDTAB
0
TABLE
2
BLOCK_RECORD
5
1
100
AcDbSymbolTable
70
2
0
BLOCK_RECORD
5
1F
100
AcDbSymbolTableRecord
100
AcDbBlockTableRecord
2
*MODEL_SPACE
0
BLOCK_RECORD
5
1B
100
AcDbSymbolTableRecord
100
AcDbBlockTableRecord
2
*PAPER_SPACE
0
ENDTAB
0
ENDSEC
0
SECTION
2
BLOCKS
0
BLOCK
5
20
100
AcDbEntity
100
AcDbBlockBegin
2
*MODEL_SPACE
0
ENDBLK
5
21
100
AcDbEntity
100
AcDbBlockEnd
0
BLOCK
5
1C
100
AcDbEntity
100
AcDbBlockBegin
2
*PAPER_SPACE
0
ENDBLK
5
1D
100
AcDbEntity
100
AcDbBlockEnd
0
ENDSEC
0
SECTION
2
ENTITIES
0
LWPOLYLINE
5
100
100
AcDbEntity
8
PERIMETER D 6.0
100
AcDbPolyline
90
25
70
1
43
0.0
10
58.28519778708629
20
-167.74999999999966
42
0.18764375279285267
10
66.427679560720321
20
-164.58270738941863
10
183.08154216735917
20
-57.650000000000013
10
137.00300207374056
20
-57.650000000000013
10
137.00300207374056
20
-41.399999999999999
42
0.41421356237308266
10
135.95300207374055
20
-40.349999999999973
10
127.95300207374049
20
-40.349999999999994
42
0.4142135623730876
10
126.9030020737405
20
-41.399999999999999
10
126.90300207374051
20
-49.000000000000021
10
121.00300207374053
20
-48.999999999999993
10
121.00300207374055
20
-41.400000000000006
42
0.41421356237309503
10
119.95300207374052
20
-40.349999999999994
10
45.953002073740521
20
-40.350000000000009
42
0.41421356237309503
10
44.903002073740524
20
-41.400000000000006
10
44.903002073740524
20
-49.000000000000561
10
39.003002073740518
20
-49.000000000000611
10
39.003002073740525
20
-41.400000000000013
42
0.41421356237309503
10
37.953002073740528
20
-40.350000000000009
10
29.953002073740524
20
-40.350000000000023
42
0.41421356237308887
10
28.903002073740524
20
-41.40000000000002
10
28.90300207374052
20
-57.649999999999693
10
15.832291395621866
20
-57.649999999999658
10
34.893949542737943
20
-76.711658147115742
10
1.5347965393793805
20
-156.5980508656848
42
0.53543464688154585
10
8.9631484136596651
20
-167.74999999999966
0
LWPOLYLINE
5
101
100
AcDbEntity
8
PERIMETER D 6.0
100
AcDbPolyline
90
25
70
1
43
0.0
10
241.27519778708631
20
-167.74999999999966
42
0.18764375279285295
10
249.41767956072033
20
-164.58270738941863
10
366.07154216735921
20
-57.650000000000013
10
319.99300207374051
20
-57.650000000000013
10
319.99300207374051
20
-41.399999999999999
42
0.41421356237310747
10
318.9430020737405
20
-40.350000000000009
10
310.94300207374044
20
-40.349999999999994
42
0.41421356237308515
10
309.89300207374049
20
-41.399999999999999
10
309.89300207374055
20
-49.000000000000021
10
303.99300207374051
20
-48.999999999999993
10
303.99300207374051
20
-41.400000000000006
42
0.41421356237310497
10
302.9430020737405
20
-40.35000000000003
10
228.9430020737405
20
-40.350000000000009
42
0.41421356237310497
10
227.89300207374049
20
-41.400000000000006
10
227.89300207374052
20
-49.000000000000561
10
221.99300207374051
20
-49.000000000000611
10
221.99300207374051
20
-41.400000000000013
42
0.41421356237307771
10
220.9430020737405
20
-40.349999999999994
10
212.9430020737405
20
-40.350000000000023
42
0.41421356237306034
10
211.89300207374055
20
-41.400000000000013
10
211.89300207374055
20
-57.649999999999693
10
198.82229139562185
20
-57.64999999999965
10
217.88394954273795
20
-76.711658147115742
10
184.52479653937939
20
-156.5980508656848
42
0.53543464688154563
10
191.95314841365968
20
-167.74999999999966
0
LWPOLYLINE
5
102
100
AcDbEntity
8
PERIMETER D 6.0
100
AcDbPolyline
90
25
70
1
43
0.0
10
58.28519778708629
20
-296.04999999999967
42
0.18764375279285281
10
66.427679560720293
20
-292.88270738941867
10
183.08154216735917
20
-185.95000000000005
10
137.00300207374053
20
-185.95000000000005
10
137.00300207374053
20
-169.70000000000002
42
0.41421356237307527
10
135.95300207374052
20
-168.65000000000003
10
127.95300207374048
20
-168.65000000000003
42
0.41421356237308515
10
126.90300207374045
20
-169.69999999999999
10
126.9030020737405
20
-177.30000000000007
10
121.00300207374053
20
-177.30000000000004
10
121.00300207374053
20
-169.70000000000005
42
0.41421356237308515
10
119.95300207374051
20
-168.65000000000003
10
45.953002073740514
20
-168.65000000000006
42
0.41421356237310747
10
44.903002073740524
20
-169.70000000000005
10
44.903002073740524
20
-177.30000000000061
10
39.003002073740518
20
-177.30000000000064
10
39.003002073740518
20
-169.70000000000005
42
0.41421356237310619
10
37.953002073740521
20
-168.65000000000003
10
29.953002073740514
20
-168.65000000000006
42
0.41421356237310375
10
28.903002073740542
20
-169.70000000000005
10
28.90300207374051
20
-185.94999999999973
10
15.832291395621873
20
-185.9499999999997
10
34.893949542737928
20
-205.01165814711572
10
1.534796539379375
20
-284.89805086568487
42
0.53543464688154496
10
8.9631484136596651
20
-296.04999999999967
0
LWPOLYLINE
5
103
100
AcDbEntity
8
PERIMETER D 6.0
100
AcDbPolyline
90
25
70
1
43
0.0
10
308.65780428665425
20
-168.65000000000003
42
0.18764375279285264
10
300.51532251302024
20
-171.81729261058106
10
183.86145990638138
20
-278.74999999999966
10
229.94000000000003
20
-278.74999999999966
10
229.94000000000003
20
-294.99999999999966
42
0.41421356237307527
10
230.99000000000004
20
-296.04999999999967
10
238.99000000000007
20
-296.04999999999967
42
0.41421356237310497
10
240.04000000000005
20
-294.99999999999966
10
240.04000000000002
20
-287.39999999999964
10
245.94000000000005
20
-287.39999999999964
10
245.94000000000005
20
-294.99999999999966
42
0.41421356237308515
10
246.99000000000007
20
-296.04999999999967
10
320.99000000000001
20
-296.04999999999967
42
0.4142135623730257
10
322.04000000000002
20
-294.99999999999966
10
322.04000000000008
20
-287.39999999999907
10
327.94000000000005
20
-287.39999999999907
10
327.94000000000005
20
-294.99999999999966
42
0.41421356237310497
10
328.99000000000001
20
-296.04999999999961
10
336.99000000000007
20
-296.04999999999967
42
0.41421356237313472
10
338.04000000000008
20
-294.99999999999966
10
338.04000000000008
20
-278.74999999999994
10
351.11071067811872
20
-278.75000000000006
10
332.04905253100259
20
-259.68834185288392
10
365.40820553436117
20
-179.80194913431487
42
0.53543464688154774
10
357.97985366008083
20
-168.65000000000003
0
LWPOLYLINE
5
104
100
AcDbEntity
8
PERIMETER D 6.0
100
AcDbPolyline
90
16
70
1
43
0.0
10
8.4822111593031853
20
-519.09421115929399
10
8.4822111593163392
20
-524.89421115931702
10
0.94588080557925558
20
-524.89421115931088
42
0.36902574401104415
10
34.982211159310943
20
-558.93054151304261
10
34.982211159310935
20
-551.394211159311
10
40.78221115931094
20
-551.394211159311
10
40.782211159310918
20
-558.93054151304261
42
0.36902574401104371
10
74.818541513042604
20
-524.894211159311
10
67.282211159327389
20
-524.894211159311
10
67.282211159316105
20
-519.09421115931139
10
74.818541513042604
20
-519.09421115931093
42
0.3690257440110446
10
40.782211159310798
20
-485.05788080557926
10
40.782211159327929
20
-492.59421115929632
10
34.982211159304867
20
-492.59421115931718
10
34.982211159310985
20
-485.05788080557926
42
0.36902574401104499
10
0.94588080557926446
20
-519.09421115931104
0
LWPOLYLINE
5
105
100
AcDbEntity
8
PERIMETER D 6.0
100
AcDbPolyline
90
16
70
1
43
0.0
10
8.4822111593031853
20
-593.858211159294
10
8.4822111593163392
20
-599.65821115931692
10
0.94588080557925558
20
-599.65821115931089
42
0.36902574401104415
10
34.982211159310943
20
-633.69454151304262
10
34.982211159310935
20
-626.15821115931101
10
40.78221115931094
20
-626.15821115931101
10
40.782211159310918
20
-633.69454151304262
42
0.36902574401104371
10
74.818541513042604
20
-599.65821115931089
10
67.282211159327389
20
-599.65821115931089
10
67.282211159316105
20
-593.8582111593114
10
74.818541513042604
20
-593.85821115931094
42
0.3690257440110446
10
40.782211159310798
20
-559.82188080557921
10
40.782211159327929
20
-567.35821115929627
10
34.982211159304867
20
-567.35821115931708
10
34.982211159310985
20
-559.82188080557921
42
0.36902574401104499
10
0.94588080557926446
20
-593.85821115931105
0
CIRCLE
5
106
100
AcDbEntity
8
HOLES DIAM 41.4 D 6.0
100
AcDbCircle
10
37.882211159310934
20
-521.99421115931091
30
0
40
20.649999999999999
210
0
220
-0
230
1
0
CIRCLE
5
107
100
AcDbEntity
8
HOLES DIAM 41.4 D 6.0
100
AcDbCircle
10
37.882211159310934
20
-596.75821115931092
30
0
40
20.649999999999999
210
0
220
-0
230
1
0
ENDSEC
0
SECTION
2
OBJECTS
0
DICTIONARY
5
C
100
AcDbDictionary
3
ACAD_GROUP
350
D
3
ACAD_MLINESTYLE
350
17
0
DICTIONARY
5
D
100
AcDbDictionary
0
DICTIONARY
5
1A
330
C
100
AcDbDictionary
0
DICTIONARY
5
17
100
AcDbDictionary
0
ENDSEC
0
EOF
