  0
SECTION
  2
HEADER
  9
$ACADVER
  1
AC1014
  9
$ACADMAINTVER
 70
     9
  9
$DWGCODEPAGE
  3
ANSI_1252
  9
$INSBASE
 10
0.0
 20
0.0
 30
0.0
  9
$EXTMIN
 10
0.0
 20
-300.0
 30
0.0
  9
$EXTMAX
 10
600.0
 20
-0.0000000000001137
 30
0.0
  9
$LIMMIN
 10
0.0
 20
0.0
  9
$LIMMAX
 10
12.0
 20
9.0
  9
$ORTHOMODE
 70
     0
  9
$REGENMODE
 70
     1
  9
$FILLMODE
 70
     1
  9
$QTEXTMODE
 70
     0
  9
$MIRRTEXT
 70
     1
  9
$DRAGMODE
 70
     2
  9
$LTSCALE
 40
1.0
  9
$OSMODE
 70
    37
  9
$ATTMODE
 70
     1
  9
$TEXTSIZE
 40
0.2
  9
$TRACEWID
 40
0.05
  9
$TEXTSTYLE
  7
STANDARD
  9
$CLAYER
  8
0
  9
$CELTYPE
  6
BYLAYER
  9
$CECOLOR
 62
   256
  9
$CELTSCALE
 40
1.0
  9
$DELOBJ
 70
     1
  9
$DISPSILH
 70
     0
  9
$DIMSCALE
 40
1.0
  9
$DIMASZ
 40
0.18
  9
$DIMEXO
 40
0.0625
  9
$DIMDLI
 40
0.38
  9
$DIMRND
 40
0.0
  9
$DIMDLE
 40
0.0
  9
$DIMEXE
 40
0.18
  9
$DIMTP
 40
0.0
  9
$DIMTM
 40
0.0
  9
$DIMTXT
 40
0.18
  9
$DIMCEN
 40
0.09
  9
$DIMTSZ
 40
0.0
  9
$DIMTOL
 70
     0
  9
$DIMLIM
 70
     0
  9
$DIMTIH
 70
     1
  9
$DIMTOH
 70
     1
  9
$DIMSE1
 70
     0
  9
$DIMSE2
 70
     0
  9
$DIMTAD
 70
     0
  9
$DIMZIN
 70
     0
  9
$DIMBLK
  1

  9
$DIMASO
 70
     1
  9
$DIMSHO
 70
     1
  9
$DIMPOST
  1

  9
$DIMAPOST
  1

  9
$DIMALT
 70
     0
  9
$DIMALTD
 70
     2
  9
$DIMALTF
 40
25.4
  9
$DIMLFAC
 40
1.0
  9
$DIMTOFL
 70
     0
  9
$DIMTVP
 40
0.0
  9
$DIMTIX
 70
     0
  9
$DIMSOXD
 70
     0
  9
$DIMSAH
 70
     0
  9
$DIMBLK1
  1

  9
$DIMBLK2
  1

  9
$DIMSTYLE
  2
STANDARD
  9
$DIMCLRD
 70
     0
  9
$DIMCLRE
 70
     0
  9
$DIMCLRT
 70
     0
  9
$DIMTFAC
 40
1.0
  9
$DIMGAP
 40
0.09
  9
$DIMJUST
 70
     0
  9
$DIMSD1
 70
     0
  9
$DIMSD2
 70
     0
  9
$DIMTOLJ
 70
     1
  9
$DIMTZIN
 70
     0
  9
$DIMALTZ
 70
     0
  9
$DIMALTTZ
 70
     0
  9
$DIMFIT
 70
     3
  9
$DIMUPT
 70
     0
  9
$DIMUNIT
 70
     2
  9
$DIMDEC
 70
     4
  9
$DIMTDEC
 70
     4
  9
$DIMALTU
 70
     2
  9
$DIMALTTD
 70
     2
  9
$DIMTXSTY
  7
STANDARD
  9
$DIMAUNIT
 70
     0
  9
$LUNITS
 70
     2
  9
$LUPREC
 70
     4
  9
$SKETCHINC
 40
0.1
  9
$FILLETRAD
 40
0.0
  9
$AUNITS
 70
     0
  9
$AUPREC
 70
     0
  9
$MENU
  1
.
  9
$ELEVATION
 40
0.0
  9
$PELEVATION
 40
0.0
  9
$THICKNESS
 40
0.0
  9
$LIMCHECK
 70
     0
  9
$CHAMFERA
 40
0.0
  9
$CHAMFERB
 40
0.0
  9
$CHAMFERC
 40
0.0
  9
$CHAMFERD
 40
0.0
  9
$SKPOLY
 70
     0
  9
$TDCREATE
 40
2460389.861587349
  9
$TDUPDATE
 40
2460389.861587592
  9
$TDINDWG
 40
0.0000000116
  9
$TDUSRTIMER
 40
0.0000000116
  9
$USRTIMER
 70
     1
  9
$ANGBASE
 50
0.0
  9
$ANGDIR
 70
     0
  9
$PDMODE
 70
     0
  9
$PDSIZE
 40
0.0
  9
$PLINEWID
 40
0.0
  9
$COORDS
 70
     1
  9
$SPLFRAME
 70
     0
  9
$SPLINETYPE
 70
     6
  9
$SPLINESEGS
 70
     8
  9
$ATTDIA
 70
     0
  9
$ATTREQ
 70
     1
  9
$HANDLING
 70
     1
  9
$HANDSEED
  5
10122
  9
$SURFTAB1
 70
     6
  9
$SURFTAB2
 70
     6
  9
$SURFTYPE
 70
     6
  9
$SURFU
 70
     6
  9
$SURFV
 70
     6
  9
$UCSNAME
  2

  9
$UCSORG
 10
0.0
 20
0.0
 30
0.0
  9
$UCSXDIR
 10
1.0
 20
0.0
 30
0.0
  9
$UCSYDIR
 10
0.0
 20
1.0
 30
0.0
  9
$PUCSNAME
  2

  9
$PUCSORG
 10
0.0
 20
0.0
 30
0.0
  9
$PUCSXDIR
 10
1.0
 20
0.0
 30
0.0
  9
$PUCSYDIR
 10
0.0
 20
1.0
 30
0.0
  9
$USERI1
 70
     0
  9
$USERI2
 70
     0
  9
$USERI3
 70
     0
  9
$USERI4
 70
     0
  9
$USERI5
 70
     0
  9
$USERR1
 40
0.0
  9
$USERR2
 40
0.0
  9
$USERR3
 40
0.0
  9
$USERR4
 40
0.0
  9
$USERR5
 40
0.0
  9
$WORLDVIEW
 70
     1
  9
$SHADEDGE
 70
     3
  9
$SHADEDIF
 70
    70
  9
$TILEMODE
 70
     1
  9
$MAXACTVP
 70
    64
  9
$PINSBASE
 10
0.0
 20
0.0
 30
0.0
  9
$PLIMCHECK
 70
     0
  9
$PEXTMIN
 10
1.000000000000000E+20
 20
1.000000000000000E+20
 30
1.000000000000000E+20
  9
$PEXTMAX
 10
-1.000000000000000E+20
 20
-1.000000000000000E+20
 30
-1.000000000000000E+20
  9
$PLIMMIN
 10
-0.25
 20
-0.25
  9
$PLIMMAX
 10
10.75
 20
8.25
  9
$UNITMODE
 70
     0
  9
$VISRETAIN
 70
     1
  9
$PLINEGEN
 70
     0
  9
$PSLTSCALE
 70
     1
  9
$TREEDEPTH
 70
  3020
  9
$PICKSTYLE
 70
     1
  9
$CMLSTYLE
  2
STANDARD
  9
$CMLJUST
 70
     0
  9
$CMLSCALE
 40
1.0
  9
$PROXYGRAPHICS
 70
     1
  9
$MEASUREMENT
 70
     0
  0
ENDSEC
  0
SECTION
  2
CLASSES
  0
CLASS
  1
ACDBDICTIONARYWDFLT
  2
AcDbDictionaryWithDefault
  3
ObjectDBX Classes
 90
        0
280
     0
281
     0
  0
CLASS
  1
VISUALSTYLE
  2
AcDbVisualStyle
  3
ObjectDBX Classes
 90
     4095
280
     0
281
     0
  0
CLASS
  1
MATERIAL
  2
AcDbMaterial
  3
ObjectDBX Classes
 90
     1153
280
     0
281
     0
  0
CLASS
  1
SCALE
  2
AcDbScale
  3
ObjectDBX Classes
 90
     1153
280
     0
281
     0
  0
CLASS
  1
TABLESTYLE
  2
AcDbTableStyle
  3
ObjectDBX Classes
 90
     4095
280
     0
281
     0
  0
CLASS
  1
MLEADERSTYLE
  2
AcDbMLeaderStyle
  3
ACDB_MLEADERSTYLE_CLASS
 90
     4095
280
     0
281
     0
  0
CLASS
  1
SUN
  2
AcDbSun
  3
SCENEOE
 90
     1153
280
     0
281
     0
  0
CLASS
  1
DICTIONARYVAR
  2
AcDbDictionaryVar
  3
ObjectDBX Classes
 90
        0
280
     0
281
     0
  0
CLASS
  1
XRECORD
  2
AcDbXrecord
  3
ObjectDBX Classes
 90
        0
280
     0
281
     0
  0
CLASS
  1
LWPOLYLINE
  2
AcDbPolyline
  3
ObjectDBX Classes
 90
        0
280
     0
281
     1
  0
CLASS
  1
HATCH
  2
AcDbHatch
  3
ObjectDBX Classes
 90
        0
280
     0
281
     1
  0
CLASS
  1
ACDBPLACEHOLDER
  2
AcDbPlaceHolder
  3
ObjectDBX Classes
 90
        0
280
     0
281
     0
  0
CLASS
  1
LAYOUT
  2
AcDbLayout
  3
ObjectDBX Classes
 90
        0
280
     0
281
     0
  0
ENDSEC
  0
SECTION
  2
TABLES
  0
TABLE
  2
VPORT
  5
10025
102
{ACAD_XDICTIONARY
360
10117
102
}
330
0
100
AcDbSymbolTable
 70
     1
  0
VPORT
  5
10045
330
10025
100
AcDbSymbolTableRecord
100
AcDbViewportTableRecord
  2
*ACTIVE
 70
     0
 10
0.0
 20
0.0
 11
1.0
 21
1.0
 12
322.6727562633221
 22
-226.9188899861699
 13
0.0
 23
0.0
 14
0.5
 24
0.5
 15
0.5
 25
0.5
 16
0.0
 26
0.0
 36
1.0
 17
0.0
 27
0.0
 37
0.0
 40
325.4332646343962
 41
2.020735155513667
 42
50.0
 43
0.0
 44
0.0
 50
0.0
 51
0.0
 71
     0
 72
   100
 73
     1
 74
     3
 75
     0
 76
     0
 77
     0
 78
     0
  0
ENDTAB
  0
TABLE
  2
LTYPE
  5
10022
330
0
100
AcDbSymbolTable
 70
    48
  0
LTYPE
  5
10030
330
10022
100
AcDbSymbolTableRecord
100
AcDbLinetypeTableRecord
  2
BYBLOCK
 70
     0
  3

 72
    65
 73
     0
 40
0.0
  0
LTYPE
  5
10031
330
10022
100
AcDbSymbolTableRecord
100
AcDbLinetypeTableRecord
  2
BYLAYER
 70
     0
  3

 72
    65
 73
     0
 40
0.0
  0
LTYPE
  5
10032
330
10022
100
AcDbSymbolTableRecord
100
AcDbLinetypeTableRecord
  2
CONTINUOUS
 70
     0
  3
Solid line
 72
    65
 73
     0
 40
0.0
  0
LTYPE
  5
100B4
330
10022
100
AcDbSymbolTableRecord
100
AcDbLinetypeTableRecord
  2
DIVIDE
 70
     0
  3
Divide ____ . . ____ . . ____ . . ____ . . ____
 72
    65
 73
     6
 40
31.75
 49
12.7
 74
     0
 49
-6.35
 74
     0
 49
0.0
 74
     0
 49
-6.35
 74
     0
 49
0.0
 74
     0
 49
-6.35
 74
     0
  0
LTYPE
  5
100B5
330
10022
100
AcDbSymbolTableRecord
100
AcDbLinetypeTableRecord
  2
DASHED
 70
     0
  3
Dashed __ __ __ __ __ __ __ __ __ __ __ __ __ _
 72
    65
 73
     2
 40
19.05
 49
12.7
 74
     0
 49
-6.35
 74
     0
  0
LTYPE
  5
100B6
330
10022
100
AcDbSymbolTableRecord
100
AcDbLinetypeTableRecord
  2
DASHED2
 70
     0
  3
Dashed (.5x) _ _ _ _ _ _ _ _ _ _ _ _ _ _ _ _ _ 
 72
    65
 73
     2
 40
9.524999999999999
 49
6.35
 74
     0
 49
-3.175
 74
     0
  0
LTYPE
  5
100B7
330
10022
100
AcDbSymbolTableRecord
100
AcDbLinetypeTableRecord
  2
HIDDEN
 70
     0
  3
Hidden __ __ __ __ __ __ __ __ __ __ __ __ __ __
 72
    65
 73
     2
 40
9.524999999999999
 49
6.35
 74
     0
 49
-3.175
 74
     0
  0
LTYPE
  5
100B8
330
10022
100
AcDbSymbolTableRecord
100
AcDbLinetypeTableRecord
  2
HIDDEN2
 70
     0
  3
Hidden (.5x) _ _ _ _ _ _ _ _ _ _ _ _ _ _ _ _ _ 
 72
    65
 73
     2
 40
4.762499999999999
 49
3.175
 74
     0
 49
-1.5875
 74
     0
  0
LTYPE
  5
100BA
330
10022
100
AcDbSymbolTableRecord
100
AcDbLinetypeTableRecord
  2
FENCELINE2
 70
     0
  3
Fenceline square ----[]-----[]----[]-----[]----[]---
 72
    65
 73
     4
 40
36.83
 49
6.35
 74
     0
 49
-2.54
 74
     2
 75
     0
340
100B9
 46
2.54
 50
0.0
 44
-2.54
 45
0.0
  9
BOX
 49
-2.54
 74
     0
 49
25.4
 74
     0
  0
LTYPE
  5
100BC
330
10022
100
AcDbSymbolTableRecord
100
AcDbLinetypeTableRecord
  2
GAS_LINE
 70
     0
  3
Gas line ----GAS----GAS----GAS----GAS----GAS----GAS--
 72
    65
 73
     3
 40
24.13
 49
12.7
 74
     0
 49
-5.08
 74
     2
 75
     0
340
100BB
 46
2.54
 50
0.0
 44
-2.54
 45
-1.27
  9
GAS
 49
-6.35
 74
     0
  0
LTYPE
  5
100BE
330
10022
100
AcDbSymbolTableRecord
100
AcDbLinetypeTableRecord
  2
DRAINAGE2
 70
     0
  3
Drainage reversed----<----<----<----
 72
    65
 73
     2
 40
10.16
 49
5.08
 74
     2
 75
     0
340
100BD
 46
2.54
 50
0.0
 44
0.0
 45
0.0
  9
RIGHT_ARROW
 49
5.08
 74
     0
  0
LTYPE
  5
100BF
330
10022
100
AcDbSymbolTableRecord
100
AcDbLinetypeTableRecord
  2
FENCELINE1
 70
     0
  3
Fenceline circle ----0-----0----0-----0----0-----0--
 72
    65
 73
     4
 40
36.83
 49
6.35
 74
     0
 49
-2.54
 74
     2
 75
     0
340
100B9
 46
2.54
 50
0.0
 44
-2.54
 45
0.0
  9
CIRC1
 49
-2.54
 74
     0
 49
25.4
 74
     0
  0
LTYPE
  5
100C0
330
10022
100
AcDbSymbolTableRecord
100
AcDbLinetypeTableRecord
  2
DOTX2
 70
     0
  3
Dot (2x) .  .  .  .  .  .  .  .  .  .  .  .  .  .
 72
    65
 73
     2
 40
12.7
 49
0.0
 74
     0
 49
-12.7
 74
     0
  0
LTYPE
  5
100C1
330
10022
100
AcDbSymbolTableRecord
100
AcDbLinetypeTableRecord
  2
DRAINAGE
 70
     0
  3
Drainage ---->---->---->----
 72
    65
 73
     2
 40
10.16
 49
5.08
 74
     2
 75
     0
340
100BD
 46
2.54
 50
180.0
 44
0.0
 45
0.0
  9
RIGHT_ARROW
 49
5.08
 74
     0
  0
LTYPE
  5
100C2
330
10022
100
AcDbSymbolTableRecord
100
AcDbLinetypeTableRecord
  2
ZIGZAG
 70
     0
  3
Zig zag /\/\/\/\/\/\/\/\/\/\/\/\/\/\/\/\/\/\/\/\/\/\/\/
 72
    65
 73
     4
 40
20.32254
 49
0.00254
 74
     0
 49
-5.08
 74
     2
 75
     0
340
100B9
 46
5.08
 50
0.0
 44
-5.08
 45
0.0
  9
ZIG
 49
-10.16
 74
     2
 75
     0
340
100B9
 46
5.08
 50
180.0
 44
5.08
 45
0.0
  9
ZIG
 49
-5.08
 74
     0
  0
LTYPE
  5
100C3
330
10022
100
AcDbSymbolTableRecord
100
AcDbLinetypeTableRecord
  2
PHANTOMX2
 70
     0
  3
Phantom (2x) ____________    ____    ____   _
 72
    65
 73
     6
 40
127.0
 49
63.5
 74
     0
 49
-12.7
 74
     0
 49
12.7
 74
     0
 49
-12.7
 74
     0
 49
12.7
 74
     0
 49
-12.7
 74
     0
  0
LTYPE
  5
100C4
330
10022
100
AcDbSymbolTableRecord
100
AcDbLinetypeTableRecord
  2
TRACKS
 70
     0
  3
Tracks -|-|-|-|-|-|-|-|-|-|-|-|-|-|-|-|-|-|-|-|-|-|-|-|-
 72
    65
 73
     2
 40
7.62
 49
3.81
 74
     2
 75
     0
340
100B9
 46
6.35
 50
0.0
 44
0.0
 45
0.0
  9
TRACK1
 49
3.81
 74
     0
  0
LTYPE
  5
100C5
330
10022
100
AcDbSymbolTableRecord
100
AcDbLinetypeTableRecord
  2
PHANTOM
 70
     0
  3
Phantom ______  __  __  ______  __  __  ______ 
 72
    65
 73
     6
 40
63.50000000000001
 49
31.75
 74
     0
 49
-6.35
 74
     0
 49
6.35
 74
     0
 49
-6.35
 74
     0
 49
6.35
 74
     0
 49
-6.35
 74
     0
  0
LTYPE
  5
100C6
330
10022
100
AcDbSymbolTableRecord
100
AcDbLinetypeTableRecord
  2
PHANTOM2
 70
     0
  3
Phantom (.5x) ___ _ _ ___ _ _ ___ _ _ ___ _ _
 72
    65
 73
     6
 40
31.75
 49
15.875
 74
     0
 49
-3.175
 74
     0
 49
3.175
 74
     0
 49
-3.175
 74
     0
 49
3.175
 74
     0
 49
-3.175
 74
     0
  0
LTYPE
  5
100C7
330
10022
100
AcDbSymbolTableRecord
100
AcDbLinetypeTableRecord
  2
HIDDENX2
 70
     0
  3
Hidden (2x) ____ ____ ____ ____ ____ ____ ____ 
 72
    65
 73
     2
 40
19.05
 49
12.7
 74
     0
 49
-6.35
 74
     0
  0
LTYPE
  5
100C8
330
10022
100
AcDbSymbolTableRecord
100
AcDbLinetypeTableRecord
  2
HOT_WATER_SUPPLY
 70
     0
  3
Hot water supply ---- HW ---- HW ---- HW ----
 72
    65
 73
     3
 40
22.86
 49
12.7
 74
     0
 49
-5.08
 74
     2
 75
     0
340
100BB
 46
2.54
 50
0.0
 44
-2.54
 45
-1.27
  9
HW
 49
-5.08
 74
     0
  0
LTYPE
  5
100C9
330
10022
100
AcDbSymbolTableRecord
100
AcDbLinetypeTableRecord
  2
ACAD_ISO08W100
 70
     0
  3
ISO long-dash short-dash ____ __ ____ __ ____ _
 72
    65
 73
     4
 40
36.0
 49
24.0
 74
     0
 49
-3.0
 74
     0
 49
6.0
 74
     0
 49
-3.0
 74
     0
  0
LTYPE
  5
100CA
330
10022
100
AcDbSymbolTableRecord
100
AcDbLinetypeTableRecord
  2
ACAD_ISO09W100
 70
     0
  3
ISO long-dash double-short-dash ____ __ __ ____
 72
    65
 73
     6
 40
45.0
 49
24.0
 74
     0
 49
-3.0
 74
     0
 49
6.0
 74
     0
 49
-3.0
 74
     0
 49
6.0
 74
     0
 49
-3.0
 74
     0
  0
LTYPE
  5
100CB
330
10022
100
AcDbSymbolTableRecord
100
AcDbLinetypeTableRecord
  2
ACAD_ISO06W100
 70
     0
  3
ISO long-dash triple-dot ____ ... ____ ... ____
 72
    65
 73
     8
 40
36.0
 49
24.0
 74
     0
 49
-3.0
 74
     0
 49
0.0
 74
     0
 49
-3.0
 74
     0
 49
0.0
 74
     0
 49
-3.0
 74
     0
 49
0.0
 74
     0
 49
-3.0
 74
     0
  0
LTYPE
  5
100CC
330
10022
100
AcDbSymbolTableRecord
100
AcDbLinetypeTableRecord
  2
ACAD_ISO07W100
 70
     0
  3
ISO dot . . . . . . . . . . . . . . . . . . . . 
 72
    65
 73
     2
 40
3.0
 49
0.0
 74
     0
 49
-3.0
 74
     0
  0
LTYPE
  5
100CD
330
10022
100
AcDbSymbolTableRecord
100
AcDbLinetypeTableRecord
  2
ACAD_ISO04W100
 70
     0
  3
ISO long-dash dot ____ . ____ . ____ . ____ . _
 72
    65
 73
     4
 40
30.0
 49
24.0
 74
     0
 49
-3.0
 74
     0
 49
0.0
 74
     0
 49
-3.0
 74
     0
  0
LTYPE
  5
100CE
330
10022
100
AcDbSymbolTableRecord
100
AcDbLinetypeTableRecord
  2
ACAD_ISO05W100
 70
     0
  3
ISO long-dash double-dot ____ .. ____ .. ____ . 
 72
    65
 73
     6
 40
33.0
 49
24.0
 74
     0
 49
-3.0
 74
     0
 49
0.0
 74
     0
 49
-3.0
 74
     0
 49
0.0
 74
     0
 49
-3.0
 74
     0
  0
LTYPE
  5
100CF
330
10022
100
AcDbSymbolTableRecord
100
AcDbLinetypeTableRecord
  2
ACAD_ISO02W100
 70
     0
  3
ISO dash __ __ __ __ __ __ __ __ __ __ __ __ __
 72
    65
 73
     2
 40
15.0
 49
12.0
 74
     0
 49
-3.0
 74
     0
  0
LTYPE
  5
100D0
330
10022
100
AcDbSymbolTableRecord
100
AcDbLinetypeTableRecord
  2
ACAD_ISO03W100
 70
     0
  3
ISO dash space __    __    __    __    __    __
 72
    65
 73
     2
 40
30.0
 49
12.0
 74
     0
 49
-18.0
 74
     0
  0
LTYPE
  5
100D1
330
10022
100
AcDbSymbolTableRecord
100
AcDbLinetypeTableRecord
  2
BATTING
 70
     0
  3
Batting SSSSSSSSSSSSSSSSSSSSSSSSSSSSSSSSSSSSSSSSSSSSSSS
 72
    65
 73
     4
 40
10.16254
 49
0.00254
 74
     0
 49
-2.54
 74
     2
 75
     0
340
100B9
 46
2.54
 50
0.0
 44
-2.54
 45
0.0
  9
BAT
 49
-5.08
 74
     2
 75
     0
340
100B9
 46
2.54
 50
180.0
 44
2.54
 45
0.0
  9
BAT
 49
-2.54
 74
     0
  0
LTYPE
  5
100D2
330
10022
100
AcDbSymbolTableRecord
100
AcDbLinetypeTableRecord
  2
BORDER
 70
     0
  3
Border __ __ . __ __ . __ __ . __ __ . __ __ .
 72
    65
 73
     6
 40
44.45
 49
12.7
 74
     0
 49
-6.35
 74
     0
 49
12.7
 74
     0
 49
-6.35
 74
     0
 49
0.0
 74
     0
 49
-6.35
 74
     0
  0
LTYPE
  5
100D3
330
10022
100
AcDbSymbolTableRecord
100
AcDbLinetypeTableRecord
  2
ACAD_ISO14W100
 70
     0
  3
ISO dash triple-dot __ . . . __ . . . __ . . . _
 72
    65
 73
     8
 40
24.0
 49
12.0
 74
     0
 49
-3.0
 74
     0
 49
0.0
 74
     0
 49
-3.0
 74
     0
 49
0.0
 74
     0
 49
-3.0
 74
     0
 49
0.0
 74
     0
 49
-3.0
 74
     0
  0
LTYPE
  5
100D4
330
10022
100
AcDbSymbolTableRecord
100
AcDbLinetypeTableRecord
  2
ACAD_ISO15W100
 70
     0
  3
ISO double-dash triple-dot __ __ . . . __ __ . .
 72
    65
 73
    10
 40
39.0
 49
12.0
 74
     0
 49
-3.0
 74
     0
 49
12.0
 74
     0
 49
-3.0
 74
     0
 49
0.0
 74
     0
 49
-3.0
 74
     0
 49
0.0
 74
     0
 49
-3.0
 74
     0
 49
0.0
 74
     0
 49
-3.0
 74
     0
  0
LTYPE
  5
100D5
330
10022
100
AcDbSymbolTableRecord
100
AcDbLinetypeTableRecord
  2
ACAD_ISO12W100
 70
     0
  3
ISO dash double-dot __ . . __ . . __ . . __ . . 
 72
    65
 73
     6
 40
21.0
 49
12.0
 74
     0
 49
-3.0
 74
     0
 49
0.0
 74
     0
 49
-3.0
 74
     0
 49
0.0
 74
     0
 49
-3.0
 74
     0
  0
LTYPE
  5
100D6
330
10022
100
AcDbSymbolTableRecord
100
AcDbLinetypeTableRecord
  2
ACAD_ISO13W100
 70
     0
  3
ISO double-dash double-dot __ __ . . __ __ . . _
 72
    65
 73
     8
 40
36.0
 49
12.0
 74
     0
 49
-3.0
 74
     0
 49
12.0
 74
     0
 49
-3.0
 74
     0
 49
0.0
 74
     0
 49
-3.0
 74
     0
 49
0.0
 74
     0
 49
-3.0
 74
     0
  0
LTYPE
  5
100D7
330
10022
100
AcDbSymbolTableRecord
100
AcDbLinetypeTableRecord
  2
ACAD_ISO10W100
 70
     0
  3
ISO dash dot __ . __ . __ . __ . __ . __ . __ . 
 72
    65
 73
     4
 40
18.0
 49
12.0
 74
     0
 49
-3.0
 74
     0
 49
0.0
 74
     0
 49
-3.0
 74
     0
  0
LTYPE
  5
100D8
330
10022
100
AcDbSymbolTableRecord
100
AcDbLinetypeTableRecord
  2
ACAD_ISO11W100
 70
     0
  3
ISO double-dash dot __ __ . __ __ . __ __ . __ _
 72
    65
 73
     6
 40
33.0
 49
12.0
 74
     0
 49
-3.0
 74
     0
 49
12.0
 74
     0
 49
-3.0
 74
     0
 49
0.0
 74
     0
 49
-3.0
 74
     0
  0
LTYPE
  5
100D9
330
10022
100
AcDbSymbolTableRecord
100
AcDbLinetypeTableRecord
  2
DASHDOT2
 70
     0
  3
Dash dot (.5x) _._._._._._._._._._._._._._._.
 72
    65
 73
     4
 40
12.7
 49
6.35
 74
     0
 49
-3.175
 74
     0
 49
0.0
 74
     0
 49
-3.175
 74
     0
  0
LTYPE
  5
100DA
330
10022
100
AcDbSymbolTableRecord
100
AcDbLinetypeTableRecord
  2
DASHDOTX2
 70
     0
  3
Dash dot (2x) ____  .  ____  .  ____  .  ___
 72
    65
 73
     4
 40
50.8
 49
25.4
 74
     0
 49
-12.7
 74
     0
 49
0.0
 74
     0
 49
-12.7
 74
     0
  0
LTYPE
  5
100DB
330
10022
100
AcDbSymbolTableRecord
100
AcDbLinetypeTableRecord
  2
CENTERX2
 70
     0
  3
Center (2x) ________  __  ________  __  _____
 72
    65
 73
     4
 40
101.6
 49
63.5
 74
     0
 49
-12.7
 74
     0
 49
12.7
 74
     0
 49
-12.7
 74
     0
  0
LTYPE
  5
100DC
330
10022
100
AcDbSymbolTableRecord
100
AcDbLinetypeTableRecord
  2
DASHDOT
 70
     0
  3
Dash dot __ . __ . __ . __ . __ . __ . __ . __
 72
    65
 73
     4
 40
25.4
 49
12.7
 74
     0
 49
-6.35
 74
     0
 49
0.0
 74
     0
 49
-6.35
 74
     0
  0
LTYPE
  5
100DD
330
10022
100
AcDbSymbolTableRecord
100
AcDbLinetypeTableRecord
  2
CENTER
 70
     0
  3
Center ____ _ ____ _ ____ _ ____ _ ____ _ ____
 72
    65
 73
     4
 40
50.8
 49
31.75
 74
     0
 49
-6.35
 74
     0
 49
6.35
 74
     0
 49
-6.35
 74
     0
  0
LTYPE
  5
100DE
330
10022
100
AcDbSymbolTableRecord
100
AcDbLinetypeTableRecord
  2
CENTER2
 70
     0
  3
Center (.5x) ___ _ ___ _ ___ _ ___ _ ___ _ ___
 72
    65
 73
     4
 40
28.575
 49
19.05
 74
     0
 49
-3.175
 74
     0
 49
3.175
 74
     0
 49
-3.175
 74
     0
  0
LTYPE
  5
100DF
330
10022
100
AcDbSymbolTableRecord
100
AcDbLinetypeTableRecord
  2
BORDER2
 70
     0
  3
Border (.5x) __.__.__.__.__.__.__.__.__.__.__.
 72
    65
 73
     6
 40
22.225
 49
6.35
 74
     0
 49
-3.175
 74
     0
 49
6.35
 74
     0
 49
-3.175
 74
     0
 49
0.0
 74
     0
 49
-3.175
 74
     0
  0
LTYPE
  5
100E0
330
10022
100
AcDbSymbolTableRecord
100
AcDbLinetypeTableRecord
  2
BORDERX2
 70
     0
  3
Border (2x) ____  ____  .  ____  ____  .  ___
 72
    65
 73
     6
 40
88.89999999999999
 49
25.4
 74
     0
 49
-12.7
 74
     0
 49
25.4
 74
     0
 49
-12.7
 74
     0
 49
0.0
 74
     0
 49
-12.7
 74
     0
  0
LTYPE
  5
100E1
330
10022
100
AcDbSymbolTableRecord
100
AcDbLinetypeTableRecord
  2
DOT
 70
     0
  3
Dot . . . . . . . . . . . . . . . . . . . . . . . .
 72
    65
 73
     2
 40
6.35
 49
0.0
 74
     0
 49
-6.35
 74
     0
  0
LTYPE
  5
100E2
330
10022
100
AcDbSymbolTableRecord
100
AcDbLinetypeTableRecord
  2
DOT2
 70
     0
  3
Dot (.5x) ........................................
 72
    65
 73
     2
 40
3.175
 49
0.0
 74
     0
 49
-3.175
 74
     0
  0
LTYPE
  5
100E3
330
10022
100
AcDbSymbolTableRecord
100
AcDbLinetypeTableRecord
  2
DIVIDE2
 70
     0
  3
Divide (.5x) __..__..__..__..__..__..__..__.._
 72
    65
 73
     6
 40
15.875
 49
6.35
 74
     0
 49
-3.175
 74
     0
 49
0.0
 74
     0
 49
-3.175
 74
     0
 49
0.0
 74
     0
 49
-3.175
 74
     0
  0
LTYPE
  5
100E4
330
10022
100
AcDbSymbolTableRecord
100
AcDbLinetypeTableRecord
  2
DIVIDEX2
 70
     0
  3
Divide (2x) ________  .  .  ________  .  .  _
 72
    65
 73
     6
 40
63.5
 49
25.4
 74
     0
 49
-12.7
 74
     0
 49
0.0
 74
     0
 49
-12.7
 74
     0
 49
0.0
 74
     0
 49
-12.7
 74
     0
  0
LTYPE
  5
100E5
330
10022
100
AcDbSymbolTableRecord
100
AcDbLinetypeTableRecord
  2
DASHEDX2
 70
     0
  3
Dashed (2x) ____  ____  ____  ____  ____  ___
 72
    65
 73
     2
 40
38.09999999999999
 49
25.4
 74
     0
 49
-12.7
 74
     0
  0
ENDTAB
  0
TABLE
  2
LAYER
  5
10020
330
0
100
AcDbSymbolTable
 70
     7
  0
LAYER
  5
1002D
330
10020
100
AcDbSymbolTableRecord
100
AcDbLayerTableRecord
  2
0
 70
     0
 62
     7
  6
CONTINUOUS
  0
LAYER
  5
100E6
330
10020
100
AcDbSymbolTableRecord
100
AcDbLayerTableRecord
  2
BOARDS
 70
     0
 62
     7
  6
CONTINUOUS
  0
LAYER
  5
100E7
330
10020
100
AcDbSymbolTableRecord
100
AcDbLayerTableRecord
  2
HOLES_DIAM_2_5_D_5_2
 70
     0
 62
     5
  6
CONTINUOUS
  0
LAYER
  5
100E8
330
10020
100
AcDbSymbolTableRecord
100
AcDbLayerTableRecord
  2
HOLES_DIAM_5_0_D_5_2
 70
     0
 62
     5
  6
CONTINUOUS
  0
LAYER
  5
100E9
330
10020
100
AcDbSymbolTableRecord
100
AcDbLayerTableRecord
  2
HOLES_DIAM_41_5_D_5_2
 70
     0
 62
     5
  6
CONTINUOUS
  0
LAYER
  5
100EA
330
10020
100
AcDbSymbolTableRecord
100
AcDbLayerTableRecord
  2
INSETS_D_1_0
 70
     0
 62
     3
  6
CONTINUOUS
  0
LAYER
  5
100EB
330
10020
100
AcDbSymbolTableRecord
100
AcDbLayerTableRecord
  2
PERIMETER_D_5_2
 70
     0
 62
     5
  6
CONTINUOUS
  0
ENDTAB
  0
TABLE
  2
STYLE
  5
10021
330
0
100
AcDbSymbolTable
 70
     5
  0
STYLE
  5
1002E
330
10021
100
AcDbSymbolTableRecord
100
AcDbTextStyleTableRecord
  2
STANDARD
 70
     0
 40
0.0
 41
1.0
 50
0.0
 71
     0
 42
0.2
  3
txt
  4

  0
STYLE
  5
100B2
330
10021
100
AcDbSymbolTableRecord
100
AcDbTextStyleTableRecord
  2
QCADDIMTEXTSTYLE
 70
     0
 40
0.0
 41
1.0
 50
0.0
 71
     0
 42
0.2
  3

  4

  0
STYLE
  5
100B9
330
10021
100
AcDbSymbolTableRecord
100
AcDbTextStyleTableRecord
  2
TEXTSTYLE0
 70
     0
 40
0.0
 41
1.0
 50
0.0
 71
     0
 42
0.2
  3
ltypeshp.shx
  4

  0
STYLE
  5
100BB
330
10021
100
AcDbSymbolTableRecord
100
AcDbTextStyleTableRecord
  2
TEXTSTYLE1
 70
     0
 40
0.0
 41
1.0
 50
0.0
 71
     0
 42
0.2
  3
STANDARD
  4

  0
STYLE
  5
100BD
330
10021
100
AcDbSymbolTableRecord
100
AcDbTextStyleTableRecord
  2
TEXTSTYLE2
 70
     0
 40
0.0
 41
1.0
 50
0.0
 71
     0
 42
0.2
  3
qcadshp.shx
  4

  0
ENDTAB
  0
TABLE
  2
VIEW
  5
10023
330
0
100
AcDbSymbolTable
 70
     0
  0
ENDTAB
  0
TABLE
  2
UCS
  5
10024
330
0
100
AcDbSymbolTable
 70
     0
  0
ENDTAB
  0
TABLE
  2
APPID
  5
10026
330
0
100
AcDbSymbolTable
 70
     3
  0
APPID
  5
1002F
330
10026
100
AcDbSymbolTableRecord
100
AcDbRegAppTableRecord
  2
ACAD
 70
     0
  0
APPID
  5
1007A
330
10026
100
AcDbSymbolTableRecord
100
AcDbRegAppTableRecord
  2
QCAD
 70
     0
  0
APPID
  5
10121
330
10026
100
AcDbSymbolTableRecord
100
AcDbRegAppTableRecord
  2
ACAD_MLEADERVER
 70
     0
  0
ENDTAB
  0
TABLE
  2
DIMSTYLE
  5
10027
330
0
100
AcDbSymbolTable
 70
     2
  0
DIMSTYLE
105
10043
330
10027
100
AcDbSymbolTableRecord
100
AcDbDimStyleTableRecord
  2
STANDARD
 70
     0
  3

  4

  5

  6

  7

 40
1.0
 41
0.18
 42
0.0625
 43
0.38
 44
0.18
 45
0.0
 46
0.0
 47
0.0
 48
0.0
140
0.18
141
0.09
142
0.0
143
25.4
144
1.0
145
0.0
146
1.0
147
0.09
 71
     0
 72
     0
 73
     1
 74
     1
 75
     0
 76
     0
 77
     0
 78
     0
170
     0
171
     2
172
     0
173
     0
174
     0
175
     0
176
     0
177
     0
178
     0
270
     2
271
     4
272
     4
273
     2
274
     2
340
1002E
275
     0
280
     0
281
     0
282
     0
283
     1
284
     0
285
     0
286
     0
287
     3
288
     0
  0
DIMSTYLE
105
100B3
330
10027
100
AcDbSymbolTableRecord
100
AcDbDimStyleTableRecord
  2
QCADDIMSTYLE
 70
     0
  3

  4

  5

  6

  7

 40
1.0
 41
0.18
 42
0.0625
 43
0.38
 44
0.18
 45
0.0
 46
0.0
 47
0.0
 48
0.0
140
0.18
141
0.09
142
0.0
143
25.4
144
1.0
145
0.0
146
1.0
147
0.09
 71
     0
 72
     0
 73
     1
 74
     1
 75
     0
 76
     0
 77
     0
 78
     0
170
     0
171
     2
172
     0
173
     0
174
     0
175
     0
176
     0
177
     0
178
     0
270
     2
271
     4
272
     4
273
     2
274
     2
340
100B2
275
     0
280
     0
281
     0
282
     0
283
     1
284
     0
285
     0
286
     0
287
     5
288
     0
  0
ENDTAB
  0
TABLE
  2
BLOCK_RECORD
  5
1001F
330
0
100
AcDbSymbolTable
 70
     0
  0
BLOCK_RECORD
  5
1003B
330
1001F
100
AcDbSymbolTableRecord
100
AcDbBlockTableRecord
  2
*MODEL_SPACE
  0
BLOCK_RECORD
  5
10037
330
1001F
100
AcDbSymbolTableRecord
100
AcDbBlockTableRecord
  2
*PAPER_SPACE
  0
ENDTAB
  0
ENDSEC
  0
SECTION
  2
BLOCKS
  0
BLOCK
  5
1003C
330
1003B
100
AcDbEntity
  8
0
100
AcDbBlockBegin
  2
*MODEL_SPACE
 70
     0
 10
0.0
 20
0.0
 30
0.0
  3
*MODEL_SPACE
  1

  0
ENDBLK
  5
1003D
330
1003B
100
AcDbEntity
  8
0
100
AcDbBlockEnd
  0
BLOCK
  5
10038
330
10037
100
AcDbEntity
 67
     1
  8
0
100
AcDbBlockBegin
  2
*PAPER_SPACE
 70
     0
 10
0.0
 20
0.0
 30
0.0
  3
*PAPER_SPACE
  1

  0
ENDBLK
  5
10039
330
10037
100
AcDbEntity
 67
     1
  8
0
100
AcDbBlockEnd
  0
ENDSEC
  0
SECTION
  2
ENTITIES
  0
LWPOLYLINE
  5
1001D
330
1003B
100
AcDbEntity
  8
BOARDS
100
AcDbPolyline
 90
        4
 70
     1
 43
0.0
 10
0.0
 20
-0.0000000000001137
 10
600.0
 20
-0.0000000000001137
 10
600.0
 20
-300.0
 10
0.0
 20
-300.0
  0
LWPOLYLINE
  5
105
330
1003B
100
AcDbEntity
  8
PERIMETER_D_5_2
100
AcDbPolyline
 90
       25
 70
     1
 43
0.0
 10
28.18322435072392
 20
-0.959500000000007
 10
144.016775649275
 20
-0.9595000000000137
 10
146.0404999999989
 20
-2.983224350723896
 10
146.040499999999
 20
-15.20949999998986
 10
151.159499999999
 20
-15.20949999999032
 10
151.1594999999991
 20
-2.983224350723901
 10
153.1832243507229
 20
-0.9595000000000093
 10
269.0167756492741
 20
-0.959500000000014
 10
271.0404999999981
 20
-2.983224350723901
 10
271.0404999999989
 20
-15.2095000000007
 10
276.2404999999991
 20
-15.20950000000069
 10
276.2404999999993
 20
-30.7094999999992
 10
326.0015352310589
 20
-30.70949999999993
 10
330.5247727868308
 20
-31.05291765599496
 10
112.2201087275183
 20
-149.0554387691358
 42
-0.1195513137250003
 10
105.3629498611953
 20
-150.8618224933222
 10
61.87196854158094
 20
-151.7145868329225
 42
-0.1269828456257789
 10
54.55683043506561
 20
-149.9785661664894
 10
28.24362307102961
 20
-136.0910400576926
 42
-0.2241783578663569
 10
20.53238242939194
 20
-125.8224119358423
 10
0.950312324953706
 20
-30.7095
 10
20.95950000000002
 20
-30.70949999999911
 10
20.95950000000002
 20
-15.20949999999999
 10
26.15950000000002
 20
-15.20949999999999
 10
26.15950000000002
 20
-2.983224350723888
  0
LWPOLYLINE
  5
106
330
1003B
100
AcDbEntity
  8
PERIMETER_D_5_2
100
AcDbPolyline
 90
       25
 70
     1
 43
0.0
 10
131.2606906265652
 20
-269.5333424733927
 10
114.7166342998495
 20
-244.8039578578443
 42
-0.2241783578663538
 10
112.8159586472478
 20
-232.1037457414385
 10
140.817626056141
 20
-139.1207897289772
 10
158.4198047903676
 20
-148.6355622025344
 10
165.7903675405852
 20
-135.0001375759996
 10
170.3648325765761
 20
-137.4728424986494
 10
176.1786733426595
 20
-126.7173289451875
 10
178.9212751597734
 20
-125.8993706527351
 10
280.8206079309086
 20
-180.9805615188696
 10
281.6385662233605
 20
-183.7231633359832
 10
275.8247254572821
 20
-194.4786768894361
 10
280.327934403289
 20
-196.9128646777143
 10
286.1417751693681
 20
-186.1573511242605
 10
288.8843769864818
 20
-185.3393928318086
 10
390.783709757617
 20
-240.4205836979428
 10
391.601668050069
 20
-243.1631855150565
 10
385.7878272839859
 20
-253.9186990685197
 10
390.3622923199771
 20
-256.3914039911692
 10
382.9917295697729
 20
-270.0268286176797
 10
426.7667518426966
 20
-293.6892049199835
 10
430.5825636734381
 20
-296.1422018104759
 10
182.4263198706264
 20
-296.1413151824113
 42
-0.1195513137250048
 10
175.5350722923148
 20
-294.4696822408201
 10
136.8703399831018
 20
-274.5390239822773
 42
-0.1269828456257813
  0
LWPOLYLINE
  5
107
330
1003B
100
AcDbEntity
  8
PERIMETER_D_5_2
100
AcDbPolyline
 90
       25
 70
     1
 43
0.0
 10
346.5581230264499
 20
-151.3064559679211
 10
230.7245717278987
 20
-151.3064559679211
 10
228.7008473771747
 20
-149.2827316171973
 10
228.7008473771738
 20
-137.0564559679204
 10
223.5008473771737
 20
-137.0564559679204
 10
223.5008473771735
 20
-121.5564559679219
 10
173.7398121461131
 20
-121.5564559679212
 10
169.2165745903418
 20
-121.2130383119262
 10
387.5212386496545
 20
-3.210517198785283
 42
-0.1195513137249842
 10
394.3783975159774
 20
-1.40413347459895
 10
437.8693788355918
 20
-0.5513691349985947
 42
-0.1269828456257804
 10
445.1845169421072
 20
-2.287389801431743
 10
471.4977243061431
 20
-16.17491591022849
 42
-0.2241783578663555
 10
479.2089649477809
 20
-26.44354403207882
 10
498.7910350522191
 20
-121.5564559679211
 10
478.7818473771728
 20
-121.556455967922
 10
478.7818473771728
 20
-137.0564559679211
 10
473.5818473771728
 20
-137.0564559679211
 10
473.5818473771728
 20
-149.2827316171973
 10
471.5581230264489
 20
-151.3064559679211
 10
355.7245717278977
 20
-151.3064559679211
 10
353.7008473771738
 20
-149.2827316171973
 10
353.7008473771737
 20
-137.0564559679314
 10
348.5818473771738
 20
-137.0564559679308
 10
348.5818473771737
 20
-149.2827316171972
  0
LWPOLYLINE
  5
108
330
1003B
100
AcDbEntity
  8
PERIMETER_D_5_2
100
AcDbPolyline
 90
       22
 70
     1
 43
0.0
 10
59.35791023909039
 20
-261.3305445565843
 42
0.5171885694245075
 10
99.78726476064477
 20
-191.3048484080379
 10
97.14956324481935
 20
-190.4941808601643
 10
86.40321395200425
 20
-196.6985885171767
 10
83.84371395200426
 20
-192.2654044752043
 10
94.5900632448195
 20
-186.0609968181916
 10
95.20685531224993
 20
-183.3713465239493
 42
0.2195458088724696
 10
59.23700079069562
 20
-162.6628707401071
 10
59.23700079069565
 20
-167.8667163207256
 10
50.31800079069563
 20
-167.8667163207256
 10
50.31800079069561
 20
-162.6628707401071
 42
0.2195458088724696
 10
14.34814626914135
 20
-183.3713465239495
 10
14.96493833657178
 20
-186.0609968181917
 10
25.71128762938696
 20
-192.2654044752043
 10
23.15178762938697
 20
-196.6985885171769
 10
12.40543833657188
 20
-190.4941808601643
 10
9.767736820746478
 20
-191.3048484080379
 42
0.5171885694245067
 10
50.19709134230089
 20
-261.3305445565845
 10
52.21800079069564
 20
-259.4515618102158
 10
52.21800079069564
 20
-247.0427464961905
 10
57.33700079069564
 20
-247.0427464961905
 10
57.33700079069561
 20
-259.4515618102158
  0
CIRCLE
  5
109
330
1003B
100
AcDbEntity
  8
PERIMETER_D_5_2
100
AcDbCircle
 10
540.4595
 20
-60.0
 30
0.0
 40
49.54049999999999
  0
LWPOLYLINE
  5
10A
330
1003B
100
AcDbEntity
  8
PERIMETER_D_5_2
100
AcDbPolyline
 90
       26
 70
     1
 43
0.0
 10
254.15956956568
 20
-164.0810000561704
 10
254.3951459058995
 20
-163.6399742624438
 10
249.8084773060585
 20
-161.1899801398323
 10
251.9477462146062
 20
-157.1850246111252
 10
254.0870151192867
 20
-153.1800690803524
 10
258.6736837152604
 20
-155.6300632008981
 10
258.9092601100033
 20
-155.1890373050974
 10
364.6504943319114
 20
-211.6712959907022
 10
364.4149179375266
 20
-212.1123218858324
 10
368.7536073414402
 20
-214.4298564597717
 10
368.9891836995433
 20
-213.9888306325649
 10
474.9069509726608
 20
-270.5653854142308
 10
474.6713745711513
 20
-271.006411322699
 10
479.1865969832265
 20
-273.4182420732894
 10
479.422173384716
 20
-272.9772161648584
 10
508.1246102699999
 20
-288.308779982845
 42
-1.009965883652389
 10
503.2871464994502
 20
-297.1527334715028
 42
-0.0049601722496831
 10
503.1984743198166
 20
-297.1064933238525
 10
474.6724828336459
 20
-281.8691789285622
 10
474.9080591738642
 20
-281.4281531348378
 10
470.392836761791
 20
-279.0163223842439
 10
470.1572604215711
 20
-279.4573481779711
 10
364.2394931480023
 20
-222.8807933971502
 10
364.4750694440078
 20
-222.4397676861975
 10
360.136380083592
 20
-220.1222330308254
 10
359.9008037875882
 20
-220.5632587417752
  0
LWPOLYLINE
  5
10B
330
1003B
100
AcDbEntity
  8
PERIMETER_D_5_2
100
AcDbPolyline
 90
       22
 70
     1
 43
0.0
 10
588.7783016523234
 20
-275.7197953250824
 10
588.161509584893
 20
-273.0301450308402
 10
577.4151602920778
 20
-266.8257373738276
 10
579.9746602920778
 20
-262.3925533318549
 10
590.7210095848931
 20
-268.5969609888675
 10
593.3587111007182
 20
-267.7862934409941
 42
0.517188569424507
 10
552.929356579164
 20
-197.7605972924474
 10
550.9084471307692
 20
-199.6395800388159
 10
550.9084471307692
 20
-212.0483953528413
 10
545.7894471307691
 20
-212.0483953528413
 10
545.7894471307691
 20
-199.6395800388159
 10
543.7685376823742
 20
-197.7605972924474
 42
0.5171885694245061
 10
503.3391831608201
 20
-267.786293440994
 10
505.9768846766453
 20
-268.5969609888675
 10
516.7232339694606
 20
-262.3925533318549
 10
519.2827339694607
 20
-266.8257373738276
 10
508.5363846766453
 20
-273.0301450308402
 10
507.9195926092149
 20
-275.7197953250823
 42
0.2195458088724697
 10
543.8894471307691
 20
-296.4282711089246
 10
543.8894471307691
 20
-291.2244255283061
 10
552.8084471307692
 20
-291.2244255283061
 10
552.8084471307692
 20
-296.4282711089246
 42
0.2195458088724691
  0
LWPOLYLINE
  5
10C
330
1003B
100
AcDbEntity
  8
PERIMETER_D_5_2
100
AcDbPolyline
 90
       22
 70
     1
 43
0.0
 10
462.8084471307691
 20
-252.4282711089247
 42
0.2195458088724707
 10
498.7783016523235
 20
-231.7197953250823
 10
498.1615095848931
 20
-229.0301450308401
 10
487.4151602920779
 20
-222.8257373738275
 10
489.9746602920778
 20
-218.3925533318551
 10
500.7210095848931
 20
-224.5969609888676
 10
503.3587111007184
 20
-223.786293440994
 42
0.517188569424507
 10
462.9293565791639
 20
-153.7605972924474
 10
460.9084471307692
 20
-155.6395800388159
 10
460.9084471307692
 20
-168.0483953528411
 10
455.7894471307692
 20
-168.0483953528411
 10
455.7894471307693
 20
-155.6395800388159
 10
453.7685376823745
 20
-153.7605972924474
 42
0.5171885694245082
 10
413.3391831608201
 20
-223.7862934409941
 10
415.9768846766453
 20
-224.5969609888676
 10
426.7232339694606
 20
-218.3925533318551
 10
429.2827339694605
 20
-222.8257373738275
 10
418.5363846766453
 20
-229.0301450308401
 10
417.9195926092148
 20
-231.7197953250823
 42
0.2195458088724704
 10
453.8894471307692
 20
-252.4282711089247
 10
453.8894471307692
 20
-247.2244255283063
 10
462.8084471307691
 20
-247.2244255283063
  0
LWPOLYLINE
  5
10D
330
1003B
100
AcDbEntity
  8
INSETS_D_1_0
100
AcDbPolyline
 90
        4
 70
     1
 43
0.0
 10
17.03024064599435
 20
-50.79152799147801
 10
16.38206106311628
 20
-47.64322716035596
 10
17.33202551462137
 20
-47.44764624386963
 10
17.98020509749944
 20
-50.59594707499166
  0
SPLINE
  5
10E
330
1003B
100
AcDbEntity
  8
INSETS_D_1_0
100
AcDbSpline
210
0.0
220
0.0
230
1.0
 70
     8
 71
     3
 72
    17
 73
    13
 74
     0
 42
0.000000001
 43
0.001
 40
-0.0002601934128441
 40
-0.0002601934128441
 40
-0.0002601934128441
 40
-0.0002601934128441
 40
0.0
 40
0.0
 40
0.0
 40
0.0428575360334228
 40
0.0428575360334228
 40
0.0428575360334228
 40
0.0867011395322621
 40
0.0867011395322621
 40
0.0867011395322621
 40
0.0868236583181752
 40
0.0868236583181752
 40
0.0868236583181752
 40
0.0868236583181752
 10
21.20187082099518
 20
-43.55706211484686
 30
0.0
 10
21.20118868518013
 20
-43.55761433559675
 30
0.0
 10
21.2005065493651
 20
-43.55816655634661
 30
0.0
 10
21.19982441355006
 20
-43.55871877709647
 30
0.0
 10
21.08746699468796
 20
-43.64967734682704
 30
0.0
 10
20.97315433805512
 20
-43.74260146399635
 30
0.0
 10
20.8423232940025
 20
-43.80984619289094
 30
0.0
 10
20.70848208539198
 20
-43.87863809051058
 30
0.0
 10
20.56287772007286
 20
-43.91771621762544
 30
0.0
 10
20.42007934645552
 20
-43.95635726604247
 30
0.0
 10
20.4196803034488
 20
-43.95646524654499
 30
0.0
 10
20.41928126044207
 20
-43.95657322704751
 30
0.0
 10
20.41888221743535
 20
-43.95668120755004
 30
0.0
  0
SPLINE
  5
10F
330
1003B
100
AcDbEntity
  8
INSETS_D_1_0
100
AcDbSpline
210
0.0
220
0.0
230
1.0
 70
     8
 71
     3
 72
    17
 73
    13
 74
     0
 42
0.000000001
 43
0.001
 40
-0.0002626388716393
 40
-0.0002626388716393
 40
-0.0002626388716393
 40
-0.0002626388716393
 40
0.0
 40
0.0
 40
0.0
 40
0.0424766397824195
 40
0.0424766397824195
 40
0.0424766397824195
 40
0.0851001079150341
 40
0.0851001079150341
 40
0.0851001079150341
 40
0.0853609669734123
 40
0.0853609669734123
 40
0.0853609669734123
 40
0.0853609669734123
 10
21.67398687559406
 20
-42.83282390921897
 30
0.0
 10
21.67364705523521
 20
-42.83363954786093
 30
0.0
 10
21.6733072348764
 20
-42.83445518650284
 30
0.0
 10
21.67296741451759
 20
-42.83527082514475
 30
0.0
 10
21.61800819663113
 20
-42.96718423372964
 30
0.0
 10
21.56232070813926
 20
-43.10144847505577
 30
0.0
 10
21.48291018889537
 20
-43.22337792017228
 30
0.0
 10
21.4032251725258
 20
-43.34572883693433
 30
0.0
 10
21.30252341513448
 20
-43.45125197869477
 30
0.0
 10
21.20368550883974
 20
-43.5551544405385
 30
0.0
 10
21.20308061289163
 20
-43.55579033197454
 30
0.0
 10
21.2024757169435
 20
-43.55642622341058
 30
0.0
 10
21.20187082099541
 20
-43.55706211484659
 30
0.0
  0
SPLINE
  5
110
330
1003B
100
AcDbEntity
  8
INSETS_D_1_0
100
AcDbSpline
210
0.0
220
0.0
230
1.0
 70
     8
 71
     3
 72
    17
 73
    13
 74
     0
 42
0.000000001
 43
0.001
 40
-0.0001187901430749
 40
-0.0001187901430749
 40
-0.0001187901430749
 40
-0.0001187901430749
 40
0.0
 40
0.0
 40
0.0
 40
0.0438257821192429
 40
0.0438257821192429
 40
0.0438257821192429
 40
0.0865188754464665
 40
0.0865188754464665
 40
0.0865188754464665
 40
0.0867809655922641
 40
0.0867809655922641
 40
0.0867809655922641
 40
0.0867809655922641
 10
21.72622607893311
 20
-41.95712113503166
 30
0.0
 10
21.72628345520405
 20
-41.95751763147227
 30
0.0
 10
21.726340831475
 20
-41.95791412791287
 30
0.0
 10
21.72639820774594
 20
-41.95831062435347
 30
0.0
 10
21.74756629361643
 20
-42.10459184068391
 30
0.0
 10
21.76942707455822
 20
-42.25357237093849
 30
0.0
 10
21.75998437668405
 20
-42.40364888129754
 30
0.0
 10
21.75078572780412
 20
-42.54984662502633
 30
0.0
 10
21.71224333534315
 20
-42.69132004288979
 30
0.0
 10
21.67467869628159
 20
-42.83026498707188
 30
0.0
 10
21.67444808938569
 20
-42.83111796112085
 30
0.0
 10
21.67421748248979
 20
-42.83197093516983
 30
0.0
 10
21.67398687559389
 20
-42.83282390921882
 30
0.0
  0
LINE
  5
111
330
1003B
100
AcDbEntity
  8
INSETS_D_1_0
100
AcDbLine
 10
21.7262260789331
 20
-41.95712113503158
 30
0.0
 11
20.77797259852095
 21
-37.3513185158869
 31
0.0
  0
SPLINE
  5
112
330
1003B
100
AcDbEntity
  8
INSETS_D_1_0
100
AcDbSpline
210
0.0
220
0.0
230
1.0
 70
     8
 71
     3
 72
    17
 73
    13
 74
     0
 42
0.000000001
 43
0.001
 40
-0.0002632021978227
 40
-0.0002632021978227
 40
-0.0002632021978227
 40
-0.0002632021978227
 40
0.0
 40
0.0
 40
0.0
 40
0.0426931344836064
 40
0.0426931344836064
 40
0.0426931344836064
 40
0.0865189018218989
 40
0.0865189018218989
 40
0.0865189018218989
 40
0.0866376923564474
 40
0.0866376923564474
 40
0.0866376923564474
 40
0.0866376923564474
 10
20.38405409869715
 20
-36.56746120276281
 30
0.0
 10
20.38460522148807
 20
-36.56815665036458
 30
0.0
 10
20.38515634427901
 20
-36.56885209796636
 30
0.0
 10
20.38570746706995
 20
-36.56954754556814
 30
0.0
 10
20.47510322297569
 20
-36.68235373880972
 30
0.0
 10
20.56639601040827
 20
-36.79709653697778
 30
0.0
 10
20.63259772019861
 20
-36.92777082097176
 30
0.0
 10
20.70055573653455
 20
-37.06191184473793
 30
0.0
 10
20.73932325817218
 20
-37.20741150937241
 30
0.0
 10
20.77766085427923
 20
-37.35015776695256
 30
0.0
 10
20.77776476902645
 20
-37.35054468326395
 30
0.0
 10
20.77786868377368
 20
-37.35093159957535
 30
0.0
 10
20.77797259852095
 20
-37.35131851588691
 30
0.0
  0
SPLINE
  5
113
330
1003B
100
AcDbEntity
  8
INSETS_D_1_0
100
AcDbSpline
210
0.0
220
0.0
230
1.0
 70
     8
 71
     3
 72
    17
 73
    13
 74
     0
 42
0.000000001
 43
0.001
 40
-0.0002636343187021
 40
-0.0002636343187021
 40
-0.0002636343187021
 40
-0.0002636343187021
 40
0.0
 40
0.0
 40
0.0
 40
0.0423667668235187
 40
0.0423667668235187
 40
0.0423667668235187
 40
0.0847335872351593
 40
0.0847335872351593
 40
0.0847335872351593
 40
0.0849972218968372
 40
0.0849972218968372
 40
0.0849972218968372
 40
0.0849972218968372
 10
19.66500169072341
 20
-36.09393875633165
 30
0.0
 10
19.66582060027729
 20
-36.09428047079102
 30
0.0
 10
19.66663950983114
 20
-36.09462218525037
 30
0.0
 10
19.66745841938499
 20
-36.09496389970973
 30
0.0
 10
19.79905945785572
 20
-36.14987836187459
 30
0.0
 10
19.93307111553876
 20
-36.20553454020752
 30
0.0
 10
20.05435594982414
 20
-36.28540503487937
 30
0.0
 10
20.17564093751811
 20
-36.3652756305764
 30
0.0
 10
20.27970822237074
 20
-36.46640321687026
 30
0.0
 10
20.3821418669808
 20
-36.56560922458534
 30
0.0
 10
20.38277927755301
 20
-36.56622655064442
 30
0.0
 10
20.38341668812521
 20
-36.56684387670349
 30
0.0
 10
20.38405409869747
 20
-36.56746120276261
 30
0.0
  0
SPLINE
  5
114
330
1003B
100
AcDbEntity
  8
INSETS_D_1_0
100
AcDbSpline
210
0.0
220
0.0
230
1.0
 70
     8
 71
     3
 72
    17
 73
    13
 74
     0
 42
0.000000001
 43
0.001
 40
-0.000118789301901
 40
-0.000118789301901
 40
-0.000118789301901
 40
-0.000118789301901
 40
0.0
 40
0.0
 40
0.0
 40
0.0438257797580668
 40
0.0438257797580668
 40
0.0438257797580668
 40
0.0865189337776213
 40
0.0865189337776213
 40
0.0865189337776213
 40
0.0867821356151603
 40
0.0867821356151603
 40
0.0867821356151603
 40
0.0867821356151603
 10
18.78928748279719
 20
-36.04169677861815
 30
0.0
 10
18.78968397640859
 20
-36.0416394025868
 30
0.0
 10
18.79008047002002
 20
-36.04158202655543
 30
0.0
 10
18.79047696363145
 20
-36.04152465052407
 30
0.0
 10
18.93675816414832
 20
-36.02035650428818
 30
0.0
 10
19.08573867813632
 20
-35.99849566185795
 30
0.0
 10
19.23581518273345
 20
-36.00793829563879
 30
0.0
 10
19.38201313655999
 20
-36.01713689565415
 30
0.0
 10
19.52348676419755
 20
-36.05567932604026
 30
0.0
 10
19.66243191439594
 20
-36.09324400150513
 30
0.0
 10
19.66328850650512
 20
-36.0934755864474
 30
0.0
 10
19.66414509861431
 20
-36.09370717138967
 30
0.0
 10
19.66500169072346
 20
-36.09393875633193
 30
0.0
  0
LINE
  5
115
330
1003B
100
AcDbEntity
  8
INSETS_D_1_0
100
AcDbLine
 10
18.78928748279715
 20
-36.04169677861815
 30
0.0
 11
14.17260268283147
 21
-36.99219070802276
 31
0.0
  0
SPLINE
  5
116
330
1003B
100
AcDbEntity
  8
INSETS_D_1_0
100
AcDbSpline
210
0.0
220
0.0
230
1.0
 70
     8
 71
     3
 72
    17
 73
    13
 74
     0
 42
0.000000001
 43
0.001
 40
-0.0002631941030368
 40
-0.0002631941030368
 40
-0.0002631941030368
 40
-0.0002631941030368
 40
0.0
 40
0.0
 40
0.0
 40
0.042693044269225
 40
0.042693044269225
 40
0.042693044269225
 40
0.0865188831510974
 40
0.0865188831510974
 40
0.0865188831510974
 40
0.0866376712360994
 40
0.0866376712360994
 40
0.0866376712360994
 40
0.0866376712360994
 10
13.38874564606076
 20
-37.3861091089225
 30
0.0
 10
13.38944107148768
 20
-37.38555800190315
 30
0.0
 10
13.39013649691456
 20
-37.38500689488382
 30
0.0
 10
13.39083192234144
 20
-37.3844557878645
 30
0.0
 10
13.50363774964914
 20
-37.29506002974684
 30
0.0
 10
13.61838018713643
 20
-37.20376722664706
 30
0.0
 10
13.74905417523627
 20
-37.1375655698992
 30
0.0
 10
13.8831953976893
 20
-37.06960735347292
 30
0.0
 10
14.02869539361016
 20
-37.03083993733321
 30
0.0
 10
14.17144195723893
 20
-36.99250244448751
 30
0.0
 10
14.17182886576975
 20
-36.99239853233259
 30
0.0
 10
14.17221577430058
 20
-36.99229462017769
 30
0.0
 10
14.17260268283147
 20
-36.99219070802276
 30
0.0
  0
SPLINE
  5
117
330
1003B
100
AcDbEntity
  8
INSETS_D_1_0
100
AcDbSpline
210
0.0
220
0.0
230
1.0
 70
     8
 71
     3
 72
    17
 73
    13
 74
     0
 42
0.000000001
 43
0.001
 40
-0.0002636294706999
 40
-0.0002636294706999
 40
-0.0002636294706999
 40
-0.0002636294706999
 40
0.0
 40
0.0
 40
0.0
 40
0.0423667414461532
 40
0.0423667414461532
 40
0.0423667414461532
 40
0.0847336070193644
 40
0.0847336070193644
 40
0.0847336070193644
 40
0.084997233530177
 40
0.084997233530177
 40
0.084997233530177
 40
0.084997233530177
 10
12.91522333839875
 20
-38.10516171184538
 30
0.0
 10
12.91556504418802
 20
-38.10434281609312
 30
0.0
 10
12.91590674997728
 20
-38.10352392034086
 30
0.0
 10
12.91624845576655
 20
-38.1027050245886
 30
0.0
 10
12.97116250155214
 20
-37.9711038628709
 30
0.0
 10
13.02681826289056
 20
-37.83709204569897
 30
0.0
 10
13.10668867706815
 20
-37.71580721198931
 30
0.0
 10
13.18655932525192
 20
-37.59452202293653
 30
0.0
 10
13.28768732996934
 20
-37.49045482140708
 30
0.0
 10
13.3868937199791
 20
-37.38802127759804
 30
0.0
 10
13.38751102867293
 20
-37.3873838880395
 30
0.0
 10
13.38812833736676
 20
-37.38674649848096
 30
0.0
 10
13.38874564606053
 20
-37.38610910892248
 30
0.0
  0
SPLINE
  5
118
330
1003B
100
AcDbEntity
  8
INSETS_D_1_0
100
AcDbSpline
210
0.0
220
0.0
230
1.0
 70
     8
 71
     3
 72
    17
 73
    13
 74
     0
 42
0.000000001
 43
0.001
 40
-0.0001187938763142
 40
-0.0001187938763142
 40
-0.0001187938763142
 40
-0.0001187938763142
 40
0.0
 40
0.0
 40
0.0
 40
0.0438257748941107
 40
0.0438257748941107
 40
0.0438257748941107
 40
0.0865189093777171
 40
0.0865189093777171
 40
0.0865189093777171
 40
0.0867821064903997
 40
0.0867821064903997
 40
0.0867821064903997
 40
0.0867821064903997
 10
12.86298069221457
 20
-38.98087563868518
 30
0.0
 10
12.86292331488477
 20
-38.98047912974039
 30
0.0
 10
12.86286593755498
 20
-38.98008262079559
 30
0.0
 10
12.86280856022518
 20
-38.9796861118508
 30
0.0
 10
12.84164075244186
 20
-38.83340490361795
 30
0.0
 10
12.8197802616576
 20
-38.6844243986785
 30
0.0
 10
12.82922301691454
 20
-38.53434793873902
 30
0.0
 10
12.83842173207827
 20
-38.38815007908905
 30
0.0
 10
12.87696403694582
 20
-38.24667653042302
 30
0.0
 10
12.91452859784488
 20
-38.10773144207376
 30
0.0
 10
12.91476017802955
 20
-38.10687486533099
 30
0.0
 10
12.91499175821421
 20
-38.10601828858821
 30
0.0
 10
12.91522333839887
 20
-38.10516171184546
 30
0.0
  0
LINE
  5
119
330
1003B
100
AcDbEntity
  8
INSETS_D_1_0
100
AcDbLine
 10
12.86298069221457
 20
-38.98087563868521
 30
0.0
 11
13.81123418620844
 21
-43.58667832379831
 31
0.0
  0
SPLINE
  5
11A
330
1003B
100
AcDbEntity
  8
INSETS_D_1_0
100
AcDbSpline
210
0.0
220
0.0
230
1.0
 70
     8
 71
     3
 72
    17
 73
    13
 74
     0
 42
0.000000001
 43
0.001
 40
-0.0002620847054516
 40
-0.0002620847054516
 40
-0.0002620847054516
 40
-0.0002620847054516
 40
0.0
 40
0.0
 40
0.0
 40
0.0426930933272237
 40
0.0426930933272237
 40
0.0426930933272237
 40
0.0865188830022822
 40
0.0865188830022822
 40
0.0865188830022822
 40
0.0866376764871115
 40
0.0866376764871115
 40
0.0866376764871115
 40
0.0866376764871115
 10
14.20514618798373
 20
-44.37052634201808
 30
0.0
 10
14.20459740506492
 20
-44.36983384725912
 30
0.0
 10
14.20404862214612
 20
-44.36914135250018
 30
0.0
 10
14.20349983922732
 20
-44.36844885774124
 30
0.0
 10
14.11410415958
 20
-44.25564279635134
 30
0.0
 10
14.02281145654715
 20
-44.14090013724162
 30
0.0
 10
13.95660968981933
 20
-44.01022604973715
 30
0.0
 10
13.88865151488706
 20
-43.87608502999288
 30
0.0
 10
13.84988376270587
 20
-43.73058536574654
 30
0.0
 10
13.81154593987736
 20
-43.58783910102734
 30
0.0
 10
13.81144202198772
 20
-43.58745217528435
 30
0.0
 10
13.81133810409809
 20
-43.58706524954135
 30
0.0
 10
13.81123418620844
 20
-43.5866783237983
 30
0.0
  0
SPLINE
  5
11B
330
1003B
100
AcDbEntity
  8
INSETS_D_1_0
100
AcDbSpline
210
0.0
220
0.0
230
1.0
 70
     8
 71
     3
 72
    17
 73
    13
 74
     0
 42
0.000000001
 43
0.001
 40
-0.0002608508031473
 40
-0.0002608508031473
 40
-0.0002608508031473
 40
-0.0002608508031473
 40
0.0
 40
0.0
 40
0.0
 40
0.042623561747652
 40
0.042623561747652
 40
0.042623561747652
 40
0.0851001286399207
 40
0.0851001286399207
 40
0.0851001286399207
 40
0.085362761958638
 40
0.085362761958638
 40
0.085362761958638
 40
0.085362761958638
 10
14.92495527267873
 20
-44.84936826861925
 30
0.0
 10
14.92414840559667
 20
-44.8490230523462
 30
0.0
 10
14.9233415385146
 20
-44.84867783607313
 30
0.0
 10
14.92253467143252
 20
-44.84833261980007
 30
0.0
 10
14.7906909182999
 20
-44.79192356545384
 30
0.0
 10
14.65649464918138
 20
-44.73476189461192
 30
0.0
 10
14.53495882393727
 20
-44.65383848093536
 30
0.0
 10
14.41384213637954
 20
-44.57319414589519
 30
0.0
 10
14.30964686436152
 20
-44.47184683240336
 30
0.0
 10
14.20704927576761
 20
-44.3723715146444
 30
0.0
 10
14.20641491317298
 20
-44.3717564571022
 30
0.0
 10
14.20578055057834
 20
-44.37114139956002
 30
0.0
 10
14.20514618798375
 20
-44.37052634201785
 30
0.0
  0
SPLINE
  5
11C
330
1003B
100
AcDbEntity
  8
INSETS_D_1_0
100
AcDbSpline
210
0.0
220
0.0
230
1.0
 70
     8
 71
     3
 72
    17
 73
    13
 74
     0
 42
0.000000001
 43
0.001
 40
-0.0001225175484746
 40
-0.0001225175484746
 40
-0.0001225175484746
 40
-0.0001225175484746
 40
0.0
 40
0.0
 40
0.0
 40
0.0438436625986092
 40
0.0438436625986092
 40
0.0438436625986092
 40
0.0867010893026559
 40
0.0867010893026559
 40
0.0867010893026559
 40
0.0869612745453343
 40
0.0869612745453343
 40
0.0869612745453343
 40
0.0869612745453343
 10
15.80212236512846
 20
-44.90719058890736
 30
0.0
 10
15.80171312498569
 20
-44.90724902015557
 30
0.0
 10
15.80130388484308
 20
-44.90730745140375
 30
0.0
 10
15.80089464470045
 20
-44.90736588265194
 30
0.0
 10
15.65444552815859
 20
-44.92827586626451
 30
0.0
 10
15.50524595280186
 20
-44.9498927510853
 30
0.0
 10
15.35511531681239
 20
-44.93956547401134
 30
0.0
 10
15.20836177601321
 20
-44.92947050260574
 30
0.0
 10
15.06663935140003
 20
-44.88925948365455
 30
0.0
 10
14.92748958597737
 20
-44.85008180565102
 30
0.0
 10
14.92664481487771
 20
-44.84984395997424
 30
0.0
 10
14.92580004377805
 20
-44.84960611429747
 30
0.0
 10
14.92495527267839
 20
-44.84936826862071
 30
0.0
  0
LINE
  5
11D
330
1003B
100
AcDbEntity
  8
INSETS_D_1_0
100
AcDbLine
 10
15.80212236512831
 20
-44.90719058890738
 30
0.0
 11
18.803141618733
 21
-44.2893336837535
 31
0.0
  0
LINE
  5
11E
330
1003B
100
AcDbEntity
  8
INSETS_D_1_0
100
AcDbLine
 10
18.803141618733
 20
-44.2893336837535
 30
0.0
 11
18.08550367354033
 21
-40.80366366424627
 31
0.0
  0
LINE
  5
11F
330
1003B
100
AcDbEntity
  8
INSETS_D_1_0
100
AcDbLine
 10
18.08550367354033
 20
-40.80366366424627
 30
0.0
 11
16.30844197906324
 21
-41.16952930722683
 31
0.0
  0
LINE
  5
120
330
1003B
100
AcDbEntity
  8
INSETS_D_1_0
100
AcDbLine
 10
16.30844197906324
 20
-41.16952930722683
 30
0.0
 11
16.65797373546951
 21
-42.86725498120013
 31
0.0
  0
LINE
  5
121
330
1003B
100
AcDbEntity
  8
INSETS_D_1_0
100
AcDbLine
 10
16.65797373546951
 20
-42.86725498120013
 30
0.0
 11
15.56196125736117
 21
-43.09290460904593
 31
0.0
  0
LINE
  5
122
330
1003B
100
AcDbEntity
  8
INSETS_D_1_0
100
AcDbLine
 10
15.56196125736117
 20
-43.09290460904593
 30
0.0
 11
14.66413523729658
 21
-38.73203536873225
 31
0.0
  0
LINE
  5
123
330
1003B
100
AcDbEntity
  8
INSETS_D_1_0
100
AcDbLine
 10
14.66413523729658
 20
-38.73203536873225
 30
0.0
 11
19.02500433165982
 21
-37.83420937871634
 31
0.0
  0
LINE
  5
124
330
1003B
100
AcDbEntity
  8
INSETS_D_1_0
100
AcDbLine
 10
19.02500433165982
 20
-37.83420937871634
 30
0.0
 11
19.9228303517244
 21
-42.19507861903004
 31
0.0
  0
LINE
  5
125
330
1003B
100
AcDbEntity
  8
INSETS_D_1_0
100
AcDbLine
 10
19.9228303517244
 20
-42.19507861903004
 30
0.0
 11
19.26985902847342
 21
-42.32951389146406
 31
0.0
  0
LINE
  5
126
330
1003B
100
AcDbEntity
  8
INSETS_D_1_0
100
AcDbLine
 10
19.26985902847342
 20
-42.32951389146406
 30
0.0
 11
19.63796521725982
 21
-44.11745823699799
 31
0.0
  0
LINE
  5
127
330
1003B
100
AcDbEntity
  8
INSETS_D_1_0
100
AcDbLine
 10
19.63796521725982
 20
-44.11745823699799
 30
0.0
 11
20.41888221743536
 21
-43.95668120755003
 31
0.0
  0
SPLINE
  5
128
330
1003B
100
AcDbEntity
  8
INSETS_D_1_0
100
AcDbSpline
210
0.0
220
0.0
230
1.0
 70
     8
 71
     3
 72
    17
 73
    13
 74
     0
 42
0.000000001
 43
0.001
 40
-0.0002541990388436
 40
-0.0002541990388436
 40
-0.0002541990388436
 40
-0.0002541990388436
 40
0.0
 40
0.0
 40
0.0
 40
0.0422751274562694
 40
0.0422751274562694
 40
0.0422751274562694
 40
0.0852575270491541
 40
0.0852575270491541
 40
0.0852575270491541
 40
0.0853782220411761
 40
0.0853782220411761
 40
0.0853782220411761
 40
0.0853782220411761
 10
27.05754428253285
 20
-118.2857880421051
 30
0.0
 10
27.05701728669554
 20
-118.2851126716807
 30
0.0
 10
27.0564902908582
 20
-118.2844373012563
 30
0.0
 10
27.05596329502085
 20
-118.2837619308318
 30
0.0
 10
26.96832009898784
 20
-118.1714429743801
 30
0.0
 10
26.87882752778385
 20
-118.0572002012958
 30
0.0
 10
26.81382468867013
 20
-117.9275080466095
 30
0.0
 10
26.74773433782854
 20
-117.795646113785
 30
0.0
 10
26.70959733825485
 20
-117.6530756546944
 30
0.0
 10
26.67188937937468
 20
-117.5131866188321
 30
0.0
 10
26.67178349506298
 20
-117.5127938090721
 30
0.0
 10
26.67167761075128
 20
-117.5124009993121
 30
0.0
 10
26.6715717264396
 20
-117.5120081895522
 30
0.0
  0
SPLINE
  5
129
330
1003B
100
AcDbEntity
  8
INSETS_D_1_0
100
AcDbSpline
210
0.0
220
0.0
230
1.0
 70
     8
 71
     3
 72
    17
 73
    13
 74
     0
 42
0.000000001
 43
0.001
 40
-0.0002812946465554
 40
-0.0002812946465554
 40
-0.0002812946465554
 40
-0.0002812946465554
 40
0.0
 40
0.0
 40
0.0
 40
0.0410878800791033
 40
0.0410878800791033
 40
0.0410878800791033
 40
0.0828112720819597
 40
0.0828112720819597
 40
0.0828112720819597
 40
0.0830655532064307
 40
0.0830655532064307
 40
0.0830655532064307
 40
0.0830655532064307
 10
27.75859461289775
 20
-118.7522036266027
 30
0.0
 10
27.75771893136138
 20
-118.7518418389013
 30
0.0
 10
27.75684324982468
 20
-118.7514800511997
 30
0.0
 10
27.75596756828799
 20
-118.7511182634982
 30
0.0
 10
27.62805934675674
 20
-118.6982730000826
 30
0.0
 10
27.49765514390683
 20
-118.6446791929505
 30
0.0
 10
27.38004710275196
 20
-118.5667627261496
 30
0.0
 10
27.26062000175902
 20
-118.4876411145805
 30
0.0
 10
27.15915409716445
 20
-118.3865963154131
 30
0.0
 10
27.05936869397032
 20
-118.2875980618117
 30
0.0
 10
27.05876055682443
 20
-118.2869947219096
 30
0.0
 10
27.05815241967855
 20
-118.2863913820075
 30
0.0
 10
27.0575442825325
 20
-118.2857880421053
 30
0.0
  0
SPLINE
  5
12A
330
1003B
100
AcDbEntity
  8
INSETS_D_1_0
100
AcDbSpline
210
0.0
220
0.0
230
1.0
 70
     8
 71
     3
 72
    17
 73
    13
 74
     0
 42
0.000000001
 43
0.001
 40
-0.0001089377096102
 40
-0.0001089377096102
 40
-0.0001089377096102
 40
-0.0001089377096102
 40
0.0
 40
0.0
 40
0.0
 40
0.0435157562946415
 40
0.0435157562946415
 40
0.0435157562946415
 40
0.0851188721531053
 40
0.0851188721531053
 40
0.0851188721531053
 40
0.0854000592372519
 40
0.0854000592372519
 40
0.0854000592372519
 40
0.0854000592372519
 10
28.62098222474671
 20
-118.7956719433292
 30
0.0
 10
28.62061898617848
 20
-118.7957263383194
 30
0.0
 10
28.62025574761107
 20
-118.7957807333096
 30
0.0
 10
28.61989250904368
 20
-118.7958351282997
 30
0.0
 10
28.47479490202053
 20
-118.8175635008167
 30
0.0
 10
28.327024015774
 20
-118.8399884643723
 30
0.0
 10
28.17791319919545
 20
-118.8316291266153
 30
0.0
 10
28.03535622429505
 20
-118.8236372053707
 30
0.0
 10
27.89711588590153
 20
-118.7878180647902
 30
0.0
 10
27.76134750632797
 20
-118.7529114078034
 30
0.0
 10
27.76042987518463
 20
-118.7526754807366
 30
0.0
 10
27.7595122440413
 20
-118.7524395536698
 30
0.0
 10
27.75859461289767
 20
-118.7522036266029
 30
0.0
  0
LINE
  5
12B
330
1003B
100
AcDbEntity
  8
INSETS_D_1_0
100
AcDbLine
 10
28.62098222474591
 20
-118.7956719433293
 30
0.0
 11
35.63763898110522
 21
-117.3510661405494
 31
0.0
  0
LINE
  5
12C
330
1003B
100
AcDbEntity
  8
INSETS_D_1_0
100
AcDbLine
 10
35.63763898110522
 20
-117.3510661405494
 30
0.0
 11
35.27849497554212
 21
-115.6066523992429
 31
0.0
  0
LINE
  5
12D
330
1003B
100
AcDbEntity
  8
INSETS_D_1_0
100
AcDbLine
 10
35.27849497554212
 20
-115.6066523992429
 30
0.0
 11
30.65328128989723
 21
-116.5589022756992
 31
0.0
  0
LINE
  5
12E
330
1003B
100
AcDbEntity
  8
INSETS_D_1_0
100
AcDbLine
 10
30.65328128989723
 20
-116.5589022756992
 30
0.0
 11
30.03552857377843
 21
-113.5583890831222
 31
0.0
  0
LINE
  5
12F
330
1003B
100
AcDbEntity
  8
INSETS_D_1_0
100
AcDbLine
 10
30.03552857377843
 20
-113.5583890831222
 30
0.0
 11
34.66074225942332
 21
-112.606139206666
 31
0.0
  0
LINE
  5
130
330
1003B
100
AcDbEntity
  8
INSETS_D_1_0
100
AcDbLine
 10
34.66074225942332
 20
-112.606139206666
 30
0.0
 11
34.30159825386022
 21
-110.8617254653595
 31
0.0
  0
LINE
  5
131
330
1003B
100
AcDbEntity
  8
INSETS_D_1_0
100
AcDbLine
 10
34.30159825386022
 20
-110.8617254653595
 30
0.0
 11
29.54840099489854
 21
-111.8403249010279
 31
0.0
  0
SPLINE
  5
132
330
1003B
100
AcDbEntity
  8
INSETS_D_1_0
100
AcDbSpline
210
0.0
220
0.0
230
1.0
 70
     8
 71
     3
 72
    17
 73
    13
 74
     0
 42
0.000000001
 43
0.001
 40
-0.0002552293853336
 40
-0.0002552293853336
 40
-0.0002552293853336
 40
-0.0002552293853336
 40
0.0
 40
0.0
 40
0.0
 40
0.042019440789657
 40
0.042019440789657
 40
0.042019440789657
 40
0.0841743649076241
 40
0.0841743649076241
 40
0.0841743649076241
 40
0.0843009030455856
 40
0.0843009030455856
 40
0.0843009030455856
 40
0.0843009030455856
 10
28.7854654520218
 20
-112.2241303270064
 30
0.0
 10
28.78614204047592
 20
-112.2235991260371
 30
0.0
 10
28.78681862893014
 20
-112.2230679250677
 30
0.0
 10
28.78749521738435
 20
-112.2225367240983
 30
0.0
 10
28.89888469729787
 20
-112.1350829708732
 30
0.0
 10
29.01220517979224
 20
-112.045759352179
 30
0.0
 10
29.14107100332913
 20
-111.9809106781772
 30
0.0
 10
29.27035232908001
 20
-111.9158529125257
 30
0.0
 10
29.41009030384934
 20
-111.8780394484477
 30
0.0
 10
29.54716659260438
 20
-111.84066149774
 30
0.0
 10
29.54757806003556
 20
-111.840549298836
 30
0.0
 10
29.54798952746673
 20
-111.840437099932
 30
0.0
 10
29.54840099489854
 20
-111.8403249010279
 30
0.0
  0
SPLINE
  5
133
330
1003B
100
AcDbEntity
  8
INSETS_D_1_0
100
AcDbSpline
210
0.0
220
0.0
230
1.0
 70
     8
 71
     3
 72
    17
 73
    13
 74
     0
 42
0.000000001
 43
0.001
 40
-0.0002613505460956
 40
-0.0002613505460956
 40
-0.0002613505460956
 40
-0.0002613505460956
 40
0.0
 40
0.0
 40
0.0
 40
0.0420023597893578
 40
0.0420023597893578
 40
0.0420023597893578
 40
0.0840047195787155
 40
0.0840047195787155
 40
0.0840047195787155
 40
0.0842600584663908
 40
0.0842600584663908
 40
0.0842600584663908
 40
0.0842600584663908
 10
28.31596021659351
 20
-112.9371041895787
 30
0.0
 10
28.31629232652606
 20
-112.9362887743868
 30
0.0
 10
28.31662443645858
 20
-112.9354733591948
 30
0.0
 10
28.31695654639111
 20
-112.9346579440029
 30
0.0
 10
28.37033084035649
 20
-112.8036103423029
 30
0.0
 10
28.42444710511404
 20
-112.670032173531
 30
0.0
 10
28.50372906624537
 20
-112.5496410473686
 30
0.0
 10
28.58301102737671
 20
-112.4292499212062
 30
0.0
 10
28.68434853012014
 20
-112.3267686652543
 30
0.0
 10
28.78365436510309
 20
-112.2259686637366
 30
0.0
 10
28.78425806074237
 20
-112.2253558848262
 30
0.0
 10
28.78486175638164
 20
-112.2247431059158
 30
0.0
 10
28.78546545202096
 20
-112.2241303270054
 30
0.0
  0
SPLINE
  5
134
330
1003B
100
AcDbEntity
  8
INSETS_D_1_0
100
AcDbSpline
210
0.0
220
0.0
230
1.0
 70
     8
 71
     3
 72
    17
 73
    13
 74
     0
 42
0.000000001
 43
0.001
 40
-0.0001207019642317
 40
-0.0001207019642317
 40
-0.0001207019642317
 40
-0.0001207019642317
 40
0.0
 40
0.0
 40
0.0
 40
0.0429819265572425
 40
0.0429819265572425
 40
0.0429819265572425
 40
0.0852574942166231
 40
0.0852574942166231
 40
0.0852574942166231
 40
0.0855187566876427
 40
0.0855187566876427
 40
0.0855187566876427
 40
0.0855187566876427
 10
28.26701898625564
 20
-113.8004902097418
 30
0.0
 10
28.26696108930134
 20
-113.8000874966199
 30
0.0
 10
28.26690319234703
 20
-113.799684783498
 30
0.0
 10
28.26684529539272
 20
-113.799282070376
 30
0.0
 10
28.24622821054405
 20
-113.6558760708
 30
0.0
 10
28.22494609507261
 20
-113.5098373225851
 30
0.0
 10
28.23357273270542
 20
-113.3625940284302
 30
0.0
 10
28.24205760139628
 20
-113.2177705097322
 30
0.0
 10
28.27914332814254
 20
-113.0774658755591
 30
0.0
 10
28.31529005760775
 20
-112.9396591215456
 30
0.0
 10
28.3155134439366
 20
-112.9388074775567
 30
0.0
 10
28.31573683026544
 20
-112.9379558335678
 30
0.0
 10
28.31596021659429
 20
-112.9371041895788
 30
0.0
  0
LINE
  5
135
330
1003B
100
AcDbEntity
  8
INSETS_D_1_0
100
AcDbLine
 10
28.26701898625565
 20
-113.800490209742
 30
0.0
 11
28.90886871619448
 21
-116.9180460408733
 31
0.0
  0
LINE
  5
136
330
1003B
100
AcDbEntity
  8
INSETS_D_1_0
100
AcDbLine
 10
28.90886871619448
 20
-116.9180460408733
 30
0.0
 11
28.4005310711941
 21
-117.0227037913145
 31
0.0
  0
LINE
  5
137
330
1003B
100
AcDbEntity
  8
INSETS_D_1_0
100
AcDbLine
 10
28.4005310711941
 20
-117.0227037913145
 30
0.0
 11
27.62976889065016
 21
-113.2790017715297
 31
0.0
  0
LINE
  5
138
330
1003B
100
AcDbEntity
  8
INSETS_D_1_0
100
AcDbLine
 10
27.62976889065016
 20
-113.2790017715297
 30
0.0
 11
25.87447308208867
 21
-113.6403862027041
 31
0.0
  0
LINE
  5
139
330
1003B
100
AcDbEntity
  8
INSETS_D_1_0
100
AcDbLine
 10
25.87447308208867
 20
-113.6403862027041
 30
0.0
 11
26.67157172643961
 21
-117.5120081895522
 31
0.0
  0
LINE
  5
13A
330
1003B
100
AcDbEntity
  8
INSETS_D_1_0
100
AcDbLine
 10
24.30029874169428
 20
-86.10323874202045
 30
0.0
 11
23.32564340717974
 21
-81.36919854580702
 31
0.0
  0
LINE
  5
13B
330
1003B
100
AcDbEntity
  8
INSETS_D_1_0
100
AcDbLine
 10
22.71455820899911
 20
-86.42971473404589
 30
0.0
 11
24.30029874169428
 21
-86.10323874202045
 31
0.0
  0
LINE
  5
13C
330
1003B
100
AcDbEntity
  8
INSETS_D_1_0
100
AcDbLine
 10
21.73039367720411
 20
-81.64948700818493
 30
0.0
 11
22.71455820899911
 21
-86.42971473404589
 31
0.0
  0
SPLINE
  5
13D
330
1003B
100
AcDbEntity
  8
INSETS_D_1_0
100
AcDbSpline
210
0.0
220
0.0
230
1.0
 70
     8
 71
     3
 72
    11
 73
     7
 74
     0
 42
0.000000001
 43
0.001
 40
0.0001220672641445
 40
0.0001220672641445
 40
0.0001220672641445
 40
0.0001220672641445
 40
0.0427235406556745
 40
0.0427235406556745
 40
0.0427235406556745
 40
0.084136633557038
 40
0.084136633557038
 40
0.084136633557038
 40
0.084136633557038
 10
21.73039367720411
 20
-81.64948700818493
 30
0.0
 10
21.7100447815685
 20
-81.507189624136
 30
0.0
 10
21.69048933005982
 20
-81.36764801954939
 30
0.0
 10
21.69987154619534
 20
-81.23315324264061
 30
0.0
 10
21.7089920426831
 20
-81.10241023664923
 30
0.0
 10
21.74586539375091
 20
-80.97057027284123
 30
0.0
 10
21.78394158849144
 20
-80.83619415788988
 30
0.0
  0
SPLINE
  5
13E
330
1003B
100
AcDbEntity
  8
INSETS_D_1_0
100
AcDbSpline
210
0.0
220
0.0
230
1.0
 70
     8
 71
     3
 72
    11
 73
     7
 74
     0
 42
0.000000001
 43
0.001
 40
0.0002603971737906
 40
0.0002603971737906
 40
0.0002603971737906
 40
0.0002603971737906
 40
0.0415392191030047
 40
0.0415392191030047
 40
0.0415392191030047
 40
0.082817967136253
 40
0.082817967136253
 40
0.082817967136253
 40
0.082817967136253
 10
21.78394158849152
 20
-80.83619415788993
 30
0.0
 10
21.83869918811946
 20
-80.70869216074838
 30
0.0
 10
21.89285334553718
 20
-80.58351063669824
 30
0.0
 10
21.96536398120807
 20
-80.47340171305572
 30
0.0
 10
22.03787448707286
 20
-80.36329298652649
 30
0.0
 10
22.13148290926756
 20
-80.26409377566404
 30
0.0
 10
22.22698469811596
 20
-80.16342355615254
 30
0.0
  0
SPLINE
  5
13F
330
1003B
100
AcDbEntity
  8
INSETS_D_1_0
100
AcDbSpline
210
0.0
220
0.0
230
1.0
 70
     8
 71
     3
 72
    11
 73
     7
 74
     0
 42
0.000000001
 43
0.001
 40
0.0002595281641929
 40
0.0002595281641929
 40
0.0002595281641929
 40
0.0002595281641929
 40
0.0416725180196754
 40
0.0416725180196754
 40
0.0416725180196754
 40
0.0842743184714403
 40
0.0842743184714403
 40
0.0842743184714403
 40
0.0842743184714403
 10
22.22698469811599
 20
-80.1634235561526
 30
0.0
 10
22.3353902815601
 20
-80.0753614719303
 30
0.0
 10
22.44194103333229
 20
-79.98940640034435
 30
0.0
 10
22.55844749884074
 20
-79.92938204186913
 30
0.0
 10
22.67829842513832
 20
-79.86763461066624
 30
0.0
 10
22.81421796653449
 20
-79.83047982654438
 30
0.0
 10
22.95298280826358
 20
-79.79296539155254
 30
0.0
  0
LINE
  5
140
330
1003B
100
AcDbEntity
  8
INSETS_D_1_0
100
AcDbLine
 10
26.10659025508106
 20
-79.14369327014899
 30
0.0
 11
22.95298280826358
 21
-79.79296539155254
 31
0.0
  0
SPLINE
  5
141
330
1003B
100
AcDbEntity
  8
INSETS_D_1_0
100
AcDbSpline
210
0.0
220
0.0
230
1.0
 70
     8
 71
     3
 72
    11
 73
     7
 74
     0
 42
0.000000001
 43
0.001
 40
0.0001220658062893
 40
0.0001220658062893
 40
0.0001220658062893
 40
0.0001220658062893
 40
0.0427238361484534
 40
0.0427238361484534
 40
0.0427238361484534
 40
0.0841366312396499
 40
0.0841366312396499
 40
0.0841366312396499
 40
0.0841366312396499
 10
26.10659025508106
 20
-79.14369327014899
 30
0.0
 10
26.24888859793715
 20
-79.12334413051072
 30
0.0
 10
26.38843116787201
 20
-79.10378843302831
 30
0.0
 10
26.522926977744
 20
-79.11317054485431
 30
0.0
 10
26.65366913634721
 20
-79.12229081078345
 30
0.0
 10
26.7855083018734
 20
-79.15916327191005
 30
0.0
 10
26.9198835778755
 20
-79.1972385647452
 30
0.0
  0
SPLINE
  5
142
330
1003B
100
AcDbEntity
  8
INSETS_D_1_0
100
AcDbSpline
210
0.0
220
0.0
230
1.0
 70
     8
 71
     3
 72
    11
 73
     7
 74
     0
 42
0.000000001
 43
0.001
 40
0.0002604360930705
 40
0.0002604360930705
 40
0.0002604360930705
 40
0.0002604360930705
 40
0.0415394203888266
 40
0.0415394203888266
 40
0.0415394203888266
 40
0.0828178791032834
 40
0.0828178791032834
 40
0.0828178791032834
 40
0.0828178791032834
 10
26.91988357787546
 20
-79.19723856474533
 30
0.0
 10
27.04738512472894
 20
-79.25199817237448
 30
0.0
 10
27.17256635924088
 20
-79.30615435021582
 30
0.0
 10
27.28267592135673
 20
-79.37866584979682
 30
0.0
 10
27.39278408151155
 20
-79.45117642613104
 30
0.0
 10
27.49198358966606
 20
-79.5447831176266
 30
0.0
 10
27.59265400701069
 20
-79.64028301814349
 30
0.0
  0
SPLINE
  5
143
330
1003B
100
AcDbEntity
  8
INSETS_D_1_0
100
AcDbSpline
210
0.0
220
0.0
230
1.0
 70
     8
 71
     3
 72
    11
 73
     7
 74
     0
 42
0.000000001
 43
0.001
 40
0.0002595732439972
 40
0.0002595732439972
 40
0.0002595732439972
 40
0.0002595732439972
 40
0.0416726411850689
 40
0.0416726411850689
 40
0.0416726411850689
 40
0.0842741102480293
 40
0.0842741102480293
 40
0.0842741102480293
 40
0.0842741102480293
 10
27.59265400701066
 20
-79.6402830181435
 30
0.0
 10
27.68071489172763
 20
-79.74868964854942
 30
0.0
 10
27.76666890054581
 20
-79.85524153791779
 30
0.0
 10
27.82669371055498
 20
-79.97174865168697
 30
0.0
 10
27.88844100950551
 20
-80.0915990865766
 30
0.0
 10
27.92559755577088
 20
-80.22751694100188
 30
0.0
 10
27.96311377450344
 20
-80.36627989410832
 30
0.0
  0
LINE
  5
144
330
1003B
100
AcDbEntity
  8
INSETS_D_1_0
100
AcDbLine
 10
28.94503788764345
 20
-85.13562558650312
 30
0.0
 11
27.96311377450335
 21
-80.36627989410833
 31
0.0
  0
LINE
  5
145
330
1003B
100
AcDbEntity
  8
INSETS_D_1_0
100
AcDbLine
 10
27.3592967711464
 20
-85.46210169872305
 30
0.0
 11
28.94503788764345
 21
-85.13562558650312
 31
0.0
  0
LINE
  5
146
330
1003B
100
AcDbEntity
  8
INSETS_D_1_0
100
AcDbLine
 10
26.38688186224319
 20
-80.73894356976459
 30
0.0
 11
27.3592967711464
 21
-85.46210169872305
 31
0.0
  0
LINE
  5
147
330
1003B
100
AcDbEntity
  8
INSETS_D_1_0
100
AcDbLine
 10
23.32564340717974
 20
-81.36919854580702
 30
0.0
 11
26.38688186224319
 21
-80.73894356976459
 31
0.0
  0
LINE
  5
148
330
1003B
100
AcDbEntity
  8
INSETS_D_1_0
100
AcDbLine
 10
22.28825134776809
 20
-76.33043711437901
 30
0.0
 11
21.80652474453911
 21
-73.9906221844097
 31
0.0
  0
LINE
  5
149
330
1003B
100
AcDbEntity
  8
INSETS_D_1_0
100
AcDbLine
 10
20.70251081507293
 20
-76.65691310640445
 30
0.0
 11
22.28825134776809
 21
-76.33043711437901
 31
0.0
  0
LINE
  5
14A
330
1003B
100
AcDbEntity
  8
INSETS_D_1_0
100
AcDbLine
 10
20.2135040905776
 20
-74.28173758742736
 30
0.0
 11
20.70251081507293
 21
-76.65691310640445
 31
0.0
  0
SPLINE
  5
14B
330
1003B
100
AcDbEntity
  8
INSETS_D_1_0
100
AcDbSpline
210
0.0
220
0.0
230
1.0
 70
     8
 71
     3
 72
    11
 73
     7
 74
     0
 42
0.000000001
 43
0.001
 40
0.0001162623048145
 40
0.0001162623048145
 40
0.0001162623048145
 40
0.0001162623048145
 40
0.0435503461578782
 40
0.0435503461578782
 40
0.0435503461578782
 40
0.0852116233809788
 40
0.0852116233809788
 40
0.0852116233809788
 40
0.0852116233809788
 10
20.2135040905776
 20
-74.28173758742736
 30
0.0
 10
20.19233572667299
 20
-74.13670680400068
 30
0.0
 10
20.17197167632975
 20
-73.99444715067973
 30
0.0
 10
20.18131709100878
 20
-73.8572285944671
 30
0.0
 10
20.19028106301347
 20
-73.72561075420441
 30
0.0
 10
20.226970461373
 20
-73.5928454098967
 30
0.0
 10
20.26484798701567
 20
-73.45755947291755
 30
0.0
  0
SPLINE
  5
14C
330
1003B
100
AcDbEntity
  8
INSETS_D_1_0
100
AcDbSpline
210
0.0
220
0.0
230
1.0
 70
     8
 71
     3
 72
    11
 73
     7
 74
     0
 42
0.000000001
 43
0.001
 40
0.0002667100163362
 40
0.0002667100163362
 40
0.0002667100163362
 40
0.0002667100163362
 40
0.0415390317682486
 40
0.0415390317682486
 40
0.0415390317682486
 40
0.0828177599372025
 40
0.0828177599372025
 40
0.0828177599372025
 40
0.0828177599372025
 10
20.26484798701571
 20
-73.45755947291758
 30
0.0
 10
20.31959728172349
 20
-73.33007852088636
 30
0.0
 10
20.37374633271046
 20
-73.2049192889741
 30
0.0
 10
20.44624576578439
 20
-73.09482773782908
 30
0.0
 10
20.51875645244386
 20
-72.98471909793402
 30
0.0
 10
20.61236475240614
 20
-72.88551986953858
 30
0.0
 10
20.70786639999459
 20
-72.78484965522969
 30
0.0
  0
SPLINE
  5
14D
330
1003B
100
AcDbEntity
  8
INSETS_D_1_0
100
AcDbSpline
210
0.0
220
0.0
230
1.0
 70
     8
 71
     3
 72
    11
 73
     7
 74
     0
 42
0.000000001
 43
0.001
 40
0.0002595482624451
 40
0.0002595482624451
 40
0.0002595482624451
 40
0.0002595482624451
 40
0.0416724226649344
 40
0.0416724226649344
 40
0.0416724226649344
 40
0.0842742553793054
 40
0.0842742553793054
 40
0.0842742553793054
 40
0.0842742553793054
 10
20.70786639999458
 20
-72.78484965522968
 30
0.0
 10
20.81627233251345
 20
-72.69678892678746
 30
0.0
 10
20.92282351991511
 20
-72.61083506558896
 30
0.0
 10
21.03932990835764
 20
-72.55081029390462
 30
0.0
 10
21.15918118026758
 20
-72.48906221872484
 30
0.0
 10
21.29510023962914
 20
-72.45190543047937
 30
0.0
 10
21.4338644388408
 20
-72.41438896978687
 30
0.0
  0
LINE
  5
14E
330
1003B
100
AcDbEntity
  8
INSETS_D_1_0
100
AcDbLine
 10
27.99887909357754
 20
-71.06276830557643
 30
0.0
 11
21.43386443884079
 21
-72.41438896978683
 31
0.0
  0
LINE
  5
14F
330
1003B
100
AcDbEntity
  8
INSETS_D_1_0
100
AcDbLine
 10
28.32535532599203
 20
-72.64851000587537
 30
0.0
 11
27.99887909357754
 21
-71.06276830557643
 31
0.0
  0
LINE
  5
150
330
1003B
100
AcDbEntity
  8
INSETS_D_1_0
100
AcDbLine
 10
26.45350431609961
 20
-73.03389109614731
 30
0.0
 11
28.32535532599203
 21
-72.64851000587537
 31
0.0
  0
LINE
  5
151
330
1003B
100
AcDbEntity
  8
INSETS_D_1_0
100
AcDbLine
 10
26.93523091932857
 20
-75.37370602611662
 30
0.0
 11
26.45350431609961
 21
-73.03389109614731
 31
0.0
  0
LINE
  5
152
330
1003B
100
AcDbEntity
  8
INSETS_D_1_0
100
AcDbLine
 10
25.34948980283153
 20
-75.70018213833654
 30
0.0
 11
26.93523091932857
 21
-75.37370602611662
 31
0.0
  0
LINE
  5
153
330
1003B
100
AcDbEntity
  8
INSETS_D_1_0
100
AcDbLine
 10
24.86776319960256
 20
-73.36036720836726
 30
0.0
 11
25.34948980283153
 21
-75.70018213833654
 31
0.0
  0
LINE
  5
154
330
1003B
100
AcDbEntity
  8
INSETS_D_1_0
100
AcDbLine
 10
21.80652474453911
 20
-73.9906221844097
 30
0.0
 11
24.86776319960256
 21
-73.36036720836726
 31
0.0
  0
LINE
  5
155
330
1003B
100
AcDbEntity
  8
INSETS_D_1_0
100
AcDbLine
 10
23.0126109990608
 20
-56.32098069910172
 30
0.0
 11
21.42686988256375
 21
-56.64745681132167
 31
0.0
  0
LINE
  5
156
330
1003B
100
AcDbEntity
  8
INSETS_D_1_0
100
AcDbLine
 10
23.99679497708163
 20
-61.10130287806038
 30
0.0
 11
23.0126109990608
 21
-56.32098069910172
 31
0.0
  0
SPLINE
  5
157
330
1003B
100
AcDbEntity
  8
INSETS_D_1_0
100
AcDbSpline
210
0.0
220
0.0
230
1.0
 70
     8
 71
     3
 72
    11
 73
     7
 74
     0
 42
0.000000001
 43
0.001
 40
0.0001125866921389
 40
0.0001125866921389
 40
0.0001125866921389
 40
0.0001125866921389
 40
0.0435326036063221
 40
0.0435326036063221
 40
0.0435326036063221
 40
0.0850177316685724
 40
0.0850177316685724
 40
0.0850177316685724
 40
0.0850177316685724
 10
23.99679497708163
 20
-61.10130287806038
 30
0.0
 10
24.01821628492655
 20
-61.24617697300602
 30
0.0
 10
24.03885238347181
 20
-61.38833307205556
 30
0.0
 10
24.03031900104517
 20
-61.5257338442147
 30
0.0
 10
24.02216588439686
 20
-61.65701174399396
 30
0.0
 10
23.9870381666223
 20
-61.78957362635384
 30
0.0
 10
23.95077490585393
 20
-61.92461064264145
 30
0.0
  0
SPLINE
  5
158
330
1003B
100
AcDbEntity
  8
INSETS_D_1_0
100
AcDbSpline
210
0.0
220
0.0
230
1.0
 70
     8
 71
     3
 72
    11
 73
     7
 74
     0
 42
0.000000001
 43
0.001
 40
0.0002785179608958
 40
0.0002785179608958
 40
0.0002785179608958
 40
0.0002785179608958
 40
0.0413441416556432
 40
0.0413441416556432
 40
0.0413441416556432
 40
0.0829306192783921
 40
0.0829306192783921
 40
0.0829306192783921
 40
0.0829306192783921
 10
23.95077490585399
 20
-61.92461064264147
 30
0.0
 10
23.89681398704802
 20
-62.05186732739606
 30
0.0
 10
23.84346245888711
 20
-62.17662497148205
 30
0.0
 10
23.77074614195612
 20
-62.28514389638524
 30
0.0
 10
23.69710753100166
 20
-62.39503921602477
 30
0.0
 10
23.60055445704089
 20
-62.49284011482969
 30
0.0
 10
23.50190342849116
 20
-62.59218020341975
 30
0.0
  0
SPLINE
  5
159
330
1003B
100
AcDbEntity
  8
INSETS_D_1_0
100
AcDbSpline
210
0.0
220
0.0
230
1.0
 70
     8
 71
     3
 72
    11
 73
     7
 74
     0
 42
0.000000001
 43
0.001
 40
0.0002472424084724
 40
0.0002472424084724
 40
0.0002472424084724
 40
0.0002472424084724
 40
0.042019293619743
 40
0.042019293619743
 40
0.042019293619743
 40
0.0840477481144562
 40
0.0840477481144562
 40
0.0840477481144562
 40
0.0840477481144562
 10
23.50190342849119
 20
-62.59218020341979
 30
0.0
 10
23.39119338731778
 20
-62.6790980223165
 30
0.0
 10
23.28232027175058
 20
-62.76402473514607
 30
0.0
 10
23.16390260729804
 20
-62.82361573081299
 30
0.0
 10
23.04475807698417
 20
-62.88357250518863
 30
0.0
 10
22.91079209637967
 20
-62.92047614125921
 30
0.0
 10
22.7741430493831
 20
-62.95773896668014
 30
0.0
  0
LINE
  5
15A
330
1003B
100
AcDbEntity
  8
INSETS_D_1_0
100
AcDbLine
 10
18.08102246173417
 20
-63.92396967590192
 30
0.0
 11
22.7741430493831
 21
-62.95773896668016
 31
0.0
  0
LINE
  5
15B
330
1003B
100
AcDbEntity
  8
INSETS_D_1_0
100
AcDbLine
 10
17.09686088280352
 20
-59.14375629252451
 30
0.0
 11
18.08102246173417
 21
-63.92396967590192
 31
0.0
  0
SPLINE
  5
15C
330
1003B
100
AcDbEntity
  8
INSETS_D_1_0
100
AcDbSpline
210
0.0
220
0.0
230
1.0
 70
     8
 71
     3
 72
    11
 73
     7
 74
     0
 42
0.000000001
 43
0.001
 40
0.000123320503789
 40
0.000123320503789
 40
0.000123320503789
 40
0.000123320503789
 40
0.0428618351052684
 40
0.0428618351052684
 40
0.0428618351052684
 40
0.0846608283953309
 40
0.0846608283953309
 40
0.0846608283953309
 40
0.0846608283953309
 10
17.09686088280352
 20
-59.14375629252451
 30
0.0
 10
17.07653982144878
 20
-59.00103764145059
 30
0.0
 10
17.05699441603057
 20
-58.86103369992565
 30
0.0
 10
17.06606228276169
 20
-58.72593837181724
 30
0.0
 10
17.07493081046285
 20
-58.59381284602917
 30
0.0
 10
17.11155712893539
 20
-58.46056285088348
 30
0.0
 10
17.14935840019532
 20
-58.32479305654314
 30
0.0
  0
SPLINE
  5
15D
330
1003B
100
AcDbEntity
  8
INSETS_D_1_0
100
AcDbSpline
210
0.0
220
0.0
230
1.0
 70
     8
 71
     3
 72
    11
 73
     7
 74
     0
 42
0.000000001
 43
0.001
 40
0.0002560960182284
 40
0.0002560960182284
 40
0.0002560960182284
 40
0.0002560960182284
 40
0.0417576299068229
 40
0.0417576299068229
 40
0.0417576299068229
 40
0.0828582825278173
 40
0.0828582825278173
 40
0.0828582825278173
 40
0.0828582825278173
 10
17.14935840019529
 20
-58.32479305654311
 30
0.0
 10
17.20360262249713
 20
-58.1961469587352
 30
0.0
 10
17.25723966128385
 20
-58.0699311638697
 30
0.0
 10
17.33012247221648
 20
-57.95953675496684
 30
0.0
 10
17.40230127655236
 20
-57.85020869341142
 30
0.0
 10
17.49619423896063
 20
-57.75209823962228
 30
0.0
 10
17.59206443842513
 20
-57.65248909622993
 30
0.0
  0
SPLINE
  5
15E
330
1003B
100
AcDbEntity
  8
INSETS_D_1_0
100
AcDbSpline
210
0.0
220
0.0
230
1.0
 70
     8
 71
     3
 72
    11
 73
     7
 74
     0
 42
0.000000001
 43
0.001
 40
0.0002666749585471
 40
0.0002666749585471
 40
0.0002666749585471
 40
0.0002666749585471
 40
0.0415075011706474
 40
0.0415075011706474
 40
0.0415075011706474
 40
0.0840953240151261
 40
0.0840953240151261
 40
0.0840953240151261
 40
0.0840953240151261
 10
17.59206443842516
 20
-57.65248909622996
 30
0.0
 10
17.70089488894197
 20
-57.56599878734559
 30
0.0
 10
17.80788942961595
 20
-57.48154595609827
 30
0.0
 10
17.9244164962813
 20
-57.42239323464283
 30
0.0
 10
18.0447495382579
 20
-57.36130848311149
 30
0.0
 10
18.1806845757291
 20
-57.32444632697497
 30
0.0
 10
18.31940898973957
 20
-57.28722817160899
 30
0.0
  0
LINE
  5
15F
330
1003B
100
AcDbEntity
  8
INSETS_D_1_0
100
AcDbLine
 10
20.69456312261088
 20
-56.79822585013551
 30
0.0
 11
18.31940898973956
 21
-57.28722817160897
 31
0.0
  0
LINE
  5
160
330
1003B
100
AcDbEntity
  8
INSETS_D_1_0
100
AcDbLine
 10
21.66921893790343
 20
-61.53226838155649
 30
0.0
 11
20.69456312261088
 21
-56.79822585013551
 31
0.0
  0
LINE
  5
161
330
1003B
100
AcDbEntity
  8
INSETS_D_1_0
100
AcDbLine
 10
22.40152569785631
 20
-61.38149934274266
 30
0.0
 11
21.66921893790343
 21
-61.53226838155649
 31
0.0
  0
LINE
  5
162
330
1003B
100
AcDbEntity
  8
INSETS_D_1_0
100
AcDbLine
 10
21.42686988256375
 20
-56.64745681132167
 30
0.0
 11
22.40152569785631
 21
-61.38149934274266
 31
0.0
  0
LINE
  5
163
330
1003B
100
AcDbEntity
  8
INSETS_D_1_0
100
AcDbLine
 10
27.3244174266507
 20
-100.3901349399304
 30
0.0
 11
31.97139699821119
 21
-99.433403851668
 31
0.0
  0
LINE
  5
164
330
1003B
100
AcDbEntity
  8
INSETS_D_1_0
100
AcDbLine
 10
27.93992875560212
 20
-103.3797613948373
 30
0.0
 11
27.3244174266507
 21
-100.3901349399304
 31
0.0
  0
LINE
  5
165
330
1003B
100
AcDbEntity
  8
INSETS_D_1_0
100
AcDbLine
 10
32.58690832716262
 20
-102.4230303065749
 30
0.0
 11
27.93992875560212
 21
-103.3797613948373
 31
0.0
  0
LINE
  5
166
330
1003B
100
AcDbEntity
  8
INSETS_D_1_0
100
AcDbLine
 10
32.94605233272572
 20
-104.1674440478814
 30
0.0
 11
32.58690832716262
 21
-102.4230303065749
 31
0.0
  0
LINE
  5
167
330
1003B
100
AcDbEntity
  8
INSETS_D_1_0
100
AcDbLine
 10
28.17117043376672
 20
-105.1505079682553
 30
0.0
 11
32.94605233272572
 21
-104.1674440478814
 31
0.0
  0
SPLINE
  5
168
330
1003B
100
AcDbEntity
  8
INSETS_D_1_0
100
AcDbSpline
210
0.0
220
0.0
230
1.0
 70
     8
 71
     3
 72
    17
 73
    13
 74
     0
 42
0.000000001
 43
0.001
 40
-0.0001182475472035
 40
-0.0001182475472035
 40
-0.0001182475472035
 40
-0.0001182475472035
 40
0.0
 40
0.0
 40
0.0
 40
0.0427060731658262
 40
0.0427060731658262
 40
0.0427060731658262
 40
0.0842134809978547
 40
0.0842134809978547
 40
0.0842134809978547
 40
0.0844761185455606
 40
0.0844761185455606
 40
0.0844761185455606
 40
0.0844761185455606
 10
28.17117043376618
 20
-105.1505079682553
 30
0.0
 10
28.17077571997828
 20
-105.1505651930948
 30
0.0
 10
28.1703810061899
 20
-105.1506224179345
 30
0.0
 10
28.16998629240154
 20
-105.1506796427741
 30
0.0
 10
28.02743216483332
 20
-105.171346863741
 30
0.0
 10
27.88216517807224
 20
-105.1927126968749
 30
0.0
 10
27.73576727847044
 20
-105.1833832493203
 30
0.0
 10
27.59347844519539
 20
-105.1743156587931
 30
0.0
 10
27.45589885136849
 20
-105.1366197352356
 30
0.0
 10
27.32085312711387
 20
-105.0999086977966
 30
0.0
 10
27.31999862716555
 20
-105.099676409216
 30
0.0
 10
27.31914412721725
 20
-105.0994441206355
 30
0.0
 10
27.31828962726907
 20
-105.099211832055
 30
0.0
  0
SPLINE
  5
169
330
1003B
100
AcDbEntity
  8
INSETS_D_1_0
100
AcDbSpline
210
0.0
220
0.0
230
1.0
 70
     8
 71
     3
 72
    17
 73
    13
 74
     0
 42
0.000000001
 43
0.001
 40
-0.0002632552021787
 40
-0.0002632552021787
 40
-0.0002632552021787
 40
-0.0002632552021787
 40
0.0
 40
0.0
 40
0.0
 40
0.0412826365186235
 40
0.0412826365186235
 40
0.0412826365186235
 40
0.0827129155486298
 40
0.0827129155486298
 40
0.0827129155486298
 40
0.0829806338873435
 40
0.0829806338873435
 40
0.0829806338873435
 40
0.0829806338873435
 10
27.31828962726949
 20
-105.0992118320534
 30
0.0
 10
27.31747279139699
 20
-105.0988699149756
 30
0.0
 10
27.31665595552441
 20
-105.0985279978978
 30
0.0
 10
27.31583911965182
 20
-105.0981860808201
 30
0.0
 10
27.18774615835713
 20
-105.0445680010093
 30
0.0
 10
27.05732754306683
 20
-104.990222664498
 30
0.0
 10
26.93872224383609
 20
-104.9130011306403
 30
0.0
 10
26.81969276665262
 20
-104.8355034230168
 30
0.0
 10
26.71692130616563
 20
-104.7378043542921
 30
0.0
 10
26.61576007568072
 20
-104.6419462282181
 30
0.0
 10
26.61510638187991
 20
-104.6413268025501
 30
0.0
 10
26.6144526880791
 20
-104.6407073768821
 30
0.0
 10
26.61379899427827
 20
-104.640087951214
 30
0.0
  0
SPLINE
  5
16A
330
1003B
100
AcDbEntity
  8
INSETS_D_1_0
100
AcDbSpline
210
0.0
220
0.0
230
1.0
 70
     8
 71
     3
 72
    17
 73
    13
 74
     0
 42
0.000000001
 43
0.001
 40
-0.0002669905418485
 40
-0.0002669905418485
 40
-0.0002669905418485
 40
-0.0002669905418485
 40
0.0
 40
0.0
 40
0.0
 40
0.0419271456602215
 40
0.0419271456602215
 40
0.0419271456602215
 40
0.0854772553474518
 40
0.0854772553474518
 40
0.0854772553474518
 40
0.0855935148364457
 40
0.0855935148364457
 40
0.0855935148364457
 40
0.0855935148364457
 10
26.61379899427939
 20
-104.6400879512138
 30
0.0
 10
26.6132333676444
 20
-104.6393871871705
 30
0.0
 10
26.61266774100947
 20
-104.6386864231274
 30
0.0
 10
26.61210211437454
 20
-104.6379856590842
 30
0.0
 10
26.52327833002487
 20
-104.5279404271123
 30
0.0
 10
26.43250054642987
 20
-104.4159446738509
 30
0.0
 10
26.36676085659346
 20
-104.2878280472991
 30
0.0
 10
26.29847643946711
 20
-104.154752135471
 30
0.0
 10
26.2600980859194
 20
-104.0099198166805
 30
0.0
 10
26.22214972840199
 20
-103.8679290941879
 30
0.0
 10
26.22204842310827
 20
-103.8675500418971
 30
0.0
 10
26.22194711781457
 20
-103.8671709896064
 30
0.0
 10
26.22184581252085
 20
-103.8667919373157
 30
0.0
  0
LINE
  5
16B
330
1003B
100
AcDbEntity
  8
INSETS_D_1_0
100
AcDbLine
 10
25.55366090551307
 20
-100.6213223889921
 30
0.0
 11
26.22184581252085
 21
-103.8667919373157
 31
0.0
  0
SPLINE
  5
16C
330
1003B
100
AcDbEntity
  8
INSETS_D_1_0
100
AcDbSpline
210
0.0
220
0.0
230
1.0
 70
     8
 71
     3
 72
    17
 73
    13
 74
     0
 42
0.000000001
 43
0.001
 40
-0.000123324254954
 40
-0.000123324254954
 40
-0.000123324254954
 40
-0.000123324254954
 40
0.0
 40
0.0
 40
0.0
 40
0.0428611258834482
 40
0.0428611258834482
 40
0.0428611258834482
 40
0.0849160707570971
 40
0.0849160707570971
 40
0.0849160707570971
 40
0.0851715453721256
 40
0.0851715453721256
 40
0.0851715453721256
 40
0.0851715453721256
 10
25.55366090551303
 20
-100.6213223889919
 30
0.0
 10
25.55360226272472
 20
-100.6209105209117
 30
0.0
 10
25.55354361993642
 20
-100.6204986528315
 30
0.0
 10
25.55348497714811
 20
-100.6200867847513
 30
0.0
 10
25.53310378017529
 20
-100.4769427646259
 30
0.0
 10
25.51202676008224
 20
-100.3310743161506
 30
0.0
 10
25.52188494848942
 20
-100.1841978104687
 30
0.0
 10
25.53155771282942
 20
-100.0400839258619
 30
0.0
 10
25.57061768839296
 20
-99.90088937448307
 30
0.0
 10
25.60865971068785
 20
-99.76425605207267
 30
0.0
 10
25.6088908076737
 20
-99.76342603444817
 30
0.0
 10
25.60912190465956
 20
-99.76259601682365
 30
0.0
 10
25.60935300164542
 20
-99.7617659991991
 30
0.0
  0
SPLINE
  5
16D
330
1003B
100
AcDbEntity
  8
INSETS_D_1_0
100
AcDbSpline
210
0.0
220
0.0
230
1.0
 70
     8
 71
     3
 72
    17
 73
    13
 74
     0
 42
0.000000001
 43
0.001
 40
-0.0002560579289101
 40
-0.0002560579289101
 40
-0.0002560579289101
 40
-0.0002560579289101
 40
0.0
 40
0.0
 40
0.0
 40
0.0417580057872373
 40
0.0417580057872373
 40
0.0417580057872373
 40
0.0831257511475781
 40
0.0831257511475781
 40
0.0831257511475781
 40
0.083392927281487
 40
0.083392927281487
 40
0.083392927281487
 40
0.083392927281487
 10
25.60935300164591
 20
-99.76176599919899
 30
0.0
 10
25.60968773963728
 20
-99.76097209394817
 30
0.0
 10
25.61002247762865
 20
-99.76017818869735
 30
0.0
 10
25.61035721562003
 20
-99.75938428344655
 30
0.0
 10
25.66494639018767
 20
-99.62991397101115
 30
0.0
 10
25.72027965501848
 20
-99.49806905527885
 30
0.0
 10
25.79916433358074
 20
-99.37858360186473
 30
0.0
 10
25.87731177463008
 20
-99.26021483118434
 30
0.0
 10
25.97569739228232
 20
-99.15833049085138
 30
0.0
 10
26.0722142319712
 20
-99.05805236832956
 30
0.0
 10
26.072837591931
 20
-99.05740471589269
 30
0.0
 10
26.0734609518908
 20
-99.05675706345579
 30
0.0
 10
26.07408431185073
 20
-99.05610941101881
 30
0.0
  0
SPLINE
  5
16E
330
1003B
100
AcDbEntity
  8
INSETS_D_1_0
100
AcDbSpline
210
0.0
220
0.0
230
1.0
 70
     8
 71
     3
 72
    17
 73
    13
 74
     0
 42
0.000000001
 43
0.001
 40
-0.0002666101051965
 40
-0.0002666101051965
 40
-0.0002666101051965
 40
-0.0002666101051965
 40
0.0
 40
0.0
 40
0.0
 40
0.0415075945104259
 40
0.0415075945104259
 40
0.0415075945104259
 40
0.0842136071964912
 40
0.0842136071964912
 40
0.0842136071964912
 40
0.0843318225106823
 40
0.0843318225106823
 40
0.0843318225106823
 40
0.0843318225106823
 10
26.07408431185062
 20
-99.0561094110187
 30
0.0
 10
26.07478803664633
 20
-99.0555501233182
 30
0.0
 10
26.07549176144214
 20
-99.05499083561764
 30
0.0
 10
26.07619548623796
 20
-99.05443154791709
 30
0.0
 10
26.18575593763147
 20
-98.96735800255357
 30
0.0
 10
26.29725524256278
 20
-98.87837853720262
 30
0.0
 10
26.42439095806555
 20
-98.81384102392205
 30
0.0
 10
26.55519736935372
 20
-98.74744016659953
 30
0.0
 10
26.69709092344536
 20
-98.70968713688997
 30
0.0
 10
26.83621606630825
 20
-98.67236391076071
 30
0.0
 10
26.83660118122398
 20
-98.67226059563889
 30
0.0
 10
26.83698629613971
 20
-98.67215728051704
 30
0.0
 10
26.83737141105506
 20
-98.67205396539532
 30
0.0
  0
LINE
  5
16F
330
1003B
100
AcDbEntity
  8
INSETS_D_1_0
100
AcDbLine
 10
31.61225299264809
 20
-97.68899011036146
 30
0.0
 11
26.83737141105507
 21
-98.67205396539532
 31
0.0
  0
LINE
  5
170
330
1003B
100
AcDbEntity
  8
INSETS_D_1_0
100
AcDbLine
 10
31.97139699821119
 20
-99.433403851668
 30
0.0
 11
31.61225299264809
 21
-97.68899011036146
 31
0.0
  0
LWPOLYLINE
  5
171
330
1003B
100
AcDbEntity
  8
INSETS_D_1_0
100
AcDbPolyline
 90
        4
 70
     1
 43
0.0
 10
18.6921076599148
 20
-58.86345348766306
 10
19.64207211141989
 20
-58.66787257117672
 10
20.29025169429796
 20
-61.81617340229877
 10
19.34028724279287
 20
-62.0117543187851
  0
LWPOLYLINE
  5
172
330
1003B
100
AcDbEntity
  8
INSETS_D_1_0
100
AcDbPolyline
 90
        7
 70
     1
 43
0.0
 10
31.95820087547526
 20
-131.3274076855014
 10
40.63938548377497
 20
-134.2227185161419
 10
40.25720310352533
 20
-132.3664040977865
 10
33.8444393488879
 20
-130.2368782364227
 10
38.89445829733395
 20
-125.7473578962855
 10
38.51003548477228
 20
-123.8801613781288
 10
31.67858037605612
 20
-129.9692509740371
  0
LWPOLYLINE
  5
173
330
1003B
100
AcDbEntity
  8
INSETS_D_1_0
100
AcDbPolyline
 90
       10
 70
     1
 43
0.0
 10
31.31937586152282
 20
-97.14804796617247
 10
32.93776551499232
 20
-96.81485009634056
 10
31.46410867576325
 20
-89.65708830579935
 10
23.70778881725532
 20
-91.25397768843322
 10
24.04322771367113
 20
-92.88325232816715
 10
27.1121925242894
 20
-92.2514066318634
 10
28.02859198512943
 20
-96.70248972737214
 10
29.64698163859894
 20
-96.3692918575402
 10
28.7305821777589
 20
-91.91820876203145
 10
30.18115791870956
 20
-91.61956081536518
  0
LINE
  5
174
330
1003B
100
AcDbEntity
  8
INSETS_D_1_0
100
AcDbLine
 10
23.02578165871191
 20
-64.17976488579784
 30
0.0
 11
19.87217432413929
 21
-64.82903698409218
 31
0.0
  0
SPLINE
  5
175
330
1003B
100
AcDbEntity
  8
INSETS_D_1_0
100
AcDbSpline
210
0.0
220
0.0
230
1.0
 70
     8
 71
     3
 72
    11
 73
     7
 74
     0
 42
0.000000001
 43
0.001
 40
0.0002595482623658
 40
0.0002595482623658
 40
0.0002595482623658
 40
0.0002595482623658
 40
0.0416724226649344
 40
0.0416724226649344
 40
0.0416724226649344
 40
0.0842742553793388
 40
0.0842742553793388
 40
0.0842742553793388
 40
0.0842742553793388
 10
19.14617628529213
 20
-65.19949766953562
 30
0.0
 10
19.25458221781121
 20
-65.1114369410932
 30
0.0
 10
19.36113340521306
 20
-65.02548307989449
 30
0.0
 10
19.47763979365581
 20
-64.96545830821003
 30
0.0
 10
19.59749106556584
 20
-64.90371023303021
 30
0.0
 10
19.73341012492751
 20
-64.86655344478473
 30
0.0
 10
19.87217432413929
 20
-64.82903698409218
 30
0.0
  0
SPLINE
  5
176
330
1003B
100
AcDbEntity
  8
INSETS_D_1_0
100
AcDbSpline
210
0.0
220
0.0
230
1.0
 70
     8
 71
     3
 72
    11
 73
     7
 74
     0
 42
0.000000001
 43
0.001
 40
0.0002604011354744
 40
0.0002604011354744
 40
0.0002604011354744
 40
0.0002604011354744
 40
0.0415390317682486
 40
0.0415390317682486
 40
0.0415390317682486
 40
0.0828177599371227
 40
0.0828177599371227
 40
0.0828177599371227
 40
0.0828177599371227
 10
18.70313276526709
 20
-65.87226594773327
 30
0.0
 10
18.75789067236499
 20
-65.74476482491008
 30
0.0
 10
18.81204513575625
 20
-65.6195841318574
 30
0.0
 10
18.88455565108255
 20
-65.50947575213449
 30
0.0
 10
18.95706633774189
 20
-65.39936711223963
 30
0.0
 10
19.05067463770394
 20
-65.30016788384437
 30
0.0
 10
19.1461762852922
 20
-65.1994976695357
 30
0.0
  0
SPLINE
  5
177
330
1003B
100
AcDbEntity
  8
INSETS_D_1_0
100
AcDbSpline
210
0.0
220
0.0
230
1.0
 70
     8
 71
     3
 72
    11
 73
     7
 74
     0
 42
0.000000001
 43
0.001
 40
0.0001220614419616
 40
0.0001220614419616
 40
0.0001220614419616
 40
0.0001220614419616
 40
0.0427240134441376
 40
0.0427240134441376
 40
0.0427240134441376
 40
0.0841368839990328
 40
0.0841368839990328
 40
0.0841368839990328
 40
0.0841368839990328
 10
18.64958536886329
 20
-66.6855609391003
 30
0.0
 10
18.62923582557801
 20
-66.5432619518387
 30
0.0
 10
18.60967975421804
 20
-66.40371880054843
 30
0.0
 10
18.61906228357784
 20
-66.26922262480522
 30
0.0
 10
18.62818293311604
 20
-66.13848042980212
 30
0.0
 10
18.66505641935255
 20
-66.00664126772466
 30
0.0
 10
18.70313276526715
 20
-65.8722659477333
 30
0.0
  0
LINE
  5
178
330
1003B
100
AcDbEntity
  8
INSETS_D_1_0
100
AcDbLine
 10
18.64958536886329
 20
-66.6855609391003
 30
0.0
 11
19.63374991243468
 21
-71.46578872216155
 31
0.0
  0
LINE
  5
179
330
1003B
100
AcDbEntity
  8
INSETS_D_1_0
100
AcDbLine
 10
19.63374991243468
 20
-71.46578872216155
 30
0.0
 11
21.21949044512984
 21
-71.13931273013608
 31
0.0
  0
LINE
  5
17A
330
1003B
100
AcDbEntity
  8
INSETS_D_1_0
100
AcDbLine
 10
21.21949044512984
 20
-71.13931273013608
 30
0.0
 11
20.24483462983729
 21
-66.4052701987151
 31
0.0
  0
LINE
  5
17B
330
1003B
100
AcDbEntity
  8
INSETS_D_1_0
100
AcDbLine
 10
20.24483462983729
 20
-66.4052701987151
 30
0.0
 11
23.30607308490073
 21
-65.77501522267266
 31
0.0
  0
LINE
  5
17C
330
1003B
100
AcDbEntity
  8
INSETS_D_1_0
100
AcDbLine
 10
23.30607308490073
 20
-65.77501522267266
 30
0.0
 11
24.27848799380394
 21
-70.49817335163111
 31
0.0
  0
LINE
  5
17D
330
1003B
100
AcDbEntity
  8
INSETS_D_1_0
100
AcDbLine
 10
24.27848799380394
 20
-70.49817335163111
 30
0.0
 11
25.86422911030099
 21
-70.17169723941117
 31
0.0
  0
LINE
  5
17E
330
1003B
100
AcDbEntity
  8
INSETS_D_1_0
100
AcDbLine
 10
25.86422911030099
 20
-70.17169723941117
 30
0.0
 11
24.88230546616263
 21
-65.40235382502482
 31
0.0
  0
SPLINE
  5
17F
330
1003B
100
AcDbEntity
  8
INSETS_D_1_0
100
AcDbSpline
210
0.0
220
0.0
230
1.0
 70
     8
 71
     3
 72
    11
 73
     7
 74
     0
 42
0.000000001
 43
0.001
 40
0.000259554181971
 40
0.000259554181971
 40
0.000259554181971
 40
0.000259554181971
 40
0.0416724226649344
 40
0.0416724226649344
 40
0.0416724226649344
 40
0.0842743703386728
 40
0.0842743703386728
 40
0.0842743703386728
 40
0.0842743703386728
 10
24.51184517990037
 20
-64.67635459898082
 30
0.0
 10
24.59990594021775
 20
-64.7847605015313
 30
0.0
 10
24.6858598185984
 20
-64.89131165416298
 30
0.0
 10
24.74588448203063
 20
-65.00781802683294
 30
0.0
 10
24.80763262130106
 20
-65.12766962306284
 30
0.0
 10
24.844789209106
 20
-65.26358914325624
 30
0.0
 10
24.88230546616264
 20
-65.40235382502482
 30
0.0
  0
SPLINE
  5
180
330
1003B
100
AcDbEntity
  8
INSETS_D_1_0
100
AcDbSpline
210
0.0
220
0.0
230
1.0
 70
     8
 71
     3
 72
    11
 73
     7
 74
     0
 42
0.000000001
 43
0.001
 40
0.0002603834362683
 40
0.0002603834362683
 40
0.0002603834362683
 40
0.0002603834362683
 40
0.0415391254355612
 40
0.0415391254355612
 40
0.0415391254355612
 40
0.0828177908084211
 40
0.0828177908084211
 40
0.0828177908084211
 40
0.0828177908084211
 10
23.83907524159947
 20
-64.23331250245784
 30
0.0
 10
23.96657679082805
 20
-64.28807034905398
 30
0.0
 10
24.09175791971198
 20
-64.34222474777211
 30
0.0
 10
24.20186677910863
 20
-64.41473524380358
 30
0.0
 10
24.31197543410834
 20
-64.48724560523259
 30
0.0
 10
24.41117481647986
 20
-64.58085343628636
 30
0.0
 10
24.51184517990036
 20
-64.67635459898085
 30
0.0
  0
SPLINE
  5
181
330
1003B
100
AcDbEntity
  8
INSETS_D_1_0
100
AcDbSpline
210
0.0
220
0.0
230
1.0
 70
     8
 71
     3
 72
    11
 73
     7
 74
     0
 42
0.000000001
 43
0.001
 40
0.0001220473908083
 40
0.0001220473908083
 40
0.0001220473908083
 40
0.0001220473908083
 40
0.0427238051461483
 40
0.0427238051461483
 40
0.0427238051461483
 40
0.0841368435678968
 40
0.0841368435678968
 40
0.0841368435678968
 40
0.0841368435678968
 10
23.02578165871191
 20
-64.17976488579784
 30
0.0
 10
23.16807996584499
 20
-64.15941442751955
 30
0.0
 10
23.30762236247603
 20
-64.1398574844336
 30
0.0
 10
23.44211763057611
 20
-64.14923985634297
 30
0.0
 10
23.57286006935901
 20
-64.15836043138124
 30
0.0
 10
23.70469953241226
 20
-64.19523500481004
 30
0.0
 10
23.8390752415995
 20
-64.23331250245774
 30
0.0
  0
LINE
  5
182
330
1003B
100
AcDbEntity
  8
INSETS_D_1_0
100
AcDbLine
 10
24.33615798554901
 20
-52.22550435096886
 30
0.0
 11
17.56436880654208
 21
-53.61969624076431
 31
0.0
  0
SPLINE
  5
183
330
1003B
100
AcDbEntity
  8
INSETS_D_1_0
100
AcDbSpline
210
0.0
220
0.0
230
1.0
 70
     8
 71
     3
 72
    11
 73
     7
 74
     0
 42
0.000000001
 43
0.001
 40
0.0002595516911277
 40
0.0002595516911277
 40
0.0002595516911277
 40
0.0002595516911277
 40
0.0416724226649344
 40
0.0416724226649344
 40
0.0416724226649344
 40
0.0842742467223588
 40
0.0842742467223588
 40
0.0842742467223588
 40
0.0842742467223588
 10
16.83837064153666
 20
-53.99015570460514
 30
0.0
 10
16.94677653284146
 20
-53.9020948933501
 30
0.0
 10
17.05332766539028
 20
-53.81614097537974
 30
0.0
 10
17.16983405315439
 20
-53.75611640917321
 30
0.0
 10
17.28968530993471
 20
-53.6943685528058
 30
0.0
 10
17.425604474503
 20
-53.65721223047518
 30
0.0
 10
17.56436880654208
 20
-53.61969624076431
 30
0.0
  0
SPLINE
  5
184
330
1003B
100
AcDbEntity
  8
INSETS_D_1_0
100
AcDbSpline
210
0.0
220
0.0
230
1.0
 70
     8
 71
     3
 72
    11
 73
     7
 74
     0
 42
0.000000001
 43
0.001
 40
0.0002603977447273
 40
0.0002603977447273
 40
0.0002603977447273
 40
0.0002603977447273
 40
0.0415391254355612
 40
0.0415391254355612
 40
0.0415391254355612
 40
0.0828179238324955
 40
0.0828179238324955
 40
0.0828179238324955
 40
0.0828179238324955
 10
16.39532756483952
 20
-54.66292632551544
 30
0.0
 10
16.45008538553581
 20
-54.53542481472439
 30
0.0
 10
16.5042397653777
 20
-54.41024372986163
 30
0.0
 10
16.57675024531029
 20
-54.3001349277024
 30
0.0
 10
16.64926084944567
 20
-54.19002593693843
 30
0.0
 10
16.74286907503348
 20
-54.09082631383402
 30
0.0
 10
16.83837064153669
 20
-53.99015570460516
 30
0.0
  0
SPLINE
  5
185
330
1003B
100
AcDbEntity
  8
INSETS_D_1_0
100
AcDbSpline
210
0.0
220
0.0
230
1.0
 70
     8
 71
     3
 72
    11
 73
     7
 74
     0
 42
0.000000001
 43
0.001
 40
0.0001220625326844
 40
0.0001220625326844
 40
0.0001220625326844
 40
0.0001220625326844
 40
0.0427238952470134
 40
0.0427238952470134
 40
0.0427238952470134
 40
0.084136769187263
 40
0.084136769187263
 40
0.084136769187263
 40
0.084136769187263
 10
16.34177992105683
 20
-55.47622019261172
 30
0.0
 10
16.32143051289241
 20
-55.33392160023265
 30
0.0
 10
16.30187457291872
 20
-55.1943788368153
 30
0.0
 10
16.3112570739933
 20
-55.0598830345002
 30
0.0
 10
16.32037772231965
 20
-54.9291408257291
 30
0.0
 10
16.3572512146572
 20
-54.79730165510813
 30
0.0
 10
16.3953275648395
 20
-54.66292632551544
 30
0.0
  0
LINE
  5
186
330
1003B
100
AcDbEntity
  8
INSETS_D_1_0
100
AcDbLine
 10
16.34177992105683
 20
-55.47622019261172
 30
0.0
 11
16.61567785998935
 21
-56.80658161028422
 31
0.0
  0
LINE
  5
187
330
1003B
100
AcDbEntity
  8
INSETS_D_1_0
100
AcDbLine
 10
16.61567785998935
 20
-56.80658161028422
 30
0.0
 11
18.20141839268451
 21
-56.48010561825878
 31
0.0
  0
LINE
  5
188
330
1003B
100
AcDbEntity
  8
INSETS_D_1_0
100
AcDbLine
 10
18.20141839268451
 20
-56.48010561825878
 30
0.0
 11
17.93926960542844
 21
-55.20681150872928
 31
0.0
  0
LINE
  5
189
330
1003B
100
AcDbEntity
  8
INSETS_D_1_0
100
AcDbLine
 10
17.93926960542844
 20
-55.20681150872928
 30
0.0
 11
24.66487464357482
 21
-53.82212811852276
 31
0.0
  0
LINE
  5
18A
330
1003B
100
AcDbEntity
  8
INSETS_D_1_0
100
AcDbLine
 10
24.66487464357482
 20
-53.82212811852276
 30
0.0
 11
24.33615798554901
 21
-52.22550435096886
 31
0.0
  0
LWPOLYLINE
  5
18B
330
1003B
100
AcDbEntity
  8
INSETS_D_1_0
100
AcDbPolyline
 90
        4
 70
     1
 43
0.0
 10
30.58574358429327
 20
-124.6611865569032
 10
38.34206344280121
 20
-123.0642971742694
 10
38.01558721038671
 20
-121.4785554739704
 10
30.25926735187879
 20
-123.0754448566043
  0
LINE
  5
18C
330
1003B
100
AcDbEntity
  8
INSETS_D_1_0
100
AcDbLine
 10
26.87149863077478
 20
-106.620568211242
 30
0.0
 11
27.19797486318926
 21
-108.2063099115409
 31
0.0
  0
LINE
  5
18D
330
1003B
100
AcDbEntity
  8
INSETS_D_1_0
100
AcDbLine
 10
31.56466224378554
 20
-105.6543286438574
 30
0.0
 11
26.87149863077478
 21
-106.620568211242
 31
0.0
  0
SPLINE
  5
18E
330
1003B
100
AcDbEntity
  8
INSETS_D_1_0
100
AcDbSpline
210
0.0
220
0.0
230
1.0
 70
     8
 71
     3
 72
    11
 73
     7
 74
     0
 42
0.000000001
 43
0.001
 40
0.0001220658062711
 40
0.0001220658062711
 40
0.0001220658062711
 40
0.0001220658062711
 40
0.0427238361484534
 40
0.0427238361484534
 40
0.0427238361484534
 40
0.0841327102723466
 40
0.0841327102723466
 40
0.0841327102723466
 40
0.0841327102723466
 10
31.56466224378554
 20
-105.6543286438574
 30
0.0
 10
31.7069605866417
 20
-105.6339795042192
 30
0.0
 10
31.84650315657663
 20
-105.6144238067368
 30
0.0
 10
31.98099896644868
 20
-105.6238059185628
 30
0.0
 10
32.11172874637213
 20
-105.6329253209843
 30
0.0
 10
32.2435553403928
 20
-105.6697916103641
 30
0.0
 10
32.37791739846267
 20
-105.7078631235058
 30
0.0
  0
SPLINE
  5
18F
330
1003B
100
AcDbEntity
  8
INSETS_D_1_0
100
AcDbSpline
210
0.0
220
0.0
230
1.0
 70
     8
 71
     3
 72
    11
 73
     7
 74
     0
 42
0.000000001
 43
0.001
 40
0.0002643101909287
 40
0.0002643101909287
 40
0.0002643101909287
 40
0.0002643101909287
 40
0.0416253950678319
 40
0.0416253950678319
 40
0.0416253950678319
 40
0.0832374069194504
 40
0.0832374069194504
 40
0.0832374069194504
 40
0.0832374069194504
 10
32.37791739846266
 20
-105.7078631235059
 30
0.0
 10
32.50559350704555
 20
-105.7629929878781
 30
0.0
 10
32.63092135563353
 20
-105.8175122365407
 30
0.0
 10
32.74089133260323
 20
-105.8905701006342
 30
0.0
 10
32.85152846890185
 20
-105.9640711878411
 30
0.0
 10
32.95086652111428
 20
-106.059157270647
 30
0.0
 10
33.05168737122661
 20
-106.1561818893565
 30
0.0
  0
SPLINE
  5
190
330
1003B
100
AcDbEntity
  8
INSETS_D_1_0
100
AcDbSpline
210
0.0
220
0.0
230
1.0
 70
     8
 71
     3
 72
    11
 73
     7
 74
     0
 42
0.000000001
 43
0.001
 40
0.0002544271963092
 40
0.0002544271963092
 40
0.0002544271963092
 40
0.0002544271963092
 40
0.0420545070811802
 40
0.0420545070811802
 40
0.0420545070811802
 40
0.0847932559408019
 40
0.0847932559408019
 40
0.0847932559408019
 40
0.0847932559408019
 10
33.05168737122663
 20
-106.1561818893564
 30
0.0
 10
33.14004867244945
 20
-106.2659804861851
 30
0.0
 10
33.22633572881645
 20
-106.373927916161
 30
0.0
 10
33.28667679065939
 20
-106.491807773034
 30
0.0
 10
33.34837288059824
 20
-106.6123347579676
 30
0.0
 10
33.38572135464879
 20
-106.7486741958853
 30
0.0
 10
33.42342961809176
 20
-106.8878139915383
 30
0.0
  0
LINE
  5
191
330
1003B
100
AcDbEntity
  8
INSETS_D_1_0
100
AcDbLine
 10
34.13199914625778
 20
-110.3294374140584
 30
0.0
 11
33.42342961809186
 21
-106.8878139915383
 31
0.0
  0
LINE
  5
192
330
1003B
100
AcDbEntity
  8
INSETS_D_1_0
100
AcDbLine
 10
32.54625802976073
 20
-110.6559135262784
 30
0.0
 11
34.13199914625778
 21
-110.3294374140584
 31
0.0
  0
LINE
  5
193
330
1003B
100
AcDbEntity
  8
INSETS_D_1_0
100
AcDbLine
 10
31.84495385094787
 20
-107.249578943473
 30
0.0
 11
32.54625802976073
 21
-110.6559135262784
 31
0.0
  0
LINE
  5
194
330
1003B
100
AcDbEntity
  8
INSETS_D_1_0
100
AcDbLine
 10
27.19797486318926
 20
-108.2063099115409
 30
0.0
 11
31.84495385094787
 21
-107.249578943473
 31
0.0
  0
LWPOLYLINE
  5
195
330
1003B
100
AcDbEntity
  8
INSETS_D_1_0
100
AcDbPolyline
 90
        4
 70
     1
 43
0.0
 10
20.90257210200387
 20
-77.6286393572119
 10
21.22904833441836
 20
-79.21438105751083
 10
27.46176843867401
 20
-77.931173977223
 10
27.13529220625952
 20
-76.34543227692406
  0
LINE
  5
196
330
1003B
100
AcDbEntity
  8
INSETS_D_1_0
100
AcDbLine
 10
20.7025646426513
 20
-45.10075553939841
 30
0.0
 11
19.11682352615425
 21
-45.42723165161836
 31
0.0
  0
LINE
  5
197
330
1003B
100
AcDbEntity
  8
INSETS_D_1_0
100
AcDbLine
 10
19.11682352615425
 20
-45.42723165161836
 30
0.0
 11
20.09147910105779
 21
-50.16127301543556
 31
0.0
  0
LINE
  5
198
330
1003B
100
AcDbEntity
  8
INSETS_D_1_0
100
AcDbLine
 10
20.09147910105779
 20
-50.16127301543556
 30
0.0
 11
19.35917234110491
 21
-50.31204205424939
 31
0.0
  0
LINE
  5
199
330
1003B
100
AcDbEntity
  8
INSETS_D_1_0
100
AcDbLine
 10
19.35917234110491
 20
-50.31204205424939
 30
0.0
 11
18.38451676620137
 21
-45.57800069043219
 31
0.0
  0
LINE
  5
19A
330
1003B
100
AcDbEntity
  8
INSETS_D_1_0
100
AcDbLine
 10
18.38451676620137
 20
-45.57800069043219
 30
0.0
 11
16.00936248628418
 21
-46.06700304217981
 31
0.0
  0
SPLINE
  5
19B
330
1003B
100
AcDbEntity
  8
INSETS_D_1_0
100
AcDbSpline
210
0.0
220
0.0
230
1.0
 70
     8
 71
     3
 72
    11
 73
     7
 74
     0
 42
0.000000001
 43
0.001
 40
0.0002666641724771
 40
0.0002666641724771
 40
0.0002666641724771
 40
0.0002666641724771
 40
0.0415075478403917
 40
0.0415075478403917
 40
0.0415075478403917
 40
0.0840953553621736
 40
0.0840953553621736
 40
0.0840953553621736
 40
0.0840953553621736
 10
15.28201789524583
 20
-46.43226271052463
 30
0.0
 10
15.39084817541121
 20
-46.34577172338496
 30
0.0
 10
15.49784250101257
 20
-46.26131828557205
 30
0.0
 10
15.61436960438432
 20
-46.20216576750408
 30
0.0
 10
15.7347024733264
 20
-46.14108133308234
 30
0.0
 10
15.87063775110585
 20
-46.10422018212716
 30
0.0
 10
16.00936248628418
 20
-46.0670030421798
 30
0.0
  0
SPLINE
  5
19C
330
1003B
100
AcDbEntity
  8
INSETS_D_1_0
100
AcDbSpline
210
0.0
220
0.0
230
1.0
 70
     8
 71
     3
 72
    11
 73
     7
 74
     0
 42
0.000000001
 43
0.001
 40
0.0002560894884662
 40
0.0002560894884662
 40
0.0002560894884662
 40
0.0002560894884662
 40
0.0417578178467724
 40
0.0417578178467724
 40
0.0417578178467724
 40
0.0828584811583308
 40
0.0828584811583308
 40
0.0828584811583308
 40
0.0828584811583308
 10
14.83931231869851
 20
-47.10456895275055
 30
0.0
 10
14.89355623457049
 20
-46.97592197129732
 30
0.0
 10
14.94719296793961
 20
-46.8497053356499
 30
0.0
 10
15.02007590821095
 20
-46.73931037798864
 30
0.0
 10
15.09225452119272
 20
-46.62998225683292
 30
0.0
 10
15.18614757866499
 20
-46.53187183772939
 30
0.0
 10
15.28201789524585
 20
-46.43226271052465
 30
0.0
  0
SPLINE
  5
19D
330
1003B
100
AcDbEntity
  8
INSETS_D_1_0
100
AcDbSpline
210
0.0
220
0.0
230
1.0
 70
     8
 71
     3
 72
    11
 73
     7
 74
     0
 42
0.000000001
 43
0.001
 40
0.000123323384699
 40
0.000123323384699
 40
0.000123323384699
 40
0.000123323384699
 40
0.0428615986979727
 40
0.0428615986979727
 40
0.0428615986979727
 40
0.0846607078530163
 40
0.0846607078530163
 40
0.0846607078530163
 40
0.0846607078530163
 10
14.78681453221902
 20
-47.92353116111392
 30
0.0
 10
14.76649379242454
 20
-47.78081331092193
 30
0.0
 10
14.74694869503102
 20
-47.6408101424591
 30
0.0
 10
14.75601640923752
 20
-47.505715515926
 30
0.0
 10
14.76488486200325
 20
-47.37358957028768
 30
0.0
 10
14.80151111926569
 20
-47.24033915972374
 30
0.0
 10
14.83931231869846
 20
-47.10456895275053
 30
0.0
  0
LINE
  5
19E
330
1003B
100
AcDbEntity
  8
INSETS_D_1_0
100
AcDbLine
 10
14.78681453221902
 20
-47.92353116111392
 30
0.0
 11
15.77097634571368
 21
-52.7037456838024
 31
0.0
  0
LINE
  5
19F
330
1003B
100
AcDbEntity
  8
INSETS_D_1_0
100
AcDbLine
 10
15.77097634571368
 20
-52.7037456838024
 30
0.0
 11
20.46409695625623
 21
-51.73751496986723
 31
0.0
  0
SPLINE
  5
1A0
330
1003B
100
AcDbEntity
  8
INSETS_D_1_0
100
AcDbSpline
210
0.0
220
0.0
230
1.0
 70
     8
 71
     3
 72
    11
 73
     7
 74
     0
 42
0.000000001
 43
0.001
 40
0.0002472181059061
 40
0.0002472181059061
 40
0.0002472181059061
 40
0.0002472181059061
 40
0.0420193858226512
 40
0.0420193858226512
 40
0.0420193858226512
 40
0.0840478426812208
 40
0.0840478426812208
 40
0.0840478426812208
 40
0.0840478426812208
 10
21.19185682630908
 20
-51.37195390107329
 30
0.0
 10
21.08114699302895
 20
-51.45887272445634
 30
0.0
 10
20.9722741153534
 20
-51.54380039642689
 30
0.0
 10
20.8538564018275
 20
-51.6033917837273
 30
0.0
 10
20.73471214774036
 20
-51.66334878828786
 30
0.0
 10
20.60074610999499
 20
-51.70025228463785
 30
0.0
 10
20.46409695625623
 20
-51.73751496986728
 30
0.0
  0
SPLINE
  5
1A1
330
1003B
100
AcDbEntity
  8
INSETS_D_1_0
100
AcDbSpline
210
0.0
220
0.0
230
1.0
 70
     8
 71
     3
 72
    11
 73
     7
 74
     0
 42
0.000000001
 43
0.001
 40
0.0002785181024387
 40
0.0002785181024387
 40
0.0002785181024387
 40
0.0002785181024387
 40
0.0413441416556432
 40
0.0413441416556432
 40
0.0413441416556432
 40
0.0829304995148177
 40
0.0829304995148177
 40
0.0829304995148177
 40
0.0829304995148177
 10
21.64072877342883
 20
-50.70438669764623
 30
0.0
 10
21.58676798373975
 20
-50.83164349143247
 30
0.0
 10
21.53341658902207
 20
-50.95640119358939
 30
0.0
 10
21.46070008180734
 20
-51.06491982090522
 30
0.0
 10
21.38706148997191
 20
-51.17481452307858
 30
0.0
 10
21.29050815257727
 20
-51.27261460726836
 30
0.0
 10
21.19185682630906
 20
-51.37195390107327
 30
0.0
  0
SPLINE
  5
1A2
330
1003B
100
AcDbEntity
  8
INSETS_D_1_0
100
AcDbSpline
210
0.0
220
0.0
230
1.0
 70
     8
 71
     3
 72
    11
 73
     7
 74
     0
 42
0.000000001
 43
0.001
 40
0.0001125863771604
 40
0.0001125863771604
 40
0.0001125863771604
 40
0.0001125863771604
 40
0.0435327218891901
 40
0.0435327218891901
 40
0.0435327218891901
 40
0.0850179595055695
 40
0.0850179595055695
 40
0.0850179595055695
 40
0.0850179595055695
 10
21.68674838094017
 20
-49.88107655394433
 30
0.0
 10
21.70816976923291
 20
-50.02595103192832
 30
0.0
 10
21.72880595096884
 20
-50.1681075212754
 30
0.0
 10
21.72027264280865
 20
-50.30550871392923
 30
0.0
 10
21.71211959785601
 20
-50.43678700357064
 30
0.0
 10
21.67699195366356
 20
-50.56934928624965
 30
0.0
 10
21.6407287734288
 20
-50.70438669764624
 30
0.0
  0
LINE
  5
1A3
330
1003B
100
AcDbEntity
  8
INSETS_D_1_0
100
AcDbLine
 10
21.68674838094017
 20
-49.88107655394433
 30
0.0
 11
20.7025646426513
 21
-45.10075553939841
 31
0.0
  0
LWPOLYLINE
  5
1A4
330
1003B
100
AcDbEntity
  8
INSETS_D_1_0
100
AcDbPolyline
 90
        4
 70
     1
 43
0.0
 10
29.20303443798667
 20
-75.91972064098027
 10
27.60641067043277
 20
-76.24843729900606
 10
27.93288690284725
 20
-77.834178999305
 10
29.52951067040116
 20
-77.50546234127921
  0
CIRCLE
  5
1A5
330
1003B
100
AcDbEntity
  8
HOLES_DIAM_41_5_D_5_2
100
AcDbCircle
 10
54.77750079069568
 20
-212.0022464961905
 30
0.0
 40
20.70950000000002
  0
CIRCLE
  5
1A6
330
1003B
100
AcDbEntity
  8
HOLES_DIAM_41_5_D_5_2
100
AcDbCircle
 10
548.3489471307691
 20
-247.0888953528412
 30
0.0
 40
20.7095
  0
CIRCLE
  5
1A7
330
1003B
100
AcDbEntity
  8
HOLES_DIAM_41_5_D_5_2
100
AcDbCircle
 10
458.3489471307691
 20
-203.0888953528412
 30
0.0
 40
20.7095
  0
CIRCLE
  5
1A8
330
1003B
100
AcDbEntity
  8
HOLES_DIAM_5_0_D_5_2
100
AcDbCircle
 10
570.1208700796171
 20
-77.12500000000011
 30
0.0
 40
2.459500000000006
  0
CIRCLE
  5
1A9
330
1003B
100
AcDbEntity
  8
HOLES_DIAM_5_0_D_5_2
100
AcDbCircle
 10
578.0103172103862
 20
-229.9638953528412
 30
0.0
 40
2.459500000000006
  0
CIRCLE
  5
1AA
330
1003B
100
AcDbEntity
  8
HOLES_DIAM_5_0_D_5_2
100
AcDbCircle
 10
488.0103172103862
 20
-185.9638953528412
 30
0.0
 40
2.459500000000006
  0
CIRCLE
  5
1AB
330
1003B
100
AcDbEntity
  8
HOLES_DIAM_2_5_D_5_2
100
AcDbCircle
 10
265.8379107805233
 20
-164.589539683415
 30
0.0
 40
1.209500000000001
  0
CIRCLE
  5
1AC
330
1003B
100
AcDbEntity
  8
HOLES_DIAM_2_5_D_5_2
100
AcDbCircle
 10
276.4163000657792
 20
-170.2550365729502
 30
0.0
 40
1.209500000000001
  0
CIRCLE
  5
1AD
330
1003B
100
AcDbEntity
  8
HOLES_DIAM_2_5_D_5_2
100
AcDbCircle
 10
495.1713405792074
 20
-287.0892457107029
 30
0.0
 40
1.209500000000006
  0
CIRCLE
  5
1AE
330
1003B
100
AcDbEntity
  8
HOLES_DIAM_2_5_D_5_2
100
AcDbCircle
 10
505.749729864463
 20
-292.754742600239
 30
0.0
 40
1.209500000000006
  0
VIEWPORT
  5
100EC
330
10037
100
AcDbEntity
 67
     1
  8
0
100
AcDbViewport
 10
5.25
 20
4.0
 30
0.0
 40
11.638
 41
8.993
 68
     1
 69
     1
1001
ACAD
1000
MVIEW
1002
{
1070
    16
1010
0.0
1020
0.0
1030
0.0
1010
0.0
1020
0.0
1030
1.0
1040
0.0
1040
8.993
1040
5.25
1040
4.0
1040
50.0
1040
0.0
1040
0.0
1070
     0
1070
   100
1070
     0
1070
     3
1070
     0
1070
     0
1070
     0
1070
     0
1040
0.0
1040
0.0
1040
0.0
1040
0.5
1040
0.5
1040
0.5
1040
0.5
1070
     0
1002
{
1002
}
1002
}
  0
ENDSEC
  0
SECTION
  2
OBJECTS
  0
DICTIONARY
  5
10029
330
0
100
AcDbDictionary
  3
ACAD_GROUP
350
1002A
  3
ACAD_LAYOUT
350
10036
  3
ACAD_MATERIAL
350
1005F
  3
ACAD_MLEADERSTYLE
350
10077
  3
ACAD_MLINESTYLE
350
10033
  3
ACAD_PLOTSETTINGS
350
10035
  3
ACAD_SCALELIST
350
10063
  3
ACAD_VISUALSTYLE
350
10046
  3
ACDBHEADERROUNDTRIPXREC
350
100EE
  3
ACDBVARIABLEDICTIONARY
350
1010F
  3
DWGPROPS
350
10116
  3
QCAD_OBJECTS
350
1007B
  0
DICTIONARY
  5
10117
330
10025
100
AcDbDictionary
280
     1
  3
ACAD_XREC_ROUNDTRIP
360
10118
  0
DICTIONARY
  5
1002A
102
{ACAD_REACTORS
330
10029
102
}
330
10029
100
AcDbDictionary
  0
DICTIONARY
  5
10036
102
{ACAD_REACTORS
330
10029
102
}
330
10029
100
AcDbDictionary
  0
DICTIONARY
  5
1005F
102
{ACAD_REACTORS
330
10029
102
}
330
10029
100
AcDbDictionary
  3
BYBLOCK
350
10061
  3
BYLAYER
350
10060
  3
GLOBAL
350
10062
  0
DICTIONARY
  5
10077
102
{ACAD_REACTORS
330
10029
102
}
330
10029
100
AcDbDictionary
  3
STANDARD
350
10078
  0
DICTIONARY
  5
10033
102
{ACAD_REACTORS
330
10029
102
}
330
10029
100
AcDbDictionary
  3
STANDARD
350
10034
  0
DICTIONARY
  5
10035
102
{ACAD_REACTORS
330
10029
102
}
330
10029
100
AcDbDictionary
  0
DICTIONARY
  5
10063
102
{ACAD_REACTORS
330
10029
102
}
330
10029
100
AcDbDictionary
  3
A0
350
10064
  3
A1
350
10065
  3
A2
350
10066
  3
A3
350
10067
  3
A4
350
10068
  3
A5
350
10069
  3
A6
350
1006A
  3
A7
350
1006B
  3
A8
350
1006C
  3
A9
350
1006D
  3
B1
350
1006E
  3
B2
350
1006F
  3
B3
350
10070
  3
B4
350
10071
  3
B5
350
10072
  3
B6
350
10073
  3
B7
350
10074
  0
DICTIONARY
  5
10046
102
{ACAD_REACTORS
330
10029
102
}
330
10029
100
AcDbDictionary
  3
2DWIREFRAME
350
1004B
  3
BASIC
350
1004E
  3
BRIGHTEN
350
10052
  3
COLORCHANGE
350
10056
  3
CONCEPTUAL
350
10050
  3
DIM
350
10051
  3
EDGECOLOROFF
350
10059
  3
FACEPATTERN
350
10055
  3
FLAT
350
10047
  3
FLATWITHEDGES
350
10048
  3
GOURAUD
350
10049
  3
GOURAUDWITHEDGES
350
1004A
  3
HIDDEN
350
1004D
  3
JITTEROFF
350
10057
  3
LINEPATTERN
350
10054
  3
OVERHANGOFF
350
10058
  3
REALISTIC
350
1004F
  3
SHADED
350
1005E
  3
SHADED_WITH_EDGES
350
1005D
  3
SHADES_OF_GRAY
350
1005A
  3
SKETCHY
350
1005B
  3
THICKEN
350
10053
  3
WIREFRAME
350
1004C
  3
X-RAY
350
1005C
  0
DICTIONARY
  5
100EE
102
{ACAD_REACTORS
330
10029
102
}
330
10029
100
AcDbDictionary
  3
CEPSNID
350
100F8
  3
CEPSNTYPE
350
100F7
  3
DIMSTYLEDATA
350
1010E
  3
FINGERPRINTGUID
350
100F9
  3
HYPERLINKBASE
350
100F1
  3
INSUNITS
350
100F6
  3
LAYOUTDICT
350
100F3
  3
LWETCUNION
350
100F5
  3
PLOTSETDICT
350
100F4
  3
PSVPSCALE
350
100FB
  3
PUCSBASE
350
100FE
  3
PUCSORGBACK
350
10104
  3
PUCSORGBOTTOM
350
10100
  3
PUCSORGFRONT
350
10103
  3
PUCSORGLEFT
350
10101
  3
PUCSORGRIGHT
350
10102
  3
PUCSORGTOP
350
100FF
  3
PUCSORTHOREF
350
100FC
  3
PUCSORTHOVIEW
350
100FD
  3
STYLESHEET
350
100F2
  3
TSTACKALIGN
350
100EF
  3
TSTACKSIZE
350
100F0
  3
UCSBASE
350
10107
  3
UCSORGBACK
350
1010D
  3
UCSORGBOTTOM
350
10109
  3
UCSORGFRONT
350
1010C
  3
UCSORGLEFT
350
1010A
  3
UCSORGRIGHT
350
1010B
  3
UCSORGTOP
350
10108
  3
UCSORTHOREF
350
10105
  3
UCSORTHOVIEW
350
10106
  3
VERSIONGUID
350
100FA
  0
DICTIONARY
  5
1010F
102
{ACAD_REACTORS
330
10029
102
}
330
10029
100
AcDbDictionary
  3
CANNOSCALE
350
10119
  3
CMLEADERSTYLE
350
10111
  3
CTABLESTYLE
350
10110
  3
DIMASSOC
350
10114
  3
HIDETEXT
350
10115
  3
MSLTSCALE
350
1011A
  0
XRECORD
  5
10116
102
{ACAD_REACTORS
330
10029
102
}
330
10029
100
AcDbXrecord
  1
DWGPROPS COOKIE
  2

  3

  4

  6

  7

  8
hans
  9

300
=
301
=
302
=
303
=
304
=
305
=
306
=
307
=
308
=
309
=
 40
0.0
 41
2460389.819920683
 42
2460389.819920926
  1

 90
        0
  0
DICTIONARY
  5
1007B
102
{ACAD_REACTORS
330
10029
102
}
330
10029
100
AcDbDictionary
  3
COLORSETTINGS/BACKGROUNDCOLOR
350
1007D
  3
COLORSETTINGS/COLORMODE
350
1007E
  3
GRID/DISPLAYGRID00
350
1007F
  3
GRID/DISPLAYGRID01
350
10080
  3
GRID/DISPLAYGRID02
350
10081
  3
GRID/DISPLAYGRID03
350
10082
  3
GRID/GRIDSPACINGX00
350
10083
  3
GRID/GRIDSPACINGX01
350
10084
  3
GRID/GRIDSPACINGX02
350
10085
  3
GRID/GRIDSPACINGX03
350
10086
  3
GRID/GRIDSPACINGY00
350
10087
  3
GRID/GRIDSPACINGY01
350
10088
  3
GRID/GRIDSPACINGY02
350
10089
  3
GRID/GRIDSPACINGY03
350
1008A
  3
GRID/ISOMETRICGRID00
350
1008B
  3
GRID/ISOMETRICGRID01
350
1008C
  3
GRID/ISOMETRICGRID02
350
1008D
  3
GRID/ISOMETRICGRID03
350
1008E
  3
GRID/ISOMETRICPROJECTION00
350
1008F
  3
GRID/ISOMETRICPROJECTION01
350
10090
  3
GRID/ISOMETRICPROJECTION02
350
10091
  3
GRID/ISOMETRICPROJECTION03
350
10092
  3
GRID/METAGRIDSPACINGX00
350
10093
  3
GRID/METAGRIDSPACINGX01
350
10094
  3
GRID/METAGRIDSPACINGX02
350
10095
  3
GRID/METAGRIDSPACINGX03
350
10096
  3
GRID/METAGRIDSPACINGY00
350
10097
  3
GRID/METAGRIDSPACINGY01
350
10098
  3
GRID/METAGRIDSPACINGY02
350
10099
  3
GRID/METAGRIDSPACINGY03
350
1009A
  3
MULTIPAGESETTINGS/COLUMNS
350
1009B
  3
MULTIPAGESETTINGS/GLUEMAR0
350
1009D
  3
MULTIPAGESETTINGS/GLUEMAR1
350
1009E
  3
MULTIPAGESETTINGS/GLUEMAR2
350
1009F
  3
MULTIPAGESETTINGS/GLUEMARG
350
1009C
  3
MULTIPAGESETTINGS/PRINTCRO
350
100A0
  3
MULTIPAGESETTINGS/ROWS
350
100A1
  3
PAGESETTINGS/OFFSETX
350
100A2
  3
PAGESETTINGS/OFFSETY
350
100A3
  3
PAGESETTINGS/PAGEORIENTATION
350
100A4
  3
PAGESETTINGS/PAPERHEIGHT
350
100A5
  3
PAGESETTINGS/PAPERWIDTH
350
100A6
  3
PAGESETTINGS/SCALE
350
100A7
  3
PAGESETTINGS/SHOWPAPERBORDERS
350
100A8
  3
PAGETAGSETTINGS/ENABLEPAGETAGS
350
100A9
  3
PAGETAGSETTINGS/TAGALIGNMENT
350
100AA
  3
PAGETAGSETTINGS/TAGFONT
350
100AB
  3
PAGETAGSETTINGS/TAGPOSITION
350
100AC
  3
QCADVERSION
350
100AD
  3
UNITSETTINGS/PAPERUNIT
350
100AE
  3
VIEWPORTCENTER
350
100AF
  3
VIEWPORTHEIGHT
350
100B0
  3
VIEWPORTWIDTH
350
100B1
  0
XRECORD
  5
10118
102
{ACAD_REACTORS
330
10117
102
}
330
10117
100
AcDbXrecord
102
VTR_0.000_0.000_1.000_1.000_VISUALSTYLE
340
1004B
102
VTR_0.000_0.000_1.000_1.000_GRIDDISPLAY
 70
     3
102
VTR_0.000_0.000_1.000_1.000_GRIDMAJOR
 70
     5
102
VTR_0.000_0.000_1.000_1.000_DEFAULTLIGHTING
280
     1
102
VTR_0.000_0.000_1.000_1.000_DEFAULTLIGHTINGTYPE
 70
     1
102
VTR_0.000_0.000_1.000_1.000_BRIGHTNESS
141
0.0
102
VTR_0.000_0.000_1.000_1.000_CONTRAST
142
0.0
  0
MATERIAL
  5
10061
102
{ACAD_REACTORS
330
1005F
102
}
102
{ACAD_XDICTIONARY
360
1011D
102
}
330
1005F
100
AcDbMaterial
  1
BYBLOCK
  0
MATERIAL
  5
10060
102
{ACAD_REACTORS
330
1005F
102
}
102
{ACAD_XDICTIONARY
360
1011B
102
}
330
1005F
100
AcDbMaterial
  1
BYLAYER
  0
MATERIAL
  5
10062
102
{ACAD_REACTORS
330
1005F
102
}
102
{ACAD_XDICTIONARY
360
1011F
102
}
330
1005F
100
AcDbMaterial
  1
GLOBAL
  0
ACAD_PROXY_OBJECT
  5
10078
102
{ACAD_REACTORS
330
10077
102
}
330
10077
100
AcDbProxyObject
 90
      499
 91
      505
 93
      610
310
40901902A4063FBFFFFFE056BD1B81E855B9FC0AD7A3703D0AD73F4214DD185B99185C9900AD7A3703D0AC73F90141901A02B5E8DC0F42B1CFC02B5E8DC0F42B1CFE5764000000000000300FC0
340
10030
340
0
340
1002E
340
0
 94
        0
1001
ACAD_MLEADERVER
1070
     2
  0
MLINESTYLE
  5
10034
102
{ACAD_REACTORS
330
10033
102
}
330
10033
100
AcDbMlineStyle
  2
Standard
 70
     0
  3

 62
   256
 51
90.0
 52
90.0
 71
     2
 49
0.5
 62
   256
  6
BYLAYER
 49
-0.5
 62
   256
  6
BYLAYER
  0
ACAD_PROXY_OBJECT
  5
10064
102
{ACAD_REACTORS
330
10063
102
}
330
10063
100
AcDbProxyObject
 90
      499
 91
      503
 93
       41
310
903313A31580
  0
ACAD_PROXY_OBJECT
  5
10065
102
{ACAD_REACTORS
330
10063
102
}
330
10063
100
AcDbProxyObject
 90
      499
 91
      503
 93
      257
310
90E312F31323822203D2031272D3022000000000000200FC000000000000284000
  0
ACAD_PROXY_OBJECT
  5
10066
102
{ACAD_REACTORS
330
10063
102
}
330
10063
100
AcDbProxyObject
 90
      499
 91
      503
 93
      249
310
90D312F363422203D2031272D3022000000000000240FC000000000000284000
  0
ACAD_PROXY_OBJECT
  5
10067
102
{ACAD_REACTORS
330
10063
102
}
330
10063
100
AcDbProxyObject
 90
      499
 91
      503
 93
      249
310
90D312F333222203D2031272D3022000000000000280FC000000000000284000
  0
ACAD_PROXY_OBJECT
  5
10068
102
{ACAD_REACTORS
330
10063
102
}
330
10063
100
AcDbProxyObject
 90
      499
 91
      503
 93
      249
310
90D312F313622203D2031272D30220000000000002C0FC000000000000284000
  0
ACAD_PROXY_OBJECT
  5
10069
102
{ACAD_REACTORS
330
10063
102
}
330
10063
100
AcDbProxyObject
 90
      499
 91
      503
 93
      249
310
90D332F333222203D2031272D30220000000000002E0FC000000000000284000
  0
ACAD_PROXY_OBJECT
  5
1006A
102
{ACAD_REACTORS
330
10063
102
}
330
10063
100
AcDbProxyObject
 90
      499
 91
      503
 93
      241
310
90C312F3822203D2031272D3022000000000000300FC000000000000284000
  0
ACAD_PROXY_OBJECT
  5
1006B
102
{ACAD_REACTORS
330
10063
102
}
330
10063
100
AcDbProxyObject
 90
      499
 91
      503
 93
      249
310
90D332F313622203D2031272D3022000000000000320FC000000000000284000
  0
ACAD_PROXY_OBJECT
  5
1006C
102
{ACAD_REACTORS
330
10063
102
}
330
10063
100
AcDbProxyObject
 90
      499
 91
      503
 93
      241
310
90C312F3422203D2031272D3022000000000000340FC000000000000284000
  0
ACAD_PROXY_OBJECT
  5
1006D
102
{ACAD_REACTORS
330
10063
102
}
330
10063
100
AcDbProxyObject
 90
      499
 91
      503
 93
      241
310
90C332F3822203D2031272D3022000000000000360FC000000000000284000
  0
ACAD_PROXY_OBJECT
  5
1006E
102
{ACAD_REACTORS
330
10063
102
}
330
10063
100
AcDbProxyObject
 90
      499
 91
      503
 93
      241
310
90C312F3222203D2031272D3022000000000000380FC000000000000284000
  0
ACAD_PROXY_OBJECT
  5
1006F
102
{ACAD_REACTORS
330
10063
102
}
330
10063
100
AcDbProxyObject
 90
      499
 91
      503
 93
      241
310
90C332F3422203D2031272D30220000000000003A0FC000000000000284000
  0
ACAD_PROXY_OBJECT
  5
10070
102
{ACAD_REACTORS
330
10063
102
}
330
10063
100
AcDbProxyObject
 90
      499
 91
      503
 93
      161
310
90A3122203D2031272D30224000000000000284000
  0
ACAD_PROXY_OBJECT
  5
10071
102
{ACAD_REACTORS
330
10063
102
}
330
10063
100
AcDbProxyObject
 90
      499
 91
      503
 93
      257
310
90E312D312F3222203D2031272D30220000000000003E0FC000000000000284000
  0
ACAD_PROXY_OBJECT
  5
10072
102
{ACAD_REACTORS
330
10063
102
}
330
10063
100
AcDbProxyObject
 90
      499
 91
      503
 93
      225
310
90A3322203D2031272D302200000000000002100000000000000284000
  0
ACAD_PROXY_OBJECT
  5
10073
102
{ACAD_REACTORS
330
10063
102
}
330
10063
100
AcDbProxyObject
 90
      499
 91
      503
 93
      225
310
90A3622203D2031272D302200000000000006100000000000000284000
  0
ACAD_PROXY_OBJECT
  5
10074
102
{ACAD_REACTORS
330
10063
102
}
330
10063
100
AcDbProxyObject
 90
      499
 91
      503
 93
      249
310
90D31272D3022203D2031272D30220000000000000A100000000000000284000
  0
ACAD_PROXY_OBJECT
  5
1004B
102
{ACAD_REACTORS
330
10046
102
}
330
10046
100
AcDbProxyObject
 90
      499
 91
      501
 93
      436
310
42CC9915DA5C99599C985B595049028333333333333E33F0000000000000F90107901411070040501600405405064090741402480A0340
1001
ACAD
1000
AcDbSavedByObjectVersion
1070
     0
  0
ACAD_PROXY_OBJECT
  5
1004E
102
{ACAD_REACTORS
330
10046
102
}
330
10046
100
AcDbProxyObject
 90
      499
 91
      501
 93
      388
310
4150985CDA58D07406404333333333333E33F0000000000000F90107A41107004050150841D405064090741402480A0350
1001
ACAD
1000
AcDbSavedByObjectVersion
1070
     0
  0
ACAD_PROXY_OBJECT
  5
10052
102
{ACAD_REACTORS
330
10046
102
}
330
10046
100
AcDbProxyObject
 90
      499
 91
      501
 93
      428
310
42109C9A59DA1D195B90C409028333333333333E33F0000000000000F9010790141107004050150841D405064090741402480A029950
1001
ACAD
1000
AcDbSavedByObjectVersion
1070
     0
  0
ACAD_PROXY_OBJECT
  5
10056
102
{ACAD_REACTORS
330
10046
102
}
330
10046
100
AcDbProxyObject
 90
      499
 91
      501
 93
      452
310
42D0DBDB1BDC90DA185B99D95104090240C333333333333E33F0000000000000F90108901411070040501508421405064090741402480A0350
1001
ACAD
1000
AcDbSavedByObjectVersion
1070
     0
  0
ACAD_PROXY_OBJECT
  5
10050
102
{ACAD_REACTORS
330
10046
102
}
330
10046
100
AcDbProxyObject
 90
      499
 91
      501
 93
      500
310
4290DBDB98D95C1D1D585B10940D028333333333333E33F0000000000000F90107902409070040501000000000018199010841D405064090740C02480A0340
1001
ACAD
1000
AcDbSavedByObjectVersion
1070
     0
  0
ACAD_PROXY_OBJECT
  5
10051
102
{ACAD_REACTORS
330
10046
102
}
330
10046
100
AcDbProxyObject
 90
      499
 91
      501
 93
      412
310
40D11A5B50B409028333333333333E33F0000000000000F9010790141107004050150841D405064090741402480A02677FFFFFD0
1001
ACAD
1000
AcDbSavedByObjectVersion
1070
     0
  0
ACAD_PROXY_OBJECT
  5
10059
102
{ACAD_REACTORS
330
10046
102
}
330
10046
100
AcDbProxyObject
 90
      499
 91
      501
 93
      452
310
43115919D950DBDB1BDC93D999916409028333333333333E33F0000000000000F9010790141107004050150841D405064090741402480A0350
1001
ACAD
1000
AcDbSavedByObjectVersion
1070
     0
  0
ACAD_PROXY_OBJECT
  5
10055
102
{ACAD_REACTORS
330
10046
102
}
330
10046
100
AcDbProxyObject
 90
      499
 91
      501
 93
      444
310
42D19858D95C185D1D195C9B90F409028333333333333E33F0000000000000F9010790141107004050150841D405064090741402480A0350
1001
ACAD
1000
AcDbSavedByObjectVersion
1070
     0
  0
ACAD_PROXY_OBJECT
  5
10047
102
{ACAD_REACTORS
330
10046
102
}
330
10046
100
AcDbProxyObject
 90
      499
 91
      501
 93
      380
310
41119B185D240901404333333333333E33F0000000000000F9010740A907004050150841D405064090741402480A1B50
1001
ACAD
1000
AcDbSavedByObjectVersion
1070
     0
  0
ACAD_PROXY_OBJECT
  5
10048
102
{ACAD_REACTORS
330
10046
102
}
330
10046
100
AcDbProxyObject
 90
      499
 91
      501
 93
      468
310
43519B185D15DA5D1A115919D95CD0140901404333333333333E33F0000000000000F90107409019070040501600405405064090741402480A1B50
1001
ACAD
1000
AcDbSavedByObjectVersion
1070
     0
  0
ACAD_PROXY_OBJECT
  5
10049
102
{ACAD_REACTORS
330
10046
102
}
330
10046
100
AcDbProxyObject
 90
      499
 91
      501
 93
      404
310
41D1DBDD5C985D5910240902404333333333333E33F0000000000000F9010740A9070040501641D405064090741402480A1B50
1001
ACAD
1000
AcDbSavedByObjectVersion
1070
     0
  0
ACAD_PROXY_OBJECT
  5
1004A
102
{ACAD_REACTORS
330
10046
102
}
330
10046
100
AcDbProxyObject
 90
      499
 91
      501
 93
      492
310
4411DBDD5C985D5915DA5D1A115919D95CD0340902404333333333333E33F0000000000000F90107409019070040501600405405064090741402480A1B50
1001
ACAD
1000
AcDbSavedByObjectVersion
1070
     0
  0
ACAD_PROXY_OBJECT
  5
1004D
102
{ACAD_REACTORS
330
10046
102
}
330
10046
100
AcDbProxyObject
 90
      499
 91
      501
 93
      476
310
41921A5919195B90640502408333333333333E33F0000000000000F901079024090700405020000000000001110200405405064090740C02480A0340
1001
ACAD
1000
AcDbSavedByObjectVersion
1070
     0
  0
ACAD_PROXY_OBJECT
  5
10057
102
{ACAD_REACTORS
330
10046
102
}
330
10046
100
AcDbProxyObject
 90
      499
 91
      501
 93
      428
310
42529A5D1D195C93D999914409028333333333333E33F0000000000000F9010790141107004050150A41D405064090741402480A0350
1001
ACAD
1000
AcDbSavedByObjectVersion
1070
     0
  0
ACAD_PROXY_OBJECT
  5
10054
102
{ACAD_REACTORS
330
10046
102
}
330
10046
100
AcDbProxyObject
 90
      499
 91
      501
 93
      444
310
42D31A5B995C185D1D195C9B90E409028333333333333E33F0000000000000F9010790141107004050750841D405064090741402483A0350
1001
ACAD
1000
AcDbSavedByObjectVersion
1070
     0
  0
ACAD_PROXY_OBJECT
  5
10058
102
{ACAD_REACTORS
330
10046
102
}
330
10046
100
AcDbProxyObject
 90
      499
 91
      501
 93
      444
310
42D3DD995C9A185B99D3D999915409028333333333333E33F0000000000000F9010790141107004050150941D405064090741402480A0350
1001
ACAD
1000
AcDbSavedByObjectVersion
1070
     0
  0
ACAD_PROXY_OBJECT
  5
1004F
102
{ACAD_REACTORS
330
10046
102
}
330
10046
100
AcDbProxyObject
 90
      499
 91
      501
 93
      428
310
425499585B1A5CDD1A58D08409038333333333333E33F0000000000000F9010740A907004050150800405405064090740C02480A1B40
1001
ACAD
1000
AcDbSavedByObjectVersion
1070
     0
  0
ACAD_PROXY_OBJECT
  5
1005E
102
{ACAD_REACTORS
330
10046
102
}
330
10046
100
AcDbProxyObject
 90
      499
 91
      501
 93
      420
310
4194DA1859195911B40902404333333333333E33F0000000000000F9010740A41107004050150800405405064090840C02480A0B40
1001
ACAD
1000
AcDbSavedByObjectVersion
1070
     0
  0
ACAD_PROXY_OBJECT
  5
1005D
102
{ACAD_REACTORS
330
10046
102
}
330
10046
100
AcDbProxyObject
 90
      499
 91
      501
 93
      516
310
4454DA18591959081DDA5D1A08195919D95CD1A40902404333333333333E33F0000000000000F901074090142907004050250800405405064090740C02480A0B40
1001
ACAD
1000
AcDbSavedByObjectVersion
1070
     0
  0
ACAD_PROXY_OBJECT
  5
1005A
102
{ACAD_REACTORS
330
10046
102
}
330
10046
100
AcDbProxyObject
 90
      499
 91
      501
 93
      532
310
4394DA1859195CC81BD98811DC985E5174090240C333333333333E33F0000000000000F901079024090741D01000000000000111010841D405064090740C02480A0340
1001
ACAD
1000
AcDbSavedByObjectVersion
1070
     0
  0
ACAD_PROXY_OBJECT
  5
1005B
102
{ACAD_REACTORS
330
10046
102
}
330
10046
100
AcDbProxyObject
 90
      499
 91
      501
 93
      476
310
41D4DAD95D18DA1E51840502408333333333333E33F0000000000000F901079024090741D01000000000000111010B41D405064090741802480A0340
1001
ACAD
1000
AcDbSavedByObjectVersion
1070
     0
  0
ACAD_PROXY_OBJECT
  5
10053
102
{ACAD_REACTORS
330
10046
102
}
330
10046
100
AcDbProxyObject
 90
      499
 91
      501
 93
      412
310
41D51A1A58DAD95B90D409028333333333333E33F0000000000000F9010790141107004050150C41D405064090741402480A0350
1001
ACAD
1000
AcDbSavedByObjectVersion
1070
     0
  0
ACAD_PROXY_OBJECT
  5
1004C
102
{ACAD_REACTORS
330
10046
102
}
330
10046
100
AcDbProxyObject
 90
      499
 91
      501
 93
      420
310
4255DA5C99599C985B595059028333333333333E33F0000000000000F90107901411070040501600405405064090740C02480A0340
1001
ACAD
1000
AcDbSavedByObjectVersion
1070
     0
  0
ACAD_PROXY_OBJECT
  5
1005C
102
{ACAD_REACTORS
330
10046
102
}
330
10046
100
AcDbProxyObject
 90
      499
 91
      501
 93
      404
310
41560B54985E51940902404000000000000E03F0000000000000F9010740501907004050150841D405064090740C02480A1B40
1001
ACAD
1000
AcDbSavedByObjectVersion
1070
     0
  0
XRECORD
  5
100F8
102
{ACAD_REACTORS
330
100EE
102
}
330
100EE
100
AcDbXrecord
340
0
  0
XRECORD
  5
100F7
102
{ACAD_REACTORS
330
100EE
102
}
330
100EE
100
AcDbXrecord
 90
        0
  0
XRECORD
  5
1010E
102
{ACAD_REACTORS
330
100EE
102
}
330
100EE
100
AcDbXrecord
1000
DSTYLE
1002
{
1070
   340
340
1002E
1002
}
  0
XRECORD
  5
100F9
102
{ACAD_REACTORS
330
100EE
102
}
330
100EE
100
AcDbXrecord
  1
{3698cdd8-505a-41c2-8d0f-7d3d031bf751}
  0
XRECORD
  5
100F1
102
{ACAD_REACTORS
330
100EE
102
}
330
100EE
100
AcDbXrecord
  1

  0
XRECORD
  5
100F6
102
{ACAD_REACTORS
330
100EE
102
}
330
100EE
100
AcDbXrecord
 90
        4
  0
XRECORD
  5
100F3
102
{ACAD_REACTORS
330
100EE
102
}
330
100EE
100
AcDbXrecord
340
10036
  0
XRECORD
  5
100F5
102
{ACAD_REACTORS
330
100EE
102
}
330
100EE
100
AcDbXrecord
 90
    10781
  0
XRECORD
  5
100F4
102
{ACAD_REACTORS
330
100EE
102
}
330
100EE
100
AcDbXrecord
340
10035
  0
XRECORD
  5
100FB
102
{ACAD_REACTORS
330
100EE
102
}
330
100EE
100
AcDbXrecord
 40
0.0
  0
XRECORD
  5
100FE
102
{ACAD_REACTORS
330
100EE
102
}
330
100EE
100
AcDbXrecord
340
0
  0
XRECORD
  5
10104
102
{ACAD_REACTORS
330
100EE
102
}
330
100EE
100
AcDbXrecord
 10
0.0
 20
0.0
 30
0.0
  0
XRECORD
  5
10100
102
{ACAD_REACTORS
330
100EE
102
}
330
100EE
100
AcDbXrecord
 10
0.0
 20
0.0
 30
0.0
  0
XRECORD
  5
10103
102
{ACAD_REACTORS
330
100EE
102
}
330
100EE
100
AcDbXrecord
 10
0.0
 20
0.0
 30
0.0
  0
XRECORD
  5
10101
102
{ACAD_REACTORS
330
100EE
102
}
330
100EE
100
AcDbXrecord
 10
0.0
 20
0.0
 30
0.0
  0
XRECORD
  5
10102
102
{ACAD_REACTORS
330
100EE
102
}
330
100EE
100
AcDbXrecord
 10
0.0
 20
0.0
 30
0.0
  0
XRECORD
  5
100FF
102
{ACAD_REACTORS
330
100EE
102
}
330
100EE
100
AcDbXrecord
 10
0.0
 20
0.0
 30
0.0
  0
XRECORD
  5
100FC
102
{ACAD_REACTORS
330
100EE
102
}
330
100EE
100
AcDbXrecord
340
0
  0
XRECORD
  5
100FD
102
{ACAD_REACTORS
330
100EE
102
}
330
100EE
100
AcDbXrecord
 70
     0
  0
XRECORD
  5
100F2
102
{ACAD_REACTORS
330
100EE
102
}
330
100EE
100
AcDbXrecord
  1

  0
XRECORD
  5
100EF
102
{ACAD_REACTORS
330
100EE
102
}
330
100EE
100
AcDbXrecord
 90
        1
  0
XRECORD
  5
100F0
102
{ACAD_REACTORS
330
100EE
102
}
330
100EE
100
AcDbXrecord
 90
       70
  0
XRECORD
  5
10107
102
{ACAD_REACTORS
330
100EE
102
}
330
100EE
100
AcDbXrecord
340
0
  0
XRECORD
  5
1010D
102
{ACAD_REACTORS
330
100EE
102
}
330
100EE
100
AcDbXrecord
 10
0.0
 20
0.0
 30
0.0
  0
XRECORD
  5
10109
102
{ACAD_REACTORS
330
100EE
102
}
330
100EE
100
AcDbXrecord
 10
0.0
 20
0.0
 30
0.0
  0
XRECORD
  5
1010C
102
{ACAD_REACTORS
330
100EE
102
}
330
100EE
100
AcDbXrecord
 10
0.0
 20
0.0
 30
0.0
  0
XRECORD
  5
1010A
102
{ACAD_REACTORS
330
100EE
102
}
330
100EE
100
AcDbXrecord
 10
0.0
 20
0.0
 30
0.0
  0
XRECORD
  5
1010B
102
{ACAD_REACTORS
330
100EE
102
}
330
100EE
100
AcDbXrecord
 10
0.0
 20
0.0
 30
0.0
  0
XRECORD
  5
10108
102
{ACAD_REACTORS
330
100EE
102
}
330
100EE
100
AcDbXrecord
 10
0.0
 20
0.0
 30
0.0
  0
XRECORD
  5
10105
102
{ACAD_REACTORS
330
100EE
102
}
330
100EE
100
AcDbXrecord
340
0
  0
XRECORD
  5
10106
102
{ACAD_REACTORS
330
100EE
102
}
330
100EE
100
AcDbXrecord
 70
     0
  0
XRECORD
  5
100FA
102
{ACAD_REACTORS
330
100EE
102
}
330
100EE
100
AcDbXrecord
  1
{FAEB1C32-E019-11D5-929B-00C0DF256EC4}
  0
DICTIONARYVAR
  5
10119
102
{ACAD_REACTORS
330
1010F
102
}
330
1010F
100
DictionaryVariables
280
     0
  1
1:1
  0
DICTIONARYVAR
  5
10111
102
{ACAD_REACTORS
330
1010F
102
}
330
1010F
100
DictionaryVariables
280
     0
  1
Standard
  0
DICTIONARYVAR
  5
10110
102
{ACAD_REACTORS
330
1010F
102
}
330
1010F
100
DictionaryVariables
280
     0
  1
Standard
  0
DICTIONARYVAR
  5
10114
102
{ACAD_REACTORS
330
1010F
102
}
330
1010F
100
DictionaryVariables
280
     0
  1
2
  0
DICTIONARYVAR
  5
10115
102
{ACAD_REACTORS
330
1010F
102
}
330
1010F
100
DictionaryVariables
280
     0
  1
1
  0
DICTIONARYVAR
  5
1011A
102
{ACAD_REACTORS
330
1010F
102
}
330
1010F
100
DictionaryVariables
280
     0
  1
1
  0
XRECORD
  5
1007D
102
{ACAD_REACTORS
330
1007B
102
}
330
1007B
100
AcDbXrecord
1000
#ffffff
  0
XRECORD
  5
1007E
102
{ACAD_REACTORS
330
1007B
102
}
330
1007B
100
AcDbXrecord
1000
FullColor
  0
ACAD_PROXY_OBJECT
  5
1007F
102
{ACAD_REACTORS
330
1007B
102
}
330
1007B
100
AcDbProxyObject
 90
      499
 91
      508
 93
       34
310
40C8804040
  0
ACAD_PROXY_OBJECT
  5
10080
102
{ACAD_REACTORS
330
1007B
102
}
330
1007B
100
AcDbProxyObject
 90
      499
 91
      508
 93
       34
310
40C8804040
  0
ACAD_PROXY_OBJECT
  5
10081
102
{ACAD_REACTORS
330
1007B
102
}
330
1007B
100
AcDbProxyObject
 90
      499
 91
      508
 93
       34
310
40C8804040
  0
ACAD_PROXY_OBJECT
  5
10082
102
{ACAD_REACTORS
330
1007B
102
}
330
1007B
100
AcDbProxyObject
 90
      499
 91
      508
 93
       34
310
40C8804040
  0
XRECORD
  5
10083
102
{ACAD_REACTORS
330
1007B
102
}
330
1007B
100
AcDbXrecord
1000
auto
  0
XRECORD
  5
10084
102
{ACAD_REACTORS
330
1007B
102
}
330
1007B
100
AcDbXrecord
1000
auto
  0
XRECORD
  5
10085
102
{ACAD_REACTORS
330
1007B
102
}
330
1007B
100
AcDbXrecord
1000
auto
  0
XRECORD
  5
10086
102
{ACAD_REACTORS
330
1007B
102
}
330
1007B
100
AcDbXrecord
1000
auto
  0
XRECORD
  5
10087
102
{ACAD_REACTORS
330
1007B
102
}
330
1007B
100
AcDbXrecord
1000
auto
  0
XRECORD
  5
10088
102
{ACAD_REACTORS
330
1007B
102
}
330
1007B
100
AcDbXrecord
1000
auto
  0
XRECORD
  5
10089
102
{ACAD_REACTORS
330
1007B
102
}
330
1007B
100
AcDbXrecord
1000
auto
  0
XRECORD
  5
1008A
102
{ACAD_REACTORS
330
1007B
102
}
330
1007B
100
AcDbXrecord
1000
auto
  0
ACAD_PROXY_OBJECT
  5
1008B
102
{ACAD_REACTORS
330
1007B
102
}
330
1007B
100
AcDbProxyObject
 90
      499
 91
      508
 93
       34
310
40C8804000
  0
ACAD_PROXY_OBJECT
  5
1008C
102
{ACAD_REACTORS
330
1007B
102
}
330
1007B
100
AcDbProxyObject
 90
      499
 91
      508
 93
       34
310
40C8804000
  0
ACAD_PROXY_OBJECT
  5
1008D
102
{ACAD_REACTORS
330
1007B
102
}
330
1007B
100
AcDbProxyObject
 90
      499
 91
      508
 93
       34
310
40C8804000
  0
ACAD_PROXY_OBJECT
  5
1008E
102
{ACAD_REACTORS
330
1007B
102
}
330
1007B
100
AcDbProxyObject
 90
      499
 91
      508
 93
       34
310
40C8804000
  0
XRECORD
  5
1008F
102
{ACAD_REACTORS
330
1007B
102
}
330
1007B
100
AcDbXrecord
 90
    65537
  0
XRECORD
  5
10090
102
{ACAD_REACTORS
330
1007B
102
}
330
1007B
100
AcDbXrecord
 90
    65537
  0
XRECORD
  5
10091
102
{ACAD_REACTORS
330
1007B
102
}
330
1007B
100
AcDbXrecord
 90
    65537
  0
XRECORD
  5
10092
102
{ACAD_REACTORS
330
1007B
102
}
330
1007B
100
AcDbXrecord
 90
    65537
  0
XRECORD
  5
10093
102
{ACAD_REACTORS
330
1007B
102
}
330
1007B
100
AcDbXrecord
1000
auto
  0
XRECORD
  5
10094
102
{ACAD_REACTORS
330
1007B
102
}
330
1007B
100
AcDbXrecord
1000
auto
  0
XRECORD
  5
10095
102
{ACAD_REACTORS
330
1007B
102
}
330
1007B
100
AcDbXrecord
1000
auto
  0
XRECORD
  5
10096
102
{ACAD_REACTORS
330
1007B
102
}
330
1007B
100
AcDbXrecord
1000
auto
  0
XRECORD
  5
10097
102
{ACAD_REACTORS
330
1007B
102
}
330
1007B
100
AcDbXrecord
1000
auto
  0
XRECORD
  5
10098
102
{ACAD_REACTORS
330
1007B
102
}
330
1007B
100
AcDbXrecord
1000
auto
  0
XRECORD
  5
10099
102
{ACAD_REACTORS
330
1007B
102
}
330
1007B
100
AcDbXrecord
1000
auto
  0
XRECORD
  5
1009A
102
{ACAD_REACTORS
330
1007B
102
}
330
1007B
100
AcDbXrecord
1000
auto
  0
XRECORD
  5
1009B
102
{ACAD_REACTORS
330
1007B
102
}
330
1007B
100
AcDbXrecord
 90
        1
  0
XRECORD
  5
1009D
102
{ACAD_REACTORS
330
1007B
102
}
330
1007B
100
AcDbXrecord
 40
10.0
  0
XRECORD
  5
1009E
102
{ACAD_REACTORS
330
1007B
102
}
330
1007B
100
AcDbXrecord
 40
10.0
  0
XRECORD
  5
1009F
102
{ACAD_REACTORS
330
1007B
102
}
330
1007B
100
AcDbXrecord
 40
10.0
  0
XRECORD
  5
1009C
102
{ACAD_REACTORS
330
1007B
102
}
330
1007B
100
AcDbXrecord
 40
10.0
  0
ACAD_PROXY_OBJECT
  5
100A0
102
{ACAD_REACTORS
330
1007B
102
}
330
1007B
100
AcDbProxyObject
 90
      499
 91
      508
 93
       34
310
40C8804000
  0
XRECORD
  5
100A1
102
{ACAD_REACTORS
330
1007B
102
}
330
1007B
100
AcDbXrecord
 90
        1
  0
XRECORD
  5
100A2
102
{ACAD_REACTORS
330
1007B
102
}
330
1007B
100
AcDbXrecord
 40
0.0
  0
XRECORD
  5
100A3
102
{ACAD_REACTORS
330
1007B
102
}
330
1007B
100
AcDbXrecord
 40
0.0
  0
XRECORD
  5
100A4
102
{ACAD_REACTORS
330
1007B
102
}
330
1007B
100
AcDbXrecord
1000
Portrait
  0
XRECORD
  5
100A5
102
{ACAD_REACTORS
330
1007B
102
}
330
1007B
100
AcDbXrecord
 40
594.0
  0
XRECORD
  5
100A6
102
{ACAD_REACTORS
330
1007B
102
}
330
1007B
100
AcDbXrecord
 40
420.0
  0
XRECORD
  5
100A7
102
{ACAD_REACTORS
330
1007B
102
}
330
1007B
100
AcDbXrecord
1000
1:1
  0
ACAD_PROXY_OBJECT
  5
100A8
102
{ACAD_REACTORS
330
1007B
102
}
330
1007B
100
AcDbProxyObject
 90
      499
 91
      508
 93
       34
310
40C8804040
  0
ACAD_PROXY_OBJECT
  5
100A9
102
{ACAD_REACTORS
330
1007B
102
}
330
1007B
100
AcDbProxyObject
 90
      499
 91
      508
 93
       34
310
40C8804000
  0
XRECORD
  5
100AA
102
{ACAD_REACTORS
330
1007B
102
}
330
1007B
100
AcDbXrecord
1000
Inside
  0
XRECORD
  5
100AB
102
{ACAD_REACTORS
330
1007B
102
}
330
1007B
100
AcDbXrecord
1000
Arial,10,-1,5,50,0,0,0,0,0
  0
XRECORD
  5
100AC
102
{ACAD_REACTORS
330
1007B
102
}
330
1007B
100
AcDbXrecord
1000
TopLeft
  0
XRECORD
  5
100AD
102
{ACAD_REACTORS
330
1007B
102
}
330
1007B
100
AcDbXrecord
1000
3.28.2
  0
XRECORD
  5
100AE
102
{ACAD_REACTORS
330
1007B
102
}
330
1007B
100
AcDbXrecord
 90
        4
  0
XRECORD
  5
100AF
102
{ACAD_REACTORS
330
1007B
102
}
330
1007B
100
AcDbXrecord
  0
XRECORD
  5
100B0
102
{ACAD_REACTORS
330
1007B
102
}
330
1007B
100
AcDbXrecord
 40
325.4332646343962
  0
XRECORD
  5
100B1
102
{ACAD_REACTORS
330
1007B
102
}
330
1007B
100
AcDbXrecord
 40
657.6144386203067
  0
DICTIONARY
  5
1011D
330
10061
100
AcDbDictionary
280
     1
  3
ACAD_XREC_ROUNDTRIP
360
1011E
  0
DICTIONARY
  5
1011B
330
10060
100
AcDbDictionary
280
     1
  3
ACAD_XREC_ROUNDTRIP
360
1011C
  0
DICTIONARY
  5
1011F
330
10062
100
AcDbDictionary
280
     1
  3
ACAD_XREC_ROUNDTRIP
360
10120
  0
XRECORD
  5
1011E
102
{ACAD_REACTORS
330
1011D
102
}
330
1011D
100
AcDbXrecord
102
MATERIAL
148
0.0
149
0.0
149
0.0
 93
        0
 94
      127
282
     0
 72
     1
 77
     1
171
     1
175
     1
179
     1
273
     0
  0
XRECORD
  5
1011C
102
{ACAD_REACTORS
330
1011B
102
}
330
1011B
100
AcDbXrecord
102
MATERIAL
148
0.0
149
0.0
149
0.0
 93
        0
 94
      127
282
     0
 72
     1
 77
     1
171
     1
175
     1
179
     1
273
     0
  0
XRECORD
  5
10120
102
{ACAD_REACTORS
330
1011F
102
}
330
1011F
100
AcDbXrecord
102
MATERIAL
148
0.0
149
0.0
149
0.0
 93
        0
 94
      127
282
     0
 72
     1
 77
     1
171
     1
175
     1
179
     1
273
     0
  0
ENDSEC
  0
EOF
