0
SECTION
2
HEADER
9
$INSUNITS
70
4
9
$ACADVER
1
AC1014
9
$HANDSEED
5
FFFF
0
ENDSEC
0
SECTION
2
TABLES
0
TABLE
2
VPORT
5
8
100
AcDbSymbolTable
0
ENDTAB
0
TABLE
2
LTYPE
5
5
100
AcDbSymbolTable
0
LTYPE
5
14
100
AcDbSymbolTableRecord
100
AcDbLinetypeTableRecord
2
BYBLOCK
70
0
0
LTYPE
5
15
100
AcDbSymbolTableRecord
100
AcDbLinetypeTableRecord
2
BYLAYER
70
0
0
ENDTAB
0
TABLE
2
LAYER
5
2
100
AcDbSymbolTable
70
2
0
LAYER
5
50
100
AcDbSymbolTableRecord
100
AcDbLayerTableRecord
2
0
70
0
6
CONTINUOUS
0
ENDTAB
0
TABLE
2
STYLE
5
3
100
AcDbSymbolTable
70
1
0
STYLE
5
11
100
AcDbSymbolTableRecord
100
AcDbTextStyleTableRecord
2
STANDARD
70
0
0
ENDTAB
0
TABLE
2
VIEW
5
6
100
AcDbSymbolTable
70
0
0
ENDTAB
0
TABLE
2
UCS
5
7
100
AcDbSymbolTable
70
0
0
ENDTAB
0
TABLE
2
APPID
5
9
100
AcDbSymbolTable
70
2
0
APPID
5
12
100
AcDbSymbolTableRecord
100
AcDbRegAppTableRecord
2
ACAD
70
0
0
ENDTAB
0
TABLE
2
DIMSTYLE
5
A
100
AcDbSymbolTable
70
1
0
ENDTAB
0
TABLE
2
BLOCK_RECORD
5
1
100
AcDbSymbolTable
70
1
0
BLOCK_RECORD
5
1F
100
AcDbSymbolTableRecord
100
AcDbBlockTableRecord
2
*MODEL_SPACE
0
BLOCK_RECORD
5
1B
100
AcDbSymbolTableRecord
100
AcDbBlockTableRecord
2
*PAPER_SPACE
0
ENDTAB
0
ENDSEC
0
SECTION
2
BLOCKS
0
BLOCK
5
20
100
AcDbEntity
100
AcDbBlockBegin
2
*MODEL_SPACE
0
ENDBLK
5
21
100
AcDbEntity
100
AcDbBlockEnd
0
BLOCK
5
1C
100
AcDbEntity
100
AcDbBlockBegin
2
*PAPER_SPACE
0
ENDBLK
5
1D
100
AcDbEntity
100
AcDbBlockEnd
0
ENDSEC
0
SECTION
2
ENTITIES
0
SPLINE
5
100
100
AcDbEntity
8
0
100
AcDbSpline
70
0
71
3
72
20
73
16
74
0
42
0.000000001
43
0.0000000001
44
0.0000000001
40
0.4521382259567569
40
0.4521382259567569
40
0.4521382259567569
40
0.4521382259567569
40
0.64990158887497629
40
0.64990158887497629
40
0.64990158887497629
40
0.80947454963665433
40
0.80947454963665433
40
0.80947454963665433
40
1.0244147910597015
40
1.0244147910597015
40
1.0244147910597015
40
1.2595938866989724
40
1.2595938866989724
40
1.2595938866989724
40
1.356414677870271
40
1.356414677870271
40
1.356414677870271
40
1.356414677870271
10
95.999999999999972
20
-152.62346610632653
30
0
10
95.999999999999972
20
-151.96425489659913
30
0
10
96.254207921614011
20
-151.23763474539777
30
0
10
96.685595024282165
20
-150.71420811014104
30
0
10
97.03367626739707
20
-150.29186123710582
30
0
10
97.498870850742506
20
-149.96428104813748
30
0
10
98.032860424353998
20
-149.78213607788507
30
0
10
98.752129198472062
20
-149.53679198140921
30
0
10
99.5224040038689
20
-149.57117407131099
30
0
10
100.21747450665939
20
-149.8802645943957
30
0
10
100.97799311020026
20
-150.21845919773506
30
0
10
101.55915888632718
20
-150.85061920818021
30
0
10
101.8328554632739
20
-151.6360177865653
30
0
10
101.94553350146784
20
-151.95935822435953
30
0
10
101.99999999999997
20
-152.30073013575554
30
0
10
101.99999999999997
20
-152.62346610632653
30
0
0
SPLINE
5
101
100
AcDbEntity
8
0
100
AcDbSpline
70
0
71
3
72
20
73
16
74
0
42
0.000000001
43
0.0000000001
44
0.0000000001
40
0.45213822595675679
40
0.45213822595675679
40
0.45213822595675679
40
0.45213822595675679
40
0.64990158887325356
40
0.64990158887325356
40
0.64990158887325356
40
0.80947454963337839
40
0.80947454963337839
40
0.80947454963337839
40
1.0244147910599806
40
1.0244147910599806
40
1.0244147910599806
40
1.259593886698966
40
1.259593886698966
40
1.259593886698966
40
1.3564146778702706
40
1.3564146778702706
40
1.3564146778702706
40
1.3564146778702706
10
220.99999999999997
20
-152.62346610632656
30
0
10
220.99999999999997
20
-151.96425489660493
30
0
10
221.25420792160898
20
-151.23763474541019
30
0
10
221.6855950242709
20
-150.71420811015471
30
0
10
222.03367626738043
20
-150.29186123712097
30
0
10
222.49887085071674
20
-149.96428104815317
30
0
10
223.03286042432109
20
-149.78213607789627
30
0
10
223.75212919844844
20
-149.53679198140793
30
0
10
224.52240400386043
20
-149.57117407130636
30
0
10
225.21747450666209
20
-149.88026459439686
30
0
10
225.97799311020171
20
-150.21845919773659
30
0
10
226.55915888632748
20
-150.85061920818109
30
0
10
226.83285546327392
20
-151.63601778656522
30
0
10
226.94553350146788
20
-151.95935822435951
30
0
10
226.99999999999994
20
-152.30073013575551
30
0
10
226.99999999999994
20
-152.62346610632653
30
0
0
SPLINE
5
102
100
AcDbEntity
8
0
100
AcDbSpline
70
0
71
3
72
20
73
16
74
0
42
0.000000001
43
0.0000000001
44
0.0000000001
40
0.45213822595675734
40
0.45213822595675734
40
0.45213822595675734
40
0.45213822595675734
40
0.64990158887434557
40
0.64990158887434557
40
0.64990158887434557
40
0.80947454963571808
40
0.80947454963571808
40
0.80947454963571808
40
1.0244147910598029
40
1.0244147910598029
40
1.0244147910598029
40
1.2595938866991789
40
1.2595938866991789
40
1.2595938866991789
40
1.3564146778702715
40
1.3564146778702715
40
1.3564146778702715
40
1.3564146778702715
10
95.999999999999972
20
58.910439235386754
30
0
10
95.999999999999972
20
59.56965044511206
30
0
10
96.254207921612164
20
60.296270596310997
30
0
10
96.68559502427803
20
60.819697231567247
30
0
10
97.033676267391527
20
61.24204410460262
30
0
10
97.498870850734619
20
61.569624293571138
30
0
10
98.03286042434452
20
61.751769263825018
30
0
10
98.752129198465312
20
61.997113360304482
30
0
10
99.522404003866654
20
61.96273127040363
30
0
10
100.21747450666038
20
61.653640747317162
30
0
10
100.97799311020147
20
61.315446143977368
30
0
10
101.55915888632835
20
60.68328613353161
30
0
10
101.83285546327465
20
59.897887555145928
30
0
10
101.94553350146812
20
59.574547117352274
30
0
10
102
20
59.233175205957053
30
0
10
102
20
58.910439235386747
30
0
0
SPLINE
5
103
100
AcDbEntity
8
0
100
AcDbSpline
70
0
71
3
72
20
73
16
74
0
42
0.000000001
43
0.0000000001
44
0.0000000001
40
0.45213822595675734
40
0.45213822595675734
40
0.45213822595675734
40
0.45213822595675734
40
0.64990158887510674
40
0.64990158887510674
40
0.64990158887510674
40
0.8094745496366772
40
0.8094745496366772
40
0.8094745496366772
40
1.0244147910595423
40
1.0244147910595423
40
1.0244147910595423
40
1.2595938867000842
40
1.2595938867000842
40
1.2595938867000842
40
1.3564146778702715
40
1.3564146778702715
40
1.3564146778702715
40
1.3564146778702715
10
220.99999999999997
20
58.910439235386747
30
0
10
220.99999999999997
20
59.569650445114569
30
0
10
221.25420792161435
20
60.296270596316461
30
0
10
221.68559502428297
20
60.819697231573294
30
0
10
222.03367626739779
20
61.242044104608041
30
0
10
222.49887085074309
20
61.569624293576069
30
0
10
223.0328604243542
20
61.751769263828322
30
0
10
223.75212919847161
20
61.997113360303899
30
0
10
224.52240400386773
20
61.962731270402372
30
0
10
225.21747450665782
20
61.653640747318292
30
0
10
225.97799311020304
20
61.31544614397751
30
0
10
226.55915888633268
20
60.68328613352719
30
0
10
226.83285546327778
20
59.897887555136869
30
0
10
226.94553350146916
20
59.574547117345922
30
0
10
227
20
59.233175205954041
30
0
10
227
20
58.910439235386754
30
0
0
SPLINE
5
104
100
AcDbEntity
8
0
100
AcDbSpline
70
0
71
3
72
20
73
16
74
0
42
0.000000001
43
0.0000000001
44
0.0000000001
40
0.45213822595675712
40
0.45213822595675712
40
0.45213822595675712
40
0.45213822595675712
40
0.64990158887607996
40
0.64990158887607996
40
0.64990158887607996
40
0.80947454963870724
40
0.80947454963870724
40
0.80947454963870724
40
1.0244147910595482
40
1.0244147910595482
40
1.0244147910595482
40
1.2595938866993268
40
1.2595938866993268
40
1.2595938866993268
40
1.3564146778702713
40
1.3564146778702713
40
1.3564146778702713
40
1.3564146778702713
10
95.999999999999972
20
-170.25129155146936
30
0
10
95.999999999999972
20
-169.59208034173827
30
0
10
96.254207921617251
20
-168.86546019053256
30
0
10
96.68559502428937
20
-168.34203355527504
30
0
10
97.033676267407628
20
-167.91968668223902
30
0
10
97.498870850758763
20
-167.59210649327042
30
0
10
98.032860424374604
20
-167.4099615230208
30
0
10
98.752129198486855
20
-167.16461742655275
30
0
10
99.522404003874414
20
-167.19899951645664
30
0
10
100.21747450665787
20
-167.50809003953779
30
0
10
100.97799311020053
20
-167.84628464287746
30
0
10
101.55915888632883
20
-168.47844465332454
30
0
10
101.83285546327514
20
-169.26384323171163
30
0
10
101.94553350146826
20
-169.58718366950481
30
0
10
101.99999999999997
20
-169.92855558089951
30
0
10
101.99999999999997
20
-170.25129155146931
30
0
0
SPLINE
5
105
100
AcDbEntity
8
0
100
AcDbSpline
70
0
71
3
72
20
73
16
74
0
42
0.000000001
43
0.0000000001
44
0.0000000001
40
0.4521382259567569
40
0.4521382259567569
40
0.4521382259567569
40
0.4521382259567569
40
0.64990158887366456
40
0.64990158887366456
40
0.64990158887366456
40
0.80947454963408816
40
0.80947454963408816
40
0.80947454963408816
40
1.0244147910600465
40
1.0244147910600465
40
1.0244147910600465
40
1.259593886697234
40
1.259593886697234
40
1.259593886697234
40
1.3564146778702708
40
1.3564146778702708
40
1.3564146778702708
40
1.3564146778702708
10
96
20
41.282613790243978
30
0
10
96
20
41.941824999967004
30
0
10
96.254207921610146
20
42.668445151163283
30
0
10
96.685595024273582
20
43.191871786419085
30
0
10
97.033676267384266
20
43.614218659453037
30
0
10
97.498870850722426
20
43.941798848420774
30
0
10
98.03286042432822
20
44.123943818676679
30
0
10
98.752129198454014
20
44.369287915162481
30
0
10
99.522404003863144
20
44.334905825263107
30
0
10
100.21747450666271
20
44.025815302173335
30
0
10
100.97799311019651
20
43.687620698836028
30
0
10
101.55915888631867
20
43.055460688399243
30
0
10
101.83285546326785
20
42.270062110022629
30
0
10
101.9455335014658
20
41.946721672223205
30
0
10
102
20
41.605349760820765
30
0
10
102
20
41.282613790243978
30
0
0
SPLINE
5
106
100
AcDbEntity
8
0
100
AcDbSpline
70
0
71
3
72
20
73
16
74
0
42
0.000000001
43
0.0000000001
44
0.0000000001
40
0.45213822595675673
40
0.45213822595675673
40
0.45213822595675673
40
0.45213822595675673
40
0.64990158887275062
40
0.64990158887275062
40
0.64990158887275062
40
0.80947454963265097
40
0.80947454963265097
40
0.80947454963265097
40
1.0244147910597212
40
1.0244147910597212
40
1.0244147910597212
40
1.2595938866997978
40
1.2595938866997978
40
1.2595938866997978
40
1.3564146778702713
40
1.3564146778702713
40
1.3564146778702713
40
1.3564146778702713
10
220.99999999999997
20
-170.25129155146928
30
0
10
220.99999999999997
20
-169.59208034174932
30
0
10
221.25420792160747
20
-168.8654601905566
30
0
10
221.68559502426757
20
-168.3420335553015
30
0
10
222.03367626737602
20
-167.91968668226755
30
0
10
222.49887085071063
20
-167.59210649329961
30
0
10
223.03286042431381
20
-167.40996152304155
30
0
10
223.75212919844219
20
-167.16461742655082
30
0
10
224.52240400385617
20
-167.198999516448
30
0
10
225.21747450665958
20
-167.50809003953856
30
0
10
225.97799311020304
20
-167.84628464287914
30
0
10
226.55915888633143
20
-168.47844465332776
30
0
10
226.83285546327679
20
-169.26384323171629
30
0
10
226.94553350146879
20
-169.58718366950808
30
0
10
227
20
-169.92855558090102
30
0
10
227
20
-170.25129155146928
30
0
0
SPLINE
5
107
100
AcDbEntity
8
0
100
AcDbSpline
70
0
71
3
72
20
73
16
74
0
42
0.000000001
43
0.0000000001
44
0.0000000001
40
0.4521382259567569
40
0.4521382259567569
40
0.4521382259567569
40
0.4521382259567569
40
0.64990158887646277
40
0.64990158887646277
40
0.64990158887646277
40
0.80947454963924237
40
0.80947454963924237
40
0.80947454963924237
40
1.0244147910593762
40
1.0244147910593762
40
1.0244147910593762
40
1.259593886699534
40
1.259593886699534
40
1.259593886699534
40
1.3564146778702708
40
1.3564146778702708
40
1.3564146778702708
40
1.3564146778702708
10
220.99999999999997
20
41.282613790243978
30
0
10
220.99999999999997
20
41.941824999976333
30
0
10
221.25420792161839
20
42.668445151183477
30
0
10
221.6855950242919
20
43.191871786441283
30
0
10
222.0336762674109
20
43.614218659477118
30
0
10
222.49887085076335
20
43.941798848445607
30
0
10
223.03286042437998
20
44.123943818694329
30
0
10
223.75212919849025
20
44.369287915160172
30
0
10
224.5224040038747
20
44.334905825255994
30
0
10
225.21747450665617
20
44.025815302176241
30
0
10
225.9779931102004
20
43.687620698836454
30
0
10
226.55915888632964
20
43.055460688388159
30
0
10
226.83285546327585
20
42.2700621099996
30
0
10
226.9455335014685
20
41.946721672207019
30
0
10
227
20
41.605349760813091
30
0
10
227
20
41.282613790243971
30
0
0
SPLINE
5
108
100
AcDbEntity
8
0
100
AcDbSpline
70
0
71
3
72
20
73
16
74
0
42
0.000000001
43
0.0000000001
44
0.0000000001
40
0.45213822595675679
40
0.45213822595675679
40
0.45213822595675679
40
0.45213822595675679
40
0.64990158887522143
40
0.64990158887522143
40
0.64990158887522143
40
0.80947454963703369
40
0.80947454963703369
40
0.80947454963703369
40
1.0244147910597166
40
1.0244147910597166
40
1.0244147910597166
40
1.2595938867001992
40
1.2595938867001992
40
1.2595938867001992
40
1.356414677870271
40
1.356414677870271
40
1.356414677870271
40
1.356414677870271
10
96
20
-46.856513435469878
30
0
10
96
20
-46.19730222574168
30
0
10
96.254207921614707
20
-45.470682074539383
30
0
10
96.685595024283771
20
-44.947255439282436
30
0
10
97.033676267399272
20
-44.524908566247213
30
0
10
97.498870850745632
20
-44.197328377278957
30
0
10
98.032860424357779
20
-44.015183407027109
30
0
10
98.752129198474904
20
-43.769839310552648
30
0
10
99.522404003870278
20
-43.804221400454878
30
0
10
100.21747450665953
20
-44.113311923539101
30
0
10
100.97799311020427
20
-44.451506526880237
30
0
10
101.55915888633348
20
-45.083666537330657
30
0
10
101.83285546327821
20
-45.869065115720915
30
0
10
101.94553350146931
20
-46.192405553511534
30
0
10
102
20
-46.533777464902997
30
0
10
102
20
-46.8565134354699
30
0
0
SPLINE
5
109
100
AcDbEntity
8
0
100
AcDbSpline
70
0
71
3
72
20
73
16
74
0
42
0.000000001
43
0.0000000001
44
0.0000000001
40
0.45213822595675679
40
0.45213822595675679
40
0.45213822595675679
40
0.45213822595675679
40
0.64990158887305349
40
0.64990158887305349
40
0.64990158887305349
40
0.80947454963309362
40
0.80947454963309362
40
0.80947454963309362
40
1.0244147910599204
40
1.0244147910599204
40
1.0244147910599204
40
1.2595938866993466
40
1.2595938866993466
40
1.2595938866993466
40
1.356414677870271
40
1.356414677870271
40
1.356414677870271
40
1.356414677870271
10
220.99999999999997
20
-46.856513435469893
30
0
10
220.99999999999997
20
-46.197302225748906
30
0
10
221.25420792160836
20
-45.470682074554986
30
0
10
221.68559502426956
20
-44.947255439299653
30
0
10
222.03367626737867
20
-44.524908566265786
30
0
10
222.49887085071438
20
-44.197328377297922
30
0
10
223.0328604243183
20
-44.015183407040574
30
0
10
223.75212919844617
20
-43.769839310551255
30
0
10
224.52240400385898
20
-43.804221400449251
30
0
10
225.21747450666146
20
-44.113311923539968
30
0
10
225.97799311020268
20
-44.451506526880152
30
0
10
226.55915888632936
20
-45.08366653732643
30
0
10
226.83285546327522
20
-45.869065115712374
30
0
10
226.9455335014683
20
-46.192405553505516
30
0
10
226.99999999999994
20
-46.533777464900147
30
0
10
226.99999999999994
20
-46.856513435469893
30
0
0
SPLINE
5
110
100
AcDbEntity
8
0
100
AcDbSpline
70
0
71
3
72
20
73
16
74
0
42
0.000000001
43
0.0000000001
44
0.0000000001
40
0.45213822595675662
40
0.45213822595675662
40
0.45213822595675662
40
0.45213822595675662
40
0.64990158887427207
40
0.64990158887427207
40
0.64990158887427207
40
0.80947454963522758
40
0.80947454963522758
40
0.80947454963522758
40
1.024414791059824
40
1.024414791059824
40
1.024414791059824
40
1.2595938866995438
40
1.2595938866995438
40
1.2595938866995438
40
1.3564146778702713
40
1.3564146778702713
40
1.3564146778702713
40
1.3564146778702713
10
95.999999999999972
20
-64.48433888061264
30
0
10
95.999999999999972
20
-63.825127670887582
30
0
10
96.254207921611936
20
-63.098507519688951
30
0
10
96.685595024277561
20
-62.57508088443273
30
0
10
97.033676267390092
20
-62.152734011398323
30
0
10
97.498870850731379
20
-61.825153822430401
30
0
10
98.032860424339603
20
-61.64300885217606
30
0
10
98.752129198461745
20
-61.397664755694741
30
0
10
99.522404003865347
20
-61.432046845595082
30
0
10
100.21747450666061
20
-61.741137368682324
30
0
10
100.9779931102027
20
-62.079331972022651
30
0
10
101.55915888633025
20
-62.711491982470022
30
0
10
101.83285546327591
20
-63.496890560857125
30
0
10
101.94553350146853
20
-63.820230998649677
30
0
10
101.99999999999997
20
-64.16160291004357
30
0
10
101.99999999999997
20
-64.484338880612654
30
0
0
SPLINE
5
111
100
AcDbEntity
8
0
100
AcDbSpline
70
0
71
3
72
20
73
16
74
0
42
0.000000001
43
0.0000000001
44
0.0000000001
40
0.45213822595675662
40
0.45213822595675662
40
0.45213822595675662
40
0.45213822595675662
40
0.64990158887259686
40
0.64990158887259686
40
0.64990158887259686
40
0.80947454963222731
40
0.80947454963222731
40
0.80947454963222731
40
1.0244147910599912
40
1.0244147910599912
40
1.0244147910599912
40
1.259593886698688
40
1.259593886698688
40
1.259593886698688
40
1.3564146778702713
40
1.3564146778702713
40
1.3564146778702713
40
1.3564146778702713
10
220.99999999999997
20
-64.484338880612654
30
0
10
220.99999999999997
20
-63.825127670893174
30
0
10
221.25420792160702
20
-63.098507519701023
30
0
10
221.68559502426658
20
-62.575080884446031
30
0
10
222.03367626737423
20
-62.152734011412548
30
0
10
222.4988708507075
20
-61.825153822444854
30
0
10
223.03286042430955
20
-61.643008852186306
30
0
10
223.75212919843992
20
-61.397664755693683
30
0
10
224.52240400385676
20
-61.432046845590804
30
0
10
225.2174745066622
20
-61.741137368683034
30
0
10
225.97799311020088
20
-62.079331972022366
30
0
10
226.55915888632603
20
-62.711491982465603
30
0
10
226.83285546327289
20
-63.496890560848541
30
0
10
226.94553350146751
20
-63.820230998643638
30
0
10
227
20
-64.161602910040699
30
0
10
227
20
-64.484338880612654
30
0
0
LWPOLYLINE
5
112
100
AcDbEntity
8
0
100
AcDbPolyline
90
4
70
1
43
0.0
10
0
20
0
10
19.999999999999964
20
0
10
19.999999999999964
20
-5.6003057774867671
10
0
20
-5.6003057774867671
0
LWPOLYLINE
5
113
100
AcDbEntity
8
0
100
AcDbPolyline
90
4
70
1
43
0.0
10
260
20
0
10
280
20
0
10
280
20
-5.6003057774867671
10
260
20
-5.6003057774867671
0
LINE
5
114
100
AcDbEntity
8
0
100
AcDbLine
10
36.500000000001016
20
52.59754878232787
30
0
11
311.5
21
52.597548782327848
31
0
0
LINE
5
115
100
AcDbEntity
8
0
100
AcDbLine
10
-135.50000000000006
20
102.97500284831119
30
0
11
-135.50000000000006
21
-214.32085516432622
31
0
0
LINE
5
116
100
AcDbEntity
8
0
100
AcDbLine
10
311.5
20
-163.93840109841037
30
0
11
36.500000000001016
21
-163.93840109841045
31
0
0
LINE
5
117
100
AcDbEntity
8
0
100
AcDbLine
10
36.500000000001016
20
-163.93840109841045
30
0
11
36.500000000001016
21
-158.93635655938542
31
0
0
LINE
5
118
100
AcDbEntity
8
0
100
AcDbLine
10
36.500000000001016
20
-158.93635655938542
30
0
11
311.5
21
-158.9363565593853
31
0
0
LINE
5
119
100
AcDbEntity
8
0
100
AcDbLine
10
311.5
20
-58.17144842755377
30
0
11
36.500000000000945
21
-58.17144842755377
31
0
0
LINE
5
120
100
AcDbEntity
8
0
100
AcDbLine
10
36.500000000000945
20
-58.17144842755377
30
0
11
36.500000000000945
21
-53.169403888528763
31
0
0
LINE
5
121
100
AcDbEntity
8
0
100
AcDbLine
10
36.500000000000945
20
-53.169403888528763
30
0
11
311.5
21
-53.169403888528706
31
0
0
LINE
5
122
100
AcDbEntity
8
0
100
AcDbLine
10
311.5
20
47.595504243302855
30
0
11
36.500000000001016
21
47.595504243302841
31
0
0
LINE
5
123
100
AcDbEntity
8
0
100
AcDbLine
10
36.500000000001016
20
47.595504243302841
30
0
11
36.500000000001016
21
52.59754878232787
31
0
0
SPLINE
5
124
100
AcDbEntity
8
0
100
AcDbSpline
70
0
71
3
72
14
73
10
74
0
42
0.000000001
43
0.0000000001
44
0.0000000001
40
1.356414677870271
40
1.356414677870271
40
1.356414677870271
40
1.356414677870271
40
1.5541780407866448
40
1.5541780407866448
40
1.5541780407866448
40
1.7137510015469803
40
1.7137510015469803
40
1.7137510015469803
40
1.8085529038270269
40
1.8085529038270269
40
1.8085529038270269
40
1.8085529038270269
10
101.99999999999997
20
-152.62346610632653
30
0
10
101.99999999999997
20
-153.2826773160478
30
0
10
101.74579207839139
20
-154.00929746724199
30
0
10
101.31440497572989
20
-154.53272410249741
30
0
10
100.96632373262003
20
-154.95507097553195
30
0
10
100.50112914928313
20
-155.28265116450012
30
0
10
99.967139575678004
20
-155.46479613475714
30
0
10
99.649897687489243
20
-155.57300801218815
30
0
10
99.326257788556063
20
-155.62523344733475
30
0
10
98.999999999999986
20
-155.62523344733475
30
0
0
SPLINE
5
125
100
AcDbEntity
8
0
100
AcDbSpline
70
0
71
3
72
14
73
10
74
0
42
0.000000001
43
0.0000000001
44
0.0000000001
40
1.8085529038270269
40
1.8085529038270269
40
1.8085529038270269
40
1.8085529038270269
40
1.9286912429735219
40
1.9286912429735219
40
1.9286912429735219
40
2.16387033861283
40
2.16387033861283
40
2.16387033861283
40
2.2606911297837851
40
2.2606911297837851
40
2.2606911297837851
40
2.2606911297837851
10
98.999999999999986
20
-155.62523344733475
30
0
10
98.58654765455077
20
-155.62523344733475
30
0
10
98.171027037962602
20
-155.5394301584094
30
0
10
97.78252549333763
20
-155.36666761825609
30
0
10
97.022006889797041
20
-155.02847301491587
30
0
10
96.4408411136707
20
-154.39631300446993
30
0
10
96.167144536724862
20
-153.61091442608438
30
0
10
96.05446649853171
20
-153.28757398829114
30
0
10
96
20
-152.94620207689638
30
0
10
96
20
-152.62346610632653
30
0
0
SPLINE
5
126
100
AcDbEntity
8
0
100
AcDbSpline
70
0
71
3
72
14
73
10
74
0
42
0.000000001
43
0.0000000001
44
0.0000000001
40
1.3564146778702706
40
1.3564146778702706
40
1.3564146778702706
40
1.3564146778702706
40
1.5541780407857853
40
1.5541780407857853
40
1.5541780407857853
40
1.713751001545287
40
1.713751001545287
40
1.713751001545287
40
1.8085529038270272
40
1.8085529038270272
40
1.8085529038270272
40
1.8085529038270272
10
227
20
-152.62346610632653
30
0
10
227
20
-153.28267731604492
30
0
10
226.74579207839389
20
-154.00929746723583
30
0
10
226.31440497573553
20
-154.53272410249056
30
0
10
225.9663237326285
20
-154.95507097552419
30
0
10
225.50112914929639
20
-155.28265116449205
30
0
10
224.967139575695
20
-155.46479613475134
30
0
10
224.64989768750115
20
-155.57300801218622
30
0
10
224.32625778856189
20
-155.62523344733475
30
0
10
224
20
-155.62523344733475
30
0
0
SPLINE
5
127
100
AcDbEntity
8
0
100
AcDbSpline
70
0
71
3
72
14
73
10
74
0
42
0.000000001
43
0.0000000001
44
0.0000000001
40
1.8085529038270272
40
1.8085529038270272
40
1.8085529038270272
40
1.8085529038270272
40
1.9286912429733531
40
1.9286912429733531
40
1.9286912429733531
40
2.1638703386130325
40
2.1638703386130325
40
2.1638703386130325
40
2.2606911297837842
40
2.2606911297837842
40
2.2606911297837842
40
2.2606911297837842
10
224
20
-155.62523344733475
30
0
10
223.58654765455128
20
-155.62523344733475
30
0
10
223.1710270379638
20
-155.53943015840963
30
0
10
222.78252549333925
20
-155.36666761825683
30
0
10
222.02200688979718
20
-155.02847301491647
30
0
10
221.44084111366982
20
-154.39631300446928
30
0
10
221.16714453672415
20
-153.61091442608233
30
0
10
221.05446649853147
20
-153.28757398828969
30
0
10
220.99999999999997
20
-152.94620207689573
30
0
10
220.99999999999997
20
-152.62346610632653
30
0
0
SPLINE
5
128
100
AcDbEntity
8
0
100
AcDbSpline
70
0
71
3
72
14
73
10
74
0
42
0.000000001
43
0.0000000001
44
0.0000000001
40
1.3564146778702715
40
1.3564146778702715
40
1.3564146778702715
40
1.3564146778702715
40
1.5541780407864878
40
1.5541780407864878
40
1.5541780407864878
40
1.7137510015468522
40
1.7137510015468522
40
1.7137510015468522
40
1.8085529038270289
40
1.8085529038270289
40
1.8085529038270289
40
1.8085529038270289
10
102
20
58.910439235386754
30
0
10
102
20
58.251228025666045
30
0
10
101.74579207839182
20
57.524607874472423
30
0
10
101.31440497573092
20
57.001181239217154
30
0
10
100.96632373262119
20
56.578834366182306
30
0
10
100.50112914928445
20
56.251254177213895
30
0
10
99.967139575679283
20
56.069109206956618
30
0
10
99.649897687490139
20
55.960897329525281
30
0
10
99.326257788556461
20
55.908671894378521
30
0
10
98.999999999999986
20
55.908671894378521
30
0
0
SPLINE
5
129
100
AcDbEntity
8
0
100
AcDbSpline
70
0
71
3
72
14
73
10
74
0
42
0.000000001
43
0.0000000001
44
0.0000000001
40
1.8085529038270289
40
1.8085529038270289
40
1.8085529038270289
40
1.8085529038270289
40
1.928691242973273
40
1.928691242973273
40
1.928691242973273
40
2.1638703386122424
40
2.1638703386122424
40
2.1638703386122424
40
2.2606911297837864
40
2.2606911297837864
40
2.2606911297837864
40
2.2606911297837864
10
98.999999999999986
20
55.908671894378521
30
0
10
98.586547654551637
20
55.908671894378521
30
0
10
98.171027037964436
20
55.994475183303514
30
0
10
97.78252549334006
20
56.167237723456125
30
0
10
97.022006889800167
20
56.50543232679523
30
0
10
96.440841113673983
20
57.13759233723917
30
0
10
96.167144536726923
20
57.922990915623032
30
0
10
96.054466498532406
20
58.246331353418014
30
0
10
95.999999999999972
20
58.587703264814941
30
0
10
95.999999999999972
20
58.910439235386754
30
0
0
SPLINE
5
130
100
AcDbEntity
8
0
100
AcDbSpline
70
0
71
3
72
14
73
10
74
0
42
0.000000001
43
0.0000000001
44
0.0000000001
40
1.3564146778702715
40
1.3564146778702715
40
1.3564146778702715
40
1.3564146778702715
40
1.5541780407855688
40
1.5541780407855688
40
1.5541780407855688
40
1.7137510015448214
40
1.7137510015448214
40
1.7137510015448214
40
1.8085529038270256
40
1.8085529038270256
40
1.8085529038270256
40
1.8085529038270256
10
226.99999999999994
20
58.910439235386754
30
0
10
226.99999999999994
20
58.2512280256691
30
0
10
226.74579207839452
20
57.524607874479024
30
0
10
226.31440497573692
20
57.001181239224444
30
0
10
225.96632373263071
20
56.578834366191145
30
0
10
225.50112914929994
20
56.251254177223473
30
0
10
224.96713957569966
20
56.069109206963581
30
0
10
224.64989768750442
20
55.960897329527626
30
0
10
224.32625778856351
20
55.908671894378521
30
0
10
224
20
55.908671894378521
30
0
0
SPLINE
5
131
100
AcDbEntity
8
0
100
AcDbSpline
70
0
71
3
72
14
73
10
74
0
42
0.000000001
43
0.0000000001
44
0.0000000001
40
1.8085529038270256
40
1.8085529038270256
40
1.8085529038270256
40
1.8085529038270256
40
1.9286912429736391
40
1.9286912429736391
40
1.9286912429736391
40
2.1638703386126039
40
2.1638703386126039
40
2.1638703386126039
40
2.2606911297837864
40
2.2606911297837864
40
2.2606911297837864
40
2.2606911297837864
10
224
20
55.908671894378521
30
0
10
223.58654765455026
20
55.908671894378521
30
0
10
223.17102703796178
20
55.994475183304075
30
0
10
222.78252549333646
20
56.167237723457717
30
0
10
222.02200688979707
20
56.505432326797788
30
0
10
221.44084111367169
20
57.137592337242474
30
0
10
221.16714453672563
20
57.92299091562667
30
0
10
221.05446649853195
20
58.24633135342058
30
0
10
220.99999999999997
20
58.587703264816149
30
0
10
220.99999999999997
20
58.910439235386754
30
0
0
SPLINE
5
132
100
AcDbEntity
8
0
100
AcDbSpline
70
0
71
3
72
14
73
10
74
0
42
0.000000001
43
0.0000000001
44
0.0000000001
40
1.3564146778702713
40
1.3564146778702713
40
1.3564146778702713
40
1.3564146778702713
40
1.5541780407863988
40
1.5541780407863988
40
1.5541780407863988
40
1.7137510015467246
40
1.7137510015467246
40
1.7137510015467246
40
1.8085529038270265
40
1.8085529038270265
40
1.8085529038270265
40
1.8085529038270265
10
101.99999999999997
20
-170.25129155146931
30
0
10
101.99999999999997
20
-170.91050276118975
30
0
10
101.74579207839207
20
-171.63712291238301
30
0
10
101.31440497573152
20
-172.1605495476382
30
0
10
100.96632373262202
20
-172.58289642067302
30
0
10
100.50112914928553
20
-172.91047660964156
30
0
10
99.967139575680591
20
-173.09262157989903
30
0
10
99.649897687491077
20
-173.20083345733065
30
0
10
99.326257788556944
20
-173.25305889247758
30
0
10
98.999999999999986
20
-173.25305889247758
30
0
0
SPLINE
5
133
100
AcDbEntity
8
0
100
AcDbSpline
70
0
71
3
72
14
73
10
74
0
42
0.000000001
43
0.0000000001
44
0.0000000001
40
1.8085529038270265
40
1.8085529038270265
40
1.8085529038270265
40
1.8085529038270265
40
1.9286912429735992
40
1.9286912429735992
40
1.9286912429735992
40
2.1638703386129494
40
2.1638703386129494
40
2.1638703386129494
40
2.2606911297837855
40
2.2606911297837855
40
2.2606911297837855
40
2.2606911297837855
10
98.999999999999986
20
-173.25305889247758
30
0
10
98.586547654550486
20
-173.25305889247758
30
0
10
98.171027037962091
20
-173.16725560355206
30
0
10
97.782525493336877
20
-172.99449306339852
30
0
10
97.02200688979616
20
-172.65629846005797
30
0
10
96.44084111366999
20
-172.02413844961174
30
0
10
96.16714453672445
20
-171.23873987122596
30
0
10
96.054466498531582
20
-170.91539943343307
30
0
10
96
20
-170.57402752203876
30
0
10
96
20
-170.25129155146931
30
0
0
SPLINE
5
134
100
AcDbEntity
8
0
100
AcDbSpline
70
0
71
3
72
14
73
10
74
0
42
0.000000001
43
0.0000000001
44
0.0000000001
40
1.3564146778702708
40
1.3564146778702708
40
1.3564146778702708
40
1.3564146778702708
40
1.5541780407867318
40
1.5541780407867318
40
1.5541780407867318
40
1.7137510015469353
40
1.7137510015469353
40
1.7137510015469353
40
1.8085529038270243
40
1.8085529038270243
40
1.8085529038270243
40
1.8085529038270243
10
101.99999999999997
20
41.282613790243978
30
0
10
101.99999999999997
20
40.623402580522452
30
0
10
101.7457920783911
20
39.896782429327885
30
0
10
101.3144049757293
20
39.373355794072424
30
0
10
100.96632373261963
20
38.951008921038373
30
0
10
100.50112914928312
20
38.623428732070472
30
0
10
99.967139575678459
20
38.441283761813551
30
0
10
99.64989768748957
20
38.33307188438242
30
0
10
99.326257788556248
20
38.280846449235739
30
0
10
99.000000000000028
20
38.280846449235739
30
0
0
SPLINE
5
135
100
AcDbEntity
8
0
100
AcDbSpline
70
0
71
3
72
14
73
10
74
0
42
0.000000001
43
0.0000000001
44
0.0000000001
40
1.8085529038270243
40
1.8085529038270243
40
1.8085529038270243
40
1.8085529038270243
40
1.9286912429735943
40
1.9286912429735943
40
1.9286912429735943
40
2.1638703386125178
40
2.1638703386125178
40
2.1638703386125178
40
2.2606911297837846
40
2.2606911297837846
40
2.2606911297837846
40
2.2606911297837846
10
99.000000000000028
20
38.280846449235739
30
0
10
98.586547654550543
20
38.280846449235732
30
0
10
98.171027037962091
20
38.366649738161243
30
0
10
97.782525493336934
20
38.539412278314742
30
0
10
97.022006889797694
20
38.8776068816546
30
0
10
96.440841113672207
20
39.509766892099037
30
0
10
96.167144536725971
20
40.295165470483028
30
0
10
96.054466498532079
20
40.6185059082772
30
0
10
96
20
40.959877819673082
30
0
10
96
20
41.282613790243971
30
0
0
SPLINE
5
136
100
AcDbEntity
8
0
100
AcDbSpline
70
0
71
3
72
14
73
10
74
0
42
0.000000001
43
0.0000000001
44
0.0000000001
40
1.3564146778702713
40
1.3564146778702713
40
1.3564146778702713
40
1.3564146778702713
40
1.5541780407862869
40
1.5541780407862869
40
1.5541780407862869
40
1.7137510015463113
40
1.7137510015463113
40
1.7137510015463113
40
1.8085529038270283
40
1.8085529038270283
40
1.8085529038270283
40
1.8085529038270283
10
227
20
-170.25129155146931
30
0
10
227
20
-170.91050276118935
30
0
10
226.74579207839244
20
-171.63712291238224
30
0
10
226.31440497573226
20
-172.16054954763734
30
0
10
225.96632373262352
20
-172.58289642067157
30
0
10
225.50112914928837
20
-172.91047660963969
30
0
10
224.96713957568466
20
-173.09262157989761
30
0
10
224.6498976874939
20
-173.20083345733019
30
0
10
224.32625778855828
20
-173.25305889247758
30
0
10
224
20
-173.25305889247758
30
0
0
SPLINE
5
137
100
AcDbEntity
8
0
100
AcDbSpline
70
0
71
3
72
14
73
10
74
0
42
0.000000001
43
0.0000000001
44
0.0000000001
40
1.8085529038270283
40
1.8085529038270283
40
1.8085529038270283
40
1.8085529038270283
40
1.9286912429733365
40
1.9286912429733365
40
1.9286912429733365
40
2.1638703386131826
40
2.1638703386131826
40
2.1638703386131826
40
2.2606911297837846
40
2.2606911297837846
40
2.2606911297837846
40
2.2606911297837846
10
224
20
-173.25305889247758
30
0
10
223.5865476545514
20
-173.25305889247758
30
0
10
223.17102703796397
20
-173.16725560355246
30
0
10
222.78252549333945
20
-172.99449306339966
30
0
10
222.0220068897969
20
-172.65629846005913
30
0
10
221.44084111366911
20
-172.02413844961126
30
0
10
221.16714453672364
20
-171.23873987122363
30
0
10
221.05446649853133
20
-170.91539943343145
30
0
10
220.99999999999997
20
-170.57402752203802
30
0
10
220.99999999999997
20
-170.25129155146936
30
0
0
SPLINE
5
138
100
AcDbEntity
8
0
100
AcDbSpline
70
0
71
3
72
14
73
10
74
0
42
0.000000001
43
0.0000000001
44
0.0000000001
40
1.3564146778702708
40
1.3564146778702708
40
1.3564146778702708
40
1.3564146778702708
40
1.5541780407864194
40
1.5541780407864194
40
1.5541780407864194
40
1.7137510015463044
40
1.7137510015463044
40
1.7137510015463044
40
1.8085529038270305
40
1.8085529038270305
40
1.8085529038270305
40
1.8085529038270305
10
227
20
41.282613790243971
30
0
10
227
20
40.623402580523475
30
0
10
226.74579207839201
20
39.896782429330116
30
0
10
226.31440497573135
20
39.373355794074911
30
0
10
225.96632373262275
20
38.951008921041236
30
0
10
225.50112914928798
20
38.623428732073471
30
0
10
224.96713957568474
20
38.441283761815711
30
0
10
224.64989768749393
20
38.333071884383131
30
0
10
224.32625778855837
20
38.280846449235753
30
0
10
223.99999999999994
20
38.280846449235753
30
0
0
SPLINE
5
139
100
AcDbEntity
8
0
100
AcDbSpline
70
0
71
3
72
14
73
10
74
0
42
0.000000001
43
0.0000000001
44
0.0000000001
40
1.8085529038270305
40
1.8085529038270305
40
1.8085529038270305
40
1.8085529038270305
40
1.9286912429733476
40
1.9286912429733476
40
1.9286912429733476
40
2.1638703386132292
40
2.1638703386132292
40
2.1638703386132292
40
2.2606911297837846
40
2.2606911297837846
40
2.2606911297837846
40
2.2606911297837846
10
223.99999999999994
20
38.280846449235753
30
0
10
223.58654765455134
20
38.28084644923576
30
0
10
223.17102703796388
20
38.366649738160874
30
0
10
222.78252549333934
20
38.539412278313677
30
0
10
222.0220068897967
20
38.877606881654266
30
0
10
221.44084111366882
20
39.509766892102363
30
0
10
221.16714453672347
20
40.295165470490169
30
0
10
221.05446649853124
20
40.618505908282216
30
0
10
220.99999999999997
20
40.959877819675455
30
0
10
220.99999999999997
20
41.282613790243978
30
0
0
SPLINE
5
140
100
AcDbEntity
8
0
100
AcDbSpline
70
0
71
3
72
14
73
10
74
0
42
0.000000001
43
0.0000000001
44
0.0000000001
40
1.356414677870271
40
1.356414677870271
40
1.356414677870271
40
1.356414677870271
40
1.5541780407873191
40
1.5541780407873191
40
1.5541780407873191
40
1.7137510015480395
40
1.7137510015480395
40
1.7137510015480395
40
1.8085529038270272
40
1.8085529038270272
40
1.8085529038270272
40
1.8085529038270272
10
102
20
-46.856513435469893
30
0
10
102
20
-47.51572464519338
30
0
10
101.74579207838943
20
-48.242344796390178
30
0
10
101.31440497572548
20
-48.765771431646094
30
0
10
100.96632373261399
20
-49.188118304680614
30
0
10
100.50112914927438
20
-49.515698493648692
30
0
10
99.967139575667375
20
-49.697843463904086
30
0
10
99.649897687481825
20
-49.806055341332694
30
0
10
99.326257788552411
20
-49.858280776478111
30
0
10
98.999999999999986
20
-49.858280776478111
30
0
0
SPLINE
5
141
100
AcDbEntity
8
0
100
AcDbSpline
70
0
71
3
72
14
73
10
74
0
42
0.000000001
43
0.0000000001
44
0.0000000001
40
1.8085529038270272
40
1.8085529038270272
40
1.8085529038270272
40
1.8085529038270272
40
1.9286912429735044
40
1.9286912429735044
40
1.9286912429735044
40
2.1638703386136839
40
2.1638703386136839
40
2.1638703386136839
40
2.2606911297837846
40
2.2606911297837846
40
2.2606911297837846
40
2.2606911297837846
10
98.999999999999986
20
-49.858280776478111
30
0
10
98.586547654550827
20
-49.858280776478111
30
0
10
98.171027037962688
20
-49.772477487552734
30
0
10
97.782525493337786
20
-49.599714947399498
30
0
10
97.022006889794426
20
-49.261520344058091
30
0
10
96.440841113666323
20
-48.629360333608354
30
0
10
96.167144536721878
20
-47.843961755219134
30
0
10
96.054466498530715
20
-47.520621317428436
30
0
10
96
20
-47.179249406036881
30
0
10
96
20
-46.856513435469878
30
0
0
SPLINE
5
142
100
AcDbEntity
8
0
100
AcDbSpline
70
0
71
3
72
14
73
10
74
0
42
0.000000001
43
0.0000000001
44
0.0000000001
40
1.356414677870271
40
1.356414677870271
40
1.356414677870271
40
1.356414677870271
40
1.5541780407851715
40
1.5541780407851715
40
1.5541780407851715
40
1.7137510015438744
40
1.7137510015438744
40
1.7137510015438744
40
1.8085529038270274
40
1.8085529038270274
40
1.8085529038270274
40
1.8085529038270274
10
227
20
-46.856513435469878
30
0
10
227
20
-47.515724645186211
30
0
10
226.74579207839568
20
-48.242344796374738
30
0
10
226.31440497573951
20
-48.765771431629041
30
0
10
225.96632373263492
20
-49.188118304661515
30
0
10
225.50112914930702
20
-49.51569849362879
30
0
10
224.96713957570915
20
-49.697843463889839
30
0
10
224.6498976875111
20
-49.806055341327948
30
0
10
224.32625778856681
20
-49.858280776478111
30
0
10
224
20
-49.858280776478111
30
0
0
SPLINE
5
143
100
AcDbEntity
8
0
100
AcDbSpline
70
0
71
3
72
14
73
10
74
0
42
0.000000001
43
0.0000000001
44
0.0000000001
40
1.8085529038270274
40
1.8085529038270274
40
1.8085529038270274
40
1.8085529038270274
40
1.9286912429736707
40
1.9286912429736707
40
1.9286912429736707
40
2.1638703386125964
40
2.1638703386125964
40
2.1638703386125964
40
2.2606911297837846
40
2.2606911297837846
40
2.2606911297837846
40
2.2606911297837846
10
224
20
-49.858280776478111
30
0
10
223.58654765455015
20
-49.858280776478111
30
0
10
223.17102703796161
20
-49.772477487552521
30
0
10
222.78252549333618
20
-49.599714947398795
30
0
10
222.02200688979701
20
-49.261520344058724
30
0
10
221.44084111367169
20
-48.629360333614109
30
0
10
221.16714453672569
20
-47.843961755230033
30
0
10
221.05446649853201
20
-47.520621317436095
30
0
10
220.99999999999997
20
-47.179249406040505
30
0
10
220.99999999999997
20
-46.856513435469878
30
0
0
SPLINE
5
144
100
AcDbEntity
8
0
100
AcDbSpline
70
0
71
3
72
14
73
10
74
0
42
0.000000001
43
0.0000000001
44
0.0000000001
40
1.3564146778702713
40
1.3564146778702713
40
1.3564146778702713
40
1.3564146778702713
40
1.5541780407893659
40
1.5541780407893659
40
1.5541780407893659
40
1.7137510015518107
40
1.7137510015518107
40
1.7137510015518107
40
1.8085529038270278
40
1.8085529038270278
40
1.8085529038270278
40
1.8085529038270278
10
101.99999999999997
20
-64.48433888061264
30
0
10
101.99999999999997
20
-65.143550090342956
30
0
10
101.7457920783834
20
-65.87017024154774
30
0
10
101.31440497571207
20
-66.39359687680512
30
0
10
100.96632373259446
20
-66.815943749841026
30
0
10
100.50112914924446
20
-67.143523938809608
30
0
10
99.967139575629517
20
-67.325668909059758
30
0
10
99.64989768745528
20
-67.43388078647979
30
0
10
99.326257788539294
20
-67.486106221620886
30
0
10
98.999999999999986
20
-67.486106221620886
30
0
0
SPLINE
5
145
100
AcDbEntity
8
0
100
AcDbSpline
70
0
71
3
72
14
73
10
74
0
42
0.000000001
43
0.0000000001
44
0.0000000001
40
1.8085529038270278
40
1.8085529038270278
40
1.8085529038270278
40
1.8085529038270278
40
1.9286912429731173
40
1.9286912429731173
40
1.9286912429731173
40
2.1638703386135263
40
2.1638703386135263
40
2.1638703386135263
40
2.2606911297837846
40
2.2606911297837846
40
2.2606911297837846
40
2.2606911297837846
10
98.999999999999986
20
-67.486106221620886
30
0
10
98.586547654552291
20
-67.486106221620886
30
0
10
98.171027037965445
20
-67.400302932696093
30
0
10
97.782525493341552
20
-67.227540392543929
30
0
10
97.022006889796984
20
-66.889345789203233
30
0
10
96.440841113667574
20
-66.257185778753325
30
0
10
96.167144536722432
20
-65.47178720036348
30
0
10
96.0544664985309
20
-65.14844676257232
30
0
10
96
20
-64.807074851180175
30
0
10
96
20
-64.484338880612654
30
0
0
SPLINE
5
146
100
AcDbEntity
8
0
100
AcDbSpline
70
0
71
3
72
14
73
10
74
0
42
0.000000001
43
0.0000000001
44
0.0000000001
40
1.3564146778702713
40
1.3564146778702713
40
1.3564146778702713
40
1.3564146778702713
40
1.5541780407855341
40
1.5541780407855341
40
1.5541780407855341
40
1.7137510015447939
40
1.7137510015447939
40
1.7137510015447939
40
1.8085529038270278
40
1.8085529038270278
40
1.8085529038270278
40
1.8085529038270278
10
226.99999999999994
20
-64.484338880612654
30
0
10
226.99999999999994
20
-65.143550090330194
30
0
10
226.74579207839463
20
-65.870170241520114
30
0
10
226.31440497573718
20
-66.39359687677468
30
0
10
225.96632373263094
20
-66.815943749808056
30
0
10
225.50112914930014
20
-67.143523938775814
30
0
10
224.96713957569992
20
-67.325668909035741
30
0
10
224.64989768750462
20
-67.433880786471747
30
0
10
224.32625778856359
20
-67.486106221620886
30
0
10
224
20
-67.486106221620886
30
0
0
SPLINE
5
147
100
AcDbEntity
8
0
100
AcDbSpline
70
0
71
3
72
14
73
10
74
0
42
0.000000001
43
0.0000000001
44
0.0000000001
40
1.8085529038270278
40
1.8085529038270278
40
1.8085529038270278
40
1.8085529038270278
40
1.9286912429736569
40
1.9286912429736569
40
1.9286912429736569
40
2.1638703386125915
40
2.1638703386125915
40
2.1638703386125915
40
2.2606911297837846
40
2.2606911297837846
40
2.2606911297837846
40
2.2606911297837846
10
224
20
-67.486106221620886
30
0
10
223.5865476545502
20
-67.486106221620886
30
0
10
223.17102703796166
20
-67.400302932695297
30
0
10
222.78252549333632
20
-67.227540392541613
30
0
10
222.02200688979713
20
-66.88934578920157
30
0
10
221.44084111367178
20
-66.25718577875692
30
0
10
221.16714453672571
20
-65.47178720037283
30
0
10
221.05446649853204
20
-65.148446762578885
30
0
10
220.99999999999997
20
-64.807074851183287
30
0
10
220.99999999999997
20
-64.48433888061264
30
0
0
ENDSEC
0
SECTION
2
OBJECTS
0
DICTIONARY
5
C
100
AcDbDictionary
3
ACAD_GROUP
350
D
3
ACAD_MLINESTYLE
350
17
0
DICTIONARY
5
D
100
AcDbDictionary
0
DICTIONARY
5
1A
330
C
100
AcDbDictionary
0
DICTIONARY
5
17
100
AcDbDictionary
0
ENDSEC
0
EOF
