0
SECTION
2
HEADER
9
$INSUNITS
70
4
9
$ACADVER
1
AC1014
9
$HANDSEED
5
FFFF
0
ENDSEC
0
SECTION
2
TABLES
0
TABLE
2
VPORT
5
8
100
AcDbSymbolTable
0
ENDTAB
0
TABLE
2
LTYPE
5
5
100
AcDbSymbolTable
70
3
0
LTYPE
5
14
100
AcDbSymbolTableRecord
100
AcDbLinetypeTableRecord
2
BYBLOCK
70
0
0
LTYPE
5
15
100
AcDbSymbolTableRecord
100
AcDbLinetypeTableRecord
2
BYLAYER
70
0
0
LTYPE
5
16
100
AcDbSymbolTableRecord
100
AcDbLinetypeTableRecord
2
DASHED
70
0
3
Dashed __ __ __ __ __ __ __ __ __ __ __ __ __ _
72
65
73
2
40
0.75
49
0.5
74
0
49
-0.25
74
0
0
ENDTAB
0
TABLE
2
LAYER
5
2
100
AcDbSymbolTable
70
6
0
LAYER
5
50
100
AcDbSymbolTableRecord
100
AcDbLayerTableRecord
2
0
70
0
6
CONTINUOUS
0
LAYER
5
51
100
AcDbSymbolTableRecord
100
AcDbLayerTableRecord
2
PERIMETER D 5.9
70
0
62
5
6
CONTINUOUS
0
LAYER
5
52
100
AcDbSymbolTableRecord
100
AcDbLayerTableRecord
2
INSETS D 1.0
70
0
62
3
6
CONTINUOUS
0
LAYER
5
53
100
AcDbSymbolTableRecord
100
AcDbLayerTableRecord
2
HOLES DIAM 41.4 D 5.9
70
0
62
5
6
CONTINUOUS
0
LAYER
5
54
100
AcDbSymbolTableRecord
100
AcDbLayerTableRecord
2
HOLES DIAM 5.0 D 5.9
70
0
62
5
6
CONTINUOUS
0
LAYER
5
55
100
AcDbSymbolTableRecord
100
AcDbLayerTableRecord
2
HOLES DIAM 2.5 D 5.9
70
0
62
5
6
CONTINUOUS
0
ENDTAB
0
TABLE
2
STYLE
5
3
100
AcDbSymbolTable
70
1
0
STYLE
5
11
100
AcDbSymbolTableRecord
100
AcDbTextStyleTableRecord
2
STANDARD
70
0
0
ENDTAB
0
TABLE
2
VIEW
5
6
100
AcDbSymbolTable
0
ENDTAB
0
TABLE
2
UCS
5
7
100
AcDbSymbolTable
0
ENDTAB
0
TABLE
2
APPID
5
9
100
AcDbSymbolTable
70
1
0
APPID
5
12
100
AcDbSymbolTableRecord
100
AcDbRegAppTableRecord
2
ACAD
70
0
0
ENDTAB
0
TABLE
2
DIMSTYLE
5
A
100
AcDbSymbolTable
0
ENDTAB
0
TABLE
2
BLOCK_RECORD
5
1
100
AcDbSymbolTable
70
2
0
BLOCK_RECORD
5
1F
100
AcDbSymbolTableRecord
100
AcDbBlockTableRecord
2
*MODEL_SPACE
0
BLOCK_RECORD
5
1B
100
AcDbSymbolTableRecord
100
AcDbBlockTableRecord
2
*PAPER_SPACE
0
ENDTAB
0
ENDSEC
0
SECTION
2
BLOCKS
0
BLOCK
5
20
100
AcDbEntity
100
AcDbBlockBegin
2
*MODEL_SPACE
0
ENDBLK
5
21
100
AcDbEntity
100
AcDbBlockEnd
0
BLOCK
5
1C
100
AcDbEntity
100
AcDbBlockBegin
2
*PAPER_SPACE
0
ENDBLK
5
1D
100
AcDbEntity
100
AcDbBlockEnd
0
ENDSEC
0
SECTION
2
ENTITIES
0
LWPOLYLINE
5
100
100
AcDbEntity
8
PERIMETER D 5.9
100
AcDbPolyline
90
22
70
1
43
0.0
10
95.563837420441118
20
-107.32246792392623
42
0.51247753091807591
10
55.381720579645972
20
-37.725000000000001
10
53.388090772615662
20
-39.565500180187144
10
53.388090772615662
20
-51.877517949146949
10
47.488090772615664
20
-51.877517949146949
10
47.488090772615664
20
-39.565500180187144
10
45.494460965585368
20
-37.725000000000001
42
0.5124775309180758
10
5.3123441247902203
20
-107.32246792392621
10
7.9030789400172727
20
-108.12875189246273
10
18.565599099781863
20
-101.97274300798284
10
21.515599099781866
20
-107.08229289031102
10
10.853078940017264
20
-113.23830177479094
10
10.255973931820508
20
-115.88508592351459
42
0.21736039888358899
10
45.938090772615666
20
-136.27254812461189
10
45.938090772615666
20
-130.37254812461188
10
54.938090772615666
20
-130.37254812461188
10
54.938090772615631
20
-136.27254812461189
42
0.21736039888358885
10
90.62020761341077
20
-115.88508592351465
10
90.023102605214049
20
-113.23830177479095
10
79.360582445449452
20
-107.08229289031107
10
82.310582445449469
20
-101.97274300798286
10
92.973102605214052
20
-108.12875189246277
0
LWPOLYLINE
5
101
100
AcDbEntity
8
PERIMETER D 5.9
100
AcDbPolyline
90
22
70
1
43
0.0
10
195.56383742044108
20
-107.32246792392623
42
0.51247753091807591
10
155.38172057964599
20
-37.725000000000001
10
153.38809077261567
20
-39.565500180187144
10
153.38809077261567
20
-51.877517949146949
10
147.48809077261566
20
-51.877517949146949
10
147.48809077261566
20
-39.565500180187144
10
145.49446096558538
20
-37.725000000000001
42
0.5124775309180758
10
105.31234412479023
20
-107.32246792392621
10
107.90307894001728
20
-108.12875189246273
10
118.56559909978188
20
-101.97274300798284
10
121.51559909978187
20
-107.08229289031102
10
110.85307894001728
20
-113.23830177479094
10
110.25597393182052
20
-115.88508592351459
42
0.21736039888358902
10
145.93809077261568
20
-136.27254812461189
10
145.93809077261568
20
-130.37254812461188
10
154.93809077261568
20
-130.37254812461188
10
154.93809077261562
20
-136.27254812461189
42
0.21736039888358885
10
190.62020761341077
20
-115.88508592351465
10
190.02310260521404
20
-113.23830177479095
10
179.36058244544944
20
-107.08229289031107
10
182.31058244544948
20
-101.97274300798286
10
192.97310260521408
20
-108.12875189246277
0
LWPOLYLINE
5
102
100
AcDbEntity
8
PERIMETER D 5.9
100
AcDbPolyline
90
28
70
1
43
0.0
10
246.89999999997775
20
-137.27299999660036
10
279.39999999973196
20
-137.27299989977092
42
-0.99999999999999989
10
279.39999999997769
20
-147.2730001432549
10
246.89999999997769
20
-147.27300004012119
10
246.89999999997775
20
-146.77299999315662
10
240.99999999997766
20
-146.7729999931567
10
240.99999999997772
20
-147.27299999227893
10
130.99986086861747
20
-147.2730000401213
10
130.9998608686175
20
-146.77300008700217
10
125.97653151443299
20
-146.77299999315667
10
125.9999999999777
20
-147.2729999931567
10
16.899999999977684
20
-147.2729999931567
10
16.899999999977684
20
-146.77299999315662
10
10.999999999977685
20
-146.77299999315662
10
10.999999999977685
20
-147.27300006766239
10
0.99999999997768541
20
-147.27300006766239
10
0.99999999997768496
20
-137.27299991865081
10
10.999999999977685
20
-137.27299991865081
10
10.999999999977685
20
-137.77299999315662
10
16.899999999977684
20
-137.77299999315653
10
16.899999999977684
20
-137.27299999315653
10
125.99999999997769
20
-137.27299999315653
10
125.97653151882811
20
-137.77299999315653
10
130.99986086720855
20
-137.7729999461919
10
130.99986086705198
20
-137.2729999461919
10
240.99999999997772
20
-137.27299999403425
10
240.99999999997772
20
-137.77299999315659
10
246.89999999997767
20
-137.77299999315653
0
LWPOLYLINE
5
103
100
AcDbEntity
8
PERIMETER D 5.9
100
AcDbPolyline
90
29
70
1
43
0.0
10
294.99999999999994
20
-178.07300000000026
10
291.79191556168882
20
-180.7733750406278
10
112.56819199308842
20
-295.78325112743039
42
-0.13860778075882962
10
104.76112799522201
20
-298.15611513734814
10
61.871174576546096
20
-298.99709461614566
42
-0.12698284562578402
10
54.57573415915769
20
-297.26574858399937
10
28.262526795121715
20
-283.37822247520262
42
-0.22417835786635901
10
20.572050439643821
20
-273.13724499255545
10
0.99999999999999645
20
-178.07300000000029
10
20.999999999999996
20
-178.07299999999969
10
20.999999999999996
20
-148.27300000000031
10
30.999999999999996
20
-148.27300000000031
10
30.999999999999996
20
-162.67300000000031
10
36.899999999999991
20
-162.67300000000031
10
36.900000000000006
20
-150.27300000000031
10
38.900000000000006
20
-148.27300000000031
10
143.99999999999895
20
-148.27300000000034
10
145.99999999999901
20
-150.27300000000031
10
145.99999999999929
20
-162.6729999999894
10
151.89999999999989
20
-162.67299999998994
10
151.89999999999969
20
-150.27300000000031
10
153.89999999999964
20
-148.27300000000034
10
258.99999999999795
20
-148.27300000000034
10
260.99999999999812
20
-150.27300000000031
10
260.9999999999992
20
-162.67300000000031
10
266.90000000000049
20
-162.67300000000012
10
266.89999999999992
20
-148.2730000000002
10
276.89999999999986
20
-148.27300000000005
10
276.89999999999992
20
-178.07299999999947
0
LWPOLYLINE
5
104
100
AcDbEntity
8
PERIMETER D 5.9
100
AcDbPolyline
90
22
70
1
43
0.0
10
390.56383742044113
20
-270.04946792392622
42
0.51247753091807591
10
350.38172057964601
20
-200.452
10
348.38809077261573
20
-202.29250018018715
10
348.38809077261573
20
-214.60451794914695
10
342.48809077261569
20
-214.60451794914695
10
342.48809077261569
20
-202.29250018018715
10
340.4944609655854
20
-200.452
42
0.51247753091807591
10
300.31234412479029
20
-270.04946792392622
10
302.90307894001734
20
-270.85575189246276
10
313.56559909978193
20
-264.69974300798287
10
316.51559909978187
20
-269.80929289031104
10
305.85307894001733
20
-275.96530177479099
10
305.25597393182056
20
-278.6120859235146
42
0.21736039888358896
10
340.93809077261568
20
-298.99954812461192
10
340.93809077261568
20
-293.09954812461189
10
349.93809077261574
20
-293.09954812461189
10
349.93809077261574
20
-298.99954812461192
42
0.2173603988835886
10
385.62020761341091
20
-278.61208592351466
10
385.02310260521415
20
-275.96530177479099
10
374.3605824454495
20
-269.80929289031104
10
377.31058244544954
20
-264.69974300798287
10
387.97310260521408
20
-270.85575189246276
0
LWPOLYLINE
5
105
100
AcDbEntity
8
PERIMETER D 5.9
100
AcDbPolyline
90
29
70
1
43
0.0
10
291.79191556168882
20
-374.1433750406278
10
295
20
-371.44300000000032
10
276.89999999999998
20
-371.44299999999942
10
276.89999999999992
20
-341.64300000000003
10
266.89999999999998
20
-341.64300000000026
10
266.90000000000055
20
-356.04300000000018
10
260.99999999999926
20
-356.04300000000029
10
260.99999999999824
20
-343.64300000000026
10
258.99999999999801
20
-341.64300000000031
10
153.89999999999969
20
-341.64300000000031
10
151.89999999999972
20
-343.64300000000037
10
151.89999999999992
20
-356.04299999998995
10
145.99999999999932
20
-356.04299999998938
10
145.99999999999903
20
-343.64300000000037
10
143.99999999999895
20
-341.64300000000031
10
38.900000000000027
20
-341.64300000000031
10
36.900000000000013
20
-343.64300000000026
10
36.900000000000006
20
-356.04300000000029
10
31.000000000000007
20
-356.04300000000029
10
31
20
-341.64300000000031
10
21
20
-341.64300000000031
10
20.999999999999996
20
-371.44299999999976
10
0.99999999999999423
20
-371.44300000000032
10
20.572050439643832
20
-466.50724499255546
42
0.22417835786635554
10
28.262526795121712
20
-476.74822247520268
10
54.575734159157733
20
-490.63574858399943
42
0.12698284562576706
10
61.871174576546096
20
-492.36709461614566
10
104.76112799522204
20
-491.52611513734814
42
0.13860778075882366
10
112.56819199308843
20
-489.15325112743034
0
LWPOLYLINE
5
106
100
AcDbEntity
8
PERIMETER D 5.9
100
AcDbPolyline
90
29
70
1
43
0.0
10
4.2080844383110971
20
-653.23671957551801
10
0.99999999999997868
20
-655.93709461614549
10
19.100000000000037
20
-655.9370946161464
10
19.100000000000108
20
-685.7370946161459
10
29.100000000000037
20
-685.73709461614555
10
29.099999999999469
20
-671.33709461614558
10
35.000000000000711
20
-671.33709461614546
10
35.000000000001769
20
-683.73709461614544
10
37.000000000001982
20
-685.73709461614544
10
142.10000000000031
20
-685.73709461614555
10
144.10000000000022
20
-683.73709461614555
10
144.10000000000002
20
-671.33709461615581
10
150.00000000000063
20
-671.33709461615638
10
150.00000000000091
20
-683.73709461614544
10
152.00000000000099
20
-685.73709461614555
10
257.09999999999991
20
-685.73709461614555
10
259.09999999999991
20
-683.73709461614544
10
259.09999999999991
20
-671.33709461614546
10
264.99999999999994
20
-671.33709461614558
10
264.99999999999994
20
-685.73709461614555
10
274.99999999999994
20
-685.73709461614555
10
274.99999999999994
20
-655.93709461614606
10
294.99999999999994
20
-655.93709461614549
10
275.42794956035613
20
-560.87284962359035
42
0.22417835786635765
10
267.7374732048782
20
-550.63187214094319
10
241.42426584084222
20
-536.74434603214638
42
0.12698284562576712
10
234.12882542345383
20
-535.01300000000015
10
191.23887200477787
20
-535.85397947879767
42
0.13860778075882338
10
183.43180800691155
20
-538.22684348871553
0
LINE
5
107
100
AcDbEntity
8
INSETS D 1.0
100
AcDbLine
10
24.457365954027207
20
-237.45960417559746
30
0
11
25.914308375927707
21
-237.15964544167684
31
0
0
LINE
5
108
100
AcDbEntity
8
INSETS D 1.0
100
AcDbLine
10
25.914308375927707
20
-237.15964544167684
30
0
11
25.061485078421999
21
-233.01736085379196
31
0
0
LINE
5
109
100
AcDbEntity
8
INSETS D 1.0
100
AcDbLine
10
25.061485078421999
20
-233.01736085379196
30
0
11
27.670649270810273
21
-232.48017999065326
31
0
0
LINE
5
10A
100
AcDbEntity
8
INSETS D 1.0
100
AcDbLine
10
27.670649270810273
20
-232.48017999065326
30
0
11
28.521511955517063
21
-236.61294160208624
31
0
0
LINE
5
10B
100
AcDbEntity
8
INSETS D 1.0
100
AcDbLine
10
28.521511955517063
20
-236.61294160208624
30
0
11
29.97845437741757
21
-236.31298286816553
31
0
0
LINE
5
10C
100
AcDbEntity
8
INSETS D 1.0
100
AcDbLine
10
29.97845437741757
20
-236.31298286816553
30
0
11
29.11190775187551
21
-232.10404211553268
31
0
0
SPLINE
5
10D
100
AcDbEntity
8
INSETS D 1.0
100
AcDbSpline
70
0
71
3
72
9
73
5
74
0
42
0.000000001
43
0.0000000001
44
0.0000000001
40
0
40
0
40
0
40
0
40
0.036463572956153989
40
0.073846958771965177
40
0.073846958771965177
40
0.073846958771965177
40
0.073846958771965177
10
28.779319866639284
20
-231.45286934854383
30
0
10
28.856876106770031
20
-231.54834261905791
30
0
10
29.013944984093996
20
-231.74169752368979
30
0
10
29.078983463479808
20
-231.98226178908186
30
0
10
29.11190775187551
20
-232.10404211553268
30
0
0
SPLINE
5
10E
100
AcDbEntity
8
INSETS D 1.0
100
AcDbSpline
70
0
71
3
72
9
73
5
74
0
42
0.000000001
43
0.0000000001
44
0.0000000001
40
0
40
0
40
0
40
0
40
0.036346759916683964
40
0.072693472999754455
40
0.072693472999754455
40
0.072693472999754455
40
0.072693472999754455
10
28.176461823012406
20
-231.05586577568289
30
0
10
28.28875378007238
20
-231.10409092654717
30
0
10
28.513337549501632
20
-231.20054116613659
30
0
10
28.690659132340564
20
-231.36875999053373
30
0
10
28.779319866639284
20
-231.45286934854383
30
0
0
SPLINE
5
10F
100
AcDbEntity
8
INSETS D 1.0
100
AcDbSpline
70
0
71
3
72
9
73
5
74
0
42
0.000000001
43
0.0000000001
44
0.0000000001
40
0
40
0
40
0
40
0
40
0.037383385815811195
40
0.073846740251917731
40
0.073846740251917731
40
0.073846740251917731
40
0.073846740251917731
10
27.44687072549873
20
-231.00755280372655
30
0
10
27.57175272164708
20
-230.98969356986089
30
0
10
27.818443280312515
20
-230.95441463041772
30
0
10
28.058117649216847
20
-231.0223307752986
30
0
10
28.176461823012406
20
-231.05586577568289
30
0
0
LINE
5
110
100
AcDbEntity
8
INSETS D 1.0
100
AcDbLine
10
27.44687072549873
20
-231.00755280372655
30
0
11
24.685345915503149
21
-231.57610202931383
31
0
0
SPLINE
5
111
100
AcDbEntity
8
INSETS D 1.0
100
AcDbSpline
70
0
71
3
72
9
73
5
74
0
42
0.000000001
43
0.0000000001
44
0.0000000001
40
0
40
0
40
0
40
0
40
0.036463354436106536
40
0.073846740251917731
40
0.073846740251917731
40
0.073846740251917731
40
0.073846740251917731
10
24.034175483721867
20
-231.90868943377205
30
0
10
24.129647965222929
20
-231.83113335729729
30
0
10
24.323001858512399
20
-231.67406433490595
30
0
10
24.563565529564329
20
-231.60902622705436
30
0
10
24.685345915503149
20
-231.57610202931383
30
0
0
SPLINE
5
112
100
AcDbEntity
8
INSETS D 1.0
100
AcDbSpline
70
0
71
3
72
9
73
5
74
0
42
0.000000001
43
0.0000000001
44
0.0000000001
40
0
40
0
40
0
40
0
40
0.036346676214033966
40
0.072693482964368811
40
0.072693482964368811
40
0.072693482964368811
40
0.072693482964368811
10
23.637171206864494
20
-232.5115470137915
30
0
10
23.685396177167604
20
-232.39925526673608
30
0
10
23.781846290970108
20
-232.17467136933806
30
0
10
23.95006565211364
20
-231.99735018509978
30
0
10
24.034175483721867
20
-231.90868943377205
30
0
0
SPLINE
5
113
100
AcDbEntity
8
INSETS D 1.0
100
AcDbSpline
70
0
71
3
72
9
73
5
74
0
42
0.000000001
43
0.0000000001
44
0.0000000001
40
0
40
0
40
0
40
0
40
0.037383385815811195
40
0.073846958771965177
40
0.073846958771965177
40
0.073846958771965177
40
0.073846958771965177
10
23.588858715686236
20
-233.24114044651276
30
0
10
23.570999588601961
20
-233.11625846920373
30
0
10
23.535720755700268
20
-232.86956721777076
30
0
10
23.603636367810516
20
-232.6298919770789
30
0
10
23.637171206864494
20
-232.5115470137915
30
0
0
LINE
5
114
100
AcDbEntity
8
INSETS D 1.0
100
AcDbLine
10
23.588858715686236
20
-233.24114044651276
30
0
11
24.457365954027207
21
-237.45960417559746
31
0
0
LINE
5
115
100
AcDbEntity
8
INSETS D 1.0
100
AcDbLine
10
21.761658934922341
20
-224.36617008280245
30
0
11
23.218601356822845
21
-224.06621134888178
31
0
0
LINE
5
116
100
AcDbEntity
8
INSETS D 1.0
100
AcDbLine
10
23.218601356822845
20
-224.06621134888178
30
0
11
22.365778059317137
21
-219.92392676099689
31
0
0
LINE
5
117
100
AcDbEntity
8
INSETS D 1.0
100
AcDbLine
10
22.365778059317137
20
-219.92392676099689
30
0
11
24.974942251705414
21
-219.38674589785819
31
0
0
LINE
5
118
100
AcDbEntity
8
INSETS D 1.0
100
AcDbLine
10
24.974942251705414
20
-219.38674589785819
30
0
11
25.825805417190232
21
-223.51950984449871
31
0
0
LINE
5
119
100
AcDbEntity
8
INSETS D 1.0
100
AcDbLine
10
25.825805417190232
20
-223.51950984449871
30
0
11
27.282747839090732
21
-223.21955111057804
31
0
0
LINE
5
11A
100
AcDbEntity
8
INSETS D 1.0
100
AcDbLine
10
27.282747839090732
20
-223.21955111057804
30
0
11
26.41620025199262
21
-219.01060568753007
31
0
0
SPLINE
5
11B
100
AcDbEntity
8
INSETS D 1.0
100
AcDbSpline
70
0
71
3
72
9
73
5
74
0
42
0.000000001
43
0.0000000001
44
0.0000000001
40
0
40
0
40
0
40
0
40
0.036463572956153989
40
0.073846722377687801
40
0.073846722377687801
40
0.073846722377687801
40
0.073846722377687801
10
26.083612847534422
20
-218.35943525574879
30
0
10
26.161169088092251
20
-218.45490852212629
30
0
10
26.318237463482063
20
-218.64826279942505
30
0
10
26.383276024881663
20
-218.88882618613579
30
0
10
26.41620025199262
20
-219.0106056875301
30
0
0
SPLINE
5
11C
100
AcDbEntity
8
INSETS D 1.0
100
AcDbSpline
70
0
71
3
72
9
73
5
74
0
42
0.000000001
43
0.0000000001
44
0.0000000001
40
0
40
0
40
0
40
0
40
0.036346759916683964
40
0.072693472999754455
40
0.072693472999754455
40
0.072693472999754455
40
0.072693472999754455
10
25.480754803907544
20
-217.96243168288782
30
0
10
25.593046760967518
20
-218.01065683375214
30
0
10
25.817630530396766
20
-218.10710707334152
30
0
10
25.994952113235698
20
-218.27532589773867
30
0
10
26.083612847534422
20
-218.35943525574879
30
0
0
SPLINE
5
11D
100
AcDbEntity
8
INSETS D 1.0
100
AcDbSpline
70
0
71
3
72
9
73
5
74
0
42
0.000000001
43
0.0000000001
44
0.0000000001
40
0
40
0
40
0
40
0
40
0.037383385815811195
40
0.073846740251917731
40
0.073846740251917731
40
0.073846740251917731
40
0.073846740251917731
10
24.751163706393868
20
-217.91411871093152
30
0
10
24.876045702542214
20
-217.89625947706585
30
0
10
25.122736261207649
20
-217.86098053762274
30
0
10
25.362410630111981
20
-217.92889668250353
30
0
10
25.480754803907544
20
-217.96243168288782
30
0
0
LINE
5
11E
100
AcDbEntity
8
INSETS D 1.0
100
AcDbLine
10
24.751163706393868
20
-217.91411871093152
30
0
11
21.989638896398283
21
-218.48266793651879
31
0
0
SPLINE
5
11F
100
AcDbEntity
8
INSETS D 1.0
100
AcDbSpline
70
0
71
3
72
9
73
5
74
0
42
0.000000001
43
0.0000000001
44
0.0000000001
40
0
40
0
40
0
40
0
40
0.036463354436106536
40
0.073846740251917731
40
0.073846740251917731
40
0.073846740251917731
40
0.073846740251917731
10
21.338468464617005
20
-218.81525534097699
30
0
10
21.433940946118071
20
-218.73769926450223
30
0
10
21.62729483940754
20
-218.58063024211091
30
0
10
21.86785851045947
20
-218.51559213425929
30
0
10
21.989638896398283
20
-218.48266793651879
30
0
0
SPLINE
5
120
100
AcDbEntity
8
INSETS D 1.0
100
AcDbSpline
70
0
71
3
72
9
73
5
74
0
42
0.000000001
43
0.0000000001
44
0.0000000001
40
0
40
0
40
0
40
0
40
0.036346676214033966
40
0.072693482964368811
40
0.072693482964368811
40
0.072693482964368811
40
0.072693482964368811
10
20.941464187759635
20
-219.41811292099646
30
0
10
20.989689158062742
20
-219.30582117394101
30
0
10
21.086139271865246
20
-219.08123727654299
30
0
10
21.254358633008774
20
-218.90391609230471
30
0
10
21.338468464617005
20
-218.81525534097699
30
0
0
SPLINE
5
121
100
AcDbEntity
8
INSETS D 1.0
100
AcDbSpline
70
0
71
3
72
9
73
5
74
0
42
0.000000001
43
0.0000000001
44
0.0000000001
40
0
40
0
40
0
40
0
40
0.037383149421533812
40
0.073846722377687801
40
0.073846722377687801
40
0.073846722377687801
40
0.073846722377687801
10
20.893151215803343
20
-220.14770401851013
30
0
10
20.875292358332924
20
-220.02282282336631
30
0
10
20.840013947872382
20
-219.77613234675636
30
0
10
20.907929346679271
20
-219.53645788065239
30
0
10
20.941464187759635
20
-219.41811292099646
30
0
0
LINE
5
122
100
AcDbEntity
8
INSETS D 1.0
100
AcDbLine
10
20.893151215803343
20
-220.14770401851013
30
0
11
21.761658934922341
21
-224.36617008280245
31
0
0
SPLINE
5
123
100
AcDbEntity
8
INSETS D 1.0
100
AcDbSpline
70
0
71
3
72
9
73
5
74
0
42
0.000000001
43
0.0000000001
44
0.0000000001
40
0
40
0
40
0
40
0
40
0.036991038037774308
40
0.074599584618969816
40
0.074599584618969816
40
0.074599584618969816
40
0.074599584618969816
10
28.311596438600336
20
-265.2682377166463
30
0
10
28.23490876520431
20
-265.16995735367965
30
0
10
28.080253235535295
20
-264.971755988094
30
0
10
28.014805576659306
20
-264.72896768242174
30
0
10
27.981810871125219
20
-264.60656867242886
30
0
0
SPLINE
5
124
100
AcDbEntity
8
INSETS D 1.0
100
AcDbSpline
70
0
71
3
72
9
73
5
74
0
42
0.000000001
43
0.0000000001
44
0.0000000001
40
0
40
0
40
0
40
0
40
0.03595187149593445
40
0.072459789796100127
40
0.072459789796100127
40
0.072459789796100127
40
0.072459789796100127
10
28.909693577803168
20
-265.66622147571229
30
0
10
28.797774059543876
20
-265.61998175398691
30
0
10
28.572204028563259
20
-265.52678714750226
30
0
10
28.398908916480153
20
-265.35486064065884
30
0
10
28.311596438600336
20
-265.2682377166463
30
0
0
SPLINE
5
125
100
AcDbEntity
8
INSETS D 1.0
100
AcDbSpline
70
0
71
3
72
9
73
5
74
0
42
0.000000001
43
0.0000000001
44
0.0000000001
40
0
40
0
40
0
40
0
40
0.03807616776266242
40
0.074478959006844009
40
0.074478959006844009
40
0.074478959006844009
40
0.074478959006844009
10
29.646848000525861
20
-265.70305552883292
30
0
10
29.519887931340364
20
-265.72206657567347
30
0
10
29.271547451087379
20
-265.75925316932285
30
0
10
29.028491224667889
20
-265.6967640430322
30
0
10
28.909693577803168
20
-265.66622147571229
30
0
0
LINE
5
126
100
AcDbEntity
8
INSETS D 1.0
100
AcDbLine
10
29.646848000525861
20
-265.70305552883292
30
0
11
35.750768826383073
21
-264.44636594703888
31
0
0
LINE
5
127
100
AcDbEntity
8
INSETS D 1.0
100
AcDbLine
10
35.750768826383073
20
-264.44636594703888
30
0
11
35.450809491489849
21
-262.98942060612893
31
0
0
LINE
5
128
100
AcDbEntity
8
INSETS D 1.0
100
AcDbLine
10
35.450809491489849
20
-262.98942060612893
30
0
11
31.40374766250104
21
-263.82263921797954
31
0
0
LINE
5
129
100
AcDbEntity
8
INSETS D 1.0
100
AcDbLine
10
31.40374766250104
20
-263.82263921797954
30
0
11
30.848922125533583
21
-261.12777232413754
31
0
0
LINE
5
12A
100
AcDbEntity
8
INSETS D 1.0
100
AcDbLine
10
30.848922125533583
20
-261.12777232413754
30
0
11
34.895983954522393
21
-260.29455371228704
31
0
0
LINE
5
12B
100
AcDbEntity
8
INSETS D 1.0
100
AcDbLine
10
34.895983954522393
20
-260.29455371228704
30
0
11
34.596025581185224
21
-258.83761304179222
31
0
0
LINE
5
12C
100
AcDbEntity
8
INSETS D 1.0
100
AcDbLine
10
34.596025581185224
20
-258.83761304179222
30
0
11
30.472784610996545
21
-259.68651559447807
31
0
0
SPLINE
5
12D
100
AcDbEntity
8
INSETS D 1.0
100
AcDbSpline
70
0
71
3
72
9
73
5
74
0
42
0.000000001
43
0.0000000001
44
0.0000000001
40
0
40
0
40
0
40
0
40
0.036767028865439276
40
0.073652670635518142
40
0.073652670635518142
40
0.073652670635518142
40
0.073652670635518142
10
29.820633185990051
20
-260.01434408630689
30
0
10
29.918099313078823
20
-259.93782259064909
30
0
10
30.113345999528836
20
-259.78453273584887
30
0
10
30.352843175557535
20
-259.7192230339644
30
0
10
30.472784610996545
20
-259.68651559447807
30
0
0
SPLINE
5
12E
100
AcDbEntity
8
INSETS D 1.0
100
AcDbSpline
70
0
71
3
72
9
73
5
74
0
42
0.000000001
43
0.0000000001
44
0.0000000001
40
0
40
0
40
0
40
0
40
0.0367520758529368
40
0.073503923077218369
40
0.073503923077218369
40
0.073503923077218369
40
0.073503923077218369
10
29.419847830330063
20
-260.62294100554965
30
0
10
29.466549838565204
20
-260.50827399929915
30
0
10
29.559953564509918
20
-260.2789407001228
30
0
10
29.733740159013564
20
-260.10254277468783
30
0
10
29.820633185990051
20
-260.01434408630689
30
0
0
SPLINE
5
12F
100
AcDbEntity
8
INSETS D 1.0
100
AcDbSpline
70
0
71
3
72
9
73
5
74
0
42
0.000000001
43
0.0000000001
44
0.0000000001
40
0
40
0
40
0
40
0
40
0.037609012104995981
40
0.074600073053761901
40
0.074600073053761901
40
0.074600073053761901
40
0.074600073053761901
10
29.378256959398623
20
-261.36107477311577
30
0
10
29.360217315005723
20
-261.23559508536687
30
0
10
29.324434434407401
20
-260.98669745820524
30
0
10
29.388219486596022
20
-260.74352170607722
30
0
10
29.419847830330063
20
-260.62294100554965
30
0
0
LINE
5
130
100
AcDbEntity
8
INSETS D 1.0
100
AcDbLine
10
29.378256959398623
20
-261.36107477311577
30
0
11
29.946805824402428
21
-264.12259783170566
31
0
0
LINE
5
131
100
AcDbEntity
8
INSETS D 1.0
100
AcDbLine
10
29.946805824402428
20
-264.12259783170566
30
0
11
29.432590783284379
21
-264.2284656342888
31
0
0
LINE
5
132
100
AcDbEntity
8
INSETS D 1.0
100
AcDbLine
10
29.432590783284379
20
-264.2284656342888
30
0
11
28.758174596475477
21
-260.95272986978836
31
0
0
LINE
5
133
100
AcDbEntity
8
INSETS D 1.0
100
AcDbLine
10
28.758174596475477
20
-260.95272986978836
30
0
11
27.291709781924993
21
-261.25464909631347
31
0
0
LINE
5
134
100
AcDbEntity
8
INSETS D 1.0
100
AcDbLine
10
27.291709781924993
20
-261.25464909631347
30
0
11
27.981810871125219
21
-264.60656867242881
31
0
0
LWPOLYLINE
5
135
100
AcDbEntity
8
INSETS D 1.0
100
AcDbPolyline
90
4
70
1
43
0.0
10
23.157545054158064
20
-231.14618837623306
10
28.680594090347338
20
-230.00909004525298
10
28.380635236232141
20
-228.55214703955062
10
22.857586200042871
20
-229.6892453705307
0
LWPOLYLINE
5
136
100
AcDbEntity
8
INSETS D 1.0
100
AcDbPolyline
90
10
70
1
43
0.0
10
25.619950688864659
20
-243.10644431623649
10
28.30529519005659
20
-242.55357927187347
10
29.107145439458655
20
-246.44828048325502
10
30.592655039309111
20
-246.14244027152111
10
29.790804789907035
20
-242.24773906013957
10
30.990639691248518
20
-242.00071422751051
10
31.986580992182656
20
-246.83814340347638
10
33.472090592033112
20
-246.53230319174247
10
32.168348466566137
20
-240.19984143947431
10
25.312149864331825
20
-241.61141173993423
0
LINE
5
137
100
AcDbEntity
8
INSETS D 1.0
100
AcDbLine
10
18.381732184235972
20
-207.94938300804006
30
0
11
22.5240191073284
21
-207.09655922975639
31
0
0
SPLINE
5
138
100
AcDbEntity
8
INSETS D 1.0
100
AcDbSpline
70
0
71
3
72
9
73
5
74
0
42
0.000000001
43
0.0000000001
44
0.0000000001
40
0
40
0
40
0
40
0
40
0.036766918931353323
40
0.073652530065684493
40
0.073652530065684493
40
0.073652530065684493
40
0.073652530065684493
10
23.176169845509136
20
-206.76873331352414
30
0
10
23.07870417820919
20
-206.84525491633465
30
0
10
22.883458201667494
20
-206.99854515156485
30
0
10
22.643960790048375
20
-207.06385278893322
30
0
10
22.5240191073284
20
-207.09655922975639
30
0
0
SPLINE
5
139
100
AcDbEntity
8
INSETS D 1.0
100
AcDbSpline
70
0
71
3
72
9
73
5
74
0
42
0.000000001
43
0.0000000001
44
0.0000000001
40
0
40
0
40
0
40
0
40
0.036176095916180998
40
0.07278082613096748
40
0.07278082613096748
40
0.07278082613096748
40
0.07278082613096748
10
23.57891567660289
20
-206.16965574772735
30
0
10
23.531368839061756
20
-206.28178861400701
30
0
10
23.435711802874749
20
-206.50738295849288
30
0
10
23.263022841884236
20
-206.68127515581986
30
0
10
23.176169845509136
20
-206.76873331352414
30
0
0
SPLINE
5
13A
100
AcDbEntity
8
INSETS D 1.0
100
AcDbSpline
70
0
71
3
72
9
73
5
74
0
42
0.000000001
43
0.0000000001
44
0.0000000001
40
0
40
0
40
0
40
0
40
0.038091084515785099
40
0.074634055430201671
40
0.074634055430201671
40
0.074634055430201671
40
0.074634055430201671
10
23.620506547534333
20
-205.43152198016128
30
0
10
23.639300919492761
20
-205.55862823419432
30
0
10
23.676125814776064
20
-205.80767483734618
30
0
10
23.610867846656774
20
-206.05067561024256
30
0
10
23.57891567660289
20
-206.16965574772735
30
0
0
LINE
5
13B
100
AcDbEntity
8
INSETS D 1.0
100
AcDbLine
10
23.620506547534333
20
-205.43152198016128
30
0
11
22.751998708220821
21
-201.21305533206709
31
0
0
LINE
5
13C
100
AcDbEntity
8
INSETS D 1.0
100
AcDbLine
10
22.751998708220821
20
-201.21305533206709
30
0
11
21.295056286320321
21
-201.51301406598776
31
0
0
LINE
5
13D
100
AcDbEntity
8
INSETS D 1.0
100
AcDbLine
10
21.295056286320321
20
-201.51301406598776
30
0
11
22.147879944409546
21
-205.6553004052783
31
0
0
LINE
5
13E
100
AcDbEntity
8
INSETS D 1.0
100
AcDbLine
10
22.147879944409546
20
-205.6553004052783
30
0
11
21.576530547391599
21
-205.77293116348784
31
0
0
LINE
5
13F
100
AcDbEntity
8
INSETS D 1.0
100
AcDbLine
10
21.576530547391599
20
-205.77293116348784
30
0
11
20.723706889302377
21
-201.6306448241973
31
0
0
LINE
5
140
100
AcDbEntity
8
INSETS D 1.0
100
AcDbLine
10
20.723706889302377
20
-201.6306448241973
30
0
11
18.609711785128397
21
-202.06587911035075
31
0
0
SPLINE
5
141
100
AcDbEntity
8
INSETS D 1.0
100
AcDbSpline
70
0
71
3
72
9
73
5
74
0
42
0.000000001
43
0.0000000001
44
0.0000000001
40
0
40
0
40
0
40
0
40
0.03631907110310377
40
0.073686847661915217
40
0.073686847661915217
40
0.073686847661915217
40
0.073686847661915217
10
17.957561046947653
20
-202.39370502658301
30
0
10
18.053426544397155
20
-202.31751635387349
30
0
10
18.247925635151461
20
-202.16293907672963
30
0
10
18.487977601529334
20
-202.09853794974535
30
0
10
18.609711785128393
20
-202.06587911035075
30
0
0
SPLINE
5
142
100
AcDbEntity
8
INSETS D 1.0
100
AcDbSpline
70
0
71
3
72
9
73
5
74
0
42
0.000000001
43
0.0000000001
44
0.0000000001
40
0
40
0
40
0
40
0
40
0.036538020138389596
40
0.072734979084385754
40
0.072734979084385754
40
0.072734979084385754
40
0.072734979084385754
10
17.56055689028479
20
-202.99656319040437
30
0
10
17.608322935370701
20
-202.88327784644153
30
0
10
17.703409157259809
20
-202.65776461139217
30
0
10
17.87310899658101
20
-202.4814493018016
30
0
10
17.957561046947653
20
-202.39370502658301
30
0
0
SPLINE
5
143
100
AcDbEntity
8
INSETS D 1.0
100
AcDbSpline
70
0
71
3
72
9
73
5
74
0
42
0.000000001
43
0.0000000001
44
0.0000000001
40
0
40
0
40
0
40
0
40
0.037503832033112257
40
0.074301701712166157
40
0.074301701712166157
40
0.074301701712166157
40
0.074301701712166157
10
17.513224224727956
20
-203.730915776144
30
0
10
17.495389906902513
20
-203.60566360674082
30
0
10
17.460056979799599
20
-203.35751698210842
30
0
10
17.527269789691324
20
-203.11611658220386
30
0
10
17.56055689028479
20
-202.99656319040437
30
0
0
LINE
5
144
100
AcDbEntity
8
INSETS D 1.0
100
AcDbLine
10
17.513224224727956
20
-203.730915776144
30
0
11
18.381732184235972
21
-207.94938300804006
31
0
0
LWPOLYLINE
5
145
100
AcDbEntity
8
INSETS D 1.0
100
AcDbPolyline
90
4
70
1
43
0.0
10
19.747650413077931
20
-203.35029625995119
10
20.300515337246466
20
-206.03564017734124
10
19.538715752021275
20
-206.19248126841697
10
18.985850827852737
20
-203.50713735102698
0
LINE
5
146
100
AcDbEntity
8
INSETS D 1.0
100
AcDbLine
10
19.120846189518943
20
-211.53936531941451
30
0
11
20.577788611419443
21
-211.23940658549384
31
0
0
LINE
5
147
100
AcDbEntity
8
INSETS D 1.0
100
AcDbLine
10
20.577788611419443
20
-211.23940658549384
30
0
11
20.348408452619005
21
-210.12527438560599
31
0
0
LINE
5
148
100
AcDbEntity
8
INSETS D 1.0
100
AcDbLine
10
20.348408452619005
20
-210.12527438560599
30
0
11
26.233311912319017
21
-208.91367661449138
31
0
0
LINE
5
149
100
AcDbEntity
8
INSETS D 1.0
100
AcDbLine
10
26.233311912319017
20
-208.91367661449138
30
0
11
25.931392685793924
21
-207.44721179994087
31
0
0
LINE
5
14A
100
AcDbEntity
8
INSETS D 1.0
100
AcDbLine
10
25.931392685793924
20
-207.44721179994087
30
0
11
19.970308917290254
21
-208.67449375227977
31
0
0
SPLINE
5
14B
100
AcDbEntity
8
INSETS D 1.0
100
AcDbSpline
70
0
71
3
72
9
73
5
74
0
42
0.000000001
43
0.0000000001
44
0.0000000001
40
0
40
0
40
0
40
0
40
0.036463354436106536
40
0.073846740251917731
40
0.073846740251917731
40
0.073846740251917731
40
0.073846740251917731
10
19.319138485508972
20
-209.00708115673797
30
0
10
19.414610967010038
20
-208.92952508026326
30
0
10
19.607964860299507
20
-208.77245605787192
30
0
10
19.848528531351434
20
-208.70741795002033
30
0
10
19.970308917290254
20
-208.67449375227977
30
0
0
SPLINE
5
14C
100
AcDbEntity
8
INSETS D 1.0
100
AcDbSpline
70
0
71
3
72
9
73
5
74
0
42
0.000000001
43
0.0000000001
44
0.0000000001
40
0
40
0
40
0
40
0
40
0.036346676214033966
40
0.072693482964368811
40
0.072693482964368811
40
0.072693482964368811
40
0.072693482964368811
10
18.922134208651602
20
-209.60993873675747
30
0
10
18.970359178954709
20
-209.49764698970205
30
0
10
19.066809292757213
20
-209.273063092304
30
0
10
19.235028653900741
20
-209.09574190806569
30
0
10
19.319138485508972
20
-209.00708115673797
30
0
0
SPLINE
5
14D
100
AcDbEntity
8
INSETS D 1.0
100
AcDbSpline
70
0
71
3
72
9
73
5
74
0
42
0.000000001
43
0.0000000001
44
0.0000000001
40
0
40
0
40
0
40
0
40
0.037383385815811195
40
0.073846849511910284
40
0.073846849511910284
40
0.073846849511910284
40
0.073846849511910284
10
18.873821477084324
20
-210.33953100187492
30
0
10
18.855962296609547
20
-210.21464901514628
30
0
10
18.820683410437361
20
-209.96795811009733
30
0
10
18.888599288932447
20
-209.72828330529893
30
0
10
18.922134208651602
20
-209.60993873675747
30
0
0
LINE
5
14E
100
AcDbEntity
8
INSETS D 1.0
100
AcDbLine
10
18.873821477084324
20
-210.33953100187492
30
0
11
19.120846189518943
21
-211.53936531941451
31
0
0
LINE
5
14F
100
AcDbEntity
8
INSETS D 1.0
100
AcDbLine
10
22.696824123758272
20
-228.90840100000554
30
0
11
24.153766545658772
21
-228.60844226608486
31
0
0
LINE
5
150
100
AcDbEntity
8
INSETS D 1.0
100
AcDbLine
10
24.153766545658772
20
-228.60844226608486
30
0
11
23.732255948125179
21
-226.56110507806454
31
0
0
LINE
5
151
100
AcDbEntity
8
INSETS D 1.0
100
AcDbLine
10
23.732255948125179
20
-226.56110507806454
30
0
11
26.341420140513456
21
-226.02392421492581
31
0
0
LINE
5
152
100
AcDbEntity
8
INSETS D 1.0
100
AcDbLine
10
26.341420140513456
20
-226.02392421492581
30
0
11
26.762930738047046
21
-228.07126140294613
31
0
0
LINE
5
153
100
AcDbEntity
8
INSETS D 1.0
100
AcDbLine
10
26.762930738047046
20
-228.07126140294613
30
0
11
28.219873159947547
21
-227.77130266902546
31
0
0
LINE
5
154
100
AcDbEntity
8
INSETS D 1.0
100
AcDbLine
10
28.219873159947547
20
-227.77130266902546
30
0
11
27.79836256241396
21
-225.72396548100517
31
0
0
LINE
5
155
100
AcDbEntity
8
INSETS D 1.0
100
AcDbLine
10
27.79836256241396
20
-225.72396548100517
30
0
11
29.436232196069831
21
-225.38675702701724
31
0
0
LINE
5
156
100
AcDbEntity
8
INSETS D 1.0
100
AcDbLine
10
29.436232196069831
20
-225.38675702701724
30
0
11
29.136273341954634
21
-223.92981402131483
31
0
0
LINE
5
157
100
AcDbEntity
8
INSETS D 1.0
100
AcDbLine
10
29.136273341954634
20
-223.92981402131483
30
0
11
23.356116785206332
21
-225.11984625358645
31
0
0
SPLINE
5
158
100
AcDbEntity
8
INSETS D 1.0
100
AcDbSpline
70
0
71
3
72
9
73
5
74
0
42
0.000000001
43
0.0000000001
44
0.0000000001
40
0
40
0
40
0
40
0
40
0.036463354436106536
40
0.073846740251917731
40
0.073846740251917731
40
0.073846740251917731
40
0.073846740251917731
10
22.704946353425051
20
-225.45243365804458
30
0
10
22.800418834926113
20
-225.37487758156988
30
0
10
22.993772728215582
20
-225.21780855917854
30
0
10
23.234336399267512
20
-225.15277045132694
30
0
10
23.356116785206332
20
-225.11984625358645
30
0
0
SPLINE
5
159
100
AcDbEntity
8
INSETS D 1.0
100
AcDbSpline
70
0
71
3
72
9
73
5
74
0
42
0.000000001
43
0.0000000001
44
0.0000000001
40
0
40
0
40
0
40
0
40
0.036346676214033966
40
0.072693482964368811
40
0.072693482964368811
40
0.072693482964368811
40
0.072693482964368811
10
22.307942076567677
20
-226.05529123806411
30
0
10
22.356167046870787
20
-225.94299949100869
30
0
10
22.452617160673292
20
-225.71841559361062
30
0
10
22.62083652181682
20
-225.54109440937231
30
0
10
22.704946353425051
20
-225.45243365804458
30
0
0
SPLINE
5
15A
100
AcDbEntity
8
INSETS D 1.0
100
AcDbSpline
70
0
71
3
72
9
73
5
74
0
42
0.000000001
43
0.0000000001
44
0.0000000001
40
0
40
0
40
0
40
0
40
0.038106397490358747
40
0.074792771175866551
40
0.074792771175866551
40
0.074792771175866551
40
0.074792771175866551
10
22.261589717410303
20
-226.79440531202965
30
0
10
22.243015657319248
20
-226.66715101202919
30
0
10
22.206559694077171
20
-226.41738450645784
30
0
10
22.274578419411903
20
-226.17445154351691
30
0
10
22.307942076567677
20
-226.05529123806411
30
0
0
LINE
5
15B
100
AcDbEntity
8
INSETS D 1.0
100
AcDbLine
10
22.261589717410303
20
-226.79440531202965
30
0
11
22.696824123758272
21
-228.90840100000554
31
0
0
LWPOLYLINE
5
15C
100
AcDbEntity
8
INSETS D 1.0
100
AcDbPolyline
90
4
70
1
43
0.0
10
29.023403728558105
20
-229.93851159032727
10
30.489868543108596
20
-229.63659236380221
10
30.189909688993396
20
-228.17964935809982
10
28.723444874442912
20
-228.48156858462488
0
SPLINE
5
15D
100
AcDbEntity
8
INSETS D 1.0
100
AcDbSpline
70
0
71
3
72
9
73
5
74
0
42
0.000000001
43
0.0000000001
44
0.0000000001
40
0
40
0
40
0
40
0
40
0.037356447717463687
40
0.075704057860658314
40
0.075704057860658314
40
0.075704057860658314
40
0.075704057860658314
10
17.065527038821585
20
-200.59213248329741
30
0
10
16.987305669629333
20
-200.49342730298832
30
0
10
16.828787517580793
20
-200.29339804062965
30
0
10
16.762563871583893
20
-200.04681991749737
30
0
10
16.729018528960069
20
-199.92191668241423
30
0
0
SPLINE
5
15E
100
AcDbEntity
8
INSETS D 1.0
100
AcDbSpline
70
0
71
3
72
9
73
5
74
0
42
0.000000001
43
0.0000000001
44
0.0000000001
40
0
40
0
40
0
40
0
40
0.037295611576506495
40
0.074462608143148243
40
0.074462608143148243
40
0.074462608143148243
40
0.074462608143148243
10
17.680848394296824
20
-201.00146002823178
30
0
10
17.565485224433758
20
-200.95210193213654
30
0
10
17.335156717980837
20
-200.85355595278736
30
0
10
17.155300046489486
20
-200.67917323936058
30
0
10
17.065527038821585
20
-200.59213248329741
30
0
0
SPLINE
5
15F
100
AcDbEntity
8
INSETS D 1.0
100
AcDbSpline
70
0
71
3
72
9
73
5
74
0
42
0.000000001
43
0.0000000001
44
0.0000000001
40
0
40
0
40
0
40
0
40
0.038363146641702574
40
0.075863462155486297
40
0.075863462155486297
40
0.075863462155486297
40
0.075863462155486297
10
18.430465047117305
20
-201.05061279920881
30
0
10
18.302322273078381
20
-201.06890887053126
30
0
10
18.048918802826183
20
-201.10508951356681
30
0
10
17.802604714833411
20
-201.03574027608954
30
0
10
17.680848394296824
20
-201.00146002823178
30
0
0
LINE
5
160
100
AcDbEntity
8
INSETS D 1.0
100
AcDbLine
10
18.430465047117305
20
-201.05061279920881
30
0
11
21.020584454205611
21
-200.5173529212789
31
0
0
LINE
5
161
100
AcDbEntity
8
INSETS D 1.0
100
AcDbLine
10
21.020584454205611
20
-200.5173529212789
30
0
11
20.406943478036119
21
-197.53681103702706
31
0
0
LINE
5
162
100
AcDbEntity
8
INSETS D 1.0
100
AcDbLine
10
20.406943478036119
20
-197.53681103702706
30
0
11
18.92143387818567
21
-197.84265124876097
31
0
0
LINE
5
163
100
AcDbEntity
8
INSETS D 1.0
100
AcDbLine
10
18.92143387818567
20
-197.84265124876097
30
0
11
19.227274150016839
21
-199.32816114051235
31
0
0
LINE
5
164
100
AcDbEntity
8
INSETS D 1.0
100
AcDbLine
10
19.227274150016839
20
-199.32816114051235
30
0
11
18.198844067780744
21
-199.53989674567856
31
0
0
LINE
5
165
100
AcDbEntity
8
INSETS D 1.0
100
AcDbLine
10
18.198844067780744
20
-199.53989674567856
30
0
11
17.398954190788572
21
-195.65471734314517
31
0
0
LINE
5
166
100
AcDbEntity
8
INSETS D 1.0
100
AcDbLine
10
17.398954190788572
20
-195.65471734314517
30
0
11
21.284133593321979
21
-194.8548274661531
31
0
0
LINE
5
167
100
AcDbEntity
8
INSETS D 1.0
100
AcDbLine
10
21.284133593321979
20
-194.8548274661531
30
0
11
22.08402347031415
21
-198.74000686868652
31
0
0
LINE
5
168
100
AcDbEntity
8
INSETS D 1.0
100
AcDbLine
10
22.08402347031415
20
-198.74000686868652
30
0
11
21.512673489494311
21
-198.85763774709056
31
0
0
LINE
5
169
100
AcDbEntity
8
INSETS D 1.0
100
AcDbLine
10
21.512673489494311
20
-198.85763774709056
30
0
11
21.820474193832634
21
-200.35266973959097
31
0
0
LINE
5
16A
100
AcDbEntity
8
INSETS D 1.0
100
AcDbLine
10
21.820474193832634
20
-200.35266973959097
30
0
11
22.468003899654239
21
-200.21935480015713
31
0
0
SPLINE
5
16B
100
AcDbEntity
8
INSETS D 1.0
100
AcDbSpline
70
0
71
3
72
9
73
5
74
0
42
0.000000001
43
0.0000000001
44
0.0000000001
40
0
40
0
40
0
40
0
40
0.037500315513783723
40
0.075863462155486297
40
0.075863462155486297
40
0.075863462155486297
40
0.075863462155486297
10
23.137239514332428
20
-199.8780853858716
30
0
10
23.038926776694495
20
-199.95767396923586
30
0
10
22.840039259375978
20
-200.11868236074781
30
0
10
22.592952431447252
20
-200.18554383792599
30
0
10
22.468003899654239
20
-200.21935480015713
30
0
0
SPLINE
5
16C
100
AcDbEntity
8
INSETS D 1.0
100
AcDbSpline
70
0
71
3
72
9
73
5
74
0
42
0.000000001
43
0.0000000001
44
0.0000000001
40
0
40
0
40
0
40
0
40
0.037167014789184376
40
0.074462602961940808
40
0.074462602961940808
40
0.074462602961940808
40
0.074462602961940808
10
23.540825264641406
20
-199.25898284856987
30
0
10
23.49273608276544
20
-199.37440697779442
30
0
10
23.396391362127915
20
-199.60565452768316
30
0
10
23.223722844918374
20
-199.78717062616238
30
0
10
23.137239514332428
20
-199.8780853858716
30
0
0
SPLINE
5
16D
100
AcDbEntity
8
INSETS D 1.0
100
AcDbSpline
70
0
71
3
72
9
73
5
74
0
42
0.000000001
43
0.0000000001
44
0.0000000001
40
0
40
0
40
0
40
0
40
0.038347551019390878
40
0.075704053612011532
40
0.075704053612011532
40
0.075704053612011532
40
0.075704053612011532
10
23.585217131194376
20
-198.51034638195438
30
0
10
23.603739233812483
20
-198.63834241819345
30
0
10
23.640304756572974
20
-198.89102658007562
30
0
10
23.573694428061479
20
-199.13740588345132
30
0
10
23.540825264641406
20
-199.25898284856987
30
0
0
LINE
5
16E
100
AcDbEntity
8
INSETS D 1.0
100
AcDbLine
10
23.585217131194376
20
-198.51034638195438
30
0
11
22.755919624747065
21
-194.48232992206741
31
0
0
SPLINE
5
16F
100
AcDbEntity
8
INSETS D 1.0
100
AcDbSpline
70
0
71
3
72
9
73
5
74
0
42
0.000000001
43
0.0000000001
44
0.0000000001
40
0
40
0
40
0
40
0
40
0.037356502592620654
40
0.075704053612011532
40
0.075704053612011532
40
0.075704053612011532
40
0.075704053612011532
10
22.419411114885548
20
-193.81211412118429
30
0
10
22.497632525095057
20
-193.91081949761443
30
0
10
22.65615051851335
20
-194.11084885235749
30
0
10
22.72237427565863
20
-194.35742690716043
30
0
10
22.755919624747065
20
-194.48232992206741
30
0
0
SPLINE
5
170
100
AcDbEntity
8
INSETS D 1.0
100
AcDbSpline
70
0
71
3
72
9
73
5
74
0
42
0.000000001
43
0.0000000001
44
0.0000000001
40
0
40
0
40
0
40
0
40
0.037070958572632901
40
0.074141897556539285
40
0.074141897556539285
40
0.074141897556539285
40
0.074141897556539285
10
21.805070035761144
20
-193.40754791852535
30
0
10
21.920221128516285
20
-193.45559800275799
30
0
10
22.150523253179394
20
-193.55169814583309
30
0
10
22.329781843437221
20
-193.72530881135688
30
0
10
22.419411114885548
20
-193.81211412118429
30
0
0
SPLINE
5
171
100
AcDbEntity
8
INSETS D 1.0
100
AcDbSpline
70
0
71
3
72
9
73
5
74
0
42
0.000000001
43
0.0000000001
44
0.0000000001
40
0
40
0
40
0
40
0
40
0.038347580109057741
40
0.075704047992643853
40
0.075704047992643853
40
0.075704047992643853
40
0.075704047992643853
10
21.056433614218548
20
-193.36315627089812
30
0
10
21.184429744693372
20
-193.34463412043618
30
0
10
21.437113882174316
20
-193.3080685336767
30
0
10
21.683493178203889
20
-193.37467880930205
30
0
10
21.805070035761144
20
-193.40754791852535
30
0
0
LINE
5
172
100
AcDbEntity
8
INSETS D 1.0
100
AcDbLine
10
21.056433614218548
20
-193.36315627089812
30
0
11
17.018894761681619
21
-194.19441426994976
31
0
0
SPLINE
5
173
100
AcDbEntity
8
INSETS D 1.0
100
AcDbSpline
70
0
71
3
72
9
73
5
74
0
42
0.000000001
43
0.0000000001
44
0.0000000001
40
0
40
0
40
0
40
0
40
0.0373564967754609
40
0.075704046850381762
40
0.075704046850381762
40
0.075704046850381762
40
0.075704046850381762
10
16.348678915725536
20
-194.53092256088553
30
0
10
16.447384307500307
20
-194.45270120467472
30
0
10
16.647413706622412
20
-194.29418331016026
30
0
10
16.89399174633763
20
-194.2279595982796
30
0
10
17.018894761681619
20
-194.19441426994976
30
0
0
SPLINE
5
174
100
AcDbEntity
8
INSETS D 1.0
100
AcDbSpline
70
0
71
3
72
9
73
5
74
0
42
0.000000001
43
0.0000000001
44
0.0000000001
40
0
40
0
40
0
40
0
40
0.037070914827742774
40
0.074141901513383401
40
0.074141901513383401
40
0.074141901513383401
40
0.074141901513383401
10
15.944112889065725
20
-195.14526375591177
30
0
10
15.992162805092223
20
-195.0301127457243
30
0
10
16.088262730284704
20
-194.79981050214172
30
0
10
16.261873464491089
20
-194.62055193254972
30
0
10
16.348678915725536
20
-194.53092256088553
30
0
0
SPLINE
5
175
100
AcDbEntity
8
INSETS D 1.0
100
AcDbSpline
70
0
71
3
72
9
73
5
74
0
42
0.000000001
43
0.0000000001
44
0.0000000001
40
0
40
0
40
0
40
0
40
0.038347551019390878
40
0.075704053612011532
40
0.075704053612011532
40
0.075704053612011532
40
0.075704053612011532
10
15.899721022512754
20
-195.89390022252729
30
0
10
15.881198919894647
20
-195.76590418628822
30
0
10
15.844633397134164
20
-195.51322002440602
30
0
10
15.911243725645654
20
-195.26684072103035
30
0
10
15.944112889065725
20
-195.14526375591177
30
0
0
LINE
5
176
100
AcDbEntity
8
INSETS D 1.0
100
AcDbLine
10
15.899721022512754
20
-195.89390022252729
30
0
11
16.729018528960069
21
-199.92191668241421
31
0
0
LWPOLYLINE
5
177
100
AcDbEntity
8
INSETS D 1.0
100
AcDbPolyline
90
4
70
1
43
0.0
10
31.344652556437062
20
-270.9121391015882
10
38.200851158671377
20
-269.50056880112828
10
37.900892785334207
20
-268.04362813063346
10
31.044694183099896
20
-269.45519843109338
0
SPLINE
5
178
100
AcDbEntity
8
INSETS D 1.0
100
AcDbSpline
70
0
71
3
72
9
73
5
74
0
42
0.000000001
43
0.0000000001
44
0.0000000001
40
0
40
0
40
0
40
0
40
0.036686373685507798
40
0.074792771175866551
40
0.074792771175866551
40
0.074792771175866551
40
0.074792771175866551
10
27.922855877515182
20
-253.32772969980908
30
0
10
27.845134820364159
20
-253.23143977671356
30
0
10
27.686684347911516
20
-253.03513282508177
30
0
10
27.621512476257593
20
-252.79127841830109
30
0
10
27.58830786025807
20
-252.66703629157598
30
0
0
SPLINE
5
179
100
AcDbEntity
8
INSETS D 1.0
100
AcDbSpline
70
0
71
3
72
9
73
5
74
0
42
0.000000001
43
0.0000000001
44
0.0000000001
40
0
40
0
40
0
40
0
40
0.036122112691869164
40
0.07237355029458914
40
0.07237355029458914
40
0.07237355029458914
40
0.07237355029458914
10
28.524733133964574
20
-253.7199694492366
30
0
10
28.412652052164979
20
-253.67305464049906
30
0
10
28.188088614253974
20
-253.5790570579465
30
0
10
28.011372048538135
20
-253.41160522622101
30
0
10
27.922855877515182
20
-253.32772969980908
30
0
0
SPLINE
5
17A
100
AcDbEntity
8
INSETS D 1.0
100
AcDbSpline
70
0
71
3
72
9
73
5
74
0
42
0.000000001
43
0.0000000001
44
0.0000000001
40
0
40
0
40
0
40
0
40
0.037367799239292031
40
0.07368689367737874
40
0.07368689367737874
40
0.07368689367737874
40
0.07368689367737874
10
29.253344405856822
20
-253.76352326817451
30
0
10
29.128609535255741
20
-253.78160734705682
30
0
10
28.882640403143235
20
-253.81726798602884
30
0
10
28.642898227811404
20
-253.7520931072936
30
0
10
28.524733133964574
20
-253.7199694492366
30
0
0
LINE
5
17B
100
AcDbEntity
8
INSETS D 1.0
100
AcDbLine
10
29.253344405856822
20
-253.76352326817451
30
0
11
33.39563132894925
21
-252.91069948989087
31
0
0
LINE
5
17C
100
AcDbEntity
8
INSETS D 1.0
100
AcDbLine
10
33.39563132894925
20
-252.91069948989087
30
0
11
33.095671994056019
21
-251.45375414898086
31
0
0
LINE
5
17D
100
AcDbEntity
8
INSETS D 1.0
100
AcDbLine
10
33.095671994056019
20
-251.45375414898086
30
0
11
29.029565379767249
21
-252.2908937460403
31
0
0
LINE
5
17E
100
AcDbEntity
8
INSETS D 1.0
100
AcDbLine
10
29.029565379767249
20
-252.2908937460403
30
0
11
28.476700455598714
21
-249.60554982865028
31
0
0
LINE
5
17F
100
AcDbEntity
8
INSETS D 1.0
100
AcDbLine
10
28.476700455598714
20
-249.60554982865028
30
0
11
32.542807069887488
21
-248.76841023159088
31
0
0
LINE
5
180
100
AcDbEntity
8
INSETS D 1.0
100
AcDbLine
10
32.542807069887488
20
-248.76841023159088
30
0
11
32.242848696550311
21
-247.31146956109603
31
0
0
LINE
5
181
100
AcDbEntity
8
INSETS D 1.0
100
AcDbLine
10
32.242848696550311
20
-247.31146956109603
30
0
11
28.100561773457887
21
-248.16429333937973
31
0
0
SPLINE
5
182
100
AcDbEntity
8
INSETS D 1.0
100
AcDbSpline
70
0
71
3
72
9
73
5
74
0
42
0.000000001
43
0.0000000001
44
0.0000000001
40
0
40
0
40
0
40
0
40
0.036319094438086716
40
0.07368689367737874
40
0.07368689367737874
40
0.07368689367737874
40
0.07368689367737874
10
27.448411516055174
20
-248.49212159081952
30
0
10
27.544276991286132
20
-248.4159328155994
30
0
10
27.738776033455721
20
-248.26135533326095
30
0
10
27.978827729222733
20
-248.19695286061076
30
0
10
28.100561773457887
20
-248.1642933393797
30
0
0
SPLINE
5
183
100
AcDbEntity
8
INSETS D 1.0
100
AcDbSpline
70
0
71
3
72
9
73
5
74
0
42
0.000000001
43
0.0000000001
44
0.0000000001
40
0
40
0
40
0
40
0
40
0.036537879183565533
40
0.07273491137237946
40
0.07273491137237946
40
0.07273491137237946
40
0.07273491137237946
10
27.051407239197808
20
-249.09497917083897
30
0
10
27.099173590095393
20
-248.9816945312092
30
0
10
27.194260699056024
20
-248.75618203821722
30
0
10
27.36395965553583
20
-248.57986632575927
30
0
10
27.448411516055174
20
-248.49212159081952
30
0
0
SPLINE
5
184
100
AcDbEntity
8
INSETS D 1.0
100
AcDbSpline
70
0
71
3
72
9
73
5
74
0
42
0.000000001
43
0.0000000001
44
0.0000000001
40
0
40
0
40
0
40
0
40
0.037503950236778875
40
0.074301491571905048
40
0.074301491571905048
40
0.074301491571905048
40
0.074301491571905048
10
27.00407409286294
20
-249.82932942137103
30
0
10
26.986239483428079
20
-249.70407683381131
30
0
10
26.950906189888428
20
-249.45593086464891
30
0
10
27.018119897090337
20
-249.21453138047946
30
0
10
27.051407239197808
20
-249.09497917083897
30
0
0
LINE
5
185
100
AcDbEntity
8
INSETS D 1.0
100
AcDbLine
10
27.00407409286294
20
-249.82932942137103
30
0
11
27.58830786025807
21
-252.66703629157593
31
0
0
LINE
5
186
100
AcDbEntity
8
INSETS D 1.0
100
AcDbLine
10
20.403022535753905
20
-217.76707900112717
30
0
11
24.54530945884634
21
-216.91425522284351
31
0
0
SPLINE
5
187
100
AcDbEntity
8
INSETS D 1.0
100
AcDbSpline
70
0
71
3
72
9
73
5
74
0
42
0.000000001
43
0.0000000001
44
0.0000000001
40
0
40
0
40
0
40
0
40
0.036766826728804367
40
0.073652468498883225
40
0.073652468498883225
40
0.073652468498883225
40
0.073652468498883225
10
25.19746019702707
20
-216.58642930661125
30
0
10
25.099994186905803
20
-216.66294976412686
30
0
10
24.904747197190908
20
-216.81623796134494
30
0
10
24.66525082226358
20
-216.88154768346072
30
0
10
24.545309458846333
20
-216.91425522284348
30
0
0
SPLINE
5
188
100
AcDbEntity
8
INSETS D 1.0
100
AcDbSpline
70
0
71
3
72
9
73
5
74
0
42
0.000000001
43
0.0000000001
44
0.0000000001
40
0
40
0
40
0
40
0
40
0.036176002207592428
40
0.07278073242237891
40
0.07278073242237891
40
0.07278073242237891
40
0.07278073242237891
10
25.600206268509837
20
-215.98735290841825
30
0
10
25.552659271533397
20
-216.09948534163965
30
0
10
25.457001789963925
20
-216.32507910878195
30
0
10
25.284313145855222
20
-216.49897112658914
30
0
10
25.19746019702707
20
-216.58642930661125
30
0
0
SPLINE
5
189
100
AcDbEntity
8
INSETS D 1.0
100
AcDbSpline
70
0
71
3
72
9
73
5
74
0
42
0.000000001
43
0.0000000001
44
0.0000000001
40
0
40
0
40
0
40
0
40
0.038091084515785099
40
0.074634055430201671
40
0.074634055430201671
40
0.074634055430201671
40
0.074634055430201671
10
25.64179713944128
20
-215.24921914085215
30
0
10
25.660591511399709
20
-215.37632539488521
30
0
10
25.697416406683011
20
-215.62537199803705
30
0
10
25.632158438563724
20
-215.86837277093343
30
0
10
25.600206268509837
20
-215.98735290841825
30
0
0
LINE
5
18A
100
AcDbEntity
8
INSETS D 1.0
100
AcDbLine
10
25.64179713944128
20
-215.24921914085215
30
0
11
24.773289179933261
21
-211.03075190895606
31
0
0
LINE
5
18B
100
AcDbEntity
8
INSETS D 1.0
100
AcDbLine
10
24.773289179933261
20
-211.03075190895606
30
0
11
23.316346758032761
21
-211.33071064287677
31
0
0
LINE
5
18C
100
AcDbEntity
8
INSETS D 1.0
100
AcDbLine
10
23.316346758032761
20
-211.33071064287677
30
0
11
24.169170295927486
21
-215.47299639836538
31
0
0
LINE
5
18D
100
AcDbEntity
8
INSETS D 1.0
100
AcDbLine
10
24.169170295927486
20
-215.47299639836538
30
0
11
23.597820898909529
21
-215.59062715657495
31
0
0
LINE
5
18E
100
AcDbEntity
8
INSETS D 1.0
100
AcDbLine
10
23.597820898909529
20
-215.59062715657495
30
0
11
22.744997361014818
21
-211.44834140108634
31
0
0
LINE
5
18F
100
AcDbEntity
8
INSETS D 1.0
100
AcDbLine
10
22.744997361014818
20
-211.44834140108634
30
0
11
20.631002256840834
21
-211.88357568723973
31
0
0
SPLINE
5
190
100
AcDbEntity
8
INSETS D 1.0
100
AcDbSpline
70
0
71
3
72
9
73
5
74
0
42
0.000000001
43
0.0000000001
44
0.0000000001
40
0
40
0
40
0
40
0
40
0.036319094438086716
40
0.073686863436925043
40
0.073686863436925043
40
0.073686863436925043
40
0.073686863436925043
10
19.978851518660093
20
-212.21140160347198
30
0
10
20.074716931150903
20
-212.13521264663655
30
0
10
20.26921576620795
20
-211.98063485926065
30
0
10
20.509267992250926
20
-211.91623425032486
30
0
10
20.631002256840834
20
-211.88357568723973
30
0
0
SPLINE
5
191
100
AcDbEntity
8
INSETS D 1.0
100
AcDbSpline
70
0
71
3
72
9
73
5
74
0
42
0.000000001
43
0.0000000001
44
0.0000000001
40
0
40
0
40
0
40
0
40
0.036538067123404586
40
0.072735026069400743
40
0.072735026069400743
40
0.072735026069400743
40
0.072735026069400743
10
19.581847482191737
20
-212.81426035109524
30
0
10
19.629613447607394
20
-212.70097479093667
30
0
10
19.724699450049833
20
-212.47546126983025
30
0
10
19.894399445265623
20
-212.29914586794229
30
0
10
19.978851518660093
20
-212.21140160347198
30
0
0
SPLINE
5
192
100
AcDbEntity
8
INSETS D 1.0
100
AcDbSpline
70
0
71
3
72
9
73
5
74
0
42
0.000000001
43
0.0000000001
44
0.0000000001
40
0
40
0
40
0
40
0
40
0.037503950236778875
40
0.074301710467796211
40
0.074301710467796211
40
0.074301710467796211
40
0.074301710467796211
10
19.534514816634903
20
-213.54861293683484
30
0
10
19.516680312183542
20
-213.42336036741136
30
0
10
19.481347122540445
20
-213.17521370312954
30
0
10
19.54856030166497
20
-212.93381335003571
30
0
10
19.581847482191737
20
-212.81426035109524
30
0
0
LINE
5
193
100
AcDbEntity
8
INSETS D 1.0
100
AcDbLine
10
19.534514816634903
20
-213.54861293683484
30
0
11
20.403022535753905
21
-217.76707900112717
31
0
0
LWPOLYLINE
5
194
100
AcDbEntity
8
INSETS D 1.0
100
AcDbPolyline
90
4
70
1
43
0.0
10
21.768940764595865
20
-213.16799225303834
10
22.3218056887644
20
-215.85333617042835
10
21.560006103539209
20
-216.01017726150411
10
21.00714117937067
20
-213.32483334411407
0
LINE
5
195
100
AcDbEntity
8
INSETS D 1.0
100
AcDbLine
10
28.38035504566556
20
-256.51412262069806
30
0
11
32.446461659954345
21
-255.67698302363866
31
0
0
LINE
5
196
100
AcDbEntity
8
INSETS D 1.0
100
AcDbLine
10
32.446461659954345
20
-255.67698302363866
30
0
11
33.060102696221087
21
-258.65752519979145
31
0
0
LINE
5
197
100
AcDbEntity
8
INSETS D 1.0
100
AcDbLine
10
33.060102696221087
20
-258.65752519979145
30
0
11
34.517045118121587
21
-258.35756646587078
31
0
0
LINE
5
198
100
AcDbEntity
8
INSETS D 1.0
100
AcDbLine
10
34.517045118121587
20
-258.35756646587078
30
0
11
33.889680753818489
21
-255.31036812497001
31
0
0
SPLINE
5
199
100
AcDbEntity
8
INSETS D 1.0
100
AcDbSpline
70
0
71
3
72
9
73
5
74
0
42
0.000000001
43
0.0000000001
44
0.0000000001
40
0
40
0
40
0
40
0
40
0.036797541335126166
40
0.074301491571905048
40
0.074301491571905048
40
0.074301491571905048
40
0.074301491571905048
10
33.556113523738858
20
-254.6544385401703
30
0
10
33.633919282661537
20
-254.75111864077519
30
0
10
33.791024451406074
20
-254.94633482695562
30
0
10
33.856587543001872
20
-255.1882570141654
30
0
10
33.889680753818489
20
-255.31036812497001
30
0
0
SPLINE
5
19A
100
AcDbEntity
8
INSETS D 1.0
100
AcDbSpline
70
0
71
3
72
9
73
5
74
0
42
0.000000001
43
0.0000000001
44
0.0000000001
40
0
40
0
40
0
40
0
40
0.036421950058199988
40
0.073056167871580979
40
0.073056167871580979
40
0.073056167871580979
40
0.073056167871580979
10
32.952274692934502
20
-254.25267114387589
30
0
10
33.064730078784599
20
-254.30122617047004
30
0
10
33.290296242419437
20
-254.39861920319359
30
0
10
33.467336297534331
20
-254.56900041126633
30
0
10
33.556113523738858
20
-254.6544385401703
30
0
0
SPLINE
5
19B
100
AcDbEntity
8
INSETS D 1.0
100
AcDbSpline
70
0
71
3
72
9
73
5
74
0
42
0.000000001
43
0.0000000001
44
0.0000000001
40
0
40
0
40
0
40
0
40
0.037383354814003823
40
0.073846804605168348
40
0.073846804605168348
40
0.073846804605168348
40
0.073846804605168348
10
32.222683595420825
20
-254.20435817191958
30
0
10
32.347565454427183
20
-254.18649779810167
30
0
10
32.594256161739466
20
-254.15121654680505
30
0
10
32.833930384801249
20
-254.21913496334014
30
0
10
32.952274692934502
20
-254.25267114387589
30
0
0
LINE
5
19C
100
AcDbEntity
8
INSETS D 1.0
100
AcDbLine
10
32.222683595420825
20
-254.20435817191958
30
0
11
28.080396672328391
21
-255.05718195020324
31
0
0
LINE
5
19D
100
AcDbEntity
8
INSETS D 1.0
100
AcDbLine
10
28.080396672328391
20
-255.05718195020324
30
0
11
28.38035504566556
21
-256.51412262069806
31
0
0
LWPOLYLINE
5
19E
100
AcDbEntity
8
INSETS D 1.0
100
AcDbPolyline
90
7
70
1
43
0.0
10
32.542526398542876
20
-276.73038347753072
10
40.21625919101453
20
-279.2896935296522
10
39.865327769573732
20
-277.58516948265395
10
34.292984733861658
20
-275.73471975722532
10
38.681177255504267
20
-271.83358127145948
10
38.328284259708489
20
-270.11952957759422
10
32.289619847711521
20
-275.50198023063552
0
CIRCLE
5
19F
100
AcDbEntity
8
HOLES DIAM 41.4 D 5.9
100
AcDbCircle
10
50.438090772615666
20
-86.977517949146943
30
0
40
20.699999999999999
210
0
220
-0
230
1
0
CIRCLE
5
1A0
100
AcDbEntity
8
HOLES DIAM 41.4 D 5.9
100
AcDbCircle
10
150.43809077261568
20
-86.977517949146943
30
0
40
20.699999999999999
210
0
220
-0
230
1
0
CIRCLE
5
1A1
100
AcDbEntity
8
HOLES DIAM 41.4 D 5.9
100
AcDbCircle
10
345.43809077261574
20
-249.70451794914695
30
0
40
20.699999999999999
210
0
220
-0
230
1
0
CIRCLE
5
1A2
100
AcDbEntity
8
HOLES DIAM 5.0 D 5.9
100
AcDbCircle
10
180.09946085223271
20
-69.852517949146929
30
0
40
2.5
210
0
220
0
230
1
0
CIRCLE
5
1A3
100
AcDbEntity
8
HOLES DIAM 5.0 D 5.9
100
AcDbCircle
10
375.09946085223277
20
-232.57951794914692
30
0
40
2.5
210
0
220
0
230
1
0
CIRCLE
5
1A4
100
AcDbEntity
8
HOLES DIAM 2.5 D 5.9
100
AcDbCircle
10
7.3999999998548383
20
-142.25977586807628
30
0
40
1.2500000000000018
210
0
220
0
230
1
0
CIRCLE
5
1A5
100
AcDbEntity
8
HOLES DIAM 2.5 D 5.9
100
AcDbCircle
10
19.399999999854831
20
-142.27299992771017
30
0
40
1.25
210
0
220
0
230
1
0
CIRCLE
5
1A6
100
AcDbEntity
8
HOLES DIAM 2.5 D 5.9
100
AcDbCircle
10
267.39999999985486
20
-142.25977586807625
30
0
40
1.2499999999999969
210
0
220
0
230
1
0
CIRCLE
5
1A7
100
AcDbEntity
8
HOLES DIAM 2.5 D 5.9
100
AcDbCircle
10
279.3999999998548
20
-142.2730000215129
30
0
40
1.2499999999999925
210
0
220
0
230
1
0
ENDSEC
0
SECTION
2
OBJECTS
0
DICTIONARY
5
C
100
AcDbDictionary
3
ACAD_GROUP
350
D
3
ACAD_MLINESTYLE
350
17
0
DICTIONARY
5
D
100
AcDbDictionary
0
DICTIONARY
5
1A
330
C
100
AcDbDictionary
0
DICTIONARY
5
17
100
AcDbDictionary
0
ENDSEC
0
EOF
