0
SECTION
2
HEADER
9
$INSUNITS
70
4
9
$ACADVER
1
AC1014
9
$HANDSEED
5
FFFF
0
ENDSEC
0
SECTION
2
TABLES
0
TABLE
2
VPORT
5
8
100
AcDbSymbolTable
0
ENDTAB
0
TABLE
2
LTYPE
5
5
100
AcDbSymbolTable
0
LTYPE
5
14
100
AcDbSymbolTableRecord
100
AcDbLinetypeTableRecord
2
BYBLOCK
70
0
0
LTYPE
5
15
100
AcDbSymbolTableRecord
100
AcDbLinetypeTableRecord
2
BYLAYER
70
0
0
ENDTAB
0
TABLE
2
LAYER
5
2
100
AcDbSymbolTable
70
2
0
LAYER
5
50
100
AcDbSymbolTableRecord
100
AcDbLayerTableRecord
2
0
70
0
6
CONTINUOUS
0
ENDTAB
0
TABLE
2
STYLE
5
3
100
AcDbSymbolTable
70
1
0
STYLE
5
11
100
AcDbSymbolTableRecord
100
AcDbTextStyleTableRecord
2
STANDARD
70
0
0
ENDTAB
0
TABLE
2
VIEW
5
6
100
AcDbSymbolTable
70
0
0
ENDTAB
0
TABLE
2
UCS
5
7
100
AcDbSymbolTable
70
0
0
ENDTAB
0
TABLE
2
APPID
5
9
100
AcDbSymbolTable
70
2
0
APPID
5
12
100
AcDbSymbolTableRecord
100
AcDbRegAppTableRecord
2
ACAD
70
0
0
ENDTAB
0
TABLE
2
DIMSTYLE
5
A
100
AcDbSymbolTable
70
1
0
ENDTAB
0
TABLE
2
BLOCK_RECORD
5
1
100
AcDbSymbolTable
70
1
0
BLOCK_RECORD
5
1F
100
AcDbSymbolTableRecord
100
AcDbBlockTableRecord
2
*MODEL_SPACE
0
BLOCK_RECORD
5
1B
100
AcDbSymbolTableRecord
100
AcDbBlockTableRecord
2
*PAPER_SPACE
0
ENDTAB
0
ENDSEC
0
SECTION
2
BLOCKS
0
BLOCK
5
20
100
AcDbEntity
100
AcDbBlockBegin
2
*MODEL_SPACE
0
ENDBLK
5
21
100
AcDbEntity
100
AcDbBlockEnd
0
BLOCK
5
1C
100
AcDbEntity
100
AcDbBlockBegin
2
*PAPER_SPACE
0
ENDBLK
5
1D
100
AcDbEntity
100
AcDbBlockEnd
0
ENDSEC
0
SECTION
2
ENTITIES
0
LWPOLYLINE
5
100
100
AcDbEntity
8
0
100
AcDbPolyline
90
4
70
1
43
0.0
10
0
20
-317.29085213436451
10
0
20
0
10
-457
20
-7.6197728682281252e-15
10
-457
20
-317.29085213436451
0
SPLINE
5
101
100
AcDbEntity
8
0
100
AcDbSpline
70
0
71
3
72
11
73
7
74
0
42
0.000000001
43
0.0000000001
44
0.0000000001
40
0
40
0
40
0
40
0
40
0.12447071236523015
40
0.12447071236523015
40
0.12447071236523015
40
0.2260262739776423
40
0.2260262739776423
40
0.2260262739776423
40
0.2260262739776423
10
-382.74999999999989
20
-51.036149744212558
30
0
10
-382.33509762544929
20
-51.036149744212558
30
0
10
-381.88688470670468
20
-51.237964187148251
30
0
10
-381.61056593836429
20
-51.560763702522067
30
0
10
-381.38511766085685
20
-51.824135586952281
30
0
10
-381.25000000000011
20
-52.184200984368012
30
0
10
-381.25000000000011
20
-52.536370398439026
30
0
0
SPLINE
5
102
100
AcDbEntity
8
0
100
AcDbSpline
70
0
71
3
72
26
73
22
74
0
42
0.000000001
43
0.0000000001
44
0.0000000001
40
0.2260262739776423
40
0.2260262739776423
40
0.2260262739776423
40
0.2260262739776423
40
0.24348624552436432
40
0.24348624552436432
40
0.24348624552436432
40
0.36015585689141622
40
0.36015585689141622
40
0.36015585689141622
40
0.47735019222210173
40
0.47735019222210173
40
0.47735019222210173
40
0.63078884360083864
40
0.63078884360083864
40
0.63078884360083864
40
0.76157974198434575
40
0.76157974198434575
40
0.76157974198434575
40
0.87854272181378823
40
0.87854272181378823
40
0.87854272181378823
40
0.90410509591056698
40
0.90410509591056698
40
0.90410509591056698
40
0.90410509591056698
10
-381.25000000000011
20
-52.536370398439026
30
0
10
-381.25000000000011
20
-52.596917234591373
30
0
10
-381.25340656766377
20
-52.653979071070729
30
0
10
-381.26052522656238
20
-52.713754244089557
30
0
10
-381.30809295397421
20
-53.113179076303211
30
0
10
-381.52837690570919
20
-53.496156256573101
30
0
10
-381.85228503715854
20
-53.738194224392842
30
0
10
-382.17764995205476
20
-53.981320762923815
30
0
10
-382.60584300440939
20
-54.084479095515725
30
0
10
-383.00801712265638
20
-54.014223764495917
30
0
10
-383.53457034000371
20
-53.922240792678821
30
0
10
-383.99577599109693
20
-53.532568591443891
30
0
10
-384.17027995227983
20
-53.01887629635295
30
0
10
-384.31902689217736
20
-52.581005680547072
30
0
10
-384.25409819710922
20
-52.092434229635735
30
0
10
-384.00212858242026
20
-51.71039530961658
30
0
10
-383.77679855315421
20
-51.368747602868375
30
0
10
-383.41211299874658
20
-51.129874205211401
30
0
10
-383.01074250000966
20
-51.058995717264153
30
0
10
-382.92302258337378
20
-51.04350515412218
30
0
10
-382.83520791365589
20
-51.036149744212551
30
0
10
-382.75
20
-51.036149744212551
30
0
0
SPLINE
5
103
100
AcDbEntity
8
0
100
AcDbSpline
70
0
71
3
72
11
73
7
74
0
42
0.000000001
43
0.0000000001
44
0.0000000001
40
0
40
0
40
0
40
0
40
0.1244707123655457
40
0.1244707123655457
40
0.1244707123655457
40
0.22602627397764166
40
0.22602627397764166
40
0.22602627397764166
40
0.22602627397764166
10
-382.75000000000023
20
-156.80310241506891
30
0
10
-382.33509762544821
20
-156.80310241506891
30
0
10
-381.88688470670257
20
-157.0049168580058
30
0
10
-381.6105659383623
20
-157.32771637338095
30
0
10
-381.38511766085628
20
-157.59108825781078
30
0
10
-381.25000000000028
20
-157.95115365522545
30
0
10
-381.25000000000028
20
-158.3033230692954
30
0
0
SPLINE
5
104
100
AcDbEntity
8
0
100
AcDbSpline
70
0
71
3
72
26
73
22
74
0
42
0.000000001
43
0.0000000001
44
0.0000000001
40
0.22602627397764166
40
0.22602627397764166
40
0.22602627397764166
40
0.22602627397764166
40
0.24348624552434689
40
0.24348624552434689
40
0.24348624552434689
40
0.36015585689169438
40
0.36015585689169438
40
0.36015585689169438
40
0.4773501922250008
40
0.4773501922250008
40
0.4773501922250008
40
0.63078884360627763
40
0.63078884360627763
40
0.63078884360627763
40
0.761579741985978
40
0.761579741985978
40
0.761579741985978
40
0.87854272181407245
40
0.87854272181407245
40
0.87854272181407245
40
0.9041050959105662
40
0.9041050959105662
40
0.9041050959105662
40
0.9041050959105662
10
-381.25000000000028
20
-158.3033230692954
30
0
10
-381.25000000000028
20
-158.3638699054477
30
0
10
-381.253406567664
20
-158.42093174192695
30
9.8607613152626476e-31
10
-381.26052522656255
20
-158.48070691494573
30
9.8607613152626476e-31
10
-381.30809295397444
20
-158.88013174716039
30
-9.8607613152626476e-31
10
-381.52837690571027
20
-159.26310892743106
30
0
10
-381.85228503716104
20
-159.5051468952509
30
9.8607613152626476e-31
10
-382.17764995206505
20
-159.74827343378675
30
0
10
-382.60584300443088
20
-159.85143176637666
30
0
10
-383.00801712268657
20
-159.78117643534702
30
0
10
-383.53457034004231
20
-159.6891934635176
30
0
10
-383.99577599113263
20
-159.29952126226027
30
0
10
-384.17027995229853
20
-158.78582896715474
30
0
10
-384.31902689217475
20
-158.34795835135643
30
0
10
-384.25409819709677
20
-157.85938690046322
30
0
10
-384.00212858241105
20
-157.47734798045855
30
9.8607613152626476e-31
10
-383.77679855314392
20
-157.13570027371728
30
0
10
-383.4121129987393
20
-156.89682687606566
30
0
10
-383.01074250000687
20
-156.82594838812
30
0
10
-382.92302258337196
20
-156.81045782497836
30
-9.8607613152626476e-31
10
-382.83520791365515
20
-156.80310241506891
30
0
10
-382.75000000000023
20
-156.80310241506891
30
-9.8607613152626476e-31
0
SPLINE
5
105
100
AcDbEntity
8
0
100
AcDbSpline
70
0
71
3
72
11
73
7
74
0
42
0.000000001
43
0.0000000001
44
0.0000000001
40
0
40
0
40
0
40
0
40
0.12447071236551535
40
0.12447071236551535
40
0.12447071236551535
40
0.22602627397764147
40
0.22602627397764147
40
0.22602627397764147
40
0.22602627397764147
10
-382.75000000000006
20
-262.57005508592528
30
9.8607613152626476e-31
10
-382.33509762544838
20
-262.57005508592528
30
-9.8607613152626476e-31
10
-381.88688470670309
20
-262.77186952886166
30
-9.8607613152626476e-31
10
-381.61056593836247
20
-263.09466904423698
30
9.8607613152626476e-31
10
-381.38511766085617
20
-263.35804092866704
30
9.8607613152626476e-31
10
-381.25000000000011
20
-263.71810632608151
30
9.8607613152626476e-31
10
-381.25000000000011
20
-264.07027574015171
30
9.8607613152626476e-31
0
SPLINE
5
106
100
AcDbEntity
8
0
100
AcDbSpline
70
0
71
3
72
26
73
22
74
0
42
0.000000001
43
0.0000000001
44
0.0000000001
40
0.22602627397764147
40
0.22602627397764147
40
0.22602627397764147
40
0.22602627397764147
40
0.24348624552511006
40
0.24348624552511006
40
0.24348624552511006
40
0.36015585689283969
40
0.36015585689283969
40
0.36015585689283969
40
0.47735019222765274
40
0.47735019222765274
40
0.47735019222765274
40
0.63078884360730769
40
0.63078884360730769
40
0.63078884360730769
40
0.76157974198660006
40
0.76157974198660006
40
0.76157974198660006
40
0.87854272181631876
40
0.87854272181631876
40
0.87854272181631876
40
0.90410509591056609
40
0.90410509591056609
40
0.90410509591056609
40
0.90410509591056609
10
-381.25000000000011
20
-264.07027574015171
30
9.8607613152626476e-31
10
-381.25000000000011
20
-264.13082257630668
30
9.8607613152626476e-31
10
-381.25340656766411
20
-264.18788441278855
30
9.8607613152626476e-31
10
-381.26052522656329
20
-264.24765958580997
30
-9.8607613152626476e-31
10
-381.30809295397751
20
-264.64708441802611
30
9.8607613152626476e-31
10
-381.52837690571607
20
-265.0300615982959
30
9.8607613152626476e-31
10
-381.85228503717042
20
-265.27209956611438
30
9.8607613152626476e-31
10
-382.1776499520812
20
-265.51522610465122
30
9.8607613152626476e-31
10
-382.60584300445208
20
-265.61838443723684
30
9.8607613152626476e-31
10
-383.00801712271357
20
-265.54812910619859
30
9.8607613152626476e-31
10
-383.53457034006442
20
-265.45614613435998
30
-9.8607613152626476e-31
10
-383.99577599114173
20
-265.0664739331018
30
9.8607613152626476e-31
10
-384.17027995230183
20
-264.55278163800068
30
9.8607613152626476e-31
10
-384.31902689217429
20
-264.11491102220288
30
9.8607613152626476e-31
10
-384.25409819709364
20
-263.62633957131146
30
9.8607613152626476e-31
10
-384.00212858240741
20
-263.24430065130952
30
-9.8607613152626476e-31
10
-383.77679855313596
20
-262.90265294456486
30
-9.8607613152626476e-31
10
-383.41211299872191
20
-262.66377954691251
30
9.8607613152626476e-31
10
-383.01074249998385
20
-262.5929010589723
30
-9.8607613152626476e-31
10
-382.92302258335661
20
-262.57741049583342
30
9.8607613152626476e-31
10
-382.83520791364759
20
-262.57005508592528
30
9.8607613152626476e-31
10
-382.75000000000011
20
-262.57005508592528
30
9.8607613152626476e-31
0
ENDSEC
0
SECTION
2
OBJECTS
0
DICTIONARY
5
C
100
AcDbDictionary
3
ACAD_GROUP
350
D
3
ACAD_MLINESTYLE
350
17
0
DICTIONARY
5
D
100
AcDbDictionary
0
DICTIONARY
5
1A
330
C
100
AcDbDictionary
0
DICTIONARY
5
17
100
AcDbDictionary
0
ENDSEC
0
EOF
