  0
SECTION
  2
HEADER
  9
$ACADVER
  1
AC1014
  9
$ACADMAINTVER
 70
     9
  9
$DWGCODEPAGE
  3
ANSI_1252
  9
$INSBASE
 10
0.0
 20
0.0
 30
0.0
  9
$EXTMIN
 10
1.82312890030272
 20
-268.8164434895917
 30
0.0
  9
$EXTMAX
 10
662.4199885088794
 20
-1.62472764548113
 30
0.0
  9
$LIMMIN
 10
0.0
 20
0.0
  9
$LIMMAX
 10
12.0
 20
9.0
  9
$ORTHOMODE
 70
     0
  9
$REGENMODE
 70
     1
  9
$FILLMODE
 70
     1
  9
$QTEXTMODE
 70
     0
  9
$MIRRTEXT
 70
     1
  9
$DRAGMODE
 70
     2
  9
$LTSCALE
 40
1.0
  9
$OSMODE
 70
    37
  9
$ATTMODE
 70
     1
  9
$TEXTSIZE
 40
0.2
  9
$TRACEWID
 40
0.05
  9
$TEXTSTYLE
  7
STANDARD
  9
$CLAYER
  8
0
  9
$CELTYPE
  6
BYLAYER
  9
$CECOLOR
 62
   256
  9
$CELTSCALE
 40
1.0
  9
$DELOBJ
 70
     1
  9
$DISPSILH
 70
     0
  9
$DIMSCALE
 40
1.0
  9
$DIMASZ
 40
0.18
  9
$DIMEXO
 40
0.0625
  9
$DIMDLI
 40
0.38
  9
$DIMRND
 40
0.0
  9
$DIMDLE
 40
0.0
  9
$DIMEXE
 40
0.18
  9
$DIMTP
 40
0.0
  9
$DIMTM
 40
0.0
  9
$DIMTXT
 40
0.18
  9
$DIMCEN
 40
0.09
  9
$DIMTSZ
 40
0.0
  9
$DIMTOL
 70
     0
  9
$DIMLIM
 70
     0
  9
$DIMTIH
 70
     1
  9
$DIMTOH
 70
     1
  9
$DIMSE1
 70
     0
  9
$DIMSE2
 70
     0
  9
$DIMTAD
 70
     0
  9
$DIMZIN
 70
     0
  9
$DIMBLK
  1

  9
$DIMASO
 70
     1
  9
$DIMSHO
 70
     1
  9
$DIMPOST
  1

  9
$DIMAPOST
  1

  9
$DIMALT
 70
     0
  9
$DIMALTD
 70
     2
  9
$DIMALTF
 40
25.4
  9
$DIMLFAC
 40
1.0
  9
$DIMTOFL
 70
     0
  9
$DIMTVP
 40
0.0
  9
$DIMTIX
 70
     0
  9
$DIMSOXD
 70
     0
  9
$DIMSAH
 70
     0
  9
$DIMBLK1
  1

  9
$DIMBLK2
  1

  9
$DIMSTYLE
  2
STANDARD
  9
$DIMCLRD
 70
     0
  9
$DIMCLRE
 70
     0
  9
$DIMCLRT
 70
     0
  9
$DIMTFAC
 40
1.0
  9
$DIMGAP
 40
0.09
  9
$DIMJUST
 70
     0
  9
$DIMSD1
 70
     0
  9
$DIMSD2
 70
     0
  9
$DIMTOLJ
 70
     1
  9
$DIMTZIN
 70
     0
  9
$DIMALTZ
 70
     0
  9
$DIMALTTZ
 70
     0
  9
$DIMFIT
 70
     3
  9
$DIMUPT
 70
     0
  9
$DIMUNIT
 70
     2
  9
$DIMDEC
 70
     4
  9
$DIMTDEC
 70
     4
  9
$DIMALTU
 70
     2
  9
$DIMALTTD
 70
     2
  9
$DIMTXSTY
  7
STANDARD
  9
$DIMAUNIT
 70
     0
  9
$LUNITS
 70
     2
  9
$LUPREC
 70
     4
  9
$SKETCHINC
 40
0.1
  9
$FILLETRAD
 40
0.0
  9
$AUNITS
 70
     0
  9
$AUPREC
 70
     0
  9
$MENU
  1
.
  9
$ELEVATION
 40
0.0
  9
$PELEVATION
 40
0.0
  9
$THICKNESS
 40
0.0
  9
$LIMCHECK
 70
     0
  9
$CHAMFERA
 40
0.0
  9
$CHAMFERB
 40
0.0
  9
$CHAMFERC
 40
0.0
  9
$CHAMFERD
 40
0.0
  9
$SKPOLY
 70
     0
  9
$TDCREATE
 40
2460363.829926366
  9
$TDUPDATE
 40
2460363.829926609
  9
$TDINDWG
 40
0.0000000116
  9
$TDUSRTIMER
 40
0.0000000116
  9
$USRTIMER
 70
     1
  9
$ANGBASE
 50
0.0
  9
$ANGDIR
 70
     0
  9
$PDMODE
 70
     0
  9
$PDSIZE
 40
0.0
  9
$PLINEWID
 40
0.0
  9
$COORDS
 70
     1
  9
$SPLFRAME
 70
     0
  9
$SPLINETYPE
 70
     6
  9
$SPLINESEGS
 70
     8
  9
$ATTDIA
 70
     0
  9
$ATTREQ
 70
     1
  9
$HANDLING
 70
     1
  9
$HANDSEED
  5
10121
  9
$SURFTAB1
 70
     6
  9
$SURFTAB2
 70
     6
  9
$SURFTYPE
 70
     6
  9
$SURFU
 70
     6
  9
$SURFV
 70
     6
  9
$UCSNAME
  2

  9
$UCSORG
 10
0.0
 20
0.0
 30
0.0
  9
$UCSXDIR
 10
1.0
 20
0.0
 30
0.0
  9
$UCSYDIR
 10
0.0
 20
1.0
 30
0.0
  9
$PUCSNAME
  2

  9
$PUCSORG
 10
0.0
 20
0.0
 30
0.0
  9
$PUCSXDIR
 10
1.0
 20
0.0
 30
0.0
  9
$PUCSYDIR
 10
0.0
 20
1.0
 30
0.0
  9
$USERI1
 70
     0
  9
$USERI2
 70
     0
  9
$USERI3
 70
     0
  9
$USERI4
 70
     0
  9
$USERI5
 70
     0
  9
$USERR1
 40
0.0
  9
$USERR2
 40
0.0
  9
$USERR3
 40
0.0
  9
$USERR4
 40
0.0
  9
$USERR5
 40
0.0
  9
$WORLDVIEW
 70
     1
  9
$SHADEDGE
 70
     3
  9
$SHADEDIF
 70
    70
  9
$TILEMODE
 70
     1
  9
$MAXACTVP
 70
    64
  9
$PINSBASE
 10
0.0
 20
0.0
 30
0.0
  9
$PLIMCHECK
 70
     0
  9
$PEXTMIN
 10
1.000000000000000E+20
 20
1.000000000000000E+20
 30
1.000000000000000E+20
  9
$PEXTMAX
 10
-1.000000000000000E+20
 20
-1.000000000000000E+20
 30
-1.000000000000000E+20
  9
$PLIMMIN
 10
-0.25
 20
-0.25
  9
$PLIMMAX
 10
10.75
 20
8.25
  9
$UNITMODE
 70
     0
  9
$VISRETAIN
 70
     1
  9
$PLINEGEN
 70
     0
  9
$PSLTSCALE
 70
     1
  9
$TREEDEPTH
 70
  3020
  9
$PICKSTYLE
 70
     1
  9
$CMLSTYLE
  2
STANDARD
  9
$CMLJUST
 70
     0
  9
$CMLSCALE
 40
1.0
  9
$PROXYGRAPHICS
 70
     1
  9
$MEASUREMENT
 70
     0
  0
ENDSEC
  0
SECTION
  2
CLASSES
  0
CLASS
  1
ACDBDICTIONARYWDFLT
  2
AcDbDictionaryWithDefault
  3
ObjectDBX Classes
 90
        0
280
     0
281
     0
  0
CLASS
  1
VISUALSTYLE
  2
AcDbVisualStyle
  3
ObjectDBX Classes
 90
     4095
280
     0
281
     0
  0
CLASS
  1
MATERIAL
  2
AcDbMaterial
  3
ObjectDBX Classes
 90
     1153
280
     0
281
     0
  0
CLASS
  1
SCALE
  2
AcDbScale
  3
ObjectDBX Classes
 90
     1153
280
     0
281
     0
  0
CLASS
  1
TABLESTYLE
  2
AcDbTableStyle
  3
ObjectDBX Classes
 90
     4095
280
     0
281
     0
  0
CLASS
  1
MLEADERSTYLE
  2
AcDbMLeaderStyle
  3
ACDB_MLEADERSTYLE_CLASS
 90
     4095
280
     0
281
     0
  0
CLASS
  1
SUN
  2
AcDbSun
  3
SCENEOE
 90
     1153
280
     0
281
     0
  0
CLASS
  1
DICTIONARYVAR
  2
AcDbDictionaryVar
  3
ObjectDBX Classes
 90
        0
280
     0
281
     0
  0
CLASS
  1
XRECORD
  2
AcDbXrecord
  3
ObjectDBX Classes
 90
        0
280
     0
281
     0
  0
CLASS
  1
LWPOLYLINE
  2
AcDbPolyline
  3
ObjectDBX Classes
 90
        0
280
     0
281
     1
  0
CLASS
  1
HATCH
  2
AcDbHatch
  3
ObjectDBX Classes
 90
        0
280
     0
281
     1
  0
CLASS
  1
ACDBPLACEHOLDER
  2
AcDbPlaceHolder
  3
ObjectDBX Classes
 90
        0
280
     0
281
     0
  0
CLASS
  1
LAYOUT
  2
AcDbLayout
  3
ObjectDBX Classes
 90
        0
280
     0
281
     0
  0
ENDSEC
  0
SECTION
  2
TABLES
  0
TABLE
  2
VPORT
  5
10024
102
{ACAD_XDICTIONARY
360
10116
102
}
330
0
100
AcDbSymbolTable
 70
     1
  0
VPORT
  5
10044
330
10024
100
AcDbSymbolTableRecord
100
AcDbViewportTableRecord
  2
*ACTIVE
 70
     0
 10
0.0
 20
0.0
 11
1.0
 21
1.0
 12
4.970474636743347
 22
-193.3759665640436
 13
0.0
 23
0.0
 14
0.5
 24
0.5
 15
0.5
 25
0.5
 16
0.0
 26
0.0
 36
1.0
 17
0.0
 27
0.0
 37
0.0
 40
661.1959588219573
 41
2.85014137606032
 42
50.0
 43
0.0
 44
0.0
 50
0.0
 51
0.0
 71
     0
 72
   100
 73
     1
 74
     3
 75
     0
 76
     0
 77
     0
 78
     0
  0
ENDTAB
  0
TABLE
  2
LTYPE
  5
10021
330
0
100
AcDbSymbolTable
 70
    48
  0
LTYPE
  5
1002F
330
10021
100
AcDbSymbolTableRecord
100
AcDbLinetypeTableRecord
  2
BYBLOCK
 70
     0
  3

 72
    65
 73
     0
 40
0.0
  0
LTYPE
  5
10030
330
10021
100
AcDbSymbolTableRecord
100
AcDbLinetypeTableRecord
  2
BYLAYER
 70
     0
  3

 72
    65
 73
     0
 40
0.0
  0
LTYPE
  5
10031
330
10021
100
AcDbSymbolTableRecord
100
AcDbLinetypeTableRecord
  2
CONTINUOUS
 70
     0
  3
Solid line
 72
    65
 73
     0
 40
0.0
  0
LTYPE
  5
100B3
330
10021
100
AcDbSymbolTableRecord
100
AcDbLinetypeTableRecord
  2
ACAD_ISO06W100
 70
     0
  3
ISO long-dash triple-dot ____ ... ____ ... ____
 72
    65
 73
     8
 40
36.0
 49
24.0
 74
     0
 49
-3.0
 74
     0
 49
0.0
 74
     0
 49
-3.0
 74
     0
 49
0.0
 74
     0
 49
-3.0
 74
     0
 49
0.0
 74
     0
 49
-3.0
 74
     0
  0
LTYPE
  5
100B4
330
10021
100
AcDbSymbolTableRecord
100
AcDbLinetypeTableRecord
  2
ACAD_ISO07W100
 70
     0
  3
ISO dot . . . . . . . . . . . . . . . . . . . . 
 72
    65
 73
     2
 40
3.0
 49
0.0
 74
     0
 49
-3.0
 74
     0
  0
LTYPE
  5
100B5
330
10021
100
AcDbSymbolTableRecord
100
AcDbLinetypeTableRecord
  2
ACAD_ISO08W100
 70
     0
  3
ISO long-dash short-dash ____ __ ____ __ ____ _
 72
    65
 73
     4
 40
36.0
 49
24.0
 74
     0
 49
-3.0
 74
     0
 49
6.0
 74
     0
 49
-3.0
 74
     0
  0
LTYPE
  5
100B6
330
10021
100
AcDbSymbolTableRecord
100
AcDbLinetypeTableRecord
  2
ACAD_ISO09W100
 70
     0
  3
ISO long-dash double-short-dash ____ __ __ ____
 72
    65
 73
     6
 40
45.0
 49
24.0
 74
     0
 49
-3.0
 74
     0
 49
6.0
 74
     0
 49
-3.0
 74
     0
 49
6.0
 74
     0
 49
-3.0
 74
     0
  0
LTYPE
  5
100B7
330
10021
100
AcDbSymbolTableRecord
100
AcDbLinetypeTableRecord
  2
ACAD_ISO02W100
 70
     0
  3
ISO dash __ __ __ __ __ __ __ __ __ __ __ __ __
 72
    65
 73
     2
 40
15.0
 49
12.0
 74
     0
 49
-3.0
 74
     0
  0
LTYPE
  5
100B8
330
10021
100
AcDbSymbolTableRecord
100
AcDbLinetypeTableRecord
  2
ACAD_ISO03W100
 70
     0
  3
ISO dash space __    __    __    __    __    __
 72
    65
 73
     2
 40
30.0
 49
12.0
 74
     0
 49
-18.0
 74
     0
  0
LTYPE
  5
100B9
330
10021
100
AcDbSymbolTableRecord
100
AcDbLinetypeTableRecord
  2
ACAD_ISO04W100
 70
     0
  3
ISO long-dash dot ____ . ____ . ____ . ____ . _
 72
    65
 73
     4
 40
30.0
 49
24.0
 74
     0
 49
-3.0
 74
     0
 49
0.0
 74
     0
 49
-3.0
 74
     0
  0
LTYPE
  5
100BA
330
10021
100
AcDbSymbolTableRecord
100
AcDbLinetypeTableRecord
  2
ACAD_ISO05W100
 70
     0
  3
ISO long-dash double-dot ____ .. ____ .. ____ . 
 72
    65
 73
     6
 40
33.0
 49
24.0
 74
     0
 49
-3.0
 74
     0
 49
0.0
 74
     0
 49
-3.0
 74
     0
 49
0.0
 74
     0
 49
-3.0
 74
     0
  0
LTYPE
  5
100BB
330
10021
100
AcDbSymbolTableRecord
100
AcDbLinetypeTableRecord
  2
PHANTOMX2
 70
     0
  3
Phantom (2x) ____________    ____    ____   _
 72
    65
 73
     6
 40
127.0
 49
63.5
 74
     0
 49
-12.7
 74
     0
 49
12.7
 74
     0
 49
-12.7
 74
     0
 49
12.7
 74
     0
 49
-12.7
 74
     0
  0
LTYPE
  5
100BD
330
10021
100
AcDbSymbolTableRecord
100
AcDbLinetypeTableRecord
  2
TRACKS
 70
     0
  3
Tracks -|-|-|-|-|-|-|-|-|-|-|-|-|-|-|-|-|-|-|-|-|-|-|-|-
 72
    65
 73
     2
 40
7.62
 49
3.81
 74
     2
 75
     0
340
100BC
 46
6.35
 50
0.0
 44
0.0
 45
0.0
  9
TRACK1
 49
3.81
 74
     0
  0
LTYPE
  5
100BE
330
10021
100
AcDbSymbolTableRecord
100
AcDbLinetypeTableRecord
  2
ZIGZAG
 70
     0
  3
Zig zag /\/\/\/\/\/\/\/\/\/\/\/\/\/\/\/\/\/\/\/\/\/\/\/
 72
    65
 73
     4
 40
20.32254
 49
0.00254
 74
     0
 49
-5.08
 74
     2
 75
     0
340
100BC
 46
5.08
 50
0.0
 44
-5.08
 45
0.0
  9
ZIG
 49
-10.16
 74
     2
 75
     0
340
100BC
 46
5.08
 50
180.0
 44
5.08
 45
0.0
  9
ZIG
 49
-5.08
 74
     0
  0
LTYPE
  5
100BF
330
10021
100
AcDbSymbolTableRecord
100
AcDbLinetypeTableRecord
  2
HIDDENX2
 70
     0
  3
Hidden (2x) ____ ____ ____ ____ ____ ____ ____ 
 72
    65
 73
     2
 40
19.05
 49
12.7
 74
     0
 49
-6.35
 74
     0
  0
LTYPE
  5
100C1
330
10021
100
AcDbSymbolTableRecord
100
AcDbLinetypeTableRecord
  2
HOT_WATER_SUPPLY
 70
     0
  3
Hot water supply ---- HW ---- HW ---- HW ----
 72
    65
 73
     3
 40
22.86
 49
12.7
 74
     0
 49
-5.08
 74
     2
 75
     0
340
100C0
 46
2.54
 50
0.0
 44
-2.54
 45
-1.27
  9
HW
 49
-5.08
 74
     0
  0
LTYPE
  5
100C2
330
10021
100
AcDbSymbolTableRecord
100
AcDbLinetypeTableRecord
  2
PHANTOM
 70
     0
  3
Phantom ______  __  __  ______  __  __  ______ 
 72
    65
 73
     6
 40
63.50000000000001
 49
31.75
 74
     0
 49
-6.35
 74
     0
 49
6.35
 74
     0
 49
-6.35
 74
     0
 49
6.35
 74
     0
 49
-6.35
 74
     0
  0
LTYPE
  5
100C3
330
10021
100
AcDbSymbolTableRecord
100
AcDbLinetypeTableRecord
  2
PHANTOM2
 70
     0
  3
Phantom (.5x) ___ _ _ ___ _ _ ___ _ _ ___ _ _
 72
    65
 73
     6
 40
31.75
 49
15.875
 74
     0
 49
-3.175
 74
     0
 49
3.175
 74
     0
 49
-3.175
 74
     0
 49
3.175
 74
     0
 49
-3.175
 74
     0
  0
LTYPE
  5
100C4
330
10021
100
AcDbSymbolTableRecord
100
AcDbLinetypeTableRecord
  2
DIVIDE2
 70
     0
  3
Divide (.5x) __..__..__..__..__..__..__..__.._
 72
    65
 73
     6
 40
15.875
 49
6.35
 74
     0
 49
-3.175
 74
     0
 49
0.0
 74
     0
 49
-3.175
 74
     0
 49
0.0
 74
     0
 49
-3.175
 74
     0
  0
LTYPE
  5
100C5
330
10021
100
AcDbSymbolTableRecord
100
AcDbLinetypeTableRecord
  2
DIVIDEX2
 70
     0
  3
Divide (2x) ________  .  .  ________  .  .  _
 72
    65
 73
     6
 40
63.5
 49
25.4
 74
     0
 49
-12.7
 74
     0
 49
0.0
 74
     0
 49
-12.7
 74
     0
 49
0.0
 74
     0
 49
-12.7
 74
     0
  0
LTYPE
  5
100C6
330
10021
100
AcDbSymbolTableRecord
100
AcDbLinetypeTableRecord
  2
DOT
 70
     0
  3
Dot . . . . . . . . . . . . . . . . . . . . . . . .
 72
    65
 73
     2
 40
6.35
 49
0.0
 74
     0
 49
-6.35
 74
     0
  0
LTYPE
  5
100C7
330
10021
100
AcDbSymbolTableRecord
100
AcDbLinetypeTableRecord
  2
DOT2
 70
     0
  3
Dot (.5x) ........................................
 72
    65
 73
     2
 40
3.175
 49
0.0
 74
     0
 49
-3.175
 74
     0
  0
LTYPE
  5
100C8
330
10021
100
AcDbSymbolTableRecord
100
AcDbLinetypeTableRecord
  2
DASHED
 70
     0
  3
Dashed __ __ __ __ __ __ __ __ __ __ __ __ __ _
 72
    65
 73
     2
 40
19.05
 49
12.7
 74
     0
 49
-6.35
 74
     0
  0
LTYPE
  5
100C9
330
10021
100
AcDbSymbolTableRecord
100
AcDbLinetypeTableRecord
  2
DASHED2
 70
     0
  3
Dashed (.5x) _ _ _ _ _ _ _ _ _ _ _ _ _ _ _ _ _ 
 72
    65
 73
     2
 40
9.524999999999999
 49
6.35
 74
     0
 49
-3.175
 74
     0
  0
LTYPE
  5
100CA
330
10021
100
AcDbSymbolTableRecord
100
AcDbLinetypeTableRecord
  2
DASHEDX2
 70
     0
  3
Dashed (2x) ____  ____  ____  ____  ____  ___
 72
    65
 73
     2
 40
38.09999999999999
 49
25.4
 74
     0
 49
-12.7
 74
     0
  0
LTYPE
  5
100CB
330
10021
100
AcDbSymbolTableRecord
100
AcDbLinetypeTableRecord
  2
DIVIDE
 70
     0
  3
Divide ____ . . ____ . . ____ . . ____ . . ____
 72
    65
 73
     6
 40
31.75
 49
12.7
 74
     0
 49
-6.35
 74
     0
 49
0.0
 74
     0
 49
-6.35
 74
     0
 49
0.0
 74
     0
 49
-6.35
 74
     0
  0
LTYPE
  5
100CC
330
10021
100
AcDbSymbolTableRecord
100
AcDbLinetypeTableRecord
  2
FENCELINE2
 70
     0
  3
Fenceline square ----[]-----[]----[]-----[]----[]---
 72
    65
 73
     4
 40
36.83
 49
6.35
 74
     0
 49
-2.54
 74
     2
 75
     0
340
100BC
 46
2.54
 50
0.0
 44
-2.54
 45
0.0
  9
BOX
 49
-2.54
 74
     0
 49
25.4
 74
     0
  0
LTYPE
  5
100CD
330
10021
100
AcDbSymbolTableRecord
100
AcDbLinetypeTableRecord
  2
GAS_LINE
 70
     0
  3
Gas line ----GAS----GAS----GAS----GAS----GAS----GAS--
 72
    65
 73
     3
 40
24.13
 49
12.7
 74
     0
 49
-5.08
 74
     2
 75
     0
340
100C0
 46
2.54
 50
0.0
 44
-2.54
 45
-1.27
  9
GAS
 49
-6.35
 74
     0
  0
LTYPE
  5
100CE
330
10021
100
AcDbSymbolTableRecord
100
AcDbLinetypeTableRecord
  2
HIDDEN
 70
     0
  3
Hidden __ __ __ __ __ __ __ __ __ __ __ __ __ __
 72
    65
 73
     2
 40
9.524999999999999
 49
6.35
 74
     0
 49
-3.175
 74
     0
  0
LTYPE
  5
100CF
330
10021
100
AcDbSymbolTableRecord
100
AcDbLinetypeTableRecord
  2
HIDDEN2
 70
     0
  3
Hidden (.5x) _ _ _ _ _ _ _ _ _ _ _ _ _ _ _ _ _ 
 72
    65
 73
     2
 40
4.762499999999999
 49
3.175
 74
     0
 49
-1.5875
 74
     0
  0
LTYPE
  5
100D0
330
10021
100
AcDbSymbolTableRecord
100
AcDbLinetypeTableRecord
  2
DOTX2
 70
     0
  3
Dot (2x) .  .  .  .  .  .  .  .  .  .  .  .  .  .
 72
    65
 73
     2
 40
12.7
 49
0.0
 74
     0
 49
-12.7
 74
     0
  0
LTYPE
  5
100D2
330
10021
100
AcDbSymbolTableRecord
100
AcDbLinetypeTableRecord
  2
DRAINAGE
 70
     0
  3
Drainage ---->---->---->----
 72
    65
 73
     2
 40
10.16
 49
5.08
 74
     2
 75
     0
340
100D1
 46
2.54
 50
180.0
 44
0.0
 45
0.0
  9
RIGHT_ARROW
 49
5.08
 74
     0
  0
LTYPE
  5
100D3
330
10021
100
AcDbSymbolTableRecord
100
AcDbLinetypeTableRecord
  2
DRAINAGE2
 70
     0
  3
Drainage reversed----<----<----<----
 72
    65
 73
     2
 40
10.16
 49
5.08
 74
     2
 75
     0
340
100D1
 46
2.54
 50
0.0
 44
0.0
 45
0.0
  9
RIGHT_ARROW
 49
5.08
 74
     0
  0
LTYPE
  5
100D4
330
10021
100
AcDbSymbolTableRecord
100
AcDbLinetypeTableRecord
  2
FENCELINE1
 70
     0
  3
Fenceline circle ----0-----0----0-----0----0-----0--
 72
    65
 73
     4
 40
36.83
 49
6.35
 74
     0
 49
-2.54
 74
     2
 75
     0
340
100BC
 46
2.54
 50
0.0
 44
-2.54
 45
0.0
  9
CIRC1
 49
-2.54
 74
     0
 49
25.4
 74
     0
  0
LTYPE
  5
100D5
330
10021
100
AcDbSymbolTableRecord
100
AcDbLinetypeTableRecord
  2
ACAD_ISO14W100
 70
     0
  3
ISO dash triple-dot __ . . . __ . . . __ . . . _
 72
    65
 73
     8
 40
24.0
 49
12.0
 74
     0
 49
-3.0
 74
     0
 49
0.0
 74
     0
 49
-3.0
 74
     0
 49
0.0
 74
     0
 49
-3.0
 74
     0
 49
0.0
 74
     0
 49
-3.0
 74
     0
  0
LTYPE
  5
100D6
330
10021
100
AcDbSymbolTableRecord
100
AcDbLinetypeTableRecord
  2
ACAD_ISO15W100
 70
     0
  3
ISO double-dash triple-dot __ __ . . . __ __ . .
 72
    65
 73
    10
 40
39.0
 49
12.0
 74
     0
 49
-3.0
 74
     0
 49
12.0
 74
     0
 49
-3.0
 74
     0
 49
0.0
 74
     0
 49
-3.0
 74
     0
 49
0.0
 74
     0
 49
-3.0
 74
     0
 49
0.0
 74
     0
 49
-3.0
 74
     0
  0
LTYPE
  5
100D7
330
10021
100
AcDbSymbolTableRecord
100
AcDbLinetypeTableRecord
  2
BATTING
 70
     0
  3
Batting SSSSSSSSSSSSSSSSSSSSSSSSSSSSSSSSSSSSSSSSSSSSSSS
 72
    65
 73
     4
 40
10.16254
 49
0.00254
 74
     0
 49
-2.54
 74
     2
 75
     0
340
100BC
 46
2.54
 50
0.0
 44
-2.54
 45
0.0
  9
BAT
 49
-5.08
 74
     2
 75
     0
340
100BC
 46
2.54
 50
180.0
 44
2.54
 45
0.0
  9
BAT
 49
-2.54
 74
     0
  0
LTYPE
  5
100D8
330
10021
100
AcDbSymbolTableRecord
100
AcDbLinetypeTableRecord
  2
BORDER
 70
     0
  3
Border __ __ . __ __ . __ __ . __ __ . __ __ .
 72
    65
 73
     6
 40
44.45
 49
12.7
 74
     0
 49
-6.35
 74
     0
 49
12.7
 74
     0
 49
-6.35
 74
     0
 49
0.0
 74
     0
 49
-6.35
 74
     0
  0
LTYPE
  5
100D9
330
10021
100
AcDbSymbolTableRecord
100
AcDbLinetypeTableRecord
  2
ACAD_ISO10W100
 70
     0
  3
ISO dash dot __ . __ . __ . __ . __ . __ . __ . 
 72
    65
 73
     4
 40
18.0
 49
12.0
 74
     0
 49
-3.0
 74
     0
 49
0.0
 74
     0
 49
-3.0
 74
     0
  0
LTYPE
  5
100DA
330
10021
100
AcDbSymbolTableRecord
100
AcDbLinetypeTableRecord
  2
ACAD_ISO11W100
 70
     0
  3
ISO double-dash dot __ __ . __ __ . __ __ . __ _
 72
    65
 73
     6
 40
33.0
 49
12.0
 74
     0
 49
-3.0
 74
     0
 49
12.0
 74
     0
 49
-3.0
 74
     0
 49
0.0
 74
     0
 49
-3.0
 74
     0
  0
LTYPE
  5
100DB
330
10021
100
AcDbSymbolTableRecord
100
AcDbLinetypeTableRecord
  2
ACAD_ISO12W100
 70
     0
  3
ISO dash double-dot __ . . __ . . __ . . __ . . 
 72
    65
 73
     6
 40
21.0
 49
12.0
 74
     0
 49
-3.0
 74
     0
 49
0.0
 74
     0
 49
-3.0
 74
     0
 49
0.0
 74
     0
 49
-3.0
 74
     0
  0
LTYPE
  5
100DC
330
10021
100
AcDbSymbolTableRecord
100
AcDbLinetypeTableRecord
  2
ACAD_ISO13W100
 70
     0
  3
ISO double-dash double-dot __ __ . . __ __ . . _
 72
    65
 73
     8
 40
36.0
 49
12.0
 74
     0
 49
-3.0
 74
     0
 49
12.0
 74
     0
 49
-3.0
 74
     0
 49
0.0
 74
     0
 49
-3.0
 74
     0
 49
0.0
 74
     0
 49
-3.0
 74
     0
  0
LTYPE
  5
100DD
330
10021
100
AcDbSymbolTableRecord
100
AcDbLinetypeTableRecord
  2
CENTERX2
 70
     0
  3
Center (2x) ________  __  ________  __  _____
 72
    65
 73
     4
 40
101.6
 49
63.5
 74
     0
 49
-12.7
 74
     0
 49
12.7
 74
     0
 49
-12.7
 74
     0
  0
LTYPE
  5
100DE
330
10021
100
AcDbSymbolTableRecord
100
AcDbLinetypeTableRecord
  2
DASHDOT
 70
     0
  3
Dash dot __ . __ . __ . __ . __ . __ . __ . __
 72
    65
 73
     4
 40
25.4
 49
12.7
 74
     0
 49
-6.35
 74
     0
 49
0.0
 74
     0
 49
-6.35
 74
     0
  0
LTYPE
  5
100DF
330
10021
100
AcDbSymbolTableRecord
100
AcDbLinetypeTableRecord
  2
DASHDOT2
 70
     0
  3
Dash dot (.5x) _._._._._._._._._._._._._._._.
 72
    65
 73
     4
 40
12.7
 49
6.35
 74
     0
 49
-3.175
 74
     0
 49
0.0
 74
     0
 49
-3.175
 74
     0
  0
LTYPE
  5
100E0
330
10021
100
AcDbSymbolTableRecord
100
AcDbLinetypeTableRecord
  2
DASHDOTX2
 70
     0
  3
Dash dot (2x) ____  .  ____  .  ____  .  ___
 72
    65
 73
     4
 40
50.8
 49
25.4
 74
     0
 49
-12.7
 74
     0
 49
0.0
 74
     0
 49
-12.7
 74
     0
  0
LTYPE
  5
100E1
330
10021
100
AcDbSymbolTableRecord
100
AcDbLinetypeTableRecord
  2
BORDER2
 70
     0
  3
Border (.5x) __.__.__.__.__.__.__.__.__.__.__.
 72
    65
 73
     6
 40
22.225
 49
6.35
 74
     0
 49
-3.175
 74
     0
 49
6.35
 74
     0
 49
-3.175
 74
     0
 49
0.0
 74
     0
 49
-3.175
 74
     0
  0
LTYPE
  5
100E2
330
10021
100
AcDbSymbolTableRecord
100
AcDbLinetypeTableRecord
  2
BORDERX2
 70
     0
  3
Border (2x) ____  ____  .  ____  ____  .  ___
 72
    65
 73
     6
 40
88.89999999999999
 49
25.4
 74
     0
 49
-12.7
 74
     0
 49
25.4
 74
     0
 49
-12.7
 74
     0
 49
0.0
 74
     0
 49
-12.7
 74
     0
  0
LTYPE
  5
100E3
330
10021
100
AcDbSymbolTableRecord
100
AcDbLinetypeTableRecord
  2
CENTER
 70
     0
  3
Center ____ _ ____ _ ____ _ ____ _ ____ _ ____
 72
    65
 73
     4
 40
50.8
 49
31.75
 74
     0
 49
-6.35
 74
     0
 49
6.35
 74
     0
 49
-6.35
 74
     0
  0
LTYPE
  5
100E4
330
10021
100
AcDbSymbolTableRecord
100
AcDbLinetypeTableRecord
  2
CENTER2
 70
     0
  3
Center (.5x) ___ _ ___ _ ___ _ ___ _ ___ _ ___
 72
    65
 73
     4
 40
28.575
 49
19.05
 74
     0
 49
-3.175
 74
     0
 49
3.175
 74
     0
 49
-3.175
 74
     0
  0
ENDTAB
  0
TABLE
  2
LAYER
  5
1001F
330
0
100
AcDbSymbolTable
 70
     7
  0
LAYER
  5
1002C
330
1001F
100
AcDbSymbolTableRecord
100
AcDbLayerTableRecord
  2
0
 70
     0
 62
     7
  6
CONTINUOUS
  0
LAYER
  5
100E5
330
1001F
100
AcDbSymbolTableRecord
100
AcDbLayerTableRecord
  2
BOARDS
 70
     0
 62
     7
  6
CONTINUOUS
  0
LAYER
  5
100E6
330
1001F
100
AcDbSymbolTableRecord
100
AcDbLayerTableRecord
  2
HOLES_DIAM_2_5_D_5_0
 70
     0
 62
     5
  6
CONTINUOUS
  0
LAYER
  5
100E7
330
1001F
100
AcDbSymbolTableRecord
100
AcDbLayerTableRecord
  2
HOLES_DIAM_5_0_D_5_0
 70
     0
 62
     5
  6
CONTINUOUS
  0
LAYER
  5
100E8
330
1001F
100
AcDbSymbolTableRecord
100
AcDbLayerTableRecord
  2
HOLES_DIAM_38_0_D_5_0
 70
     0
 62
     5
  6
CONTINUOUS
  0
LAYER
  5
100E9
330
1001F
100
AcDbSymbolTableRecord
100
AcDbLayerTableRecord
  2
INSETS_D_1_0
 70
     0
 62
     3
  6
CONTINUOUS
  0
LAYER
  5
100EA
330
1001F
100
AcDbSymbolTableRecord
100
AcDbLayerTableRecord
  2
PERIMETER_D_5_0
 70
     0
 62
     5
  6
CONTINUOUS
  0
ENDTAB
  0
TABLE
  2
STYLE
  5
10020
330
0
100
AcDbSymbolTable
 70
     5
  0
STYLE
  5
1002D
330
10020
100
AcDbSymbolTableRecord
100
AcDbTextStyleTableRecord
  2
STANDARD
 70
     0
 40
0.0
 41
1.0
 50
0.0
 71
     0
 42
0.2
  3
txt
  4

  0
STYLE
  5
100B1
330
10020
100
AcDbSymbolTableRecord
100
AcDbTextStyleTableRecord
  2
QCADDIMTEXTSTYLE
 70
     0
 40
0.0
 41
1.0
 50
0.0
 71
     0
 42
0.2
  3

  4

  0
STYLE
  5
100BC
330
10020
100
AcDbSymbolTableRecord
100
AcDbTextStyleTableRecord
  2
TEXTSTYLE0
 70
     0
 40
0.0
 41
1.0
 50
0.0
 71
     0
 42
0.2
  3
ltypeshp.shx
  4

  0
STYLE
  5
100C0
330
10020
100
AcDbSymbolTableRecord
100
AcDbTextStyleTableRecord
  2
TEXTSTYLE1
 70
     0
 40
0.0
 41
1.0
 50
0.0
 71
     0
 42
0.2
  3
STANDARD
  4

  0
STYLE
  5
100D1
330
10020
100
AcDbSymbolTableRecord
100
AcDbTextStyleTableRecord
  2
TEXTSTYLE2
 70
     0
 40
0.0
 41
1.0
 50
0.0
 71
     0
 42
0.2
  3
qcadshp.shx
  4

  0
ENDTAB
  0
TABLE
  2
VIEW
  5
10022
330
0
100
AcDbSymbolTable
 70
     0
  0
ENDTAB
  0
TABLE
  2
UCS
  5
10023
330
0
100
AcDbSymbolTable
 70
     0
  0
ENDTAB
  0
TABLE
  2
APPID
  5
10025
330
0
100
AcDbSymbolTable
 70
     3
  0
APPID
  5
1002E
330
10025
100
AcDbSymbolTableRecord
100
AcDbRegAppTableRecord
  2
ACAD
 70
     0
  0
APPID
  5
10079
330
10025
100
AcDbSymbolTableRecord
100
AcDbRegAppTableRecord
  2
QCAD
 70
     0
  0
APPID
  5
10120
330
10025
100
AcDbSymbolTableRecord
100
AcDbRegAppTableRecord
  2
ACAD_MLEADERVER
 70
     0
  0
ENDTAB
  0
TABLE
  2
DIMSTYLE
  5
10026
330
0
100
AcDbSymbolTable
 70
     2
  0
DIMSTYLE
105
10042
330
10026
100
AcDbSymbolTableRecord
100
AcDbDimStyleTableRecord
  2
STANDARD
 70
     0
  3

  4

  5

  6

  7

 40
1.0
 41
0.18
 42
0.0625
 43
0.38
 44
0.18
 45
0.0
 46
0.0
 47
0.0
 48
0.0
140
0.18
141
0.09
142
0.0
143
25.4
144
1.0
145
0.0
146
1.0
147
0.09
 71
     0
 72
     0
 73
     1
 74
     1
 75
     0
 76
     0
 77
     0
 78
     0
170
     0
171
     2
172
     0
173
     0
174
     0
175
     0
176
     0
177
     0
178
     0
270
     2
271
     4
272
     4
273
     2
274
     2
340
1002D
275
     0
280
     0
281
     0
282
     0
283
     1
284
     0
285
     0
286
     0
287
     3
288
     0
  0
DIMSTYLE
105
100B2
330
10026
100
AcDbSymbolTableRecord
100
AcDbDimStyleTableRecord
  2
QCADDIMSTYLE
 70
     0
  3

  4

  5

  6

  7

 40
1.0
 41
0.18
 42
0.0625
 43
0.38
 44
0.18
 45
0.0
 46
0.0
 47
0.0
 48
0.0
140
0.18
141
0.09
142
0.0
143
25.4
144
1.0
145
0.0
146
1.0
147
0.09
 71
     0
 72
     0
 73
     1
 74
     1
 75
     0
 76
     0
 77
     0
 78
     0
170
     0
171
     2
172
     0
173
     0
174
     0
175
     0
176
     0
177
     0
178
     0
270
     2
271
     4
272
     4
273
     2
274
     2
340
100B1
275
     0
280
     0
281
     0
282
     0
283
     1
284
     0
285
     0
286
     0
287
     5
288
     0
  0
ENDTAB
  0
TABLE
  2
BLOCK_RECORD
  5
1001E
330
0
100
AcDbSymbolTable
 70
     0
  0
BLOCK_RECORD
  5
1003A
330
1001E
100
AcDbSymbolTableRecord
100
AcDbBlockTableRecord
  2
*MODEL_SPACE
  0
BLOCK_RECORD
  5
10036
330
1001E
100
AcDbSymbolTableRecord
100
AcDbBlockTableRecord
  2
*PAPER_SPACE
  0
ENDTAB
  0
ENDSEC
  0
SECTION
  2
BLOCKS
  0
BLOCK
  5
1003B
330
1003A
100
AcDbEntity
  8
0
100
AcDbBlockBegin
  2
*MODEL_SPACE
 70
     0
 10
0.0
 20
0.0
 30
0.0
  3
*MODEL_SPACE
  1

  0
ENDBLK
  5
1003C
330
1003A
100
AcDbEntity
  8
0
100
AcDbBlockEnd
  0
BLOCK
  5
10037
330
10036
100
AcDbEntity
 67
     1
  8
0
100
AcDbBlockBegin
  2
*PAPER_SPACE
 70
     0
 10
0.0
 20
0.0
 30
0.0
  3
*PAPER_SPACE
  1

  0
ENDBLK
  5
10038
330
10036
100
AcDbEntity
 67
     1
  8
0
100
AcDbBlockEnd
  0
ENDSEC
  0
SECTION
  2
ENTITIES
  0
LWPOLYLINE
  5
103
330
1003A
100
AcDbEntity
  8
PERIMETER_D_5_0
100
AcDbPolyline
 90
       24
 70
     1
 43
0.0
 10
56.94272435072509
 20
-215.5
 10
1.82312890030272
 20
-215.5
 10
220.7631156232054
 20
-97.15406123086336
 42
-0.1195513137249883
 10
227.6202744895277
 20
-95.34767750667709
 10
271.1112558091432
 20
-94.49491316707679
 42
-0.1269828456257814
 10
278.4263939156586
 20
-96.23093383350988
 10
304.7396012796943
 20
-110.1184599423066
 42
-0.2241783578663573
 10
312.4508419213321
 20
-120.3870880641568
 10
332.0329120257703
 20
-215.5
 10
312.023724350724
 20
-215.5000000000009
 10
312.023724350724
 20
-231.0
 10
307.023724350724
 20
-231.0
 10
307.0237243507241
 20
-244.9762756492762
 10
305.0
 20
-247.0
 10
188.966448701449
 20
-247.0
 10
186.9427243507251
 20
-244.9762756492762
 10
186.9427243507251
 20
-230.9999999999993
 10
182.0237243507251
 20
-230.9999999999993
 10
182.0237243507251
 20
-244.9762756492762
 10
180.0000000000013
 20
-247.0
 10
63.96644870145008
 20
-247.0
 10
61.942724350726
 20
-244.9762756492762
 10
61.94272435072503
 20
-230.9999999999993
 10
56.94272435072509
 20
-230.9999999999993
  0
LWPOLYLINE
  5
104
330
1003A
100
AcDbEntity
  8
PERIMETER_D_5_0
100
AcDbPolyline
 90
       22
 70
     1
 43
0.0
 10
420.0011590657871
 20
-33.6294012529618
 10
422.460659065787
 20
-37.88938021417746
 10
433.211454535387
 20
-31.6824055558013
 10
435.8527596024708
 20
-32.49125764414575
 42
-0.5184709153201575
 10
395.3655848944308
 20
-102.6171012933889
 10
393.3444459044784
 20
-100.7340900503219
 10
393.3444459044784
 20
-88.32014073356962
 10
388.4254459044785
 20
-88.32014073356962
 10
388.4254459044785
 20
-100.7340900503219
 10
386.4043069145259
 20
-102.617101293389
 42
-0.5184709153201555
 10
345.917132206486
 20
-32.49125764414569
 10
348.5584372735699
 20
-31.68240555580135
 10
359.3092327431698
 20
-37.88938021417746
 10
361.7687327431697
 20
-33.6294012529618
 10
351.0179372735699
 20
-27.42242659458574
 10
350.3977711964383
 20
-24.73056326317433
 42
-0.2200758357795231
 10
386.4254459044785
 20
-3.940264977486123
 10
386.4254459044785
 20
-8.944110558104711
 10
395.3444459044784
 20
-8.944110558104711
 10
395.3444459044784
 20
-3.940264977486237
 42
-0.2200758357795232
 10
431.3721206125185
 20
-24.73056326317428
 10
430.751954535387
 20
-27.42242659458569
  0
LWPOLYLINE
  5
105
330
1003A
100
AcDbEntity
  8
PERIMETER_D_5_0
100
AcDbPolyline
 90
       22
 70
     1
 43
0.0
 10
497.7996973973168
 20
-89.3969989963824
 10
492.8806973973168
 20
-89.3969989963824
 10
492.8806973973168
 20
-101.8109483131346
 10
490.8595584073643
 20
-103.6939595562017
 42
-0.5184709153201555
 10
450.3723836993244
 20
-33.56811590695847
 10
453.0136887664082
 20
-32.75926381861413
 10
463.7644842360081
 20
-38.9662384769903
 10
466.2239842360082
 20
-34.70625951577463
 10
455.4731887664083
 20
-28.49928485739852
 10
454.8530226892766
 20
-25.80742152598705
 42
-0.2200758357795226
 10
490.8806973973168
 20
-5.017123240298957
 10
490.8806973973168
 20
-10.02096882091749
 10
499.7996973973168
 20
-10.02096882091749
 10
499.7996973973168
 20
-5.017123240299071
 42
-0.2200758357795232
 10
535.8273721053569
 20
-25.80742152598705
 10
535.2072060282252
 20
-28.49928485739852
 10
524.4564105586254
 20
-34.70625951577458
 10
526.9159105586253
 20
-38.9662384769903
 10
537.6667060282252
 20
-32.75926381861413
 10
540.3080110953091
 20
-33.56811590695852
 42
-0.5184709153201572
 10
499.8208363872691
 20
-103.6939595562016
 10
497.7996973973168
 20
-101.8109483131346
  0
LWPOLYLINE
  5
106
330
1003A
100
AcDbEntity
  8
PERIMETER_D_5_0
100
AcDbPolyline
 90
       22
 70
     1
 43
0.0
 10
581.733836967634
 20
-165.4999999999998
 10
581.733836967634
 20
-177.9139493167521
 10
579.7126979776817
 20
-179.796960559819
 42
-0.5184709153201578
 10
539.2255232696416
 20
-109.6711169105759
 10
541.8668283367253
 20
-108.8622648222316
 10
552.6176238063254
 20
-115.0692394806077
 10
555.0771238063253
 20
-110.809260519392
 10
544.3263283367254
 20
-104.602285861016
 10
543.7061622595937
 20
-101.9104225296045
 42
-0.2200758357795239
 10
579.7338369676339
 20
-81.12012424391634
 10
579.733836967634
 20
-86.12396982453492
 10
588.6528369676339
 20
-86.12396982453492
 10
588.6528369676339
 20
-81.12012424391634
 42
-0.2200758357795237
 10
624.6805116756741
 20
-101.9104225296045
 10
624.0603455985424
 20
-104.602285861016
 10
613.3095501289426
 20
-110.809260519392
 10
615.7690501289426
 20
-115.0692394806077
 10
626.5198455985425
 20
-108.8622648222316
 10
629.1611506656265
 20
-109.6711169105759
 42
-0.5184709153201557
 10
588.6739759575862
 20
-179.7969605598192
 10
586.6528369676339
 20
-177.9139493167521
 10
586.6528369676339
 20
-165.4999999999998
  0
LWPOLYLINE
  5
107
330
1003A
100
AcDbEntity
  8
PERIMETER_D_5_0
100
AcDbPolyline
 90
       25
 70
     1
 43
0.0
 10
294.5312837381666
 20
-255.5897190182624
 10
294.5312837381666
 20
-256.0897189732265
 10
299.5312837381745
 20
-256.0897189732265
 10
299.5312837373048
 20
-260.6302189770651
 10
299.5312837399139
 20
-265.1707189808648
 10
294.5312837397508
 20
-265.170718983738
 10
294.531283738027
 20
-265.6707189358367
 10
174.4502837402372
 20
-265.6707190517926
 10
174.4502837383218
 20
-265.1707191073367
 10
169.5312837381666
 20
-265.1707191073367
 10
169.5312837381666
 20
-265.6707191005963
 10
49.45028374013634
 20
-265.6707191005964
 10
49.45028373946587
 20
-265.1707189808881
 10
44.53128373966655
 20
-265.1707189808881
 10
44.53128373985811
 20
-265.6707191005964
 10
11.9907837381666
 20
-265.670718949279
 42
-0.9999999999999999
 10
11.99078373816664
 20
-255.5897189464162
 10
44.53128373792718
 20
-255.5897189464162
 10
44.53128373792718
 20
-256.0897189732265
 10
49.45028373772649
 20
-256.0897189732265
 10
49.45028373820544
 20
-255.5897189463765
 10
169.5312837362667
 20
-255.5897189454183
 10
169.5312837360752
 20
-256.0897189456439
 10
174.4502837381667
 20
-256.0897189730014
 10
174.4502837381667
 20
-255.5897189483078
  0
LWPOLYLINE
  5
108
330
1003A
100
AcDbEntity
  8
PERIMETER_D_5_0
100
AcDbPolyline
 90
       24
 70
     1
 43
0.0
 10
21.78125506151929
 20
-128.2376395813244
 10
2.199184957080703
 20
-33.12472764548124
 10
22.20837263212734
 20
-33.12472764548045
 10
22.20837263212741
 20
-17.62472764548113
 10
27.20837263212739
 20
-17.62472764548113
 10
27.20837263212738
 20
-3.648451996205154
 10
29.23209698285136
 20
-1.624727645481244
 10
145.2656482814023
 20
-1.624727645481244
 10
147.2893726321263
 20
-3.648451996205154
 10
147.2893726321261
 20
-17.62472764548204
 10
152.2083726321262
 20
-17.62472764548204
 10
152.2083726321262
 20
-3.648451996205154
 10
154.2320969828502
 20
-1.62472764548113
 10
270.2656482814013
 20
-1.624727645481244
 10
272.2893726321255
 20
-3.648451996205154
 10
272.2893726321263
 20
-17.62472764548193
 10
277.2893726321263
 20
-17.62472764548193
 10
277.2893726321263
 20
-33.12472764548124
 10
332.4089680825492
 20
-33.12472764548113
 10
113.4689813596459
 20
-151.4706664146181
 42
-0.1195513137249874
 10
106.611822493323
 20
-153.2770501388047
 10
63.12084117370824
 20
-154.1298144784046
 42
-0.126982845625786
 10
55.80570306719284
 20
-152.3937938119714
 10
29.49249570315698
 20
-138.5062677031747
 42
-0.2241783578663565
  0
LWPOLYLINE
  5
109
330
1003A
100
AcDbEntity
  8
PERIMETER_D_5_0
100
AcDbPolyline
 90
       24
 70
     1
 43
0.0
 10
600.2766687077282
 20
-268.8164434895917
 10
602.3003930585285
 20
-266.7927191388677
 10
602.300393058468
 20
-252.816443489591
 10
607.3003930584567
 20
-252.816443489591
 10
607.300393058456
 20
-237.3164434895917
 10
662.4199885088794
 20
-237.3164434895917
 10
443.4800017859761
 20
-118.9705047204546
 42
0.1195513137249822
 10
436.6228429196537
 20
-117.1641209962687
 10
393.1318616000383
 20
-116.3113566566681
 42
0.1269828456257743
 10
385.8167234935229
 20
-118.0473773231011
 10
359.5035161294873
 20
-131.9349034318978
 42
0.2241783578663706
 10
351.7922754878491
 20
-142.2035315537483
 10
332.2102053834112
 20
-237.3164434895912
 10
352.2193930584573
 20
-237.3164434895924
 10
352.2193930584573
 20
-252.8164434895917
 10
357.2193930584572
 20
-252.8164434895914
 10
357.2193930584574
 20
-266.7927191388677
 10
359.2431174091814
 20
-268.8164434895914
 10
475.2766687077326
 20
-268.8164434895917
 10
477.3003930584563
 20
-266.7927191388677
 10
477.3003930584563
 20
-252.8164434895908
 10
482.2193930584563
 20
-252.8164434895908
 10
482.2193930584563
 20
-266.7927191388677
 10
484.2431174091801
 20
-268.8164434895917
  0
LINE
  5
10A
330
1003A
100
AcDbEntity
  8
INSETS_D_1_0
100
AcDbLine
 10
297.3455853696189
 20
-128.8584338594503
 30
0.0
 11
297.7047293751821
 21
-130.6028476007568
 31
0.0
  0
LINE
  5
10B
330
1003A
100
AcDbEntity
  8
INSETS_D_1_0
100
AcDbLine
 10
297.7047293751821
 20
-130.6028476007568
 30
0.0
 11
302.3299430608267
 21
-129.6505977243006
 31
0.0
  0
LINE
  5
10C
330
1003A
100
AcDbEntity
  8
INSETS_D_1_0
100
AcDbLine
 10
302.3299430608267
 20
-129.6505977243006
 30
0.0
 11
302.9476957769457
 21
-132.6511109168777
 31
0.0
  0
LINE
  5
10D
330
1003A
100
AcDbEntity
  8
INSETS_D_1_0
100
AcDbLine
 10
302.9476957769457
 20
-132.6511109168777
 30
0.0
 11
298.3224820913007
 21
-133.6033607933339
 31
0.0
  0
LINE
  5
10E
330
1003A
100
AcDbEntity
  8
INSETS_D_1_0
100
AcDbLine
 10
298.3224820913007
 20
-133.6033607933339
 30
0.0
 11
298.681626096864
 21
-135.3477745346404
 31
0.0
  0
LINE
  5
10F
330
1003A
100
AcDbEntity
  8
INSETS_D_1_0
100
AcDbLine
 10
298.681626096864
 20
-135.3477745346404
 30
0.0
 11
303.4348233558264
 21
-134.3691750989717
 31
0.0
  0
SPLINE
  5
110
330
1003A
100
AcDbEntity
  8
INSETS_D_1_0
100
AcDbSpline
210
0.0
220
0.0
230
1.0
 70
     8
 71
     3
 72
    17
 73
    13
 74
     0
 42
0.000000001
 43
0.001
 40
-0.0002552293871086
 40
-0.0002552293871086
 40
-0.0002552293871086
 40
-0.0002552293871086
 40
0.0
 40
0.0
 40
0.0
 40
0.042019440789657
 40
0.042019440789657
 40
0.042019440789657
 40
0.0841743649076241
 40
0.0841743649076241
 40
0.0841743649076241
 40
0.0843009030455667
 40
0.0843009030455667
 40
0.0843009030455667
 40
0.0843009030455667
 10
304.1977588987161
 20
-133.9853696729825
 30
0.0
 10
304.1970823102577
 20
-133.9859008739552
 30
0.0
 10
304.1964057217988
 20
-133.9864320749283
 30
0.0
 10
304.1957291333399
 20
-133.9869632759014
 30
0.0
 10
304.0843396534262
 20
-134.0744170291266
 30
0.0
 10
303.9710191709319
 20
-134.1637406478208
 30
0.0
 10
303.842153347395
 20
-134.2285893218227
 30
0.0
 10
303.712872021644
 20
-134.293647087474
 30
0.0
 10
303.5731340468749
 20
-134.331460551552
 30
0.0
 10
303.4360577581197
 20
-134.3688385022598
 30
0.0
 10
303.4356462906887
 20
-134.3689507011637
 30
0.0
 10
303.4352348232576
 20
-134.3690629000678
 30
0.0
 10
303.4348233558264
 20
-134.3691750989717
 30
0.0
  0
SPLINE
  5
111
330
1003A
100
AcDbEntity
  8
INSETS_D_1_0
100
AcDbSpline
210
0.0
220
0.0
230
1.0
 70
     8
 71
     3
 72
    17
 73
    13
 74
     0
 42
0.000000001
 43
0.001
 40
-0.0002613505437426
 40
-0.0002613505437426
 40
-0.0002613505437426
 40
-0.0002613505437426
 40
0.0
 40
0.0
 40
0.0
 40
0.0420023597893578
 40
0.0420023597893578
 40
0.0420023597893578
 40
0.0840047195787155
 40
0.0840047195787155
 40
0.0840047195787155
 40
0.084260058464653
 40
0.084260058464653
 40
0.084260058464653
 40
0.084260058464653
 10
304.6672641341215
 20
-133.2723958104433
 30
0.0
 10
304.666932024192
 20
-133.2732112256277
 30
0.0
 10
304.6665999142624
 20
-133.2740266408124
 30
0.0
 10
304.6662678043331
 20
-133.2748420559969
 30
0.0
 10
304.6128935103677
 20
-133.4058896576969
 30
0.0
 10
304.5587772456101
 20
-133.5394678264688
 30
0.0
 10
304.4794952844786
 20
-133.6598589526312
 30
0.0
 10
304.4002133233474
 20
-133.7802500787935
 30
0.0
 10
304.2988758206041
 20
-133.8827313347455
 30
0.0
 10
304.1995699856211
 20
-133.9835313362632
 30
0.0
 10
304.1989662899858
 20
-133.9841441151694
 30
0.0
 10
304.1983625943507
 20
-133.9847568940756
 30
0.0
 10
304.1977588987156
 20
-133.9853696729818
 30
0.0
  0
SPLINE
  5
112
330
1003A
100
AcDbEntity
  8
INSETS_D_1_0
100
AcDbSpline
210
0.0
220
0.0
230
1.0
 70
     8
 71
     3
 72
    17
 73
    13
 74
     0
 42
0.000000001
 43
0.001
 40
-0.0001207019640875
 40
-0.0001207019640875
 40
-0.0001207019640875
 40
-0.0001207019640875
 40
0.0
 40
0.0
 40
0.0
 40
0.0429819265572425
 40
0.0429819265572425
 40
0.0429819265572425
 40
0.0852574942166231
 40
0.0852574942166231
 40
0.0852574942166231
 40
0.0855187566900019
 40
0.0855187566900019
 40
0.0855187566900019
 40
0.0855187566900019
 10
304.7162053644688
 20
-132.4090097902605
 30
0.0
 10
304.7162632614229
 20
-132.4094125033806
 30
0.0
 10
304.716321158377
 20
-132.409815216502
 30
0.0
 10
304.7163790553313
 20
-132.4102179296234
 30
0.0
 10
304.7369961401801
 20
-132.5536239291998
 30
0.0
 10
304.7582782556515
 20
-132.6996626774147
 30
0.0
 10
304.7496516180186
 20
-132.8469059715698
 30
0.0
 10
304.7411667493279
 20
-132.9917294902675
 30
0.0
 10
304.7040810225815
 20
-133.1320341244407
 30
0.0
 10
304.6679342931163
 20
-133.2698408784541
 30
0.0
 10
304.6677109067855
 20
-133.2706925224508
 30
0.0
 10
304.6674875204546
 20
-133.2715441664474
 30
0.0
 10
304.6672641341238
 20
-133.2723958104439
 30
0.0
  0
LINE
  5
113
330
1003A
100
AcDbEntity
  8
INSETS_D_1_0
100
AcDbLine
 10
304.7162053644686
 20
-132.4090097902591
 30
0.0
 11
304.0743556345296
 21
-129.2914539591266
 31
0.0
  0
LINE
  5
114
330
1003A
100
AcDbEntity
  8
INSETS_D_1_0
100
AcDbLine
 10
304.0743556345296
 20
-129.2914539591266
 30
0.0
 11
304.5826932795301
 21
-129.1867962086852
 31
0.0
  0
LINE
  5
115
330
1003A
100
AcDbEntity
  8
INSETS_D_1_0
100
AcDbLine
 10
304.5826932795301
 20
-129.1867962086852
 30
0.0
 11
305.353455460074
 21
-132.9304982284701
 31
0.0
  0
LINE
  5
116
330
1003A
100
AcDbEntity
  8
INSETS_D_1_0
100
AcDbLine
 10
305.353455460074
 20
-132.9304982284701
 30
0.0
 11
307.1087512686354
 21
-132.5691137972957
 31
0.0
  0
LINE
  5
117
330
1003A
100
AcDbEntity
  8
INSETS_D_1_0
100
AcDbLine
 10
307.1087512686354
 20
-132.5691137972957
 30
0.0
 11
306.3116526242835
 21
-128.6974918104441
 31
0.0
  0
SPLINE
  5
118
330
1003A
100
AcDbEntity
  8
INSETS_D_1_0
100
AcDbSpline
210
0.0
220
0.0
230
1.0
 70
     8
 71
     3
 72
    17
 73
    13
 74
     0
 42
0.000000001
 43
0.001
 40
-0.0002541990388722
 40
-0.0002541990388722
 40
-0.0002541990388722
 40
-0.0002541990388722
 40
0.0
 40
0.0
 40
0.0
 40
0.0422751274562694
 40
0.0422751274562694
 40
0.0422751274562694
 40
0.0852575270491541
 40
0.0852575270491541
 40
0.0852575270491541
 40
0.085378222040845
 40
0.085378222040845
 40
0.085378222040845
 40
0.085378222040845
 10
305.925680068191
 20
-127.9237119578943
 30
0.0
 10
305.9262070640284
 20
-127.924387328319
 30
0.0
 10
305.926734059866
 20
-127.9250626987435
 30
0.0
 10
305.9272610557034
 20
-127.9257380691681
 30
0.0
 10
306.0149042517362
 20
-128.0380570256197
 30
0.0
 10
306.1043968229403
 20
-128.152299798704
 30
0.0
 10
306.1693996620538
 20
-128.2819919533903
 30
0.0
 10
306.2354900128955
 20
-128.4138538862148
 30
0.0
 10
306.2736270124693
 20
-128.5564243453053
 30
0.0
 10
306.3113349713494
 20
-128.6963133811678
 30
0.0
 10
306.3114408556607
 20
-128.6967061909266
 30
0.0
 10
306.3115467399722
 20
-128.6970990006857
 30
0.0
 10
306.3116526242836
 20
-128.6974918104441
 30
0.0
  0
SPLINE
  5
119
330
1003A
100
AcDbEntity
  8
INSETS_D_1_0
100
AcDbSpline
210
0.0
220
0.0
230
1.0
 70
     8
 71
     3
 72
    17
 73
    13
 74
     0
 42
0.000000001
 43
0.001
 40
-0.0002812946475136
 40
-0.0002812946475136
 40
-0.0002812946475136
 40
-0.0002812946475136
 40
0.0
 40
0.0
 40
0.0
 40
0.0410878800791033
 40
0.0410878800791033
 40
0.0410878800791033
 40
0.0828112720819597
 40
0.0828112720819597
 40
0.0828112720819597
 40
0.0830655532063942
 40
0.0830655532063942
 40
0.0830655532063942
 40
0.0830655532063942
 10
305.2246297378172
 20
-127.4572963733934
 30
0.0
 10
305.2255054193568
 20
-127.4576581610961
 30
0.0
 10
305.2263811008964
 20
-127.4580199487989
 30
0.0
 10
305.227256782436
 20
-127.4583817365016
 30
0.0
 10
305.3551650039674
 20
-127.5112269999172
 30
0.0
 10
305.4855692068172
 20
-127.5648208070493
 30
0.0
 10
305.6031772479721
 20
-127.6427372738502
 30
0.0
 10
305.722604348965
 20
-127.7218588854192
 30
0.0
 10
305.8240702535595
 20
-127.8229036845867
 30
0.0
 10
305.9238556567539
 20
-127.9219019381882
 30
0.0
 10
305.9244637938997
 20
-127.9225052780902
 30
0.0
 10
305.9250719310455
 20
-127.9231086179923
 30
0.0
 10
305.9256800681915
 20
-127.9237119578944
 30
0.0
  0
SPLINE
  5
11A
330
1003A
100
AcDbEntity
  8
INSETS_D_1_0
100
AcDbSpline
210
0.0
220
0.0
230
1.0
 70
     8
 71
     3
 72
    17
 73
    13
 74
     0
 42
0.000000001
 43
0.001
 40
-0.0001089377091768
 40
-0.0001089377091768
 40
-0.0001089377091768
 40
-0.0001089377091768
 40
0.0
 40
0.0
 40
0.0
 40
0.0435157562946415
 40
0.0435157562946415
 40
0.0435157562946415
 40
0.0851188721531053
 40
0.0851188721531053
 40
0.0851188721531053
 40
0.0854000592362506
 40
0.0854000592362506
 40
0.0854000592362506
 40
0.0854000592362506
 10
304.3622421259818
 20
-127.41382805667
 30
0.0
 10
304.3626053645486
 20
-127.4137736616799
 30
0.0
 10
304.3629686031146
 20
-127.41371926669
 30
0.0
 10
304.3633318416807
 20
-127.4136648717
 30
0.0
 10
304.5084294487035
 20
-127.3919364991831
 30
0.0
 10
304.65620033495
 20
-127.3695115356275
 30
0.0
 10
304.8053111515286
 20
-127.3778708733844
 30
0.0
 10
304.9478681264292
 20
-127.3858627946291
 30
0.0
 10
305.0861084648225
 20
-127.4216819352096
 30
0.0
 10
305.2218768443961
 20
-127.4565885921963
 30
0.0
 10
305.2227944755361
 20
-127.4568245192623
 30
0.0
 10
305.2237121066762
 20
-127.4570604463283
 30
0.0
 10
305.2246297378163
 20
-127.4572963733943
 30
0.0
  0
LINE
  5
11B
330
1003A
100
AcDbEntity
  8
INSETS_D_1_0
100
AcDbLine
 10
304.3622421259824
 20
-127.4138280566699
 30
0.0
 11
297.3455853696189
 21
-128.8584338594503
 31
0.0
  0
LINE
  5
11C
330
1003A
100
AcDbEntity
  8
INSETS_D_1_0
100
AcDbLine
 10
305.6588069240734
 20
-145.8193650600695
 30
0.0
 11
301.0118273525129
 21
-146.7760961483318
 31
0.0
  0
LINE
  5
11D
330
1003A
100
AcDbEntity
  8
INSETS_D_1_0
100
AcDbLine
 10
305.0432955951219
 20
-142.8297386051627
 30
0.0
 11
305.6588069240734
 21
-145.8193650600695
 31
0.0
  0
LINE
  5
11E
330
1003A
100
AcDbEntity
  8
INSETS_D_1_0
100
AcDbLine
 10
300.3963160235614
 20
-143.7864696934248
 30
0.0
 11
305.0432955951219
 21
-142.8297386051627
 31
0.0
  0
LINE
  5
11F
330
1003A
100
AcDbEntity
  8
INSETS_D_1_0
100
AcDbLine
 10
300.0371720179983
 20
-142.0420559521185
 30
0.0
 11
300.3963160235614
 21
-143.7864696934248
 31
0.0
  0
LINE
  5
120
330
1003A
100
AcDbEntity
  8
INSETS_D_1_0
100
AcDbLine
 10
304.8120539169622
 20
-141.0589920317439
 30
0.0
 11
300.0371720179983
 21
-142.0420559521185
 31
0.0
  0
SPLINE
  5
121
330
1003A
100
AcDbEntity
  8
INSETS_D_1_0
100
AcDbSpline
210
0.0
220
0.0
230
1.0
 70
     8
 71
     3
 72
    17
 73
    13
 74
     0
 42
0.000000001
 43
0.001
 40
-0.0001182475467144
 40
-0.0001182475467144
 40
-0.0001182475467144
 40
-0.0001182475467144
 40
0.0
 40
0.0
 40
0.0
 40
0.0427060731658262
 40
0.0427060731658262
 40
0.0427060731658262
 40
0.0842134809978547
 40
0.0842134809978547
 40
0.0842134809978547
 40
0.0844761185455427
 40
0.0844761185455427
 40
0.0844761185455427
 40
0.0844761185455427
 10
304.8120539169622
 20
-141.0589920317439
 30
0.0
 10
304.812448630749
 20
-141.0589348069045
 30
0.0
 10
304.8128433445358
 20
-141.0588775820652
 30
0.0
 10
304.8132380583227
 20
-141.0588203572258
 30
0.0
 10
304.9557921858907
 20
-141.0381531362589
 30
0.0
 10
305.101059172652
 20
-141.0167873031251
 30
0.0
 10
305.2474570722536
 20
-141.0261167506794
 30
0.0
 10
305.3897459055286
 20
-141.0351843412068
 30
0.0
 10
305.5273254993556
 20
-141.0728802647641
 30
0.0
 10
305.6623712236103
 20
-141.1095913022032
 30
0.0
 10
305.6632257235583
 20
-141.1098235907837
 30
0.0
 10
305.6640802235065
 20
-141.1100558793644
 30
0.0
 10
305.6649347234547
 20
-141.1102881679449
 30
0.0
  0
SPLINE
  5
122
330
1003A
100
AcDbEntity
  8
INSETS_D_1_0
100
AcDbSpline
210
0.0
220
0.0
230
1.0
 70
     8
 71
     3
 72
    17
 73
    13
 74
     0
 42
0.000000001
 43
0.001
 40
-0.0002632552022056
 40
-0.0002632552022056
 40
-0.0002632552022056
 40
-0.0002632552022056
 40
0.0
 40
0.0
 40
0.0
 40
0.0412826365186235
 40
0.0412826365186235
 40
0.0412826365186235
 40
0.0827129155486298
 40
0.0827129155486298
 40
0.0827129155486298
 40
0.0829806338859679
 40
0.0829806338859679
 40
0.0829806338859679
 40
0.0829806338859679
 10
305.6649347234541
 20
-141.1102881679462
 30
0.0
 10
305.665751559327
 20
-141.1106300850242
 30
0.0
 10
305.6665683951996
 20
-141.110972002102
 30
0.0
 10
305.6673852310723
 20
-141.1113139191798
 30
0.0
 10
305.795478192367
 20
-141.1649319989906
 30
0.0
 10
305.9258968076573
 20
-141.2192773355018
 30
0.0
 10
306.0445021068881
 20
-141.2964988693595
 30
0.0
 10
306.1635315840715
 20
-141.373996576983
 30
0.0
 10
306.2663030445585
 20
-141.4716956457078
 30
0.0
 10
306.3674642750434
 20
-141.5675537717818
 30
0.0
 10
306.3681179688408
 20
-141.5681731974464
 30
0.0
 10
306.3687716626382
 20
-141.5687926231112
 30
0.0
 10
306.3694253564358
 20
-141.5694120487763
 30
0.0
  0
SPLINE
  5
123
330
1003A
100
AcDbEntity
  8
INSETS_D_1_0
100
AcDbSpline
210
0.0
220
0.0
230
1.0
 70
     8
 71
     3
 72
    17
 73
    13
 74
     0
 42
0.000000001
 43
0.001
 40
-0.0002669905432157
 40
-0.0002669905432157
 40
-0.0002669905432157
 40
-0.0002669905432157
 40
0.0
 40
0.0
 40
0.0
 40
0.0419271456602215
 40
0.0419271456602215
 40
0.0419271456602215
 40
0.0854772553474518
 40
0.0854772553474518
 40
0.0854772553474518
 40
0.0855935148365811
 40
0.0855935148365811
 40
0.0855935148365811
 40
0.0855935148365811
 10
306.3694253564363
 20
-141.5694120487758
 30
0.0
 10
306.3699909830739
 20
-141.5701128128221
 30
0.0
 10
306.3705566097118
 20
-141.5708135768689
 30
0.0
 10
306.3711222363496
 20
-141.5715143409157
 30
0.0
 10
306.4599460206991
 20
-141.6815595728874
 30
0.0
 10
306.5507238042942
 20
-141.7935553261489
 30
0.0
 10
306.6164634941306
 20
-141.9216719527008
 30
0.0
 10
306.6847479112571
 20
-142.0547478645287
 30
0.0
 10
306.7231262648047
 20
-142.1995801833193
 30
0.0
 10
306.761074622322
 20
-142.341570905812
 30
0.0
 10
306.761175927616
 20
-142.341949958103
 30
0.0
 10
306.7612772329098
 20
-142.3423290103942
 30
0.0
 10
306.7613785382041
 20
-142.3427080626871
 30
0.0
  0
LINE
  5
124
330
1003A
100
AcDbEntity
  8
INSETS_D_1_0
100
AcDbLine
 10
307.4295634452112
 20
-145.5881776110095
 30
0.0
 11
306.7613785382041
 21
-142.3427080626871
 31
0.0
  0
SPLINE
  5
125
330
1003A
100
AcDbEntity
  8
INSETS_D_1_0
100
AcDbSpline
210
0.0
220
0.0
230
1.0
 70
     8
 71
     3
 72
    17
 73
    13
 74
     0
 42
0.000000001
 43
0.001
 40
-0.0001233242548079
 40
-0.0001233242548079
 40
-0.0001233242548079
 40
-0.0001233242548079
 40
0.0
 40
0.0
 40
0.0
 40
0.0428611258834482
 40
0.0428611258834482
 40
0.0428611258834482
 40
0.0849160707570971
 40
0.0849160707570971
 40
0.0849160707570971
 40
0.0851715453725064
 40
0.0851715453725064
 40
0.0851715453725064
 40
0.0851715453725064
 10
307.4295634452112
 20
-145.5881776110093
 30
0.0
 10
307.4296220879995
 20
-145.5885894790893
 30
0.0
 10
307.4296807307876
 20
-145.589001347169
 30
0.0
 10
307.429739373576
 20
-145.5894132152487
 30
0.0
 10
307.4501205705487
 20
-145.7325572353739
 30
0.0
 10
307.4711975906419
 20
-145.8784256838492
 30
0.0
 10
307.4613394022347
 20
-146.0253021895312
 30
0.0
 10
307.4516666378947
 20
-146.1694160741379
 30
0.0
 10
307.4126066623311
 20
-146.3086106255166
 30
0.0
 10
307.3745646400362
 20
-146.4452439479271
 30
0.0
 10
307.3743335430501
 20
-146.4460739655528
 30
0.0
 10
307.3741024460638
 20
-146.4469039831786
 30
0.0
 10
307.3738713490778
 20
-146.4477340008038
 30
0.0
  0
SPLINE
  5
126
330
1003A
100
AcDbEntity
  8
INSETS_D_1_0
100
AcDbSpline
210
0.0
220
0.0
230
1.0
 70
     8
 71
     3
 72
    17
 73
    13
 74
     0
 42
0.000000001
 43
0.001
 40
-0.0002560579284975
 40
-0.0002560579284975
 40
-0.0002560579284975
 40
-0.0002560579284975
 40
0.0
 40
0.0
 40
0.0
 40
0.0417580057872373
 40
0.0417580057872373
 40
0.0417580057872373
 40
0.0831257511475781
 40
0.0831257511475781
 40
0.0831257511475781
 40
0.0833929272829737
 40
0.0833929272829737
 40
0.0833929272829737
 40
0.0833929272829737
 10
307.3738713490764
 20
-146.4477340008052
 30
0.0
 10
307.3735366110857
 20
-146.4485279060541
 30
0.0
 10
307.373201873095
 20
-146.4493218113037
 30
0.0
 10
307.3728671351041
 20
-146.4501157165532
 30
0.0
 10
307.3182779605364
 20
-146.5795860289886
 30
0.0
 10
307.2629446957055
 20
-146.7114309447209
 30
0.0
 10
307.1840600171433
 20
-146.8309163981351
 30
0.0
 10
307.1059125760939
 20
-146.9492851688155
 30
0.0
 10
307.0075269584418
 20
-147.0511695091484
 30
0.0
 10
306.911010118753
 20
-147.1514476316702
 30
0.0
 10
306.9103867587896
 20
-147.1520952841108
 30
0.0
 10
306.9097633988263
 20
-147.1527429365512
 30
0.0
 10
306.9091400388631
 20
-147.1533905889917
 30
0.0
  0
SPLINE
  5
127
330
1003A
100
AcDbEntity
  8
INSETS_D_1_0
100
AcDbSpline
210
0.0
220
0.0
230
1.0
 70
     8
 71
     3
 72
    17
 73
    13
 74
     0
 42
0.000000001
 43
0.001
 40
-0.0002666101037044
 40
-0.0002666101037044
 40
-0.0002666101037044
 40
-0.0002666101037044
 40
0.0
 40
0.0
 40
0.0
 40
0.0415075945104259
 40
0.0415075945104259
 40
0.0415075945104259
 40
0.0842136071964912
 40
0.0842136071964912
 40
0.0842136071964912
 40
0.0843318225107266
 40
0.0843318225107266
 40
0.0843318225107266
 40
0.0843318225107266
 10
306.9091400388618
 20
-147.1533905889905
 30
0.0
 10
306.9084363140698
 20
-147.1539498766879
 30
0.0
 10
306.9077325892781
 20
-147.1545091643852
 30
0.0
 10
306.9070288644862
 20
-147.1550684520826
 30
0.0
 10
306.7974684130926
 20
-147.2421419974462
 30
0.0
 10
306.6859691081613
 20
-147.3311214627972
 30
0.0
 10
306.5588333926585
 20
-147.3956589760778
 30
0.0
 10
306.4280269813703
 20
-147.4620598334002
 30
0.0
 10
306.2861334272787
 20
-147.4998128631098
 30
0.0
 10
306.1470082844157
 20
-147.5371360892391
 30
0.0
 10
306.1466231694999
 20
-147.5372394043611
 30
0.0
 10
306.146238054584
 20
-147.5373427194829
 30
0.0
 10
306.1458529396683
 20
-147.5374460346047
 30
0.0
  0
LINE
  5
128
330
1003A
100
AcDbEntity
  8
INSETS_D_1_0
100
AcDbLine
 10
301.3709713580761
 20
-148.5205098896383
 30
0.0
 11
306.1458529396684
 21
-147.5374460346047
 31
0.0
  0
LINE
  5
129
330
1003A
100
AcDbEntity
  8
INSETS_D_1_0
100
AcDbLine
 10
301.0118273525129
 20
-146.7760961483318
 30
0.0
 11
301.3709713580761
 21
-148.5205098896383
 31
0.0
  0
LINE
  5
12A
330
1003A
100
AcDbEntity
  8
INSETS_D_1_0
100
AcDbLine
 10
313.8664008245698
 20
-200.7822683483814
 30
0.0
 11
312.8917452496663
 21
-196.0482269845643
 31
0.0
  0
LINE
  5
12B
330
1003A
100
AcDbEntity
  8
INSETS_D_1_0
100
AcDbLine
 10
312.8917452496663
 20
-196.0482269845643
 30
0.0
 11
313.6240520096193
 21
-195.8974579457504
 31
0.0
  0
LINE
  5
12C
330
1003A
100
AcDbEntity
  8
INSETS_D_1_0
100
AcDbLine
 10
313.6240520096193
 20
-195.8974579457504
 30
0.0
 11
314.5987075845228
 21
-200.6314993095675
 31
0.0
  0
LINE
  5
12D
330
1003A
100
AcDbEntity
  8
INSETS_D_1_0
100
AcDbLine
 10
314.5987075845228
 20
-200.6314993095675
 30
0.0
 11
316.973861864439
 21
-200.1424969578202
 31
0.0
  0
SPLINE
  5
12E
330
1003A
100
AcDbEntity
  8
INSETS_D_1_0
100
AcDbSpline
210
0.0
220
0.0
230
1.0
 70
     8
 71
     3
 72
    11
 73
     7
 74
     0
 42
0.000000001
 43
0.001
 40
0.0002666641721844
 40
0.0002666641721844
 40
0.0002666641721844
 40
0.0002666641721844
 40
0.0415075478403917
 40
0.0415075478403917
 40
0.0415075478403917
 40
0.0840953553622716
 40
0.0840953553622716
 40
0.0840953553622716
 40
0.0840953553622716
 10
317.7012064554806
 20
-199.7772372894733
 30
0.0
 10
317.5923761753143
 20
-199.8637282766138
 30
0.0
 10
317.4853818497124
 20
-199.9481817144274
 30
0.0
 10
317.3688547463397
 20
-200.0073342324956
 30
0.0
 10
317.2485218773975
 20
-200.0684186669175
 30
0.0
 10
317.1125865996178
 20
-200.1052798178728
 30
0.0
 10
316.9738618644391
 20
-200.1424969578202
 30
0.0
  0
SPLINE
  5
12F
330
1003A
100
AcDbEntity
  8
INSETS_D_1_0
100
AcDbSpline
210
0.0
220
0.0
230
1.0
 70
     8
 71
     3
 72
    11
 73
     7
 74
     0
 42
0.000000001
 43
0.001
 40
0.0002560894884795
 40
0.0002560894884795
 40
0.0002560894884795
 40
0.0002560894884795
 40
0.0417578178467724
 40
0.0417578178467724
 40
0.0417578178467724
 40
0.0828584811580441
 40
0.0828584811580441
 40
0.0828584811580441
 40
0.0828584811580441
 10
318.1439120320256
 20
-199.1049310472495
 30
0.0
 10
318.0896681161535
 20
-199.2335780287026
 30
0.0
 10
318.0360313827844
 20
-199.3597946643499
 30
0.0
 10
317.9631484425131
 20
-199.4701896220113
 30
0.0
 10
317.890969829532
 20
-199.5795177431662
 30
0.0
 10
317.7970767720603
 20
-199.677628162269
 30
0.0
 10
317.7012064554804
 20
-199.7772372894731
 30
0.0
  0
SPLINE
  5
130
330
1003A
100
AcDbEntity
  8
INSETS_D_1_0
100
AcDbSpline
210
0.0
220
0.0
230
1.0
 70
     8
 71
     3
 72
    11
 73
     7
 74
     0
 42
0.000000001
 43
0.001
 40
0.0001233233844565
 40
0.0001233233844565
 40
0.0001233233844565
 40
0.0001233233844565
 40
0.0428615986979727
 40
0.0428615986979727
 40
0.0428615986979727
 40
0.0846607078530293
 40
0.0846607078530293
 40
0.0846607078530293
 40
0.0846607078530293
 10
318.1964098185047
 20
-198.2859688388835
 30
0.0
 10
318.2167305582993
 20
-198.4286866890764
 30
0.0
 10
318.2362756556931
 20
-198.56868985754
 30
0.0
 10
318.2272079414865
 20
-198.7037844840738
 30
0.0
 10
318.2183394887209
 20
-198.8359104297122
 30
0.0
 10
318.1817132314584
 20
-198.9691608402761
 30
0.0
 10
318.1439120320256
 20
-199.1049310472495
 30
0.0
  0
LINE
  5
131
330
1003A
100
AcDbEntity
  8
INSETS_D_1_0
100
AcDbLine
 10
318.1964098185047
 20
-198.2859688388835
 30
0.0
 11
317.2122480050105
 21
-193.5057543161975
 31
0.0
  0
LINE
  5
132
330
1003A
100
AcDbEntity
  8
INSETS_D_1_0
100
AcDbLine
 10
317.2122480050105
 20
-193.5057543161975
 30
0.0
 11
312.5191273944668
 21
-194.4719850301328
 31
0.0
  0
SPLINE
  5
133
330
1003A
100
AcDbEntity
  8
INSETS_D_1_0
100
AcDbSpline
210
0.0
220
0.0
230
1.0
 70
     8
 71
     3
 72
    11
 73
     7
 74
     0
 42
0.000000001
 43
0.001
 40
0.0002472181056051
 40
0.0002472181056051
 40
0.0002472181056051
 40
0.0002472181056051
 40
0.0420193858226512
 40
0.0420193858226512
 40
0.0420193858226512
 40
0.0840478426811049
 40
0.0840478426811049
 40
0.0840478426811049
 40
0.0840478426811049
 10
311.7913675244127
 20
-194.8375460989284
 30
0.0
 10
311.9020773576935
 20
-194.7506272755447
 30
0.0
 10
312.0109502353699
 20
-194.6656996035733
 30
0.0
 10
312.1293679488965
 20
-194.6061082162726
 30
0.0
 10
312.2485122029834
 20
-194.5461512117122
 30
0.0
 10
312.3824782407282
 20
-194.5092477153621
 30
0.0
 10
312.5191273944668
 20
-194.4719850301328
 30
0.0
  0
SPLINE
  5
134
330
1003A
100
AcDbEntity
  8
INSETS_D_1_0
100
AcDbSpline
210
0.0
220
0.0
230
1.0
 70
     8
 71
     3
 72
    11
 73
     7
 74
     0
 42
0.000000001
 43
0.001
 40
0.0002785181025455
 40
0.0002785181025455
 40
0.0002785181025455
 40
0.0002785181025455
 40
0.0413441416556432
 40
0.0413441416556432
 40
0.0413441416556432
 40
0.0829304995145199
 40
0.0829304995145199
 40
0.0829304995145199
 40
0.0829304995145199
 10
311.3424955772957
 20
-195.5051133023526
 30
0.0
 10
311.3964563669847
 20
-195.3778565085668
 30
0.0
 10
311.4498077617022
 20
-195.2530988064102
 30
0.0
 10
311.5225242689166
 20
-195.1445801790946
 30
0.0
 10
311.5961628607515
 20
-195.034685476922
 30
0.0
 10
311.6927161981455
 20
-194.9368853927328
 30
0.0
 10
311.7913675244129
 20
-194.8375460989287
 30
0.0
  0
SPLINE
  5
135
330
1003A
100
AcDbEntity
  8
INSETS_D_1_0
100
AcDbSpline
210
0.0
220
0.0
230
1.0
 70
     8
 71
     3
 72
    11
 73
     7
 74
     0
 42
0.000000001
 43
0.001
 40
0.0001125863765966
 40
0.0001125863765966
 40
0.0001125863765966
 40
0.0001125863765966
 40
0.0435327218891901
 40
0.0435327218891901
 40
0.0435327218891901
 40
0.0850179595056726
 40
0.0850179595056726
 40
0.0850179595056726
 40
0.0850179595056726
 10
311.2964759697848
 20
-196.3284234460612
 30
0.0
 10
311.2750545814916
 20
-196.1835489680752
 30
0.0
 10
311.2544183997552
 20
-196.0413924787263
 30
0.0
 10
311.2629517079154
 20
-195.9039912860705
 30
0.0
 10
311.271104752868
 20
-195.7727129964289
 30
0.0
 10
311.3062323970607
 20
-195.6401507137496
 30
0.0
 10
311.3424955772955
 20
-195.5051133023526
 30
0.0
  0
LINE
  5
136
330
1003A
100
AcDbEntity
  8
INSETS_D_1_0
100
AcDbLine
 10
311.2964759697848
 20
-196.3284234460612
 30
0.0
 11
312.2806597080728
 21
-201.1087444606014
 31
0.0
  0
LINE
  5
137
330
1003A
100
AcDbEntity
  8
INSETS_D_1_0
100
AcDbLine
 10
312.2806597080728
 20
-201.1087444606014
 30
0.0
 11
313.8664008245698
 21
-200.7822683483814
 31
0.0
  0
LWPOLYLINE
  5
138
330
1003A
100
AcDbEntity
  8
INSETS_D_1_0
100
AcDbPolyline
 90
        7
 70
     1
 43
0.0
 10
294.0887660533901
 20
-120.4621421037143
 10
294.4731888659519
 20
-122.329338621871
 10
301.3046439746679
 20
-116.2402490259627
 10
301.0250234752489
 20
-114.8820923144983
 10
292.3438388669491
 20
-111.986781483858
 10
292.7260212471988
 20
-113.8430959022133
 10
299.1387850018361
 20
-115.9726217635771
  0
LWPOLYLINE
  5
139
330
1003A
100
AcDbEntity
  8
INSETS_D_1_0
100
AcDbPolyline
 90
       10
 70
     1
 43
0.0
 10
304.2526421729651
 20
-154.2912912379684
 10
302.8020664320145
 20
-154.5899391846347
 10
301.6638484892012
 20
-149.0614520338274
 10
300.0454588357318
 20
-149.3946499036592
 10
301.5191156749609
 20
-156.5524116942004
 10
309.2754355334687
 20
-154.9555223115667
 10
308.9399966370529
 20
-153.3262476718328
 10
305.8710318264348
 20
-153.9580933681366
 10
304.9546323655948
 20
-149.5070102726277
 10
303.3362427121251
 20
-149.8402081424597
  0
SPLINE
  5
13A
330
1003A
100
AcDbEntity
  8
INSETS_D_1_0
100
AcDbSpline
210
0.0
220
0.0
230
1.0
 70
     8
 71
     3
 72
    11
 73
     7
 74
     0
 42
0.000000001
 43
0.001
 40
0.0002604360927855
 40
0.0002604360927855
 40
0.0002604360927855
 40
0.0002604360927855
 40
0.0415394203888266
 40
0.0415394203888266
 40
0.0415394203888266
 40
0.0828178791031689
 40
0.0828178791031689
 40
0.0828178791031689
 40
0.0828178791031689
 10
306.0633407728512
 20
-167.0122614352556
 30
0.0
 10
305.9358392259969
 20
-166.9575018276259
 30
0.0
 10
305.810657991484
 20
-166.9033456497846
 30
0.0
 10
305.7005484293672
 20
-166.8308341502031
 30
0.0
 10
305.5904402692129
 20
-166.7583235738691
 30
0.0
 10
305.4912407610586
 20
-166.6647168823738
 30
0.0
 10
305.3905703437143
 20
-166.5692169818572
 30
0.0
  0
SPLINE
  5
13B
330
1003A
100
AcDbEntity
  8
INSETS_D_1_0
100
AcDbSpline
210
0.0
220
0.0
230
1.0
 70
     8
 71
     3
 72
    11
 73
     7
 74
     0
 42
0.000000001
 43
0.001
 40
0.000122065806413
 40
0.000122065806413
 40
0.000122065806413
 40
0.000122065806413
 40
0.0427238361484534
 40
0.0427238361484534
 40
0.0427238361484534
 40
0.0841366312393636
 40
0.0841366312393636
 40
0.0841366312393636
 40
0.0841366312393636
 10
306.876634095642
 20
-167.0658067298509
 30
0.0
 10
306.7343357527861
 20
-167.0861558694892
 30
0.0
 10
306.5947931828516
 20
-167.1057115669716
 30
0.0
 10
306.4602973729802
 20
-167.0963294551455
 30
0.0
 10
306.3295552143777
 20
-167.0872091892163
 30
0.0
 10
306.1977160488525
 20
-167.0503367280903
 30
0.0
 10
306.0633407728515
 20
-167.0122614352554
 30
0.0
  0
LINE
  5
13C
330
1003A
100
AcDbEntity
  8
INSETS_D_1_0
100
AcDbLine
 10
306.876634095642
 20
-167.0658067298509
 30
0.0
 11
310.0302415424605
 21
-166.4165346084471
 31
0.0
  0
SPLINE
  5
13D
330
1003A
100
AcDbEntity
  8
INSETS_D_1_0
100
AcDbSpline
210
0.0
220
0.0
230
1.0
 70
     8
 71
     3
 72
    11
 73
     7
 74
     0
 42
0.000000001
 43
0.001
 40
0.0002595281643801
 40
0.0002595281643801
 40
0.0002595281643801
 40
0.0002595281643801
 40
0.0416725180196754
 40
0.0416725180196754
 40
0.0416725180196754
 40
0.0842743184714325
 40
0.0842743184714325
 40
0.0842743184714325
 40
0.0842743184714325
 10
310.7562396526067
 20
-166.0460764438483
 30
0.0
 10
310.6478340691629
 20
-166.1341385280703
 30
0.0
 10
310.5412833173912
 20
-166.2200935996557
 30
0.0
 10
310.4247768518834
 20
-166.2801179581306
 30
0.0
 10
310.3049259255858
 20
-166.3418653893336
 30
0.0
 10
310.1690063841897
 20
-166.3790201734555
 30
0.0
 10
310.0302415424605
 20
-166.4165346084471
 30
0.0
  0
SPLINE
  5
13E
330
1003A
100
AcDbEntity
  8
INSETS_D_1_0
100
AcDbSpline
210
0.0
220
0.0
230
1.0
 70
     8
 71
     3
 72
    11
 73
     7
 74
     0
 42
0.000000001
 43
0.001
 40
0.000260397174392
 40
0.000260397174392
 40
0.000260397174392
 40
0.000260397174392
 40
0.0415392191030047
 40
0.0415392191030047
 40
0.0415392191030047
 40
0.0828179671364374
 40
0.0828179671364374
 40
0.0828179671364374
 40
0.0828179671364374
 10
311.1992827622303
 20
-165.3733058421153
 30
0.0
 10
311.1445251626031
 20
-165.500807839255
 30
0.0
 10
311.0903710051858
 20
-165.6259893633032
 30
0.0
 10
311.0178603695161
 20
-165.7360982869441
 30
0.0
 10
310.9453498636508
 20
-165.8462070134738
 30
0.0
 10
310.8517414414557
 20
-165.9454062243367
 30
0.0
 10
310.7562396526068
 20
-166.0460764438487
 30
0.0
  0
SPLINE
  5
13F
330
1003A
100
AcDbEntity
  8
INSETS_D_1_0
100
AcDbSpline
210
0.0
220
0.0
230
1.0
 70
     8
 71
     3
 72
    11
 73
     7
 74
     0
 42
0.000000001
 43
0.001
 40
0.0001220672643794
 40
0.0001220672643794
 40
0.0001220672643794
 40
0.0001220672643794
 40
0.0427235406556745
 40
0.0427235406556745
 40
0.0427235406556745
 40
0.0841366335576372
 40
0.0841366335576372
 40
0.0841366335576372
 40
0.0841366335576372
 10
311.2528306735203
 20
-164.5600129918171
 30
0.0
 10
311.2731795691559
 20
-164.7023103758652
 30
0.0
 10
311.2927350206642
 20
-164.8418519804511
 30
0.0
 10
311.2833528045287
 20
-164.9763467573591
 30
0.0
 10
311.2742323080408
 20
-165.1070897633524
 30
0.0
 10
311.2373589569722
 20
-165.2389297271625
 30
0.0
 10
311.199282762231
 20
-165.3733058421158
 30
0.0
  0
LINE
  5
140
330
1003A
100
AcDbEntity
  8
INSETS_D_1_0
100
AcDbLine
 10
311.2528306735203
 20
-164.5600129918171
 30
0.0
 11
310.2686661417249
 21
-159.7797852659539
 31
0.0
  0
LINE
  5
141
330
1003A
100
AcDbEntity
  8
INSETS_D_1_0
100
AcDbLine
 10
310.2686661417249
 20
-159.7797852659539
 30
0.0
 11
308.6829256090298
 21
-160.1062612579794
 31
0.0
  0
LINE
  5
142
330
1003A
100
AcDbEntity
  8
INSETS_D_1_0
100
AcDbLine
 10
308.6829256090298
 20
-160.1062612579794
 30
0.0
 11
309.6575809435443
 21
-164.8403014541927
 31
0.0
  0
LINE
  5
143
330
1003A
100
AcDbEntity
  8
INSETS_D_1_0
100
AcDbLine
 10
309.6575809435443
 20
-164.8403014541927
 30
0.0
 11
306.5963424884808
 21
-165.4705564302353
 31
0.0
  0
LINE
  5
144
330
1003A
100
AcDbEntity
  8
INSETS_D_1_0
100
AcDbLine
 10
306.5963424884808
 20
-165.4705564302353
 30
0.0
 11
305.6239275795776
 21
-160.7473983012769
 31
0.0
  0
LINE
  5
145
330
1003A
100
AcDbEntity
  8
INSETS_D_1_0
100
AcDbLine
 10
305.6239275795776
 20
-160.7473983012769
 30
0.0
 11
304.0381864630806
 21
-161.0738744134967
 31
0.0
  0
LINE
  5
146
330
1003A
100
AcDbEntity
  8
INSETS_D_1_0
100
AcDbLine
 10
304.0381864630806
 20
-161.0738744134967
 30
0.0
 11
305.0201105762217
 21
-165.8432201058961
 31
0.0
  0
SPLINE
  5
147
330
1003A
100
AcDbEntity
  8
INSETS_D_1_0
100
AcDbSpline
210
0.0
220
0.0
230
1.0
 70
     8
 71
     3
 72
    11
 73
     7
 74
     0
 42
0.000000001
 43
0.001
 40
0.0002595732438844
 40
0.0002595732438844
 40
0.0002595732438844
 40
0.0002595732438844
 40
0.0416726411850689
 40
0.0416726411850689
 40
0.0416726411850689
 40
0.084274110247563
 40
0.084274110247563
 40
0.084274110247563
 40
0.084274110247563
 10
305.3905703437143
 20
-166.5692169818572
 30
0.0
 10
305.3025094589968
 20
-166.4608103514511
 30
0.0
 10
305.2165554501785
 20
-166.3542584620823
 30
0.0
 10
305.1565306401692
 20
-166.2377513483129
 30
0.0
 10
305.0947833412192
 20
-166.1179009134246
 30
0.0
 10
305.0576267949539
 20
-165.9819830590009
 30
0.0
 10
305.0201105762219
 20
-165.8432201058961
 30
0.0
  0
LINE
  5
148
330
1003A
100
AcDbEntity
  8
INSETS_D_1_0
100
AcDbLine
 10
314.90220188899
 20
-182.2855303240979
 30
0.0
 11
310.2090813013442
 21
-183.2517610333191
 31
0.0
  0
LINE
  5
149
330
1003A
100
AcDbEntity
  8
INSETS_D_1_0
100
AcDbLine
 10
315.8863634679209
 20
-187.0657437074765
 30
0.0
 11
314.90220188899
 21
-182.2855303240979
 31
0.0
  0
SPLINE
  5
14A
330
1003A
100
AcDbEntity
  8
INSETS_D_1_0
100
AcDbSpline
210
0.0
220
0.0
230
1.0
 70
     8
 71
     3
 72
    11
 73
     7
 74
     0
 42
0.000000001
 43
0.001
 40
0.0001233205038935
 40
0.0001233205038935
 40
0.0001233205038935
 40
0.0001233205038935
 40
0.0428618351052684
 40
0.0428618351052684
 40
0.0428618351052684
 40
0.0846608283953934
 40
0.0846608283953934
 40
0.0846608283953934
 40
0.0846608283953934
 10
315.8863634679209
 20
-187.0657437074765
 30
0.0
 10
315.9066845292754
 20
-187.2084623585499
 30
0.0
 10
315.9262299346935
 20
-187.3484663000745
 30
0.0
 10
315.9171620679624
 20
-187.4835616281825
 30
0.0
 10
315.9082935402612
 20
-187.6156871539708
 30
0.0
 10
315.8716672217886
 20
-187.7489371491167
 30
0.0
 10
315.8338659505287
 20
-187.8847069434571
 30
0.0
  0
SPLINE
  5
14B
330
1003A
100
AcDbEntity
  8
INSETS_D_1_0
100
AcDbSpline
210
0.0
220
0.0
230
1.0
 70
     8
 71
     3
 72
    11
 73
     7
 74
     0
 42
0.000000001
 43
0.001
 40
0.0002560960182878
 40
0.0002560960182878
 40
0.0002560960182878
 40
0.0002560960182878
 40
0.0417576299068229
 40
0.0417576299068229
 40
0.0417576299068229
 40
0.0828582825280121
 40
0.0828582825280121
 40
0.0828582825280121
 40
0.0828582825280121
 10
315.8338659505287
 20
-187.8847069434571
 30
0.0
 10
315.7796217282269
 20
-188.013353041265
 30
0.0
 10
315.7259846894401
 20
-188.1395688361304
 30
0.0
 10
315.6531018785076
 20
-188.2499632450331
 30
0.0
 10
315.5809230741713
 20
-188.3592913065888
 30
0.0
 10
315.4870301117626
 20
-188.4574017603784
 30
0.0
 10
315.3911599122976
 20
-188.5570109037712
 30
0.0
  0
SPLINE
  5
14C
330
1003A
100
AcDbEntity
  8
INSETS_D_1_0
100
AcDbSpline
210
0.0
220
0.0
230
1.0
 70
     8
 71
     3
 72
    11
 73
     7
 74
     0
 42
0.000000001
 43
0.001
 40
0.0002666749587371
 40
0.0002666749587371
 40
0.0002666749587371
 40
0.0002666749587371
 40
0.0415075011706474
 40
0.0415075011706474
 40
0.0415075011706474
 40
0.0840953240150603
 40
0.0840953240150603
 40
0.0840953240150603
 40
0.0840953240150603
 10
315.3911599122973
 20
-188.557010903771
 30
0.0
 10
315.282329461781
 20
-188.6435012126551
 30
0.0
 10
315.1753349211076
 20
-188.7279540439019
 30
0.0
 10
315.0588078544429
 20
-188.7871067653571
 30
0.0
 10
314.9384748124664
 20
-188.8481915168882
 30
0.0
 10
314.8025397749955
 20
-188.8850536730247
 30
0.0
 10
314.6638153609852
 20
-188.9222718283904
 30
0.0
  0
LINE
  5
14D
330
1003A
100
AcDbEntity
  8
INSETS_D_1_0
100
AcDbLine
 10
312.2886612281131
 20
-189.4112741498643
 30
0.0
 11
314.6638153609852
 21
-188.9222718283906
 31
0.0
  0
LINE
  5
14E
330
1003A
100
AcDbEntity
  8
INSETS_D_1_0
100
AcDbLine
 10
311.3140054128207
 20
-184.6772316184433
 30
0.0
 11
312.2886612281131
 21
-189.4112741498643
 31
0.0
  0
LINE
  5
14F
330
1003A
100
AcDbEntity
  8
INSETS_D_1_0
100
AcDbLine
 10
310.5816986528679
 20
-184.8280006572572
 30
0.0
 11
311.3140054128207
 21
-184.6772316184433
 31
0.0
  0
LINE
  5
150
330
1003A
100
AcDbEntity
  8
INSETS_D_1_0
100
AcDbLine
 10
311.5563544681604
 20
-189.5620431886782
 30
0.0
 11
310.5816986528679
 21
-184.8280006572572
 31
0.0
  0
LINE
  5
151
330
1003A
100
AcDbEntity
  8
INSETS_D_1_0
100
AcDbLine
 10
309.9706133516634
 20
-189.888519300898
 30
0.0
 11
311.5563544681604
 21
-189.5620431886782
 31
0.0
  0
LINE
  5
152
330
1003A
100
AcDbEntity
  8
INSETS_D_1_0
100
AcDbLine
 10
308.986429373643
 20
-185.1081971219426
 30
0.0
 11
309.9706133516634
 21
-189.888519300898
 31
0.0
  0
SPLINE
  5
153
330
1003A
100
AcDbEntity
  8
INSETS_D_1_0
100
AcDbSpline
210
0.0
220
0.0
230
1.0
 70
     8
 71
     3
 72
    11
 73
     7
 74
     0
 42
0.000000001
 43
0.001
 40
0.0001125866918338
 40
0.0001125866918338
 40
0.0001125866918338
 40
0.0001125866918338
 40
0.0435326036063221
 40
0.0435326036063221
 40
0.0435326036063221
 40
0.0850177316689509
 40
0.0850177316689509
 40
0.0850177316689509
 40
0.0850177316689509
 10
308.986429373643
 20
-185.1081971219426
 30
0.0
 10
308.9650080657979
 20
-184.963323026996
 30
0.0
 10
308.9443719672522
 20
-184.8211669279453
 30
0.0
 10
308.952905349679
 20
-184.6837661557852
 30
0.0
 10
308.9610584663274
 20
-184.5524882560046
 30
0.0
 10
308.9961861841024
 20
-184.4199263736436
 30
0.0
 10
309.0324494448712
 20
-184.2848893573548
 30
0.0
  0
SPLINE
  5
154
330
1003A
100
AcDbEntity
  8
INSETS_D_1_0
100
AcDbSpline
210
0.0
220
0.0
230
1.0
 70
     8
 71
     3
 72
    11
 73
     7
 74
     0
 42
0.000000001
 43
0.001
 40
0.0002785179612808
 40
0.0002785179612808
 40
0.0002785179612808
 40
0.0002785179612808
 40
0.0413441416556432
 40
0.0413441416556432
 40
0.0413441416556432
 40
0.0829306192784812
 40
0.0829306192784812
 40
0.0829306192784812
 40
0.0829306192784812
 10
309.0324494448716
 20
-184.2848893573548
 30
0.0
 10
309.086410363677
 20
-184.1576326726015
 30
0.0
 10
309.1397618918377
 20
-184.0328750285169
 30
0.0
 10
309.2124782087681
 20
-183.9243561036146
 30
0.0
 10
309.2861168197226
 20
-183.8144607839747
 30
0.0
 10
309.3826698936837
 20
-183.7166598851695
 30
0.0
 10
309.4813209222336
 20
-183.6173197965795
 30
0.0
  0
SPLINE
  5
155
330
1003A
100
AcDbEntity
  8
INSETS_D_1_0
100
AcDbSpline
210
0.0
220
0.0
230
1.0
 70
     8
 71
     3
 72
    11
 73
     7
 74
     0
 42
0.000000001
 43
0.001
 40
0.0002472424085617
 40
0.0002472424085617
 40
0.0002472424085617
 40
0.0002472424085617
 40
0.042019293619743
 40
0.042019293619743
 40
0.042019293619743
 40
0.0840477481147776
 40
0.0840477481147776
 40
0.0840477481147776
 40
0.0840477481147776
 10
309.4813209222336
 20
-183.6173197965795
 30
0.0
 10
309.5920309634068
 20
-183.5304019776829
 30
0.0
 10
309.7009040789737
 20
-183.4454752648537
 30
0.0
 10
309.8193217434261
 20
-183.3858842691868
 30
0.0
 10
309.9384662737409
 20
-183.3259274948107
 30
0.0
 10
310.0724322543465
 20
-183.2890238587399
 30
0.0
 10
310.2090813013442
 20
-183.2517610333189
 30
0.0
  0
LINE
  5
156
330
1003A
100
AcDbEntity
  8
INSETS_D_1_0
100
AcDbLine
 10
312.7383897208867
 20
-179.8042298012847
 30
0.0
 11
309.6771512658233
 21
-180.4344847773273
 31
0.0
  0
LINE
  5
157
330
1003A
100
AcDbEntity
  8
INSETS_D_1_0
100
AcDbLine
 10
309.6771512658233
 20
-180.4344847773273
 30
0.0
 11
308.7047363569202
 21
-175.7113266483686
 31
0.0
  0
LINE
  5
158
330
1003A
100
AcDbEntity
  8
INSETS_D_1_0
100
AcDbLine
 10
308.7047363569202
 20
-175.7113266483686
 30
0.0
 11
307.118995240423
 21
-176.0378027605886
 31
0.0
  0
LINE
  5
159
330
1003A
100
AcDbEntity
  8
INSETS_D_1_0
100
AcDbLine
 10
307.118995240423
 20
-176.0378027605886
 30
0.0
 11
308.100918884561
 21
-180.807146174973
 31
0.0
  0
SPLINE
  5
15A
330
1003A
100
AcDbEntity
  8
INSETS_D_1_0
100
AcDbSpline
210
0.0
220
0.0
230
1.0
 70
     8
 71
     3
 72
    11
 73
     7
 74
     0
 42
0.000000001
 43
0.001
 40
0.0002595541820531
 40
0.0002595541820531
 40
0.0002595541820531
 40
0.0002595541820531
 40
0.0416724226649344
 40
0.0416724226649344
 40
0.0416724226649344
 40
0.08427437033889
 40
0.08427437033889
 40
0.08427437033889
 40
0.08427437033889
 10
308.4713791708232
 20
-181.5331454010184
 30
0.0
 10
308.383318410506
 20
-181.4247394984682
 30
0.0
 10
308.2973645321256
 20
-181.3181883458367
 30
0.0
 10
308.2373398686934
 20
-181.2016819731668
 30
0.0
 10
308.1755917294226
 20
-181.0818303769363
 30
0.0
 10
308.1384351416177
 20
-180.9459108567423
 30
0.0
 10
308.1009188845608
 20
-180.807146174973
 30
0.0
  0
SPLINE
  5
15B
330
1003A
100
AcDbEntity
  8
INSETS_D_1_0
100
AcDbSpline
210
0.0
220
0.0
230
1.0
 70
     8
 71
     3
 72
    11
 73
     7
 74
     0
 42
0.000000001
 43
0.001
 40
0.0002603834361438
 40
0.0002603834361438
 40
0.0002603834361438
 40
0.0002603834361438
 40
0.0415391254355612
 40
0.0415391254355612
 40
0.0415391254355612
 40
0.0828177908084981
 40
0.0828177908084981
 40
0.0828177908084981
 40
0.0828177908084981
 10
309.1441491091257
 20
-181.9761874975425
 30
0.0
 10
309.0166475598967
 20
-181.9214296509463
 30
0.0
 10
308.8914664310125
 20
-181.867275252228
 30
0.0
 10
308.7813575716156
 20
-181.7947647561962
 30
0.0
 10
308.6712489166155
 20
-181.7222543947671
 30
0.0
 10
308.5720495342439
 20
-181.6286465637131
 30
0.0
 10
308.4713791708232
 20
-181.5331454010184
 30
0.0
  0
SPLINE
  5
15C
330
1003A
100
AcDbEntity
  8
INSETS_D_1_0
100
AcDbSpline
210
0.0
220
0.0
230
1.0
 70
     8
 71
     3
 72
    11
 73
     7
 74
     0
 42
0.000000001
 43
0.001
 40
0.0001220473906781
 40
0.0001220473906781
 40
0.0001220473906781
 40
0.0001220473906781
 40
0.0427238051461483
 40
0.0427238051461483
 40
0.0427238051461483
 40
0.0841368435677717
 40
0.0841368435677717
 40
0.0841368435677717
 40
0.0841368435677717
 10
309.9574426920135
 20
-182.0297351142017
 30
0.0
 10
309.8151443848799
 20
-182.0500855724802
 30
0.0
 10
309.6756019882484
 20
-182.0696425155663
 30
0.0
 10
309.541106720148
 20
-182.0602601436569
 30
0.0
 10
309.4103642813654
 20
-182.0511395686187
 30
0.0
 10
309.2785248183127
 20
-182.0142649951899
 30
0.0
 10
309.1441491091259
 20
-181.9761874975425
 30
0.0
  0
LINE
  5
15D
330
1003A
100
AcDbEntity
  8
INSETS_D_1_0
100
AcDbLine
 10
309.9574426920135
 20
-182.0297351142017
 30
0.0
 11
313.1110500265836
 21
-181.3804630159077
 31
0.0
  0
SPLINE
  5
15E
330
1003A
100
AcDbEntity
  8
INSETS_D_1_0
100
AcDbSpline
210
0.0
220
0.0
230
1.0
 70
     8
 71
     3
 72
    11
 73
     7
 74
     0
 42
0.000000001
 43
0.001
 40
0.0002595482625724
 40
0.0002595482625724
 40
0.0002595482625724
 40
0.0002595482625724
 40
0.0416724226649344
 40
0.0416724226649344
 40
0.0416724226649344
 40
0.0842742553794444
 40
0.0842742553794444
 40
0.0842742553794444
 40
0.0842742553794444
 10
313.8370480654303
 20
-181.0100023304656
 30
0.0
 10
313.7286421329118
 20
-181.0980630589077
 30
0.0
 10
313.6220909455104
 20
-181.1840169201057
 30
0.0
 10
313.5055845570683
 20
-181.2440416917898
 30
0.0
 10
313.385733285158
 20
-181.3057897669698
 30
0.0
 10
313.2498142257957
 20
-181.3429465552153
 30
0.0
 10
313.1110500265836
 20
-181.3804630159079
 30
0.0
  0
SPLINE
  5
15F
330
1003A
100
AcDbEntity
  8
INSETS_D_1_0
100
AcDbSpline
210
0.0
220
0.0
230
1.0
 70
     8
 71
     3
 72
    11
 73
     7
 74
     0
 42
0.000000001
 43
0.001
 40
0.0002604011355703
 40
0.0002604011355703
 40
0.0002604011355703
 40
0.0002604011355703
 40
0.0415390317682486
 40
0.0415390317682486
 40
0.0415390317682486
 40
0.082817759937332
 40
0.082817759937332
 40
0.082817759937332
 40
0.082817759937332
 10
314.2800915854566
 20
-180.3372340522674
 30
0.0
 10
314.225333678359
 20
-180.4647351750903
 30
0.0
 10
314.1711792149677
 20
-180.5899158681427
 30
0.0
 10
314.0986686996415
 20
-180.7000242478653
 30
0.0
 10
314.0261580129818
 20
-180.8101328877608
 30
0.0
 10
313.9325497130192
 20
-180.9093321161565
 30
0.0
 10
313.8370480654305
 20
-181.0100023304656
 30
0.0
  0
SPLINE
  5
160
330
1003A
100
AcDbEntity
  8
INSETS_D_1_0
100
AcDbSpline
210
0.0
220
0.0
230
1.0
 70
     8
 71
     3
 72
    11
 73
     7
 74
     0
 42
0.000000001
 43
0.001
 40
0.0001220614414839
 40
0.0001220614414839
 40
0.0001220614414839
 40
0.0001220614414839
 40
0.0427240134441376
 40
0.0427240134441376
 40
0.0427240134441376
 40
0.0841368839991359
 40
0.0841368839991359
 40
0.0841368839991359
 40
0.0841368839991359
 10
314.3336389818601
 20
-179.5239390608947
 30
0.0
 10
314.3539885251455
 20
-179.666238048158
 30
0.0
 10
314.3735445965062
 20
-179.8057811994499
 30
0.0
 10
314.3641620671464
 20
-179.9402773751945
 30
0.0
 10
314.3550414176079
 20
-180.0710195701981
 30
0.0
 10
314.3181679313715
 20
-180.2028587322757
 30
0.0
 10
314.2800915854566
 20
-180.3372340522674
 30
0.0
  0
LINE
  5
161
330
1003A
100
AcDbEntity
  8
INSETS_D_1_0
100
AcDbLine
 10
314.3336389818601
 20
-179.5239390608947
 30
0.0
 11
313.3494744382895
 21
-174.7437112778382
 31
0.0
  0
LINE
  5
162
330
1003A
100
AcDbEntity
  8
INSETS_D_1_0
100
AcDbLine
 10
313.3494744382895
 20
-174.7437112778382
 30
0.0
 11
311.7637339055943
 21
-175.0701872698637
 31
0.0
  0
LINE
  5
163
330
1003A
100
AcDbEntity
  8
INSETS_D_1_0
100
AcDbLine
 10
311.7637339055943
 20
-175.0701872698637
 30
0.0
 11
312.7383897208867
 21
-179.8042298012847
 31
0.0
  0
LWPOLYLINE
  5
164
330
1003A
100
AcDbEntity
  8
INSETS_D_1_0
100
AcDbPolyline
 90
        4
 70
     1
 43
0.0
 10
305.0503374478769
 20
-168.3753210006948
 10
303.4537136803228
 20
-168.7040376587206
 10
303.7801899127373
 20
-170.2897793590196
 10
305.3768136802914
 20
-169.9610627009938
  0
LWPOLYLINE
  5
165
330
1003A
100
AcDbEntity
  8
INSETS_D_1_0
100
AcDbPolyline
 90
        4
 70
     1
 43
0.0
 10
313.6429371079312
 20
-184.1977456812147
 10
314.2911166908093
 20
-187.3460465123367
 10
313.3411522393042
 20
-187.5416274288232
 10
312.692972656426
 20
-184.3933265977009
  0
SPLINE
  5
166
330
1003A
100
AcDbEntity
  8
INSETS_D_1_0
100
AcDbSpline
210
0.0
220
0.0
230
1.0
 70
     8
 71
     3
 72
    11
 73
     7
 74
     0
 42
0.000000001
 43
0.001
 40
0.0002603977453137
 40
0.0002603977453137
 40
0.0002603977453137
 40
0.0002603977453137
 40
0.0415391254355612
 40
0.0415391254355612
 40
0.0415391254355612
 40
0.0828179238322092
 40
0.0828179238322092
 40
0.0828179238322092
 40
0.0828179238322092
 10
316.5878967858823
 20
-191.5465736744898
 30
0.0
 10
316.5331389651867
 20
-191.674075185279
 30
0.0
 10
316.4789845853454
 20
-191.7992562701397
 30
0.0
 10
316.4064741054137
 20
-191.9093650722973
 30
0.0
 10
316.333963501279
 20
-192.0194740630607
 30
0.0
 10
316.2403552756921
 20
-192.1186736861644
 30
0.0
 10
316.1448537091894
 20
-192.2193442953926
 30
0.0
  0
SPLINE
  5
167
330
1003A
100
AcDbEntity
  8
INSETS_D_1_0
100
AcDbSpline
210
0.0
220
0.0
230
1.0
 70
     8
 71
     3
 72
    11
 73
     7
 74
     0
 42
0.000000001
 43
0.001
 40
0.0002595516908277
 40
0.0002595516908277
 40
0.0002595516908277
 40
0.0002595516908277
 40
0.0416724226649344
 40
0.0416724226649344
 40
0.0416724226649344
 40
0.084274246722121
 40
0.084274246722121
 40
0.084274246722121
 40
0.084274246722121
 10
316.1448537091898
 20
-192.2193442953928
 30
0.0
 10
316.0364478178842
 20
-192.3074051066485
 30
0.0
 10
315.9298966853346
 20
-192.3933590246197
 30
0.0
 10
315.8133902975696
 20
-192.4533835908267
 30
0.0
 10
315.69353904079
 20
-192.5151314471937
 30
0.0
 10
315.5576198762226
 20
-192.5522877695241
 30
0.0
 10
315.4188555441845
 20
-192.5898037592349
 30
0.0
  0
LINE
  5
168
330
1003A
100
AcDbEntity
  8
INSETS_D_1_0
100
AcDbLine
 10
308.6470663651751
 20
-193.9839956490309
 30
0.0
 11
315.4188555441846
 21
-192.5898037592351
 31
0.0
  0
LINE
  5
169
330
1003A
100
AcDbEntity
  8
INSETS_D_1_0
100
AcDbLine
 10
308.3183497071494
 20
-192.3873718814771
 30
0.0
 11
308.6470663651751
 21
-193.9839956490309
 31
0.0
  0
LINE
  5
16A
330
1003A
100
AcDbEntity
  8
INSETS_D_1_0
100
AcDbLine
 10
315.0439547452957
 20
-191.0026884912706
 30
0.0
 11
308.3183497071494
 21
-192.3873718814771
 31
0.0
  0
LINE
  5
16B
330
1003A
100
AcDbEntity
  8
INSETS_D_1_0
100
AcDbLine
 10
314.7818059580395
 20
-189.729394381741
 30
0.0
 11
315.0439547452957
 21
-191.0026884912706
 31
0.0
  0
LINE
  5
16C
330
1003A
100
AcDbEntity
  8
INSETS_D_1_0
100
AcDbLine
 10
316.3675464907346
 20
-189.4029183897155
 30
0.0
 11
314.7818059580395
 21
-189.729394381741
 31
0.0
  0
LINE
  5
16D
330
1003A
100
AcDbEntity
  8
INSETS_D_1_0
100
AcDbLine
 10
316.6414444296673
 20
-190.7332798073878
 30
0.0
 11
316.3675464907346
 21
-189.4029183897155
 31
0.0
  0
SPLINE
  5
16E
330
1003A
100
AcDbEntity
  8
INSETS_D_1_0
100
AcDbSpline
210
0.0
220
0.0
230
1.0
 70
     8
 71
     3
 72
    11
 73
     7
 74
     0
 42
0.000000001
 43
0.001
 40
0.0001220625326608
 40
0.0001220625326608
 40
0.0001220625326608
 40
0.0001220625326608
 40
0.0427238952470134
 40
0.0427238952470134
 40
0.0427238952470134
 40
0.0841367691878533
 40
0.0841367691878533
 40
0.0841367691878533
 40
0.0841367691878533
 10
316.6414444296673
 20
-190.7332798073878
 30
0.0
 10
316.6617938378317
 20
-190.8755783997669
 30
0.0
 10
316.6813497778053
 20
-191.0151211631844
 30
0.0
 10
316.6719672767307
 20
-191.1496169654995
 30
0.0
 10
316.6628466284044
 20
-191.2803591742725
 30
0.0
 10
316.6259731360658
 20
-191.4121983448954
 30
0.0
 10
316.587896785883
 20
-191.5465736744902
 30
0.0
  0
LINE
  5
16F
330
1003A
100
AcDbEntity
  8
INSETS_D_1_0
100
AcDbLine
 10
313.0603939989996
 20
-204.0144213809697
 30
0.0
 11
313.7133653222506
 21
-203.8799861085358
 31
0.0
  0
LINE
  5
170
330
1003A
100
AcDbEntity
  8
INSETS_D_1_0
100
AcDbLine
 10
313.7133653222506
 20
-203.8799861085358
 30
0.0
 11
313.3452591334642
 21
-202.0920417630018
 31
0.0
  0
LINE
  5
171
330
1003A
100
AcDbEntity
  8
INSETS_D_1_0
100
AcDbLine
 10
313.3452591334642
 20
-202.0920417630018
 30
0.0
 11
312.5643421332927
 21
-202.2528187924488
 31
0.0
  0
SPLINE
  5
172
330
1003A
100
AcDbEntity
  8
INSETS_D_1_0
100
AcDbSpline
210
0.0
220
0.0
230
1.0
 70
     8
 71
     3
 72
    17
 73
    13
 74
     0
 42
0.000000001
 43
0.001
 40
-0.000260193412356
 40
-0.000260193412356
 40
-0.000260193412356
 40
-0.000260193412356
 40
0.0
 40
0.0
 40
0.0
 40
0.0428575360334228
 40
0.0428575360334228
 40
0.0428575360334228
 40
0.0867011395322621
 40
0.0867011395322621
 40
0.0867011395322621
 40
0.0868236583184938
 40
0.0868236583184938
 40
0.0868236583184938
 40
0.0868236583184938
 10
311.7813535297327
 20
-202.65243788515
 30
0.0
 10
311.7820356655466
 20
-202.6518856644011
 30
0.0
 10
311.7827178013601
 20
-202.6513334436522
 30
0.0
 10
311.783399937174
 20
-202.6507812229033
 30
0.0
 10
311.895757356036
 20
-202.5598226531729
 30
0.0
 10
312.0100700126691
 20
-202.4668985360036
 30
0.0
 10
312.1409010567215
 20
-202.399653807109
 30
0.0
 10
312.2747422653322
 20
-202.3308619094892
 30
0.0
 10
312.4203466306512
 20
-202.2917837823743
 30
0.0
 10
312.5631450042686
 20
-202.2531427339575
 30
0.0
 10
312.5635440472763
 20
-202.2530347534546
 30
0.0
 10
312.5639430902841
 20
-202.2529267729517
 30
0.0
 10
312.5643421332927
 20
-202.2528187924488
 30
0.0
  0
SPLINE
  5
173
330
1003A
100
AcDbEntity
  8
INSETS_D_1_0
100
AcDbSpline
210
0.0
220
0.0
230
1.0
 70
     8
 71
     3
 72
    17
 73
    13
 74
     0
 42
0.000000001
 43
0.001
 40
-0.0002626388733929
 40
-0.0002626388733929
 40
-0.0002626388733929
 40
-0.0002626388733929
 40
0.0
 40
0.0
 40
0.0
 40
0.0424766397824195
 40
0.0424766397824195
 40
0.0424766397824195
 40
0.0851001079150341
 40
0.0851001079150341
 40
0.0851001079150341
 40
0.0853609669739389
 40
0.0853609669739389
 40
0.0853609669739389
 40
0.0853609669739389
 10
311.3092374751232
 20
-203.3766760907972
 30
0.0
 10
311.3095772954845
 20
-203.3758604521497
 30
0.0
 10
311.3099171158453
 20
-203.3750448135024
 30
0.0
 10
311.3102569362065
 20
-203.3742291748551
 30
0.0
 10
311.365216154093
 20
-203.2423157662702
 30
0.0
 10
311.4209036425849
 20
-203.1080515249441
 30
0.0
 10
311.5003141618288
 20
-202.9861220798275
 30
0.0
 10
311.5799991781982
 20
-202.8637711630654
 30
0.0
 10
311.6807009355896
 20
-202.758248021305
 30
0.0
 10
311.7795388418845
 20
-202.6543455594613
 30
0.0
 10
311.7801437378337
 20
-202.653709668024
 30
0.0
 10
311.7807486337831
 20
-202.6530737765868
 30
0.0
 10
311.7813535297323
 20
-202.6524378851493
 30
0.0
  0
SPLINE
  5
174
330
1003A
100
AcDbEntity
  8
INSETS_D_1_0
100
AcDbSpline
210
0.0
220
0.0
230
1.0
 70
     8
 71
     3
 72
    17
 73
    13
 74
     0
 42
0.000000001
 43
0.001
 40
-0.0001187901430123
 40
-0.0001187901430123
 40
-0.0001187901430123
 40
-0.0001187901430123
 40
0.0
 40
0.0
 40
0.0
 40
0.0438257821192429
 40
0.0438257821192429
 40
0.0438257821192429
 40
0.0865188754464665
 40
0.0865188754464665
 40
0.0865188754464665
 40
0.0867809655905017
 40
0.0867809655905017
 40
0.0867809655905017
 40
0.0867809655905017
 10
311.2569982717907
 20
-204.2523788649673
 30
0.0
 10
311.2569408955198
 20
-204.251982368527
 30
0.0
 10
311.256883519249
 20
-204.2515858720867
 30
0.0
 10
311.2568261429782
 20
-204.2511893756462
 30
0.0
 10
311.2356580571077
 20
-204.104908159316
 30
0.0
 10
311.2137972761659
 20
-203.9559276290613
 30
0.0
 10
311.2232399740401
 20
-203.8058511187023
 30
0.0
 10
311.23243862292
 20
-203.6596533749735
 30
0.0
 10
311.270981015381
 20
-203.5181799571101
 30
0.0
 10
311.3085456544426
 20
-203.3792350129279
 30
0.0
 10
311.3087762613368
 20
-203.3783820388846
 30
0.0
 10
311.3090068682311
 20
-203.3775290648414
 30
0.0
 10
311.3092374751257
 20
-203.3766760907979
 30
0.0
  0
LINE
  5
175
330
1003A
100
AcDbEntity
  8
INSETS_D_1_0
100
AcDbLine
 10
311.2569982717908
 20
-204.2523788649673
 30
0.0
 11
312.2052517522031
 21
-208.8581814841132
 31
0.0
  0
SPLINE
  5
176
330
1003A
100
AcDbEntity
  8
INSETS_D_1_0
100
AcDbSpline
210
0.0
220
0.0
230
1.0
 70
     8
 71
     3
 72
    17
 73
    13
 74
     0
 42
0.000000001
 43
0.001
 40
-0.0002632021994593
 40
-0.0002632021994593
 40
-0.0002632021994593
 40
-0.0002632021994593
 40
0.0
 40
0.0
 40
0.0
 40
0.0426931344836064
 40
0.0426931344836064
 40
0.0426931344836064
 40
0.0865189018218989
 40
0.0865189018218989
 40
0.0865189018218989
 40
0.0866376923563392
 40
0.0866376923563392
 40
0.0866376923563392
 40
0.0866376923563392
 10
312.5991702520371
 20
-209.6420387972498
 30
0.0
 10
312.5986191292429
 20
-209.6413433496439
 30
0.0
 10
312.5980680064483
 20
-209.6406479020377
 30
0.0
 10
312.597516883654
 20
-209.6399524544315
 30
0.0
 10
312.5081211277484
 20
-209.5271462611902
 30
0.0
 10
312.4168283403158
 20
-209.412403463022
 30
0.0
 10
312.3506266305255
 20
-209.2817291790282
 30
0.0
 10
312.2826686141896
 20
-209.1475881552619
 30
0.0
 10
312.2439010925518
 20
-209.0020884906273
 30
0.0
 10
312.2055634964448
 20
-208.8593422330473
 30
0.0
 10
312.2054595816976
 20
-208.8589553167362
 30
0.0
 10
312.2053556669505
 20
-208.8585684004252
 30
0.0
 10
312.2052517522031
 20
-208.8581814841132
 30
0.0
  0
SPLINE
  5
177
330
1003A
100
AcDbEntity
  8
INSETS_D_1_0
100
AcDbSpline
210
0.0
220
0.0
230
1.0
 70
     8
 71
     3
 72
    17
 73
    13
 74
     0
 42
0.000000001
 43
0.001
 40
-0.0002636343183597
 40
-0.0002636343183597
 40
-0.0002636343183597
 40
-0.0002636343183597
 40
0.0
 40
0.0
 40
0.0
 40
0.0423667668235187
 40
0.0423667668235187
 40
0.0423667668235187
 40
0.0847335872351593
 40
0.0847335872351593
 40
0.0847335872351593
 40
0.0849972218952087
 40
0.0849972218952087
 40
0.0849972218952087
 40
0.0849972218952087
 10
313.318222659997
 20
-210.1155612436667
 30
0.0
 10
313.3174037504448
 20
-210.1152195292079
 30
0.0
 10
313.3165848408919
 20
-210.114877814749
 30
0.0
 10
313.3157659313392
 20
-210.11453610029
 30
0.0
 10
313.1841648928685
 20
-210.0596216381252
 30
0.0
 10
313.0501532351853
 20
-210.0039654597924
 30
0.0
 10
312.9288684009
 20
-209.9240949651205
 30
0.0
 10
312.807583413206
 20
-209.8442243694235
 30
0.0
 10
312.7035161283534
 20
-209.7430967831297
 30
0.0
 10
312.6010824837433
 20
-209.6438907754145
 30
0.0
 10
312.600445073175
 20
-209.6432734493592
 30
0.0
 10
312.5998076626067
 20
-209.6426561233041
 30
0.0
 10
312.5991702520384
 20
-209.6420387972487
 30
0.0
  0
SPLINE
  5
178
330
1003A
100
AcDbEntity
  8
INSETS_D_1_0
100
AcDbSpline
210
0.0
220
0.0
230
1.0
 70
     8
 71
     3
 72
    17
 73
    13
 74
     0
 42
0.000000001
 43
0.001
 40
-0.0001187893025377
 40
-0.0001187893025377
 40
-0.0001187893025377
 40
-0.0001187893025377
 40
0.0
 40
0.0
 40
0.0
 40
0.0438257797580668
 40
0.0438257797580668
 40
0.0438257797580668
 40
0.0865189337776213
 40
0.0865189337776213
 40
0.0865189337776213
 40
0.0867821356154936
 40
0.0867821356154936
 40
0.0867821356154936
 40
0.0867821356154936
 10
314.1939368679347
 20
-210.1678032213806
 30
0.0
 10
314.19354037432
 20
-210.1678605974125
 30
0.0
 10
314.1931438807064
 20
-210.1679179734442
 30
0.0
 10
314.1927473870928
 20
-210.1679753494757
 30
0.0
 10
314.0464661865759
 20
-210.1891434957117
 30
0.0
 10
313.8974856725877
 20
-210.2110043381419
 30
0.0
 10
313.7474091679906
 20
-210.201561704361
 30
0.0
 10
313.6012112141642
 20
-210.1923631043458
 30
0.0
 10
313.4597375865264
 20
-210.1538206739594
 30
0.0
 10
313.3207924363282
 20
-210.1162559984948
 30
0.0
 10
313.319935844218
 20
-210.1160244135522
 30
0.0
 10
313.3190792521077
 20
-210.1157928286095
 30
0.0
 10
313.3182226599979
 20
-210.1155612436671
 30
0.0
  0
LINE
  5
179
330
1003A
100
AcDbEntity
  8
INSETS_D_1_0
100
AcDbLine
 10
314.1939368679334
 20
-210.1678032213808
 30
0.0
 11
318.8106216678921
 21
-209.2173092919772
 31
0.0
  0
SPLINE
  5
17A
330
1003A
100
AcDbEntity
  8
INSETS_D_1_0
100
AcDbSpline
210
0.0
220
0.0
230
1.0
 70
     8
 71
     3
 72
    17
 73
    13
 74
     0
 42
0.000000001
 43
0.001
 40
-0.0002631941036096
 40
-0.0002631941036096
 40
-0.0002631941036096
 40
-0.0002631941036096
 40
0.0
 40
0.0
 40
0.0
 40
0.042693044269225
 40
0.042693044269225
 40
0.042693044269225
 40
0.0865188831510974
 40
0.0865188831510974
 40
0.0865188831510974
 40
0.0866376712361231
 40
0.0866376712361231
 40
0.0866376712361231
 40
0.0866376712361231
 10
319.5944787046682
 20
-208.8233908910736
 30
0.0
 10
319.5937832792395
 20
-208.8239419980944
 30
0.0
 10
319.5930878538111
 20
-208.8244931051147
 30
0.0
 10
319.5923924283827
 20
-208.8250442121353
 30
0.0
 10
319.479586601075
 20
-208.9144399702529
 30
0.0
 10
319.3648441635876
 20
-209.0057327733527
 30
0.0
 10
319.2341701754879
 20
-209.0719344301006
 30
0.0
 10
319.1000289530348
 20
-209.139892646527
 30
0.0
 10
318.954528957114
 20
-209.1786600626667
 30
0.0
 10
318.8117823934851
 20
-209.2169975555123
 30
0.0
 10
318.8113954849541
 20
-209.2171014676671
 30
0.0
 10
318.8110085764231
 20
-209.2172053798222
 30
0.0
 10
318.8106216678921
 20
-209.2173092919772
 30
0.0
  0
SPLINE
  5
17B
330
1003A
100
AcDbEntity
  8
INSETS_D_1_0
100
AcDbSpline
210
0.0
220
0.0
230
1.0
 70
     8
 71
     3
 72
    17
 73
    13
 74
     0
 42
0.000000001
 43
0.001
 40
-0.0002636294696124
 40
-0.0002636294696124
 40
-0.0002636294696124
 40
-0.0002636294696124
 40
0.0
 40
0.0
 40
0.0
 40
0.0423667414461532
 40
0.0423667414461532
 40
0.0423667414461532
 40
0.0847336070193644
 40
0.0847336070193644
 40
0.0847336070193644
 40
0.084997233529629
 40
0.084997233529629
 40
0.084997233529629
 40
0.084997233529629
 10
320.068001012321
 20
-208.1043382881649
 30
0.0
 10
320.0676593065332
 20
-208.1051571839134
 30
0.0
 10
320.0673176007454
 20
-208.1059760796622
 30
0.0
 10
320.0669758949575
 20
-208.106794975411
 30
0.0
 10
320.0120618491719
 20
-208.2383961371288
 30
0.0
 10
319.9564060878336
 20
-208.3724079543008
 30
0.0
 10
319.876535673656
 20
-208.4936927880105
 30
0.0
 10
319.7966650254721
 20
-208.6149779770633
 30
0.0
 10
319.6955370207547
 20
-208.7190451785928
 30
0.0
 10
319.596330630745
 20
-208.8214787224017
 30
0.0
 10
319.5957133220525
 20
-208.8221161119588
 30
0.0
 10
319.5950960133598
 20
-208.8227535015162
 30
0.0
 10
319.594478704667
 20
-208.8233908910738
 30
0.0
  0
SPLINE
  5
17C
330
1003A
100
AcDbEntity
  8
INSETS_D_1_0
100
AcDbSpline
210
0.0
220
0.0
230
1.0
 70
     8
 71
     3
 72
    17
 73
    13
 74
     0
 42
0.000000001
 43
0.001
 40
-0.0001187938763646
 40
-0.0001187938763646
 40
-0.0001187938763646
 40
-0.0001187938763646
 40
0.0
 40
0.0
 40
0.0
 40
0.0438257748941107
 40
0.0438257748941107
 40
0.0438257748941107
 40
0.0865189093777171
 40
0.0865189093777171
 40
0.0865189093777171
 40
0.0867821064914906
 40
0.0867821064914906
 40
0.0867821064914906
 40
0.0867821064914906
 10
320.1202436585095
 20
-207.2286243613139
 30
0.0
 10
320.1203010358392
 20
-207.2290208702591
 30
0.0
 10
320.120358413169
 20
-207.2294173792043
 30
0.0
 10
320.1204157904989
 20
-207.2298138881495
 30
0.0
 10
320.1415835982823
 20
-207.376095096382
 30
0.0
 10
320.1634440890665
 20
-207.5250756013213
 30
0.0
 10
320.1540013338094
 20
-207.6751520612609
 30
0.0
 10
320.1448026186458
 20
-207.8213499209107
 30
0.0
 10
320.1062603137782
 20
-207.9628234695767
 30
0.0
 10
320.0686957528792
 20
-208.1017685579261
 30
0.0
 10
320.0684641726937
 20
-208.1026251346723
 30
0.0
 10
320.0682325925079
 20
-208.1034817114187
 30
0.0
 10
320.0680010123224
 20
-208.1043382881644
 30
0.0
  0
LINE
  5
17D
330
1003A
100
AcDbEntity
  8
INSETS_D_1_0
100
AcDbLine
 10
320.1202436585095
 20
-207.2286243613139
 30
0.0
 11
319.1719901645157
 21
-202.622821676202
 31
0.0
  0
SPLINE
  5
17E
330
1003A
100
AcDbEntity
  8
INSETS_D_1_0
100
AcDbSpline
210
0.0
220
0.0
230
1.0
 70
     8
 71
     3
 72
    17
 73
    13
 74
     0
 42
0.000000001
 43
0.001
 40
-0.0002620846994358
 40
-0.0002620846994358
 40
-0.0002620846994358
 40
-0.0002620846994358
 40
0.0
 40
0.0
 40
0.0
 40
0.0426930933272237
 40
0.0426930933272237
 40
0.0426930933272237
 40
0.0865188830022822
 40
0.0865188830022822
 40
0.0865188830022822
 40
0.0866376764871671
 40
0.0866376764871671
 40
0.0866376764871671
 40
0.0866376764871671
 10
318.7780781627782
 20
-201.8389736580293
 30
0.0
 10
318.7786269456844
 20
-201.8396661527725
 30
0.0
 10
318.7791757285906
 20
-201.8403586475154
 30
0.0
 10
318.7797245114967
 20
-201.8410511422585
 30
0.0
 10
318.869120191144
 20
-201.9538572036483
 30
0.0
 10
318.9604128941769
 20
-202.0685998627582
 30
0.0
 10
319.0266146609047
 20
-202.1992739502625
 30
0.0
 10
319.0945728358371
 20
-202.333414970007
 30
0.0
 10
319.1333405880182
 20
-202.4789146342532
 30
0.0
 10
319.1716784108467
 20
-202.6216608989726
 30
0.0
 10
319.1717823287365
 20
-202.6220478247155
 30
0.0
 10
319.1718862466262
 20
-202.6224347504588
 30
0.0
 10
319.1719901645157
 20
-202.622821676202
 30
0.0
  0
SPLINE
  5
17F
330
1003A
100
AcDbEntity
  8
INSETS_D_1_0
100
AcDbSpline
210
0.0
220
0.0
230
1.0
 70
     8
 71
     3
 72
    17
 73
    13
 74
     0
 42
0.000000001
 43
0.001
 40
-0.0002608508027307
 40
-0.0002608508027307
 40
-0.0002608508027307
 40
-0.0002608508027307
 40
0.0
 40
0.0
 40
0.0
 40
0.042623561747652
 40
0.042623561747652
 40
0.042623561747652
 40
0.0851001286399207
 40
0.0851001286399207
 40
0.0851001286399207
 40
0.0853627619645978
 40
0.0853627619645978
 40
0.0853627619645978
 40
0.0853627619645978
 10
318.0582690780493
 20
-201.3601317313824
 30
0.0
 10
318.05907594513
 20
-201.3604769476547
 30
0.0
 10
318.0598828122108
 20
-201.3608221639272
 30
0.0
 10
318.0606896792915
 20
-201.3611673801997
 30
0.0
 10
318.1925334324242
 20
-201.4175764345459
 30
0.0
 10
318.3267297015427
 20
-201.4747381053878
 30
0.0
 10
318.4482655267868
 20
-201.5556615190644
 30
0.0
 10
318.5693822143446
 20
-201.6363058541046
 30
0.0
 10
318.6735774863625
 20
-201.7376531675964
 30
0.0
 10
318.7761750749564
 20
-201.8371284853554
 30
0.0
 10
318.7768094375656
 20
-201.8377435429115
 30
0.0
 10
318.7774438001746
 20
-201.8383586004677
 30
0.0
 10
318.7780781627839
 20
-201.8389736580243
 30
0.0
  0
SPLINE
  5
180
330
1003A
100
AcDbEntity
  8
INSETS_D_1_0
100
AcDbSpline
210
0.0
220
0.0
230
1.0
 70
     8
 71
     3
 72
    17
 73
    13
 74
     0
 42
0.000000001
 43
0.001
 40
-0.0001225175484534
 40
-0.0001225175484534
 40
-0.0001225175484534
 40
-0.0001225175484534
 40
0.0
 40
0.0
 40
0.0
 40
0.0438436625986092
 40
0.0438436625986092
 40
0.0438436625986092
 40
0.0867010893026559
 40
0.0867010893026559
 40
0.0867010893026559
 40
0.0869612745458327
 40
0.0869612745458327
 40
0.0869612745458327
 40
0.0869612745458327
 10
317.1811019855961
 20
-201.3023094110924
 30
0.0
 10
317.1815112257384
 20
-201.3022509798443
 30
0.0
 10
317.1819204658811
 20
-201.3021925485962
 30
0.0
 10
317.1823297060237
 20
-201.3021341173478
 30
0.0
 10
317.3287788225655
 20
-201.2812241337353
 30
0.0
 10
317.4779783979222
 20
-201.2596072489146
 30
0.0
 10
317.6281090339116
 20
-201.2699345259884
 30
0.0
 10
317.7748625747108
 20
-201.280029497394
 30
0.0
 10
317.916584999324
 20
-201.3202405163452
 30
0.0
 10
318.0557347647466
 20
-201.3594181943488
 30
0.0
 10
318.056579535848
 20
-201.359656040026
 30
0.0
 10
318.0574243069491
 20
-201.3598938857033
 30
0.0
 10
318.0582690780504
 20
-201.3601317313805
 30
0.0
  0
LINE
  5
181
330
1003A
100
AcDbEntity
  8
INSETS_D_1_0
100
AcDbLine
 10
317.1811019855961
 20
-201.3023094110924
 30
0.0
 11
314.1800827319912
 21
-201.9201663162464
 31
0.0
  0
LINE
  5
182
330
1003A
100
AcDbEntity
  8
INSETS_D_1_0
100
AcDbLine
 10
314.1800827319912
 20
-201.9201663162464
 30
0.0
 11
314.8977206771838
 21
-205.4058363357535
 31
0.0
  0
LINE
  5
183
330
1003A
100
AcDbEntity
  8
INSETS_D_1_0
100
AcDbLine
 10
314.8977206771838
 20
-205.4058363357535
 30
0.0
 11
316.674782371661
 21
-205.0399706927731
 31
0.0
  0
LINE
  5
184
330
1003A
100
AcDbEntity
  8
INSETS_D_1_0
100
AcDbLine
 10
316.674782371661
 20
-205.0399706927731
 30
0.0
 11
316.3252506152546
 21
-203.3422450187998
 31
0.0
  0
LINE
  5
185
330
1003A
100
AcDbEntity
  8
INSETS_D_1_0
100
AcDbLine
 10
316.3252506152546
 20
-203.3422450187998
 30
0.0
 11
317.421263093363
 21
-203.116595390954
 31
0.0
  0
LINE
  5
186
330
1003A
100
AcDbEntity
  8
INSETS_D_1_0
100
AcDbLine
 10
317.421263093363
 20
-203.116595390954
 30
0.0
 11
318.3190891134276
 21
-207.4774646312676
 31
0.0
  0
LINE
  5
187
330
1003A
100
AcDbEntity
  8
INSETS_D_1_0
100
AcDbLine
 10
318.3190891134276
 20
-207.4774646312676
 30
0.0
 11
313.9582200190644
 21
-208.3752906212835
 31
0.0
  0
LINE
  5
188
330
1003A
100
AcDbEntity
  8
INSETS_D_1_0
100
AcDbLine
 10
313.9582200190644
 20
-208.3752906212835
 30
0.0
 11
313.0603939989996
 21
-204.0144213809697
 31
0.0
  0
LWPOLYLINE
  5
189
330
1003A
100
AcDbEntity
  8
INSETS_D_1_0
100
AcDbPolyline
 90
        4
 70
     1
 43
0.0
 10
294.9676371403373
 20
-124.7309445260294
 10
302.7239569988453
 20
-123.1340551433955
 10
302.3974807664308
 20
-121.5483134430966
 10
294.6411609079228
 20
-123.1452028257305
  0
SPLINE
  5
18A
330
1003A
100
AcDbEntity
  8
INSETS_D_1_0
100
AcDbSpline
210
0.0
220
0.0
230
1.0
 70
     8
 71
     3
 72
    11
 73
     7
 74
     0
 42
0.000000001
 43
0.001
 40
0.0002544271960273
 40
0.0002544271960273
 40
0.0002544271960273
 40
0.0002544271960273
 40
0.0420545070811802
 40
0.0420545070811802
 40
0.0420545070811802
 40
0.0847932559410968
 40
0.0847932559410968
 40
0.0847932559410968
 40
0.0847932559410968
 10
299.9315369794992
 20
-140.0533181106455
 30
0.0
 10
299.8431756782759
 20
-139.943519513816
 30
0.0
 10
299.756888621908
 20
-139.8355720838397
 30
0.0
 10
299.6965475600648
 20
-139.7176922269657
 30
0.0
 10
299.6348514701253
 20
-139.5971652420312
 30
0.0
 10
299.5975029960748
 20
-139.4608258041128
 30
0.0
 10
299.5597947326316
 20
-139.3216860084588
 30
0.0
  0
LINE
  5
18B
330
1003A
100
AcDbEntity
  8
INSETS_D_1_0
100
AcDbLine
 10
298.8512252044663
 20
-135.8800625859415
 30
0.0
 11
299.5597947326316
 21
-139.3216860084588
 31
0.0
  0
LINE
  5
18C
330
1003A
100
AcDbEntity
  8
INSETS_D_1_0
100
AcDbLine
 10
300.4369663209634
 20
-135.5535864737215
 30
0.0
 11
298.8512252044663
 21
-135.8800625859415
 31
0.0
  0
LINE
  5
18D
330
1003A
100
AcDbEntity
  8
INSETS_D_1_0
100
AcDbLine
 10
301.1382704997762
 20
-138.9599210565268
 30
0.0
 11
300.4369663209634
 21
-135.5535864737215
 31
0.0
  0
LINE
  5
18E
330
1003A
100
AcDbEntity
  8
INSETS_D_1_0
100
AcDbLine
 10
305.7852494875348
 20
-138.003190088459
 30
0.0
 11
301.1382704997762
 21
-138.9599210565268
 31
0.0
  0
LINE
  5
18F
330
1003A
100
AcDbEntity
  8
INSETS_D_1_0
100
AcDbLine
 10
306.1117257199494
 20
-139.5889317887579
 30
0.0
 11
305.7852494875348
 21
-138.003190088459
 31
0.0
  0
LINE
  5
190
330
1003A
100
AcDbEntity
  8
INSETS_D_1_0
100
AcDbLine
 10
301.4185621069337
 20
-140.5551713561431
 30
0.0
 11
306.1117257199494
 21
-139.5889317887579
 31
0.0
  0
SPLINE
  5
191
330
1003A
100
AcDbEntity
  8
INSETS_D_1_0
100
AcDbSpline
210
0.0
220
0.0
230
1.0
 70
     8
 71
     3
 72
    11
 73
     7
 74
     0
 42
0.000000001
 43
0.001
 40
0.0001220658067507
 40
0.0001220658067507
 40
0.0001220658067507
 40
0.0001220658067507
 40
0.0427238361484534
 40
0.0427238361484534
 40
0.0427238361484534
 40
0.0841327102723062
 40
0.0841327102723062
 40
0.0841327102723062
 40
0.0841327102723062
 10
301.4185621069337
 20
-140.5551713561431
 30
0.0
 10
301.2762637640791
 20
-140.5755204957811
 30
0.0
 10
301.136721194146
 20
-140.5950761932629
 30
0.0
 10
301.0022253842753
 20
-140.5856940814369
 30
0.0
 10
300.871495604352
 20
-140.5765746790155
 30
0.0
 10
300.7396690103317
 20
-140.539708389636
 30
0.0
 10
300.6053069522618
 20
-140.5016368764941
 30
0.0
  0
SPLINE
  5
192
330
1003A
100
AcDbEntity
  8
INSETS_D_1_0
100
AcDbSpline
210
0.0
220
0.0
230
1.0
 70
     8
 71
     3
 72
    11
 73
     7
 74
     0
 42
0.000000001
 43
0.001
 40
0.0002643101908839
 40
0.0002643101908839
 40
0.0002643101908839
 40
0.0002643101908839
 40
0.0416253950678319
 40
0.0416253950678319
 40
0.0416253950678319
 40
0.0832374069191705
 40
0.0832374069191705
 40
0.0832374069191705
 40
0.0832374069191705
 10
300.6053069522618
 20
-140.5016368764941
 30
0.0
 10
300.4776308436788
 20
-140.4465070121219
 30
0.0
 10
300.3523029950907
 20
-140.3919877634592
 30
0.0
 10
300.2423330181209
 20
-140.3189298993657
 30
0.0
 10
300.1316958818229
 20
-140.2454288121594
 30
0.0
 10
300.0323578296111
 20
-140.150342729354
 30
0.0
 10
299.9315369794995
 20
-140.0533181106453
 30
0.0
  0
LINE
  5
193
330
1003A
100
AcDbEntity
  8
INSETS_D_1_0
100
AcDbLine
 10
310.694973002956
 20
-169.8790628856209
 30
0.0
 11
311.1766996061849
 21
-172.2188778155901
 31
0.0
  0
LINE
  5
194
330
1003A
100
AcDbEntity
  8
INSETS_D_1_0
100
AcDbLine
 10
311.1766996061849
 20
-172.2188778155901
 30
0.0
 11
308.1154611511215
 21
-172.8491327916327
 31
0.0
  0
LINE
  5
195
330
1003A
100
AcDbEntity
  8
INSETS_D_1_0
100
AcDbLine
 10
308.1154611511215
 20
-172.8491327916327
 30
0.0
 11
307.6337345478926
 21
-170.5093178616632
 31
0.0
  0
LINE
  5
196
330
1003A
100
AcDbEntity
  8
INSETS_D_1_0
100
AcDbLine
 10
307.6337345478926
 20
-170.5093178616632
 30
0.0
 11
306.0479934313955
 21
-170.8357939738833
 31
0.0
  0
LINE
  5
197
330
1003A
100
AcDbEntity
  8
INSETS_D_1_0
100
AcDbLine
 10
306.0479934313955
 20
-170.8357939738833
 30
0.0
 11
306.5297200346245
 21
-173.1756089038527
 31
0.0
  0
LINE
  5
198
330
1003A
100
AcDbEntity
  8
INSETS_D_1_0
100
AcDbLine
 10
306.5297200346245
 20
-173.1756089038527
 30
0.0
 11
304.6578690247321
 21
-173.5609899941246
 31
0.0
  0
LINE
  5
199
330
1003A
100
AcDbEntity
  8
INSETS_D_1_0
100
AcDbLine
 10
304.6578690247321
 20
-173.5609899941246
 30
0.0
 11
304.9843452571465
 21
-175.1467316944234
 31
0.0
  0
LINE
  5
19A
330
1003A
100
AcDbEntity
  8
INSETS_D_1_0
100
AcDbLine
 10
304.9843452571465
 20
-175.1467316944234
 30
0.0
 11
311.5493599118856
 21
-173.7951110302124
 31
0.0
  0
SPLINE
  5
19B
330
1003A
100
AcDbEntity
  8
INSETS_D_1_0
100
AcDbSpline
210
0.0
220
0.0
230
1.0
 70
     8
 71
     3
 72
    11
 73
     7
 74
     0
 42
0.000000001
 43
0.001
 40
0.0002595482628435
 40
0.0002595482628435
 40
0.0002595482628435
 40
0.0002595482628435
 40
0.0416724226649344
 40
0.0416724226649344
 40
0.0416724226649344
 40
0.0842742553790707
 40
0.0842742553790707
 40
0.0842742553790707
 40
0.0842742553790707
 10
312.2753579507264
 20
-173.4246503447728
 30
0.0
 10
312.1669520182086
 20
-173.5127110732139
 30
0.0
 10
312.0604008308078
 20
-173.5986649344113
 30
0.0
 10
311.9438944423664
 20
-173.6586897060952
 30
0.0
 10
311.8240431704571
 20
-173.7204377812745
 30
0.0
 10
311.6881241110964
 20
-173.7575945695201
 30
0.0
 10
311.5493599118856
 20
-173.7951110302124
 30
0.0
  0
SPLINE
  5
19C
330
1003A
100
AcDbEntity
  8
INSETS_D_1_0
100
AcDbSpline
210
0.0
220
0.0
230
1.0
 70
     8
 71
     3
 72
    11
 73
     7
 74
     0
 42
0.000000001
 43
0.001
 40
0.0002667100163182
 40
0.0002667100163182
 40
0.0002667100163182
 40
0.0002667100163182
 40
0.0415390317682486
 40
0.0415390317682486
 40
0.0415390317682486
 40
0.0828177599375961
 40
0.0828177599375961
 40
0.0828177599375961
 40
0.0828177599375961
 10
312.7183763637083
 20
-172.7519405270821
 30
0.0
 10
312.6636270690005
 20
-172.8794214791135
 30
0.0
 10
312.6094780180135
 20
-173.0045807110257
 30
0.0
 10
312.5369785849397
 20
-173.1146722621709
 30
0.0
 10
312.4644678982796
 20
-173.2247809020669
 30
0.0
 10
312.3708595983162
 20
-173.323980130463
 30
0.0
 10
312.2753579507267
 20
-173.424650344773
 30
0.0
  0
SPLINE
  5
19D
330
1003A
100
AcDbEntity
  8
INSETS_D_1_0
100
AcDbSpline
210
0.0
220
0.0
230
1.0
 70
     8
 71
     3
 72
    11
 73
     7
 74
     0
 42
0.000000001
 43
0.001
 40
0.0001162623045261
 40
0.0001162623045261
 40
0.0001162623045261
 40
0.0001162623045261
 40
0.0435503461578782
 40
0.0435503461578782
 40
0.0435503461578782
 40
0.0852116233809764
 40
0.0852116233809764
 40
0.0852116233809764
 40
0.0852116233809764
 10
312.769720260146
 20
-171.9277624125696
 30
0.0
 10
312.7908886240509
 20
-172.0727931959973
 30
0.0
 10
312.8112526743944
 20
-172.2150528493191
 30
0.0
 10
312.8019072597153
 20
-172.3522714055327
 30
0.0
 10
312.7929432877106
 20
-172.4838892457954
 30
0.0
 10
312.7562538893511
 20
-172.6166545901028
 30
0.0
 10
312.7183763637083
 20
-172.7519405270821
 30
0.0
  0
LINE
  5
19E
330
1003A
100
AcDbEntity
  8
INSETS_D_1_0
100
AcDbLine
 10
312.769720260146
 20
-171.9277624125696
 30
0.0
 11
312.2807135356511
 21
-169.5525868935954
 31
0.0
  0
LINE
  5
19F
330
1003A
100
AcDbEntity
  8
INSETS_D_1_0
100
AcDbLine
 10
312.2807135356511
 20
-169.5525868935954
 30
0.0
 11
310.694973002956
 21
-169.8790628856209
 31
0.0
  0
LWPOLYLINE
  5
1A0
330
1003A
100
AcDbEntity
  8
INSETS_D_1_0
100
AcDbPolyline
 90
        4
 70
     1
 43
0.0
 10
315.9529837047298
 20
-195.4179720085217
 10
316.6011632876077
 20
-198.5662728396439
 10
315.6511988361028
 20
-198.7618537561302
 10
315.0030192532247
 20
-195.6135529250082
  0
LWPOLYLINE
  5
1A1
330
1003A
100
AcDbEntity
  8
INSETS_D_1_0
100
AcDbPolyline
 90
        4
 70
     1
 43
0.0
 10
305.8479321444645
 20
-169.8640677230758
 10
312.0806522487203
 20
-168.5808606427879
 10
311.7541760163057
 20
-166.9951189424889
 10
305.52145591205
 20
-168.2783260227768
  0
CIRCLE
  5
1A2
330
1003A
100
AcDbEntity
  8
HOLES_DIAM_38_0_D_5_0
100
AcDbCircle
 10
390.8849459044785
 20
-53.27964073356972
 30
0.0
 40
18.9595
  0
CIRCLE
  5
1A3
330
1003A
100
AcDbEntity
  8
HOLES_DIAM_38_0_D_5_0
100
AcDbCircle
 10
495.3401973973168
 20
-54.3564989963825
 30
0.0
 40
18.9595
  0
CIRCLE
  5
1A4
330
1003A
100
AcDbEntity
  8
HOLES_DIAM_38_0_D_5_0
100
AcDbCircle
 10
584.193336967634
 20
-130.4594999999998
 30
0.0
 40
18.9595
  0
CIRCLE
  5
1A5
330
1003A
100
AcDbEntity
  8
HOLES_DIAM_5_0_D_5_0
100
AcDbCircle
 10
420.5463159840955
 20
-70.40464073356961
 30
0.0
 40
2.459500000000006
  0
CIRCLE
  5
1A6
330
1003A
100
AcDbEntity
  8
HOLES_DIAM_5_0_D_5_0
100
AcDbCircle
 10
525.0015674769338
 20
-71.48149899638238
 30
0.0
 40
2.459500000000006
  0
CIRCLE
  5
1A7
330
1003A
100
AcDbEntity
  8
HOLES_DIAM_2_5_D_5_0
100
AcDbCircle
 10
283.9907837381667
 20
-260.6169949064101
 30
0.0
 40
1.209500000000006
  0
CIRCLE
  5
1A8
330
1003A
100
AcDbEntity
  8
HOLES_DIAM_2_5_D_5_0
100
AcDbCircle
 10
271.9907837381667
 20
-260.630218966044
 30
0.0
 40
1.209500000000006
  0
CIRCLE
  5
1A9
330
1003A
100
AcDbEntity
  8
HOLES_DIAM_2_5_D_5_0
100
AcDbCircle
 10
23.99078373816664
 20
-260.6169949064101
 30
0.0
 40
1.209499999999997
  0
CIRCLE
  5
1AA
330
1003A
100
AcDbEntity
  8
HOLES_DIAM_2_5_D_5_0
100
AcDbCircle
 10
11.99078373816664
 20
-260.630218966044
 30
0.0
 40
1.209499999999992
  0
VIEWPORT
  5
100EB
330
10036
100
AcDbEntity
 67
     1
  8
0
100
AcDbViewport
 10
5.25
 20
4.0
 30
0.0
 40
11.638
 41
8.993
 68
     1
 69
     1
1001
ACAD
1000
MVIEW
1002
{
1070
    16
1010
0.0
1020
0.0
1030
0.0
1010
0.0
1020
0.0
1030
1.0
1040
0.0
1040
8.993
1040
5.25
1040
4.0
1040
50.0
1040
0.0
1040
0.0
1070
     0
1070
   100
1070
     0
1070
     3
1070
     0
1070
     0
1070
     0
1070
     0
1040
0.0
1040
0.0
1040
0.0
1040
0.5
1040
0.5
1040
0.5
1040
0.5
1070
     0
1002
{
1002
}
1002
}
  0
ENDSEC
  0
SECTION
  2
OBJECTS
  0
DICTIONARY
  5
10028
330
0
100
AcDbDictionary
  3
ACAD_GROUP
350
10029
  3
ACAD_LAYOUT
350
10035
  3
ACAD_MATERIAL
350
1005E
  3
ACAD_MLEADERSTYLE
350
10076
  3
ACAD_MLINESTYLE
350
10032
  3
ACAD_PLOTSETTINGS
350
10034
  3
ACAD_SCALELIST
350
10062
  3
ACAD_VISUALSTYLE
350
10045
  3
ACDBHEADERROUNDTRIPXREC
350
100ED
  3
ACDBVARIABLEDICTIONARY
350
1010E
  3
DWGPROPS
350
10115
  3
QCAD_OBJECTS
350
1007A
  0
DICTIONARY
  5
10116
330
10024
100
AcDbDictionary
280
     1
  3
ACAD_XREC_ROUNDTRIP
360
10117
  0
DICTIONARY
  5
10029
102
{ACAD_REACTORS
330
10028
102
}
330
10028
100
AcDbDictionary
  0
DICTIONARY
  5
10035
102
{ACAD_REACTORS
330
10028
102
}
330
10028
100
AcDbDictionary
  0
DICTIONARY
  5
1005E
102
{ACAD_REACTORS
330
10028
102
}
330
10028
100
AcDbDictionary
  3
BYBLOCK
350
10060
  3
BYLAYER
350
1005F
  3
GLOBAL
350
10061
  0
DICTIONARY
  5
10076
102
{ACAD_REACTORS
330
10028
102
}
330
10028
100
AcDbDictionary
  3
STANDARD
350
10077
  0
DICTIONARY
  5
10032
102
{ACAD_REACTORS
330
10028
102
}
330
10028
100
AcDbDictionary
  3
STANDARD
350
10033
  0
DICTIONARY
  5
10034
102
{ACAD_REACTORS
330
10028
102
}
330
10028
100
AcDbDictionary
  0
DICTIONARY
  5
10062
102
{ACAD_REACTORS
330
10028
102
}
330
10028
100
AcDbDictionary
  3
A0
350
10063
  3
A1
350
10064
  3
A2
350
10065
  3
A3
350
10066
  3
A4
350
10067
  3
A5
350
10068
  3
A6
350
10069
  3
A7
350
1006A
  3
A8
350
1006B
  3
A9
350
1006C
  3
B1
350
1006D
  3
B2
350
1006E
  3
B3
350
1006F
  3
B4
350
10070
  3
B5
350
10071
  3
B6
350
10072
  3
B7
350
10073
  0
DICTIONARY
  5
10045
102
{ACAD_REACTORS
330
10028
102
}
330
10028
100
AcDbDictionary
  3
2DWIREFRAME
350
1004A
  3
BASIC
350
1004D
  3
BRIGHTEN
350
10051
  3
COLORCHANGE
350
10055
  3
CONCEPTUAL
350
1004F
  3
DIM
350
10050
  3
EDGECOLOROFF
350
10058
  3
FACEPATTERN
350
10054
  3
FLAT
350
10046
  3
FLATWITHEDGES
350
10047
  3
GOURAUD
350
10048
  3
GOURAUDWITHEDGES
350
10049
  3
HIDDEN
350
1004C
  3
JITTEROFF
350
10056
  3
LINEPATTERN
350
10053
  3
OVERHANGOFF
350
10057
  3
REALISTIC
350
1004E
  3
SHADED
350
1005D
  3
SHADED_WITH_EDGES
350
1005C
  3
SHADES_OF_GRAY
350
10059
  3
SKETCHY
350
1005A
  3
THICKEN
350
10052
  3
WIREFRAME
350
1004B
  3
X-RAY
350
1005B
  0
DICTIONARY
  5
100ED
102
{ACAD_REACTORS
330
10028
102
}
330
10028
100
AcDbDictionary
  3
CEPSNID
350
100F7
  3
CEPSNTYPE
350
100F6
  3
DIMSTYLEDATA
350
1010D
  3
FINGERPRINTGUID
350
100F8
  3
HYPERLINKBASE
350
100F0
  3
INSUNITS
350
100F5
  3
LAYOUTDICT
350
100F2
  3
LWETCUNION
350
100F4
  3
PLOTSETDICT
350
100F3
  3
PSVPSCALE
350
100FA
  3
PUCSBASE
350
100FD
  3
PUCSORGBACK
350
10103
  3
PUCSORGBOTTOM
350
100FF
  3
PUCSORGFRONT
350
10102
  3
PUCSORGLEFT
350
10100
  3
PUCSORGRIGHT
350
10101
  3
PUCSORGTOP
350
100FE
  3
PUCSORTHOREF
350
100FB
  3
PUCSORTHOVIEW
350
100FC
  3
STYLESHEET
350
100F1
  3
TSTACKALIGN
350
100EE
  3
TSTACKSIZE
350
100EF
  3
UCSBASE
350
10106
  3
UCSORGBACK
350
1010C
  3
UCSORGBOTTOM
350
10108
  3
UCSORGFRONT
350
1010B
  3
UCSORGLEFT
350
10109
  3
UCSORGRIGHT
350
1010A
  3
UCSORGTOP
350
10107
  3
UCSORTHOREF
350
10104
  3
UCSORTHOVIEW
350
10105
  3
VERSIONGUID
350
100F9
  0
DICTIONARY
  5
1010E
102
{ACAD_REACTORS
330
10028
102
}
330
10028
100
AcDbDictionary
  3
CANNOSCALE
350
10118
  3
CMLEADERSTYLE
350
10110
  3
CTABLESTYLE
350
1010F
  3
DIMASSOC
350
10113
  3
HIDETEXT
350
10114
  3
MSLTSCALE
350
10119
  0
XRECORD
  5
10115
102
{ACAD_REACTORS
330
10028
102
}
330
10028
100
AcDbXrecord
  1
DWGPROPS COOKIE
  2

  3

  4

  6

  7

  8
hans
  9

300
=
301
=
302
=
303
=
304
=
305
=
306
=
307
=
308
=
309
=
 40
0.0
 41
2460363.788259699
 42
2460363.788259942
  1

 90
        0
  0
DICTIONARY
  5
1007A
102
{ACAD_REACTORS
330
10028
102
}
330
10028
100
AcDbDictionary
  3
COLORSETTINGS/BACKGROUNDCOLOR
350
1007C
  3
COLORSETTINGS/COLORMODE
350
1007D
  3
GRID/DISPLAYGRID00
350
1007E
  3
GRID/DISPLAYGRID01
350
1007F
  3
GRID/DISPLAYGRID02
350
10080
  3
GRID/DISPLAYGRID03
350
10081
  3
GRID/GRIDSPACINGX00
350
10082
  3
GRID/GRIDSPACINGX01
350
10083
  3
GRID/GRIDSPACINGX02
350
10084
  3
GRID/GRIDSPACINGX03
350
10085
  3
GRID/GRIDSPACINGY00
350
10086
  3
GRID/GRIDSPACINGY01
350
10087
  3
GRID/GRIDSPACINGY02
350
10088
  3
GRID/GRIDSPACINGY03
350
10089
  3
GRID/ISOMETRICGRID00
350
1008A
  3
GRID/ISOMETRICGRID01
350
1008B
  3
GRID/ISOMETRICGRID02
350
1008C
  3
GRID/ISOMETRICGRID03
350
1008D
  3
GRID/ISOMETRICPROJECTION00
350
1008E
  3
GRID/ISOMETRICPROJECTION01
350
1008F
  3
GRID/ISOMETRICPROJECTION02
350
10090
  3
GRID/ISOMETRICPROJECTION03
350
10091
  3
GRID/METAGRIDSPACINGX00
350
10092
  3
GRID/METAGRIDSPACINGX01
350
10093
  3
GRID/METAGRIDSPACINGX02
350
10094
  3
GRID/METAGRIDSPACINGX03
350
10095
  3
GRID/METAGRIDSPACINGY00
350
10096
  3
GRID/METAGRIDSPACINGY01
350
10097
  3
GRID/METAGRIDSPACINGY02
350
10098
  3
GRID/METAGRIDSPACINGY03
350
10099
  3
MULTIPAGESETTINGS/COLUMNS
350
1009A
  3
MULTIPAGESETTINGS/GLUEMAR0
350
1009C
  3
MULTIPAGESETTINGS/GLUEMAR1
350
1009D
  3
MULTIPAGESETTINGS/GLUEMAR2
350
1009E
  3
MULTIPAGESETTINGS/GLUEMARG
350
1009B
  3
MULTIPAGESETTINGS/PRINTCRO
350
1009F
  3
MULTIPAGESETTINGS/ROWS
350
100A0
  3
PAGESETTINGS/OFFSETX
350
100A1
  3
PAGESETTINGS/OFFSETY
350
100A2
  3
PAGESETTINGS/PAGEORIENTATION
350
100A3
  3
PAGESETTINGS/PAPERHEIGHT
350
100A4
  3
PAGESETTINGS/PAPERWIDTH
350
100A5
  3
PAGESETTINGS/SCALE
350
100A6
  3
PAGESETTINGS/SHOWPAPERBORDERS
350
100A7
  3
PAGETAGSETTINGS/ENABLEPAGETAGS
350
100A8
  3
PAGETAGSETTINGS/TAGALIGNMENT
350
100A9
  3
PAGETAGSETTINGS/TAGFONT
350
100AA
  3
PAGETAGSETTINGS/TAGPOSITION
350
100AB
  3
QCADVERSION
350
100AC
  3
UNITSETTINGS/PAPERUNIT
350
100AD
  3
VIEWPORTCENTER
350
100AE
  3
VIEWPORTHEIGHT
350
100AF
  3
VIEWPORTWIDTH
350
100B0
  0
XRECORD
  5
10117
102
{ACAD_REACTORS
330
10116
102
}
330
10116
100
AcDbXrecord
102
VTR_0.000_0.000_1.000_1.000_VISUALSTYLE
340
1004A
102
VTR_0.000_0.000_1.000_1.000_GRIDDISPLAY
 70
     3
102
VTR_0.000_0.000_1.000_1.000_GRIDMAJOR
 70
     5
102
VTR_0.000_0.000_1.000_1.000_DEFAULTLIGHTING
280
     1
102
VTR_0.000_0.000_1.000_1.000_DEFAULTLIGHTINGTYPE
 70
     1
102
VTR_0.000_0.000_1.000_1.000_BRIGHTNESS
141
0.0
102
VTR_0.000_0.000_1.000_1.000_CONTRAST
142
0.0
  0
MATERIAL
  5
10060
102
{ACAD_REACTORS
330
1005E
102
}
102
{ACAD_XDICTIONARY
360
1011C
102
}
330
1005E
100
AcDbMaterial
  1
BYBLOCK
  0
MATERIAL
  5
1005F
102
{ACAD_REACTORS
330
1005E
102
}
102
{ACAD_XDICTIONARY
360
1011A
102
}
330
1005E
100
AcDbMaterial
  1
BYLAYER
  0
MATERIAL
  5
10061
102
{ACAD_REACTORS
330
1005E
102
}
102
{ACAD_XDICTIONARY
360
1011E
102
}
330
1005E
100
AcDbMaterial
  1
GLOBAL
  0
ACAD_PROXY_OBJECT
  5
10077
102
{ACAD_REACTORS
330
10076
102
}
330
10076
100
AcDbProxyObject
 90
      499
 91
      505
 93
      610
310
40901902A4063FBFFFFFE056BD1B81E855B9FC0AD7A3703D0AD73F4214DD185B99185C9900AD7A3703D0AC73F90141901A02B5E8DC0F42B1CFC02B5E8DC0F42B1CFE5764000000000000300FC0
340
1002F
340
0
340
1002D
340
0
 94
        0
1001
ACAD_MLEADERVER
1070
     2
  0
MLINESTYLE
  5
10033
102
{ACAD_REACTORS
330
10032
102
}
330
10032
100
AcDbMlineStyle
  2
Standard
 70
     0
  3

 62
   256
 51
90.0
 52
90.0
 71
     2
 49
0.5
 62
   256
  6
BYLAYER
 49
-0.5
 62
   256
  6
BYLAYER
  0
ACAD_PROXY_OBJECT
  5
10063
102
{ACAD_REACTORS
330
10062
102
}
330
10062
100
AcDbProxyObject
 90
      499
 91
      503
 93
       41
310
903313A31580
  0
ACAD_PROXY_OBJECT
  5
10064
102
{ACAD_REACTORS
330
10062
102
}
330
10062
100
AcDbProxyObject
 90
      499
 91
      503
 93
      257
310
90E312F31323822203D2031272D3022000000000000200FC000000000000284000
  0
ACAD_PROXY_OBJECT
  5
10065
102
{ACAD_REACTORS
330
10062
102
}
330
10062
100
AcDbProxyObject
 90
      499
 91
      503
 93
      249
310
90D312F363422203D2031272D3022000000000000240FC000000000000284000
  0
ACAD_PROXY_OBJECT
  5
10066
102
{ACAD_REACTORS
330
10062
102
}
330
10062
100
AcDbProxyObject
 90
      499
 91
      503
 93
      249
310
90D312F333222203D2031272D3022000000000000280FC000000000000284000
  0
ACAD_PROXY_OBJECT
  5
10067
102
{ACAD_REACTORS
330
10062
102
}
330
10062
100
AcDbProxyObject
 90
      499
 91
      503
 93
      249
310
90D312F313622203D2031272D30220000000000002C0FC000000000000284000
  0
ACAD_PROXY_OBJECT
  5
10068
102
{ACAD_REACTORS
330
10062
102
}
330
10062
100
AcDbProxyObject
 90
      499
 91
      503
 93
      249
310
90D332F333222203D2031272D30220000000000002E0FC000000000000284000
  0
ACAD_PROXY_OBJECT
  5
10069
102
{ACAD_REACTORS
330
10062
102
}
330
10062
100
AcDbProxyObject
 90
      499
 91
      503
 93
      241
310
90C312F3822203D2031272D3022000000000000300FC000000000000284000
  0
ACAD_PROXY_OBJECT
  5
1006A
102
{ACAD_REACTORS
330
10062
102
}
330
10062
100
AcDbProxyObject
 90
      499
 91
      503
 93
      249
310
90D332F313622203D2031272D3022000000000000320FC000000000000284000
  0
ACAD_PROXY_OBJECT
  5
1006B
102
{ACAD_REACTORS
330
10062
102
}
330
10062
100
AcDbProxyObject
 90
      499
 91
      503
 93
      241
310
90C312F3422203D2031272D3022000000000000340FC000000000000284000
  0
ACAD_PROXY_OBJECT
  5
1006C
102
{ACAD_REACTORS
330
10062
102
}
330
10062
100
AcDbProxyObject
 90
      499
 91
      503
 93
      241
310
90C332F3822203D2031272D3022000000000000360FC000000000000284000
  0
ACAD_PROXY_OBJECT
  5
1006D
102
{ACAD_REACTORS
330
10062
102
}
330
10062
100
AcDbProxyObject
 90
      499
 91
      503
 93
      241
310
90C312F3222203D2031272D3022000000000000380FC000000000000284000
  0
ACAD_PROXY_OBJECT
  5
1006E
102
{ACAD_REACTORS
330
10062
102
}
330
10062
100
AcDbProxyObject
 90
      499
 91
      503
 93
      241
310
90C332F3422203D2031272D30220000000000003A0FC000000000000284000
  0
ACAD_PROXY_OBJECT
  5
1006F
102
{ACAD_REACTORS
330
10062
102
}
330
10062
100
AcDbProxyObject
 90
      499
 91
      503
 93
      161
310
90A3122203D2031272D30224000000000000284000
  0
ACAD_PROXY_OBJECT
  5
10070
102
{ACAD_REACTORS
330
10062
102
}
330
10062
100
AcDbProxyObject
 90
      499
 91
      503
 93
      257
310
90E312D312F3222203D2031272D30220000000000003E0FC000000000000284000
  0
ACAD_PROXY_OBJECT
  5
10071
102
{ACAD_REACTORS
330
10062
102
}
330
10062
100
AcDbProxyObject
 90
      499
 91
      503
 93
      225
310
90A3322203D2031272D302200000000000002100000000000000284000
  0
ACAD_PROXY_OBJECT
  5
10072
102
{ACAD_REACTORS
330
10062
102
}
330
10062
100
AcDbProxyObject
 90
      499
 91
      503
 93
      225
310
90A3622203D2031272D302200000000000006100000000000000284000
  0
ACAD_PROXY_OBJECT
  5
10073
102
{ACAD_REACTORS
330
10062
102
}
330
10062
100
AcDbProxyObject
 90
      499
 91
      503
 93
      249
310
90D31272D3022203D2031272D30220000000000000A100000000000000284000
  0
ACAD_PROXY_OBJECT
  5
1004A
102
{ACAD_REACTORS
330
10045
102
}
330
10045
100
AcDbProxyObject
 90
      499
 91
      501
 93
      436
310
42CC9915DA5C99599C985B595049028333333333333E33F0000000000000F90107901411070040501600405405064090741402480A0340
1001
ACAD
1000
AcDbSavedByObjectVersion
1070
     0
  0
ACAD_PROXY_OBJECT
  5
1004D
102
{ACAD_REACTORS
330
10045
102
}
330
10045
100
AcDbProxyObject
 90
      499
 91
      501
 93
      388
310
4150985CDA58D07406404333333333333E33F0000000000000F90107A41107004050150841D405064090741402480A0350
1001
ACAD
1000
AcDbSavedByObjectVersion
1070
     0
  0
ACAD_PROXY_OBJECT
  5
10051
102
{ACAD_REACTORS
330
10045
102
}
330
10045
100
AcDbProxyObject
 90
      499
 91
      501
 93
      428
310
42109C9A59DA1D195B90C409028333333333333E33F0000000000000F9010790141107004050150841D405064090741402480A029950
1001
ACAD
1000
AcDbSavedByObjectVersion
1070
     0
  0
ACAD_PROXY_OBJECT
  5
10055
102
{ACAD_REACTORS
330
10045
102
}
330
10045
100
AcDbProxyObject
 90
      499
 91
      501
 93
      452
310
42D0DBDB1BDC90DA185B99D95104090240C333333333333E33F0000000000000F90108901411070040501508421405064090741402480A0350
1001
ACAD
1000
AcDbSavedByObjectVersion
1070
     0
  0
ACAD_PROXY_OBJECT
  5
1004F
102
{ACAD_REACTORS
330
10045
102
}
330
10045
100
AcDbProxyObject
 90
      499
 91
      501
 93
      500
310
4290DBDB98D95C1D1D585B10940D028333333333333E33F0000000000000F90107902409070040501000000000018199010841D405064090740C02480A0340
1001
ACAD
1000
AcDbSavedByObjectVersion
1070
     0
  0
ACAD_PROXY_OBJECT
  5
10050
102
{ACAD_REACTORS
330
10045
102
}
330
10045
100
AcDbProxyObject
 90
      499
 91
      501
 93
      412
310
40D11A5B50B409028333333333333E33F0000000000000F9010790141107004050150841D405064090741402480A02677FFFFFD0
1001
ACAD
1000
AcDbSavedByObjectVersion
1070
     0
  0
ACAD_PROXY_OBJECT
  5
10058
102
{ACAD_REACTORS
330
10045
102
}
330
10045
100
AcDbProxyObject
 90
      499
 91
      501
 93
      452
310
43115919D950DBDB1BDC93D999916409028333333333333E33F0000000000000F9010790141107004050150841D405064090741402480A0350
1001
ACAD
1000
AcDbSavedByObjectVersion
1070
     0
  0
ACAD_PROXY_OBJECT
  5
10054
102
{ACAD_REACTORS
330
10045
102
}
330
10045
100
AcDbProxyObject
 90
      499
 91
      501
 93
      444
310
42D19858D95C185D1D195C9B90F409028333333333333E33F0000000000000F9010790141107004050150841D405064090741402480A0350
1001
ACAD
1000
AcDbSavedByObjectVersion
1070
     0
  0
ACAD_PROXY_OBJECT
  5
10046
102
{ACAD_REACTORS
330
10045
102
}
330
10045
100
AcDbProxyObject
 90
      499
 91
      501
 93
      380
310
41119B185D240901404333333333333E33F0000000000000F9010740A907004050150841D405064090741402480A1B50
1001
ACAD
1000
AcDbSavedByObjectVersion
1070
     0
  0
ACAD_PROXY_OBJECT
  5
10047
102
{ACAD_REACTORS
330
10045
102
}
330
10045
100
AcDbProxyObject
 90
      499
 91
      501
 93
      468
310
43519B185D15DA5D1A115919D95CD0140901404333333333333E33F0000000000000F90107409019070040501600405405064090741402480A1B50
1001
ACAD
1000
AcDbSavedByObjectVersion
1070
     0
  0
ACAD_PROXY_OBJECT
  5
10048
102
{ACAD_REACTORS
330
10045
102
}
330
10045
100
AcDbProxyObject
 90
      499
 91
      501
 93
      404
310
41D1DBDD5C985D5910240902404333333333333E33F0000000000000F9010740A9070040501641D405064090741402480A1B50
1001
ACAD
1000
AcDbSavedByObjectVersion
1070
     0
  0
ACAD_PROXY_OBJECT
  5
10049
102
{ACAD_REACTORS
330
10045
102
}
330
10045
100
AcDbProxyObject
 90
      499
 91
      501
 93
      492
310
4411DBDD5C985D5915DA5D1A115919D95CD0340902404333333333333E33F0000000000000F90107409019070040501600405405064090741402480A1B50
1001
ACAD
1000
AcDbSavedByObjectVersion
1070
     0
  0
ACAD_PROXY_OBJECT
  5
1004C
102
{ACAD_REACTORS
330
10045
102
}
330
10045
100
AcDbProxyObject
 90
      499
 91
      501
 93
      476
310
41921A5919195B90640502408333333333333E33F0000000000000F901079024090700405020000000000001110200405405064090740C02480A0340
1001
ACAD
1000
AcDbSavedByObjectVersion
1070
     0
  0
ACAD_PROXY_OBJECT
  5
10056
102
{ACAD_REACTORS
330
10045
102
}
330
10045
100
AcDbProxyObject
 90
      499
 91
      501
 93
      428
310
42529A5D1D195C93D999914409028333333333333E33F0000000000000F9010790141107004050150A41D405064090741402480A0350
1001
ACAD
1000
AcDbSavedByObjectVersion
1070
     0
  0
ACAD_PROXY_OBJECT
  5
10053
102
{ACAD_REACTORS
330
10045
102
}
330
10045
100
AcDbProxyObject
 90
      499
 91
      501
 93
      444
310
42D31A5B995C185D1D195C9B90E409028333333333333E33F0000000000000F9010790141107004050750841D405064090741402483A0350
1001
ACAD
1000
AcDbSavedByObjectVersion
1070
     0
  0
ACAD_PROXY_OBJECT
  5
10057
102
{ACAD_REACTORS
330
10045
102
}
330
10045
100
AcDbProxyObject
 90
      499
 91
      501
 93
      444
310
42D3DD995C9A185B99D3D999915409028333333333333E33F0000000000000F9010790141107004050150941D405064090741402480A0350
1001
ACAD
1000
AcDbSavedByObjectVersion
1070
     0
  0
ACAD_PROXY_OBJECT
  5
1004E
102
{ACAD_REACTORS
330
10045
102
}
330
10045
100
AcDbProxyObject
 90
      499
 91
      501
 93
      428
310
425499585B1A5CDD1A58D08409038333333333333E33F0000000000000F9010740A907004050150800405405064090740C02480A1B40
1001
ACAD
1000
AcDbSavedByObjectVersion
1070
     0
  0
ACAD_PROXY_OBJECT
  5
1005D
102
{ACAD_REACTORS
330
10045
102
}
330
10045
100
AcDbProxyObject
 90
      499
 91
      501
 93
      420
310
4194DA1859195911B40902404333333333333E33F0000000000000F9010740A41107004050150800405405064090840C02480A0B40
1001
ACAD
1000
AcDbSavedByObjectVersion
1070
     0
  0
ACAD_PROXY_OBJECT
  5
1005C
102
{ACAD_REACTORS
330
10045
102
}
330
10045
100
AcDbProxyObject
 90
      499
 91
      501
 93
      516
310
4454DA18591959081DDA5D1A08195919D95CD1A40902404333333333333E33F0000000000000F901074090142907004050250800405405064090740C02480A0B40
1001
ACAD
1000
AcDbSavedByObjectVersion
1070
     0
  0
ACAD_PROXY_OBJECT
  5
10059
102
{ACAD_REACTORS
330
10045
102
}
330
10045
100
AcDbProxyObject
 90
      499
 91
      501
 93
      532
310
4394DA1859195CC81BD98811DC985E5174090240C333333333333E33F0000000000000F901079024090741D01000000000000111010841D405064090740C02480A0340
1001
ACAD
1000
AcDbSavedByObjectVersion
1070
     0
  0
ACAD_PROXY_OBJECT
  5
1005A
102
{ACAD_REACTORS
330
10045
102
}
330
10045
100
AcDbProxyObject
 90
      499
 91
      501
 93
      476
310
41D4DAD95D18DA1E51840502408333333333333E33F0000000000000F901079024090741D01000000000000111010B41D405064090741802480A0340
1001
ACAD
1000
AcDbSavedByObjectVersion
1070
     0
  0
ACAD_PROXY_OBJECT
  5
10052
102
{ACAD_REACTORS
330
10045
102
}
330
10045
100
AcDbProxyObject
 90
      499
 91
      501
 93
      412
310
41D51A1A58DAD95B90D409028333333333333E33F0000000000000F9010790141107004050150C41D405064090741402480A0350
1001
ACAD
1000
AcDbSavedByObjectVersion
1070
     0
  0
ACAD_PROXY_OBJECT
  5
1004B
102
{ACAD_REACTORS
330
10045
102
}
330
10045
100
AcDbProxyObject
 90
      499
 91
      501
 93
      420
310
4255DA5C99599C985B595059028333333333333E33F0000000000000F90107901411070040501600405405064090740C02480A0340
1001
ACAD
1000
AcDbSavedByObjectVersion
1070
     0
  0
ACAD_PROXY_OBJECT
  5
1005B
102
{ACAD_REACTORS
330
10045
102
}
330
10045
100
AcDbProxyObject
 90
      499
 91
      501
 93
      404
310
41560B54985E51940902404000000000000E03F0000000000000F9010740501907004050150841D405064090740C02480A1B40
1001
ACAD
1000
AcDbSavedByObjectVersion
1070
     0
  0
XRECORD
  5
100F7
102
{ACAD_REACTORS
330
100ED
102
}
330
100ED
100
AcDbXrecord
340
0
  0
XRECORD
  5
100F6
102
{ACAD_REACTORS
330
100ED
102
}
330
100ED
100
AcDbXrecord
 90
        0
  0
XRECORD
  5
1010D
102
{ACAD_REACTORS
330
100ED
102
}
330
100ED
100
AcDbXrecord
1000
DSTYLE
1002
{
1070
   340
340
1002D
1002
}
  0
XRECORD
  5
100F8
102
{ACAD_REACTORS
330
100ED
102
}
330
100ED
100
AcDbXrecord
  1
{7c3f7af2-a515-468c-bfc7-140b46e75836}
  0
XRECORD
  5
100F0
102
{ACAD_REACTORS
330
100ED
102
}
330
100ED
100
AcDbXrecord
  1

  0
XRECORD
  5
100F5
102
{ACAD_REACTORS
330
100ED
102
}
330
100ED
100
AcDbXrecord
 90
        4
  0
XRECORD
  5
100F2
102
{ACAD_REACTORS
330
100ED
102
}
330
100ED
100
AcDbXrecord
340
10035
  0
XRECORD
  5
100F4
102
{ACAD_REACTORS
330
100ED
102
}
330
100ED
100
AcDbXrecord
 90
    10781
  0
XRECORD
  5
100F3
102
{ACAD_REACTORS
330
100ED
102
}
330
100ED
100
AcDbXrecord
340
10034
  0
XRECORD
  5
100FA
102
{ACAD_REACTORS
330
100ED
102
}
330
100ED
100
AcDbXrecord
 40
0.0
  0
XRECORD
  5
100FD
102
{ACAD_REACTORS
330
100ED
102
}
330
100ED
100
AcDbXrecord
340
0
  0
XRECORD
  5
10103
102
{ACAD_REACTORS
330
100ED
102
}
330
100ED
100
AcDbXrecord
 10
0.0
 20
0.0
 30
0.0
  0
XRECORD
  5
100FF
102
{ACAD_REACTORS
330
100ED
102
}
330
100ED
100
AcDbXrecord
 10
0.0
 20
0.0
 30
0.0
  0
XRECORD
  5
10102
102
{ACAD_REACTORS
330
100ED
102
}
330
100ED
100
AcDbXrecord
 10
0.0
 20
0.0
 30
0.0
  0
XRECORD
  5
10100
102
{ACAD_REACTORS
330
100ED
102
}
330
100ED
100
AcDbXrecord
 10
0.0
 20
0.0
 30
0.0
  0
XRECORD
  5
10101
102
{ACAD_REACTORS
330
100ED
102
}
330
100ED
100
AcDbXrecord
 10
0.0
 20
0.0
 30
0.0
  0
XRECORD
  5
100FE
102
{ACAD_REACTORS
330
100ED
102
}
330
100ED
100
AcDbXrecord
 10
0.0
 20
0.0
 30
0.0
  0
XRECORD
  5
100FB
102
{ACAD_REACTORS
330
100ED
102
}
330
100ED
100
AcDbXrecord
340
0
  0
XRECORD
  5
100FC
102
{ACAD_REACTORS
330
100ED
102
}
330
100ED
100
AcDbXrecord
 70
     0
  0
XRECORD
  5
100F1
102
{ACAD_REACTORS
330
100ED
102
}
330
100ED
100
AcDbXrecord
  1

  0
XRECORD
  5
100EE
102
{ACAD_REACTORS
330
100ED
102
}
330
100ED
100
AcDbXrecord
 90
        1
  0
XRECORD
  5
100EF
102
{ACAD_REACTORS
330
100ED
102
}
330
100ED
100
AcDbXrecord
 90
       70
  0
XRECORD
  5
10106
102
{ACAD_REACTORS
330
100ED
102
}
330
100ED
100
AcDbXrecord
340
0
  0
XRECORD
  5
1010C
102
{ACAD_REACTORS
330
100ED
102
}
330
100ED
100
AcDbXrecord
 10
0.0
 20
0.0
 30
0.0
  0
XRECORD
  5
10108
102
{ACAD_REACTORS
330
100ED
102
}
330
100ED
100
AcDbXrecord
 10
0.0
 20
0.0
 30
0.0
  0
XRECORD
  5
1010B
102
{ACAD_REACTORS
330
100ED
102
}
330
100ED
100
AcDbXrecord
 10
0.0
 20
0.0
 30
0.0
  0
XRECORD
  5
10109
102
{ACAD_REACTORS
330
100ED
102
}
330
100ED
100
AcDbXrecord
 10
0.0
 20
0.0
 30
0.0
  0
XRECORD
  5
1010A
102
{ACAD_REACTORS
330
100ED
102
}
330
100ED
100
AcDbXrecord
 10
0.0
 20
0.0
 30
0.0
  0
XRECORD
  5
10107
102
{ACAD_REACTORS
330
100ED
102
}
330
100ED
100
AcDbXrecord
 10
0.0
 20
0.0
 30
0.0
  0
XRECORD
  5
10104
102
{ACAD_REACTORS
330
100ED
102
}
330
100ED
100
AcDbXrecord
340
0
  0
XRECORD
  5
10105
102
{ACAD_REACTORS
330
100ED
102
}
330
100ED
100
AcDbXrecord
 70
     0
  0
XRECORD
  5
100F9
102
{ACAD_REACTORS
330
100ED
102
}
330
100ED
100
AcDbXrecord
  1
{FAEB1C32-E019-11D5-929B-00C0DF256EC4}
  0
DICTIONARYVAR
  5
10118
102
{ACAD_REACTORS
330
1010E
102
}
330
1010E
100
DictionaryVariables
280
     0
  1
1:1
  0
DICTIONARYVAR
  5
10110
102
{ACAD_REACTORS
330
1010E
102
}
330
1010E
100
DictionaryVariables
280
     0
  1
Standard
  0
DICTIONARYVAR
  5
1010F
102
{ACAD_REACTORS
330
1010E
102
}
330
1010E
100
DictionaryVariables
280
     0
  1
Standard
  0
DICTIONARYVAR
  5
10113
102
{ACAD_REACTORS
330
1010E
102
}
330
1010E
100
DictionaryVariables
280
     0
  1
2
  0
DICTIONARYVAR
  5
10114
102
{ACAD_REACTORS
330
1010E
102
}
330
1010E
100
DictionaryVariables
280
     0
  1
1
  0
DICTIONARYVAR
  5
10119
102
{ACAD_REACTORS
330
1010E
102
}
330
1010E
100
DictionaryVariables
280
     0
  1
1
  0
XRECORD
  5
1007C
102
{ACAD_REACTORS
330
1007A
102
}
330
1007A
100
AcDbXrecord
1000
#ffffff
  0
XRECORD
  5
1007D
102
{ACAD_REACTORS
330
1007A
102
}
330
1007A
100
AcDbXrecord
1000
FullColor
  0
ACAD_PROXY_OBJECT
  5
1007E
102
{ACAD_REACTORS
330
1007A
102
}
330
1007A
100
AcDbProxyObject
 90
      499
 91
      508
 93
       34
310
40C8804040
  0
ACAD_PROXY_OBJECT
  5
1007F
102
{ACAD_REACTORS
330
1007A
102
}
330
1007A
100
AcDbProxyObject
 90
      499
 91
      508
 93
       34
310
40C8804040
  0
ACAD_PROXY_OBJECT
  5
10080
102
{ACAD_REACTORS
330
1007A
102
}
330
1007A
100
AcDbProxyObject
 90
      499
 91
      508
 93
       34
310
40C8804040
  0
ACAD_PROXY_OBJECT
  5
10081
102
{ACAD_REACTORS
330
1007A
102
}
330
1007A
100
AcDbProxyObject
 90
      499
 91
      508
 93
       34
310
40C8804040
  0
XRECORD
  5
10082
102
{ACAD_REACTORS
330
1007A
102
}
330
1007A
100
AcDbXrecord
1000
auto
  0
XRECORD
  5
10083
102
{ACAD_REACTORS
330
1007A
102
}
330
1007A
100
AcDbXrecord
1000
auto
  0
XRECORD
  5
10084
102
{ACAD_REACTORS
330
1007A
102
}
330
1007A
100
AcDbXrecord
1000
auto
  0
XRECORD
  5
10085
102
{ACAD_REACTORS
330
1007A
102
}
330
1007A
100
AcDbXrecord
1000
auto
  0
XRECORD
  5
10086
102
{ACAD_REACTORS
330
1007A
102
}
330
1007A
100
AcDbXrecord
1000
auto
  0
XRECORD
  5
10087
102
{ACAD_REACTORS
330
1007A
102
}
330
1007A
100
AcDbXrecord
1000
auto
  0
XRECORD
  5
10088
102
{ACAD_REACTORS
330
1007A
102
}
330
1007A
100
AcDbXrecord
1000
auto
  0
XRECORD
  5
10089
102
{ACAD_REACTORS
330
1007A
102
}
330
1007A
100
AcDbXrecord
1000
auto
  0
ACAD_PROXY_OBJECT
  5
1008A
102
{ACAD_REACTORS
330
1007A
102
}
330
1007A
100
AcDbProxyObject
 90
      499
 91
      508
 93
       34
310
40C8804000
  0
ACAD_PROXY_OBJECT
  5
1008B
102
{ACAD_REACTORS
330
1007A
102
}
330
1007A
100
AcDbProxyObject
 90
      499
 91
      508
 93
       34
310
40C8804000
  0
ACAD_PROXY_OBJECT
  5
1008C
102
{ACAD_REACTORS
330
1007A
102
}
330
1007A
100
AcDbProxyObject
 90
      499
 91
      508
 93
       34
310
40C8804000
  0
ACAD_PROXY_OBJECT
  5
1008D
102
{ACAD_REACTORS
330
1007A
102
}
330
1007A
100
AcDbProxyObject
 90
      499
 91
      508
 93
       34
310
40C8804000
  0
XRECORD
  5
1008E
102
{ACAD_REACTORS
330
1007A
102
}
330
1007A
100
AcDbXrecord
 90
    65537
  0
XRECORD
  5
1008F
102
{ACAD_REACTORS
330
1007A
102
}
330
1007A
100
AcDbXrecord
 90
    65537
  0
XRECORD
  5
10090
102
{ACAD_REACTORS
330
1007A
102
}
330
1007A
100
AcDbXrecord
 90
    65537
  0
XRECORD
  5
10091
102
{ACAD_REACTORS
330
1007A
102
}
330
1007A
100
AcDbXrecord
 90
    65537
  0
XRECORD
  5
10092
102
{ACAD_REACTORS
330
1007A
102
}
330
1007A
100
AcDbXrecord
1000
auto
  0
XRECORD
  5
10093
102
{ACAD_REACTORS
330
1007A
102
}
330
1007A
100
AcDbXrecord
1000
auto
  0
XRECORD
  5
10094
102
{ACAD_REACTORS
330
1007A
102
}
330
1007A
100
AcDbXrecord
1000
auto
  0
XRECORD
  5
10095
102
{ACAD_REACTORS
330
1007A
102
}
330
1007A
100
AcDbXrecord
1000
auto
  0
XRECORD
  5
10096
102
{ACAD_REACTORS
330
1007A
102
}
330
1007A
100
AcDbXrecord
1000
auto
  0
XRECORD
  5
10097
102
{ACAD_REACTORS
330
1007A
102
}
330
1007A
100
AcDbXrecord
1000
auto
  0
XRECORD
  5
10098
102
{ACAD_REACTORS
330
1007A
102
}
330
1007A
100
AcDbXrecord
1000
auto
  0
XRECORD
  5
10099
102
{ACAD_REACTORS
330
1007A
102
}
330
1007A
100
AcDbXrecord
1000
auto
  0
XRECORD
  5
1009A
102
{ACAD_REACTORS
330
1007A
102
}
330
1007A
100
AcDbXrecord
 90
        1
  0
XRECORD
  5
1009C
102
{ACAD_REACTORS
330
1007A
102
}
330
1007A
100
AcDbXrecord
 40
10.0
  0
XRECORD
  5
1009D
102
{ACAD_REACTORS
330
1007A
102
}
330
1007A
100
AcDbXrecord
 40
10.0
  0
XRECORD
  5
1009E
102
{ACAD_REACTORS
330
1007A
102
}
330
1007A
100
AcDbXrecord
 40
10.0
  0
XRECORD
  5
1009B
102
{ACAD_REACTORS
330
1007A
102
}
330
1007A
100
AcDbXrecord
 40
10.0
  0
ACAD_PROXY_OBJECT
  5
1009F
102
{ACAD_REACTORS
330
1007A
102
}
330
1007A
100
AcDbProxyObject
 90
      499
 91
      508
 93
       34
310
40C8804000
  0
XRECORD
  5
100A0
102
{ACAD_REACTORS
330
1007A
102
}
330
1007A
100
AcDbXrecord
 90
        1
  0
XRECORD
  5
100A1
102
{ACAD_REACTORS
330
1007A
102
}
330
1007A
100
AcDbXrecord
 40
0.0
  0
XRECORD
  5
100A2
102
{ACAD_REACTORS
330
1007A
102
}
330
1007A
100
AcDbXrecord
 40
0.0
  0
XRECORD
  5
100A3
102
{ACAD_REACTORS
330
1007A
102
}
330
1007A
100
AcDbXrecord
1000
Portrait
  0
XRECORD
  5
100A4
102
{ACAD_REACTORS
330
1007A
102
}
330
1007A
100
AcDbXrecord
 40
594.0
  0
XRECORD
  5
100A5
102
{ACAD_REACTORS
330
1007A
102
}
330
1007A
100
AcDbXrecord
 40
420.0
  0
XRECORD
  5
100A6
102
{ACAD_REACTORS
330
1007A
102
}
330
1007A
100
AcDbXrecord
1000
1:1
  0
ACAD_PROXY_OBJECT
  5
100A7
102
{ACAD_REACTORS
330
1007A
102
}
330
1007A
100
AcDbProxyObject
 90
      499
 91
      508
 93
       34
310
40C8804040
  0
ACAD_PROXY_OBJECT
  5
100A8
102
{ACAD_REACTORS
330
1007A
102
}
330
1007A
100
AcDbProxyObject
 90
      499
 91
      508
 93
       34
310
40C8804000
  0
XRECORD
  5
100A9
102
{ACAD_REACTORS
330
1007A
102
}
330
1007A
100
AcDbXrecord
1000
Inside
  0
XRECORD
  5
100AA
102
{ACAD_REACTORS
330
1007A
102
}
330
1007A
100
AcDbXrecord
1000
Arial,10,-1,5,50,0,0,0,0,0
  0
XRECORD
  5
100AB
102
{ACAD_REACTORS
330
1007A
102
}
330
1007A
100
AcDbXrecord
1000
TopLeft
  0
XRECORD
  5
100AC
102
{ACAD_REACTORS
330
1007A
102
}
330
1007A
100
AcDbXrecord
1000
3.28.2
  0
XRECORD
  5
100AD
102
{ACAD_REACTORS
330
1007A
102
}
330
1007A
100
AcDbXrecord
 90
        4
  0
XRECORD
  5
100AE
102
{ACAD_REACTORS
330
1007A
102
}
330
1007A
100
AcDbXrecord
  0
XRECORD
  5
100AF
102
{ACAD_REACTORS
330
1007A
102
}
330
1007A
100
AcDbXrecord
 40
661.1959588219573
  0
XRECORD
  5
100B0
102
{ACAD_REACTORS
330
1007A
102
}
330
1007A
100
AcDbXrecord
 40
1884.501959922336
  0
DICTIONARY
  5
1011C
330
10060
100
AcDbDictionary
280
     1
  3
ACAD_XREC_ROUNDTRIP
360
1011D
  0
DICTIONARY
  5
1011A
330
1005F
100
AcDbDictionary
280
     1
  3
ACAD_XREC_ROUNDTRIP
360
1011B
  0
DICTIONARY
  5
1011E
330
10061
100
AcDbDictionary
280
     1
  3
ACAD_XREC_ROUNDTRIP
360
1011F
  0
XRECORD
  5
1011D
102
{ACAD_REACTORS
330
1011C
102
}
330
1011C
100
AcDbXrecord
102
MATERIAL
148
0.0
149
0.0
149
0.0
 93
        0
 94
      127
282
     0
 72
     1
 77
     1
171
     1
175
     1
179
     1
273
     0
  0
XRECORD
  5
1011B
102
{ACAD_REACTORS
330
1011A
102
}
330
1011A
100
AcDbXrecord
102
MATERIAL
148
0.0
149
0.0
149
0.0
 93
        0
 94
      127
282
     0
 72
     1
 77
     1
171
     1
175
     1
179
     1
273
     0
  0
XRECORD
  5
1011F
102
{ACAD_REACTORS
330
1011E
102
}
330
1011E
100
AcDbXrecord
102
MATERIAL
148
0.0
149
0.0
149
0.0
 93
        0
 94
      127
282
     0
 72
     1
 77
     1
171
     1
175
     1
179
     1
273
     0
  0
ENDSEC
  0
EOF
