0
SECTION
2
HEADER
9
$INSUNITS
70
4
9
$ACADVER
1
AC1014
9
$HANDSEED
5
FFFF
0
ENDSEC
0
SECTION
2
TABLES
0
TABLE
2
VPORT
5
8
100
AcDbSymbolTable
0
ENDTAB
0
TABLE
2
LTYPE
5
5
100
AcDbSymbolTable
0
LTYPE
5
14
100
AcDbSymbolTableRecord
100
AcDbLinetypeTableRecord
2
BYBLOCK
70
0
0
LTYPE
5
15
100
AcDbSymbolTableRecord
100
AcDbLinetypeTableRecord
2
BYLAYER
70
0
0
ENDTAB
0
TABLE
2
LAYER
5
2
100
AcDbSymbolTable
70
2
0
LAYER
5
50
100
AcDbSymbolTableRecord
100
AcDbLayerTableRecord
2
0
70
0
6
CONTINUOUS
0
ENDTAB
0
TABLE
2
STYLE
5
3
100
AcDbSymbolTable
70
1
0
STYLE
5
11
100
AcDbSymbolTableRecord
100
AcDbTextStyleTableRecord
2
STANDARD
70
0
0
ENDTAB
0
TABLE
2
VIEW
5
6
100
AcDbSymbolTable
70
0
0
ENDTAB
0
TABLE
2
UCS
5
7
100
AcDbSymbolTable
70
0
0
ENDTAB
0
TABLE
2
APPID
5
9
100
AcDbSymbolTable
70
2
0
APPID
5
12
100
AcDbSymbolTableRecord
100
AcDbRegAppTableRecord
2
ACAD
70
0
0
ENDTAB
0
TABLE
2
DIMSTYLE
5
A
100
AcDbSymbolTable
70
1
0
ENDTAB
0
TABLE
2
BLOCK_RECORD
5
1
100
AcDbSymbolTable
70
1
0
BLOCK_RECORD
5
1F
100
AcDbSymbolTableRecord
100
AcDbBlockTableRecord
2
*MODEL_SPACE
0
BLOCK_RECORD
5
1B
100
AcDbSymbolTableRecord
100
AcDbBlockTableRecord
2
*PAPER_SPACE
0
ENDTAB
0
ENDSEC
0
SECTION
2
BLOCKS
0
BLOCK
5
20
100
AcDbEntity
100
AcDbBlockBegin
2
*MODEL_SPACE
0
ENDBLK
5
21
100
AcDbEntity
100
AcDbBlockEnd
0
BLOCK
5
1C
100
AcDbEntity
100
AcDbBlockBegin
2
*PAPER_SPACE
0
ENDBLK
5
1D
100
AcDbEntity
100
AcDbBlockEnd
0
ENDSEC
0
SECTION
2
ENTITIES
0
LINE
5
100
100
AcDbEntity
8
0
100
AcDbLine
10
36.500000000001016
20
52.59754878232787
30
0
11
311.5
21
52.597548782327841
31
0
0
LINE
5
101
100
AcDbEntity
8
0
100
AcDbLine
10
36.500000000001016
20
47.595504243302841
30
0
11
36.500000000001016
21
52.59754878232787
31
0
0
LINE
5
102
100
AcDbEntity
8
0
100
AcDbLine
10
311.5
20
47.595504243302841
30
0
11
36.500000000001016
21
47.595504243302841
31
0
0
LWPOLYLINE
5
103
100
AcDbEntity
8
0
100
AcDbPolyline
90
4
70
1
43
0.0
10
260
20
0
10
280
20
0
10
280
20
-5.6003057774867671
10
260
20
-5.6003057774867671
0
LWPOLYLINE
5
104
100
AcDbEntity
8
0
100
AcDbPolyline
90
4
70
1
43
0.0
10
19.999999999999964
20
0
10
19.999999999999964
20
-5.6003057774867671
10
0
20
-5.6003057774867671
10
0
20
0
0
LINE
5
105
100
AcDbEntity
8
0
100
AcDbLine
10
36.500000000000945
20
-53.169403888528763
30
0
11
311.5
21
-53.169403888528706
31
0
0
LINE
5
106
100
AcDbEntity
8
0
100
AcDbLine
10
311.5
20
-58.17144842755377
30
0
11
36.500000000000945
21
-58.17144842755377
31
0
0
LINE
5
107
100
AcDbEntity
8
0
100
AcDbLine
10
36.500000000000945
20
-58.17144842755377
30
0
11
36.500000000000945
21
-53.169403888528763
31
0
0
LINE
5
108
100
AcDbEntity
8
0
100
AcDbLine
10
36.500000000001016
20
-158.93635655938542
30
0
11
311.5
21
-158.9363565593853
31
0
0
LINE
5
109
100
AcDbEntity
8
0
100
AcDbLine
10
36.500000000001016
20
-163.93840109841045
30
0
11
36.500000000001016
21
-158.93635655938542
31
0
0
LINE
5
110
100
AcDbEntity
8
0
100
AcDbLine
10
311.5
20
-163.93840109841037
30
0
11
36.500000000001016
21
-163.93840109841045
31
0
0
LINE
5
111
100
AcDbEntity
8
0
100
AcDbLine
10
311.5
20
52.597548782327841
30
0
11
36.500000000001016
21
52.59754878232787
31
0
0
LINE
5
112
100
AcDbEntity
8
0
100
AcDbLine
10
36.500000000001016
20
52.59754878232787
30
0
11
36.500000000001016
21
47.595504243302841
31
0
0
LINE
5
113
100
AcDbEntity
8
0
100
AcDbLine
10
36.500000000001016
20
47.595504243302841
30
0
11
311.5
21
47.595504243302841
31
0
0
LINE
5
114
100
AcDbEntity
8
0
100
AcDbLine
10
280
20
0
30
0
11
260
21
0
31
0
0
LINE
5
115
100
AcDbEntity
8
0
100
AcDbLine
10
260
20
0
30
0
11
260
21
-5.6003057774867671
31
0
0
LINE
5
116
100
AcDbEntity
8
0
100
AcDbLine
10
260
20
-5.6003057774867671
30
0
11
280
21
-5.6003057774867671
31
0
0
LINE
5
117
100
AcDbEntity
8
0
100
AcDbLine
10
280
20
-5.6003057774867671
30
0
11
280
21
0
31
0
0
LINE
5
118
100
AcDbEntity
8
0
100
AcDbLine
10
19.999999999999964
20
0
30
0
11
0
21
0
31
0
0
LINE
5
119
100
AcDbEntity
8
0
100
AcDbLine
10
0
20
-5.6003057774867671
30
0
11
19.999999999999964
21
-5.6003057774867671
31
0
0
LINE
5
120
100
AcDbEntity
8
0
100
AcDbLine
10
19.999999999999964
20
-5.6003057774867671
30
0
11
19.999999999999964
21
0
31
0
0
LINE
5
121
100
AcDbEntity
8
0
100
AcDbLine
10
36.500000000000945
20
-53.169403888528763
30
0
11
311.5
21
-53.169403888528706
31
0
0
LINE
5
122
100
AcDbEntity
8
0
100
AcDbLine
10
311.5
20
-58.17144842755377
30
0
11
36.500000000000945
21
-58.17144842755377
31
0
0
LINE
5
123
100
AcDbEntity
8
0
100
AcDbLine
10
36.500000000000945
20
-58.17144842755377
30
0
11
36.500000000000945
21
-53.169403888528763
31
0
0
LINE
5
124
100
AcDbEntity
8
0
100
AcDbLine
10
36.500000000001016
20
-158.93635655938542
30
0
11
36.500000000001016
21
-163.93840109841045
31
0
0
LINE
5
125
100
AcDbEntity
8
0
100
AcDbLine
10
36.500000000001016
20
-163.93840109841045
30
0
11
311.5
21
-163.93840109841037
31
0
0
LINE
5
126
100
AcDbEntity
8
0
100
AcDbLine
10
311.5
20
-158.9363565593853
30
0
11
36.500000000001016
21
-158.93635655938542
31
0
0
ENDSEC
0
SECTION
2
OBJECTS
0
DICTIONARY
5
C
100
AcDbDictionary
3
ACAD_GROUP
350
D
3
ACAD_MLINESTYLE
350
17
0
DICTIONARY
5
D
100
AcDbDictionary
0
DICTIONARY
5
1A
330
C
100
AcDbDictionary
0
DICTIONARY
5
17
100
AcDbDictionary
0
ENDSEC
0
EOF
