0
SECTION
2
HEADER
9
$INSUNITS
70
4
9
$ACADVER
1
AC1014
9
$HANDSEED
5
FFFF
0
ENDSEC
0
SECTION
2
TABLES
0
TABLE
2
VPORT
5
8
100
AcDbSymbolTable
0
ENDTAB
0
TABLE
2
LTYPE
5
5
100
AcDbSymbolTable
70
2
0
LTYPE
5
14
100
AcDbSymbolTableRecord
100
AcDbLinetypeTableRecord
2
BYBLOCK
70
0
0
LTYPE
5
15
100
AcDbSymbolTableRecord
100
AcDbLinetypeTableRecord
2
BYLAYER
70
0
0
ENDTAB
0
TABLE
2
LAYER
5
2
100
AcDbSymbolTable
70
4
0
LAYER
5
50
100
AcDbSymbolTableRecord
100
AcDbLayerTableRecord
2
0
70
0
6
CONTINUOUS
0
LAYER
5
51
100
AcDbSymbolTableRecord
100
AcDbLayerTableRecord
2
BOARDS
70
0
62
0
6
CONTINUOUS
0
LAYER
5
52
100
AcDbSymbolTableRecord
100
AcDbLayerTableRecord
2
PERIMETER D 3.0
70
0
62
5
6
CONTINUOUS
0
LAYER
5
53
100
AcDbSymbolTableRecord
100
AcDbLayerTableRecord
2
HOLES DIAM 12.0 D 3.0
70
0
62
5
6
CONTINUOUS
0
ENDTAB
0
TABLE
2
STYLE
5
3
100
AcDbSymbolTable
70
1
0
STYLE
5
11
100
AcDbSymbolTableRecord
100
AcDbTextStyleTableRecord
2
STANDARD
70
0
0
ENDTAB
0
TABLE
2
VIEW
5
6
100
AcDbSymbolTable
0
ENDTAB
0
TABLE
2
UCS
5
7
100
AcDbSymbolTable
0
ENDTAB
0
TABLE
2
APPID
5
9
100
AcDbSymbolTable
70
1
0
APPID
5
12
100
AcDbSymbolTableRecord
100
AcDbRegAppTableRecord
2
ACAD
70
0
0
ENDTAB
0
TABLE
2
DIMSTYLE
5
A
100
AcDbSymbolTable
0
ENDTAB
0
TABLE
2
BLOCK_RECORD
5
1
100
AcDbSymbolTable
70
2
0
BLOCK_RECORD
5
1F
100
AcDbSymbolTableRecord
100
AcDbBlockTableRecord
2
*MODEL_SPACE
0
BLOCK_RECORD
5
1B
100
AcDbSymbolTableRecord
100
AcDbBlockTableRecord
2
*PAPER_SPACE
0
ENDTAB
0
ENDSEC
0
SECTION
2
BLOCKS
0
BLOCK
5
20
100
AcDbEntity
100
AcDbBlockBegin
2
*MODEL_SPACE
0
ENDBLK
5
21
100
AcDbEntity
100
AcDbBlockEnd
0
BLOCK
5
1C
100
AcDbEntity
100
AcDbBlockBegin
2
*PAPER_SPACE
0
ENDBLK
5
1D
100
AcDbEntity
100
AcDbBlockEnd
0
ENDSEC
0
SECTION
2
ENTITIES
0
LWPOLYLINE
5
100
100
AcDbEntity
8
BOARDS
100
AcDbPolyline
90
4
70
1
43
0.0
10
0
20
0
10
600
20
0
10
600
20
-305
10
0
20
-305
0
LWPOLYLINE
5
101
100
AcDbEntity
8
PERIMETER D 3.0
100
AcDbPolyline
90
6
70
1
43
0.0
10
23.644640392630173
20
-138.54999999999998
10
26.544640392630178
20
-138.54999999999998
10
26.544640392630182
20
-123.54999999999998
10
48.349747358628001
20
-123.54999999999997
42
-1.3760418323075641
10
1.8395334266323626
20
-123.54999999999995
10
23.644640392630166
20
-123.54999999999997
0
LWPOLYLINE
5
102
100
AcDbEntity
8
PERIMETER D 3.0
100
AcDbPolyline
90
6
70
1
43
0.0
10
1.8395334266323582
20
-156.45000000000002
42
1.3760418323075609
10
48.349747358627951
20
-156.45000000000005
10
26.544640392630185
20
-156.44999999999999
10
26.544640392630182
20
-171.44999999999999
10
23.644640392630166
20
-171.44999999999999
10
23.644640392630166
20
-156.44999999999999
0
LWPOLYLINE
5
103
100
AcDbEntity
8
PERIMETER D 3.0
100
AcDbPolyline
90
6
70
1
43
0.0
10
1.8395334266323671
20
-189.34999999999999
42
1.3760418323075618
10
48.34974735862798
20
-189.34999999999999
10
26.544640392630185
20
-189.34999999999999
10
26.544640392630182
20
-204.34999999999999
10
23.644640392630166
20
-204.34999999999999
10
23.644640392630162
20
-189.34999999999999
0
LWPOLYLINE
5
104
100
AcDbEntity
8
PERIMETER D 3.0
100
AcDbPolyline
90
6
70
1
43
0.0
10
1.8395334266323715
20
-222.25
42
1.3760418323075632
10
48.349747358627972
20
-222.25000000000006
10
26.544640392630193
20
-222.25
10
26.544640392630189
20
-237.25
10
23.644640392630158
20
-237.25
10
23.644640392630158
20
-222.25
0
LWPOLYLINE
5
105
100
AcDbEntity
8
PERIMETER D 3.0
100
AcDbPolyline
90
20
70
1
43
0.0
10
118.84902804626222
20
-288.74304428125481
10
100.94999999999986
20
-304.10882058225974
10
100.94999999999986
20
-287.14999999999998
10
98.049999999999841
20
-287.14999999999998
10
98.049999999999841
20
-304.04999999999995
10
23.349999999999866
20
-304.04999999999995
10
23.349999999999852
20
-287.14999999999998
10
20.449999999999854
20
-287.14999999999998
10
20.449999999999854
20
-304.04999999999995
10
10.979289321881193
20
-304.04999999999995
10
0.94999999999985674
20
-294.02071067811863
10
0.94999999999985674
20
-272.04999999999995
10
3.9499999999998536
20
-272.04999999999995
10
3.9499999999998634
20
-255.15000000000001
10
78.649999999999849
20
-255.14999999999998
10
78.649999999999849
20
-272.04999999999995
10
81.549999999999855
20
-272.04999999999995
10
81.549999999999869
20
-255.15000000000003
10
101.01851793433272
20
-255.15000000000003
10
118.84902804626128
20
-270.45695571874427
42
-0.45947190284868328
0
CIRCLE
5
106
100
AcDbEntity
8
HOLES DIAM 12.0 D 3.0
100
AcDbCircle
10
110.99999999999987
20
-279.59999999999997
30
0
40
5.9499999999999886
210
0
220
0
230
1
0
ENDSEC
0
SECTION
2
OBJECTS
0
DICTIONARY
5
C
100
AcDbDictionary
3
ACAD_GROUP
350
D
3
ACAD_MLINESTYLE
350
17
0
DICTIONARY
5
D
100
AcDbDictionary
0
DICTIONARY
5
1A
330
C
100
AcDbDictionary
0
DICTIONARY
5
17
100
AcDbDictionary
0
ENDSEC
0
EOF
