0
SECTION
2
HEADER
9
$INSUNITS
70
4
9
$ACADVER
1
AC1014
9
$HANDSEED
5
FFFF
0
ENDSEC
0
SECTION
2
TABLES
0
TABLE
2
VPORT
5
8
100
AcDbSymbolTable
0
ENDTAB
0
TABLE
2
LTYPE
5
5
100
AcDbSymbolTable
0
LTYPE
5
14
100
AcDbSymbolTableRecord
100
AcDbLinetypeTableRecord
2
BYBLOCK
70
0
0
LTYPE
5
15
100
AcDbSymbolTableRecord
100
AcDbLinetypeTableRecord
2
BYLAYER
70
0
0
ENDTAB
0
TABLE
2
LAYER
5
2
100
AcDbSymbolTable
70
2
0
LAYER
5
50
100
AcDbSymbolTableRecord
100
AcDbLayerTableRecord
2
0
70
0
6
CONTINUOUS
0
ENDTAB
0
TABLE
2
STYLE
5
3
100
AcDbSymbolTable
70
1
0
STYLE
5
11
100
AcDbSymbolTableRecord
100
AcDbTextStyleTableRecord
2
STANDARD
70
0
0
ENDTAB
0
TABLE
2
VIEW
5
6
100
AcDbSymbolTable
70
0
0
ENDTAB
0
TABLE
2
UCS
5
7
100
AcDbSymbolTable
70
0
0
ENDTAB
0
TABLE
2
APPID
5
9
100
AcDbSymbolTable
70
2
0
APPID
5
12
100
AcDbSymbolTableRecord
100
AcDbRegAppTableRecord
2
ACAD
70
0
0
ENDTAB
0
TABLE
2
DIMSTYLE
5
A
100
AcDbSymbolTable
70
1
0
ENDTAB
0
TABLE
2
BLOCK_RECORD
5
1
100
AcDbSymbolTable
70
1
0
BLOCK_RECORD
5
1F
100
AcDbSymbolTableRecord
100
AcDbBlockTableRecord
2
*MODEL_SPACE
0
BLOCK_RECORD
5
1B
100
AcDbSymbolTableRecord
100
AcDbBlockTableRecord
2
*PAPER_SPACE
0
ENDTAB
0
ENDSEC
0
SECTION
2
BLOCKS
0
BLOCK
5
20
100
AcDbEntity
100
AcDbBlockBegin
2
*MODEL_SPACE
0
ENDBLK
5
21
100
AcDbEntity
100
AcDbBlockEnd
0
BLOCK
5
1C
100
AcDbEntity
100
AcDbBlockBegin
2
*PAPER_SPACE
0
ENDBLK
5
1D
100
AcDbEntity
100
AcDbBlockEnd
0
ENDSEC
0
SECTION
2
ENTITIES
0
SPLINE
5
100
100
AcDbEntity
8
0
100
AcDbSpline
70
0
71
3
72
11
73
7
74
0
42
0.000000001
43
0.0000000001
44
0.0000000001
40
0.15069191991256745
40
0.15069191991256745
40
0.15069191991256745
40
0.15069191991256745
40
0.23808532383793085
40
0.23808532383793085
40
0.23808532383793085
40
0.30138383982514105
40
0.30138383982514105
40
0.30138383982514105
40
0.30138383982514105
10
298.00000000000057
20
40.770809682694711
30
0
10
298.00000000000057
20
40.479498326256291
30
0
10
297.85294032190899
20
40.167931148616475
30
0
10
297.61522460109256
20
39.982327058925769
30
0
10
297.44304853655382
20
39.84789513488019
30
0
10
297.2209878553648
20
39.770542789419288
30
0
10
297.00000000000057
20
39.770542789419295
30
0
0
SPLINE
5
101
100
AcDbEntity
8
0
100
AcDbSpline
70
0
71
3
72
11
73
7
74
0
42
0.000000001
43
0.0000000001
44
0.0000000001
40
0.15069191991256098
40
0.15069191991256098
40
0.15069191991256098
40
0.15069191991256098
40
0.23808532383716002
40
0.23808532383716002
40
0.23808532383716002
40
0.30138383982513117
40
0.30138383982513117
40
0.30138383982513117
40
0.30138383982513117
10
298.00000000000057
20
-11.589067877135182
30
4.9303806576313238e-31
10
298.00000000000057
20
-11.880379233571084
30
0
10
297.85294032191121
20
-12.191946411208644
30
4.9303806576313238e-31
10
297.61522460109876
20
-12.377550500899247
30
0
10
297.44304853655939
20
-12.511982424947536
30
-4.9303806576313238e-31
10
297.2209878553673
20
-12.589334770410591
30
-1.4791141972893971e-30
10
297.00000000000045
20
-12.58933477041057
30
-4.9303806576313238e-31
0
SPLINE
5
102
100
AcDbEntity
8
0
100
AcDbSpline
70
0
71
3
72
11
73
7
74
0
42
0.000000001
43
0.0000000001
44
0.0000000001
40
0.15069191991256742
40
0.15069191991256742
40
0.15069191991256742
40
0.15069191991256742
40
0.23808532383718206
40
0.23808532383718206
40
0.23808532383718206
40
0.30138383982514788
40
0.30138383982514788
40
0.30138383982514788
40
0.30138383982514788
10
298.00000000000057
20
-57.403960741986296
30
-4.9303806576313238e-31
10
298.00000000000057
20
-57.695272098422222
30
4.9303806576313238e-31
10
297.85294032191121
20
-58.006839276059878
30
4.9303806576313238e-31
10
297.6152246010987
20
-58.192443365750449
30
0
10
297.44304853655939
20
-58.326875289798679
30
0
10
297.22098785536741
20
-58.404227635261741
30
-4.9303806576313238e-31
10
297.00000000000051
20
-58.404227635261712
30
0
0
LWPOLYLINE
5
103
100
AcDbEntity
8
0
100
AcDbPolyline
90
4
70
1
43
0.0
10
31.000000000000565
20
-60.209847998337921
10
31.000000000000565
20
-54.598073485634686
10
51.000000000000568
20
-54.598073485634686
10
51.000000000000568
20
-60.209847998337921
0
LWPOLYLINE
5
104
100
AcDbEntity
8
0
100
AcDbPolyline
90
4
70
1
43
0.0
10
-106.99999999999945
20
-54.598073485634686
10
-106.99999999999945
20
-60.209847998337921
10
-126.99999999999945
20
-60.209847998337921
10
-126.99999999999945
20
-54.598073485634686
0
LWPOLYLINE
5
105
100
AcDbEntity
8
0
100
AcDbPolyline
90
20
70
1
43
0.0
10
0
20
3.8857805861880479e-15
10
-142.99999999999943
20
1.9428902930940239e-15
10
-142.99999999999943
20
-36.268105144227803
10
0
20
-36.268105144227818
10
0
20
-39.269908169872409
10
-142.99999999999943
20
-39.269908169872409
10
-142.99999999999943
20
-75.538013314100226
10
0
20
-75.538013314100226
10
0
20
-78.539816339744817
10
-142.99999999999943
20
-78.539816339744817
10
-142.99999999999943
20
-101.88712292727432
10
357.00000000000057
20
-101.88712292727432
10
357.00000000000057
20
55.142509741778753
10
-142.9999999999994
20
55.142509741778738
10
-142.99999999999943
20
42.271711195517
10
0
20
42.271711195517
10
0
20
39.269908169872409
10
-142.99999999999943
20
39.269908169872416
10
-142.99999999999943
20
3.0018030256445982
10
0
20
3.0018030256445987
0
SPLINE
5
106
100
AcDbEntity
8
0
100
AcDbSpline
70
0
71
3
72
14
73
10
74
0
42
0.000000001
43
0.0000000001
44
0.0000000001
40
0.30138383982514788
40
0.30138383982514788
40
0.30138383982514788
40
0.30138383982514788
40
0.35392836871292627
40
0.35392836871292627
40
0.35392836871292627
40
0.44705038809108844
40
0.44705038809108844
40
0.44705038809108844
40
0.45207575973771269
40
0.45207575973771269
40
0.45207575973771269
40
0.45207575973771269
10
297.00000000000051
20
-58.404227635261712
30
0
10
296.81655647736915
20
-58.404227635261691
30
0
10
296.63442149820287
20
-58.353084264891336
30
4.9303806576313238e-31
10
296.47710234928132
20
-58.256521488568652
30
0
10
296.19829355330359
20
-58.085388148556525
30
4.9303806576313238e-31
10
296.01726825698256
20
-57.7697497812308
30
-4.9303806576313238e-31
10
296.0012839279413
20
-57.454618526178066
30
4.9303806576313238e-31
10
296.00042132643745
20
-57.437612326305228
30
0
10
296.00000000000063
20
-57.420711981384599
30
4.9303806576313238e-31
10
296.00000000000063
20
-57.40396074198631
30
-4.9303806576313238e-31
0
SPLINE
5
107
100
AcDbEntity
8
0
100
AcDbSpline
70
0
71
3
72
17
73
13
74
0
42
0.000000001
43
0.0000000001
44
0.0000000001
40
0.45207575973771269
40
0.45207575973771269
40
0.45207575973771269
40
0.45207575973771269
40
0.53946916366129094
40
0.53946916366129094
40
0.53946916366129094
40
0.65531220853856165
40
0.65531220853856165
40
0.65531220853856165
40
0.74843422791657732
40
0.74843422791657732
40
0.74843422791657732
40
0.75345959956285768
40
0.75345959956285768
40
0.75345959956285768
40
0.75345959956285768
10
296.00000000000063
20
-57.40396074198631
30
-4.9303806576313238e-31
10
296.00000000000063
20
-57.112649385553844
30
4.9303806576313238e-31
10
296.1470596780868
20
-56.801082207919407
30
0
10
296.38477539889413
20
-56.615478118228737
30
4.9303806576313238e-31
10
296.69987598632054
20
-56.369453339170541
30
-4.9303806576313238e-31
10
297.17606174574513
20
-56.338511493637114
30
0
10
297.52289765072425
20
-56.551399995406669
30
-4.9303806576313238e-31
10
297.80170644670045
20
-56.722533335419826
30
0
10
297.98273174301994
20
-57.038171702746048
30
4.9303806576313238e-31
10
297.99871607206012
20
-57.353302957798043
30
4.9303806576313238e-31
10
297.9995786735638
20
-57.370309157669709
30
0
10
298.00000000000063
20
-57.387209502589165
30
0
10
298.00000000000063
20
-57.40396074198631
30
-4.9303806576313238e-31
0
SPLINE
5
108
100
AcDbEntity
8
0
100
AcDbSpline
70
0
71
3
72
14
73
10
74
0
42
0.000000001
43
0.0000000001
44
0.0000000001
40
0.30138383982513117
40
0.30138383982513117
40
0.30138383982513117
40
0.30138383982513117
40
0.35392836871172051
40
0.35392836871172051
40
0.35392836871172051
40
0.44705038809034825
40
0.44705038809034825
40
0.44705038809034825
40
0.45207575973769132
40
0.45207575973769132
40
0.45207575973769132
40
0.45207575973769132
10
297.00000000000045
20
-12.58933477041057
30
-4.9303806576313238e-31
10
296.81655647737324
20
-12.589334770410549
30
4.9303806576313238e-31
10
296.63442149821145
20
-12.538191400042766
30
0
10
296.47710234929201
20
-12.441628623724064
30
-4.9303806576313238e-31
10
296.19829355331018
20
-12.270495283714249
30
-4.9303806576313238e-31
10
296.0172682569854
20
-11.954856916389179
30
0
10
296.0012839279417
20
-11.639725661334246
30
-4.9303806576313238e-31
10
296.00042132643762
20
-11.622719461458944
30
-4.9303806576313238e-31
10
296.00000000000063
20
-11.605819116535869
30
0
10
296.00000000000063
20
-11.589067877135179
30
4.9303806576313238e-31
0
SPLINE
5
109
100
AcDbEntity
8
0
100
AcDbSpline
70
0
71
3
72
17
73
13
74
0
42
0.000000001
43
0.0000000001
44
0.0000000001
40
0.45207575973769132
40
0.45207575973769132
40
0.45207575973769132
40
0.45207575973769132
40
0.53946916366256026
40
0.53946916366256026
40
0.53946916366256026
40
0.6553122085378581
40
0.6553122085378581
40
0.6553122085378581
40
0.74843422791616887
40
0.74843422791616887
40
0.74843422791616887
40
0.75345959956282238
40
0.75345959956282238
40
0.75345959956282238
40
0.75345959956282238
10
296.00000000000063
20
-11.589067877135179
30
4.9303806576313238e-31
10
296.00000000000063
20
-11.297756520698378
30
-4.9303806576313238e-31
10
296.14705967809073
20
-10.986189343060085
30
0
10
296.38477539890471
20
-10.800585253369361
30
-4.9303806576313238e-31
10
296.69987598632997
20
-10.554560474318928
30
0
10
297.17606174574348
20
-10.523618628788325
30
0
10
297.52289765071828
20
-10.736507130551873
30
4.9303806576313238e-31
10
297.8017064466967
20
-10.907640470563658
30
4.9303806576313238e-31
10
297.98273174301846
20
-11.223278837889772
30
0
10
297.99871607205989
20
-11.538410092943119
30
4.9303806576313238e-31
10
297.99957867356369
20
-11.555416292816059
30
0
10
298.00000000000057
20
-11.572316637736794
30
0
10
298.00000000000057
20
-11.589067877135184
30
4.9303806576313238e-31
0
SPLINE
5
110
100
AcDbEntity
8
0
100
AcDbSpline
70
0
71
3
72
14
73
10
74
0
42
0.000000001
43
0.0000000001
44
0.0000000001
40
0.30138383982514105
40
0.30138383982514105
40
0.30138383982514105
40
0.30138383982514105
40
0.35392836871298655
40
0.35392836871298655
40
0.35392836871298655
40
0.44705038809113767
40
0.44705038809113767
40
0.44705038809113767
40
0.4520757597377123
40
0.4520757597377123
40
0.4520757597377123
40
0.4520757597377123
10
297.00000000000057
20
39.770542789419295
30
0
10
296.81655647736903
20
39.770542789419309
30
0
10
296.6344214982023
20
39.821686159789877
30
0
10
296.47710234928076
20
39.918248936112725
30
0
10
296.19829355330324
20
40.089382276124923
30
0
10
296.01726825698233
20
40.405020643450776
30
0
10
296.00128392794124
20
40.72015189850346
30
0
10
296.00042132643745
20
40.737158098376121
30
4.9303806576313238e-31
10
296.00000000000057
20
40.754058443296586
30
0
10
296.00000000000057
20
40.770809682694711
30
0
0
SPLINE
5
111
100
AcDbEntity
8
0
100
AcDbSpline
70
0
71
3
72
17
73
13
74
0
42
0.000000001
43
0.0000000001
44
0.0000000001
40
0.4520757597377123
40
0.4520757597377123
40
0.4520757597377123
40
0.4520757597377123
40
0.53946916366184605
40
0.53946916366184605
40
0.53946916366184605
40
0.6553122085373001
40
0.6553122085373001
40
0.6553122085373001
40
0.74843422791574066
40
0.74843422791574066
40
0.74843422791574066
40
0.75345959956285735
40
0.75345959956285735
40
0.75345959956285735
40
0.75345959956285735
10
296.00000000000057
20
40.770809682694704
30
0
10
296.00000000000057
20
41.062121039129025
30
0
10
296.14705967808845
20
41.37368821676511
30
0
10
296.38477539889868
20
41.559292306455831
30
0
10
296.69987598632196
20
41.805317085508662
30
0
10
297.17606174573564
20
41.836258931043425
30
0
10
297.52289765071299
20
41.623370429281294
30
0
10
297.80170644669352
20
41.452237089270639
30
0
10
297.9827317430167
20
41.136598721945496
30
4.9303806576313238e-31
10
297.99871607205961
20
40.821467466891463
30
0
10
297.99957867356363
20
40.80446126701694
30
0
10
298.00000000000057
20
40.787560922094634
30
4.9303806576313238e-31
10
298.00000000000057
20
40.770809682694704
30
0
0
LINE
5
112
100
AcDbEntity
8
0
100
AcDbLine
10
41.345936248138941
20
-20.053593600429068
30
0
11
38.500097585649598
21
-20.053734194053135
31
0
0
LINE
5
113
100
AcDbEntity
8
0
100
AcDbLine
10
38.500097585649598
20
-20.053734194053135
30
0
11
38.50005168464557
21
-19.12740421463263
31
-4.9303806576313238e-31
0
LINE
5
114
100
AcDbEntity
8
0
100
AcDbLine
10
38.50005168464557
20
-19.12740421463263
30
-4.9303806576313238e-31
11
45.500051602479431
21
-19.127058045505919
31
0
0
LINE
5
115
100
AcDbEntity
8
0
100
AcDbLine
10
45.500051602479431
20
-19.127058045505919
30
0
11
45.50018243886187
21
-21.76757573663572
31
1.5407439555097887e-32
0
SPLINE
5
116
100
AcDbEntity
8
0
100
AcDbSpline
70
0
71
3
72
11
73
7
74
0
42
0.000000001
43
0.0000000001
44
0.0000000001
40
0
40
0
40
0
40
0
40
0.061499657047885681
40
0.061499657047885681
40
0.061499657047885681
40
0.10678148308475935
40
0.10678148308475935
40
0.10678148308475935
40
0.10678148308475935
10
45.500182313998238
20
-21.767575736641902
30
-4.9303806576313238e-31
10
45.499553800556271
20
-21.972840090285626
30
4.9303806576313238e-31
10
45.498925287114304
20
-22.178104443929346
30
0
10
45.483500647166238
20
-22.382346043092618
30
0
10
45.472143577934702
20
-22.532727898971956
30
-4.9303806576313238e-31
10
45.452765102458144
20
-22.682555290196408
30
4.9303806576313238e-31
10
45.433386626981601
20
-22.832382681420881
30
-4.9303806576313238e-31
0
SPLINE
5
117
100
AcDbEntity
8
0
100
AcDbSpline
70
0
71
3
72
11
73
7
74
0
42
0.000000001
43
0.0000000001
44
0.0000000001
40
0
40
0
40
0
40
0
40
0.04900500207633119
40
0.04900500207633119
40
0.04900500207633119
40
0.092972235621467336
40
0.092972235621467336
40
0.092972235621467336
40
0.092972235621467336
10
45.433386626981601
20
-22.832382681420881
30
-4.9303806576313238e-31
10
45.40066610664455
20
-22.993764685902409
30
-4.9303806576313238e-31
10
45.367945586307513
20
-23.155146690383958
30
4.9303806576313238e-31
10
45.308665611701201
20
-23.306295866138065
30
-4.9303806576313238e-31
10
45.255479684191101
20
-23.441906739089035
30
-1.4791141972893971e-30
10
45.180914302971203
20
-23.569280534354608
30
-4.9303806576313238e-31
10
45.106348921751348
20
-23.696654329620195
30
-4.9303806576313238e-31
0
SPLINE
5
118
100
AcDbEntity
8
0
100
AcDbSpline
70
0
71
3
72
11
73
7
74
0
42
0.000000001
43
0.0000000001
44
0.0000000001
40
0
40
0
40
0
40
0
40
0.042747706554647623
40
0.042747706554647623
40
0.042747706554647623
40
0.088561728686148228
40
0.088561728686148228
40
0.088561728686148228
40
0.088561728686148228
10
45.106348921751348
20
-23.696654329620195
30
-4.9303806576313238e-31
10
45.015561073029403
20
-23.808308323019208
30
0
10
44.924773224307501
20
-23.919962316418228
30
-4.9303806576313238e-31
10
44.816886190815367
20
-24.011214301286259
30
-4.9303806576313238e-31
10
44.701260363408849
20
-24.109011839241727
30
0
10
44.565994304216204
20
-24.18337550114774
30
4.9303806576313238e-31
10
44.430728245023573
20
-24.25773916305376
30
-4.9303806576313238e-31
0
SPLINE
5
119
100
AcDbEntity
8
0
100
AcDbSpline
70
0
71
3
72
11
73
7
74
0
42
0.000000001
43
0.0000000001
44
0.0000000001
40
0
40
0
40
0
40
0
40
0.048304756615143073
40
0.048304756615143073
40
0.048304756615143073
40
0.098484408887434469
40
0.098484408887434469
40
0.098484408887434469
40
0.098484408887434469
10
44.430728245023573
20
-24.25773916305376
30
-4.9303806576313238e-31
10
44.280719514575907
20
-24.319715208853388
30
-4.9303806576313238e-31
10
44.130710784128254
20
-24.381691254653013
30
-4.9303806576313238e-31
10
43.97473377982179
20
-24.417125488119176
30
4.9303806576313238e-31
10
43.812702700751615
20
-24.453935062133461
30
4.9303806576313238e-31
10
43.644231052622416
20
-24.46210245595783
30
0
10
43.475759404493189
20
-24.470269849782191
30
4.9303806576313238e-31
0
SPLINE
5
120
100
AcDbEntity
8
0
100
AcDbSpline
70
0
71
3
72
11
73
7
74
0
42
0.000000001
43
0.0000000001
44
0.0000000001
40
0
40
0
40
0
40
0
40
0.083641769044073971
40
0.083641769044073971
40
0.083641769044073971
40
0.16448514017979343
40
0.16448514017979343
40
0.16448514017979343
40
0.16448514017979343
10
43.475759404493189
20
-24.470269849782191
30
4.9303806576313238e-31
10
43.191383829492068
20
-24.448260766877755
30
-4.9303806576313238e-31
10
42.907008254490989
20
-24.426251683973327
30
9.8607613152626476e-31
10
42.65148599937406
20
-24.328256090297408
30
0
10
42.404512737809398
20
-24.233539129623935
30
0
10
42.184494405820573
20
-24.067835154118868
30
-4.9303806576313238e-31
10
41.96447607383179
20
-23.902131178613814
30
-4.9303806576313238e-31
0
SPLINE
5
121
100
AcDbEntity
8
0
100
AcDbSpline
70
0
71
3
72
11
73
7
74
0
42
0.000000001
43
0.0000000001
44
0.0000000001
40
0
40
0
40
0
40
0
40
0.092246104481509814
40
0.092246104481509814
40
0.092246104481509814
40
0.21877383347106916
40
0.21877383347106916
40
0.21877383347106916
40
0.21877383347106916
10
41.96447607383179
20
-23.902131178613814
30
-4.9303806576313238e-31
10
41.785205175039252
20
-23.644639990876041
30
-4.9303806576313238e-31
10
41.605934276246742
20
-23.387148803138263
30
0
10
41.500674317616287
20
-23.104746482325371
30
0
10
41.356296366981923
20
-22.717394360361265
30
4.9303806576313238e-31
10
41.351160744777161
20
-22.283175056793965
30
4.9303806576313238e-31
10
41.346025122572371
20
-21.848955753226669
30
4.9303806576313238e-31
0
LINE
5
122
100
AcDbEntity
8
0
100
AcDbLine
10
41.346025122572371
20
-21.848955753226665
30
4.9303806576313229e-31
11
41.345936248138941
21
-20.053593600429068
31
0
0
SPLINE
5
123
100
AcDbEntity
8
0
100
AcDbSpline
70
2
71
3
72
26
73
22
74
0
42
0.000000001
43
0.0000000001
44
0.0000000001
40
-3.1415926535897931
40
-3.1415926535897931
40
-3.1415926535897931
40
-3.1415926535897931
40
-2.1540704102609385
40
-2.1540704102609385
40
-2.1540704102609385
40
-1.1710169344468708
40
-1.1710169344468708
40
-1.1710169344468708
40
-0.19162213389138416
40
-0.19162213389138416
40
-0.19162213389138416
40
0.79785340881950628
40
0.79785340881950628
40
0.79785340881950628
40
1.778551693504435
40
1.778551693504435
40
1.778551693504435
40
2.7622597955635415
40
2.7622597955635415
40
2.7622597955635415
40
3.1415926535897931
40
3.1415926535897931
40
3.1415926535897931
40
3.1415926535897931
10
33.000000000000242
20
-21.634052692507382
30
0
10
31.84789071611657
20
-21.634052692507382
30
0
10
30.713211669973749
20
-21.02333544334229
30
4.9303806576313238e-31
10
30.078676371936606
20
-20.061711389372547
30
0
10
29.447012493501411
20
-19.104438907595579
30
0
10
29.329596740495781
20
-17.82825898863522
30
-4.9303806576313238e-31
10
29.775985919106507
20
-16.771799536196291
30
-4.9303806576313238e-31
10
30.220713750614898
20
-15.719271957409642
30
9.8607613152626476e-31
10
31.211706150801348
20
-14.915729578147417
30
-1.4791141972893971e-30
10
32.333419441456698
20
-14.698114392932224
30
4.9303806576313238e-31
10
33.466678333996974
20
-14.478259332061159
30
1.4791141972893971e-30
10
34.699460420748927
20
-14.863816039990574
30
-4.9303806576313238e-31
10
35.505506131922985
20
-15.690195081633046
30
-4.9303806576313238e-31
10
36.304401720752111
20
-16.50924363175486
30
9.8607613152626476e-31
10
36.660733889469633
20
-17.736432094115983
30
0
10
36.424737282813823
20
-18.855976792210168
30
0
10
36.188016389496113
20
-19.978957435014479
30
-4.9303806576313238e-31
10
35.362127431000616
20
-20.960265014219516
30
-1.4791141972893971e-30
10
34.296052925148587
20
-21.385244283226619
30
0
10
33.884958324700264
20
-21.549122775613672
30
-1.4791141972893971e-30
10
33.442555001030868
20
-21.634052692507382
30
0
10
33.000000000000242
20
-21.634052692507382
30
0
0
SPLINE
5
124
100
AcDbEntity
8
0
100
AcDbSpline
70
0
71
3
72
11
73
7
74
0
42
0.000000001
43
0.0000000001
44
0.0000000001
40
0
40
0
40
0
40
0
40
0.072733000941125836
40
0.072733000941125836
40
0.072733000941125836
40
0.14146582232216554
40
0.14146582232216554
40
0.14146582232216554
40
0.14146582232216554
10
39.173108668933253
20
-15.011409556144656
30
0
10
39.189614873059554
20
-15.258189999100635
30
0
10
39.206121077185884
20
-15.504970442056612
30
9.8607613152626476e-31
10
39.285354158314817
20
-15.730026232983391
30
-4.9303806576313238e-31
10
39.360229567582138
20
-15.942704374657488
30
-4.9303806576313238e-31
10
39.491121867034536
20
-16.1359817824647
30
0
10
39.622014166486906
20
-16.329259190271912
30
0
0
SPLINE
5
125
100
AcDbEntity
8
0
100
AcDbSpline
70
0
71
3
72
11
73
7
74
0
42
0.000000001
43
0.0000000001
44
0.0000000001
40
0
40
0
40
0
40
0
40
0.071795371334655092
40
0.071795371334655092
40
0.071795371334655092
40
0.154109551359293
40
0.154109551359293
40
0.154109551359293
40
0.154109551359293
10
39.622014166486906
20
-16.329259190271912
30
0
10
39.798663652988807
20
-16.496349591811065
30
0
10
39.975313139490694
20
-16.66343999335021
30
0
10
40.179506287277874
20
-16.781652916846376
30
-4.9303806576313238e-31
10
40.413615968922997
20
-16.917185329103781
30
0
10
40.68393144568789
20
-16.98846891337611
30
4.9303806576313238e-31
10
40.954246922452796
20
-17.059752497648436
30
0
0
LINE
5
126
100
AcDbEntity
8
0
100
AcDbLine
10
40.954246922452796
20
-17.059752497648436
30
3.2344028858964031e-47
11
40.720322493685813
21
-17.986094199998625
31
0
0
SPLINE
5
127
100
AcDbEntity
8
0
100
AcDbSpline
70
0
71
3
72
11
73
7
74
0
42
0.000000001
43
0.0000000001
44
0.0000000001
40
0
40
0
40
0
40
0
40
0.10851923251177305
40
0.10851923251177305
40
0.10851923251177305
40
0.20598683904210008
40
0.20598683904210008
40
0.20598683904210008
40
0.20598683904210008
10
40.720322493685813
20
-17.986094199998618
30
4.9303806576313238e-31
10
40.368601706358774
20
-17.87704076275968
30
-4.9303806576313238e-31
10
40.016880919031749
20
-17.767987325520743
30
0
10
39.714589567410869
20
-17.578486944259801
30
0
10
39.443083643204218
20
-17.408285329572887
30
-4.9303806576313238e-31
10
39.211451996605064
20
-17.173187894555845
30
0
10
38.979820350005895
20
-16.938090459538799
30
0
0
SPLINE
5
128
100
AcDbEntity
8
0
100
AcDbSpline
70
0
71
3
72
11
73
7
74
0
42
0.000000001
43
0.0000000001
44
0.0000000001
40
0
40
0
40
0
40
0
40
0.09535408284228028
40
0.09535408284228028
40
0.09535408284228028
40
0.19738925471372171
40
0.19738925471372171
40
0.19738925471372171
40
0.19738925471372171
10
38.979820350005895
20
-16.938090459538799
30
0
10
38.805080938637403
20
-16.666003327768756
30
0
10
38.630341527268882
20
-16.393916195998727
30
0
10
38.530341221160697
20
-16.097133461318865
30
-4.9303806576313238e-31
10
38.423334283263472
20
-15.779556316860104
30
-1.4791141972893971e-30
10
38.401906719996418
20
-15.433701683049863
30
4.9303806576313238e-31
10
38.380479156729365
20
-15.087847049239617
30
0
0
SPLINE
5
129
100
AcDbEntity
8
0
100
AcDbSpline
70
0
71
3
72
11
73
7
74
0
42
0.000000001
43
0.0000000001
44
0.0000000001
40
0
40
0
40
0
40
0
40
0.10324528466576918
40
0.10324528466576918
40
0.10324528466576918
40
0.19174336791274732
40
0.19174336791274732
40
0.19174336791274732
40
0.19174336791274732
10
38.380479156729365
20
-15.087847049239617
30
0
10
38.393016525961571
20
-14.73906638426377
30
0
10
38.40555389519379
20
-14.390285719287917
30
0
10
38.495623283707999
20
-14.061834971817621
30
0
10
38.572827470500059
20
-13.780298999630062
30
0
10
38.706996692759375
20
-13.513700010671812
30
-4.9303806576313238e-31
10
38.841165915018706
20
-13.247101021713563
30
0
0
SPLINE
5
130
100
AcDbEntity
8
0
100
AcDbSpline
70
0
71
3
72
11
73
7
74
0
42
0.000000001
43
0.0000000001
44
0.0000000001
40
0
40
0
40
0
40
0
40
0.084137225344400837
40
0.084137225344400837
40
0.084137225344400837
40
0.17361338106726326
40
0.17361338106726326
40
0.17361338106726326
40
0.17361338106726326
10
38.841165915018706
20
-13.247101021713563
30
0
10
39.016199387942493
20
-13.023103062664802
30
-4.9303806576313238e-31
10
39.191232860866293
20
-12.799105103616036
30
-4.9303806576313238e-31
10
39.405168994331504
20
-12.622755106208
30
-1.4791141972893971e-30
10
39.632680452123509
20
-12.435214813962576
30
-1.4791141972893971e-30
10
39.904188352808049
20
-12.301561345756827
30
-4.9303806576313238e-31
10
40.175696253492589
20
-12.167907877551071
30
-1.4791141972893971e-30
0
SPLINE
5
131
100
AcDbEntity
8
0
100
AcDbSpline
70
0
71
3
72
11
73
7
74
0
42
0.000000001
43
0.0000000001
44
0.0000000001
40
0
40
0
40
0
40
0
40
0.09475928061705971
40
0.09475928061705971
40
0.09475928061705971
40
0.1922490044582556
40
0.1922490044582556
40
0.1922490044582556
40
0.1922490044582556
10
40.175696253492589
20
-12.167907877551071
30
-1.4791141972893971e-30
10
40.474640778259513
20
-12.059966670493864
30
0
10
40.773585303026451
20
-11.952025463436657
30
-4.9303806576313238e-31
10
41.081719605700243
20
-11.890322184725106
30
0
10
41.398732650523357
20
-11.826840955630566
30
0
10
41.725472701396683
20
-11.812300692609814
30
0
10
42.05221275226998
20
-11.797760429589061
30
-4.9303806576313238e-31
0
SPLINE
5
132
100
AcDbEntity
8
0
100
AcDbSpline
70
0
71
3
72
11
73
7
74
0
42
0.000000001
43
0.0000000001
44
0.0000000001
40
0
40
0
40
0
40
0
40
0.10289339054252299
40
0.10289339054252299
40
0.10289339054252299
40
0.19667839692808362
40
0.19667839692808362
40
0.19667839692808362
40
0.19667839692808362
10
42.05221275226998
20
-11.797760429589061
30
-4.9303806576313238e-31
10
42.398112012403871
20
-11.811692071653807
30
4.9303806576313238e-31
10
42.744011272537804
20
-11.825623713718546
30
0
10
43.075836500478587
20
-11.902160643127575
30
0
10
43.378287716802845
20
-11.971922329233067
30
-4.9303806576313238e-31
10
43.669046351563608
20
-12.093695934775475
30
4.9303806576313238e-31
10
43.959804986324386
20
-12.215469540317878
30
0
0
SPLINE
5
133
100
AcDbEntity
8
0
100
AcDbSpline
70
0
71
3
72
11
73
7
74
0
42
0.000000001
43
0.0000000001
44
0.0000000001
40
0
40
0
40
0
40
0
40
0.087702264509345415
40
0.087702264509345415
40
0.087702264509345415
40
0.17355750182960872
40
0.17355750182960872
40
0.17355750182960872
40
0.17355750182960872
10
43.959804986324386
20
-12.215469540317878
30
0
10
44.214102209305693
20
-12.368053626074065
30
0
10
44.468399432287015
20
-12.520637711830243
30
0
10
44.676064486041994
20
-12.72157335051158
30
0
10
44.879356072331177
20
-12.918277244551238
30
0
10
45.037958972110616
20
-13.161317550273626
30
0
10
45.196561871890083
20
-13.404357855996004
30
0
0
SPLINE
5
134
100
AcDbEntity
8
0
100
AcDbSpline
70
0
71
3
72
11
73
7
74
0
42
0.000000001
43
0.0000000001
44
0.0000000001
40
0
40
0
40
0
40
0
40
0.086974302007285162
40
0.086974302007285162
40
0.086974302007285162
40
0.17635430442288819
40
0.17635430442288819
40
0.17635430442288819
40
0.17635430442288819
10
45.196561871890083
20
-13.404357855996004
30
0
10
45.31982060218796
20
-13.669918079356314
30
4.9303806576313238e-31
10
45.443079332485809
20
-13.935478302716628
30
-1.4791141972893971e-30
10
45.513535805947413
20
-14.214284081786158
30
-1.4791141972893971e-30
10
45.585941098348158
20
-14.500801600542806
30
0
10
45.602582726308199
20
-14.801307550252126
30
4.9303806576313238e-31
10
45.619224354268212
20
-15.101813499961443
30
4.9303806576313238e-31
0
SPLINE
5
135
100
AcDbEntity
8
0
100
AcDbSpline
70
0
71
3
72
11
73
7
74
0
42
0.000000001
43
0.0000000001
44
0.0000000001
40
0
40
0
40
0
40
0
40
0.097611617098775444
40
0.097611617098775444
40
0.097611617098775444
40
0.18708490235826059
40
0.18708490235826059
40
0.18708490235826059
40
0.18708490235826059
10
45.619224354268212
20
-15.101813499961443
30
4.9303806576313238e-31
10
45.601099651348861
20
-15.432326521208406
30
0
10
45.582974948429481
20
-15.762839542455369
30
1.4791141972893971e-30
10
45.485575126434114
20
-16.068736830677793
30
-1.4791141972893971e-30
10
45.396295977941023
20
-16.349130047619703
30
-1.4791141972893971e-30
10
45.240409709462654
20
-16.608841074459587
30
0
10
45.084523440984285
20
-16.868552101299478
30
4.9303806576313238e-31
0
SPLINE
5
136
100
AcDbEntity
8
0
100
AcDbSpline
70
0
71
3
72
11
73
7
74
0
42
0.000000001
43
0.0000000001
44
0.0000000001
40
0
40
0
40
0
40
0
40
0.08849690843742232
40
0.08849690843742232
40
0.08849690843742232
40
0.18300266897637474
40
0.18300266897637474
40
0.18300266897637474
40
0.18300266897637474
10
45.084523440984285
20
-16.868552101299478
30
4.9303806576313238e-31
10
44.883161868242553
20
-17.090607956107942
30
-4.9303806576313238e-31
10
44.681800295500821
20
-17.312663810916412
30
4.9303806576313238e-31
10
44.441136280416544
20
-17.476189548562189
30
-4.9303806576313238e-31
10
44.184131417970164
20
-17.650818521220998
30
9.8607613152626476e-31
10
43.882305724591021
20
-17.758699263249277
30
-4.9303806576313238e-31
10
43.58048003121192
20
-17.866580005277562
30
0
0
LINE
5
137
100
AcDbEntity
8
0
100
AcDbLine
10
43.58048003121192
20
-17.866580005277562
30
6.8382554601619466e-46
11
43.365564909131976
21
-16.954585306277558
31
-2.1570415377137042e-31
0
SPLINE
5
138
100
AcDbEntity
8
0
100
AcDbSpline
70
0
71
3
72
11
73
7
74
0
42
0.000000001
43
0.0000000001
44
0.0000000001
40
0
40
0
40
0
40
0
40
0.072445283930537646
40
0.072445283930537646
40
0.072445283930537646
40
0.13338432213442433
40
0.13338432213442433
40
0.13338432213442433
40
0.13338432213442433
10
43.365564909131976
20
-16.954585306277558
30
0
10
43.596673179842099
20
-16.872015870387973
30
-4.9303806576313238e-31
10
43.827781450552251
20
-16.789446434498391
30
4.9303806576313238e-31
10
44.025679324787873
20
-16.656121102813689
30
0
10
44.192145731767155
20
-16.543971394229896
30
0
10
44.335113375071259
20
-16.395908208933204
30
-4.9303806576313238e-31
10
44.47808101837532
20
-16.247845023636504
30
4.9303806576313238e-31
0
SPLINE
5
139
100
AcDbEntity
8
0
100
AcDbSpline
70
0
71
3
72
11
73
7
74
0
42
0.000000001
43
0.0000000001
44
0.0000000001
40
0
40
0
40
0
40
0
40
0.058456544476194576
40
0.058456544476194576
40
0.058456544476194576
40
0.12326738988770361
40
0.12326738988770361
40
0.12326738988770361
40
0.12326738988770361
10
44.47808101837532
20
-16.247845023636504
30
4.9303806576313238e-31
10
44.579664618131801
20
-16.078014400468838
30
4.9303806576313238e-31
10
44.681248217888253
20
-15.908183777301163
30
-1.4791141972893971e-30
10
44.739480511683908
20
-15.72498071722829
30
-4.9303806576313238e-31
10
44.804042730079971
20
-15.521863250883115
30
-4.9303806576313238e-31
10
44.815316720414074
20
-15.302308137464697
30
4.9303806576313238e-31
10
44.826590710748192
20
-15.082753024046271
30
-4.9303806576313238e-31
0
SPLINE
5
140
100
AcDbEntity
8
0
100
AcDbSpline
70
0
71
3
72
11
73
7
74
0
42
0.000000001
43
0.0000000001
44
0.0000000001
40
0
40
0
40
0
40
0
40
0.074699044908242404
40
0.074699044908242404
40
0.074699044908242404
40
0.14208255736858139
40
0.14208255736858139
40
0.14208255736858139
40
0.14208255736858139
10
44.826590710748192
20
-15.082753024046271
30
-4.9303806576313238e-31
10
44.814052052713635
20
-14.830026942134998
30
-4.9303806576313238e-31
10
44.801513394679006
20
-14.577300860223732
30
0
10
44.72986219741648
20
-14.342051759383342
30
-4.9303806576313238e-31
10
44.665228046478362
20
-14.129841405994835
30
0
10
44.552492596185559
20
-13.931852493763907
30
0
10
44.439757145892798
20
-13.733863581532987
30
-4.9303806576313238e-31
0
SPLINE
5
141
100
AcDbEntity
8
0
100
AcDbSpline
70
0
71
3
72
11
73
7
74
0
42
0.000000001
43
0.0000000001
44
0.0000000001
40
0
40
0
40
0
40
0
40
0.064660032628997471
40
0.064660032628997471
40
0.064660032628997471
40
0.13046037935984678
40
0.13046037935984678
40
0.13046037935984678
40
0.13046037935984678
10
44.439757145892798
20
-13.733863581532987
30
-4.9303806576313238e-31
10
44.298849995050261
20
-13.566337261401397
30
0
10
44.157942844207753
20
-13.398810941269812
30
-4.9303806576313238e-31
10
43.986716059297407
20
-13.272511470388203
30
4.9303806576313238e-31
10
43.812469598870209
20
-13.143984641092946
30
0
10
43.606824668825709
20
-13.058151597965878
30
0
10
43.401179738781238
20
-12.972318554838822
30
0
0
SPLINE
5
142
100
AcDbEntity
8
0
100
AcDbSpline
70
0
71
3
72
11
73
7
74
0
42
0.000000001
43
0.0000000001
44
0.0000000001
40
0
40
0
40
0
40
0
40
0.068211126544372502
40
0.068211126544372502
40
0.068211126544372502
40
0.13665312105113619
40
0.13665312105113619
40
0.13665312105113619
40
0.13665312105113619
10
43.401179738781238
20
-12.972318554838822
30
0
10
43.18203326988916
20
-12.908266244132205
30
9.8607613152626476e-31
10
42.962886800997126
20
-12.844213933425596
30
-1.4791141972893971e-30
10
42.739251275825708
20
-12.807617339783191
30
-4.9303806576313238e-31
10
42.514858831942789
20
-12.77089688099689
30
0
10
42.285946892959231
20
-12.761818307505502
30
0
10
42.057034953975659
20
-12.752739734014112
30
4.9303806576313238e-31
0
SPLINE
5
143
100
AcDbEntity
8
0
100
AcDbSpline
70
0
71
3
72
11
73
7
74
0
42
0.000000001
43
0.0000000001
44
0.0000000001
40
0
40
0
40
0
40
0
40
0.083873126935890607
40
0.083873126935890607
40
0.083873126935890607
40
0.158741856486523
40
0.158741856486523
40
0.158741856486523
40
0.158741856486523
10
42.057034953975659
20
-12.752739734014112
30
4.9303806576313238e-31
10
41.775969297685322
20
-12.760914444656077
30
4.9303806576313238e-31
10
41.494903641395013
20
-12.769089155298033
30
4.9303806576313238e-31
10
41.220833885120257
20
-12.817839003879556
30
0
10
40.976187534016319
20
-12.861355197473653
30
9.8607613152626476e-31
10
40.737115592193959
20
-12.937202102631158
30
4.9303806576313238e-31
10
40.498043650371599
20
-13.013049007788652
30
0
0
SPLINE
5
144
100
AcDbEntity
8
0
100
AcDbSpline
70
0
71
3
72
11
73
7
74
0
42
0.000000001
43
0.0000000001
44
0.0000000001
40
0
40
0
40
0
40
0
40
0.06702087054403541
40
0.06702087054403541
40
0.06702087054403541
40
0.13014873020840384
40
0.13014873020840384
40
0.13014873020840384
40
0.13014873020840384
10
40.498043650371599
20
-13.013049007788652
30
0
10
40.291811417505855
20
-13.108955707492772
30
-4.9303806576313238e-31
10
40.085579184640125
20
-13.204862407196888
30
4.9303806576313238e-31
10
39.916119099636219
20
-13.34552988498981
30
4.9303806576313238e-31
10
39.756502365654697
20
-13.478026474863526
30
0
10
39.629509916367439
20
-13.650234869796577
30
9.8607613152626476e-31
10
39.502517467080182
20
-13.822443264729628
30
0
0
SPLINE
5
145
100
AcDbEntity
8
0
100
AcDbSpline
70
0
71
3
72
11
73
7
74
0
42
0.000000001
43
0.0000000001
44
0.0000000001
40
0
40
0
40
0
40
0
40
0.062290206477775438
40
0.062290206477775438
40
0.062290206477775438
40
0.12455302819472364
40
0.12455302819472364
40
0.12455302819472364
40
0.12455302819472364
10
39.502517467080182
20
-13.822443264729628
30
0
10
39.406432057295874
20
-14.009242366698809
30
4.9303806576313238e-31
10
39.310346647511608
20
-14.196041468667985
30
0
10
39.255445180799185
20
-14.394249429570534
30
-1.4791141972893971e-30
10
39.20056785052202
20
-14.592370251933813
30
0
10
39.186838259727622
20
-14.801889904039241
30
0
10
39.173108668933253
20
-15.011409556144656
30
0
0
ENDSEC
0
SECTION
2
OBJECTS
0
DICTIONARY
5
C
100
AcDbDictionary
3
ACAD_GROUP
350
D
3
ACAD_MLINESTYLE
350
17
0
DICTIONARY
5
D
100
AcDbDictionary
0
DICTIONARY
5
1A
330
C
100
AcDbDictionary
0
DICTIONARY
5
17
100
AcDbDictionary
0
ENDSEC
0
EOF
