0
SECTION
2
HEADER
9
$INSUNITS
70
4
9
$ACADVER
1
AC1014
9
$HANDSEED
5
FFFF
0
ENDSEC
0
SECTION
2
TABLES
0
TABLE
2
VPORT
5
8
100
AcDbSymbolTable
0
ENDTAB
0
TABLE
2
LTYPE
5
5
100
AcDbSymbolTable
0
LTYPE
5
14
100
AcDbSymbolTableRecord
100
AcDbLinetypeTableRecord
2
BYBLOCK
70
0
0
LTYPE
5
15
100
AcDbSymbolTableRecord
100
AcDbLinetypeTableRecord
2
BYLAYER
70
0
0
ENDTAB
0
TABLE
2
LAYER
5
2
100
AcDbSymbolTable
70
2
0
LAYER
5
50
100
AcDbSymbolTableRecord
100
AcDbLayerTableRecord
2
0
70
0
6
CONTINUOUS
0
ENDTAB
0
TABLE
2
STYLE
5
3
100
AcDbSymbolTable
70
1
0
STYLE
5
11
100
AcDbSymbolTableRecord
100
AcDbTextStyleTableRecord
2
STANDARD
70
0
0
ENDTAB
0
TABLE
2
VIEW
5
6
100
AcDbSymbolTable
70
0
0
ENDTAB
0
TABLE
2
UCS
5
7
100
AcDbSymbolTable
70
0
0
ENDTAB
0
TABLE
2
APPID
5
9
100
AcDbSymbolTable
70
2
0
APPID
5
12
100
AcDbSymbolTableRecord
100
AcDbRegAppTableRecord
2
ACAD
70
0
0
ENDTAB
0
TABLE
2
DIMSTYLE
5
A
100
AcDbSymbolTable
70
1
0
ENDTAB
0
TABLE
2
BLOCK_RECORD
5
1
100
AcDbSymbolTable
70
1
0
BLOCK_RECORD
5
1F
100
AcDbSymbolTableRecord
100
AcDbBlockTableRecord
2
*MODEL_SPACE
0
BLOCK_RECORD
5
1B
100
AcDbSymbolTableRecord
100
AcDbBlockTableRecord
2
*PAPER_SPACE
0
ENDTAB
0
ENDSEC
0
SECTION
2
BLOCKS
0
BLOCK
5
20
100
AcDbEntity
100
AcDbBlockBegin
2
*MODEL_SPACE
0
ENDBLK
5
21
100
AcDbEntity
100
AcDbBlockEnd
0
BLOCK
5
1C
100
AcDbEntity
100
AcDbBlockBegin
2
*PAPER_SPACE
0
ENDBLK
5
1D
100
AcDbEntity
100
AcDbBlockEnd
0
ENDSEC
0
SECTION
2
ENTITIES
0
SPLINE
5
100
100
AcDbEntity
8
0
100
AcDbSpline
70
0
71
3
72
11
73
7
74
0
42
0.000000001
43
0.0000000001
44
0.0000000001
40
0.26377323561639343
40
0.26377323561639343
40
0.26377323561639343
40
0.26377323561639343
40
0.39190035262588163
40
0.39190035262588163
40
0.39190035262588163
40
0.52754647123278553
40
0.52754647123278553
40
0.52754647123278553
40
0.52754647123278553
10
-26.750000000000036
20
-90.298055045126517
30
0
10
-26.750000000000036
20
-89.87096464040377
30
0
10
-26.561234321216386
20
-89.397984289155772
30
0
10
-26.263813611512159
20
-89.087096014602793
30
0
10
-25.948939088411002
20
-88.757963597142833
30
0
10
-25.465951777736798
20
-88.546622657580485
30
0
10
-25
20
-88.546622657580485
30
0
0
SPLINE
5
101
100
AcDbEntity
8
0
100
AcDbSpline
70
0
71
3
72
11
73
7
74
0
42
0.000000001
43
0.0000000001
44
0.0000000001
40
0.15069191991257189
40
0.15069191991257189
40
0.15069191991257189
40
0.15069191991257189
40
0.23808532383922804
40
0.23808532383922804
40
0.23808532383922804
40
0.30138383982515127
40
0.30138383982515127
40
0.30138383982515127
40
0.30138383982515127
10
-6.0000000000000444
20
-90.298055045126503
30
0
10
-6.0000000000000444
20
-90.00674368868377
30
0
10
-5.8529403219045761
20
-89.69517651104016
30
0
10
-5.6152246010813567
20
-89.509572421349304
30
0
10
-5.4430485365437873
20
-89.375140497308337
30
0
10
-5.220987855359529
20
-89.297788151851051
30
0
10
-4.9999999999999289
20
-89.29778815185108
30
0
0
SPLINE
5
102
100
AcDbEntity
8
0
100
AcDbSpline
70
0
71
3
72
11
73
7
74
0
42
0.000000001
43
0.0000000001
44
0.0000000001
40
0.26377323561639343
40
0.26377323561639343
40
0.26377323561639343
40
0.26377323561639343
40
0.3919003526250866
40
0.3919003526250866
40
0.3919003526250866
40
0.52754647123278331
40
0.52754647123278331
40
0.52754647123278331
40
0.52754647123278331
10
-26.750000000000036
20
-142.65793260495639
30
0
10
-26.750000000000036
20
-142.23084220023631
30
0
10
-26.561234321219104
20
-141.75786184899133
30
0
10
-26.263813611517698
20
-141.44697357443846
30
0
10
-25.948939088415727
20
-141.11784115697463
30
0
10
-25.46595177773991
20
-140.90650021741038
30
0
10
-25
20
-140.90650021741035
30
0
0
SPLINE
5
103
100
AcDbEntity
8
0
100
AcDbSpline
70
0
71
3
72
11
73
7
74
0
42
0.000000001
43
0.0000000001
44
0.0000000001
40
0.15069191991257194
40
0.15069191991257194
40
0.15069191991257194
40
0.15069191991257194
40
0.23808532383962819
40
0.23808532383962819
40
0.23808532383962819
40
0.30138383982515121
40
0.30138383982515121
40
0.30138383982515121
40
0.30138383982515121
10
-6.0000000000000639
20
-142.65793260495639
30
0
10
-6.0000000000000639
20
-142.3666212485123
30
0
10
-5.8529403219033815
20
-142.05505407086756
30
0
10
-5.6152246010780935
20
-141.86944998117664
30
0
10
-5.4430485365409043
20
-141.73501805713713
30
0
10
-5.2209878553581284
20
-141.65766571168092
30
0
10
-4.9999999999999289
20
-141.65766571168095
30
0
0
SPLINE
5
104
100
AcDbEntity
8
0
100
AcDbSpline
70
0
71
3
72
11
73
7
74
0
42
0.000000001
43
0.0000000001
44
0.0000000001
40
0.26377323561639354
40
0.26377323561639354
40
0.26377323561639354
40
0.26377323561639354
40
0.39190035262891587
40
0.39190035262891587
40
0.39190035262891587
40
0.52754647123279297
40
0.52754647123279297
40
0.52754647123279297
40
0.52754647123279297
10
-26.750000000000028
20
-37.938177485296627
30
0
10
-26.750000000000028
20
-37.511087080563776
30
0
10
-26.561234321205891
20
-37.038106729304111
30
0
10
-26.263813611491031
20
-36.727218454750826
30
0
10
-25.948939088393089
20
-36.39808603730566
30
0
10
-25.465951777724062
20
-36.186745097750588
30
0
10
-24.999999999999929
20
-36.186745097750602
30
0
0
SPLINE
5
105
100
AcDbEntity
8
0
100
AcDbSpline
70
2
71
3
72
56
73
52
74
0
42
0.000000001
43
0.0000000001
44
0.0000000001
40
0.30584102546137232
40
0.30584102546137232
40
0.30584102546137232
40
0.30584102546137232
40
0.35554569452910983
40
0.35554569452910983
40
0.35554569452910983
40
0.39863472297580949
40
0.39863472297580949
40
0.39863472297580949
40
0.43564645248189116
40
0.43564645248189116
40
0.43564645248189116
40
0.46602568293274216
40
0.46602568293274216
40
0.46602568293274216
40
0.49119900256124155
40
0.49119900256124155
40
0.49119900256124155
40
0.51244434068253253
40
0.51244434068253253
40
0.51244434068253253
40
0.52963995279324538
40
0.52963995279324538
40
0.52963995279324538
40
0.54618805358617606
40
0.54618805358617606
40
0.54618805358617606
40
0.56302056478660811
40
0.56302056478660811
40
0.56302056478660811
40
0.58258417105012927
40
0.58258417105012927
40
0.58258417105012927
40
0.61076467618972918
40
0.61076467618972918
40
0.61076467618972918
40
0.6567111252548028
40
0.6567111252548028
40
0.6567111252548028
40
0.7343070913923887
40
0.7343070913923887
40
0.7343070913923887
40
0.74087782866291951
40
0.74087782866291951
40
0.74087782866291951
40
0.82402518747945575
40
0.82402518747945575
40
0.82402518747945575
40
0.90738198607204423
40
0.90738198607204423
40
0.90738198607204423
40
0.96972248616515833
40
0.96972248616515833
40
0.96972248616515833
40
0.96972248616515833
10
-2.9999999999999716
20
-32.256141041798173
30
0
10
-3.182698258246222
20
-32.25614104179818
30
0
10
-3.3803409975214915
20
-32.220174637648057
30
0
10
-3.5714812519457966
20
-32.137941139476553
30
0
10
-3.7371809339811293
20
-32.066652835813365
30
0
10
-3.9048616287557025
20
-31.957605785493577
30
0
10
-4.0522690980955858
20
-31.806695307988015
30
0
10
-4.1788861414371663
20
-31.677069322570826
30
0
10
-4.3004992948734628
20
-31.50457706989457
30
0
10
-4.3840215419906183
20
-31.297861609084997
30
-9.8607613152626476e-31
10
-4.452576608906095
20
-31.128189542810549
30
0
10
-4.5000000000000453
20
-30.919956223087802
30
-9.8607613152626476e-31
10
-4.4999999999998863
20
-30.701540286767006
30
0
10
-4.4999999999998863
20
-30.520553010415266
30
0
10
-4.4666616015317295
20
-30.312422343807754
30
0
10
-4.3856478914773334
20
-30.112588784776371
30
0
10
-4.3172753570652
20
-29.943936751899642
30
0
10
-4.2073300983451016
20
-29.764383770850262
30
0
10
-4.0557601266746701
20
-29.611436924814747
30
0
10
-3.9330819925072125
20
-29.487644372163032
30
0
10
-3.7666327937275472
20
-29.366397869132047
30
0
10
-3.5721661474583755
20
-29.28487206967862
30
0
10
-3.3850222619946964
20
-29.206416174192356
30
0
10
-3.1859676785920845
20
-29.169697441056996
30
0
10
-3.0000000000001847
20
-29.169697441056961
30
0
10
-2.81083611515403
20
-29.169697441056925
30
0
10
-2.6084707278040309
20
-29.209144092932693
30
0
10
-2.4278338525415677
20
-29.284872069678674
30
0
10
-2.2178884283426701
20
-29.372887001173503
30
0
10
-2.0599062316487977
20
-29.494719843568063
30
0
10
-1.944239873325202
20
-29.611436924814729
30
0
10
-1.7776276260067281
20
-29.779562691794702
30
0
10
-1.675442068262265
20
-29.961900412800695
30
0
10
-1.6143521085226809
20
-30.11258878477646
30
0
10
-1.5147489711890081
20
-30.358276204976686
30
0
10
-1.5089577532389957
20
-30.476081897627942
30
-9.8607613152626476e-31
10
-1.5017053134079816
20
-30.629702586499885
30
0
10
-1.4894571400019099
20
-30.889142565307765
30
0
10
-1.5268022169420827
20
-31.056052131736642
30
0
10
-1.5972401725725405
20
-31.249096832574939
30
0
10
-1.6032047777364276
20
-31.265443636072785
30
0
10
-1.6094512587945169
20
-31.281706955204676
30
0
10
-1.6159784580093373
20
-31.297861609085036
30
0
10
-1.6985748779902077
20
-31.502285671019617
30
0
10
-1.821168731708964
20
-31.677125499728945
30
0
10
-1.9477309019043787
20
-31.806695307988004
30
0
10
-2.0746118693887734
20
-31.936591489471638
30
0
10
-2.2201409935457033
20
-32.048291621399152
30
0
10
-2.4285187480542447
20
-32.137941139476581
30
0
10
-2.584359347065722
20
-32.20498780974728
30
0
10
-2.7708565211511234
20
-32.256141041798173
30
0
10
-2.9999999999999716
20
-32.256141041798173
30
0
0
LINE
5
106
100
AcDbEntity
8
0
100
AcDbLine
10
-2.9679977043552794
20
-29.170070425444852
30
-7.4025839294528775e-32
11
0
21
-29.170070425444852
31
-7.4025839294528775e-32
0
LINE
5
107
100
AcDbEntity
8
0
100
AcDbLine
10
-2.9680033532865604
20
-32.255764559834191
30
-7.4025839294528775e-32
11
-5.6489313856449979e-06
21
-32.255765349937889
31
-7.4025839294528775e-32
0
ARC
5
108
100
AcDbEntity
8
0
100
AcDbCircle
10
-2.9680029425688681
20
-30.712917492635103
30
-7.4025839294528775e-32
40
1.5428470671991441
210
0
220
-0
230
1
100
AcDbArc
50
89.999805471626317
51
269.99998474742517
0
SPLINE
5
109
100
AcDbEntity
8
0
100
AcDbSpline
70
0
71
3
72
11
73
7
74
0
42
0.000000001
43
0.0000000001
44
0.0000000001
40
0.15069191991257114
40
0.15069191991257114
40
0.15069191991257114
40
0.15069191991257114
40
0.23808532383660316
40
0.23808532383660316
40
0.23808532383660316
40
0.30138383982514017
40
0.30138383982514017
40
0.30138383982514017
40
0.30138383982514017
10
-70.999999999999986
20
-90.298055045126517
30
0
10
-70.999999999999986
20
-90.006743688692495
30
0
10
-70.852940321912271
20
-89.69517651105653
30
0
10
-70.615224601102796
20
-89.509572421365988
30
0
10
-70.443048536562884
20
-89.375140497315684
30
0
10
-70.220987855368747
20
-89.29778815185108
30
0
10
-70
20
-89.29778815185108
30
0
0
SPLINE
5
110
100
AcDbEntity
8
0
100
AcDbSpline
70
0
71
3
72
14
73
10
74
0
42
0.000000001
43
0.0000000001
44
0.0000000001
40
0.30138383982514017
40
0.30138383982514017
40
0.30138383982514017
40
0.30138383982514017
40
0.35392836871127964
40
0.35392836871127964
40
0.35392836871127964
40
0.44705038809003705
40
0.44705038809003705
40
0.44705038809003705
40
0.45207575973771308
40
0.45207575973771308
40
0.45207575973771308
40
0.45207575973771308
10
-70
20
-89.29778815185108
30
0
10
-69.816556477374419
20
-89.29778815185108
30
0
10
-69.634421498214351
20
-89.348931522217839
30
0
10
-69.477102349295592
20
-89.445494298535039
30
0
10
-69.198293553312126
20
-89.616627638543903
30
0
10
-69.017268256986057
20
-89.932266005868442
30
0
10
-69.001283927941245
20
-90.247397260924075
30
0
10
-69.000421326437063
20
-90.264403460800523
30
0
10
-69
20
-90.281303805724718
30
0
10
-69
20
-90.298055045126517
30
0
0
SPLINE
5
111
100
AcDbEntity
8
0
100
AcDbSpline
70
0
71
3
72
17
73
13
74
0
42
0.000000001
43
0.0000000001
44
0.0000000001
40
0.45207575973771308
40
0.45207575973771308
40
0.45207575973771308
40
0.45207575973771308
40
0.53946916366296993
40
0.53946916366296993
40
0.53946916366296993
40
0.65531220853905148
40
0.65531220853905148
40
0.65531220853905148
40
0.74843422791681102
40
0.74843422791681102
40
0.74843422791681102
40
0.75345959956285535
40
0.75345959956285535
40
0.75345959956285535
40
0.75345959956285535
10
-69.000000000000014
20
-90.298055045126503
30
0
10
-69.000000000000014
20
-90.589366401564618
30
0
10
-69.147059678091239
20
-90.900933579204036
30
0
10
-69.384775398907266
20
-91.08653766889482
30
0
10
-69.699875986335954
20
-91.33256244794589
30
0
10
-70.176061745753856
20
-91.363504293472474
30
0
10
-70.522897650728098
20
-91.150615791703459
30
0
10
-70.801706446702553
20
-90.979482451689449
30
0
10
-70.982731743020253
20
-90.663844084363333
30
0
10
-70.99871607205958
20
-90.348712829312376
30
0
10
-70.999578673563207
20
-90.331706629441527
30
0
10
-70.999999999999986
20
-90.314806284522859
30
0
10
-70.999999999999986
20
-90.298055045126503
30
0
0
SPLINE
5
112
100
AcDbEntity
8
0
100
AcDbSpline
70
0
71
3
72
11
73
7
74
0
42
0.000000001
43
0.0000000001
44
0.0000000001
40
0.15069191991257
40
0.15069191991257
40
0.15069191991257
40
0.15069191991257
40
0.23808532383730424
40
0.23808532383730424
40
0.23808532383730424
40
0.3013838398251461
40
0.3013838398251461
40
0.3013838398251461
40
0.3013838398251461
10
-70.999999999999986
20
-142.65793260495641
30
0
10
-70.999999999999986
20
-142.36662124852006
30
0
10
-70.85294032191031
20
-142.05505407088219
30
0
10
-70.615224601097054
20
-141.86944998119148
30
0
10
-70.443048536557697
20
-141.73501805714358
30
0
10
-70.220987855366232
20
-141.65766571168095
30
0
10
-69.999999999999929
20
-141.65766571168098
30
0
0
SPLINE
5
113
100
AcDbEntity
8
0
100
AcDbSpline
70
0
71
3
72
14
73
10
74
0
42
0.000000001
43
0.0000000001
44
0.0000000001
40
0.3013838398251461
40
0.3013838398251461
40
0.3013838398251461
40
0.3013838398251461
40
0.35392836871159694
40
0.35392836871159694
40
0.35392836871159694
40
0.44705038809040198
40
0.44705038809040198
40
0.44705038809040198
40
0.45207575973770997
40
0.45207575973770997
40
0.45207575973770997
40
0.45207575973770997
10
-69.999999999999929
20
-141.65766571168098
30
0
10
-69.816556477373268
20
-141.65766571168098
30
0
10
-69.634421498211779
20
-141.70880908204856
30
0
10
-69.477102349292679
20
-141.80537185836673
30
0
10
-69.198293553310137
20
-141.9765051983764
30
0
10
-69.017268256984664
20
-142.29214356570225
30
0
10
-69.00128392794106
20
-142.60727482075771
30
0
10
-69.000421326437007
20
-142.62428102063291
30
0
10
-69.000000000000014
20
-142.64118136555584
30
0
10
-69.000000000000014
20
-142.65793260495639
30
0
0
SPLINE
5
114
100
AcDbEntity
8
0
100
AcDbSpline
70
0
71
3
72
17
73
13
74
0
42
0.000000001
43
0.0000000001
44
0.0000000001
40
0.45207575973770997
40
0.45207575973770997
40
0.45207575973770997
40
0.45207575973770997
40
0.5394691636604273
40
0.5394691636604273
40
0.5394691636604273
40
0.65531220853606009
40
0.65531220853606009
40
0.65531220853606009
40
0.7484342279152596
40
0.7484342279152596
40
0.7484342279152596
40
0.75345959956284991
40
0.75345959956284991
40
0.75345959956284991
40
0.75345959956284991
10
-69.000000000000014
20
-142.65793260495639
30
0
10
-69.000000000000014
20
-142.949243961386
30
0
10
-69.147059678083636
20
-143.26081113901796
30
0
10
-69.384775398886504
20
-143.44641522870853
30
0
10
-69.69987598630567
20
-143.6924400077655
30
0
10
-70.176061745720531
20
-143.72338185330779
30
0
10
-70.522897650701282
20
-143.5104933515498
30
0
10
-70.801706446686353
20
-143.33936001154132
30
0
10
-70.982731743014199
20
-143.02372164421499
30
0
10
-70.998716072058784
20
-142.70859038915796
30
0
10
-70.999578673562937
20
-142.69158418928183
30
0
10
-70.999999999999986
20
-142.6746838443579
30
0
10
-70.999999999999986
20
-142.65793260495639
30
0
0
SPLINE
5
115
100
AcDbEntity
8
0
100
AcDbSpline
70
0
71
3
72
11
73
7
74
0
42
0.000000001
43
0.0000000001
44
0.0000000001
40
0.15069191991256975
40
0.15069191991256975
40
0.15069191991256975
40
0.15069191991256975
40
0.23808532383761649
40
0.23808532383761649
40
0.23808532383761649
40
0.30138383982513511
40
0.30138383982513511
40
0.30138383982513511
40
0.30138383982513511
10
-70.999999999999986
20
-37.938177485296634
30
0
10
-70.999999999999986
20
-37.646866128859244
30
0
10
-70.852940321909173
20
-37.335298951220246
30
0
10
-70.61522460109444
20
-37.149694861529682
30
0
10
-70.443048536555494
20
-37.015262937483065
30
0
10
-70.220987855365138
20
-36.937910592021225
30
-9.8607613152626476e-31
10
-70
20
-36.937910592021211
30
0
0
SPLINE
5
116
100
AcDbEntity
8
0
100
AcDbSpline
70
0
71
3
72
14
73
10
74
0
42
0.000000001
43
0.0000000001
44
0.0000000001
40
0.30138383982513511
40
0.30138383982513511
40
0.30138383982513511
40
0.30138383982513511
40
0.35392836871227273
40
0.35392836871227273
40
0.35392836871227273
40
0.4470503880904742
40
0.4470503880904742
40
0.4470503880904742
40
0.45207575973770991
40
0.45207575973770991
40
0.45207575973770991
40
0.45207575973770991
10
-70
20
-36.937910592021211
30
0
10
-69.81655647737098
20
-36.937910592021204
30
0
10
-69.634421498207203
20
-36.989053962390088
30
0
10
-69.477102349286653
20
-37.085616738710669
30
0
10
-69.198293553306954
20
-37.25675007872124
30
0
10
-69.017268256984309
20
-37.572388446045238
30
0
10
-69.001283927941031
20
-37.887519701098668
30
0
10
-69.000421326436992
20
-37.904525900973603
30
0
10
-69.000000000000014
20
-37.921426245896313
30
0
10
-69.000000000000014
20
-37.938177485296649
30
0
0
SPLINE
5
117
100
AcDbEntity
8
0
100
AcDbSpline
70
0
71
3
72
17
73
13
74
0
42
0.000000001
43
0.0000000001
44
0.0000000001
40
0.45207575973770991
40
0.45207575973770991
40
0.45207575973770991
40
0.45207575973770991
40
0.53946916366106956
40
0.53946916366106956
40
0.53946916366106956
40
0.65531220853695349
40
0.65531220853695349
40
0.65531220853695349
40
0.7484342279155779
40
0.7484342279155779
40
0.7484342279155779
40
0.75345959956284947
40
0.75345959956284947
40
0.75345959956284947
40
0.75345959956284947
10
-69
20
-37.938177485296642
30
0
10
-69
20
-38.229488841728418
30
0
10
-69.147059678085583
20
-38.541056019362216
30
0
10
-69.384775398891804
20
-38.726660109052865
30
0
10
-69.699875986313813
20
-38.972684888108695
30
0
10
-70.176061745729712
20
-39.003626733646847
30
0
10
-70.52289765070924
20
-38.790738231885122
30
0
10
-70.801706446691
20
-38.619604891875092
30
0
10
-70.982731743015506
20
-38.3039665245498
30
0
10
-70.998716072058954
20
-37.988835269494977
30
0
10
-70.999578673563008
20
-37.971829069619922
30
0
10
-70.999999999999986
20
-37.954928724697098
30
0
10
-70.999999999999986
20
-37.938177485296649
30
0
0
SPLINE
5
118
100
AcDbEntity
8
0
100
AcDbSpline
70
0
71
3
72
14
73
10
74
0
42
0.000000001
43
0.0000000001
44
0.0000000001
40
0.52754647123278553
40
0.52754647123278553
40
0.52754647123278553
40
0.52754647123278553
40
0.54045330832720473
40
0.54045330832720473
40
0.54045330832720473
40
0.66404881046992648
40
0.66404881046992648
40
0.66404881046992648
40
0.79131970684918029
40
0.79131970684918029
40
0.79131970684918029
40
0.79131970684918029
10
-25
20
-88.546622657580485
30
0
10
-24.955664314240114
20
-88.546622657580485
30
0
10
-24.913392575692399
20
-88.548216615571789
30
0
10
-24.869489651229792
20
-88.55150795106546
30
0
10
-24.449076504709492
20
-88.583025685432659
30
0
10
-24.016114421027268
20
-88.791562595516837
30
0
10
-23.730234346917328
20
-89.093348312550802
30
0
10
-23.435852976574864
20
-89.404108316398009
30
0
10
-23.249999999999972
20
-89.873818709269386
30
0
10
-23.249999999999972
20
-90.298055045126503
30
0
0
SPLINE
5
119
100
AcDbEntity
8
0
100
AcDbSpline
70
0
71
3
72
17
73
13
74
0
42
0.000000001
43
0.0000000001
44
0.0000000001
40
0.79131970684918029
40
0.79131970684918029
40
0.79131970684918029
40
0.79131970684918029
40
0.91944682385585497
40
0.91944682385585497
40
0.91944682385585497
40
1.0679997795648832
40
1.0679997795648832
40
1.0679997795648832
40
1.1915952817047106
40
1.1915952817047106
40
1.1915952817047106
40
1.3188661780819673
40
1.3188661780819673
40
1.3188661780819673
40
1.3188661780819673
10
-23.249999999999972
20
-90.298055045126517
30
0
10
-23.249999999999972
20
-90.725145449839886
30
0
10
-23.43876567877405
20
-91.198125801077168
30
0
10
-23.736186388468248
20
-91.50901407562975
30
0
10
-24.081021475266059
20
-91.869463706894464
30
0
10
-24.625203808920663
20
-92.082484202188965
30
0
10
-25.130510348820096
20
-92.044602139183809
30
0
10
-25.550923495332896
20
-92.013084404805042
30
0
10
-25.983885578995782
20
-91.80454749471879
30
0
10
-26.269765653096563
20
-91.502761777687539
30
0
10
-26.564147023431875
20
-91.19200177384073
30
0
10
-26.750000000000028
20
-90.722291380976955
30
0
10
-26.750000000000028
20
-90.298055045126489
30
0
0
SPLINE
5
120
100
AcDbEntity
8
0
100
AcDbSpline
70
0
71
3
72
14
73
10
74
0
42
0.000000001
43
0.0000000001
44
0.0000000001
40
0.30138383982515127
40
0.30138383982515127
40
0.30138383982515127
40
0.30138383982515127
40
0.35392836871505606
40
0.35392836871505606
40
0.35392836871505606
40
0.44705038809227093
40
0.44705038809227093
40
0.44705038809227093
40
0.4520757597377153
40
0.4520757597377153
40
0.4520757597377153
40
0.4520757597377153
10
-4.9999999999999289
20
-89.29778815185108
30
0
10
-4.8165564773612175
20
-89.297788151851094
30
0
10
-4.63442149818695
20
-89.348931522225996
30
0
10
-4.4771023492616502
20
-89.445494298555857
30
0
10
-4.1982935532912027
20
-89.616627638572055
30
0
10
-4.0172682569773093
20
-89.932266005898072
30
0
10
-4.0012839279400279
20
-90.247397260946727
30
0
10
-4.0004213264366166
20
-90.264403460815515
30
0
10
-3.9999999999999361
20
-90.281303805732165
30
0
10
-3.9999999999999361
20
-90.298055045126517
30
0
0
SPLINE
5
121
100
AcDbEntity
8
0
100
AcDbSpline
70
0
71
3
72
17
73
13
74
0
42
0.000000001
43
0.0000000001
44
0.0000000001
40
0.4520757597377153
40
0.4520757597377153
40
0.4520757597377153
40
0.4520757597377153
40
0.53946916366277065
40
0.53946916366277065
40
0.53946916366277065
40
0.65531220853727556
40
0.65531220853727556
40
0.65531220853727556
40
0.74843422791570591
40
0.74843422791570591
40
0.74843422791570591
40
0.75345959956285913
40
0.75345959956285913
40
0.75345959956285913
40
0.75345959956285913
10
-4.0000000000000053
20
-90.298055045126503
30
0
10
-4.0000000000000053
20
-90.589366401563908
30
0
10
-4.147059678090689
20
-90.900933579202814
30
0
10
-4.3847753989056359
20
-91.086537668893541
30
0
10
-4.6998759863293307
20
-91.332562447941768
30
0
10
-5.1760617457376954
20
-91.363504293473483
30
0
10
-5.5228976507120962
20
-91.150615791713307
30
0
10
-5.8017064466924744
20
-90.979482451702836
30
0
10
-5.9827317430160543
20
-90.663844084377715
30
0
10
-5.9987160720590964
20
-90.348712829323631
30
0
10
-5.9995786735631
20
-90.331706629448973
30
0
10
-6.0000000000000675
20
-90.31480628452654
30
0
10
-6.0000000000000675
20
-90.298055045126489
30
0
0
SPLINE
5
122
100
AcDbEntity
8
0
100
AcDbSpline
70
0
71
3
72
14
73
10
74
0
42
0.000000001
43
0.0000000001
44
0.0000000001
40
0.52754647123278331
40
0.52754647123278331
40
0.52754647123278331
40
0.52754647123278331
40
0.54045330832818772
40
0.54045330832818772
40
0.54045330832818772
40
0.66404881047030606
40
0.66404881047030606
40
0.66404881047030606
40
0.79131970684918029
40
0.79131970684918029
40
0.79131970684918029
40
0.79131970684918029
10
-25
20
-140.90650021741035
30
0
10
-24.955664314236692
20
-140.90650021741035
30
0
10
-24.913392575685723
20
-140.90809417540189
30
0
10
-24.869489651219737
20
-140.91138551089608
30
0
10
-24.449076504701228
20
-140.9429032452656
30
0
10
-24.016114421022824
20
-141.15144015535009
30
0
10
-23.730234346914685
20
-141.45322587238348
30
0
10
-23.435852976573518
20
-141.76398587623066
30
0
10
-23.249999999999972
20
-142.23369626910053
30
0
10
-23.249999999999972
20
-142.65793260495639
30
0
0
SPLINE
5
123
100
AcDbEntity
8
0
100
AcDbSpline
70
0
71
3
72
17
73
13
74
0
42
0.000000001
43
0.0000000001
44
0.0000000001
40
0.79131970684918029
40
0.79131970684918029
40
0.79131970684918029
40
0.79131970684918029
40
0.91944682385377341
40
0.91944682385377341
40
0.91944682385377341
40
1.0679997795652074
40
1.0679997795652074
40
1.0679997795652074
40
1.1915952817047584
40
1.1915952817047584
40
1.1915952817047584
40
1.3188661780819673
40
1.3188661780819673
40
1.3188661780819673
40
1.3188661780819673
10
-23.249999999999975
20
-142.65793260495639
30
0
10
-23.249999999999979
20
-143.08502300966282
30
0
10
-23.43876567876698
20
-143.5580033608922
30
0
10
-23.736186388453739
20
-143.86889163544447
30
0
10
-24.081021475254115
20
-144.2293412667205
30
0
10
-24.625203808915913
20
-144.44236176202023
30
0
10
-25.130510348823471
20
-144.40447969901345
30
0
10
-25.55092349533528
20
-144.3729619646339
30
0
10
-25.98388557899673
20
-144.16442505454779
30
0
10
-26.26976565309689
20
-143.86263933751707
30
0
10
-26.564147023432099
20
-143.55187933367023
30
0
10
-26.750000000000028
20
-143.0821689408067
30
0
10
-26.750000000000028
20
-142.65793260495639
30
0
0
SPLINE
5
124
100
AcDbEntity
8
0
100
AcDbSpline
70
0
71
3
72
14
73
10
74
0
42
0.000000001
43
0.0000000001
44
0.0000000001
40
0.30138383982515121
40
0.30138383982515121
40
0.30138383982515121
40
0.30138383982515121
40
0.35392836871564082
40
0.35392836871564082
40
0.35392836871564082
40
0.44705038809259506
40
0.44705038809259506
40
0.44705038809259506
40
0.45207575973771585
40
0.45207575973771585
40
0.45207575973771585
40
0.45207575973771585
10
-4.9999999999999289
20
-141.65766571168095
30
0
10
-4.8165564773591791
20
-141.65766571168095
30
0
10
-4.6344214981827552
20
-141.70880908205714
30
0
10
-4.4771023492564046
20
-141.80537185838898
30
0
10
-4.1982935532879786
20
-141.9765051984063
30
0
10
-4.0172682569760383
20
-142.29214356573237
30
0
10
-4.0012839279398609
20
-142.60727482077988
30
0
10
-4.0004213264365625
20
-142.62428102064757
30
0
10
-3.9999999999999361
20
-142.64118136556311
30
0
10
-3.9999999999999361
20
-142.65793260495639
30
0
0
SPLINE
5
125
100
AcDbEntity
8
0
100
AcDbSpline
70
0
71
3
72
17
73
13
74
0
42
0.000000001
43
0.0000000001
44
0.0000000001
40
0.45207575973771585
40
0.45207575973771585
40
0.45207575973771585
40
0.45207575973771585
40
0.53946916366093201
40
0.53946916366093201
40
0.53946916366093201
40
0.65531220853485905
40
0.65531220853485905
40
0.65531220853485905
40
0.74843422791444869
40
0.74843422791444869
40
0.74843422791444869
40
0.75345959956285979
40
0.75345959956285979
40
0.75345959956285979
40
0.75345959956285979
10
-3.9999999999999374
20
-142.65793260495641
30
0
10
-3.9999999999999378
20
-142.94924396138771
30
0
10
-4.1470596780851743
20
-143.26081113902109
30
0
10
-4.384775398890584
20
-143.44641522871169
30
0
10
-4.6998759863066955
20
-143.69244000776371
30
0
10
-5.1760617457111682
20
-143.72338185330744
30
0
10
-5.522897650690334
20
-143.51049335155651
30
0
10
-5.8017064466794039
20
-143.33936001155047
30
0
10
-5.9827317430111133
20
-143.0237216442253
30
0
10
-5.9987160720584463
20
-142.70859038916629
30
0
10
-5.9995786735628869
20
-142.69158418928734
30
0
10
-6.0000000000000657
20
-142.67468384436063
30
0
10
-6.0000000000000657
20
-142.65793260495639
30
0
0
SPLINE
5
126
100
AcDbEntity
8
0
100
AcDbSpline
70
0
71
3
72
14
73
10
74
0
42
0.000000001
43
0.0000000001
44
0.0000000001
40
0.52754647123279297
40
0.52754647123279297
40
0.52754647123279297
40
0.52754647123279297
40
0.54045330832293836
40
0.54045330832293836
40
0.54045330832293836
40
0.66404881046860209
40
0.66404881046860209
40
0.66404881046860209
40
0.79131970684918063
40
0.79131970684918063
40
0.79131970684918063
40
0.79131970684918063
10
-24.999999999999929
20
-36.186745097750602
30
0
10
-24.955664314254939
20
-36.186745097750602
30
0
10
-24.913392575721236
20
-36.18833905574084
30
0
10
-24.869489651273369
20
-36.191630391232316
30
0
10
-24.449076504744994
20
-36.223148125589553
30
0
10
-24.016114421044861
20
-36.431685035672999
30
0
10
-23.730234346926498
20
-36.73347075271127
30
0
10
-23.435852976579298
20
-37.04423075655874
30
0
10
-23.249999999999972
20
-37.513941149435098
30
0
10
-23.249999999999972
20
-37.938177485296634
30
0
0
SPLINE
5
127
100
AcDbEntity
8
0
100
AcDbSpline
70
0
71
3
72
17
73
13
74
0
42
0.000000001
43
0.0000000001
44
0.0000000001
40
0.79131970684918063
40
0.79131970684918063
40
0.79131970684918063
40
0.79131970684918063
40
0.91944682384949783
40
0.91944682384949783
40
0.91944682384949783
40
1.0679997795708698
40
1.0679997795708698
40
1.0679997795708698
40
1.1915952817067506
40
1.1915952817067506
40
1.1915952817067506
40
1.3188661780819677
40
1.3188661780819677
40
1.3188661780819677
40
1.3188661780819677
10
-23.249999999999972
20
-37.938177485296634
30
0
10
-23.249999999999972
20
-38.365267889988807
30
0
10
-23.438765678752414
20
-38.838248241201946
30
0
10
-23.736186388423985
20
-39.149136515753625
30
0
10
-24.081021475241325
20
-39.509586147065122
30
0
10
-24.625203808936718
20
-39.72260664237578
30
0
10
-25.130510348881248
20
-39.684724579349364
30
0
10
-25.550923495383209
20
-39.653206844956557
30
0
10
-25.983885579021347
20
-39.444669934869026
30
0
10
-26.269765653110696
20
-39.142884217842763
30
0
10
-26.564147023438913
20
-38.832124213996138
30
0
10
-26.750000000000028
20
-38.362413821140301
30
0
10
-26.750000000000028
20
-37.938177485296634
30
0
0
ENDSEC
0
SECTION
2
OBJECTS
0
DICTIONARY
5
C
100
AcDbDictionary
3
ACAD_GROUP
350
D
3
ACAD_MLINESTYLE
350
17
0
DICTIONARY
5
D
100
AcDbDictionary
0
DICTIONARY
5
1A
330
C
100
AcDbDictionary
0
DICTIONARY
5
17
100
AcDbDictionary
0
ENDSEC
0
EOF
