0
SECTION
2
HEADER
9
$INSUNITS
70
4
0
ENDSEC
0
SECTION
2
TABLES
0
TABLE
2
LTYPE
0
LTYPE
72
65
70
64
2
CONTINUOUS
3
______
73
0
40
0
0
ENDTAB
0
TABLE
2
LAYER
0
ENDTAB
0
ENDSEC
0
SECTION
2
ENTITIES
0
LINE
8
front_outsideCutPath
10
0
20
43
11
0
21
30.5
0
LINE
8
front_outsideCutPath
10
0
20
30.5
11
4
21
30.5
0
LINE
8
front_outsideCutPath
10
4
20
30.5
11
4
21
15.5
0
LINE
8
front_outsideCutPath
10
4
20
15.5
11
0
21
15.5
0
LINE
8
front_outsideCutPath
10
0
20
15.5
11
0
21
3
0
LINE
8
front_outsideCutPath
10
0
20
3
11
16.5
21
3
0
LINE
8
front_outsideCutPath
10
16.5
20
3
11
16.5
21
7
0
LINE
8
front_outsideCutPath
10
16.5
20
7
11
31.5
21
7
0
LINE
8
front_outsideCutPath
10
31.5
20
7
11
31.5
21
3
0
LINE
8
front_outsideCutPath
10
31.5
20
3
11
46.5
21
3
0
LINE
8
front_outsideCutPath
10
46.5
20
3
11
46.5
21
7
0
LINE
8
front_outsideCutPath
10
46.5
20
7
11
61.5
21
7
0
LINE
8
front_outsideCutPath
10
61.5
20
7
11
61.5
21
3
0
LINE
8
front_outsideCutPath
10
61.5
20
3
11
76.5
21
3
0
LINE
8
front_outsideCutPath
10
76.5
20
3
11
76.5
21
7
0
LINE
8
front_outsideCutPath
10
76.5
20
7
11
91.5
21
7
0
LINE
8
front_outsideCutPath
10
91.5
20
7
11
91.5
21
3
0
LINE
8
front_outsideCutPath
10
91.5
20
3
11
108
21
3
0
LINE
8
front_outsideCutPath
10
108
20
3
11
108
21
15.5
0
LINE
8
front_outsideCutPath
10
108
20
15.5
11
104
21
15.5
0
LINE
8
front_outsideCutPath
10
104
20
15.5
11
104
21
30.5
0
LINE
8
front_outsideCutPath
10
104
20
30.5
11
108
21
30.5
0
LINE
8
front_outsideCutPath
10
108
20
30.5
11
108
21
43
0
LINE
8
front_outsideCutPath
10
108
20
43
11
0
21
43
0
LINE
8
front_labelLayer
10
47.3730469
20
24.2598503
11
47.3730469
21
23.7559441
0
LINE
8
front_labelLayer
10
47.3730469
20
23.7559441
11
46.2832031
21
23.7559441
0
LINE
8
front_labelLayer
10
46.2832031
20
23.7559441
11
46.2832031
21
19.9786003
0
LINE
8
front_labelLayer
10
46.2832031
20
19.9786003
11
45.6347656
21
19.9786003
0
LINE
8
front_labelLayer
10
45.6347656
20
19.9786003
11
45.6347656
21
23.7559441
0
LINE
8
front_labelLayer
10
45.6347656
20
23.7559441
11
44.8691406
21
23.7559441
0
LINE
8
front_labelLayer
10
44.8691406
20
23.7559441
11
44.8691406
21
24.0489128
0
LINE
8
front_labelLayer
10
44.8691406
20
24.0489128
11
45.6347656
21
24.2832878
0
LINE
8
front_labelLayer
10
45.6347656
20
24.2832878
11
45.6347656
21
24.5215691
0
LINE
8
front_labelLayer
10
47.8105469
20
25.9629753
11
47.6425781
21
25.4434441
0
LINE
8
front_labelLayer
10
46.2832031
20
24.5371941
11
46.2832031
21
24.2598503
0
LINE
8
front_labelLayer
10
46.2832031
20
24.2598503
11
47.3730469
21
24.2598503
0
ARC
8
front_labelLayer
10
48.2626551
20
24.5517815
40
2.6280632
50
167.5776086
51
180.6586899
0
ARC
8
front_labelLayer
10
47.0268557
20
24.8398974
40
1.3593059
50
141.7434014
51
168.2321914
0
ARC
8
front_labelLayer
10
46.8256401
20
24.9449175
40
1.1370559
50
98.2551315
51
139.6203531
0
ARC
8
front_labelLayer
10
47.0023104
20
24.1287584
40
1.9709684
50
89.6697212
51
99.9313817
0
ARC
8
front_labelLayer
10
47.002802
20
24.0116078
40
2.0881146
50
81.5640718
51
89.7017414
0
ARC
8
front_labelLayer
10
46.8560016
20
22.9874463
40
3.1227354
50
75.9739961
51
81.6564686
0
ARC
8
front_labelLayer
10
46.6041016
20
21.9426144
40
4.1974769
50
73.2963503
51
76.0946352
0
ARC
8
front_labelLayer
10
46.6675535
20
22.4495143
40
3.1486963
50
71.9612708
51
76.5919084
0
ARC
8
front_labelLayer
10
46.9118126
20
23.4857065
40
2.0841091
50
76.5183332
51
83.0216635
0
ARC
8
front_labelLayer
10
46.9969093
20
24.1700463
40
1.3945006
50
83.0760221
51
89.7927633
0
ARC
8
front_labelLayer
10
46.9941061
20
24.6900901
40
0.8744829
50
89.4858607
51
103.4197755
0
ARC
8
front_labelLayer
10
46.9152661
20
24.9929841
40
0.561598
50
102.7677754
51
144.337997
0
ARC
8
front_labelLayer
10
47.0740987
20
24.8907898
40
0.7502854
50
145.0688257
51
162.1801239
0
ARC
8
front_labelLayer
10
47.6186866
20
24.707564
40
1.3248402
50
161.8437716
51
171.7846675
0
ARC
8
front_labelLayer
10
48.5068939
20
24.5741569
40
2.2230017
50
171.6527351
51
178.4383447
0
ARC
8
front_labelLayer
10
49.3449512
20
24.538426
40
3.0617484
50
178.1973465
51
180.0230529
0
LINE
8
front_labelLayer
10
50.6191406
20
24.2911003
11
50.5292969
21
23.6895378
0
LINE
8
front_labelLayer
10
48.8027344
20
22.2754753
11
48.8027344
21
19.9786003
0
LINE
8
front_labelLayer
10
48.8027344
20
19.9786003
11
48.1542969
21
19.9786003
0
LINE
8
front_labelLayer
10
48.1542969
20
19.9786003
11
48.1542969
21
24.2598503
0
LINE
8
front_labelLayer
10
48.1542969
20
24.2598503
11
48.6894531
21
24.2598503
0
LINE
8
front_labelLayer
10
48.6894531
20
24.2598503
11
48.7636719
21
23.4668816
0
LINE
8
front_labelLayer
10
48.7636719
20
23.4668816
11
48.7949219
21
23.4668816
0
ARC
8
front_labelLayer
10
50.1140797
20
21.3611592
40
2.9768236
50
84.9922466
51
90.1281461
0
ARC
8
front_labelLayer
10
50.1855711
20
22.1620999
40
2.1727
50
78.4891613
51
85.0266334
0
ARC
8
front_labelLayer
10
49.9080978
20
20.9000881
40
2.857782
50
77.4453314
51
81.6360677
0
ARC
8
front_labelLayer
10
50.0325984
20
21.7582829
40
1.9906057
50
81.5883785
51
87.1916038
0
ARC
8
front_labelLayer
10
50.0596484
20
22.227272
40
1.5208597
50
87.343762
51
89.9661514
0
ARC
8
front_labelLayer
10
50.0533607
20
22.6246044
40
1.1235502
50
89.6335396
51
137.0880816
0
ARC
8
front_labelLayer
10
50.3291005
20
22.3145254
40
1.5371308
50
135.6208551
51
138.8376692
0
ARC
8
front_labelLayer
10
50.2886966
20
22.3539657
40
1.4807566
50
138.9575801
51
174.5422129
0
ARC
8
front_labelLayer
10
50.7709254
20
22.2785095
40
1.9681934
50
173.6907399
51
180.088326
0
ARC
8
front_labelLayer
10
50.7027612
20
22.3920133
40
2.1897929
50
139.4139141
51
150.6032802
0
ARC
8
front_labelLayer
10
50.3101408
20
22.7284462
40
1.6727457
50
124.2322119
51
139.4160448
0
ARC
8
front_labelLayer
10
50.1001948
20
23.0453548
40
1.2926407
50
89.6796601
51
124.4405586
0
ARC
8
front_labelLayer
10
51.7658606
20
22.1005513
40
3.3494498
50
349.176205
51
0.3862618
0
ARC
8
front_labelLayer
10
52.8935387
20
21.8757484
40
2.1996368
50
330.2507291
51
349.4116178
0
ARC
8
front_labelLayer
10
53.2405914
20
21.6953646
40
1.8088837
50
318.1439408
51
329.7566215
0
ARC
8
front_labelLayer
10
53.3032232
20
21.6451707
40
1.7287474
50
278.8959168
51
317.9979082
0
ARC
8
front_labelLayer
10
53.1418333
20
22.4184009
40
2.5179495
50
269.7502874
51
279.8033339
0
ARC
8
front_labelLayer
10
53.1156585
20
21.9827345
40
2.0823146
50
253.5437081
51
270.4182617
0
ARC
8
front_labelLayer
10
53.0463433
20
21.7146021
40
1.8055549
50
238.8115402
51
253.2428223
0
ARC
8
front_labelLayer
10
53.0239725
20
21.669615
40
1.75549
50
207.7946976
51
238.6757892
0
ARC
8
front_labelLayer
10
53.3450181
20
21.8662363
40
2.131318
50
205.6560571
51
208.4461042
0
ARC
8
front_labelLayer
10
53.5922281
20
21.9692363
40
2.3987931
50
188.9102534
51
205.3171503
0
ARC
8
front_labelLayer
10
54.425482
20
22.1103617
40
3.2438663
50
179.7744475
51
189.0932757
0
ARC
8
front_labelLayer
10
54.5484029
20
22.1459358
40
3.3668395
50
169.244295
51
180.3880781
0
ARC
8
front_labelLayer
10
53.4050495
20
22.3719355
40
2.2014133
50
150.7111375
51
169.4695455
0
ARC
8
front_labelLayer
10
53.0400477
20
22.5593803
40
1.7914348
50
138.1759169
51
150.2287967
0
ARC
8
front_labelLayer
10
52.9793432
20
22.6059639
40
1.7151437
50
99.1759282
51
137.9832759
0
ARC
8
front_labelLayer
10
53.1464521
20
21.8195192
40
2.5184835
50
89.7326625
51
100.0759357
0
ARC
8
front_labelLayer
10
53.1798505
20
22.1591687
40
2.1789142
50
73.522285
51
90.5692388
0
ARC
8
front_labelLayer
10
53.3076304
20
22.6234282
40
1.6975025
50
41.1445754
51
73.2133864
0
ARC
8
front_labelLayer
10
53.0637084
20
22.413781
40
2.0191297
50
13.5014266
51
41.0703424
0
ARC
8
front_labelLayer
10
52.1213165
20
22.1671699
40
2.9931193
50
1.1277045
51
13.8799893
0
ARC
8
front_labelLayer
10
51.3093904
20
22.1236623
40
3.8058441
50
359.9920106
51
1.5420098
0
ARC
8
front_labelLayer
10
55.1371242
20
22.1062788
40
3.2836519
50
179.7059385
51
187.9161113
0
ARC
8
front_labelLayer
10
53.9327874
20
21.9332741
40
2.0669721
50
187.763898
51
200.0977209
0
ARC
8
front_labelLayer
10
53.2693281
20
21.6901807
40
1.3603799
50
200.0845992
51
216.9131419
0
ARC
8
front_labelLayer
10
53.0270501
20
21.5171837
40
1.0627889
50
217.3009705
51
261.7098903
0
ARC
8
front_labelLayer
10
53.1395226
20
22.0539001
40
1.6104709
50
260.5033629
51
270.2476793
0
ARC
8
front_labelLayer
10
53.1609898
20
21.9495351
40
1.5061609
50
269.4481913
51
284.7255253
0
ARC
8
front_labelLayer
10
53.280223
20
21.5073313
40
1.0481777
50
284.5662583
51
322.6333624
0
ARC
8
front_labelLayer
10
53.0014512
20
21.7087314
40
1.3919989
50
323.0089126
51
342.639051
0
ARC
8
front_labelLayer
10
52.2041042
20
21.9693283
40
2.2308076
50
342.361548
51
353.7537688
0
ARC
8
front_labelLayer
10
51.0277354
20
22.1111227
40
3.4156449
50
353.5363382
51
0.2014441
0
ARC
8
front_labelLayer
10
51.2079893
20
22.1396463
40
3.2354122
50
359.7075398
51
7.8972873
0
ARC
8
front_labelLayer
10
52.3928757
20
22.3095126
40
2.0384314
50
7.7439685
51
20.0689877
0
ARC
8
front_labelLayer
10
53.0531529
20
22.5518079
40
1.3351023
50
20.0257243
51
37.4350725
0
ARC
8
front_labelLayer
10
53.2722272
20
22.7072607
40
1.0666986
50
37.9577496
51
80.4006407
0
ARC
8
front_labelLayer
10
53.1477349
20
22.1517899
40
1.6354292
50
79.3453495
51
90.3175156
0
ARC
8
front_labelLayer
10
53.1246817
20
22.2440558
40
1.5432017
50
89.4805685
51
103.8805164
0
ARC
8
front_labelLayer
10
52.9950128
20
22.7378319
40
1.0327642
50
103.4685092
51
142.3119012
0
ARC
8
front_labelLayer
10
53.2470984
20
22.5605471
40
1.3407088
50
142.9025698
51
162.374992
0
ARC
8
front_labelLayer
10
54.0414415
20
22.2958351
40
2.1779473
50
162.06535
51
173.1674484
0
ARC
8
front_labelLayer
10
55.2800213
20
22.1378649
40
3.4265373
50
173.0086503
51
180.2463589
0
LINE
8
front_labelLayer
10
59.8300781
20
19.9786003
11
59.1816406
21
19.9786003
0
LINE
8
front_labelLayer
10
59.1816406
20
19.9786003
11
59.1816406
21
22.7481316
0
LINE
8
front_labelLayer
10
56.9003906
20
22.2246941
11
56.9003906
21
19.9786003
0
LINE
8
front_labelLayer
10
56.9003906
20
19.9786003
11
56.2519531
21
19.9786003
0
LINE
8
front_labelLayer
10
56.2519531
20
19.9786003
11
56.2519531
21
24.2598503
0
LINE
8
front_labelLayer
10
56.2519531
20
24.2598503
11
56.7792969
21
24.2598503
0
LINE
8
front_labelLayer
10
56.7792969
20
24.2598503
11
56.8847656
21
23.6739128
0
LINE
8
front_labelLayer
10
56.8847656
20
23.6739128
11
56.9160156
21
23.6739128
0
LINE
8
front_labelLayer
10
59.8300781
20
22.7715691
11
59.8300781
21
19.9786003
0
ARC
8
front_labelLayer
10
57.348697
20
22.7586436
40
1.8329738
50
359.6714116
51
8.6877042
0
ARC
8
front_labelLayer
10
58.0280522
20
22.8663838
40
1.1451458
50
8.493155
51
22.6580103
0
ARC
8
front_labelLayer
10
58.3732062
20
23.0098187
40
0.7713754
50
22.7024983
51
42.3419424
0
ARC
8
front_labelLayer
10
58.4120067
20
23.0272738
40
0.7310594
50
43.3790736
51
71.5386351
0
ARC
8
front_labelLayer
10
58.2669243
20
22.621877
40
1.1615728
50
71.0828095
51
84.36914
0
ARC
8
front_labelLayer
10
58.2017997
20
22.0681568
40
1.7190431
50
84.0198401
51
90.1511216
0
ARC
8
front_labelLayer
10
58.1833355
20
21.8247155
40
1.962528
50
89.5933094
51
100.3717555
0
ARC
8
front_labelLayer
10
58.0446463
20
22.5523812
40
1.2217953
50
100.117665
51
118.1602699
0
ARC
8
front_labelLayer
10
57.9048782
20
22.8264518
40
0.9142246
50
118.5438723
51
139.1927208
0
ARC
8
front_labelLayer
10
58.0267486
20
22.7446744
40
1.0600612
50
140.1519312
51
160.3146552
0
ARC
8
front_labelLayer
10
58.7626627
20
22.4690318
40
1.8458543
50
159.9534318
51
171.3800905
0
ARC
8
front_labelLayer
10
59.9647955
20
22.275794
40
3.0633897
50
171.1765848
51
178.3217455
0
ARC
8
front_labelLayer
10
61.0545636
20
22.2264034
40
4.1541734
50
178.0810201
51
180.0235757
0
ARC
8
front_labelLayer
10
58.0252665
20
22.9713873
40
1.3130041
50
116.9442767
51
147.652555
0
ARC
8
front_labelLayer
10
58.1617609
20
22.7431388
40
1.5784302
50
115.8068364
51
117.6068541
0
ARC
8
front_labelLayer
10
58.2318025
20
22.5798924
40
1.7559057
50
94.3226788
51
115.5454261
0
ARC
8
front_labelLayer
10
58.2738299
20
22.2147195
40
2.1232563
50
89.9578847
51
94.710818
0
ARC
8
front_labelLayer
10
58.2911995
20
21.7778846
40
2.5601395
50
80.5585063
51
90.3538055
0
ARC
8
front_labelLayer
10
58.4511941
20
22.7046254
40
1.6197178
50
65.1093957
51
80.763826
0
ARC
8
front_labelLayer
10
58.6382194
20
23.118878
40
1.1652369
50
46.5584304
51
64.8782679
0
ARC
8
front_labelLayer
10
58.6531861
20
23.1620267
40
1.1237736
50
19.3848966
51
45.599726
0
ARC
8
front_labelLayer
10
58.0030395
20
22.9180821
40
1.8180881
50
6.9633841
51
19.8363016
0
ARC
8
front_labelLayer
10
57.0003463
20
22.7832684
40
2.829756
50
359.7631172
51
7.211576
0
LINE
8
front_labelLayer
10
63.1308594
20
20.5137566
11
63.1308594
21
20.0176628
0
LINE
8
front_labelLayer
10
61.2089844
20
21.2090691
11
61.2089844
21
23.7559441
0
LINE
8
front_labelLayer
10
61.2089844
20
23.7559441
11
60.5957031
21
23.7559441
0
LINE
8
front_labelLayer
10
60.5957031
20
23.7559441
11
60.5957031
21
24.0684441
0
LINE
8
front_labelLayer
10
60.5957031
20
24.0684441
11
61.2089844
21
24.3379753
0
LINE
8
front_labelLayer
10
61.2089844
20
24.3379753
11
61.4824219
21
25.2520378
0
LINE
8
front_labelLayer
10
61.4824219
20
25.2520378
11
61.8574219
21
25.2520378
0
LINE
8
front_labelLayer
10
61.8574219
20
25.2520378
11
61.8574219
21
24.2598503
0
LINE
8
front_labelLayer
10
61.8574219
20
24.2598503
11
63.0996094
21
24.2598503
0
LINE
8
front_labelLayer
10
63.0996094
20
24.2598503
11
63.0996094
21
23.7559441
0
LINE
8
front_labelLayer
10
63.0996094
20
23.7559441
11
61.8574219
21
23.7559441
0
LINE
8
front_labelLayer
10
61.8574219
20
23.7559441
11
61.8574219
21
21.2364128
0
ARC
8
front_labelLayer
10
62.5493687
20
22.5651837
40
2.1295567
50
269.8803566
51
278.3028372
0
ARC
8
front_labelLayer
10
62.569593
20
22.3997525
40
1.9629428
50
278.4159963
51
279.0085155
0
ARC
8
front_labelLayer
10
62.3307439
20
23.9257404
40
3.5075086
50
278.9588861
51
280.5104532
0
ARC
8
front_labelLayer
10
62.5583853
20
22.7042834
40
2.2650206
50
280.4849063
51
282.6268378
0
ARC
8
front_labelLayer
10
62.7581589
20
21.8167611
40
1.3552933
50
282.5875512
51
285.5796631
0
ARC
8
front_labelLayer
10
62.8578241
20
21.4500656
40
0.9753063
50
285.7255298
51
286.2571101
0
ARC
8
front_labelLayer
10
62.8582491
20
20.594246
40
0.6377809
50
287.9886345
51
295.3049279
0
ARC
8
front_labelLayer
10
62.7044146
20
21.0596602
40
1.1279561
50
283.3067989
51
288.1197714
0
ARC
8
front_labelLayer
10
62.5419
20
21.7375394
40
1.8250419
50
280.0070141
51
283.3735776
0
ARC
8
front_labelLayer
10
62.4328062
20
22.3297556
40
2.4272096
50
279.1866352
51
280.1138398
0
ARC
8
front_labelLayer
10
62.3664191
20
22.7072925
40
2.8105078
50
275.5260029
51
279.2938973
0
ARC
8
front_labelLayer
10
62.4416284
20
21.9217322
40
2.0213561
50
270.8933044
51
275.5483315
0
ARC
8
front_labelLayer
10
62.4510805
20
21.5628167
40
1.6623414
50
270.0031482
51
270.7604232
0
ARC
8
front_labelLayer
10
62.4250059
20
21.5938973
40
1.6936241
50
253.7847802
51
270.8852355
0
ARC
8
front_labelLayer
10
62.2243562
20
20.9096063
40
0.9805252
50
190.3817615
51
253.8772309
0
ARC
8
front_labelLayer
10
63.2470627
20
21.1861274
40
2.0382073
50
179.3550751
51
192.8477413
0
ARC
8
front_labelLayer
10
63.1631291
20
21.2282464
40
1.3057328
50
179.6416531
51
189.7506275
0
ARC
8
front_labelLayer
10
62.7021865
20
21.1460312
40
0.8375302
50
189.5479862
51
205.7873385
0
ARC
8
front_labelLayer
10
62.5127586
20
21.0586813
40
0.6289777
50
206.1294917
51
221.4082737
0
ARC
8
front_labelLayer
10
62.491512
20
21.0425603
40
0.6023828
50
221.5948847
51
262.3505124
0
ARC
8
front_labelLayer
10
62.5420267
20
21.3023323
40
0.8667053
50
261.3266934
51
270.1913888
0
LINE
8
left_outsideCutPath
10
115
20
43
11
115
21
30.5
0
LINE
8
left_outsideCutPath
10
115
20
30.5
11
111
21
30.5
0
LINE
8
left_outsideCutPath
10
111
20
30.5
11
111
21
15.5
0
LINE
8
left_outsideCutPath
10
111
20
15.5
11
115
21
15.5
0
LINE
8
left_outsideCutPath
10
115
20
15.5
11
115
21
3
0
LINE
8
left_outsideCutPath
10
115
20
3
11
132.5
21
3
0
LINE
8
left_outsideCutPath
10
132.5
20
3
11
132.5
21
7
0
LINE
8
left_outsideCutPath
10
132.5
20
7
11
147.5
21
7
0
LINE
8
left_outsideCutPath
10
147.5
20
7
11
147.5
21
3
0
LINE
8
left_outsideCutPath
10
147.5
20
3
11
162.5
21
3
0
LINE
8
left_outsideCutPath
10
162.5
20
3
11
162.5
21
7
0
LINE
8
left_outsideCutPath
10
162.5
20
7
11
177.5
21
7
0
LINE
8
left_outsideCutPath
10
177.5
20
7
11
177.5
21
3
0
LINE
8
left_outsideCutPath
10
177.5
20
3
11
192.5
21
3
0
LINE
8
left_outsideCutPath
10
192.5
20
3
11
192.5
21
7
0
LINE
8
left_outsideCutPath
10
192.5
20
7
11
207.5
21
7
0
LINE
8
left_outsideCutPath
10
207.5
20
7
11
207.5
21
3
0
LINE
8
left_outsideCutPath
10
207.5
20
3
11
222.5
21
3
0
LINE
8
left_outsideCutPath
10
222.5
20
3
11
222.5
21
7
0
LINE
8
left_outsideCutPath
10
222.5
20
7
11
237.5
21
7
0
LINE
8
left_outsideCutPath
10
237.5
20
7
11
237.5
21
3
0
LINE
8
left_outsideCutPath
10
237.5
20
3
11
252.5
21
3
0
LINE
8
left_outsideCutPath
10
252.5
20
3
11
252.5
21
7
0
LINE
8
left_outsideCutPath
10
252.5
20
7
11
267.5
21
7
0
LINE
8
left_outsideCutPath
10
267.5
20
7
11
267.5
21
3
0
LINE
8
left_outsideCutPath
10
267.5
20
3
11
282.5
21
3
0
LINE
8
left_outsideCutPath
10
282.5
20
3
11
282.5
21
7
0
LINE
8
left_outsideCutPath
10
282.5
20
7
11
297.5
21
7
0
LINE
8
left_outsideCutPath
10
297.5
20
7
11
297.5
21
3
0
LINE
8
left_outsideCutPath
10
297.5
20
3
11
312.5
21
3
0
LINE
8
left_outsideCutPath
10
312.5
20
3
11
315
21
3
0
LINE
8
left_outsideCutPath
10
315
20
3
11
315
21
15.5
0
LINE
8
left_outsideCutPath
10
315
20
15.5
11
319
21
15.5
0
LINE
8
left_outsideCutPath
10
319
20
15.5
11
319
21
30.5
0
LINE
8
left_outsideCutPath
10
319
20
30.5
11
315
21
30.5
0
LINE
8
left_outsideCutPath
10
315
20
30.5
11
315
21
43
0
LINE
8
left_outsideCutPath
10
315
20
43
11
115
21
43
0
LINE
8
left_labelLayer
10
210.0527344
20
26.0567253
11
210.0527344
21
19.9786003
0
LINE
8
left_labelLayer
10
210.0527344
20
19.9786003
11
209.4042969
21
19.9786003
0
LINE
8
left_labelLayer
10
209.4042969
20
19.9786003
11
209.4042969
21
26.0567253
0
LINE
8
left_labelLayer
10
209.4042969
20
26.0567253
11
210.0527344
21
26.0567253
0
LINE
8
left_labelLayer
10
214.8105469
20
22.4121941
11
214.8105469
21
22.0020378
0
LINE
8
left_labelLayer
10
214.8105469
20
22.0020378
11
211.8613281
21
22.0020378
0
LINE
8
left_labelLayer
10
214.6269531
20
20.7559441
11
214.6269531
21
20.1778191
0
LINE
8
left_labelLayer
10
211.8769531
20
22.5293816
11
214.1152344
21
22.5293816
0
ARC
8
left_labelLayer
10
213.2150061
20
22.420179
40
2.5197939
50
256.0087853
51
270.4848309
0
ARC
8
left_labelLayer
10
213.0315157
20
21.707834
40
1.7842285
50
223.5465862
51
256.1957088
0
ARC
8
left_labelLayer
10
213.1327393
20
21.7814045
40
1.9083532
50
194.0877284
51
223.0538178
0
ARC
8
left_labelLayer
10
214.0602207
20
22.0350371
40
2.8697472
50
181.357463
51
194.4920058
0
ARC
8
left_labelLayer
10
214.8930207
20
22.0833333
40
3.7035676
50
179.9886162
51
181.7992038
0
ARC
8
left_labelLayer
10
214.5943016
20
22.1069104
40
3.4049251
50
168.9539231
51
180.3843605
0
ARC
8
left_labelLayer
10
213.4822781
20
22.333337
40
2.2701391
50
149.4071305
51
169.1853607
0
ARC
8
left_labelLayer
10
213.1724497
20
22.4970335
40
1.9201995
50
140.1056192
51
148.9066894
0
ARC
8
left_labelLayer
10
212.9820915
20
22.6725338
40
1.6616375
50
92.4762753
51
140.5386365
0
ARC
8
left_labelLayer
10
213.0669145
20
22.045608
40
2.2923677
50
89.963888
51
93.9175166
0
ARC
8
left_labelLayer
10
213.0871515
20
22.3625242
40
1.9755406
50
74.2126082
51
90.5450278
0
ARC
8
left_labelLayer
10
213.2108843
20
22.8184134
40
1.5031926
50
41.206479
51
74.0232559
0
ARC
8
left_labelLayer
10
212.9765572
20
22.6156203
40
1.8130822
50
11.5994264
51
41.1496205
0
ARC
8
left_labelLayer
10
212.1714056
20
22.4299373
40
2.639201
50
359.6148012
51
12.0336333
0
ARC
8
left_labelLayer
10
214.4634124
20
22.0540326
40
2.6026037
50
181.1447296
51
190.8006762
0
ARC
8
left_labelLayer
10
213.5452358
20
21.8729438
40
1.666768
50
190.600576
51
206.0275
0
ARC
8
left_labelLayer
10
213.139003
20
21.6808961
40
1.2174759
50
206.2950449
51
222.5558444
0
ARC
8
left_labelLayer
10
213.10301
20
21.6620503
40
1.1782639
50
223.0645026
51
258.14013
0
ARC
8
left_labelLayer
10
213.2463063
20
22.2520856
40
1.7852547
50
257.5311661
51
270.4319651
0
ARC
8
left_labelLayer
10
213.2479062
20
23.8916169
40
3.4247559
50
270.1984072
51
292.2090478
0
ARC
8
left_labelLayer
10
213.0835604
20
24.363645
40
3.9239733
50
291.825503
51
293.1614841
0
ARC
8
left_labelLayer
10
213.075581
20
23.7480833
40
3.8927551
50
287.9022724
51
293.4861917
0
ARC
8
left_labelLayer
10
213.3579526
20
22.8768606
40
2.9769157
50
281.9935909
51
287.8851268
0
ARC
8
left_labelLayer
10
213.4263904
20
22.6308876
40
2.7221365
50
275.9054825
51
281.6603973
0
ARC
8
left_labelLayer
10
213.2893934
20
23.909634
40
4.0081946
50
271.9119166
51
275.9727041
0
ARC
8
left_labelLayer
10
213.2393783
20
25.1836437
40
5.2831691
50
269.9669206
51
271.9930633
0
ARC
8
left_labelLayer
10
213.0481037
20
22.5168487
40
1.2782185
50
89.4422299
51
106.2089946
0
ARC
8
left_labelLayer
10
212.9712053
20
22.7972307
40
0.9875261
50
106.4657151
51
137.9176226
0
ARC
8
left_labelLayer
10
213.1916796
20
22.6036187
40
1.280923
50
138.0995018
51
160.5866066
0
ARC
8
left_labelLayer
10
213.7584114
20
22.3951297
40
1.8847493
50
160.335378
51
172.5314856
0
ARC
8
left_labelLayer
10
214.3166169
20
22.3056973
40
2.4498969
50
172.1545461
51
174.7613958
0
ARC
8
left_labelLayer
10
211.9056191
20
22.5419327
40
2.2096509
50
359.6745497
51
8.9224579
0
ARC
8
left_labelLayer
10
212.6951896
20
22.6705817
40
1.4096895
50
8.7342048
51
23.277252
0
ARC
8
left_labelLayer
10
213.0700192
20
22.8279273
40
1.0031963
50
23.4821371
51
39.7072637
0
ARC
8
left_labelLayer
10
213.1620876
20
22.8968253
40
0.888369
50
40.0822901
51
80.6243088
0
ARC
8
left_labelLayer
10
213.0673142
20
22.4623789
40
1.3326449
50
79.6468865
51
90.2909561
0
LINE
8
left_labelLayer
10
217.8457031
20
24.2598503
11
217.8457031
21
23.7559441
0
LINE
8
left_labelLayer
10
217.8457031
20
23.7559441
11
216.7558594
21
23.7559441
0
LINE
8
left_labelLayer
10
216.7558594
20
23.7559441
11
216.7558594
21
19.9786003
0
LINE
8
left_labelLayer
10
216.7558594
20
19.9786003
11
216.1074219
21
19.9786003
0
LINE
8
left_labelLayer
10
216.1074219
20
19.9786003
11
216.1074219
21
23.7559441
0
LINE
8
left_labelLayer
10
216.1074219
20
23.7559441
11
215.3417969
21
23.7559441
0
LINE
8
left_labelLayer
10
215.3417969
20
23.7559441
11
215.3417969
21
24.0489128
0
LINE
8
left_labelLayer
10
215.3417969
20
24.0489128
11
216.1074219
21
24.2832878
0
LINE
8
left_labelLayer
10
216.1074219
20
24.2832878
11
216.1074219
21
24.5215691
0
LINE
8
left_labelLayer
10
218.2832031
20
25.9629753
11
218.1152344
21
25.4434441
0
LINE
8
left_labelLayer
10
216.7558594
20
24.5371941
11
216.7558594
21
24.2598503
0
LINE
8
left_labelLayer
10
216.7558594
20
24.2598503
11
217.8457031
21
24.2598503
0
ARC
8
left_labelLayer
10
218.7353114
20
24.5517815
40
2.6280632
50
167.5776086
51
180.6586899
0
ARC
8
left_labelLayer
10
217.499512
20
24.8398974
40
1.3593059
50
141.7434014
51
168.2321914
0
ARC
8
left_labelLayer
10
217.2982963
20
24.9449175
40
1.1370559
50
98.2551315
51
139.6203531
0
ARC
8
left_labelLayer
10
217.4749666
20
24.1287584
40
1.9709684
50
89.6697212
51
99.9313817
0
ARC
8
left_labelLayer
10
217.4754583
20
24.0116078
40
2.0881146
50
81.5640718
51
89.7017414
0
ARC
8
left_labelLayer
10
217.3286579
20
22.9874463
40
3.1227354
50
75.9739961
51
81.6564686
0
ARC
8
left_labelLayer
10
217.0767579
20
21.9426144
40
4.1974769
50
73.2963503
51
76.0946352
0
ARC
8
left_labelLayer
10
217.1402097
20
22.4495143
40
3.1486963
50
71.9612708
51
76.5919084
0
ARC
8
left_labelLayer
10
217.3844689
20
23.4857065
40
2.0841091
50
76.5183332
51
83.0216635
0
ARC
8
left_labelLayer
10
217.4695655
20
24.1700463
40
1.3945006
50
83.0760221
51
89.7927633
0
ARC
8
left_labelLayer
10
217.4667624
20
24.6900901
40
0.8744829
50
89.4858607
51
103.4197755
0
ARC
8
left_labelLayer
10
217.3879224
20
24.9929841
40
0.561598
50
102.7677754
51
144.337997
0
ARC
8
left_labelLayer
10
217.5467549
20
24.8907898
40
0.7502854
50
145.0688257
51
162.1801239
0
ARC
8
left_labelLayer
10
218.0913428
20
24.707564
40
1.3248402
50
161.8437716
51
171.7846675
0
ARC
8
left_labelLayer
10
218.9795502
20
24.5741569
40
2.2230017
50
171.6527351
51
178.4383447
0
ARC
8
left_labelLayer
10
219.8176074
20
24.538426
40
3.0617484
50
178.1973465
51
180.0230529
0
LINE
8
left_labelLayer
10
220.5957031
20
20.5137566
11
220.5957031
21
20.0176628
0
LINE
8
left_labelLayer
10
218.6738281
20
21.2090691
11
218.6738281
21
23.7559441
0
LINE
8
left_labelLayer
10
218.6738281
20
23.7559441
11
218.0605469
21
23.7559441
0
LINE
8
left_labelLayer
10
218.0605469
20
23.7559441
11
218.0605469
21
24.0684441
0
LINE
8
left_labelLayer
10
218.0605469
20
24.0684441
11
218.6738281
21
24.3379753
0
LINE
8
left_labelLayer
10
218.6738281
20
24.3379753
11
218.9472656
21
25.2520378
0
LINE
8
left_labelLayer
10
218.9472656
20
25.2520378
11
219.3222656
21
25.2520378
0
LINE
8
left_labelLayer
10
219.3222656
20
25.2520378
11
219.3222656
21
24.2598503
0
LINE
8
left_labelLayer
10
219.3222656
20
24.2598503
11
220.5644531
21
24.2598503
0
LINE
8
left_labelLayer
10
220.5644531
20
24.2598503
11
220.5644531
21
23.7559441
0
LINE
8
left_labelLayer
10
220.5644531
20
23.7559441
11
219.3222656
21
23.7559441
0
LINE
8
left_labelLayer
10
219.3222656
20
23.7559441
11
219.3222656
21
21.2364128
0
ARC
8
left_labelLayer
10
220.0142125
20
22.5651837
40
2.1295567
50
269.8803566
51
278.3028372
0
ARC
8
left_labelLayer
10
220.0344368
20
22.3997525
40
1.9629428
50
278.4159963
51
279.0085155
0
ARC
8
left_labelLayer
10
219.7955877
20
23.9257404
40
3.5075086
50
278.9588861
51
280.5104532
0
ARC
8
left_labelLayer
10
220.023229
20
22.7042834
40
2.2650206
50
280.4849063
51
282.6268378
0
ARC
8
left_labelLayer
10
220.2230026
20
21.8167611
40
1.3552933
50
282.5875512
51
285.5796631
0
ARC
8
left_labelLayer
10
220.3226679
20
21.4500656
40
0.9753063
50
285.7255298
51
286.2571101
0
ARC
8
left_labelLayer
10
220.3230928
20
20.594246
40
0.6377809
50
287.9886345
51
295.3049279
0
ARC
8
left_labelLayer
10
220.1692583
20
21.0596602
40
1.1279561
50
283.3067989
51
288.1197714
0
ARC
8
left_labelLayer
10
220.0067438
20
21.7375394
40
1.8250419
50
280.0070141
51
283.3735776
0
ARC
8
left_labelLayer
10
219.89765
20
22.3297556
40
2.4272096
50
279.1866352
51
280.1138398
0
ARC
8
left_labelLayer
10
219.8312629
20
22.7072925
40
2.8105078
50
275.5260029
51
279.2938973
0
ARC
8
left_labelLayer
10
219.9064721
20
21.9217322
40
2.0213561
50
270.8933044
51
275.5483315
0
ARC
8
left_labelLayer
10
219.9159243
20
21.5628167
40
1.6623414
50
270.0031482
51
270.7604232
0
ARC
8
left_labelLayer
10
219.8898497
20
21.5938973
40
1.6936241
50
253.7847802
51
270.8852355
0
ARC
8
left_labelLayer
10
219.6892
20
20.9096063
40
0.9805252
50
190.3817615
51
253.8772309
0
ARC
8
left_labelLayer
10
220.7119064
20
21.1861274
40
2.0382073
50
179.3550751
51
192.8477413
0
ARC
8
left_labelLayer
10
220.6279729
20
21.2282464
40
1.3057328
50
179.6416531
51
189.7506275
0
ARC
8
left_labelLayer
10
220.1670302
20
21.1460312
40
0.8375302
50
189.5479862
51
205.7873385
0
ARC
8
left_labelLayer
10
219.9776023
20
21.0586813
40
0.6289777
50
206.1294917
51
221.4082737
0
ARC
8
left_labelLayer
10
219.9563557
20
21.0425603
40
0.6023828
50
221.5948847
51
262.3505124
0
ARC
8
left_labelLayer
10
220.0068705
20
21.3023323
40
0.8667053
50
261.3266934
51
270.1913888
0
LINE
8
back_outsideCutPath
10
0
20
86
11
0
21
73.5
0
LINE
8
back_outsideCutPath
10
0
20
73.5
11
4
21
73.5
0
LINE
8
back_outsideCutPath
10
4
20
73.5
11
4
21
58.5
0
LINE
8
back_outsideCutPath
10
4
20
58.5
11
0
21
58.5
0
LINE
8
back_outsideCutPath
10
0
20
58.5
11
0
21
46
0
LINE
8
back_outsideCutPath
10
0
20
46
11
16.5
21
46
0
LINE
8
back_outsideCutPath
10
16.5
20
46
11
16.5
21
50
0
LINE
8
back_outsideCutPath
10
16.5
20
50
11
31.5
21
50
0
LINE
8
back_outsideCutPath
10
31.5
20
50
11
31.5
21
46
0
LINE
8
back_outsideCutPath
10
31.5
20
46
11
46.5
21
46
0
LINE
8
back_outsideCutPath
10
46.5
20
46
11
46.5
21
50
0
LINE
8
back_outsideCutPath
10
46.5
20
50
11
61.5
21
50
0
LINE
8
back_outsideCutPath
10
61.5
20
50
11
61.5
21
46
0
LINE
8
back_outsideCutPath
10
61.5
20
46
11
76.5
21
46
0
LINE
8
back_outsideCutPath
10
76.5
20
46
11
76.5
21
50
0
LINE
8
back_outsideCutPath
10
76.5
20
50
11
91.5
21
50
0
LINE
8
back_outsideCutPath
10
91.5
20
50
11
91.5
21
46
0
LINE
8
back_outsideCutPath
10
91.5
20
46
11
108
21
46
0
LINE
8
back_outsideCutPath
10
108
20
46
11
108
21
58.5
0
LINE
8
back_outsideCutPath
10
108
20
58.5
11
104
21
58.5
0
LINE
8
back_outsideCutPath
10
104
20
58.5
11
104
21
73.5
0
LINE
8
back_outsideCutPath
10
104
20
73.5
11
108
21
73.5
0
LINE
8
back_outsideCutPath
10
108
20
73.5
11
108
21
86
0
LINE
8
back_outsideCutPath
10
108
20
86
11
0
21
86
0
LINE
8
back_labelLayer
10
46.3554688
20
63.5508254
11
46.3085938
21
63.5508254
0
LINE
8
back_labelLayer
10
46.3085938
20
63.5508254
11
46.171875
21
63.0000441
0
LINE
8
back_labelLayer
10
46.171875
20
63.0000441
11
45.7070313
21
63.0000441
0
LINE
8
back_labelLayer
10
45.7070313
20
63.0000441
11
45.7070313
21
69.0781691
0
LINE
8
back_labelLayer
10
45.7070313
20
69.0781691
11
46.3554688
21
69.0781691
0
LINE
8
back_labelLayer
10
46.3554688
20
69.0781691
11
46.3554688
21
67.6016066
0
LINE
8
back_labelLayer
10
46.3242188
20
66.7109816
11
46.3554688
21
66.7109816
0
ARC
8
back_labelLayer
10
47.718671
20
65.3698507
40
1.9818513
50
74.2393413
51
90.5623774
0
ARC
8
back_labelLayer
10
47.8497177
20
65.8506022
40
1.4835857
50
38.5631327
51
74.0670403
0
ARC
8
back_labelLayer
10
47.5124801
20
65.5883795
40
1.9107496
50
16.4708971
51
38.4075537
0
ARC
8
back_labelLayer
10
46.540934
20
65.2837298
40
2.9288516
50
5.1338424
51
16.7973436
0
ARC
8
back_labelLayer
10
45.3144648
20
65.1534429
40
4.1621073
50
359.8779296
51
5.4093929
0
ARC
8
back_labelLayer
10
45.6746956
20
65.1221449
40
3.8019331
50
350.6562649
51
0.3380337
0
ARC
8
back_labelLayer
10
47.0001068
20
64.8967062
40
2.4575166
50
335.8305869
51
350.8254736
0
ARC
8
back_labelLayer
10
47.5831318
20
64.6450643
40
1.8225919
50
321.3161666
51
335.5436116
0
ARC
8
back_labelLayer
10
47.80603
20
64.463437
40
1.5350768
50
274.0640082
51
321.4081008
0
ARC
8
back_labelLayer
10
47.7021926
20
65.121154
40
2.1992369
50
269.9225227
51
275.5482146
0
ARC
8
back_labelLayer
10
47.688283
20
64.8887337
40
1.966845
50
255.7755145
51
270.3185693
0
ARC
8
back_labelLayer
10
47.6321545
20
64.6393654
40
1.711344
50
245.9801605
51
255.5455876
0
ARC
8
back_labelLayer
10
47.5234404
20
64.3865491
40
1.4361725
50
215.5850185
51
245.8361543
0
ARC
8
back_labelLayer
10
32.8356109
20
67.590183
40
13.5198626
50
358.1123591
51
0.048412
0
ARC
8
back_labelLayer
10
36.5988172
20
67.4638482
40
9.7545373
50
355.7238583
51
358.1259147
0
ARC
8
back_labelLayer
10
38.2403849
20
67.3512407
40
8.1091492
50
355.4714899
51
355.6524466
0
ARC
8
back_labelLayer
10
47.5647762
20
65.867699
40
1.4742965
50
95.1835057
51
145.1108984
0
ARC
8
back_labelLayer
10
47.6943599
20
65.1369789
40
2.214633
50
89.8742937
51
96.8145634
0
ARC
8
back_labelLayer
10
47.5918925
20
64.9865272
40
1.8221613
50
89.573107
51
100.7324142
0
ARC
8
back_labelLayer
10
47.457002
20
65.6680408
40
1.1274631
50
100.446925
51
119.6700673
0
ARC
8
back_labelLayer
10
47.3319158
20
65.9019033
40
0.862373
50
120.1402568
51
142.4249471
0
ARC
8
back_labelLayer
10
47.5388609
20
65.7650017
40
1.1100121
50
143.3382551
51
161.2559989
0
ARC
8
back_labelLayer
10
48.4042668
20
65.4577551
40
2.0282918
50
160.8926776
51
171.2333991
0
ARC
8
back_labelLayer
10
49.8489186
20
65.2246989
40
3.4916011
50
171.0667686
51
177.8456913
0
ARC
8
back_labelLayer
10
51.351589
20
65.1482796
40
4.9961216
50
177.6177231
51
180.0424808
0
ARC
8
back_labelLayer
10
50.6428718
20
65.1278355
40
4.2874357
50
179.7762935
51
185.7075238
0
ARC
8
back_labelLayer
10
48.9524814
20
64.9536662
40
2.5881095
50
185.5924992
51
194.2050682
0
ARC
8
back_labelLayer
10
47.8696299
20
64.6726277
40
1.4694182
50
193.9429988
51
208.0218941
0
ARC
8
back_labelLayer
10
47.4315139
20
64.4497434
40
0.9779924
50
208.5535994
51
217.5605508
0
ARC
8
back_labelLayer
10
47.3958259
20
64.434902
40
0.9407079
50
218.1690506
51
253.804688
0
ARC
8
back_labelLayer
10
47.5703084
20
64.9728536
40
1.5060788
50
253.1382766
51
266.8483132
0
ARC
8
back_labelLayer
10
47.619236
20
65.5498599
40
2.0849729
50
266.3775678
51
270.0510515
0
ARC
8
back_labelLayer
10
47.6349252
20
64.7574671
40
1.2926532
50
269.3869186
51
285.8630994
0
ARC
8
back_labelLayer
10
47.7309623
20
64.4103801
40
0.9325369
50
286.01627
51
326.8497356
0
ARC
8
back_labelLayer
10
47.2674356
20
64.7174483
40
1.4885401
50
326.7105419
51
343.6661341
0
ARC
8
back_labelLayer
10
46.399766
20
64.9825791
40
2.3957764
50
343.4171328
51
353.6369338
0
ARC
8
back_labelLayer
10
45.0892541
20
65.1380844
40
3.715461
50
353.4934354
51
0.2205734
0
ARC
8
back_labelLayer
10
44.973715
20
65.1678949
40
3.8310039
50
359.7680788
51
6.3095584
0
ARC
8
back_labelLayer
10
46.4167603
20
65.3334948
40
2.3785079
50
6.1648822
51
16.0396485
0
ARC
8
back_labelLayer
10
47.346361
20
65.6074476
40
1.4094168
50
15.7779676
51
32.0151045
0
ARC
8
back_labelLayer
10
47.6361804
20
65.7734088
40
1.0757711
50
32.7035531
51
35.5241705
0
ARC
8
back_labelLayer
10
47.7422699
20
65.8488112
40
0.9456157
50
35.5408381
51
79.8011355
0
ARC
8
back_labelLayer
10
47.6152821
20
65.3089642
40
1.499706
50
78.6781079
51
90.3749176
0
LINE
8
back_labelLayer
10
53.7226563
20
63.0000441
11
53.2421875
21
63.0000441
0
LINE
8
back_labelLayer
10
53.2421875
20
63.0000441
11
53.1132813
21
63.6094191
0
LINE
8
back_labelLayer
10
53.1132813
20
63.6094191
11
53.0820313
21
63.6094191
0
LINE
8
back_labelLayer
10
52.3632813
20
65.5430129
11
53.0898438
21
65.5664504
0
LINE
8
back_labelLayer
10
53.0898438
20
65.5664504
11
53.0898438
21
65.8320754
0
LINE
8
back_labelLayer
10
50.96875
20
66.4883254
11
50.7695313
21
66.9844191
0
LINE
8
back_labelLayer
10
53.7226563
20
65.9219191
11
53.7226563
21
63.0000441
0
LINE
8
back_labelLayer
10
53.0742188
20
64.7187941
11
53.0742188
21
65.1055129
0
LINE
8
back_labelLayer
10
53.0742188
20
65.1055129
11
52.4257813
21
65.0781691
0
ARC
8
back_labelLayer
10
50.9722615
20
65.2751869
40
2.6881054
50
314.7445115
51
321.7071594
0
ARC
8
back_labelLayer
10
51.6326935
20
64.6041371
40
1.7465847
50
304.8485532
51
314.8530797
0
ARC
8
back_labelLayer
10
51.9499517
20
64.1525515
40
1.1947021
50
294.3932023
51
304.7371643
0
ARC
8
back_labelLayer
10
51.8415599
20
64.4333952
40
1.4953408
50
281.2979559
51
293.7314099
0
ARC
8
back_labelLayer
10
51.6982778
20
65.1278166
40
2.2043804
50
272.9334898
51
281.4138968
0
ARC
8
back_labelLayer
10
51.6507846
20
65.8400175
40
2.9180994
50
269.9539152
51
273.1491341
0
ARC
8
back_labelLayer
10
51.6343804
20
64.9118342
40
1.9899648
50
258.6719551
51
270.4047413
0
ARC
8
back_labelLayer
10
51.4961552
20
64.2506227
40
1.3144957
50
238.3273423
51
258.9183641
0
ARC
8
back_labelLayer
10
51.4009127
20
64.0768554
40
1.1166469
50
227.7690055
51
237.8048907
0
ARC
8
back_labelLayer
10
51.3711053
20
64.0352466
40
1.0658201
50
192.08276
51
227.4520742
0
ARC
8
back_labelLayer
10
51.9206035
20
64.1707019
40
1.6315922
50
179.545731
51
192.6948929
0
ARC
8
back_labelLayer
10
51.4101237
20
64.2297778
40
1.1220103
50
115.4904586
51
182.3568144
0
ARC
8
back_labelLayer
10
51.9720365
20
63.1991167
40
2.295052
50
101.3567927
51
117.0798877
0
ARC
8
back_labelLayer
10
52.4233097
20
61.0902767
40
4.4515476
50
92.4696359
51
101.7064824
0
ARC
8
back_labelLayer
10
52.5529688
20
59.212821
40
6.3330333
50
91.7163845
51
92.9096851
0
ARC
8
back_labelLayer
10
51.2273932
20
65.8420427
40
1.8624772
50
359.6933721
51
8.0035752
0
ARC
8
back_labelLayer
10
51.9319341
20
65.9446797
40
1.1505138
50
7.8272546
51
20.6041238
0
ARC
8
back_labelLayer
10
52.3306221
20
66.0971961
40
0.7236605
50
20.4094553
51
41.4479932
0
ARC
8
back_labelLayer
10
52.3895285
20
66.1295762
40
0.6582379
50
42.7295443
51
71.038062
0
ARC
8
back_labelLayer
10
52.2508464
20
65.752503
40
1.0599477
50
70.5715461
51
83.992937
0
ARC
8
back_labelLayer
10
52.1845896
20
65.2143289
40
1.6021291
50
83.6506009
51
90.175311
0
ARC
8
back_labelLayer
10
52.1962127
20
64.7053375
40
2.1111775
50
90.448487
51
103.7665353
0
ARC
8
back_labelLayer
10
52.4444687
20
63.6584271
40
3.1871004
50
103.6226283
51
112.4320269
0
ARC
8
back_labelLayer
10
52.8700704
20
62.5838212
40
4.3428301
50
112.2122523
51
115.9640282
0
ARC
8
back_labelLayer
10
52.1885403
20
64.3528838
40
2.9897433
50
106.3568728
51
118.3349838
0
ARC
8
back_labelLayer
10
52.3158567
20
63.9596196
40
3.4029644
50
104.516206
51
106.5490272
0
ARC
8
back_labelLayer
10
52.2224937
20
64.3486248
40
3.0029842
50
90.0714288
51
104.6521125
0
ARC
8
back_labelLayer
10
52.2342799
20
64.6130031
40
2.7386476
50
81.56799
51
90.3249051
0
ARC
8
back_labelLayer
10
52.392625
20
65.6445762
40
1.6950146
50
68.2273723
51
81.7494461
0
ARC
8
back_labelLayer
10
52.6131716
20
66.1933179
40
1.1036128
50
47.8683268
51
68.2934046
0
ARC
8
back_labelLayer
10
52.6489664
20
66.2647901
40
1.0268194
50
19.2331155
51
46.6741027
0
ARC
8
back_labelLayer
10
52.0526756
20
66.0429695
40
1.6629502
50
6.3378884
51
19.6815213
0
ARC
8
back_labelLayer
10
51.1712056
20
65.9307077
40
2.5514656
50
359.8026438
51
6.6583109
0
ARC
8
back_labelLayer
10
51.7904549
20
65.2423686
40
1.7853413
50
269.5792281
51
282.0413523
0
ARC
8
back_labelLayer
10
51.9206839
20
64.6647278
40
1.193262
50
281.7120793
51
306.4593915
0
ARC
8
back_labelLayer
10
51.978452
20
64.5697349
40
1.0825783
50
306.9880243
51
313.8560765
0
ARC
8
back_labelLayer
10
51.9715597
20
64.5677958
40
1.0859738
50
314.189173
51
347.4269928
0
ARC
8
back_labelLayer
10
51.4275651
20
64.7041176
40
1.646663
50
346.9177907
51
0.2824836
0
ARC
8
back_labelLayer
10
51.0090577
20
64.7187901
40
2.065161
50
359.8181646
51
0.0001108
0
ARC
8
back_labelLayer
10
52.5800231
20
60.3194621
40
4.761206
50
91.856453
51
96.4478209
0
ARC
8
back_labelLayer
10
52.3653053
20
62.1774754
40
2.8908368
50
96.3545112
51
102.9953313
0
ARC
8
back_labelLayer
10
52.0738439
20
63.4157999
40
1.6186957
50
102.7995007
51
113.2432904
0
ARC
8
back_labelLayer
10
51.8335761
20
63.990434
40
0.9959
50
113.5887358
51
121.6805219
0
ARC
8
back_labelLayer
10
51.6666361
20
64.2446788
40
0.6919192
50
120.9733875
51
172.4180045
0
ARC
8
back_labelLayer
10
51.9929162
20
64.1795057
40
1.0241727
50
171.212206
51
180.2058905
0
ARC
8
back_labelLayer
10
51.8954053
20
64.1681678
40
0.926687
50
179.5265345
51
192.7787384
0
ARC
8
back_labelLayer
10
51.581927
20
64.0921791
40
0.6041841
50
192.3264548
51
222.0579776
0
ARC
8
back_labelLayer
10
51.5585987
20
64.0782241
40
0.5775393
50
222.5804108
51
229.254766
0
ARC
8
back_labelLayer
10
51.6374026
20
64.1796791
40
0.7058688
50
229.7836767
51
254.2724618
0
ARC
8
back_labelLayer
10
51.7423476
20
64.5293963
40
1.070958
50
253.939661
51
266.4533576
0
ARC
8
back_labelLayer
10
51.7758443
20
64.9155322
40
1.4584577
50
266.07835
51
270.0589066
0
LINE
8
back_labelLayer
10
57.9140625
20
67.1367629
11
57.7148438
21
66.5859816
0
LINE
8
back_labelLayer
10
57.8515625
20
63.7187941
11
57.8515625
21
63.1445754
0
ARC
8
back_labelLayer
10
56.7488495
20
65.3453034
40
2.4234726
50
256.4243648
51
270.4889634
0
ARC
8
back_labelLayer
10
56.5551903
20
64.58947
40
1.6433349
50
221.797623
51
256.8020567
0
ARC
8
back_labelLayer
10
56.7427241
20
64.7280322
40
1.8756194
50
196.0166453
51
221.1349396
0
ARC
8
back_labelLayer
10
57.6852622
20
65.0161215
40
2.8611078
50
183.591373
51
196.3539647
0
ARC
8
back_labelLayer
10
58.7412142
20
65.1091438
40
3.9209039
50
179.9388946
51
183.9814603
0
ARC
8
back_labelLayer
10
58.3980603
20
65.1363605
40
3.577822
50
169.8978359
51
180.368891
0
ARC
8
back_labelLayer
10
57.1525423
20
65.3667629
40
2.3112155
50
153.0875205
51
170.1051222
0
ARC
8
back_labelLayer
10
56.6799547
20
65.5925798
40
1.7876424
50
138.654978
51
152.6854007
0
ARC
8
back_labelLayer
10
56.5917611
20
65.6568485
40
1.6790059
50
101.4913069
51
138.3133699
0
ARC
8
back_labelLayer
10
56.7942506
20
64.8141081
40
2.5453766
50
89.5892068
51
102.1787807
0
ARC
8
back_labelLayer
10
56.8098197
20
64.4331957
40
2.9262247
50
77.7702704
51
89.9475193
0
ARC
8
back_labelLayer
10
56.7544355
20
64.1276615
40
3.2365745
50
74.679659
51
77.9578232
0
ARC
8
back_labelLayer
10
57.0536177
20
65.2115358
40
2.1121698
50
70.0945352
51
74.73863
0
ARC
8
back_labelLayer
10
57.3381906
20
65.9914025
40
1.282009
50
63.5034223
51
70.186184
0
ARC
8
back_labelLayer
10
57.4728712
20
66.2735595
40
0.9694172
50
62.9280031
51
63.1872894
0
ARC
8
back_labelLayer
10
56.6496272
20
63.9052024
40
2.88466
50
68.3294359
51
74.8831229
0
ARC
8
back_labelLayer
10
56.497422
20
63.3654781
40
3.4454066
50
74.7802827
51
77.4497593
0
ARC
8
back_labelLayer
10
56.6572242
20
64.1155565
40
2.6785357
50
77.2999205
51
81.7345577
0
ARC
8
back_labelLayer
10
56.7737551
20
64.9275499
40
1.858225
50
81.6910446
51
87.5078148
0
ARC
8
back_labelLayer
10
56.7962438
20
65.3478339
40
1.4373666
50
87.6749207
51
89.9748375
0
ARC
8
back_labelLayer
10
56.7647305
20
65.3472276
40
1.438332
50
88.7194221
51
112.5667465
0
ARC
8
back_labelLayer
10
56.6625266
20
65.6851401
40
1.0876437
50
114.4265608
51
161.6632892
0
ARC
8
back_labelLayer
10
57.6778094
20
65.2877467
40
2.1771624
50
160.1418279
51
175.1368237
0
ARC
8
back_labelLayer
10
59.0752557
20
65.1308258
40
3.5830813
50
174.5310025
51
180.1549162
0
ARC
8
back_labelLayer
10
58.6324849
20
65.1049203
40
3.1403393
50
179.7041071
51
188.0743963
0
ARC
8
back_labelLayer
10
57.5013797
20
64.9394251
40
1.9972082
50
187.9315066
51
200.3885643
0
ARC
8
back_labelLayer
10
56.8897767
20
64.7128561
40
1.3449882
50
200.418316
51
216.6392906
0
ARC
8
back_labelLayer
10
56.6333805
20
64.5295642
40
1.0298867
50
216.9695322
51
261.3102886
0
ARC
8
back_labelLayer
10
56.7465347
20
65.0571007
40
1.5687928
50
260.1358944
51
270.2692274
0
ARC
8
back_labelLayer
10
56.741311
20
66.2027354
40
2.7144392
50
270.2658576
51
286.289147
0
ARC
8
back_labelLayer
10
56.5763048
20
66.8181096
40
3.3514234
50
286.046032
51
292.3654165
0
ARC
8
back_labelLayer
10
57.0157589
20
64.7888004
40
1.844463
50
282.0344333
51
296.9454504
0
ARC
8
back_labelLayer
10
56.8260667
20
65.6436739
40
2.7201089
50
272.5980667
51
282.1878304
0
ARC
8
back_labelLayer
10
56.7716758
20
66.4778453
40
3.5559267
50
269.9654455
51
272.8642928
0
LINE
8
back_labelLayer
10
59.4765625
20
65.1914504
11
59.5078125
21
65.1914504
0
LINE
8
back_labelLayer
10
60.0195313
20
65.8164504
11
61.4023438
21
67.2812941
0
LINE
8
back_labelLayer
10
61.4023438
20
67.2812941
11
62.171875
21
67.2812941
0
LINE
8
back_labelLayer
10
62.171875
20
67.2812941
11
60.4375
21
65.4570754
0
LINE
8
back_labelLayer
10
60.4375
20
65.4570754
11
62.2929688
21
63.0000441
0
LINE
8
back_labelLayer
10
62.2929688
20
63.0000441
11
61.5078125
21
63.0000441
0
LINE
8
back_labelLayer
10
61.5078125
20
63.0000441
11
59.9960938
21
65.0234816
0
LINE
8
back_labelLayer
10
59.9960938
20
65.0234816
11
59.5078125
21
64.6016066
0
LINE
8
back_labelLayer
10
59.5078125
20
64.6016066
11
59.5078125
21
63.0000441
0
LINE
8
back_labelLayer
10
59.5078125
20
63.0000441
11
58.8671875
21
63.0000441
0
LINE
8
back_labelLayer
10
58.8671875
20
63.0000441
11
58.8671875
21
69.0781691
0
LINE
8
back_labelLayer
10
58.8671875
20
69.0781691
11
59.5078125
21
69.0781691
0
LINE
8
back_labelLayer
10
59.5078125
20
69.0781691
11
59.5078125
21
65.8555129
0
ARC
8
back_labelLayer
10
62.6410762
20
62.9735896
40
3.838782
50
142.3233938
51
144.7074743
0
ARC
8
back_labelLayer
10
64.6853696
20
61.3967725
40
6.4205425
50
140.4331514
51
142.3365275
0
ARC
8
back_labelLayer
10
67.3492378
20
59.2039367
40
9.8708608
50
139.279932
51
140.4703476
0
ARC
8
back_labelLayer
10
70.4291362
20
56.5554403
40
13.9329173
50
138.3417866
51
139.2877597
0
ARC
8
back_labelLayer
10
55.1869571
20
65.8635914
40
4.3208629
50
358.2739307
51
359.8928763
0
ARC
8
back_labelLayer
10
51.8226076
20
65.9573764
40
7.6865144
50
357.5042409
51
358.3305463
0
ARC
8
back_labelLayer
10
46.7949683
20
66.1794456
40
12.7190552
50
356.6324526
51
357.4910522
0
ARC
8
back_labelLayer
10
38.4277551
20
66.6674551
40
21.1004871
50
356.0329362
51
356.6442135
0
ARC
8
back_labelLayer
10
33.351022
20
67.0092696
40
26.1887061
50
356.0197657
51
356.0553136
0
LINE
8
right_outsideCutPath
10
115
20
86
11
115
21
73.5
0
LINE
8
right_outsideCutPath
10
115
20
73.5
11
111
21
73.5
0
LINE
8
right_outsideCutPath
10
111
20
73.5
11
111
21
58.5
0
LINE
8
right_outsideCutPath
10
111
20
58.5
11
115
21
58.5
0
LINE
8
right_outsideCutPath
10
115
20
58.5
11
115
21
46
0
LINE
8
right_outsideCutPath
10
115
20
46
11
132.5
21
46
0
LINE
8
right_outsideCutPath
10
132.5
20
46
11
132.5
21
50
0
LINE
8
right_outsideCutPath
10
132.5
20
50
11
147.5
21
50
0
LINE
8
right_outsideCutPath
10
147.5
20
50
11
147.5
21
46
0
LINE
8
right_outsideCutPath
10
147.5
20
46
11
162.5
21
46
0
LINE
8
right_outsideCutPath
10
162.5
20
46
11
162.5
21
50
0
LINE
8
right_outsideCutPath
10
162.5
20
50
11
177.5
21
50
0
LINE
8
right_outsideCutPath
10
177.5
20
50
11
177.5
21
46
0
LINE
8
right_outsideCutPath
10
177.5
20
46
11
192.5
21
46
0
LINE
8
right_outsideCutPath
10
192.5
20
46
11
192.5
21
50
0
LINE
8
right_outsideCutPath
10
192.5
20
50
11
207.5
21
50
0
LINE
8
right_outsideCutPath
10
207.5
20
50
11
207.5
21
46
0
LINE
8
right_outsideCutPath
10
207.5
20
46
11
222.5
21
46
0
LINE
8
right_outsideCutPath
10
222.5
20
46
11
222.5
21
50
0
LINE
8
right_outsideCutPath
10
222.5
20
50
11
237.5
21
50
0
LINE
8
right_outsideCutPath
10
237.5
20
50
11
237.5
21
46
0
LINE
8
right_outsideCutPath
10
237.5
20
46
11
252.5
21
46
0
LINE
8
right_outsideCutPath
10
252.5
20
46
11
252.5
21
50
0
LINE
8
right_outsideCutPath
10
252.5
20
50
11
267.5
21
50
0
LINE
8
right_outsideCutPath
10
267.5
20
50
11
267.5
21
46
0
LINE
8
right_outsideCutPath
10
267.5
20
46
11
282.5
21
46
0
LINE
8
right_outsideCutPath
10
282.5
20
46
11
282.5
21
50
0
LINE
8
right_outsideCutPath
10
282.5
20
50
11
297.5
21
50
0
LINE
8
right_outsideCutPath
10
297.5
20
50
11
297.5
21
46
0
LINE
8
right_outsideCutPath
10
297.5
20
46
11
312.5
21
46
0
LINE
8
right_outsideCutPath
10
312.5
20
46
11
315
21
46
0
LINE
8
right_outsideCutPath
10
315
20
46
11
315
21
58.5
0
LINE
8
right_outsideCutPath
10
315
20
58.5
11
319
21
58.5
0
LINE
8
right_outsideCutPath
10
319
20
58.5
11
319
21
73.5
0
LINE
8
right_outsideCutPath
10
319
20
73.5
11
315
21
73.5
0
LINE
8
right_outsideCutPath
10
315
20
73.5
11
315
21
86
0
LINE
8
right_outsideCutPath
10
315
20
86
11
115
21
86
0
LINE
8
right_labelLayer
10
209.1894531
20
68.2343986
11
209.0996094
21
67.6328361
0
LINE
8
right_labelLayer
10
207.3730469
20
66.2187736
11
207.3730469
21
63.9218986
0
LINE
8
right_labelLayer
10
207.3730469
20
63.9218986
11
206.7246094
21
63.9218986
0
LINE
8
right_labelLayer
10
206.7246094
20
63.9218986
11
206.7246094
21
68.2031486
0
LINE
8
right_labelLayer
10
206.7246094
20
68.2031486
11
207.2597656
21
68.2031486
0
LINE
8
right_labelLayer
10
207.2597656
20
68.2031486
11
207.3339844
21
67.4101798
0
LINE
8
right_labelLayer
10
207.3339844
20
67.4101798
11
207.3652344
21
67.4101798
0
ARC
8
right_labelLayer
10
208.6843922
20
65.3044575
40
2.9768236
50
84.9922466
51
90.1281461
0
ARC
8
right_labelLayer
10
208.7558836
20
66.1053981
40
2.1727
50
78.4891613
51
85.0266334
0
ARC
8
right_labelLayer
10
208.4784103
20
64.8433864
40
2.857782
50
77.4453314
51
81.6360677
0
ARC
8
right_labelLayer
10
208.6029109
20
65.7015811
40
1.9906057
50
81.5883785
51
87.1916038
0
ARC
8
right_labelLayer
10
208.6299609
20
66.1705702
40
1.5208597
50
87.343762
51
89.9661514
0
ARC
8
right_labelLayer
10
208.6236732
20
66.5679026
40
1.1235502
50
89.6335396
51
137.0880816
0
ARC
8
right_labelLayer
10
208.899413
20
66.2578236
40
1.5371308
50
135.6208551
51
138.8376692
0
ARC
8
right_labelLayer
10
208.8590091
20
66.297264
40
1.4807566
50
138.9575801
51
174.5422129
0
ARC
8
right_labelLayer
10
209.3412379
20
66.2218077
40
1.9681934
50
173.6907399
51
180.088326
0
ARC
8
right_labelLayer
10
209.2730737
20
66.3353115
40
2.1897929
50
139.4139141
51
150.6032802
0
ARC
8
right_labelLayer
10
208.8804533
20
66.6717444
40
1.6727457
50
124.2322119
51
139.4160448
0
ARC
8
right_labelLayer
10
208.6705073
20
66.988653
40
1.2926407
50
89.6796601
51
124.4405586
0
LINE
8
right_labelLayer
10
210.6386719
20
68.2031486
11
210.6386719
21
63.9218986
0
LINE
8
right_labelLayer
10
210.6386719
20
63.9218986
11
209.9902344
21
63.9218986
0
LINE
8
right_labelLayer
10
209.9902344
20
63.9218986
11
209.9902344
21
68.2031486
0
LINE
8
right_labelLayer
10
209.9902344
20
68.2031486
11
210.6386719
21
68.2031486
0
ARC
8
right_labelLayer
10
210.6540966
20
69.3677493
40
0.7185635
50
170.8453219
51
180.3543861
0
ARC
8
right_labelLayer
10
210.385089
20
69.4127265
40
0.4458294
50
155.9680062
51
171.0516127
0
ARC
8
right_labelLayer
10
210.254796
20
69.47053
40
0.30329
50
133.787967
51
155.9172865
0
ARC
8
right_labelLayer
10
210.3029
20
69.4173494
40
0.3749746
50
92.6446299
51
133.4710718
0
ARC
8
right_labelLayer
10
210.3180967
20
69.2979439
40
0.4950485
50
89.9696035
51
93.7640043
0
ARC
8
right_labelLayer
10
210.3242798
20
69.4109871
40
0.3820511
50
46.3708172
51
90.8879144
0
ARC
8
right_labelLayer
10
210.3623014
20
69.4502402
40
0.3274048
50
17.725251
51
46.4472387
0
ARC
8
right_labelLayer
10
210.1849916
20
69.3891816
40
0.5149037
50
4.9428036
51
18.1901042
0
ARC
8
right_labelLayer
10
209.9594605
20
69.3647986
40
0.7417128
50
359.8846096
51
5.3182539
0
ARC
8
right_labelLayer
10
210.0302832
20
69.3587499
40
0.6709041
50
349.8343763
51
0.3890006
0
ARC
8
right_labelLayer
10
210.2745334
20
69.3131838
40
0.4224499
50
332.6321264
51
350.0706428
0
ARC
8
right_labelLayer
10
210.3695923
20
69.2662444
40
0.3164589
50
313.6155238
51
332.2676358
0
ARC
8
right_labelLayer
10
210.3237811
20
69.3079579
40
0.3782856
50
269.1787923
51
314.2807694
0
ARC
8
right_labelLayer
10
210.314061
20
69.3415842
40
0.4118956
50
250.4999444
51
270.5979238
0
ARC
8
right_labelLayer
10
210.3015944
20
69.2949727
40
0.3638161
50
225.1299787
51
249.9002685
0
ARC
8
right_labelLayer
10
210.2820783
20
69.2734159
40
0.3347727
50
197.7933504
51
224.8942901
0
ARC
8
right_labelLayer
10
210.4647433
20
69.3360129
40
0.5278422
50
184.9924622
51
198.2039865
0
ARC
8
right_labelLayer
10
210.7011171
20
69.3617087
40
0.7655719
50
179.8805444
51
185.3687618
0
LINE
8
right_labelLayer
10
214.0371094
20
68.2031486
11
215.5175781
21
68.2031486
0
LINE
8
right_labelLayer
10
215.5175781
20
68.2031486
11
215.5175781
21
67.7929923
0
LINE
8
right_labelLayer
10
215.5175781
20
67.7929923
11
214.7246094
21
67.6992423
0
LINE
8
right_labelLayer
10
213.2636719
20
64.6015861
11
214.0214844
21
64.6015861
0
LINE
8
right_labelLayer
10
213.8144531
20
64.0195548
11
213.0371094
21
64.0195548
0
ARC
8
right_labelLayer
10
213.8982719
20
67.045289
40
1.0537972
50
29.4584503
51
38.3576618
0
ARC
8
right_labelLayer
10
213.4677051
20
66.7994935
40
1.5495791
50
23.1844168
51
29.5423005
0
ARC
8
right_labelLayer
10
213.0571147
20
66.6173946
40
1.9987105
50
21.2505275
51
23.3491602
0
ARC
8
right_labelLayer
10
213.7551718
20
66.8950141
40
1.247509
50
6.85052
51
20.9871658
0
ARC
8
right_labelLayer
10
213.4038643
20
66.84738
40
1.6019992
50
359.8710145
51
7.0433033
0
ARC
8
right_labelLayer
10
213.5194287
20
66.8283163
40
1.486511
50
342.5649846
51
0.5957914
0
ARC
8
right_labelLayer
10
213.7935864
20
66.752611
40
1.2023065
50
310.609752
51
342.0923881
0
ARC
8
right_labelLayer
10
213.6398487
20
66.9314337
40
1.4381301
50
284.9315588
51
310.6223112
0
ARC
8
right_labelLayer
10
213.4474613
20
67.6055847
40
2.1391241
50
272.5335216
51
285.2579631
0
ARC
8
right_labelLayer
10
213.3980024
20
68.2812256
40
2.8163585
50
269.9691177
51
272.9311402
0
ARC
8
right_labelLayer
10
213.3918615
20
67.5488737
40
2.0840115
50
263.4837468
51
270.1270962
0
ARC
8
right_labelLayer
10
213.3579283
20
67.2265005
40
1.7598723
50
259.4964338
51
263.3902898
0
ARC
8
right_labelLayer
10
213.5680007
20
64.4716394
40
1.1538634
50
117.3934951
51
128.4095706
0
ARC
8
right_labelLayer
10
213.2709539
20
64.8401469
40
0.6805665
50
128.088226
51
147.1400046
0
ARC
8
right_labelLayer
10
213.1109187
20
64.9475432
40
0.4878769
50
147.536901
51
180.2592071
0
ARC
8
right_labelLayer
10
212.9590982
20
64.9411827
40
0.336077
50
179.2918906
51
198.358091
0
ARC
8
right_labelLayer
10
212.8961744
20
64.9246456
40
0.2711785
50
199.2291879
51
239.5691196
0
ARC
8
right_labelLayer
10
212.9484045
20
64.9968308
40
0.3599738
50
238.2203425
51
239.845598
0
ARC
8
right_labelLayer
10
212.9899686
20
65.0823545
40
0.4548572
50
240.7301368
51
254.5027299
0
ARC
8
right_labelLayer
10
213.1141184
20
65.5101728
40
0.900309
50
254.1637614
51
262.2122557
0
ARC
8
right_labelLayer
10
213.2124535
20
66.197017
40
1.5941491
50
262.0556165
51
267.208298
0
ARC
8
right_labelLayer
10
213.2599519
20
67.0681325
40
2.4665493
50
267.0918211
51
270.0864123
0
ARC
8
right_labelLayer
10
214.0356577
20
61.9472722
40
2.6543518
50
81.5744713
51
90.3059423
0
ARC
8
right_labelLayer
10
214.1812564
20
62.8968477
40
1.6936982
50
68.3671403
51
81.7399556
0
ARC
8
right_labelLayer
10
214.3714219
20
63.3828372
40
1.1718357
50
52.1879006
51
68.2501575
0
ARC
8
right_labelLayer
10
214.5044789
20
63.5621206
40
0.9486355
50
8.6201129
51
51.8982595
0
ARC
8
right_labelLayer
10
214.0381202
20
63.4634441
40
1.4247847
50
359.7430626
51
9.7326075
0
ARC
8
right_labelLayer
10
214.0590142
20
63.4394079
40
1.4039873
50
340.526852
51
0.7201799
0
ARC
8
right_labelLayer
10
214.2652898
20
63.3880481
40
1.1925631
50
302.9903841
51
339.5494328
0
ARC
8
right_labelLayer
10
214.0496597
20
63.6618608
40
1.5399648
50
303.1862281
51
304.1725659
0
ARC
8
right_labelLayer
10
213.8469394
20
64.0126258
40
1.9446084
50
286.2542385
51
302.5280005
0
ARC
8
right_labelLayer
10
213.4796876
20
65.2239868
40
3.2103725
50
276.4939443
51
286.4953956
0
ARC
8
right_labelLayer
10
213.2505382
20
67.1395163
40
5.1395399
50
269.7544902
51
276.6169764
0
ARC
8
right_labelLayer
10
213.2114022
20
65.6330052
40
3.6330219
50
262.5634692
51
270.2698933
0
ARC
8
right_labelLayer
10
213.0334667
20
64.3141438
40
2.302231
50
251.2102206
51
262.7063575
0
ARC
8
right_labelLayer
10
212.7769918
20
63.5613492
40
1.5069456
50
235.9667603
51
251.2229135
0
ARC
8
right_labelLayer
10
212.5051575
20
63.1735515
40
1.0334671
50
208.9036033
51
236.4231727
0
ARC
8
right_labelLayer
10
212.530116
20
63.1630923
40
1.0504756
50
182.2080226
51
207.7461445
0
ARC
8
right_labelLayer
10
212.8477849
20
63.194821
40
1.3692693
50
179.9784466
51
183.0225882
0
ARC
8
right_labelLayer
10
212.4698552
20
63.2127311
40
0.9914922
50
138.3916098
51
181.0052659
0
ARC
8
right_labelLayer
10
212.5745573
20
63.1186362
40
1.1322607
50
113.8121347
51
138.3496664
0
ARC
8
right_labelLayer
10
212.7731711
20
62.6897442
40
1.6048537
50
102.2871352
51
114.1172485
0
ARC
8
right_labelLayer
10
212.7107613
20
64.8702203
40
0.6729954
50
216.5861808
51
245.496818
0
ARC
8
right_labelLayer
10
212.8066105
20
64.9516004
40
0.798506
50
215.4648265
51
217.1757111
0
ARC
8
right_labelLayer
10
212.6466281
20
64.8360468
40
0.6011615
50
182.1766745
51
215.341606
0
ARC
8
right_labelLayer
10
212.7895546
20
64.8513741
40
0.7446328
50
179.9836864
51
182.9375103
0
ARC
8
right_labelLayer
10
212.7864212
20
64.8578542
40
0.7415259
50
161.7226071
51
180.4843313
0
ARC
8
right_labelLayer
10
212.7048872
20
64.8801029
40
0.6571427
50
144.4962885
51
161.3351106
0
ARC
8
right_labelLayer
10
212.92222
20
64.7181295
40
0.9281527
50
132.7259152
51
144.1480171
0
ARC
8
right_labelLayer
10
213.2705504
20
64.3461522
40
1.4377537
50
125.2212788
51
132.8654952
0
ARC
8
right_labelLayer
10
213.6207747
20
63.8598143
40
2.0370527
50
121.2352953
51
125.3793662
0
ARC
8
right_labelLayer
10
212.9999354
20
66.6516266
40
1.1367629
50
215.1640769
51
247.4747933
0
ARC
8
right_labelLayer
10
213.2121715
20
66.8229022
40
1.4090205
50
212.4713718
51
215.8874144
0
ARC
8
right_labelLayer
10
213.1563322
20
66.7829567
40
1.3404705
50
183.0160915
51
212.3123031
0
ARC
8
right_labelLayer
10
213.4505862
20
66.8157461
40
1.6361332
50
179.9760553
51
183.6205791
0
ARC
8
right_labelLayer
10
213.6878325
20
66.8322532
40
1.8734462
50
166.8195792
51
180.4839338
0
ARC
8
right_labelLayer
10
213.066337
20
66.9891671
40
1.2325933
50
132.3288026
51
167.3340697
0
ARC
8
right_labelLayer
10
213.1494835
20
66.8696494
40
1.3770726
50
106.2189001
51
131.5377602
0
ARC
8
right_labelLayer
10
213.3598626
20
66.1884574
40
2.0899478
50
93.6329651
51
106.5408646
0
ARC
8
right_labelLayer
10
213.4285403
20
65.4174427
40
2.8638325
50
89.9379737
51
94.0267909
0
ARC
8
right_labelLayer
10
213.4396625
20
65.7957665
40
2.4855201
50
82.5852568
51
90.18492
0
ARC
8
right_labelLayer
10
213.5156094
20
66.3833964
40
1.893003
50
74.00889
51
82.5694479
0
ARC
8
right_labelLayer
10
212.7547026
20
63.194292
40
0.6512472
50
179.2207873
51
200.9356007
0
ARC
8
right_labelLayer
10
212.6772573
20
63.1763587
40
0.5726112
50
202.0286567
51
236.14573
0
ARC
8
right_labelLayer
10
212.794068
20
63.3246978
40
0.7610091
50
235.0638204
51
238.5037543
0
ARC
8
right_labelLayer
10
212.9296726
20
63.5669321
40
1.0384592
50
239.1066491
51
254.4862605
0
ARC
8
right_labelLayer
10
213.110591
20
64.1907307
40
1.6879373
50
254.2323613
51
263.4937008
0
ARC
8
right_labelLayer
10
213.2242346
20
65.1532715
40
2.6571586
50
263.4108186
51
270.145743
0
ARC
8
right_labelLayer
10
213.2362041
20
65.7264637
40
3.2303463
50
269.9075819
51
270.0021989
0
ARC
8
right_labelLayer
10
213.2518684
20
66.8551932
40
4.3591036
50
269.795739
51
275.39914
0
ARC
8
right_labelLayer
10
213.415015
20
65.1803473
40
2.6763418
50
275.2957191
51
283.3516055
0
ARC
8
right_labelLayer
10
213.6808213
20
64.0855442
40
1.5497592
50
283.1370579
51
295.8573246
0
ARC
8
right_labelLayer
10
213.8777649
20
63.6555906
40
1.0770071
50
296.4047627
51
301.8007838
0
ARC
8
right_labelLayer
10
213.954992
20
63.5491394
40
0.9458876
50
301.2230286
51
318.6237579
0
ARC
8
right_labelLayer
10
214.1291573
20
63.388255
40
0.7088737
50
319.0765423
51
1.1407261
0
ARC
8
right_labelLayer
10
213.9606067
20
63.4093183
40
0.8773115
50
359.5460364
51
10.9904977
0
ARC
8
right_labelLayer
10
214.2994754
20
63.4782436
40
0.5315264
50
10.6609578
51
30.9361573
0
ARC
8
right_labelLayer
10
214.4069263
20
63.5378758
40
0.4087261
50
31.5094685
51
58.0778638
0
ARC
8
right_labelLayer
10
214.3062248
20
63.3575691
40
0.6150913
50
58.9971018
51
73.858741
0
ARC
8
right_labelLayer
10
214.1026762
20
62.6912156
40
1.3118046
50
73.41
51
81.5907225
0
ARC
8
right_labelLayer
10
213.9302148
20
61.5751525
40
2.4411011
50
81.4172557
51
86.5756907
0
ARC
8
right_labelLayer
10
213.8245318
20
59.8936369
40
4.1259301
50
86.505458
51
90.1399602
0
ARC
8
right_labelLayer
10
213.0278363
20
62.5290163
40
1.4905674
50
89.6435527
51
100.020959
0
ARC
8
right_labelLayer
10
212.9341485
20
63.0386596
40
0.9724034
50
99.8102345
51
116.8230279
0
ARC
8
right_labelLayer
10
212.8428924
20
63.2311029
40
0.7595073
50
117.2304047
51
130.5022488
0
ARC
8
right_labelLayer
10
212.7960369
20
63.2913257
40
0.6832922
50
130.7945068
51
169.0412991
0
ARC
8
right_labelLayer
10
213.1410932
20
63.2100659
40
1.0376006
50
168.2581331
51
180.3819744
0
ARC
8
right_labelLayer
10
213.7207748
20
66.8223746
40
1.2657338
50
179.561802
51
191.6529442
0
ARC
8
right_labelLayer
10
213.2806925
20
66.7272921
40
0.8155281
50
191.3555062
51
213.3660647
0
ARC
8
right_labelLayer
10
213.1750084
20
66.6662689
40
0.6937386
50
213.9574031
51
227.7971491
0
ARC
8
right_labelLayer
10
213.2669566
20
66.7777883
40
0.8381434
50
228.2621025
51
254.7341595
0
ARC
8
right_labelLayer
10
213.3844248
20
67.1804642
40
1.2575613
50
254.4015812
51
267.4349504
0
ARC
8
right_labelLayer
10
213.4150705
20
67.5914453
40
1.6695468
50
267.0155069
51
270.0324334
0
ARC
8
right_labelLayer
10
213.4351069
20
67.3344222
40
1.4126526
50
269.2256533
51
284.3773026
0
ARC
8
right_labelLayer
10
213.6276489
20
66.6636029
40
0.7153109
50
282.7796529
51
346.4828708
0
ARC
8
right_labelLayer
10
213.0519928
20
66.826661
40
1.3133531
50
345.436243
51
0.7465669
0
ARC
8
right_labelLayer
10
212.9710784
20
66.8637123
40
1.3942986
50
359.1806329
51
15.043158
0
ARC
8
right_labelLayer
10
213.6028609
20
67.0480096
40
0.7364662
50
13.9535587
51
77.6674047
0
ARC
8
right_labelLayer
10
213.4215963
20
66.3984384
40
1.4102851
50
76.1094737
51
90.7028428
0
ARC
8
right_labelLayer
10
213.3944641
20
66.4480519
40
1.360601
50
89.5859325
51
101.3334401
0
ARC
8
right_labelLayer
10
213.297232
20
66.911807
40
0.8867912
50
101.0620981
51
121.9739162
0
ARC
8
right_labelLayer
10
213.2288995
20
67.0347339
40
0.7463635
50
122.5211317
51
134.996635
0
ARC
8
right_labelLayer
10
213.2570319
20
67.0178805
40
0.7782136
50
135.5839722
51
163.0015679
0
ARC
8
right_labelLayer
10
213.6680022
20
66.8831815
40
1.2106393
50
162.5912844
51
175.734238
0
ARC
8
right_labelLayer
10
214.1609313
20
66.8346271
40
1.705855
50
175.3394298
51
180.0863963
0
LINE
8
right_labelLayer
10
219.9746094
20
63.9218986
11
219.3261719
21
63.9218986
0
LINE
8
right_labelLayer
10
219.3261719
20
63.9218986
11
219.3261719
21
66.6914298
0
LINE
8
right_labelLayer
10
217.0449219
20
66.1601798
11
217.0449219
21
63.9218986
0
LINE
8
right_labelLayer
10
217.0449219
20
63.9218986
11
216.3964844
21
63.9218986
0
LINE
8
right_labelLayer
10
216.3964844
20
63.9218986
11
216.3964844
21
70.0000236
0
LINE
8
right_labelLayer
10
216.3964844
20
70.0000236
11
217.0449219
21
70.0000236
0
LINE
8
right_labelLayer
10
217.0449219
20
70.0000236
11
217.0449219
21
68.1601798
0
LINE
8
right_labelLayer
10
217.0136719
20
67.6093986
11
217.0527344
21
67.6093986
0
LINE
8
right_labelLayer
10
219.9746094
20
66.7148673
11
219.9746094
21
63.9218986
0
ARC
8
right_labelLayer
10
217.4932282
20
66.7019418
40
1.8329738
50
359.6714116
51
8.6877042
0
ARC
8
right_labelLayer
10
218.1725834
20
66.809682
40
1.1451458
50
8.493155
51
22.6580103
0
ARC
8
right_labelLayer
10
218.5177375
20
66.9531169
40
0.7713754
50
22.7024983
51
42.3419424
0
ARC
8
right_labelLayer
10
218.5565379
20
66.9705721
40
0.7310594
50
43.3790736
51
71.5386351
0
ARC
8
right_labelLayer
10
218.4114556
20
66.5651752
40
1.1615728
50
71.0828095
51
84.36914
0
ARC
8
right_labelLayer
10
218.3463309
20
66.011455
40
1.7190431
50
84.0198401
51
90.1511216
0
ARC
8
right_labelLayer
10
218.3278221
20
65.7682757
40
1.9622664
50
89.5919499
51
100.3595168
0
ARC
8
right_labelLayer
10
218.1888783
20
66.4984504
40
1.2190208
50
100.1068454
51
118.084678
0
ARC
8
right_labelLayer
10
218.0475572
20
66.7757604
40
0.9078518
50
118.4551438
51
139.6706059
0
ARC
8
right_labelLayer
10
218.189434
20
66.6787856
40
1.0789182
50
140.6208301
51
160.5048649
0
ARC
8
right_labelLayer
10
218.937266
20
66.4019398
40
1.8763023
50
160.1566665
51
171.5312911
0
ARC
8
right_labelLayer
10
220.1472742
20
66.2102269
40
3.1013715
50
171.32021
51
178.3407053
0
ARC
8
right_labelLayer
10
221.2300578
20
66.1618511
40
4.1851364
50
178.1079386
51
180.0228804
0
ARC
8
right_labelLayer
10
211.2118341
20
68.1532266
40
5.8330919
50
357.8673888
51
0.0682986
0
ARC
8
right_labelLayer
10
213.1934332
20
68.0776212
40
3.8500523
50
354.9828175
51
357.8943665
0
ARC
8
right_labelLayer
10
214.5020738
20
67.9636625
40
2.5364598
50
351.9713268
51
354.9619354
0
ARC
8
right_labelLayer
10
218.1510772
20
66.9223471
40
1.2955295
50
119.8315857
51
147.9725947
0
ARC
8
right_labelLayer
10
218.307909
20
66.6814407
40
1.5826131
50
116.6657502
51
120.4184807
0
ARC
8
right_labelLayer
10
218.3372443
20
66.6044151
40
1.6646323
50
96.6652566
51
116.3782505
0
ARC
8
right_labelLayer
10
218.4003583
20
66.1689528
40
2.104512
50
89.8927714
51
96.9958816
0
ARC
8
right_labelLayer
10
218.420537
20
65.6427074
40
2.6308038
50
80.6862795
51
90.3536928
0
ARC
8
right_labelLayer
10
218.5843505
20
66.6062231
40
1.6534886
50
65.6022774
51
80.8844335
0
ARC
8
right_labelLayer
10
218.7810531
20
67.049243
40
1.168785
50
46.740139
51
65.4130354
0
ARC
8
right_labelLayer
10
218.7944245
20
67.0914599
40
1.12904
50
19.220441
51
45.7660544
0
ARC
8
right_labelLayer
10
218.1434178
20
66.8501257
40
1.8232576
50
6.4733765
51
19.6468286
0
ARC
8
right_labelLayer
10
217.1706164
20
66.7249231
40
2.8040109
50
359.794525
51
6.7743476
0
LINE
8
right_labelLayer
10
223.2753906
20
64.4570548
11
223.2753906
21
63.9609611
0
LINE
8
right_labelLayer
10
221.3535156
20
65.1523673
11
221.3535156
21
67.6992423
0
LINE
8
right_labelLayer
10
221.3535156
20
67.6992423
11
220.7402344
21
67.6992423
0
LINE
8
right_labelLayer
10
220.7402344
20
67.6992423
11
220.7402344
21
68.0117423
0
LINE
8
right_labelLayer
10
220.7402344
20
68.0117423
11
221.3535156
21
68.2812736
0
LINE
8
right_labelLayer
10
221.3535156
20
68.2812736
11
221.6269531
21
69.1953361
0
LINE
8
right_labelLayer
10
221.6269531
20
69.1953361
11
222.0019531
21
69.1953361
0
LINE
8
right_labelLayer
10
222.0019531
20
69.1953361
11
222.0019531
21
68.2031486
0
LINE
8
right_labelLayer
10
222.0019531
20
68.2031486
11
223.2441406
21
68.2031486
0
LINE
8
right_labelLayer
10
223.2441406
20
68.2031486
11
223.2441406
21
67.6992423
0
LINE
8
right_labelLayer
10
223.2441406
20
67.6992423
11
222.0019531
21
67.6992423
0
LINE
8
right_labelLayer
10
222.0019531
20
67.6992423
11
222.0019531
21
65.1797111
0
ARC
8
right_labelLayer
10
222.6939
20
66.5084819
40
2.1295567
50
269.8803566
51
278.3028372
0
ARC
8
right_labelLayer
10
222.7141243
20
66.3430507
40
1.9629428
50
278.4159963
51
279.0085155
0
ARC
8
right_labelLayer
10
222.4752752
20
67.8690386
40
3.5075086
50
278.9588861
51
280.5104532
0
ARC
8
right_labelLayer
10
222.7029165
20
66.6475816
40
2.2650206
50
280.4849063
51
282.6268378
0
ARC
8
right_labelLayer
10
222.9026901
20
65.7600593
40
1.3552933
50
282.5875512
51
285.5796631
0
ARC
8
right_labelLayer
10
223.0023554
20
65.3933638
40
0.9753063
50
285.7255298
51
286.2571101
0
ARC
8
right_labelLayer
10
223.0027803
20
64.5375442
40
0.6377809
50
287.9886345
51
295.3049279
0
ARC
8
right_labelLayer
10
222.8489458
20
65.0029584
40
1.1279561
50
283.3067989
51
288.1197714
0
ARC
8
right_labelLayer
10
222.6864313
20
65.6808377
40
1.8250419
50
280.0070141
51
283.3735776
0
ARC
8
right_labelLayer
10
222.5773375
20
66.2730538
40
2.4272096
50
279.1866352
51
280.1138398
0
ARC
8
right_labelLayer
10
222.5109504
20
66.6505907
40
2.8105078
50
275.5260029
51
279.2938973
0
ARC
8
right_labelLayer
10
222.5861596
20
65.8650304
40
2.0213561
50
270.8933044
51
275.5483315
0
ARC
8
right_labelLayer
10
222.5956118
20
65.506115
40
1.6623414
50
270.0031482
51
270.7604232
0
ARC
8
right_labelLayer
10
222.5695372
20
65.5371955
40
1.6936241
50
253.7847802
51
270.8852355
0
ARC
8
right_labelLayer
10
222.3688875
20
64.8529045
40
0.9805252
50
190.3817615
51
253.8772309
0
ARC
8
right_labelLayer
10
223.3915939
20
65.1294256
40
2.0382073
50
179.3550751
51
192.8477413
0
ARC
8
right_labelLayer
10
223.3076604
20
65.1715446
40
1.3057328
50
179.6416531
51
189.7506275
0
ARC
8
right_labelLayer
10
222.8467177
20
65.0893295
40
0.8375302
50
189.5479862
51
205.7873385
0
ARC
8
right_labelLayer
10
222.6572898
20
65.0019795
40
0.6289777
50
206.1294917
51
221.4082737
0
ARC
8
right_labelLayer
10
222.6360432
20
64.9858586
40
0.6023828
50
221.5948847
51
262.3505124
0
ARC
8
right_labelLayer
10
222.686558
20
65.2456305
40
0.8667053
50
261.3266934
51
270.1913888
0
LINE
8
bottom_outsideCutPath
10
326
20
207
11
326
21
189.5
0
LINE
8
bottom_outsideCutPath
10
326
20
189.5
11
322
21
189.5
0
LINE
8
bottom_outsideCutPath
10
322
20
189.5
11
322
21
174.5
0
LINE
8
bottom_outsideCutPath
10
322
20
174.5
11
326
21
174.5
0
LINE
8
bottom_outsideCutPath
10
326
20
174.5
11
326
21
159.5
0
LINE
8
bottom_outsideCutPath
10
326
20
159.5
11
322
21
159.5
0
LINE
8
bottom_outsideCutPath
10
322
20
159.5
11
322
21
144.5
0
LINE
8
bottom_outsideCutPath
10
322
20
144.5
11
326
21
144.5
0
LINE
8
bottom_outsideCutPath
10
326
20
144.5
11
326
21
129.5
0
LINE
8
bottom_outsideCutPath
10
326
20
129.5
11
322
21
129.5
0
LINE
8
bottom_outsideCutPath
10
322
20
129.5
11
322
21
114.5
0
LINE
8
bottom_outsideCutPath
10
322
20
114.5
11
326
21
114.5
0
LINE
8
bottom_outsideCutPath
10
326
20
114.5
11
326
21
99.5
0
LINE
8
bottom_outsideCutPath
10
326
20
99.5
11
322
21
99.5
0
LINE
8
bottom_outsideCutPath
10
322
20
99.5
11
322
21
84.5
0
LINE
8
bottom_outsideCutPath
10
322
20
84.5
11
326
21
84.5
0
LINE
8
bottom_outsideCutPath
10
326
20
84.5
11
326
21
69.5
0
LINE
8
bottom_outsideCutPath
10
326
20
69.5
11
322
21
69.5
0
LINE
8
bottom_outsideCutPath
10
322
20
69.5
11
322
21
54.5
0
LINE
8
bottom_outsideCutPath
10
322
20
54.5
11
326
21
54.5
0
LINE
8
bottom_outsideCutPath
10
326
20
54.5
11
326
21
39.5
0
LINE
8
bottom_outsideCutPath
10
326
20
39.5
11
322
21
39.5
0
LINE
8
bottom_outsideCutPath
10
322
20
39.5
11
322
21
24.5
0
LINE
8
bottom_outsideCutPath
10
322
20
24.5
11
326
21
24.5
0
LINE
8
bottom_outsideCutPath
10
326
20
24.5
11
326
21
9.5
0
LINE
8
bottom_outsideCutPath
10
326
20
9.5
11
326
21
7
0
LINE
8
bottom_outsideCutPath
10
326
20
7
11
338.5
21
7
0
LINE
8
bottom_outsideCutPath
10
338.5
20
7
11
338.5
21
3
0
LINE
8
bottom_outsideCutPath
10
338.5
20
3
11
353.5
21
3
0
LINE
8
bottom_outsideCutPath
10
353.5
20
3
11
353.5
21
7
0
LINE
8
bottom_outsideCutPath
10
353.5
20
7
11
368.5
21
7
0
LINE
8
bottom_outsideCutPath
10
368.5
20
7
11
368.5
21
3
0
LINE
8
bottom_outsideCutPath
10
368.5
20
3
11
383.5
21
3
0
LINE
8
bottom_outsideCutPath
10
383.5
20
3
11
383.5
21
7
0
LINE
8
bottom_outsideCutPath
10
383.5
20
7
11
398.5
21
7
0
LINE
8
bottom_outsideCutPath
10
398.5
20
7
11
398.5
21
3
0
LINE
8
bottom_outsideCutPath
10
398.5
20
3
11
413.5
21
3
0
LINE
8
bottom_outsideCutPath
10
413.5
20
3
11
413.5
21
7
0
LINE
8
bottom_outsideCutPath
10
413.5
20
7
11
426
21
7
0
LINE
8
bottom_outsideCutPath
10
426
20
7
11
426
21
24.5
0
LINE
8
bottom_outsideCutPath
10
426
20
24.5
11
430
21
24.5
0
LINE
8
bottom_outsideCutPath
10
430
20
24.5
11
430
21
39.5
0
LINE
8
bottom_outsideCutPath
10
430
20
39.5
11
426
21
39.5
0
LINE
8
bottom_outsideCutPath
10
426
20
39.5
11
426
21
54.5
0
LINE
8
bottom_outsideCutPath
10
426
20
54.5
11
430
21
54.5
0
LINE
8
bottom_outsideCutPath
10
430
20
54.5
11
430
21
69.5
0
LINE
8
bottom_outsideCutPath
10
430
20
69.5
11
426
21
69.5
0
LINE
8
bottom_outsideCutPath
10
426
20
69.5
11
426
21
84.5
0
LINE
8
bottom_outsideCutPath
10
426
20
84.5
11
430
21
84.5
0
LINE
8
bottom_outsideCutPath
10
430
20
84.5
11
430
21
99.5
0
LINE
8
bottom_outsideCutPath
10
430
20
99.5
11
426
21
99.5
0
LINE
8
bottom_outsideCutPath
10
426
20
99.5
11
426
21
114.5
0
LINE
8
bottom_outsideCutPath
10
426
20
114.5
11
430
21
114.5
0
LINE
8
bottom_outsideCutPath
10
430
20
114.5
11
430
21
129.5
0
LINE
8
bottom_outsideCutPath
10
430
20
129.5
11
426
21
129.5
0
LINE
8
bottom_outsideCutPath
10
426
20
129.5
11
426
21
144.5
0
LINE
8
bottom_outsideCutPath
10
426
20
144.5
11
430
21
144.5
0
LINE
8
bottom_outsideCutPath
10
430
20
144.5
11
430
21
159.5
0
LINE
8
bottom_outsideCutPath
10
430
20
159.5
11
426
21
159.5
0
LINE
8
bottom_outsideCutPath
10
426
20
159.5
11
426
21
174.5
0
LINE
8
bottom_outsideCutPath
10
426
20
174.5
11
430
21
174.5
0
LINE
8
bottom_outsideCutPath
10
430
20
174.5
11
430
21
189.5
0
LINE
8
bottom_outsideCutPath
10
430
20
189.5
11
426
21
189.5
0
LINE
8
bottom_outsideCutPath
10
426
20
189.5
11
426
21
204.5
0
LINE
8
bottom_outsideCutPath
10
426
20
204.5
11
426
21
207
0
LINE
8
bottom_outsideCutPath
10
426
20
207
11
413.5
21
207
0
LINE
8
bottom_outsideCutPath
10
413.5
20
207
11
413.5
21
211
0
LINE
8
bottom_outsideCutPath
10
413.5
20
211
11
398.5
21
211
0
LINE
8
bottom_outsideCutPath
10
398.5
20
211
11
398.5
21
207
0
LINE
8
bottom_outsideCutPath
10
398.5
20
207
11
383.5
21
207
0
LINE
8
bottom_outsideCutPath
10
383.5
20
207
11
383.5
21
211
0
LINE
8
bottom_outsideCutPath
10
383.5
20
211
11
368.5
21
211
0
LINE
8
bottom_outsideCutPath
10
368.5
20
211
11
368.5
21
207
0
LINE
8
bottom_outsideCutPath
10
368.5
20
207
11
353.5
21
207
0
LINE
8
bottom_outsideCutPath
10
353.5
20
207
11
353.5
21
211
0
LINE
8
bottom_outsideCutPath
10
353.5
20
211
11
338.5
21
211
0
LINE
8
bottom_outsideCutPath
10
338.5
20
211
11
338.5
21
207
0
LINE
8
bottom_outsideCutPath
10
338.5
20
207
11
326
21
207
0
LINE
8
bottom_labelLayer
10
342.2183081
20
100.3873823
11
342.0917456
21
100.3873823
0
LINE
8
bottom_labelLayer
10
342.0917456
20
100.3873823
11
341.722605
21
98.9002729
0
LINE
8
bottom_labelLayer
10
341.722605
20
98.9002729
11
340.4675269
21
98.9002729
0
LINE
8
bottom_labelLayer
10
340.4675269
20
98.9002729
11
340.4675269
21
115.3112104
0
LINE
8
bottom_labelLayer
10
340.4675269
20
115.3112104
11
342.2183081
21
115.3112104
0
LINE
8
bottom_labelLayer
10
342.2183081
20
115.3112104
11
342.2183081
21
111.3244916
0
LINE
8
bottom_labelLayer
10
342.1339331
20
108.9198041
11
342.2183081
21
108.9198041
0
ARC
8
bottom_labelLayer
10
345.8989549
20
105.2987585
40
5.3509909
50
74.2393263
51
90.5623862
0
ARC
8
bottom_labelLayer
10
346.2527802
20
106.5967797
40
4.0056814
50
38.5631301
51
74.0670379
0
ARC
8
bottom_labelLayer
10
345.3422268
20
105.8887719
40
5.1590374
50
16.4709269
51
38.4075258
0
ARC
8
bottom_labelLayer
10
342.7190591
20
105.0662237
40
7.9079045
50
5.1338419
51
16.7973353
0
ARC
8
bottom_labelLayer
10
339.4075803
20
104.7144517
40
11.2377065
50
359.8779187
51
5.4093736
0
ARC
8
bottom_labelLayer
10
340.3801951
20
104.629945
40
10.2652448
50
350.6562875
51
0.3380323
0
ARC
8
bottom_labelLayer
10
343.958833
20
104.0212589
40
6.6352924
50
335.8305931
51
350.8254855
0
ARC
8
bottom_labelLayer
10
345.5330067
20
103.341823
40
4.9209888
50
321.3161447
51
335.5436164
0
ARC
8
bottom_labelLayer
10
346.1348235
20
102.8514335
40
4.1447074
50
274.0640089
51
321.4081029
0
ARC
8
bottom_labelLayer
10
345.8544574
20
104.6273536
40
5.9380237
50
269.9225742
51
275.5481865
0
ARC
8
bottom_labelLayer
10
345.8169094
20
103.9997577
40
5.3105043
50
255.7755457
51
270.3185374
0
ARC
8
bottom_labelLayer
10
345.6653658
20
103.3264566
40
4.6206461
50
245.9801727
51
255.545564
0
ARC
8
bottom_labelLayer
10
345.3718308
20
102.6438361
40
3.8776654
50
215.585022
51
245.8361621
0
ARC
8
bottom_labelLayer
10
305.7159032
20
111.2936326
40
36.502418
50
358.1123206
51
0.0484378
0
ARC
8
bottom_labelLayer
10
315.8747492
20
110.9525787
40
26.3378513
50
355.7238801
51
358.1258817
0
ARC
8
bottom_labelLayer
10
320.3429672
20
110.6456737
40
21.8592045
50
355.4715614
51
355.6528119
0
ARC
8
bottom_labelLayer
10
345.483439
20
106.6429403
40
3.9806015
50
95.1835148
51
145.1108956
0
ARC
8
bottom_labelLayer
10
345.8333185
20
104.6699572
40
5.979549
50
89.8743358
51
96.8145594
0
ARC
8
bottom_labelLayer
10
345.5566536
20
104.2637761
40
4.9198365
50
89.5731224
51
100.7324269
0
ARC
8
bottom_labelLayer
10
345.1924487
20
106.103863
40
3.0441517
50
100.446937
51
119.6700712
0
ARC
8
bottom_labelLayer
10
344.8547197
20
106.7352868
40
2.3284145
50
120.140283
51
142.4249029
0
ARC
8
bottom_labelLayer
10
345.4134618
20
106.3656604
40
2.9970274
50
143.3382279
51
161.2560044
0
ARC
8
bottom_labelLayer
10
347.7500287
20
105.5361014
40
5.4763525
50
160.8926487
51
171.2334369
0
ARC
8
bottom_labelLayer
10
351.6506635
20
104.9068369
40
9.4273638
50
171.0667836
51
177.845677
0
ARC
8
bottom_labelLayer
10
355.7072346
20
104.7005165
40
13.4889304
50
177.6176503
51
180.0425154
0
ARC
8
bottom_labelLayer
10
353.7942646
20
104.6453067
40
11.5760447
50
179.7762788
51
185.7075254
0
ARC
8
bottom_labelLayer
10
349.2302584
20
104.1750545
40
6.9879119
50
185.5925014
51
194.2050503
0
ARC
8
bottom_labelLayer
10
346.3065623
20
103.4162557
40
3.9674492
50
193.9430313
51
208.0218551
0
ARC
8
bottom_labelLayer
10
345.1236407
20
102.8144696
40
2.640593
50
208.5536522
51
217.5605569
0
ARC
8
bottom_labelLayer
10
345.0272704
20
102.774387
40
2.5399084
50
218.1690424
51
253.8047213
0
ARC
8
bottom_labelLayer
10
345.498375
20
104.2268486
40
4.0664032
50
253.138238
51
266.8483076
0
ARC
8
bottom_labelLayer
10
345.6304767
20
105.7846646
40
5.6293159
50
266.3775267
51
270.0510828
0
ARC
8
bottom_labelLayer
10
345.6728424
20
103.6453175
40
3.4901663
50
269.3868906
51
285.8630609
0
ARC
8
bottom_labelLayer
10
345.9321392
20
102.7081815
40
2.5178516
50
286.0162936
51
326.8497242
0
ARC
8
bottom_labelLayer
10
344.6806323
20
103.5372578
40
4.0190434
50
326.7105111
51
343.6661668
0
ARC
8
bottom_labelLayer
10
342.3378944
20
104.253122
40
6.468613
50
343.4171352
51
353.6369097
0
ARC
8
bottom_labelLayer
10
338.7994246
20
104.6729844
40
10.0318484
50
353.4934864
51
0.2205548
0
ARC
8
bottom_labelLayer
10
338.4875519
20
104.7534715
40
10.3437316
50
359.768071
51
6.3095373
0
ARC
8
bottom_labelLayer
10
342.3838124
20
105.2005946
40
6.4219538
50
6.1648548
51
16.0396483
0
ARC
8
bottom_labelLayer
10
344.8937297
20
105.9402675
40
3.805412
50
15.7779444
51
32.0151383
0
ARC
8
bottom_labelLayer
10
345.6762611
20
106.3883812
40
2.9045426
50
32.7034945
51
35.5241501
0
ARC
8
bottom_labelLayer
10
345.9626705
20
106.5919434
40
2.5531635
50
35.54084
51
79.8011219
0
ARC
8
bottom_labelLayer
10
345.6198077
20
105.134364
40
4.0491986
50
78.6781389
51
90.3749696
0
ARC
8
bottom_labelLayer
10
354.6379065
20
104.6295403
40
9.0434978
50
349.1761862
51
0.3862637
0
ARC
8
bottom_labelLayer
10
357.6826376
20
104.0225663
40
5.9390015
50
330.2507009
51
349.4116481
0
ARC
8
bottom_labelLayer
10
358.619651
20
103.5355425
40
4.8839994
50
318.143979
51
329.7566284
0
ARC
8
bottom_labelLayer
10
358.7887683
20
103.4000125
40
4.6676179
50
278.8959192
51
317.9979119
0
ARC
8
bottom_labelLayer
10
358.3530171
20
105.4877235
40
6.7984527
50
269.750277
51
279.8033399
0
ARC
8
bottom_labelLayer
10
358.2823461
20
104.3114397
40
5.6222541
50
253.5437001
51
270.4182392
0
ARC
8
bottom_labelLayer
10
358.0951903
20
103.5874745
40
4.8749943
50
238.8115454
51
253.2428391
0
ARC
8
bottom_labelLayer
10
358.0347916
20
103.4660132
40
4.7398236
50
207.7947053
51
238.6757947
0
ARC
8
bottom_labelLayer
10
358.9016443
20
103.9969043
40
5.7545913
50
205.6560576
51
208.4460888
0
ARC
8
bottom_labelLayer
10
359.5690884
20
104.274991
40
6.4767476
50
188.9102536
51
205.3171343
0
ARC
8
bottom_labelLayer
10
361.818895
20
104.6560331
40
8.7584672
50
179.7744776
51
189.093276
0
ARC
8
bottom_labelLayer
10
362.1507561
20
104.7520786
40
9.0904689
50
169.2442972
51
180.3880774
0
ARC
8
bottom_labelLayer
10
359.0637053
20
105.3622767
40
5.9438216
50
150.7111548
51
169.469545
0
ARC
8
bottom_labelLayer
10
358.0782245
20
105.8683566
40
4.8369109
50
138.1759559
51
150.2287432
0
ARC
8
bottom_labelLayer
10
357.9142928
20
105.9941545
40
4.6308879
50
99.1759301
51
137.9832781
0
ARC
8
bottom_labelLayer
10
358.3654847
20
103.8708
40
6.7998597
50
89.7326441
51
100.0759872
0
ARC
8
bottom_labelLayer
10
358.4556602
20
104.7878045
40
5.8830712
50
73.5222735
51
90.5692183
0
ARC
8
bottom_labelLayer
10
358.8006682
20
106.0413096
40
4.5832553
50
41.1445637
51
73.2133844
0
ARC
8
bottom_labelLayer
10
358.1420783
20
105.47526
40
5.4516509
50
13.5014312
51
41.0703442
0
ARC
8
bottom_labelLayer
10
355.5976129
20
104.8094073
40
8.0814305
50
1.1277279
51
13.88
0
ARC
8
bottom_labelLayer
10
353.4059509
20
104.6919599
40
10.2752479
50
359.9919002
51
1.5419795
0
ARC
8
bottom_labelLayer
10
363.7403534
20
104.6450083
40
8.865912
50
179.7059625
51
187.9160872
0
ARC
8
bottom_labelLayer
10
360.4886063
20
104.1778954
40
5.5808391
50
187.7639118
51
200.0977026
0
ARC
8
bottom_labelLayer
10
358.6972534
20
103.5215411
40
3.6730275
50
200.0846105
51
216.9131443
0
ARC
8
bottom_labelLayer
10
358.0430999
20
103.0544459
40
2.8695278
50
217.3009554
51
261.7099108
0
ARC
8
bottom_labelLayer
10
358.346776
20
104.5035537
40
4.3482433
50
260.5033144
51
270.2476943
0
ARC
8
bottom_labelLayer
10
358.4047409
20
104.2217704
40
4.066608
50
269.4481528
51
284.725586
0
ARC
8
bottom_labelLayer
10
358.72667
20
103.0278441
40
2.8300769
50
284.5662314
51
322.6333769
0
ARC
8
bottom_labelLayer
10
357.9739779
20
103.5716295
40
3.7584037
50
323.0089361
51
342.6390386
0
ARC
8
bottom_labelLayer
10
355.8211237
20
104.2752426
40
6.0232044
50
342.3615781
51
353.7537537
0
ARC
8
bottom_labelLayer
10
352.6449659
20
104.6580857
40
9.2222272
50
353.5363126
51
0.2014288
0
ARC
8
bottom_labelLayer
10
353.1316034
20
104.7350935
40
8.7356467
50
359.7075642
51
7.89728
0
ARC
8
bottom_labelLayer
10
356.3308436
20
105.1937366
40
5.5037514
50
7.743982
51
20.0690304
0
ARC
8
bottom_labelLayer
10
358.1135781
20
105.8479346
40
3.6047765
50
20.0257004
51
37.4350483
0
ARC
8
bottom_labelLayer
10
358.7050777
20
106.2676531
40
2.8800894
50
37.9577732
51
80.4006162
0
ARC
8
bottom_labelLayer
10
358.3689475
20
104.7678665
40
4.4156772
50
79.3453601
51
90.3174809
0
ARC
8
bottom_labelLayer
10
358.3067078
20
105.0169908
40
4.1666565
50
89.4805865
51
103.8804937
0
ARC
8
bottom_labelLayer
10
357.9566019
20
106.3501966
40
2.788465
50
103.4685274
51
142.3118942
0
ARC
8
bottom_labelLayer
10
358.6372355
20
105.8715265
40
3.6199183
50
142.9025741
51
162.3749713
0
ARC
8
bottom_labelLayer
10
360.7819164
20
105.1568156
40
5.8804153
50
162.0653083
51
173.1674872
0
ARC
8
bottom_labelLayer
10
364.1260553
20
104.7302909
40
9.2515826
50
173.008622
51
180.246384
0
LINE
8
bottom_labelLayer
10
372.0659644
20
100.3451948
11
372.0659644
21
99.0057416
0
LINE
8
bottom_labelLayer
10
366.8769019
20
102.2225385
11
366.8769019
21
109.099101
0
LINE
8
bottom_labelLayer
10
366.8769019
20
109.099101
11
365.2210425
21
109.099101
0
LINE
8
bottom_labelLayer
10
365.2210425
20
109.099101
11
365.2210425
21
109.942851
0
LINE
8
bottom_labelLayer
10
365.2210425
20
109.942851
11
366.8769019
21
110.6705854
0
LINE
8
bottom_labelLayer
10
366.8769019
20
110.6705854
11
367.6151831
21
113.1385541
0
LINE
8
bottom_labelLayer
10
367.6151831
20
113.1385541
11
368.6276831
21
113.1385541
0
LINE
8
bottom_labelLayer
10
368.6276831
20
113.1385541
11
368.6276831
21
110.4596479
0
LINE
8
bottom_labelLayer
10
368.6276831
20
110.4596479
11
371.9815894
21
110.4596479
0
LINE
8
bottom_labelLayer
10
371.9815894
20
110.4596479
11
371.9815894
21
109.099101
0
LINE
8
bottom_labelLayer
10
371.9815894
20
109.099101
11
368.6276831
21
109.099101
0
LINE
8
bottom_labelLayer
10
368.6276831
20
109.099101
11
368.6276831
21
102.2963666
0
ARC
8
bottom_labelLayer
10
370.4959411
20
105.8840503
40
5.7498055
50
269.8803425
51
278.3028197
0
ARC
8
bottom_labelLayer
10
370.5512319
20
105.4331454
40
5.2956526
50
278.4153594
51
279.0083589
0
ARC
8
bottom_labelLayer
10
369.9056034
20
109.5578155
40
9.4705421
50
278.9589315
51
280.5104545
0
ARC
8
bottom_labelLayer
10
370.5203275
20
106.2594537
40
6.1153871
50
280.4847871
51
282.6267776
0
ARC
8
bottom_labelLayer
10
371.0595622
20
103.8637498
40
3.6597484
50
282.5877343
51
285.5794729
0
ARC
8
bottom_labelLayer
10
371.3293263
20
102.8714765
40
2.6314891
50
285.7241975
51
286.2561491
0
ARC
8
bottom_labelLayer
10
371.329883
20
100.5625972
40
1.7220961
50
287.9888661
51
295.3047867
0
ARC
8
bottom_labelLayer
10
370.9145317
20
101.8192334
40
3.0455854
50
283.3069533
51
288.1197618
0
ARC
8
bottom_labelLayer
10
370.4757468
20
103.64955
40
4.9277572
50
280.0070416
51
283.3735066
0
ARC
8
bottom_labelLayer
10
370.1821818
20
105.2427606
40
6.5477532
50
279.1862022
51
280.1142158
0
ARC
8
bottom_labelLayer
10
370.0019895
20
106.2676014
40
7.5882304
50
275.526001
51
279.2939654
0
ARC
8
bottom_labelLayer
10
370.2050449
20
104.1466252
40
5.4575579
50
270.893278
51
275.5483935
0
ARC
8
bottom_labelLayer
10
370.2305614
20
103.1785929
40
4.4892574
50
270.0031487
51
270.7602659
0
ARC
8
bottom_labelLayer
10
370.1601593
20
103.2615767
40
4.5727871
50
253.784798
51
270.8852461
0
ARC
8
bottom_labelLayer
10
369.6184054
20
101.413989
40
2.6474181
50
190.3817662
51
253.8772409
0
ARC
8
bottom_labelLayer
10
372.3797079
20
102.160597
40
5.5031546
50
179.355086
51
192.8477651
0
ARC
8
bottom_labelLayer
10
372.1531054
20
102.2743173
40
3.5254913
50
179.6416545
51
189.7505927
0
ARC
8
bottom_labelLayer
10
370.9085384
20
102.0523329
40
2.2613218
50
189.5479403
51
205.787363
0
ARC
8
bottom_labelLayer
10
370.3970758
20
101.816482
40
1.6982208
50
206.1294487
51
221.4084004
0
ARC
8
bottom_labelLayer
10
370.3397267
20
101.7729665
40
1.6264347
50
221.5949249
51
262.3505136
0
ARC
8
bottom_labelLayer
10
370.4761182
20
102.4743392
40
2.3400949
50
261.3266107
51
270.1913432
0
LINE
8
bottom_labelLayer
10
379.691355
20
100.3451948
11
379.691355
21
99.0057416
0
LINE
8
bottom_labelLayer
10
374.5022925
20
102.2225385
11
374.5022925
21
109.099101
0
LINE
8
bottom_labelLayer
10
374.5022925
20
109.099101
11
372.8464331
21
109.099101
0
LINE
8
bottom_labelLayer
10
372.8464331
20
109.099101
11
372.8464331
21
109.942851
0
LINE
8
bottom_labelLayer
10
372.8464331
20
109.942851
11
374.5022925
21
110.6705854
0
LINE
8
bottom_labelLayer
10
374.5022925
20
110.6705854
11
375.2405738
21
113.1385541
0
LINE
8
bottom_labelLayer
10
375.2405738
20
113.1385541
11
376.2530738
21
113.1385541
0
LINE
8
bottom_labelLayer
10
376.2530738
20
113.1385541
11
376.2530738
21
110.4596479
0
LINE
8
bottom_labelLayer
10
376.2530738
20
110.4596479
11
379.60698
21
110.4596479
0
LINE
8
bottom_labelLayer
10
379.60698
20
110.4596479
11
379.60698
21
109.099101
0
LINE
8
bottom_labelLayer
10
379.60698
20
109.099101
11
376.2530738
21
109.099101
0
LINE
8
bottom_labelLayer
10
376.2530738
20
109.099101
11
376.2530738
21
102.2963666
0
ARC
8
bottom_labelLayer
10
378.1213317
20
105.8840503
40
5.7498055
50
269.8803425
51
278.3028197
0
ARC
8
bottom_labelLayer
10
378.1766225
20
105.4331454
40
5.2956526
50
278.4153594
51
279.0083589
0
ARC
8
bottom_labelLayer
10
377.5309941
20
109.5578155
40
9.4705421
50
278.9589315
51
280.5104545
0
ARC
8
bottom_labelLayer
10
378.1457181
20
106.2594537
40
6.1153871
50
280.4847871
51
282.6267776
0
ARC
8
bottom_labelLayer
10
378.6849528
20
103.8637498
40
3.6597484
50
282.5877343
51
285.5794729
0
ARC
8
bottom_labelLayer
10
378.9547169
20
102.8714765
40
2.6314891
50
285.7241975
51
286.2561491
0
ARC
8
bottom_labelLayer
10
378.9552736
20
100.5625972
40
1.7220961
50
287.9888661
51
295.3047867
0
ARC
8
bottom_labelLayer
10
378.5399223
20
101.8192334
40
3.0455854
50
283.3069533
51
288.1197618
0
ARC
8
bottom_labelLayer
10
378.1011374
20
103.64955
40
4.9277572
50
280.0070416
51
283.3735066
0
ARC
8
bottom_labelLayer
10
377.8075724
20
105.2427606
40
6.5477532
50
279.1862022
51
280.1142158
0
ARC
8
bottom_labelLayer
10
377.6273802
20
106.2676014
40
7.5882304
50
275.526001
51
279.2939654
0
ARC
8
bottom_labelLayer
10
377.8304355
20
104.1466252
40
5.4575579
50
270.893278
51
275.5483935
0
ARC
8
bottom_labelLayer
10
377.855952
20
103.1785929
40
4.4892574
50
270.0031487
51
270.7602659
0
ARC
8
bottom_labelLayer
10
377.7855499
20
103.2615767
40
4.5727871
50
253.784798
51
270.8852461
0
ARC
8
bottom_labelLayer
10
377.243796
20
101.413989
40
2.6474181
50
190.3817662
51
253.8772409
0
ARC
8
bottom_labelLayer
10
380.0050985
20
102.160597
40
5.5031546
50
179.355086
51
192.8477651
0
ARC
8
bottom_labelLayer
10
379.7784961
20
102.2743173
40
3.5254913
50
179.6416545
51
189.7505927
0
ARC
8
bottom_labelLayer
10
378.533929
20
102.0523329
40
2.2613218
50
189.5479403
51
205.787363
0
ARC
8
bottom_labelLayer
10
378.0224665
20
101.816482
40
1.6982208
50
206.1294487
51
221.4084004
0
ARC
8
bottom_labelLayer
10
377.9651173
20
101.7729665
40
1.6264347
50
221.5949249
51
262.3505136
0
ARC
8
bottom_labelLayer
10
378.1015089
20
102.4743392
40
2.3400949
50
261.3266107
51
270.1913432
0
ARC
8
bottom_labelLayer
10
382.9351721
20
104.6295403
40
9.0434978
50
349.1761862
51
0.3862637
0
ARC
8
bottom_labelLayer
10
385.9799032
20
104.0225663
40
5.9390015
50
330.2507009
51
349.4116481
0
ARC
8
bottom_labelLayer
10
386.9169167
20
103.5355425
40
4.8839994
50
318.143979
51
329.7566284
0
ARC
8
bottom_labelLayer
10
387.086034
20
103.4000125
40
4.6676179
50
278.8959192
51
317.9979119
0
ARC
8
bottom_labelLayer
10
386.6502828
20
105.4877235
40
6.7984527
50
269.750277
51
279.8033399
0
ARC
8
bottom_labelLayer
10
386.5796118
20
104.3114397
40
5.6222541
50
253.5437001
51
270.4182392
0
ARC
8
bottom_labelLayer
10
386.392456
20
103.5874745
40
4.8749943
50
238.8115454
51
253.2428391
0
ARC
8
bottom_labelLayer
10
386.3320572
20
103.4660132
40
4.7398236
50
207.7947053
51
238.6757947
0
ARC
8
bottom_labelLayer
10
387.1989099
20
103.9969043
40
5.7545913
50
205.6560576
51
208.4460888
0
ARC
8
bottom_labelLayer
10
387.866354
20
104.274991
40
6.4767476
50
188.9102536
51
205.3171343
0
ARC
8
bottom_labelLayer
10
390.1161607
20
104.6560331
40
8.7584672
50
179.7744776
51
189.093276
0
ARC
8
bottom_labelLayer
10
390.4480217
20
104.7520786
40
9.0904689
50
169.2442972
51
180.3880774
0
ARC
8
bottom_labelLayer
10
387.3609709
20
105.3622767
40
5.9438216
50
150.7111548
51
169.469545
0
ARC
8
bottom_labelLayer
10
386.3754901
20
105.8683566
40
4.8369109
50
138.1759559
51
150.2287432
0
ARC
8
bottom_labelLayer
10
386.2115584
20
105.9941545
40
4.6308879
50
99.1759301
51
137.9832781
0
ARC
8
bottom_labelLayer
10
386.6627503
20
103.8708
40
6.7998597
50
89.7326441
51
100.0759872
0
ARC
8
bottom_labelLayer
10
386.7529258
20
104.7878045
40
5.8830712
50
73.5222735
51
90.5692183
0
ARC
8
bottom_labelLayer
10
387.0979339
20
106.0413096
40
4.5832553
50
41.1445637
51
73.2133844
0
ARC
8
bottom_labelLayer
10
386.4393439
20
105.47526
40
5.4516509
50
13.5014312
51
41.0703442
0
ARC
8
bottom_labelLayer
10
383.8948785
20
104.8094073
40
8.0814305
50
1.1277279
51
13.88
0
ARC
8
bottom_labelLayer
10
381.7032166
20
104.6919599
40
10.2752479
50
359.9919002
51
1.5419795
0
ARC
8
bottom_labelLayer
10
392.037619
20
104.6450083
40
8.865912
50
179.7059625
51
187.9160872
0
ARC
8
bottom_labelLayer
10
388.7858719
20
104.1778954
40
5.5808391
50
187.7639118
51
200.0977026
0
ARC
8
bottom_labelLayer
10
386.994519
20
103.5215411
40
3.6730275
50
200.0846105
51
216.9131443
0
ARC
8
bottom_labelLayer
10
386.3403655
20
103.0544459
40
2.8695278
50
217.3009554
51
261.7099108
0
ARC
8
bottom_labelLayer
10
386.6440416
20
104.5035537
40
4.3482433
50
260.5033144
51
270.2476943
0
ARC
8
bottom_labelLayer
10
386.7020065
20
104.2217704
40
4.066608
50
269.4481528
51
284.725586
0
ARC
8
bottom_labelLayer
10
387.0239356
20
103.0278441
40
2.8300769
50
284.5662314
51
322.6333769
0
ARC
8
bottom_labelLayer
10
386.2712436
20
103.5716295
40
3.7584037
50
323.0089361
51
342.6390386
0
ARC
8
bottom_labelLayer
10
384.1183893
20
104.2752426
40
6.0232044
50
342.3615781
51
353.7537537
0
ARC
8
bottom_labelLayer
10
380.9422315
20
104.6580857
40
9.2222272
50
353.5363126
51
0.2014288
0
ARC
8
bottom_labelLayer
10
381.428869
20
104.7350935
40
8.7356467
50
359.7075642
51
7.89728
0
ARC
8
bottom_labelLayer
10
384.6281093
20
105.1937366
40
5.5037514
50
7.743982
51
20.0690304
0
ARC
8
bottom_labelLayer
10
386.4108437
20
105.8479346
40
3.6047765
50
20.0257004
51
37.4350483
0
ARC
8
bottom_labelLayer
10
387.0023433
20
106.2676531
40
2.8800894
50
37.9577732
51
80.4006162
0
ARC
8
bottom_labelLayer
10
386.6662132
20
104.7678665
40
4.4156772
50
79.3453601
51
90.3174809
0
ARC
8
bottom_labelLayer
10
386.6039734
20
105.0169908
40
4.1666565
50
89.4805865
51
103.8804937
0
ARC
8
bottom_labelLayer
10
386.2538675
20
106.3501966
40
2.788465
50
103.4685274
51
142.3118942
0
ARC
8
bottom_labelLayer
10
386.9345012
20
105.8715265
40
3.6199183
50
142.9025741
51
162.3749713
0
ARC
8
bottom_labelLayer
10
389.079182
20
105.1568156
40
5.8804153
50
162.0653083
51
173.1674872
0
ARC
8
bottom_labelLayer
10
392.4233209
20
104.7302909
40
9.2515826
50
173.008622
51
180.246384
0
LINE
8
bottom_labelLayer
10
411.5323706
20
98.9002729
11
409.7815894
21
98.9002729
0
LINE
8
bottom_labelLayer
10
409.7815894
20
98.9002729
11
409.7815894
21
106.4201948
0
LINE
8
bottom_labelLayer
10
404.160105
20
105.3549604
11
404.160105
21
98.9002729
0
LINE
8
bottom_labelLayer
10
404.160105
20
98.9002729
11
402.4093238
21
98.9002729
0
LINE
8
bottom_labelLayer
10
402.4093238
20
98.9002729
11
402.4093238
21
106.4201948
0
LINE
8
bottom_labelLayer
10
396.7983863
20
104.964726
11
396.7983863
21
98.9002729
0
LINE
8
bottom_labelLayer
10
396.7983863
20
98.9002729
11
395.047605
21
98.9002729
0
LINE
8
bottom_labelLayer
10
395.047605
20
98.9002729
11
395.047605
21
110.4596479
0
LINE
8
bottom_labelLayer
10
395.047605
20
110.4596479
11
396.4714331
21
110.4596479
0
LINE
8
bottom_labelLayer
10
396.4714331
20
110.4596479
11
396.7561988
21
108.8776166
0
LINE
8
bottom_labelLayer
10
396.7561988
20
108.8776166
11
396.8405738
21
108.8776166
0
LINE
8
bottom_labelLayer
10
403.8015113
20
108.7088666
11
403.8858863
21
108.7088666
0
LINE
8
bottom_labelLayer
10
411.5323706
20
106.4412885
11
411.5323706
21
98.9002729
0
ARC
8
bottom_labelLayer
10
404.6167404
20
106.4477054
40
5.1649223
50
359.694816
51
8.1471678
0
ARC
8
bottom_labelLayer
10
406.5191453
20
106.7292432
40
3.241832
50
7.9864282
51
20.794988
0
ARC
8
bottom_labelLayer
10
407.5707306
20
107.132069
40
2.1157396
50
20.7071085
51
40.0217652
0
ARC
8
bottom_labelLayer
10
407.8014268
20
107.2830108
40
1.8422963
50
41.0407997
51
73.1792688
0
ARC
8
bottom_labelLayer
10
407.4676109
20
106.2733835
40
2.9054544
50
72.6395331
51
86.2568234
0
ARC
8
bottom_labelLayer
10
407.3606715
20
105.1194518
40
4.0640271
50
85.8144493
51
90.0685655
0
ARC
8
bottom_labelLayer
10
407.3213794
20
104.6785732
40
4.5050344
50
89.5621253
51
101.2961645
0
ARC
8
bottom_labelLayer
10
406.9820751
20
106.3029423
40
2.8457069
50
101.0032326
51
121.7840525
0
ARC
8
bottom_labelLayer
10
406.7241193
20
106.7634666
40
2.3184899
50
122.3597255
51
140.2884107
0
ARC
8
bottom_labelLayer
10
407.1882111
20
106.4231794
40
2.8931282
50
140.9765459
51
161.1699535
0
ARC
8
bottom_labelLayer
10
408.9365414
20
105.800988
40
4.7487717
50
160.8731794
51
172.5272525
0
ARC
8
bottom_labelLayer
10
411.8579729
20
105.3975167
40
7.6978906
50
172.3776546
51
180.182953
0
ARC
8
bottom_labelLayer
10
413.9998472
20
105.3548618
40
9.8397421
50
179.8947539
51
179.999426
0
ARC
8
bottom_labelLayer
10
397.2444748
20
106.4477054
40
5.1649223
50
359.694816
51
8.1471678
0
ARC
8
bottom_labelLayer
10
399.1468797
20
106.7292432
40
3.241832
50
7.9864282
51
20.794988
0
ARC
8
bottom_labelLayer
10
400.198465
20
107.132069
40
2.1157396
50
20.7071085
51
40.0217652
0
ARC
8
bottom_labelLayer
10
400.4339573
20
107.2863239
40
1.8365036
50
41.0610874
51
72.8993557
0
ARC
8
bottom_labelLayer
10
400.0938173
20
106.2736885
40
2.9045174
50
72.3601113
51
85.9561906
0
ARC
8
bottom_labelLayer
10
399.9786759
20
105.0837222
40
4.0997577
50
85.5237977
51
90.0793846
0
ARC
8
bottom_labelLayer
10
399.9394003
20
104.8351562
40
4.3484496
50
89.5573384
51
101.4831984
0
ARC
8
bottom_labelLayer
10
399.6056406
20
106.398898
40
2.7496092
50
101.1546218
51
123.0655711
0
ARC
8
bottom_labelLayer
10
399.378772
20
106.7940938
40
2.294779
50
123.7020592
51
142.3022107
0
ARC
8
bottom_labelLayer
10
399.9101998
20
106.4335662
40
2.9359996
50
143.0769725
51
161.3913925
0
ARC
8
bottom_labelLayer
10
402.0523675
20
105.6770014
40
5.2077043
50
161.0234495
51
171.4469032
0
ARC
8
bottom_labelLayer
10
405.5986867
20
105.1214833
40
8.7972302
50
171.3042024
51
178.3501514
0
ARC
8
bottom_labelLayer
10
408.9880809
20
104.9701069
40
12.1896959
50
178.0976077
51
180.0252919
0
ARC
8
bottom_labelLayer
10
399.8066343
20
107.1334265
40
3.4408886
50
117.1209572
51
149.5423675
0
ARC
8
bottom_labelLayer
10
400.1578063
20
106.5092629
40
4.1566064
50
93.8343332
51
117.5072167
0
ARC
8
bottom_labelLayer
10
400.2548019
20
105.6501388
40
5.0204476
50
89.9662265
51
94.2831599
0
ARC
8
bottom_labelLayer
10
400.3129144
20
104.9387802
40
5.7320705
50
77.5572288
51
90.5513005
0
ARC
8
bottom_labelLayer
10
400.8447878
20
107.2264669
40
3.3836214
50
52.7027096
51
78.0053832
0
ARC
8
bottom_labelLayer
10
401.0342824
20
107.5790294
40
2.9889944
50
22.2097971
51
51.4970451
0
ARC
8
bottom_labelLayer
10
407.0575044
20
106.8912048
40
3.6555515
50
119.4041865
51
150.1828762
0
ARC
8
bottom_labelLayer
10
407.4628349
20
106.2748408
40
4.3918085
50
118.2583399
51
120.0630319
0
ARC
8
bottom_labelLayer
10
407.4617663
20
106.2296156
40
4.4311943
50
95.8635125
51
117.969311
0
ARC
8
bottom_labelLayer
10
407.6117372
20
105.1451971
40
5.5253937
50
89.9197106
51
96.261738
0
ARC
8
bottom_labelLayer
10
407.6598808
20
104.5849001
40
6.0858194
50
79.9361051
51
90.3803616
0
ARC
8
bottom_labelLayer
10
408.0653893
20
106.7810888
40
3.8525925
50
62.9723194
51
80.1665221
0
ARC
8
bottom_labelLayer
10
408.4892956
20
107.6507779
40
2.8853065
50
44.2289801
51
62.6229262
0
ARC
8
bottom_labelLayer
10
408.3632146
20
107.595077
40
3.0148863
50
19.5611942
51
43.3161266
0
ARC
8
bottom_labelLayer
10
406.5321359
20
106.9073211
40
4.9706764
50
7.5041995
51
19.9645408
0
ARC
8
bottom_labelLayer
10
403.5022073
20
106.4818285
40
8.0302658
50
359.7107466
51
7.6907303
0
ENDSEC
0
EOF