0
SECTION
2
HEADER
9
$INSUNITS
70
4
0
ENDSEC
0
SECTION
2
TABLES
0
TABLE
2
LTYPE
0
LTYPE
72
65
70
64
2
CONTINUOUS
3
______
73
0
40
0
0
ENDTAB
0
TABLE
2
LAYER
0
ENDTAB
0
ENDSEC
0
SECTION
2
ENTITIES
0
LINE
8
front_outsideCutPath
10
0
20
103
11
0
21
90.5
0
LINE
8
front_outsideCutPath
10
0
20
90.5
11
4
21
90.5
0
LINE
8
front_outsideCutPath
10
4
20
90.5
11
4
21
75.5
0
LINE
8
front_outsideCutPath
10
4
20
75.5
11
0
21
75.5
0
LINE
8
front_outsideCutPath
10
0
20
75.5
11
0
21
60.5
0
LINE
8
front_outsideCutPath
10
0
20
60.5
11
4
21
60.5
0
LINE
8
front_outsideCutPath
10
4
20
60.5
11
4
21
45.5
0
LINE
8
front_outsideCutPath
10
4
20
45.5
11
0
21
45.5
0
LINE
8
front_outsideCutPath
10
0
20
45.5
11
0
21
30.5
0
LINE
8
front_outsideCutPath
10
0
20
30.5
11
4
21
30.5
0
LINE
8
front_outsideCutPath
10
4
20
30.5
11
4
21
15.5
0
LINE
8
front_outsideCutPath
10
4
20
15.5
11
0
21
15.5
0
LINE
8
front_outsideCutPath
10
0
20
15.5
11
0
21
3
0
LINE
8
front_outsideCutPath
10
0
20
3
11
22.5
21
3
0
LINE
8
front_outsideCutPath
10
22.5
20
3
11
22.5
21
7
0
LINE
8
front_outsideCutPath
10
22.5
20
7
11
37.5
21
7
0
LINE
8
front_outsideCutPath
10
37.5
20
7
11
37.5
21
3
0
LINE
8
front_outsideCutPath
10
37.5
20
3
11
52.5
21
3
0
LINE
8
front_outsideCutPath
10
52.5
20
3
11
52.5
21
7
0
LINE
8
front_outsideCutPath
10
52.5
20
7
11
67.5
21
7
0
LINE
8
front_outsideCutPath
10
67.5
20
7
11
67.5
21
3
0
LINE
8
front_outsideCutPath
10
67.5
20
3
11
82.5
21
3
0
LINE
8
front_outsideCutPath
10
82.5
20
3
11
82.5
21
7
0
LINE
8
front_outsideCutPath
10
82.5
20
7
11
97.5
21
7
0
LINE
8
front_outsideCutPath
10
97.5
20
7
11
97.5
21
3
0
LINE
8
front_outsideCutPath
10
97.5
20
3
11
112.5
21
3
0
LINE
8
front_outsideCutPath
10
112.5
20
3
11
120
21
3
0
LINE
8
front_outsideCutPath
10
120
20
3
11
120
21
15.5
0
LINE
8
front_outsideCutPath
10
120
20
15.5
11
116
21
15.5
0
LINE
8
front_outsideCutPath
10
116
20
15.5
11
116
21
30.5
0
LINE
8
front_outsideCutPath
10
116
20
30.5
11
120
21
30.5
0
LINE
8
front_outsideCutPath
10
120
20
30.5
11
120
21
45.5
0
LINE
8
front_outsideCutPath
10
120
20
45.5
11
116
21
45.5
0
LINE
8
front_outsideCutPath
10
116
20
45.5
11
116
21
60.5
0
LINE
8
front_outsideCutPath
10
116
20
60.5
11
120
21
60.5
0
LINE
8
front_outsideCutPath
10
120
20
60.5
11
120
21
75.5
0
LINE
8
front_outsideCutPath
10
120
20
75.5
11
116
21
75.5
0
LINE
8
front_outsideCutPath
10
116
20
75.5
11
116
21
90.5
0
LINE
8
front_outsideCutPath
10
116
20
90.5
11
120
21
90.5
0
LINE
8
front_outsideCutPath
10
120
20
90.5
11
120
21
103
0
LINE
8
front_outsideCutPath
10
120
20
103
11
0
21
103
0
LINE
8
front_labelLayer
10
43.4326172
20
56.1496257
11
43.4326172
21
54.8898601
0
LINE
8
front_labelLayer
10
43.4326172
20
54.8898601
11
40.7080078
21
54.8898601
0
LINE
8
front_labelLayer
10
40.7080078
20
54.8898601
11
40.7080078
21
45.4465007
0
LINE
8
front_labelLayer
10
40.7080078
20
45.4465007
11
39.0869141
21
45.4465007
0
LINE
8
front_labelLayer
10
39.0869141
20
45.4465007
11
39.0869141
21
54.8898601
0
LINE
8
front_labelLayer
10
39.0869141
20
54.8898601
11
37.1728516
21
54.8898601
0
LINE
8
front_labelLayer
10
37.1728516
20
54.8898601
11
37.1728516
21
55.622282
0
LINE
8
front_labelLayer
10
37.1728516
20
55.622282
11
39.0869141
21
56.2082195
0
LINE
8
front_labelLayer
10
39.0869141
20
56.2082195
11
39.0869141
21
56.8039226
0
LINE
8
front_labelLayer
10
44.5263672
20
60.4074382
11
44.1064453
21
59.1086101
0
LINE
8
front_labelLayer
10
40.7080078
20
56.8429851
11
40.7080078
21
56.1496257
0
LINE
8
front_labelLayer
10
40.7080078
20
56.1496257
11
43.4326172
21
56.1496257
0
ARC
8
front_labelLayer
10
45.656643
20
56.8794516
40
6.5701631
50
167.5776019
51
180.6586728
0
ARC
8
front_labelLayer
10
42.5671365
20
57.5997452
40
3.3982616
50
141.7433952
51
168.2322111
0
ARC
8
front_labelLayer
10
42.0641015
20
57.8622911
40
2.8426424
50
98.25515
51
139.620332
0
ARC
8
front_labelLayer
10
42.5057745
20
55.821935
40
4.9273822
50
89.6697013
51
99.9314429
0
ARC
8
front_labelLayer
10
42.507007
20
55.5290279
40
5.2202779
50
81.5640782
51
89.7017613
0
ARC
8
front_labelLayer
10
42.1400146
20
52.9686645
40
7.8067887
50
75.9739836
51
81.6564925
0
ARC
8
front_labelLayer
10
41.5101857
20
50.3562892
40
10.4939481
50
73.2963798
51
76.0945964
0
ARC
8
front_labelLayer
10
41.6688282
20
51.6235867
40
7.8719472
50
71.9613356
51
76.5918517
0
ARC
8
front_labelLayer
10
42.2795384
20
54.2142902
40
5.2102479
50
76.5183435
51
83.0217048
0
ARC
8
front_labelLayer
10
42.4922705
20
55.9250858
40
3.4862815
50
83.076037
51
89.7927205
0
ARC
8
front_labelLayer
10
42.485268
20
57.2252028
40
2.1862297
50
89.4859359
51
103.4197073
0
ARC
8
front_labelLayer
10
42.2881641
20
57.9824617
40
1.4039934
50
102.7677419
51
144.3380185
0
ARC
8
front_labelLayer
10
42.6852455
20
57.7269769
40
1.875711
50
145.0688682
51
162.1801871
0
ARC
8
front_labelLayer
10
44.0467165
20
57.2689105
40
3.3121003
50
161.8437828
51
171.7846792
0
ARC
8
front_labelLayer
10
46.2672892
20
56.9353905
40
5.5575582
50
171.6528007
51
178.4383441
0
ARC
8
front_labelLayer
10
48.3619741
20
56.8460803
40
7.6539668
50
178.1973669
51
180.0231697
0
LINE
8
front_labelLayer
10
51.5478516
20
56.2277507
11
51.3232422
21
54.7238445
0
LINE
8
front_labelLayer
10
47.0068359
20
51.1886882
11
47.0068359
21
45.4465007
0
LINE
8
front_labelLayer
10
47.0068359
20
45.4465007
11
45.3857422
21
45.4465007
0
LINE
8
front_labelLayer
10
45.3857422
20
45.4465007
11
45.3857422
21
56.1496257
0
LINE
8
front_labelLayer
10
45.3857422
20
56.1496257
11
46.7236328
21
56.1496257
0
LINE
8
front_labelLayer
10
46.7236328
20
56.1496257
11
46.9091797
21
54.1672038
0
LINE
8
front_labelLayer
10
46.9091797
20
54.1672038
11
46.9873047
21
54.1672038
0
ARC
8
front_labelLayer
10
50.2851918
20
48.9027457
40
7.4422111
50
84.992291
51
90.1280853
0
ARC
8
front_labelLayer
10
50.4639204
20
50.9052003
40
5.4317999
50
78.4891881
51
85.0266001
0
ARC
8
front_labelLayer
10
49.7702105
20
47.7500366
40
7.1446416
50
77.4453847
51
81.6360114
0
ARC
8
front_labelLayer
10
50.081499
20
49.8956981
40
4.9765227
50
81.5884291
51
87.1916446
0
ARC
8
front_labelLayer
10
50.1491097
20
51.067975
40
3.8023544
50
87.3437351
51
89.9659832
0
ARC
8
front_labelLayer
10
50.1334016
20
52.0615111
40
2.8088752
50
89.6335332
51
137.0880824
0
ARC
8
front_labelLayer
10
50.8226335
20
51.2864292
40
3.8426618
50
135.6208614
51
138.8378137
0
ARC
8
front_labelLayer
10
50.7217405
20
51.3849151
40
3.7018901
50
138.9575794
51
174.5422254
0
ARC
8
front_labelLayer
10
51.9274083
20
51.1962675
40
4.9205781
50
173.6907914
51
180.0882543
0
ARC
8
front_labelLayer
10
51.7569048
20
51.4800333
40
5.4744836
50
139.4139283
51
150.6032915
0
ARC
8
front_labelLayer
10
50.7753331
20
52.3211361
40
4.1818363
50
124.2321574
51
139.4160923
0
ARC
8
front_labelLayer
10
50.2504874
20
53.1133863
40
3.2316024
50
89.6796684
51
124.4405593
0
ARC
8
front_labelLayer
10
54.4146558
20
50.7513789
40
8.3736204
50
349.1761945
51
0.3862568
0
ARC
8
front_labelLayer
10
57.233861
20
50.1893655
40
5.4990771
50
330.2507047
51
349.4116462
0
ARC
8
front_labelLayer
10
58.1014695
20
49.7384163
40
4.5222197
50
318.143971
51
329.7566252
0
ARC
8
front_labelLayer
10
58.2580578
20
49.6129266
40
4.3218687
50
278.8959183
51
317.9979086
0
ARC
8
front_labelLayer
10
57.8545846
20
51.5460018
40
6.2948732
50
269.7502763
51
279.8033236
0
ARC
8
front_labelLayer
10
57.7891484
20
50.4568395
40
5.2057899
50
253.5436962
51
270.418238
0
ARC
8
front_labelLayer
10
57.6158547
20
49.7865
40
4.5138811
50
238.8115441
51
253.242846
0
ARC
8
front_labelLayer
10
57.5599298
20
49.6740366
40
4.3887236
50
207.7946962
51
238.6757996
0
ARC
8
front_labelLayer
10
58.3624169
20
50.165521
40
5.328149
50
205.6559791
51
208.4461025
0
ARC
8
front_labelLayer
10
58.9805701
20
50.4230902
40
5.9969824
50
188.9102503
51
205.3171481
0
ARC
8
front_labelLayer
10
61.0637213
20
50.7759072
40
8.1096824
50
179.7744696
51
189.0932788
0
ARC
8
front_labelLayer
10
61.3710103
20
50.8648393
40
8.4171018
50
169.244298
51
180.388077
0
ARC
8
front_labelLayer
10
58.512632
20
51.4298361
40
5.5035418
50
150.7111564
51
169.4695354
0
ARC
8
front_labelLayer
10
57.6001567
20
51.8984219
40
4.4786339
50
138.175962
51
150.2287147
0
ARC
8
front_labelLayer
10
57.4483586
20
52.0149094
40
4.2878596
50
99.175935
51
137.9832793
0
ARC
8
front_labelLayer
10
57.8661284
20
50.0488414
40
6.2961655
50
89.7326434
51
100.0759878
0
ARC
8
front_labelLayer
10
57.9496243
20
50.8979214
40
5.4472856
50
73.5222665
51
90.5692191
0
ARC
8
front_labelLayer
10
58.2690752
20
52.0585698
40
4.2437569
50
41.1445735
51
73.2133783
0
ARC
8
front_labelLayer
10
57.6592716
20
51.5344521
40
5.047824
50
13.5014302
51
41.0703483
0
ARC
8
front_labelLayer
10
55.3032818
20
50.9179214
40
7.4828084
50
1.1277281
51
13.8799962
0
ARC
8
front_labelLayer
10
53.2740157
20
50.8091812
40
9.5140701
50
359.991856
51
1.5419431
0
ARC
8
front_labelLayer
10
62.8428699
20
50.7657001
40
8.2091889
50
179.7059623
51
187.9160759
0
ARC
8
front_labelLayer
10
59.8319964
20
50.3331922
40
5.1674586
50
187.7639332
51
200.097688
0
ARC
8
front_labelLayer
10
58.1733168
20
49.7254495
40
3.4009457
50
200.0845876
51
216.9131503
0
ARC
8
front_labelLayer
10
57.5676242
20
49.2929573
40
2.6569704
50
217.300954
51
261.7099073
0
ARC
8
front_labelLayer
10
57.8488056
20
50.6347234
40
4.0261509
50
260.5033133
51
270.2476938
0
ARC
8
front_labelLayer
10
57.9024761
20
50.3738215
40
3.765386
50
269.4481646
51
284.7255643
0
ARC
8
front_labelLayer
10
58.2005593
20
49.2683253
40
2.620441
50
284.566235
51
322.6333878
0
ARC
8
front_labelLayer
10
57.5036256
20
49.771829
40
3.4799996
50
323.0089266
51
342.6390508
0
ARC
8
front_labelLayer
10
55.5102406
20
50.4233247
40
5.5770392
50
342.3615704
51
353.7537499
0
ARC
8
front_labelLayer
10
52.5693152
20
50.7778121
40
8.539136
50
353.5363189
51
0.2014064
0
ARC
8
front_labelLayer
10
53.0199545
20
50.8491138
40
8.0885493
50
359.7075543
51
7.8972827
0
ARC
8
front_labelLayer
10
55.9821889
20
51.2737785
40
5.0960791
50
7.7440005
51
20.0690174
0
ARC
8
front_labelLayer
10
57.6328814
20
51.8795201
40
3.3377565
50
20.0257107
51
37.4350558
0
ARC
8
front_labelLayer
10
58.1805665
20
52.2681496
40
2.6667491
50
37.9577645
51
80.400615
0
ARC
8
front_labelLayer
10
57.8693358
20
50.8794661
40
4.0885816
50
79.345353
51
90.3174962
0
ARC
8
front_labelLayer
10
57.8117054
20
51.110135
40
3.8580087
50
89.4805853
51
103.8805168
0
ARC
8
front_labelLayer
10
57.4875331
20
52.3445778
40
2.5819124
50
103.4685218
51
142.3118841
0
ARC
8
front_labelLayer
10
58.1177462
20
51.9013664
40
3.3517727
50
142.9025565
51
162.3749748
0
ARC
8
front_labelLayer
10
60.103562
20
51.239596
40
5.4448258
50
162.0652994
51
173.1674849
0
ARC
8
front_labelLayer
10
63.1999835
20
50.844664
40
8.5662738
50
173.0086063
51
180.2463739
0
LINE
8
front_labelLayer
10
74.5751953
20
45.4465007
11
72.9541016
21
45.4465007
0
LINE
8
front_labelLayer
10
72.9541016
20
45.4465007
11
72.9541016
21
52.3703288
0
LINE
8
front_labelLayer
10
67.2509766
20
51.0617351
11
67.2509766
21
45.4465007
0
LINE
8
front_labelLayer
10
67.2509766
20
45.4465007
11
65.6298828
21
45.4465007
0
LINE
8
front_labelLayer
10
65.6298828
20
45.4465007
11
65.6298828
21
56.1496257
0
LINE
8
front_labelLayer
10
65.6298828
20
56.1496257
11
66.9482422
21
56.1496257
0
LINE
8
front_labelLayer
10
66.9482422
20
56.1496257
11
67.2119141
21
54.684782
0
LINE
8
front_labelLayer
10
67.2119141
20
54.684782
11
67.2900391
21
54.684782
0
LINE
8
front_labelLayer
10
74.5751953
20
52.4289226
11
74.5751953
21
45.4465007
0
ARC
8
front_labelLayer
10
68.3717418
20
52.3966075
40
4.5824351
50
359.6714273
51
8.6877183
0
ARC
8
front_labelLayer
10
70.0701359
20
52.6659621
40
2.8628588
50
8.4931172
51
22.6580015
0
ARC
8
front_labelLayer
10
70.9330198
20
53.02455
40
1.9284334
50
22.7024538
51
42.3419526
0
ARC
8
front_labelLayer
10
71.0300148
20
53.0681813
40
1.8276521
50
43.3791036
51
71.5386098
0
ARC
8
front_labelLayer
10
70.6673083
20
52.0546881
40
2.9039368
50
71.0827882
51
84.3690971
0
ARC
8
front_labelLayer
10
70.5044967
20
50.6704319
40
4.2975682
50
84.0197499
51
90.1510883
0
ARC
8
front_labelLayer
10
70.458338
20
50.0618099
40
4.9062988
50
89.5932978
51
100.3717905
0
ARC
8
front_labelLayer
10
70.1116138
20
51.8809551
40
3.0544855
50
100.1176335
51
118.1602552
0
ARC
8
front_labelLayer
10
69.7622031
20
52.5661214
40
2.2855721
50
118.5439463
51
139.1926966
0
ARC
8
front_labelLayer
10
70.0668693
20
52.3616865
40
2.6501508
50
140.1519123
51
160.3146543
0
ARC
8
front_labelLayer
10
71.9066472
20
51.6725826
40
4.6146256
50
159.9534297
51
171.3801135
0
ARC
8
front_labelLayer
10
74.9119838
20
51.1894866
40
7.6584691
50
171.1765914
51
178.3217568
0
ARC
8
front_labelLayer
10
77.6360595
20
51.066023
40
10.3850839
50
178.081036
51
180.023657
0
ARC
8
front_labelLayer
10
70.0631665
20
52.9284684
40
3.2825102
50
116.9442851
51
147.6525642
0
ARC
8
front_labelLayer
10
70.404898
20
52.3568868
40
3.9471559
50
115.8072486
51
117.6067736
0
ARC
8
front_labelLayer
10
70.5795056
20
51.9497359
40
4.3897594
50
94.3226737
51
115.5454453
0
ARC
8
front_labelLayer
10
70.6845747
20
51.0369154
40
5.3080244
50
89.957883
51
94.7109208
0
ARC
8
front_labelLayer
10
70.7280003
20
49.9446895
40
6.4003708
50
80.5585506
51
90.3538166
0
ARC
8
front_labelLayer
10
71.1279828
20
52.2615523
40
4.0493058
50
65.1094299
51
80.7638171
0
ARC
8
front_labelLayer
10
71.5955424
20
53.2971868
40
2.9131021
50
46.5584519
51
64.8782266
0
ARC
8
front_labelLayer
10
71.6329642
20
53.405067
40
2.8094344
50
19.3848834
51
45.5997059
0
ARC
8
front_labelLayer
10
70.0076147
20
52.7952087
40
4.5452039
50
6.9633634
51
19.8363272
0
ARC
8
front_labelLayer
10
67.5008422
20
52.4581685
40
7.0744135
50
359.763136
51
7.21157
0
LINE
8
front_labelLayer
10
82.8271484
20
46.7843913
11
82.8271484
21
45.544157
0
LINE
8
front_labelLayer
10
78.0224609
20
48.5226726
11
78.0224609
21
54.8898601
0
LINE
8
front_labelLayer
10
78.0224609
20
54.8898601
11
76.4892578
21
54.8898601
0
LINE
8
front_labelLayer
10
76.4892578
20
54.8898601
11
76.4892578
21
55.6711101
0
LINE
8
front_labelLayer
10
76.4892578
20
55.6711101
11
78.0224609
21
56.3449382
0
LINE
8
front_labelLayer
10
78.0224609
20
56.3449382
11
78.7060547
21
58.6300945
0
LINE
8
front_labelLayer
10
78.7060547
20
58.6300945
11
79.6435547
21
58.6300945
0
LINE
8
front_labelLayer
10
79.6435547
20
58.6300945
11
79.6435547
21
56.1496257
0
LINE
8
front_labelLayer
10
79.6435547
20
56.1496257
11
82.7490234
21
56.1496257
0
LINE
8
front_labelLayer
10
82.7490234
20
56.1496257
11
82.7490234
21
54.8898601
0
LINE
8
front_labelLayer
10
82.7490234
20
54.8898601
11
79.6435547
21
54.8898601
0
LINE
8
front_labelLayer
10
79.6435547
20
54.8898601
11
79.6435547
21
48.591032
0
ARC
8
front_labelLayer
10
81.3734233
20
51.9129617
40
5.3238944
50
269.8803417
51
278.3028182
0
ARC
8
front_labelLayer
10
81.4230699
20
51.5056089
40
4.9136514
50
278.4158959
51
279.0076561
0
ARC
8
front_labelLayer
10
80.8267197
20
55.3151576
40
8.7695902
50
278.9589695
51
280.5103918
0
ARC
8
front_labelLayer
10
81.3960558
20
52.2602916
40
5.6621249
50
280.4847522
51
282.6268451
0
ARC
8
front_labelLayer
10
81.8953454
20
50.0421168
40
3.3884538
50
282.5876165
51
285.5795336
0
ARC
8
front_labelLayer
10
82.1470048
20
49.1168484
40
2.429599
50
285.7231888
51
286.2566654
0
ARC
8
front_labelLayer
10
82.145595
20
46.9856817
40
1.5945246
50
287.9888406
51
295.3048016
0
ARC
8
front_labelLayer
10
81.7610004
20
48.1492631
40
2.8200086
50
283.3069861
51
288.1197567
0
ARC
8
front_labelLayer
10
81.3547466
20
49.8438763
40
4.5626327
50
280.0069961
51
283.3735389
0
ARC
8
front_labelLayer
10
81.0829387
20
51.3189605
40
6.0625179
50
279.1862135
51
280.1142603
0
ARC
8
front_labelLayer
10
80.9160585
20
52.2681084
40
7.0261467
50
275.5260122
51
279.2939725
0
ARC
8
front_labelLayer
10
81.1040783
20
50.304196
40
5.0532558
50
270.8932457
51
275.5483966
0
ARC
8
front_labelLayer
10
81.1276861
20
49.4070606
40
4.1558726
50
270.0033586
51
270.7606301
0
ARC
8
front_labelLayer
10
81.0625135
20
49.4847407
40
4.2340578
50
253.784789
51
270.8852547
0
ARC
8
front_labelLayer
10
80.5608903
20
47.7740159
40
2.4513133
50
190.3817699
51
253.8772374
0
ARC
8
front_labelLayer
10
83.1176617
20
48.465321
40
5.0955236
50
179.3551054
51
192.8477577
0
ARC
8
front_labelLayer
10
82.9078539
20
48.5706171
40
3.2643631
50
179.6416773
51
189.7505556
0
ARC
8
front_labelLayer
10
81.7554639
20
48.3650768
40
2.093823
50
189.5479676
51
205.7873396
0
ARC
8
front_labelLayer
10
81.2818781
20
48.1466914
40
1.5724225
50
206.1294051
51
221.408398
0
ARC
8
front_labelLayer
10
81.2287796
20
48.1064012
40
1.505957
50
221.5949091
51
262.3505289
0
ARC
8
front_labelLayer
10
81.355071
20
48.7558396
40
2.1667729
50
261.3266216
51
270.1912791
0
LINE
8
left_outsideCutPath
10
127
20
103
11
127
21
90.5
0
LINE
8
left_outsideCutPath
10
127
20
90.5
11
123
21
90.5
0
LINE
8
left_outsideCutPath
10
123
20
90.5
11
123
21
75.5
0
LINE
8
left_outsideCutPath
10
123
20
75.5
11
127
21
75.5
0
LINE
8
left_outsideCutPath
10
127
20
75.5
11
127
21
60.5
0
LINE
8
left_outsideCutPath
10
127
20
60.5
11
123
21
60.5
0
LINE
8
left_outsideCutPath
10
123
20
60.5
11
123
21
45.5
0
LINE
8
left_outsideCutPath
10
123
20
45.5
11
127
21
45.5
0
LINE
8
left_outsideCutPath
10
127
20
45.5
11
127
21
30.5
0
LINE
8
left_outsideCutPath
10
127
20
30.5
11
123
21
30.5
0
LINE
8
left_outsideCutPath
10
123
20
30.5
11
123
21
15.5
0
LINE
8
left_outsideCutPath
10
123
20
15.5
11
127
21
15.5
0
LINE
8
left_outsideCutPath
10
127
20
15.5
11
127
21
3
0
LINE
8
left_outsideCutPath
10
127
20
3
11
140.5
21
3
0
LINE
8
left_outsideCutPath
10
140.5
20
3
11
140.5
21
7
0
LINE
8
left_outsideCutPath
10
140.5
20
7
11
155.5
21
7
0
LINE
8
left_outsideCutPath
10
155.5
20
7
11
155.5
21
3
0
LINE
8
left_outsideCutPath
10
155.5
20
3
11
170.5
21
3
0
LINE
8
left_outsideCutPath
10
170.5
20
3
11
170.5
21
7
0
LINE
8
left_outsideCutPath
10
170.5
20
7
11
185.5
21
7
0
LINE
8
left_outsideCutPath
10
185.5
20
7
11
185.5
21
3
0
LINE
8
left_outsideCutPath
10
185.5
20
3
11
200.5
21
3
0
LINE
8
left_outsideCutPath
10
200.5
20
3
11
200.5
21
7
0
LINE
8
left_outsideCutPath
10
200.5
20
7
11
215.5
21
7
0
LINE
8
left_outsideCutPath
10
215.5
20
7
11
215.5
21
3
0
LINE
8
left_outsideCutPath
10
215.5
20
3
11
230.5
21
3
0
LINE
8
left_outsideCutPath
10
230.5
20
3
11
230.5
21
7
0
LINE
8
left_outsideCutPath
10
230.5
20
7
11
245.5
21
7
0
LINE
8
left_outsideCutPath
10
245.5
20
7
11
245.5
21
3
0
LINE
8
left_outsideCutPath
10
245.5
20
3
11
260.5
21
3
0
LINE
8
left_outsideCutPath
10
260.5
20
3
11
260.5
21
7
0
LINE
8
left_outsideCutPath
10
260.5
20
7
11
275.5
21
7
0
LINE
8
left_outsideCutPath
10
275.5
20
7
11
275.5
21
3
0
LINE
8
left_outsideCutPath
10
275.5
20
3
11
290.5
21
3
0
LINE
8
left_outsideCutPath
10
290.5
20
3
11
290.5
21
7
0
LINE
8
left_outsideCutPath
10
290.5
20
7
11
305.5
21
7
0
LINE
8
left_outsideCutPath
10
305.5
20
7
11
305.5
21
3
0
LINE
8
left_outsideCutPath
10
305.5
20
3
11
319
21
3
0
LINE
8
left_outsideCutPath
10
319
20
3
11
319
21
15.5
0
LINE
8
left_outsideCutPath
10
319
20
15.5
11
323
21
15.5
0
LINE
8
left_outsideCutPath
10
323
20
15.5
11
323
21
30.5
0
LINE
8
left_outsideCutPath
10
323
20
30.5
11
319
21
30.5
0
LINE
8
left_outsideCutPath
10
319
20
30.5
11
319
21
45.5
0
LINE
8
left_outsideCutPath
10
319
20
45.5
11
323
21
45.5
0
LINE
8
left_outsideCutPath
10
323
20
45.5
11
323
21
60.5
0
LINE
8
left_outsideCutPath
10
323
20
60.5
11
319
21
60.5
0
LINE
8
left_outsideCutPath
10
319
20
60.5
11
319
21
75.5
0
LINE
8
left_outsideCutPath
10
319
20
75.5
11
323
21
75.5
0
LINE
8
left_outsideCutPath
10
323
20
75.5
11
323
21
90.5
0
LINE
8
left_outsideCutPath
10
323
20
90.5
11
319
21
90.5
0
LINE
8
left_outsideCutPath
10
319
20
90.5
11
319
21
103
0
LINE
8
left_outsideCutPath
10
319
20
103
11
127
21
103
0
LINE
8
left_labelLayer
10
210.6318359
20
60.6418132
11
210.6318359
21
45.4465007
0
LINE
8
left_labelLayer
10
210.6318359
20
45.4465007
11
209.0107422
21
45.4465007
0
LINE
8
left_labelLayer
10
209.0107422
20
45.4465007
11
209.0107422
21
60.6418132
0
LINE
8
left_labelLayer
10
209.0107422
20
60.6418132
11
210.6318359
21
60.6418132
0
LINE
8
left_labelLayer
10
222.5263672
20
51.5304851
11
222.5263672
21
50.5050945
0
LINE
8
left_labelLayer
10
222.5263672
20
50.5050945
11
215.1533203
21
50.5050945
0
LINE
8
left_labelLayer
10
222.0673828
20
47.3898601
11
222.0673828
21
45.9445476
0
LINE
8
left_labelLayer
10
215.1923828
20
51.8234538
11
220.7880859
21
51.8234538
0
ARC
8
left_labelLayer
10
218.5375163
20
51.5504518
40
6.2994891
50
256.0087864
51
270.4848217
0
ARC
8
left_labelLayer
10
218.0787904
20
49.7695846
40
4.4605713
50
223.5465745
51
256.1956946
0
ARC
8
left_labelLayer
10
218.331848
20
49.9535108
40
4.7708826
50
194.0877272
51
223.0538182
0
ARC
8
left_labelLayer
10
220.6505483
20
50.5875915
40
7.1743644
50
181.3574552
51
194.4920046
0
ARC
8
left_labelLayer
10
222.7337444
20
50.7083549
40
9.2601118
50
179.988753
51
181.7991074
0
ARC
8
left_labelLayer
10
221.9857631
20
50.7672736
40
8.5123218
50
168.9539202
51
180.3843452
0
ARC
8
left_labelLayer
10
219.2056782
20
51.3333483
40
5.6753298
50
149.4070939
51
169.185387
0
ARC
8
left_labelLayer
10
218.4311046
20
51.7425996
40
4.8004737
50
140.1056143
51
148.906731
0
ARC
8
left_labelLayer
10
217.9552283
20
52.1813347
40
4.1540931
50
92.4762693
51
140.5386367
0
ARC
8
left_labelLayer
10
218.1672793
20
50.6142695
40
5.7306699
50
89.9638154
51
93.9176162
0
ARC
8
left_labelLayer
10
218.2178771
20
51.4063084
40
4.9388532
50
74.2125965
51
90.5450096
0
ARC
8
left_labelLayer
10
218.5272118
20
52.5460349
40
3.7579798
50
41.2064721
51
74.0232652
0
ARC
8
left_labelLayer
10
217.9413907
20
52.0390501
40
4.5327076
50
11.5994275
51
41.1496059
0
ARC
8
left_labelLayer
10
215.9285231
20
51.5748451
40
6.5979931
50
359.6147824
51
12.033632
0
ARC
8
left_labelLayer
10
221.6585018
20
50.6350784
40
6.50648
50
181.1447089
51
190.800699
0
ARC
8
left_labelLayer
10
219.3630811
20
50.182357
40
4.1669111
50
190.6005651
51
206.0275216
0
ARC
8
left_labelLayer
10
218.3475131
20
49.7022419
40
3.0436958
50
206.2950304
51
222.5557993
0
ARC
8
left_labelLayer
10
218.2575252
20
49.6551265
40
2.9456606
50
223.0645132
51
258.1401291
0
ARC
8
left_labelLayer
10
218.6157671
20
51.1302218
40
4.4631448
50
257.5311717
51
270.4319476
0
ARC
8
left_labelLayer
10
218.6197666
20
55.2290413
40
8.5618888
50
270.1983999
51
292.2090433
0
ARC
8
left_labelLayer
10
218.2083414
20
56.410503
40
9.8114322
50
291.8255178
51
293.1612948
0
ARC
8
left_labelLayer
10
218.1889046
20
54.8703356
40
9.7320237
50
287.9023108
51
293.4861519
0
ARC
8
left_labelLayer
10
218.8948818
20
52.6921442
40
7.4422823
50
281.9936008
51
287.8851423
0
ARC
8
left_labelLayer
10
219.0659954
20
52.0771114
40
6.8052323
50
275.9054125
51
281.6604196
0
ARC
8
left_labelLayer
10
218.7234705
20
55.2742317
40
10.0206339
50
271.9119633
51
275.9726911
0
ARC
8
left_labelLayer
10
218.5984511
20
58.4584667
40
13.2072806
50
269.9668962
51
271.9931374
0
ARC
8
left_labelLayer
10
218.1202599
20
51.7921135
40
3.1955542
50
89.4422423
51
106.2089652
0
ARC
8
left_labelLayer
10
217.928013
20
52.4930778
40
2.4688141
50
106.4657148
51
137.9176368
0
ARC
8
left_labelLayer
10
218.4791952
20
52.0090489
40
3.2023031
50
138.0994865
51
160.5866232
0
ARC
8
left_labelLayer
10
219.8960088
20
51.487829
40
4.7118531
50
160.335354
51
172.5315141
0
ARC
8
left_labelLayer
10
221.291158
20
51.2642972
40
6.1243541
50
172.1545568
51
174.7615716
0
ARC
8
left_labelLayer
10
215.2640618
20
51.8548335
40
5.5241133
50
359.6745303
51
8.922462
0
ARC
8
left_labelLayer
10
217.2379464
20
52.1764473
40
3.5242521
50
8.7342472
51
23.2771776
0
ARC
8
left_labelLayer
10
218.1750418
20
52.5698155
40
2.5079976
50
23.4821335
51
39.7072171
0
ARC
8
left_labelLayer
10
218.4052195
20
52.7420632
40
2.220922
50
40.0822985
51
80.624323
0
ARC
8
left_labelLayer
10
218.1682893
20
51.655985
40
3.3315743
50
79.646833
51
90.291024
0
LINE
8
left_labelLayer
10
230.1142578
20
56.1496257
11
230.1142578
21
54.8898601
0
LINE
8
left_labelLayer
10
230.1142578
20
54.8898601
11
227.3896484
21
54.8898601
0
LINE
8
left_labelLayer
10
227.3896484
20
54.8898601
11
227.3896484
21
45.4465007
0
LINE
8
left_labelLayer
10
227.3896484
20
45.4465007
11
225.7685547
21
45.4465007
0
LINE
8
left_labelLayer
10
225.7685547
20
45.4465007
11
225.7685547
21
54.8898601
0
LINE
8
left_labelLayer
10
225.7685547
20
54.8898601
11
223.8544922
21
54.8898601
0
LINE
8
left_labelLayer
10
223.8544922
20
54.8898601
11
223.8544922
21
55.622282
0
LINE
8
left_labelLayer
10
223.8544922
20
55.622282
11
225.7685547
21
56.2082195
0
LINE
8
left_labelLayer
10
225.7685547
20
56.2082195
11
225.7685547
21
56.8039226
0
LINE
8
left_labelLayer
10
231.2080078
20
60.4074382
11
230.7880859
21
59.1086101
0
LINE
8
left_labelLayer
10
227.3896484
20
56.8429851
11
227.3896484
21
56.1496257
0
LINE
8
left_labelLayer
10
227.3896484
20
56.1496257
11
230.1142578
21
56.1496257
0
ARC
8
left_labelLayer
10
232.3382836
20
56.8794516
40
6.5701631
50
167.5776019
51
180.6586728
0
ARC
8
left_labelLayer
10
229.2487771
20
57.5997452
40
3.3982616
50
141.7433952
51
168.2322111
0
ARC
8
left_labelLayer
10
228.7457421
20
57.8622911
40
2.8426424
50
98.25515
51
139.620332
0
ARC
8
left_labelLayer
10
229.1874151
20
55.821935
40
4.9273822
50
89.6697013
51
99.9314429
0
ARC
8
left_labelLayer
10
229.1886476
20
55.5290279
40
5.2202779
50
81.5640782
51
89.7017613
0
ARC
8
left_labelLayer
10
228.8216552
20
52.9686645
40
7.8067887
50
75.9739836
51
81.6564925
0
ARC
8
left_labelLayer
10
228.1918263
20
50.3562892
40
10.4939481
50
73.2963798
51
76.0945964
0
ARC
8
left_labelLayer
10
228.3504689
20
51.6235867
40
7.8719472
50
71.9613356
51
76.5918517
0
ARC
8
left_labelLayer
10
228.961179
20
54.2142902
40
5.2102479
50
76.5183435
51
83.0217048
0
ARC
8
left_labelLayer
10
229.1739111
20
55.9250858
40
3.4862815
50
83.076037
51
89.7927205
0
ARC
8
left_labelLayer
10
229.1669086
20
57.2252028
40
2.1862297
50
89.4859359
51
103.4197073
0
ARC
8
left_labelLayer
10
228.9698048
20
57.9824617
40
1.4039934
50
102.7677419
51
144.3380185
0
ARC
8
left_labelLayer
10
229.3668861
20
57.7269769
40
1.875711
50
145.0688682
51
162.1801871
0
ARC
8
left_labelLayer
10
230.7283572
20
57.2689105
40
3.3121003
50
161.8437828
51
171.7846792
0
ARC
8
left_labelLayer
10
232.9489299
20
56.9353905
40
5.5575582
50
171.6528007
51
178.4383441
0
ARC
8
left_labelLayer
10
235.0436147
20
56.8460803
40
7.6539668
50
178.1973669
51
180.0231697
0
LINE
8
left_labelLayer
10
236.9892578
20
46.7843913
11
236.9892578
21
45.544157
0
LINE
8
left_labelLayer
10
232.1845703
20
48.5226726
11
232.1845703
21
54.8898601
0
LINE
8
left_labelLayer
10
232.1845703
20
54.8898601
11
230.6513672
21
54.8898601
0
LINE
8
left_labelLayer
10
230.6513672
20
54.8898601
11
230.6513672
21
55.6711101
0
LINE
8
left_labelLayer
10
230.6513672
20
55.6711101
11
232.1845703
21
56.3449382
0
LINE
8
left_labelLayer
10
232.1845703
20
56.3449382
11
232.8681641
21
58.6300945
0
LINE
8
left_labelLayer
10
232.8681641
20
58.6300945
11
233.8056641
21
58.6300945
0
LINE
8
left_labelLayer
10
233.8056641
20
58.6300945
11
233.8056641
21
56.1496257
0
LINE
8
left_labelLayer
10
233.8056641
20
56.1496257
11
236.9111328
21
56.1496257
0
LINE
8
left_labelLayer
10
236.9111328
20
56.1496257
11
236.9111328
21
54.8898601
0
LINE
8
left_labelLayer
10
236.9111328
20
54.8898601
11
233.8056641
21
54.8898601
0
LINE
8
left_labelLayer
10
233.8056641
20
54.8898601
11
233.8056641
21
48.591032
0
ARC
8
left_labelLayer
10
235.5355326
20
51.9129617
40
5.3238944
50
269.8803417
51
278.3028182
0
ARC
8
left_labelLayer
10
235.5851793
20
51.5056089
40
4.9136514
50
278.4158959
51
279.0076561
0
ARC
8
left_labelLayer
10
234.9888291
20
55.3151576
40
8.7695902
50
278.9589695
51
280.5103918
0
ARC
8
left_labelLayer
10
235.5581652
20
52.2602916
40
5.6621249
50
280.4847522
51
282.6268451
0
ARC
8
left_labelLayer
10
236.0574548
20
50.0421168
40
3.3884538
50
282.5876165
51
285.5795336
0
ARC
8
left_labelLayer
10
236.3091142
20
49.1168484
40
2.429599
50
285.7231888
51
286.2566654
0
ARC
8
left_labelLayer
10
236.3077044
20
46.9856817
40
1.5945246
50
287.9888406
51
295.3048016
0
ARC
8
left_labelLayer
10
235.9231098
20
48.1492631
40
2.8200086
50
283.3069861
51
288.1197567
0
ARC
8
left_labelLayer
10
235.516856
20
49.8438763
40
4.5626327
50
280.0069961
51
283.3735389
0
ARC
8
left_labelLayer
10
235.2450481
20
51.3189605
40
6.0625179
50
279.1862135
51
280.1142603
0
ARC
8
left_labelLayer
10
235.0781679
20
52.2681084
40
7.0261467
50
275.5260122
51
279.2939725
0
ARC
8
left_labelLayer
10
235.2661877
20
50.304196
40
5.0532558
50
270.8932457
51
275.5483966
0
ARC
8
left_labelLayer
10
235.2897955
20
49.4070606
40
4.1558726
50
270.0033586
51
270.7606301
0
ARC
8
left_labelLayer
10
235.2246229
20
49.4847407
40
4.2340578
50
253.784789
51
270.8852547
0
ARC
8
left_labelLayer
10
234.7229997
20
47.7740159
40
2.4513133
50
190.3817699
51
253.8772374
0
ARC
8
left_labelLayer
10
237.2797711
20
48.465321
40
5.0955236
50
179.3551054
51
192.8477577
0
ARC
8
left_labelLayer
10
237.0699633
20
48.5706171
40
3.2643631
50
179.6416773
51
189.7505556
0
ARC
8
left_labelLayer
10
235.9175733
20
48.3650768
40
2.093823
50
189.5479676
51
205.7873396
0
ARC
8
left_labelLayer
10
235.4439874
20
48.1466914
40
1.5724225
50
206.1294051
51
221.408398
0
ARC
8
left_labelLayer
10
235.390889
20
48.1064012
40
1.505957
50
221.5949091
51
262.3505289
0
ARC
8
left_labelLayer
10
235.5171804
20
48.7558396
40
2.1667729
50
261.3266216
51
270.1912791
0
LINE
8
back_outsideCutPath
10
0
20
206
11
0
21
193.5
0
LINE
8
back_outsideCutPath
10
0
20
193.5
11
4
21
193.5
0
LINE
8
back_outsideCutPath
10
4
20
193.5
11
4
21
178.5
0
LINE
8
back_outsideCutPath
10
4
20
178.5
11
0
21
178.5
0
LINE
8
back_outsideCutPath
10
0
20
178.5
11
0
21
163.5
0
LINE
8
back_outsideCutPath
10
0
20
163.5
11
4
21
163.5
0
LINE
8
back_outsideCutPath
10
4
20
163.5
11
4
21
148.5
0
LINE
8
back_outsideCutPath
10
4
20
148.5
11
0
21
148.5
0
LINE
8
back_outsideCutPath
10
0
20
148.5
11
0
21
133.5
0
LINE
8
back_outsideCutPath
10
0
20
133.5
11
4
21
133.5
0
LINE
8
back_outsideCutPath
10
4
20
133.5
11
4
21
118.5
0
LINE
8
back_outsideCutPath
10
4
20
118.5
11
0
21
118.5
0
LINE
8
back_outsideCutPath
10
0
20
118.5
11
0
21
106
0
LINE
8
back_outsideCutPath
10
0
20
106
11
22.5
21
106
0
LINE
8
back_outsideCutPath
10
22.5
20
106
11
22.5
21
110
0
LINE
8
back_outsideCutPath
10
22.5
20
110
11
37.5
21
110
0
LINE
8
back_outsideCutPath
10
37.5
20
110
11
37.5
21
106
0
LINE
8
back_outsideCutPath
10
37.5
20
106
11
52.5
21
106
0
LINE
8
back_outsideCutPath
10
52.5
20
106
11
52.5
21
110
0
LINE
8
back_outsideCutPath
10
52.5
20
110
11
67.5
21
110
0
LINE
8
back_outsideCutPath
10
67.5
20
110
11
67.5
21
106
0
LINE
8
back_outsideCutPath
10
67.5
20
106
11
82.5
21
106
0
LINE
8
back_outsideCutPath
10
82.5
20
106
11
82.5
21
110
0
LINE
8
back_outsideCutPath
10
82.5
20
110
11
97.5
21
110
0
LINE
8
back_outsideCutPath
10
97.5
20
110
11
97.5
21
106
0
LINE
8
back_outsideCutPath
10
97.5
20
106
11
112.5
21
106
0
LINE
8
back_outsideCutPath
10
112.5
20
106
11
120
21
106
0
LINE
8
back_outsideCutPath
10
120
20
106
11
120
21
118.5
0
LINE
8
back_outsideCutPath
10
120
20
118.5
11
116
21
118.5
0
LINE
8
back_outsideCutPath
10
116
20
118.5
11
116
21
133.5
0
LINE
8
back_outsideCutPath
10
116
20
133.5
11
120
21
133.5
0
LINE
8
back_outsideCutPath
10
120
20
133.5
11
120
21
148.5
0
LINE
8
back_outsideCutPath
10
120
20
148.5
11
116
21
148.5
0
LINE
8
back_outsideCutPath
10
116
20
148.5
11
116
21
163.5
0
LINE
8
back_outsideCutPath
10
116
20
163.5
11
120
21
163.5
0
LINE
8
back_outsideCutPath
10
120
20
163.5
11
120
21
178.5
0
LINE
8
back_outsideCutPath
10
120
20
178.5
11
116
21
178.5
0
LINE
8
back_outsideCutPath
10
116
20
178.5
11
116
21
193.5
0
LINE
8
back_outsideCutPath
10
116
20
193.5
11
120
21
193.5
0
LINE
8
back_outsideCutPath
10
120
20
193.5
11
120
21
206
0
LINE
8
back_outsideCutPath
10
120
20
206
11
0
21
206
0
LINE
8
back_labelLayer
10
40.8886719
20
149.8770634
11
40.7714844
21
149.8770634
0
LINE
8
back_labelLayer
10
40.7714844
20
149.8770634
11
40.4296875
21
148.5001103
0
LINE
8
back_labelLayer
10
40.4296875
20
148.5001103
11
39.2675781
21
148.5001103
0
LINE
8
back_labelLayer
10
39.2675781
20
148.5001103
11
39.2675781
21
163.6954228
0
LINE
8
back_labelLayer
10
39.2675781
20
163.6954228
11
40.8886719
21
163.6954228
0
LINE
8
back_labelLayer
10
40.8886719
20
163.6954228
11
40.8886719
21
160.0040166
0
LINE
8
back_labelLayer
10
40.8105469
20
157.7774541
11
40.8886719
21
157.7774541
0
ARC
8
back_labelLayer
10
44.2966775
20
154.4246287
40
4.9546266
50
74.2393364
51
90.5623784
0
ARC
8
back_labelLayer
10
44.6242936
20
155.6265047
40
3.7089652
50
38.563135
51
74.0670337
0
ARC
8
back_labelLayer
10
43.7811887
20
154.9709425
40
4.776887
50
16.4709282
51
38.4075249
0
ARC
8
back_labelLayer
10
41.3523335
20
154.2093236
40
7.3221308
50
5.1338483
51
16.7973468
0
ARC
8
back_labelLayer
10
38.2860763
20
153.8836053
40
10.4053536
50
359.8779407
51
5.4093585
0
ARC
8
back_labelLayer
10
39.1867078
20
153.8053634
40
9.5048639
50
350.6562881
51
0.3380252
0
ARC
8
back_labelLayer
10
42.5002613
20
153.2417664
40
6.1437972
50
335.8306022
51
350.8254751
0
ARC
8
back_labelLayer
10
43.9578448
20
152.6126521
40
4.5564622
50
321.3161305
51
335.5436301
0
ARC
8
back_labelLayer
10
44.5150752
20
152.1585923
40
3.8376919
50
274.0640061
51
321.4081015
0
ARC
8
back_labelLayer
10
44.2554747
20
153.8030045
40
5.4982118
50
269.9225965
51
275.5481661
0
ARC
8
back_labelLayer
10
44.2207101
20
153.2218541
40
4.9171322
50
255.7755416
51
270.3185374
0
ARC
8
back_labelLayer
10
44.0803944
20
152.5984365
40
4.2783843
50
245.9801859
51
255.5455587
0
ARC
8
back_labelLayer
10
43.8086003
20
151.9663728
40
3.5904312
50
215.5850261
51
245.8361642
0
ARC
8
back_labelLayer
10
7.0900958
20
159.9754433
40
33.7985882
50
358.1123236
51
0.0484378
0
ARC
8
back_labelLayer
10
16.4970011
20
159.6596271
40
24.3863854
50
355.7238501
51
358.1259023
0
ARC
8
back_labelLayer
10
20.6558653
20
159.3737435
40
20.2177974
50
355.4715177
51
355.6529673
0
ARC
8
back_labelLayer
10
43.9119411
20
155.6692469
40
3.6857421
50
95.1835136
51
145.1108959
0
ARC
8
back_labelLayer
10
44.2359053
20
153.8423621
40
5.5366677
50
89.8743539
51
96.8145168
0
ARC
8
back_labelLayer
10
43.9797325
20
153.4663119
40
4.5554093
50
89.5731223
51
100.7324143
0
ARC
8
back_labelLayer
10
43.6425047
20
155.1701038
40
2.8186562
50
100.4469271
51
119.6700806
0
ARC
8
back_labelLayer
10
43.3297942
20
155.7547523
40
2.1559401
50
120.1402874
51
142.4248999
0
ARC
8
back_labelLayer
10
43.847151
20
155.4125044
40
2.7750293
50
143.3382417
51
161.2559929
0
ARC
8
back_labelLayer
10
46.0106157
20
154.6444
40
5.070677
50
160.8926193
51
171.2334482
0
ARC
8
back_labelLayer
10
49.6223319
20
154.061745
40
8.7290381
50
171.0667895
51
177.8456849
0
ARC
8
back_labelLayer
10
53.3782991
20
153.870715
40
12.4896305
50
177.6176676
51
180.042556
0
ARC
8
back_labelLayer
10
51.6071483
20
153.8195844
40
10.7185581
50
179.7762696
51
185.7075172
0
ARC
8
back_labelLayer
10
47.3811629
20
153.3841575
40
6.4702325
50
185.5924625
51
194.2050865
0
ARC
8
back_labelLayer
10
44.6740959
20
152.6815766
40
3.6735677
50
193.9430285
51
208.0218386
0
ARC
8
back_labelLayer
10
43.5788007
20
152.1243686
40
2.4449999
50
208.5536273
51
217.560509
0
ARC
8
back_labelLayer
10
43.4895636
20
152.087254
40
2.3517682
50
218.1690497
51
253.8047105
0
ARC
8
back_labelLayer
10
43.9257689
20
153.4321185
40
3.7651815
50
253.1382373
51
266.8483309
0
ARC
8
back_labelLayer
10
44.04809
20
154.8746562
40
5.2124386
50
266.3775722
51
270.0510514
0
ARC
8
back_labelLayer
10
44.0873142
20
152.8936739
40
3.2316392
50
269.3869014
51
285.8630523
0
ARC
8
back_labelLayer
10
44.3274047
20
152.0259509
40
2.3313432
50
286.0162899
51
326.849735
0
ARC
8
back_labelLayer
10
43.1686045
20
152.7936133
40
3.7213332
50
326.7105084
51
343.6661789
0
ARC
8
back_labelLayer
10
40.9993961
20
153.4564532
40
5.9894605
50
343.4171354
51
353.6369032
0
ARC
8
back_labelLayer
10
37.7230414
20
153.8452135
40
9.288746
50
353.4934852
51
0.2205553
0
ARC
8
back_labelLayer
10
37.434222
20
153.9197357
40
9.5775752
50
359.7680902
51
6.3095251
0
ARC
8
back_labelLayer
10
41.0419156
20
154.3337409
40
5.9462546
50
6.1648601
51
16.0396518
0
ARC
8
back_labelLayer
10
43.3659209
20
155.0186273
40
3.5235221
50
15.7779193
51
32.0151484
0
ARC
8
back_labelLayer
10
44.0904845
20
155.4335481
40
2.6893853
50
32.70347
51
35.5241319
0
ARC
8
back_labelLayer
10
44.3556744
20
155.6220279
40
2.3640397
50
35.5408356
51
79.8011276
0
ARC
8
back_labelLayer
10
44.0382087
20
154.2724222
40
3.7492528
50
78.6781247
51
90.3749718
0
LINE
8
back_labelLayer
10
59.3066406
20
148.5001103
11
58.1054688
21
148.5001103
0
LINE
8
back_labelLayer
10
58.1054688
20
148.5001103
11
57.7832031
21
150.0235478
0
LINE
8
back_labelLayer
10
57.7832031
20
150.0235478
11
57.7050781
21
150.0235478
0
LINE
8
back_labelLayer
10
55.9082031
20
154.8575322
11
57.7246094
21
154.9161259
0
LINE
8
back_labelLayer
10
57.7246094
20
154.9161259
11
57.7246094
21
155.5801884
0
LINE
8
back_labelLayer
10
52.421875
20
157.2208134
11
51.9238281
21
158.4610478
0
LINE
8
back_labelLayer
10
59.3066406
20
155.8047978
11
59.3066406
21
148.5001103
0
LINE
8
back_labelLayer
10
57.6855469
20
152.7969853
11
57.6855469
21
153.7637822
0
LINE
8
back_labelLayer
10
57.6855469
20
153.7637822
11
56.0644531
21
153.6954228
0
ARC
8
back_labelLayer
10
52.4306644
20
154.1879571
40
6.7202489
50
314.7445074
51
321.7071704
0
ARC
8
back_labelLayer
10
54.0817415
20
152.5103331
40
4.3664493
50
304.8485428
51
314.8530978
0
ARC
8
back_labelLayer
10
54.8748672
20
151.3813971
40
2.986777
50
294.3932694
51
304.7371559
0
ARC
8
back_labelLayer
10
54.6038997
20
152.0834926
40
3.7383563
50
281.2979431
51
293.7313825
0
ARC
8
back_labelLayer
10
54.2456914
20
153.8195485
40
5.5109586
50
272.9335174
51
281.4139131
0
ARC
8
back_labelLayer
10
54.1269653
20
155.6000298
40
7.2952343
50
269.9538855
51
273.1491107
0
ARC
8
back_labelLayer
10
54.0859498
20
153.279584
40
4.9749103
50
258.6719639
51
270.4047542
0
ARC
8
back_labelLayer
10
53.7403872
20
151.6265524
40
3.2862349
50
238.3273137
51
258.9183621
0
ARC
8
back_labelLayer
10
53.5022473
20
151.1920954
40
2.7915621
50
227.7689348
51
237.8050187
0
ARC
8
back_labelLayer
10
53.4277627
20
151.0881164
40
2.6645499
50
192.0827618
51
227.4520837
0
ARC
8
back_labelLayer
10
54.8014924
20
151.4267548
40
4.0789644
50
179.5457285
51
192.694943
0
ARC
8
back_labelLayer
10
53.5253096
20
151.5744445
40
2.8050261
50
115.4904649
51
182.3568121
0
ARC
8
back_labelLayer
10
54.9300973
20
148.9977752
40
5.7376476
50
101.3568205
51
117.0798671
0
ARC
8
back_labelLayer
10
56.0582719
20
143.7257077
40
11.1288529
50
92.4696269
51
101.7064866
0
ARC
8
back_labelLayer
10
56.3824904
20
139.03036
40
15.8342771
50
91.7164487
51
92.9096216
0
ARC
8
back_labelLayer
10
53.0684989
20
155.60511
40
4.6561772
50
359.693331
51
8.0035628
0
ARC
8
back_labelLayer
10
54.8298384
20
155.8616989
40
2.8762816
50
7.8272679
51
20.6041502
0
ARC
8
back_labelLayer
10
55.8265519
20
156.24299
40
1.8091542
50
20.4094277
51
41.4479322
0
ARC
8
back_labelLayer
10
55.9738197
20
156.3239384
40
1.6455973
50
42.729564
51
71.0380389
0
ARC
8
back_labelLayer
10
55.627111
20
155.3812322
40
2.6498947
50
70.5716248
51
83.9928856
0
ARC
8
back_labelLayer
10
55.4614756
20
154.035819
40
4.0053257
50
83.6506279
51
90.1753328
0
ARC
8
back_labelLayer
10
55.4905285
20
152.7633669
40
5.2779207
50
90.4484524
51
103.7665593
0
ARC
8
back_labelLayer
10
56.1111829
20
150.1460332
40
7.9677873
50
103.6226473
51
112.4320058
0
ARC
8
back_labelLayer
10
57.1750748
20
147.4597886
40
10.8568188
50
112.2122283
51
115.9640928
0
ARC
8
back_labelLayer
10
55.4713502
20
151.8822077
40
7.4743595
50
106.3568646
51
118.3349734
0
ARC
8
back_labelLayer
10
55.7896822
20
150.8988828
40
8.5075819
50
104.5161895
51
106.5489699
0
ARC
8
back_labelLayer
10
55.5562371
20
151.8715425
40
7.5074799
50
90.0714502
51
104.652096
0
ARC
8
back_labelLayer
10
55.5856983
20
152.5325074
40
6.8466192
50
81.5679788
51
90.3248934
0
ARC
8
back_labelLayer
10
55.9815605
20
155.1114421
40
4.2375352
50
68.2273377
51
81.7494148
0
ARC
8
back_labelLayer
10
56.5329279
20
156.4832925
40
2.7590347
50
47.8683409
51
68.2933994
0
ARC
8
back_labelLayer
10
56.6224197
20
156.6619777
40
2.567044
50
19.2330911
51
46.6741267
0
ARC
8
back_labelLayer
10
55.1316912
20
156.1074223
40
4.157374
50
6.3379111
51
19.6815496
0
ARC
8
back_labelLayer
10
52.9280519
20
155.8267669
40
6.3786266
50
359.8026633
51
6.658371
0
ARC
8
back_labelLayer
10
54.4761385
20
154.1059151
40
4.4633471
50
269.5792127
51
282.0413547
0
ARC
8
back_labelLayer
10
54.8017091
20
152.6618203
40
2.9831557
50
281.7120864
51
306.4593916
0
ARC
8
back_labelLayer
10
54.9460938
20
152.4243809
40
2.7065025
50
306.9880823
51
313.8559907
0
ARC
8
back_labelLayer
10
54.9288957
20
152.419491
40
2.7149381
50
314.1892061
51
347.4269792
0
ARC
8
back_labelLayer
10
53.5689102
20
152.7602966
40
4.1166607
50
346.9177645
51
0.2824482
0
ARC
8
back_labelLayer
10
52.5226294
20
152.7970382
40
5.1629176
50
359.817467
51
359.9994127
0
ARC
8
back_labelLayer
10
56.4500662
20
141.7985913
40
11.9030793
50
91.8564832
51
96.4478262
0
ARC
8
back_labelLayer
10
55.9132738
20
146.4436288
40
7.2271525
50
96.3545423
51
102.9953068
0
ARC
8
back_labelLayer
10
55.184616
20
149.5394904
40
4.0467499
50
102.7995585
51
113.24332
0
ARC
8
back_labelLayer
10
54.5839333
20
150.9760909
40
2.4897418
50
113.5886443
51
121.680458
0
ARC
8
back_labelLayer
10
54.1665917
20
151.6116959
40
1.7297996
50
120.9734105
51
172.4179761
0
ARC
8
back_labelLayer
10
54.9823049
20
151.4487613
40
2.5604465
50
171.2121897
51
180.2058228
0
ARC
8
back_labelLayer
10
54.7385229
20
151.4204208
40
2.316727
50
179.5265724
51
192.7787214
0
ARC
8
back_labelLayer
10
53.9548163
20
151.2304473
40
1.510459
50
192.326445
51
222.0579919
0
ARC
8
back_labelLayer
10
53.8965274
20
151.19559
40
1.4438911
50
222.5804588
51
229.2546163
0
ARC
8
back_labelLayer
10
54.0935082
20
151.4492005
40
1.7646752
50
229.7836963
51
254.2724368
0
ARC
8
back_labelLayer
10
54.3558684
20
152.3234906
40
2.6773946
50
253.9396744
51
266.4533722
0
ARC
8
back_labelLayer
10
54.4396009
20
153.2885805
40
3.6458941
50
266.0782346
51
270.0590643
0
LINE
8
back_labelLayer
10
69.7851563
20
158.8419072
11
69.2871094
21
157.4649541
0
LINE
8
back_labelLayer
10
69.6289063
20
150.2969853
11
69.6289063
21
148.8614384
0
ARC
8
back_labelLayer
10
66.8721212
20
154.3632527
40
6.0586755
50
256.4243755
51
270.4889884
0
ARC
8
back_labelLayer
10
66.3879769
20
152.4736772
40
4.1083396
50
221.7976345
51
256.8020472
0
ARC
8
back_labelLayer
10
66.8568144
20
152.8200827
40
4.6890531
50
196.0166575
51
221.1349271
0
ARC
8
back_labelLayer
10
69.2131655
20
153.5403047
40
7.1527796
50
183.591376
51
196.3539497
0
ARC
8
back_labelLayer
10
71.8527904
20
153.7728497
40
9.8020146
50
179.9388361
51
183.9815029
0
ARC
8
back_labelLayer
10
70.9951545
20
153.8409023
40
8.9445587
50
169.897846
51
180.3688969
0
ARC
8
back_labelLayer
10
67.8813448
20
154.4169111
40
5.7780272
50
153.0875059
51
170.1051419
0
ARC
8
back_labelLayer
10
66.6999074
20
154.9814342
40
4.4691314
50
138.6550063
51
152.6853485
0
ARC
8
back_labelLayer
10
66.479401
20
155.1421245
40
4.1975112
50
101.491292
51
138.3133869
0
ARC
8
back_labelLayer
10
66.9856242
20
153.0352793
40
6.3634321
50
89.5891859
51
102.1787782
0
ARC
8
back_labelLayer
10
67.0245506
20
152.0830162
40
7.3155347
50
77.7702363
51
89.9475301
0
ARC
8
back_labelLayer
10
66.886083
20
151.31911
40
8.0914803
50
74.6797009
51
77.9578473
0
ARC
8
back_labelLayer
10
67.6340573
20
154.0288783
40
5.2803836
50
70.094526
51
74.7386567
0
ARC
8
back_labelLayer
10
68.3454669
20
155.9784898
40
3.2050414
50
63.5034027
51
70.1861249
0
ARC
8
back_labelLayer
10
68.6860924
20
156.6915361
40
2.4149612
50
62.9282302
51
63.1884379
0
ARC
8
back_labelLayer
10
66.6240678
20
150.763004
40
7.211652
50
68.3294412
51
74.8831264
0
ARC
8
back_labelLayer
10
66.2436553
20
149.4141402
40
8.6130607
50
74.7801496
51
77.4497675
0
ARC
8
back_labelLayer
10
66.643055
20
151.2888765
40
6.6963547
50
77.2999021
51
81.7345291
0
ARC
8
back_labelLayer
10
66.934401
20
153.3189822
40
4.6454542
50
81.6910151
51
87.507921
0
ARC
8
back_labelLayer
10
66.9906145
20
154.3695998
40
3.5934013
50
87.674992
51
89.9749185
0
ARC
8
back_labelLayer
10
66.9118247
20
154.368077
40
3.595822
50
88.7193937
51
112.5667715
0
ARC
8
back_labelLayer
10
66.6563178
20
155.2128493
40
2.7191105
50
114.4265782
51
161.6632806
0
ARC
8
back_labelLayer
10
69.1945379
20
154.2193636
40
5.4429205
50
160.1418489
51
175.1368044
0
ARC
8
back_labelLayer
10
72.6880099
20
153.8270714
40
8.9575739
50
174.5309675
51
180.1549624
0
ARC
8
back_labelLayer
10
71.5812657
20
153.762305
40
7.8509016
50
179.7041402
51
188.0743723
0
ARC
8
back_labelLayer
10
68.7534707
20
153.348568
40
4.9930426
50
187.9315309
51
200.3885334
0
ARC
8
back_labelLayer
10
67.2244558
20
152.7821479
40
3.3624863
50
200.4183568
51
216.6392549
0
ARC
8
back_labelLayer
10
66.5834497
20
152.3239089
40
2.5747147
50
216.9695228
51
261.3103146
0
ARC
8
back_labelLayer
10
66.8663379
20
153.6427794
40
3.9220093
50
260.1359453
51
270.2692071
0
ARC
8
back_labelLayer
10
66.8532793
20
156.5068346
40
6.7860942
50
270.2658436
51
286.2891424
0
ARC
8
back_labelLayer
10
66.4407403
20
158.0453351
40
8.3786232
50
286.0460598
51
292.3653954
0
ARC
8
back_labelLayer
10
67.5393972
20
152.972001
40
4.6111574
50
282.0344333
51
296.9454504
0
ARC
8
back_labelLayer
10
67.0651709
20
155.1091529
40
6.8002402
50
272.5980445
51
282.1878533
0
ARC
8
back_labelLayer
10
66.9291798
20
157.1947576
40
8.8899615
50
269.9655087
51
272.8643089
0
LINE
8
back_labelLayer
10
73.6914063
20
153.9786259
11
73.7695313
21
153.9786259
0
LINE
8
back_labelLayer
10
75.0488281
20
155.5411259
11
78.5058594
21
159.2032353
0
LINE
8
back_labelLayer
10
78.5058594
20
159.2032353
11
80.4296875
21
159.2032353
0
LINE
8
back_labelLayer
10
80.4296875
20
159.2032353
11
76.09375
21
154.6426884
0
LINE
8
back_labelLayer
10
76.09375
20
154.6426884
11
80.7324219
21
148.5001103
0
LINE
8
back_labelLayer
10
80.7324219
20
148.5001103
11
78.7695313
21
148.5001103
0
LINE
8
back_labelLayer
10
78.7695313
20
148.5001103
11
74.9902344
21
153.5587041
0
LINE
8
back_labelLayer
10
74.9902344
20
153.5587041
11
73.7695313
21
152.5040166
0
LINE
8
back_labelLayer
10
73.7695313
20
152.5040166
11
73.7695313
21
148.5001103
0
LINE
8
back_labelLayer
10
73.7695313
20
148.5001103
11
72.1679688
21
148.5001103
0
LINE
8
back_labelLayer
10
72.1679688
20
148.5001103
11
72.1679688
21
163.6954228
0
LINE
8
back_labelLayer
10
72.1679688
20
163.6954228
11
73.7695313
21
163.6954228
0
LINE
8
back_labelLayer
10
73.7695313
20
163.6954228
11
73.7695313
21
155.6387822
0
ARC
8
back_labelLayer
10
81.6025346
20
148.434094
40
9.5967586
50
142.3233918
51
144.7075212
0
ARC
8
back_labelLayer
10
86.7127593
20
144.492464
40
16.0505045
50
140.4331061
51
142.3365832
0
ARC
8
back_labelLayer
10
93.3726946
20
139.0101636
40
24.6766385
50
139.2798925
51
140.470333
0
ARC
8
back_labelLayer
10
101.073863
20
132.387678
40
34.8336703
50
138.3417705
51
139.2877062
0
ARC
8
back_labelLayer
10
62.9667222
20
155.6590068
40
10.802828
50
358.2738882
51
359.8927332
0
ARC
8
back_labelLayer
10
54.5606473
20
155.8932771
40
19.2121548
50
357.5041933
51
358.3306763
0
ARC
8
back_labelLayer
10
41.9839581
20
156.4487927
40
31.8011053
50
356.6324975
51
357.4910035
0
ARC
8
back_labelLayer
10
21.0766685
20
157.6681531
40
52.7439211
50
356.0329142
51
356.6442762
0
ARC
8
back_labelLayer
10
6.4751586
20
158.6546298
40
67.378698
50
356.0205403
51
356.0550821
0
LINE
8
right_outsideCutPath
10
127
20
206
11
127
21
193.5
0
LINE
8
right_outsideCutPath
10
127
20
193.5
11
123
21
193.5
0
LINE
8
right_outsideCutPath
10
123
20
193.5
11
123
21
178.5
0
LINE
8
right_outsideCutPath
10
123
20
178.5
11
127
21
178.5
0
LINE
8
right_outsideCutPath
10
127
20
178.5
11
127
21
163.5
0
LINE
8
right_outsideCutPath
10
127
20
163.5
11
123
21
163.5
0
LINE
8
right_outsideCutPath
10
123
20
163.5
11
123
21
148.5
0
LINE
8
right_outsideCutPath
10
123
20
148.5
11
127
21
148.5
0
LINE
8
right_outsideCutPath
10
127
20
148.5
11
127
21
133.5
0
LINE
8
right_outsideCutPath
10
127
20
133.5
11
123
21
133.5
0
LINE
8
right_outsideCutPath
10
123
20
133.5
11
123
21
118.5
0
LINE
8
right_outsideCutPath
10
123
20
118.5
11
127
21
118.5
0
LINE
8
right_outsideCutPath
10
127
20
118.5
11
127
21
106
0
LINE
8
right_outsideCutPath
10
127
20
106
11
140.5
21
106
0
LINE
8
right_outsideCutPath
10
140.5
20
106
11
140.5
21
110
0
LINE
8
right_outsideCutPath
10
140.5
20
110
11
155.5
21
110
0
LINE
8
right_outsideCutPath
10
155.5
20
110
11
155.5
21
106
0
LINE
8
right_outsideCutPath
10
155.5
20
106
11
170.5
21
106
0
LINE
8
right_outsideCutPath
10
170.5
20
106
11
170.5
21
110
0
LINE
8
right_outsideCutPath
10
170.5
20
110
11
185.5
21
110
0
LINE
8
right_outsideCutPath
10
185.5
20
110
11
185.5
21
106
0
LINE
8
right_outsideCutPath
10
185.5
20
106
11
200.5
21
106
0
LINE
8
right_outsideCutPath
10
200.5
20
106
11
200.5
21
110
0
LINE
8
right_outsideCutPath
10
200.5
20
110
11
215.5
21
110
0
LINE
8
right_outsideCutPath
10
215.5
20
110
11
215.5
21
106
0
LINE
8
right_outsideCutPath
10
215.5
20
106
11
230.5
21
106
0
LINE
8
right_outsideCutPath
10
230.5
20
106
11
230.5
21
110
0
LINE
8
right_outsideCutPath
10
230.5
20
110
11
245.5
21
110
0
LINE
8
right_outsideCutPath
10
245.5
20
110
11
245.5
21
106
0
LINE
8
right_outsideCutPath
10
245.5
20
106
11
260.5
21
106
0
LINE
8
right_outsideCutPath
10
260.5
20
106
11
260.5
21
110
0
LINE
8
right_outsideCutPath
10
260.5
20
110
11
275.5
21
110
0
LINE
8
right_outsideCutPath
10
275.5
20
110
11
275.5
21
106
0
LINE
8
right_outsideCutPath
10
275.5
20
106
11
290.5
21
106
0
LINE
8
right_outsideCutPath
10
290.5
20
106
11
290.5
21
110
0
LINE
8
right_outsideCutPath
10
290.5
20
110
11
305.5
21
110
0
LINE
8
right_outsideCutPath
10
305.5
20
110
11
305.5
21
106
0
LINE
8
right_outsideCutPath
10
305.5
20
106
11
319
21
106
0
LINE
8
right_outsideCutPath
10
319
20
106
11
319
21
118.5
0
LINE
8
right_outsideCutPath
10
319
20
118.5
11
323
21
118.5
0
LINE
8
right_outsideCutPath
10
323
20
118.5
11
323
21
133.5
0
LINE
8
right_outsideCutPath
10
323
20
133.5
11
319
21
133.5
0
LINE
8
right_outsideCutPath
10
319
20
133.5
11
319
21
148.5
0
LINE
8
right_outsideCutPath
10
319
20
148.5
11
323
21
148.5
0
LINE
8
right_outsideCutPath
10
323
20
148.5
11
323
21
163.5
0
LINE
8
right_outsideCutPath
10
323
20
163.5
11
319
21
163.5
0
LINE
8
right_outsideCutPath
10
319
20
163.5
11
319
21
178.5
0
LINE
8
right_outsideCutPath
10
319
20
178.5
11
323
21
178.5
0
LINE
8
right_outsideCutPath
10
323
20
178.5
11
323
21
193.5
0
LINE
8
right_outsideCutPath
10
323
20
193.5
11
319
21
193.5
0
LINE
8
right_outsideCutPath
10
319
20
193.5
11
319
21
206
0
LINE
8
right_outsideCutPath
10
319
20
206
11
127
21
206
0
LINE
8
right_labelLayer
10
208.4736328
20
161.5859965
11
208.2490234
21
160.0820902
0
LINE
8
right_labelLayer
10
203.9326172
20
156.546934
11
203.9326172
21
150.8047465
0
LINE
8
right_labelLayer
10
203.9326172
20
150.8047465
11
202.3115234
21
150.8047465
0
LINE
8
right_labelLayer
10
202.3115234
20
150.8047465
11
202.3115234
21
161.5078715
0
LINE
8
right_labelLayer
10
202.3115234
20
161.5078715
11
203.6494141
21
161.5078715
0
LINE
8
right_labelLayer
10
203.6494141
20
161.5078715
11
203.8349609
21
159.5254496
0
LINE
8
right_labelLayer
10
203.8349609
20
159.5254496
11
203.9130859
21
159.5254496
0
ARC
8
right_labelLayer
10
207.2109731
20
154.2609915
40
7.4422111
50
84.992291
51
90.1280853
0
ARC
8
right_labelLayer
10
207.3897017
20
156.263446
40
5.4317999
50
78.4891881
51
85.0266001
0
ARC
8
right_labelLayer
10
206.6959917
20
153.1082823
40
7.1446416
50
77.4453847
51
81.6360114
0
ARC
8
right_labelLayer
10
207.0072803
20
155.2539438
40
4.9765227
50
81.5884291
51
87.1916446
0
ARC
8
right_labelLayer
10
207.074891
20
156.4262208
40
3.8023544
50
87.3437351
51
89.9659832
0
ARC
8
right_labelLayer
10
207.0591828
20
157.4197569
40
2.8088752
50
89.6335332
51
137.0880824
0
ARC
8
right_labelLayer
10
207.7484147
20
156.6446749
40
3.8426618
50
135.6208614
51
138.8378137
0
ARC
8
right_labelLayer
10
207.6475217
20
156.7431608
40
3.7018901
50
138.9575794
51
174.5422254
0
ARC
8
right_labelLayer
10
208.8531895
20
156.5545133
40
4.9205781
50
173.6907914
51
180.0882543
0
ARC
8
right_labelLayer
10
208.6826861
20
156.838279
40
5.4744836
50
139.4139283
51
150.6032915
0
ARC
8
right_labelLayer
10
207.7011144
20
157.6793819
40
4.1818363
50
124.2321574
51
139.4160923
0
ARC
8
right_labelLayer
10
207.1762687
20
158.471632
40
3.2316024
50
89.6796684
51
124.4405593
0
LINE
8
right_labelLayer
10
212.0966797
20
161.5078715
11
212.0966797
21
150.8047465
0
LINE
8
right_labelLayer
10
212.0966797
20
150.8047465
11
210.4755859
21
150.8047465
0
LINE
8
right_labelLayer
10
210.4755859
20
150.8047465
11
210.4755859
21
161.5078715
0
LINE
8
right_labelLayer
10
210.4755859
20
161.5078715
11
212.0966797
21
161.5078715
0
ARC
8
right_labelLayer
10
212.1352002
20
164.4193747
40
1.7963674
50
170.84516
51
180.354443
0
ARC
8
right_labelLayer
10
211.4627107
20
164.5318181
40
1.1145614
50
155.96784
51
171.0516068
0
ARC
8
right_labelLayer
10
211.1369972
20
164.676319
40
0.7582342
50
133.7880515
51
155.9170999
0
ARC
8
right_labelLayer
10
211.2572495
20
164.5433735
40
0.9374362
50
92.6445969
51
133.4710463
0
ARC
8
right_labelLayer
10
211.2952373
20
164.2449592
40
1.2375218
50
89.969388
51
93.7640939
0
ARC
8
right_labelLayer
10
211.3106995
20
164.5274675
40
0.955128
50
46.3708278
51
90.8879141
0
ARC
8
right_labelLayer
10
211.4057574
20
164.625602
40
0.8185082
50
17.7252267
51
46.4473562
0
ARC
8
right_labelLayer
10
210.9624771
20
164.4729548
40
1.2872609
50
4.9427611
51
18.1900435
0
ARC
8
right_labelLayer
10
210.3986025
20
164.4119934
40
1.854331
50
359.8847085
51
5.3182096
0
ARC
8
right_labelLayer
10
210.5756929
20
164.3968732
40
1.6772754
50
349.8345182
51
0.3890488
0
ARC
8
right_labelLayer
10
211.1863228
20
164.2829624
40
1.0561358
50
332.6322522
51
350.070587
0
ARC
8
right_labelLayer
10
211.4239914
20
164.1656033
40
0.7911343
50
313.6153551
51
332.2677738
0
ARC
8
right_labelLayer
10
211.3094523
20
164.2698955
40
0.9457148
50
269.1788142
51
314.2807511
0
ARC
8
right_labelLayer
10
211.2851545
20
164.3539714
40
1.0297497
50
250.5000439
51
270.5978105
0
ARC
8
right_labelLayer
10
211.2539904
20
164.2374378
40
0.9095473
50
225.1300523
51
249.9001405
0
ARC
8
right_labelLayer
10
211.2051983
20
164.1835405
40
0.8369342
50
197.7933491
51
224.8942061
0
ARC
8
right_labelLayer
10
211.6618577
20
164.3400336
40
1.3196052
50
184.9925272
51
198.2040554
0
ARC
8
right_labelLayer
10
212.2528838
20
164.4042737
40
1.9140208
50
179.8806098
51
185.368566
0
LINE
8
right_labelLayer
10
220.5927734
20
161.5078715
11
224.2939453
21
161.5078715
0
LINE
8
right_labelLayer
10
224.2939453
20
161.5078715
11
224.2939453
21
160.4824808
0
LINE
8
right_labelLayer
10
224.2939453
20
160.4824808
11
222.3115234
21
160.2481058
0
LINE
8
right_labelLayer
10
218.6591797
20
152.5039652
11
220.5537109
21
152.5039652
0
LINE
8
right_labelLayer
10
220.0361328
20
151.0488871
11
218.0927734
21
151.0488871
0
ARC
8
right_labelLayer
10
220.2457144
20
158.6132451
40
2.6344519
50
29.4583912
51
38.3577421
0
ARC
8
right_labelLayer
10
219.1691082
20
157.9986554
40
3.874121
50
23.1845822
51
29.5421815
0
ARC
8
right_labelLayer
10
218.1419093
20
157.5431305
40
4.997723
50
21.2506855
51
23.3489206
0
ARC
8
right_labelLayer
10
219.8879468
20
158.2375399
40
3.1187547
50
6.8504735
51
20.9872
0
ARC
8
right_labelLayer
10
219.0095809
20
158.1184446
40
4.0050778
50
359.8710952
51
7.0432407
0
ARC
8
right_labelLayer
10
219.2985676
20
158.070793
40
3.7162817
50
342.5649726
51
0.5957577
0
ARC
8
right_labelLayer
10
219.983963
20
157.8815291
40
3.0057696
50
310.6097754
51
342.0923762
0
ARC
8
right_labelLayer
10
219.5996172
20
158.3285942
40
3.5953358
50
284.9315915
51
310.6222663
0
ARC
8
right_labelLayer
10
219.1186565
20
160.0139454
40
5.3477935
50
272.5334957
51
285.257977
0
ARC
8
right_labelLayer
10
218.9949931
20
161.7031846
40
7.0410173
50
269.9692232
51
272.9311949
0
ARC
8
right_labelLayer
10
218.9796499
20
159.8721008
40
5.2099453
50
263.4836855
51
270.1271415
0
ARC
8
right_labelLayer
10
218.8947813
20
159.0659981
40
4.3994247
50
259.4963395
51
263.3904223
0
ARC
8
right_labelLayer
10
219.4200129
20
152.179081
40
2.8846791
50
117.3935299
51
128.4095265
0
ARC
8
right_labelLayer
10
218.6773789
20
153.1003731
40
1.7014082
50
128.0881899
51
147.1400598
0
ARC
8
right_labelLayer
10
218.2772978
20
153.368858
40
1.2196931
50
147.5369239
51
180.2592022
0
ARC
8
right_labelLayer
10
217.8977479
20
153.3529568
40
0.8401949
50
179.291902
51
198.3580478
0
ARC
8
right_labelLayer
10
217.7404361
20
153.3116135
40
0.6779462
50
199.2291438
51
239.5690898
0
ARC
8
right_labelLayer
10
217.8707957
20
153.4917189
40
0.8995167
50
238.2200043
51
239.8460148
0
ARC
8
right_labelLayer
10
217.9749236
20
153.7058924
40
1.1371495
50
240.7301941
51
254.5027091
0
ARC
8
right_labelLayer
10
218.28529
20
154.7754
40
2.2507401
50
254.1636876
51
262.2122981
0
ARC
8
right_labelLayer
10
218.5311249
20
156.4924505
40
3.9852803
50
262.0555586
51
267.2083598
0
ARC
8
right_labelLayer
10
218.649889
20
158.6707901
40
6.1668318
50
267.0919511
51
270.0863196
0
ARC
8
right_labelLayer
10
220.5891476
20
145.8682378
40
6.635822
50
81.5744259
51
90.3059724
0
ARC
8
right_labelLayer
10
220.9531372
20
148.2421106
40
4.2342546
50
68.367136
51
81.7399222
0
ARC
8
right_labelLayer
10
221.4285434
20
149.4570733
40
2.9296117
50
52.1879624
51
68.2500955
0
ARC
8
right_labelLayer
10
221.7611951
20
149.9052999
40
2.3715914
50
8.6201447
51
51.898241
0
ARC
8
right_labelLayer
10
220.5953033
20
149.6586094
40
3.5619591
50
359.7430778
51
9.7326305
0
ARC
8
right_labelLayer
10
220.6475253
20
149.5985216
40
3.5099785
50
340.5268782
51
0.720146
0
ARC
8
right_labelLayer
10
221.1632266
20
149.4701182
40
2.9814051
50
302.9903718
51
339.5494545
0
ARC
8
right_labelLayer
10
220.6210276
20
150.1593159
40
3.8555242
50
303.1871148
51
304.1720169
0
ARC
8
right_labelLayer
10
220.1173545
20
151.0315523
40
4.8615076
50
286.254211
51
302.5280183
0
ARC
8
right_labelLayer
10
219.1992089
20
154.0600161
40
8.0259813
50
276.4939772
51
286.4953662
0
ARC
8
right_labelLayer
10
218.6263399
20
158.8488822
40
12.8489412
50
269.7545176
51
276.6169549
0
ARC
8
right_labelLayer
10
218.5285043
20
155.0825184
40
9.0825602
50
262.5634818
51
270.2699014
0
ARC
8
right_labelLayer
10
218.0836576
20
151.7853262
40
5.7555434
50
251.2102012
51
262.7064068
0
ARC
8
right_labelLayer
10
217.4424834
20
149.9033831
40
3.767375
50
235.966797
51
251.2229064
0
ARC
8
right_labelLayer
10
216.7628952
20
148.93388
40
2.5836695
50
208.9036115
51
236.4231609
0
ARC
8
right_labelLayer
10
216.8252833
20
148.9077284
40
2.6261819
50
182.2079755
51
207.7461672
0
ARC
8
right_labelLayer
10
217.6194471
20
148.987056
40
3.4231584
50
179.9785049
51
183.0226599
0
ARC
8
right_labelLayer
10
216.6746382
20
149.0318278
40
2.4787307
50
138.391614
51
181.0052658
0
ARC
8
right_labelLayer
10
216.936396
20
148.7965852
40
2.8306574
50
113.8121401
51
138.3496206
0
ARC
8
right_labelLayer
10
217.4329196
20
147.7243837
40
4.0121099
50
102.2870907
51
114.1172764
0
ARC
8
right_labelLayer
10
217.276901
20
153.1755483
40
1.6824853
50
216.5861576
51
245.4968502
0
ARC
8
right_labelLayer
10
217.517679
20
153.3798314
40
1.9976852
50
215.4650457
51
217.1747138
0
ARC
8
right_labelLayer
10
217.1165759
20
153.0901191
40
1.5029096
50
182.1767501
51
215.3415496
0
ARC
8
right_labelLayer
10
217.4738967
20
153.1284392
40
1.8615921
50
179.9838091
51
182.937617
0
ARC
8
right_labelLayer
10
217.4660535
20
153.1446357
40
1.853815
50
161.7226125
51
180.4843331
0
ARC
8
right_labelLayer
10
217.262229
20
153.2002517
40
1.6428689
50
144.4963479
51
161.335045
0
ARC
8
right_labelLayer
10
217.8055658
20
152.7953075
40
2.320404
50
132.7259275
51
144.1479182
0
ARC
8
right_labelLayer
10
218.676352
20
151.8654116
40
3.594345
50
125.2212527
51
132.8655526
0
ARC
8
right_labelLayer
10
219.5518309
20
150.6497015
40
5.0924354
50
121.2352449
51
125.3794758
0
ARC
8
right_labelLayer
10
217.9998391
20
157.6290665
40
2.8419075
50
215.1640727
51
247.4747853
0
ARC
8
right_labelLayer
10
218.5303222
20
158.0571898
40
3.5224263
50
212.4714021
51
215.887566
0
ARC
8
right_labelLayer
10
218.3908273
20
157.9573907
40
3.351173
50
183.0160775
51
212.312319
0
ARC
8
right_labelLayer
10
219.1261667
20
158.0393543
40
4.0900342
50
179.9759015
51
183.6206916
0
ARC
8
right_labelLayer
10
219.7195808
20
158.0806338
40
4.683615
50
166.8195875
51
180.4839435
0
ARC
8
right_labelLayer
10
218.1658397
20
158.472919
40
3.0814803
50
132.3287821
51
167.3340828
0
ARC
8
right_labelLayer
10
218.373709
20
158.1741229
40
3.4426821
50
106.2189004
51
131.5377554
0
ARC
8
right_labelLayer
10
218.8996577
20
156.4711407
40
5.2248723
50
93.632975
51
106.5408676
0
ARC
8
right_labelLayer
10
219.0713547
20
154.5435392
40
7.1596488
50
89.9380052
51
94.0267838
0
ARC
8
right_labelLayer
10
219.0991611
20
155.4894799
40
6.2137364
50
82.585225
51
90.1849663
0
ARC
8
right_labelLayer
10
219.2890225
20
156.9584787
40
4.7325197
50
74.0089194
51
82.5694553
0
ARC
8
right_labelLayer
10
217.3867554
20
148.9857284
40
1.6281169
50
179.2207309
51
200.935564
0
ARC
8
right_labelLayer
10
217.193143
20
148.9408972
40
1.4315278
50
202.028675
51
236.1457476
0
ARC
8
right_labelLayer
10
217.4849161
20
149.3113575
40
1.9020601
50
235.0634158
51
238.5041866
0
ARC
8
right_labelLayer
10
217.824176
20
149.917318
40
2.5961346
50
239.106615
51
254.4863067
0
ARC
8
right_labelLayer
10
218.2764728
20
151.4768186
40
4.219834
50
254.2323945
51
263.4937537
0
ARC
8
right_labelLayer
10
218.5605871
20
153.8832019
40
6.6429195
50
263.4108368
51
270.1457377
0
ARC
8
right_labelLayer
10
218.5906895
20
155.4652806
40
8.2249871
50
269.9080095
51
270.0009111
0
ARC
8
right_labelLayer
10
218.6296693
20
158.1380649
40
10.8978408
50
269.7957494
51
275.3991084
0
ARC
8
right_labelLayer
10
219.0375397
20
153.9508652
40
6.6908512
50
275.2957034
51
283.3515941
0
ARC
8
right_labelLayer
10
219.702051
20
151.213867
40
3.8744047
50
283.1370673
51
295.8573119
0
ARC
8
right_labelLayer
10
220.1944185
20
150.1389585
40
2.6924989
50
296.4048133
51
301.800872
0
ARC
8
right_labelLayer
10
220.387477
20
149.8728482
40
2.3647203
50
301.2230954
51
318.6238129
0
ARC
8
right_labelLayer
10
220.8228919
20
149.4706383
40
1.7721859
50
319.0765535
51
1.1406985
0
ARC
8
right_labelLayer
10
220.4015074
20
149.5232944
40
2.193288
50
359.5460775
51
10.9904899
0
ARC
8
right_labelLayer
10
221.2486928
20
149.6956118
40
1.3288113
50
10.6608775
51
30.9361534
0
ARC
8
right_labelLayer
10
221.5173109
20
149.8446848
40
1.0218218
50
31.5095492
51
58.0777723
0
ARC
8
right_labelLayer
10
221.2655513
20
149.3938992
40
1.5377539
50
58.9972155
51
73.8586059
0
ARC
8
right_labelLayer
10
220.7566869
20
147.7280294
40
3.2795218
50
73.4099876
51
81.5906846
0
ARC
8
right_labelLayer
10
220.3255288
20
144.9378407
40
6.102794
50
81.4172367
51
86.575637
0
ARC
8
right_labelLayer
10
220.0613221
20
140.7339935
40
10.3149243
50
86.5054507
51
90.139918
0
ARC
8
right_labelLayer
10
218.0695872
20
147.3225499
40
3.7264093
50
89.6434955
51
100.0209284
0
ARC
8
right_labelLayer
10
217.8353753
20
148.5966364
40
2.4310217
50
99.810277
51
116.8229778
0
ARC
8
right_labelLayer
10
217.6072334
20
149.0777576
40
1.8987691
50
117.2304679
51
130.5023043
0
ARC
8
right_labelLayer
10
217.4900887
20
149.2283167
40
1.7082263
50
130.7944641
51
169.0413514
0
ARC
8
right_labelLayer
10
218.352704
20
149.025168
40
2.5939725
50
168.2580722
51
180.3820499
0
ARC
8
right_labelLayer
10
219.8019445
20
158.055935
40
3.1643417
50
179.5617754
51
191.6528905
0
ARC
8
right_labelLayer
10
218.7017349
20
157.8182313
40
2.0388239
50
191.3555163
51
213.366036
0
ARC
8
right_labelLayer
10
218.4375221
20
157.6656723
40
1.7343473
50
213.9573883
51
227.7971276
0
ARC
8
right_labelLayer
10
218.6673917
20
157.9444687
40
2.0953571
50
228.2620612
51
254.7341401
0
ARC
8
right_labelLayer
10
218.9610679
20
158.9511909
40
3.1439339
50
254.4016282
51
267.4348698
0
ARC
8
right_labelLayer
10
219.0376859
20
159.9787639
40
4.174018
50
267.0154833
51
270.0323008
0
ARC
8
right_labelLayer
10
219.0877649
20
159.3360605
40
3.5316365
50
269.2256931
51
284.3773202
0
ARC
8
right_labelLayer
10
219.5691216
20
157.659008
40
1.788278
50
282.7796683
51
346.4828524
0
ARC
8
right_labelLayer
10
218.1299962
20
158.066651
40
3.2833685
50
345.4362055
51
0.7465961
0
ARC
8
right_labelLayer
10
217.9276957
20
158.1592801
40
3.4857466
50
359.1806438
51
15.0431674
0
ARC
8
right_labelLayer
10
219.5071517
20
158.6200239
40
1.8411661
50
13.9535587
51
77.6673868
0
ARC
8
right_labelLayer
10
219.0539902
20
156.9960842
40
3.5257245
50
76.1095116
51
90.702832
0
ARC
8
right_labelLayer
10
218.9861611
20
157.1201095
40
3.4015226
50
89.5859491
51
101.3333872
0
ARC
8
right_labelLayer
10
218.7430772
20
158.279522
40
2.2169729
50
101.0620478
51
121.9739155
0
ARC
8
right_labelLayer
10
218.572236
20
158.5868511
40
1.8658881
50
122.5210678
51
134.9967093
0
ARC
8
right_labelLayer
10
218.6425819
20
158.544701
40
1.9455358
50
135.5840084
51
163.001576
0
ARC
8
right_labelLayer
10
219.6699682
20
158.2079612
40
3.0265604
50
162.5912073
51
175.7343257
0
ARC
8
right_labelLayer
10
220.9022134
20
158.08657
40
4.2645229
50
175.3393345
51
180.0864289
0
LINE
8
right_labelLayer
10
235.4365234
20
150.8047465
11
233.8154297
21
150.8047465
0
LINE
8
right_labelLayer
10
233.8154297
20
150.8047465
11
233.8154297
21
157.7285746
0
LINE
8
right_labelLayer
10
228.1123047
20
156.4004496
11
228.1123047
21
150.8047465
0
LINE
8
right_labelLayer
10
228.1123047
20
150.8047465
11
226.4912109
21
150.8047465
0
LINE
8
right_labelLayer
10
226.4912109
20
150.8047465
11
226.4912109
21
166.000059
0
LINE
8
right_labelLayer
10
226.4912109
20
166.000059
11
228.1123047
21
166.000059
0
LINE
8
right_labelLayer
10
228.1123047
20
166.000059
11
228.1123047
21
161.4004496
0
LINE
8
right_labelLayer
10
228.0341797
20
160.0234965
11
228.1318359
21
160.0234965
0
LINE
8
right_labelLayer
10
235.4365234
20
157.7871683
11
235.4365234
21
150.8047465
0
ARC
8
right_labelLayer
10
229.2330699
20
157.7548532
40
4.5824351
50
359.6714273
51
8.6877183
0
ARC
8
right_labelLayer
10
230.931464
20
158.0242078
40
2.8628588
50
8.4931172
51
22.6580015
0
ARC
8
right_labelLayer
10
231.7943479
20
158.3827957
40
1.9284334
50
22.7024538
51
42.3419526
0
ARC
8
right_labelLayer
10
231.8913429
20
158.4264271
40
1.8276521
50
43.3791036
51
71.5386098
0
ARC
8
right_labelLayer
10
231.5286364
20
157.4129338
40
2.9039368
50
71.0827882
51
84.3690971
0
ARC
8
right_labelLayer
10
231.3658248
20
156.0286776
40
4.2975682
50
84.0197499
51
90.1510883
0
ARC
8
right_labelLayer
10
231.3195551
20
155.4206932
40
4.9056621
50
89.5919487
51
100.3595241
0
ARC
8
right_labelLayer
10
230.972191
20
157.2461406
40
3.047537
50
100.1068053
51
118.0847271
0
ARC
8
right_labelLayer
10
230.6188898
20
157.9394039
40
2.2696253
50
118.4551041
51
139.6706062
0
ARC
8
right_labelLayer
10
230.9735781
20
157.6969689
40
2.6972872
50
140.6208152
51
160.5049118
0
ARC
8
right_labelLayer
10
232.8431877
20
157.0048458
40
4.6907784
50
160.1567165
51
171.5312858
0
ARC
8
right_labelLayer
10
235.8682624
20
156.5255609
40
7.7535057
50
171.3202501
51
178.3406756
0
ARC
8
right_labelLayer
10
238.5748205
20
156.4046422
40
10.4625167
50
178.1079588
51
180.0229599
0
ARC
8
right_labelLayer
10
213.5295732
20
161.3830616
40
14.5827418
50
357.8674098
51
0.0683177
0
ARC
8
right_labelLayer
10
218.4833994
20
161.1940583
40
9.6253145
50
354.9828812
51
357.8943747
0
ARC
8
right_labelLayer
10
221.755291
20
160.9091495
40
6.3410428
50
351.9712528
51
354.9619117
0
ARC
8
right_labelLayer
10
230.8776945
20
158.3058665
40
3.2388257
50
119.8315968
51
147.9725896
0
ARC
8
right_labelLayer
10
231.2698747
20
157.7034066
40
3.9567528
50
116.6658028
51
120.4183243
0
ARC
8
right_labelLayer
10
231.3431111
20
157.5110347
40
4.1615837
50
96.6652572
51
116.3782364
0
ARC
8
right_labelLayer
10
231.5008935
20
156.4224061
40
5.2612558
50
89.8927469
51
96.9958896
0
ARC
8
right_labelLayer
10
231.5513445
20
155.1067581
40
6.5770199
50
80.6863111
51
90.3537096
0
ARC
8
right_labelLayer
10
231.9608715
20
157.5155442
40
4.1337356
50
65.6022926
51
80.8843959
0
ARC
8
right_labelLayer
10
232.4526385
20
158.6231159
40
2.9219527
50
46.7401062
51
65.4130663
0
ARC
8
right_labelLayer
10
232.4860634
20
158.728651
40
2.8225978
50
19.2204318
51
45.7660665
0
ARC
8
right_labelLayer
10
230.8585273
20
158.1253107
40
4.5581614
50
6.4733964
51
19.6467979
0
ARC
8
right_labelLayer
10
228.4266044
20
157.8123096
40
7.009964
50
359.7945084
51
6.7743941
0
LINE
8
right_labelLayer
10
243.6884766
20
152.1426371
11
243.6884766
21
150.9024027
0
LINE
8
right_labelLayer
10
238.8837891
20
153.8809183
11
238.8837891
21
160.2481058
0
LINE
8
right_labelLayer
10
238.8837891
20
160.2481058
11
237.3505859
21
160.2481058
0
LINE
8
right_labelLayer
10
237.3505859
20
160.2481058
11
237.3505859
21
161.0293558
0
LINE
8
right_labelLayer
10
237.3505859
20
161.0293558
11
238.8837891
21
161.703184
0
LINE
8
right_labelLayer
10
238.8837891
20
161.703184
11
239.5673828
21
163.9883402
0
LINE
8
right_labelLayer
10
239.5673828
20
163.9883402
11
240.5048828
21
163.9883402
0
LINE
8
right_labelLayer
10
240.5048828
20
163.9883402
11
240.5048828
21
161.5078715
0
LINE
8
right_labelLayer
10
240.5048828
20
161.5078715
11
243.6103516
21
161.5078715
0
LINE
8
right_labelLayer
10
243.6103516
20
161.5078715
11
243.6103516
21
160.2481058
0
LINE
8
right_labelLayer
10
243.6103516
20
160.2481058
11
240.5048828
21
160.2481058
0
LINE
8
right_labelLayer
10
240.5048828
20
160.2481058
11
240.5048828
21
153.9492777
0
ARC
8
right_labelLayer
10
242.2347514
20
157.2712074
40
5.3238944
50
269.8803417
51
278.3028182
0
ARC
8
right_labelLayer
10
242.284398
20
156.8638546
40
4.9136514
50
278.4158959
51
279.0076561
0
ARC
8
right_labelLayer
10
241.6880479
20
160.6734033
40
8.7695902
50
278.9589695
51
280.5103918
0
ARC
8
right_labelLayer
10
242.2573839
20
157.6185373
40
5.6621249
50
280.4847522
51
282.6268451
0
ARC
8
right_labelLayer
10
242.7566736
20
155.4003626
40
3.3884538
50
282.5876165
51
285.5795336
0
ARC
8
right_labelLayer
10
243.0083329
20
154.4750941
40
2.429599
50
285.7231888
51
286.2566654
0
ARC
8
right_labelLayer
10
243.0069231
20
152.3439275
40
1.5945246
50
287.9888406
51
295.3048016
0
ARC
8
right_labelLayer
10
242.6223285
20
153.5075088
40
2.8200086
50
283.3069861
51
288.1197567
0
ARC
8
right_labelLayer
10
242.2160747
20
155.2021221
40
4.5626327
50
280.0069961
51
283.3735389
0
ARC
8
right_labelLayer
10
241.9442668
20
156.6772062
40
6.0625179
50
279.1862135
51
280.1142603
0
ARC
8
right_labelLayer
10
241.7773867
20
157.6263542
40
7.0261467
50
275.5260122
51
279.2939725
0
ARC
8
right_labelLayer
10
241.9654064
20
155.6624417
40
5.0532558
50
270.8932457
51
275.5483966
0
ARC
8
right_labelLayer
10
241.9890142
20
154.7653064
40
4.1558726
50
270.0033586
51
270.7606301
0
ARC
8
right_labelLayer
10
241.9238416
20
154.8429864
40
4.2340578
50
253.784789
51
270.8852547
0
ARC
8
right_labelLayer
10
241.4222185
20
153.1322616
40
2.4513133
50
190.3817699
51
253.8772374
0
ARC
8
right_labelLayer
10
243.9789898
20
153.8235667
40
5.0955236
50
179.3551054
51
192.8477577
0
ARC
8
right_labelLayer
10
243.7691821
20
153.9288628
40
3.2643631
50
179.6416773
51
189.7505556
0
ARC
8
right_labelLayer
10
242.616792
20
153.7233226
40
2.093823
50
189.5479676
51
205.7873396
0
ARC
8
right_labelLayer
10
242.1432062
20
153.5049372
40
1.5724225
50
206.1294051
51
221.408398
0
ARC
8
right_labelLayer
10
242.0901078
20
153.464647
40
1.505957
50
221.5949091
51
262.3505289
0
ARC
8
right_labelLayer
10
242.2163992
20
154.1140853
40
2.1667729
50
261.3266216
51
270.1912791
0
LINE
8
bottom_outsideCutPath
10
330
20
199
11
330
21
185.5
0
LINE
8
bottom_outsideCutPath
10
330
20
185.5
11
326
21
185.5
0
LINE
8
bottom_outsideCutPath
10
326
20
185.5
11
326
21
170.5
0
LINE
8
bottom_outsideCutPath
10
326
20
170.5
11
330
21
170.5
0
LINE
8
bottom_outsideCutPath
10
330
20
170.5
11
330
21
155.5
0
LINE
8
bottom_outsideCutPath
10
330
20
155.5
11
326
21
155.5
0
LINE
8
bottom_outsideCutPath
10
326
20
155.5
11
326
21
140.5
0
LINE
8
bottom_outsideCutPath
10
326
20
140.5
11
330
21
140.5
0
LINE
8
bottom_outsideCutPath
10
330
20
140.5
11
330
21
125.5
0
LINE
8
bottom_outsideCutPath
10
330
20
125.5
11
326
21
125.5
0
LINE
8
bottom_outsideCutPath
10
326
20
125.5
11
326
21
110.5
0
LINE
8
bottom_outsideCutPath
10
326
20
110.5
11
330
21
110.5
0
LINE
8
bottom_outsideCutPath
10
330
20
110.5
11
330
21
95.5
0
LINE
8
bottom_outsideCutPath
10
330
20
95.5
11
326
21
95.5
0
LINE
8
bottom_outsideCutPath
10
326
20
95.5
11
326
21
80.5
0
LINE
8
bottom_outsideCutPath
10
326
20
80.5
11
330
21
80.5
0
LINE
8
bottom_outsideCutPath
10
330
20
80.5
11
330
21
65.5
0
LINE
8
bottom_outsideCutPath
10
330
20
65.5
11
326
21
65.5
0
LINE
8
bottom_outsideCutPath
10
326
20
65.5
11
326
21
50.5
0
LINE
8
bottom_outsideCutPath
10
326
20
50.5
11
330
21
50.5
0
LINE
8
bottom_outsideCutPath
10
330
20
50.5
11
330
21
35.5
0
LINE
8
bottom_outsideCutPath
10
330
20
35.5
11
326
21
35.5
0
LINE
8
bottom_outsideCutPath
10
326
20
35.5
11
326
21
20.5
0
LINE
8
bottom_outsideCutPath
10
326
20
20.5
11
330
21
20.5
0
LINE
8
bottom_outsideCutPath
10
330
20
20.5
11
330
21
7
0
LINE
8
bottom_outsideCutPath
10
330
20
7
11
348.5
21
7
0
LINE
8
bottom_outsideCutPath
10
348.5
20
7
11
348.5
21
3
0
LINE
8
bottom_outsideCutPath
10
348.5
20
3
11
363.5
21
3
0
LINE
8
bottom_outsideCutPath
10
363.5
20
3
11
363.5
21
7
0
LINE
8
bottom_outsideCutPath
10
363.5
20
7
11
378.5
21
7
0
LINE
8
bottom_outsideCutPath
10
378.5
20
7
11
378.5
21
3
0
LINE
8
bottom_outsideCutPath
10
378.5
20
3
11
393.5
21
3
0
LINE
8
bottom_outsideCutPath
10
393.5
20
3
11
393.5
21
7
0
LINE
8
bottom_outsideCutPath
10
393.5
20
7
11
408.5
21
7
0
LINE
8
bottom_outsideCutPath
10
408.5
20
7
11
408.5
21
3
0
LINE
8
bottom_outsideCutPath
10
408.5
20
3
11
423.5
21
3
0
LINE
8
bottom_outsideCutPath
10
423.5
20
3
11
423.5
21
7
0
LINE
8
bottom_outsideCutPath
10
423.5
20
7
11
438.5
21
7
0
LINE
8
bottom_outsideCutPath
10
438.5
20
7
11
442
21
7
0
LINE
8
bottom_outsideCutPath
10
442
20
7
11
442
21
20.5
0
LINE
8
bottom_outsideCutPath
10
442
20
20.5
11
446
21
20.5
0
LINE
8
bottom_outsideCutPath
10
446
20
20.5
11
446
21
35.5
0
LINE
8
bottom_outsideCutPath
10
446
20
35.5
11
442
21
35.5
0
LINE
8
bottom_outsideCutPath
10
442
20
35.5
11
442
21
50.5
0
LINE
8
bottom_outsideCutPath
10
442
20
50.5
11
446
21
50.5
0
LINE
8
bottom_outsideCutPath
10
446
20
50.5
11
446
21
65.5
0
LINE
8
bottom_outsideCutPath
10
446
20
65.5
11
442
21
65.5
0
LINE
8
bottom_outsideCutPath
10
442
20
65.5
11
442
21
80.5
0
LINE
8
bottom_outsideCutPath
10
442
20
80.5
11
446
21
80.5
0
LINE
8
bottom_outsideCutPath
10
446
20
80.5
11
446
21
95.5
0
LINE
8
bottom_outsideCutPath
10
446
20
95.5
11
442
21
95.5
0
LINE
8
bottom_outsideCutPath
10
442
20
95.5
11
442
21
110.5
0
LINE
8
bottom_outsideCutPath
10
442
20
110.5
11
446
21
110.5
0
LINE
8
bottom_outsideCutPath
10
446
20
110.5
11
446
21
125.5
0
LINE
8
bottom_outsideCutPath
10
446
20
125.5
11
442
21
125.5
0
LINE
8
bottom_outsideCutPath
10
442
20
125.5
11
442
21
140.5
0
LINE
8
bottom_outsideCutPath
10
442
20
140.5
11
446
21
140.5
0
LINE
8
bottom_outsideCutPath
10
446
20
140.5
11
446
21
155.5
0
LINE
8
bottom_outsideCutPath
10
446
20
155.5
11
442
21
155.5
0
LINE
8
bottom_outsideCutPath
10
442
20
155.5
11
442
21
170.5
0
LINE
8
bottom_outsideCutPath
10
442
20
170.5
11
446
21
170.5
0
LINE
8
bottom_outsideCutPath
10
446
20
170.5
11
446
21
185.5
0
LINE
8
bottom_outsideCutPath
10
446
20
185.5
11
442
21
185.5
0
LINE
8
bottom_outsideCutPath
10
442
20
185.5
11
442
21
199
0
LINE
8
bottom_outsideCutPath
10
442
20
199
11
423.5
21
199
0
LINE
8
bottom_outsideCutPath
10
423.5
20
199
11
423.5
21
203
0
LINE
8
bottom_outsideCutPath
10
423.5
20
203
11
408.5
21
203
0
LINE
8
bottom_outsideCutPath
10
408.5
20
203
11
408.5
21
199
0
LINE
8
bottom_outsideCutPath
10
408.5
20
199
11
393.5
21
199
0
LINE
8
bottom_outsideCutPath
10
393.5
20
199
11
393.5
21
203
0
LINE
8
bottom_outsideCutPath
10
393.5
20
203
11
378.5
21
203
0
LINE
8
bottom_outsideCutPath
10
378.5
20
203
11
378.5
21
199
0
LINE
8
bottom_outsideCutPath
10
378.5
20
199
11
363.5
21
199
0
LINE
8
bottom_outsideCutPath
10
363.5
20
199
11
363.5
21
203
0
LINE
8
bottom_outsideCutPath
10
363.5
20
203
11
348.5
21
203
0
LINE
8
bottom_outsideCutPath
10
348.5
20
203
11
348.5
21
199
0
LINE
8
bottom_outsideCutPath
10
348.5
20
199
11
333.5
21
199
0
LINE
8
bottom_outsideCutPath
10
333.5
20
199
11
330
21
199
0
LINE
8
bottom_labelLayer
10
348.4647869
20
95.652647
11
348.3241619
21
95.652647
0
LINE
8
bottom_labelLayer
10
348.3241619
20
95.652647
11
347.9140056
21
94.0003032
0
LINE
8
bottom_labelLayer
10
347.9140056
20
94.0003032
11
346.5194744
21
94.0003032
0
LINE
8
bottom_labelLayer
10
346.5194744
20
94.0003032
11
346.5194744
21
112.2346782
0
LINE
8
bottom_labelLayer
10
346.5194744
20
112.2346782
11
348.4647869
21
112.2346782
0
LINE
8
bottom_labelLayer
10
348.4647869
20
112.2346782
11
348.4647869
21
107.8049907
0
LINE
8
bottom_labelLayer
10
348.3710369
20
105.1331157
11
348.4647869
21
105.1331157
0
ARC
8
bottom_labelLayer
10
352.5543936
20
101.1097246
40
5.9455525
50
74.2393375
51
90.5623776
0
ARC
8
bottom_labelLayer
10
352.9475325
20
102.5519759
40
4.4507589
50
38.5631365
51
74.0670293
0
ARC
8
bottom_labelLayer
10
351.9358109
20
101.7653037
40
5.7322603
50
16.4709215
51
38.4075341
0
ARC
8
bottom_labelLayer
10
349.0211901
20
100.8513615
40
8.7865474
50
5.133838
51
16.7973492
0
ARC
8
bottom_labelLayer
10
345.3416894
20
100.4604976
40
12.4864073
50
359.8779389
51
5.4093642
0
ARC
8
bottom_labelLayer
10
346.4224385
20
100.3666065
40
11.4058281
50
350.6562831
51
0.3380273
0
ARC
8
bottom_labelLayer
10
350.3987049
20
99.6902875
40
7.3725456
50
335.8305891
51
350.8254844
0
ARC
8
bottom_labelLayer
10
352.1477856
20
98.9353586
40
5.4677649
50
321.3161458
51
335.5436187
0
ARC
8
bottom_labelLayer
10
352.8164712
20
98.3904812
40
4.6052297
50
274.0640024
51
321.4081028
0
ARC
8
bottom_labelLayer
10
352.5049506
20
100.3637943
40
6.5978721
50
269.9225933
51
275.5481475
0
ARC
8
bottom_labelLayer
10
352.4632326
20
99.666398
40
5.900561
50
255.7755484
51
270.3185388
0
ARC
8
bottom_labelLayer
10
352.2948442
20
98.9182696
40
5.1340345
50
245.9801715
51
255.5455942
0
ARC
8
bottom_labelLayer
10
351.9687006
20
98.159817
40
4.3085161
50
215.5850158
51
245.8361621
0
ARC
8
bottom_labelLayer
10
307.9066206
20
107.7706973
40
40.5581808
50
358.1123256
51
0.0484457
0
ARC
8
bottom_labelLayer
10
319.1943416
20
107.3917464
40
29.2641033
50
355.7238694
51
358.1258854
0
ARC
8
bottom_labelLayer
10
324.1315853
20
107.0528312
40
24.3153517
50
355.4717421
51
355.6527888
0
ARC
8
bottom_labelLayer
10
352.0927097
20
102.6032678
40
4.4228898
50
95.1835114
51
145.1109019
0
ARC
8
bottom_labelLayer
10
352.481465
20
100.4110508
40
6.6439559
50
89.8743359
51
96.8145463
0
ARC
8
bottom_labelLayer
10
352.1740599
20
99.959758
40
5.4664782
50
89.5731239
51
100.7324421
0
ARC
8
bottom_labelLayer
10
351.7693878
20
102.0042921
40
3.3823909
50
100.4469409
51
119.6700738
0
ARC
8
bottom_labelLayer
10
351.3941332
20
102.7058748
40
2.5871268
50
120.1402921
51
142.4249147
0
ARC
8
bottom_labelLayer
10
352.0149601
20
102.2951767
40
3.3300333
50
143.3382316
51
161.2559928
0
ARC
8
bottom_labelLayer
10
354.611132
20
101.3734477
40
6.0848252
50
160.89263
51
171.233437
0
ARC
8
bottom_labelLayer
10
358.9451404
20
100.6742675
40
10.4748073
50
171.0667716
51
177.8456918
0
ARC
8
bottom_labelLayer
10
363.4522447
20
100.445028
40
14.987462
50
177.6176493
51
180.0425531
0
ARC
8
bottom_labelLayer
10
361.3269319
20
100.3836722
40
12.8622431
50
179.7762696
51
185.7075296
0
ARC
8
bottom_labelLayer
10
356.2557842
20
99.8611614
40
7.7642873
50
185.5924686
51
194.2050835
0
ARC
8
bottom_labelLayer
10
353.0072915
20
99.0180613
40
4.4082768
50
193.9430235
51
208.0218478
0
ARC
8
bottom_labelLayer
10
351.6929281
20
98.349407
40
2.9339851
50
208.5536475
51
217.5605739
0
ARC
8
bottom_labelLayer
10
351.5858566
20
98.3048748
40
2.822121
50
218.1690414
51
253.8047132
0
ARC
8
bottom_labelLayer
10
352.1093069
20
99.9187292
40
4.5182343
50
253.1382536
51
266.8482973
0
ARC
8
bottom_labelLayer
10
352.2560887
20
101.649757
40
6.254925
50
266.3775715
51
270.0510514
0
ARC
8
bottom_labelLayer
10
352.3031577
20
99.2725744
40
3.8779619
50
269.3869
51
285.8630723
0
ARC
8
bottom_labelLayer
10
352.5912665
20
98.2313114
40
2.7976114
50
286.0162882
51
326.8497398
0
ARC
8
bottom_labelLayer
10
351.2007068
20
99.1525072
40
4.4655995
50
326.7104982
51
343.6661705
0
ARC
8
bottom_labelLayer
10
348.5976453
20
99.9479161
40
7.1873631
50
343.4171489
51
353.6369015
0
ARC
8
bottom_labelLayer
10
344.6660206
20
100.4144306
40
11.1465053
50
353.4934728
51
0.220537
0
ARC
8
bottom_labelLayer
10
344.3194568
20
100.5038539
40
11.4930805
50
359.768089
51
6.3095294
0
ARC
8
bottom_labelLayer
10
348.6486631
20
101.000658
40
7.1355218
50
6.1648611
51
16.0396304
0
ARC
8
bottom_labelLayer
10
351.4374763
20
101.8225196
40
4.2282367
50
15.7779367
51
32.0151266
0
ARC
8
bottom_labelLayer
10
352.3072162
20
102.3205993
40
3.2269563
50
32.7033549
51
35.5242843
0
ARC
8
bottom_labelLayer
10
352.6251898
20
102.5466038
40
2.836848
50
35.5408415
51
79.801127
0
ARC
8
bottom_labelLayer
10
352.244229
20
100.9270659
40
4.4991151
50
78.6781277
51
90.3749445
0
ARC
8
bottom_labelLayer
10
362.2643465
20
100.3661551
40
10.048325
50
349.1761848
51
0.3862689
0
ARC
8
bottom_labelLayer
10
365.6473704
20
99.691742
40
6.5988955
50
330.2507088
51
349.4116414
0
ARC
8
bottom_labelLayer
10
366.6884957
20
99.1506074
40
5.4266731
50
318.1439818
51
329.7566157
0
ARC
8
bottom_labelLayer
10
366.87641
20
99.0000129
40
5.186241
50
278.8959142
51
317.9979157
0
ARC
8
bottom_labelLayer
10
366.3922402
20
101.3197039
40
7.5538476
50
269.7502864
51
279.8033342
0
ARC
8
bottom_labelLayer
10
366.3137168
20
100.0127046
40
6.2469429
50
253.5436952
51
270.4182511
0
ARC
8
bottom_labelLayer
10
366.1057683
20
99.2083086
40
5.4166642
50
238.8115546
51
253.2428384
0
ARC
8
bottom_labelLayer
10
366.0386567
20
99.0733473
40
5.2664697
50
207.7947012
51
238.6757963
0
ARC
8
bottom_labelLayer
10
367.0016669
20
99.663148
40
6.3938119
50
205.6560415
51
208.4461506
0
ARC
8
bottom_labelLayer
10
367.743426
20
99.9722111
40
7.1963807
50
188.9102519
51
205.3171454
0
ARC
8
bottom_labelLayer
10
370.2431893
20
100.3955899
40
9.7316027
50
179.774463
51
189.0932878
0
ARC
8
bottom_labelLayer
10
370.6119518
20
100.5023095
40
10.1005216
50
169.2442975
51
180.3880772
0
ARC
8
bottom_labelLayer
10
367.1818936
20
101.1803076
40
6.604245
50
150.7111509
51
169.4695445
0
ARC
8
bottom_labelLayer
10
366.0869002
20
101.7426291
40
5.3743262
50
138.1759262
51
150.2287565
0
ARC
8
bottom_labelLayer
10
365.9047709
20
101.8823923
40
5.1454329
50
99.1759396
51
137.9832734
0
ARC
8
bottom_labelLayer
10
366.4060919
20
99.5231129
40
7.5553974
50
89.7326269
51
100.0759727
0
ARC
8
bottom_labelLayer
10
366.5062905
20
100.5420113
40
6.5367395
50
73.5222687
51
90.5692303
0
ARC
8
bottom_labelLayer
10
366.8896311
20
101.9347876
40
5.0925067
50
41.1445685
51
73.2133837
0
ARC
8
bottom_labelLayer
10
366.1578645
20
101.305844
40
6.0573904
50
13.5014349
51
41.0703455
0
ARC
8
bottom_labelLayer
10
363.3306949
20
100.5660108
40
8.9793531
50
1.1277128
51
13.8800049
0
ARC
8
bottom_labelLayer
10
360.8948999
20
100.4355037
40
11.4175433
50
359.9919372
51
1.5419349
0
ARC
8
bottom_labelLayer
10
372.3781934
20
100.3833439
40
9.8510362
50
179.705971
51
187.9160766
0
ARC
8
bottom_labelLayer
10
368.765137
20
99.8643327
40
6.2009516
50
187.7639294
51
200.0976817
0
ARC
8
bottom_labelLayer
10
366.774718
20
99.1350406
40
4.0811324
50
200.0845823
51
216.9131551
0
ARC
8
bottom_labelLayer
10
366.0478889
20
98.616051
40
3.1883642
50
217.3009547
51
261.7099106
0
ARC
8
bottom_labelLayer
10
366.3853069
20
100.2261753
40
4.8313858
50
260.5033213
51
270.2476922
0
ARC
8
bottom_labelLayer
10
366.4497121
20
99.913086
40
4.5184611
50
269.4481552
51
284.7255622
0
ARC
8
bottom_labelLayer
10
366.8074111
20
98.5864933
40
3.1445297
50
284.5662336
51
322.6333806
0
ARC
8
bottom_labelLayer
10
365.9710902
20
99.1906977
40
4.1760003
50
323.0089257
51
342.6390464
0
ARC
8
bottom_labelLayer
10
363.5790408
20
99.9724887
40
6.6924346
50
342.3615655
51
353.7537662
0
ARC
8
bottom_labelLayer
10
360.0499514
20
100.3978733
40
10.2469298
50
353.5363176
51
0.2014268
0
ARC
8
bottom_labelLayer
10
360.5906704
20
100.4834373
40
9.7062742
50
359.7075639
51
7.8972796
0
ARC
8
bottom_labelLayer
10
364.1453705
20
100.9930386
40
6.1152909
50
7.7439865
51
20.0690117
0
ARC
8
bottom_labelLayer
10
366.1262037
20
101.71993
40
4.0053009
50
20.0256933
51
37.4350686
0
ARC
8
bottom_labelLayer
10
366.7834204
20
102.1862823
40
3.2000982
50
37.9577645
51
80.400624
0
ARC
8
bottom_labelLayer
10
366.4099417
20
100.5198508
40
4.9063088
50
79.345361
51
90.3174798
0
ARC
8
bottom_labelLayer
10
366.3407874
20
100.7966592
40
4.6296155
50
89.4805969
51
103.8805122
0
ARC
8
bottom_labelLayer
10
365.9517791
20
102.2779972
40
3.0982933
50
103.4685158
51
142.3118982
0
ARC
8
bottom_labelLayer
10
366.7080426
20
101.7461387
40
4.022135
50
142.90258
51
162.3749602
0
ARC
8
bottom_labelLayer
10
369.0910265
20
100.9520162
40
6.5338029
50
162.0653208
51
173.1674858
0
ARC
8
bottom_labelLayer
10
372.8067088
20
100.4781026
40
10.2795168
50
173.0086176
51
180.2463933
0
LINE
8
bottom_labelLayer
10
381.6288494
20
95.605772
11
381.6288494
21
94.1174907
0
LINE
8
bottom_labelLayer
10
375.8632244
20
97.6917095
11
375.8632244
21
105.3323345
0
LINE
8
bottom_labelLayer
10
375.8632244
20
105.3323345
11
374.0233806
21
105.3323345
0
LINE
8
bottom_labelLayer
10
374.0233806
20
105.3323345
11
374.0233806
21
106.2698345
0
LINE
8
bottom_labelLayer
10
374.0233806
20
106.2698345
11
375.8632244
21
107.0784282
0
LINE
8
bottom_labelLayer
10
375.8632244
20
107.0784282
11
376.6835369
21
109.8206157
0
LINE
8
bottom_labelLayer
10
376.6835369
20
109.8206157
11
377.8085369
21
109.8206157
0
LINE
8
bottom_labelLayer
10
377.8085369
20
109.8206157
11
377.8085369
21
106.8440532
0
LINE
8
bottom_labelLayer
10
377.8085369
20
106.8440532
11
381.5350994
21
106.8440532
0
LINE
8
bottom_labelLayer
10
381.5350994
20
106.8440532
11
381.5350994
21
105.3323345
0
LINE
8
bottom_labelLayer
10
381.5350994
20
105.3323345
11
377.8085369
21
105.3323345
0
LINE
8
bottom_labelLayer
10
377.8085369
20
105.3323345
11
377.8085369
21
97.7737407
0
ARC
8
bottom_labelLayer
10
379.8843775
20
101.760056
40
6.3886729
50
269.8803567
51
278.3028336
0
ARC
8
bottom_labelLayer
10
379.9452588
20
101.2626708
40
5.8877209
50
278.4155406
51
279.0081712
0
ARC
8
bottom_labelLayer
10
379.2282875
20
105.8429448
40
10.5237659
50
278.9590101
51
280.5103943
0
ARC
8
bottom_labelLayer
10
379.911475
20
102.17717
40
6.7948739
50
280.4847891
51
282.6267799
0
ARC
8
bottom_labelLayer
10
380.5106443
20
99.515214
40
4.0663209
50
282.58766
51
285.5794473
0
ARC
8
bottom_labelLayer
10
380.8097406
20
98.4149032
40
2.9261164
50
285.7245036
51
286.256048
0
ARC
8
bottom_labelLayer
10
380.810994
20
95.8472997
40
1.9134071
50
287.9887831
51
295.3048298
0
ARC
8
bottom_labelLayer
10
380.3495129
20
97.2434736
40
3.3838602
50
283.3068705
51
288.1198548
0
ARC
8
bottom_labelLayer
10
379.8619362
20
99.27731
40
5.4753182
50
280.0070318
51
283.3734769
0
ARC
8
bottom_labelLayer
10
379.5356142
20
101.0483217
40
7.2761039
50
279.186299
51
280.1142077
0
ARC
8
bottom_labelLayer
10
379.3355242
20
102.1863634
40
8.431508
50
275.5260434
51
279.2939448
0
ARC
8
bottom_labelLayer
10
379.5611662
20
99.8295655
40
6.0639347
50
270.8932317
51
275.5483613
0
ARC
8
bottom_labelLayer
10
379.5895129
20
98.7529524
40
4.9870241
50
270.0031482
51
270.7604232
0
ARC
8
bottom_labelLayer
10
379.5112882
20
98.8461975
40
5.0808757
50
253.7848016
51
270.8852459
0
ARC
8
bottom_labelLayer
10
378.9093392
20
96.7933208
40
2.9415753
50
190.3817606
51
253.8772428
0
ARC
8
bottom_labelLayer
10
381.9774572
20
97.6228858
40
6.11462
50
179.3550883
51
192.8477587
0
ARC
8
bottom_labelLayer
10
381.7256876
20
97.7492425
40
3.9172273
50
179.6416712
51
189.7505711
0
ARC
8
bottom_labelLayer
10
380.3428186
20
97.5025919
40
2.5125779
50
189.5479422
51
205.7873769
0
ARC
8
bottom_labelLayer
10
379.7745299
20
97.2405356
40
1.886913
50
206.1294343
51
221.408378
0
ARC
8
bottom_labelLayer
10
379.7108077
20
97.1921849
40
1.8071497
50
221.5949186
51
262.3505072
0
ARC
8
bottom_labelLayer
10
379.8623539
20
97.9714937
40
2.6001111
50
261.3266248
51
270.1913377
0
LINE
8
bottom_labelLayer
10
390.1015056
20
95.605772
11
390.1015056
21
94.1174907
0
LINE
8
bottom_labelLayer
10
384.3358806
20
97.6917095
11
384.3358806
21
105.3323345
0
LINE
8
bottom_labelLayer
10
384.3358806
20
105.3323345
11
382.4960369
21
105.3323345
0
LINE
8
bottom_labelLayer
10
382.4960369
20
105.3323345
11
382.4960369
21
106.2698345
0
LINE
8
bottom_labelLayer
10
382.4960369
20
106.2698345
11
384.3358806
21
107.0784282
0
LINE
8
bottom_labelLayer
10
384.3358806
20
107.0784282
11
385.1561931
21
109.8206157
0
LINE
8
bottom_labelLayer
10
385.1561931
20
109.8206157
11
386.2811931
21
109.8206157
0
LINE
8
bottom_labelLayer
10
386.2811931
20
109.8206157
11
386.2811931
21
106.8440532
0
LINE
8
bottom_labelLayer
10
386.2811931
20
106.8440532
11
390.0077556
21
106.8440532
0
LINE
8
bottom_labelLayer
10
390.0077556
20
106.8440532
11
390.0077556
21
105.3323345
0
LINE
8
bottom_labelLayer
10
390.0077556
20
105.3323345
11
386.2811931
21
105.3323345
0
LINE
8
bottom_labelLayer
10
386.2811931
20
105.3323345
11
386.2811931
21
97.7737407
0
ARC
8
bottom_labelLayer
10
388.3570338
20
101.760056
40
6.3886729
50
269.8803567
51
278.3028336
0
ARC
8
bottom_labelLayer
10
388.4179151
20
101.2626708
40
5.8877209
50
278.4155406
51
279.0081712
0
ARC
8
bottom_labelLayer
10
387.7009437
20
105.8429448
40
10.5237659
50
278.9590101
51
280.5103943
0
ARC
8
bottom_labelLayer
10
388.3841312
20
102.17717
40
6.7948739
50
280.4847891
51
282.6267799
0
ARC
8
bottom_labelLayer
10
388.9833006
20
99.515214
40
4.0663209
50
282.58766
51
285.5794473
0
ARC
8
bottom_labelLayer
10
389.2823968
20
98.4149032
40
2.9261164
50
285.7245036
51
286.256048
0
ARC
8
bottom_labelLayer
10
389.2836503
20
95.8472997
40
1.9134071
50
287.9887831
51
295.3048298
0
ARC
8
bottom_labelLayer
10
388.8221692
20
97.2434736
40
3.3838602
50
283.3068705
51
288.1198548
0
ARC
8
bottom_labelLayer
10
388.3345924
20
99.27731
40
5.4753182
50
280.0070318
51
283.3734769
0
ARC
8
bottom_labelLayer
10
388.0082704
20
101.0483217
40
7.2761039
50
279.186299
51
280.1142077
0
ARC
8
bottom_labelLayer
10
387.8081805
20
102.1863634
40
8.431508
50
275.5260434
51
279.2939448
0
ARC
8
bottom_labelLayer
10
388.0338225
20
99.8295655
40
6.0639347
50
270.8932317
51
275.5483613
0
ARC
8
bottom_labelLayer
10
388.0621691
20
98.7529524
40
4.9870241
50
270.0031482
51
270.7604232
0
ARC
8
bottom_labelLayer
10
387.9839444
20
98.8461975
40
5.0808757
50
253.7848016
51
270.8852459
0
ARC
8
bottom_labelLayer
10
387.3819955
20
96.7933208
40
2.9415753
50
190.3817606
51
253.8772428
0
ARC
8
bottom_labelLayer
10
390.4501135
20
97.6228858
40
6.11462
50
179.3550883
51
192.8477587
0
ARC
8
bottom_labelLayer
10
390.1983439
20
97.7492425
40
3.9172273
50
179.6416712
51
189.7505711
0
ARC
8
bottom_labelLayer
10
388.8154749
20
97.5025919
40
2.5125779
50
189.5479422
51
205.7873769
0
ARC
8
bottom_labelLayer
10
388.2471862
20
97.2405356
40
1.886913
50
206.1294343
51
221.408378
0
ARC
8
bottom_labelLayer
10
388.1834639
20
97.1921849
40
1.8071497
50
221.5949186
51
262.3505072
0
ARC
8
bottom_labelLayer
10
388.3350102
20
97.9714937
40
2.6001111
50
261.3266248
51
270.1913377
0
ARC
8
bottom_labelLayer
10
393.7057527
20
100.3661551
40
10.048325
50
349.1761848
51
0.3862689
0
ARC
8
bottom_labelLayer
10
397.0887767
20
99.691742
40
6.5988955
50
330.2507088
51
349.4116414
0
ARC
8
bottom_labelLayer
10
398.1299019
20
99.1506074
40
5.4266731
50
318.1439818
51
329.7566157
0
ARC
8
bottom_labelLayer
10
398.3178162
20
99.0000129
40
5.186241
50
278.8959142
51
317.9979157
0
ARC
8
bottom_labelLayer
10
397.8336464
20
101.3197039
40
7.5538476
50
269.7502864
51
279.8033342
0
ARC
8
bottom_labelLayer
10
397.755123
20
100.0127046
40
6.2469429
50
253.5436952
51
270.4182511
0
ARC
8
bottom_labelLayer
10
397.5471745
20
99.2083086
40
5.4166642
50
238.8115546
51
253.2428384
0
ARC
8
bottom_labelLayer
10
397.480063
20
99.0733473
40
5.2664697
50
207.7947012
51
238.6757963
0
ARC
8
bottom_labelLayer
10
398.4430732
20
99.663148
40
6.3938119
50
205.6560415
51
208.4461506
0
ARC
8
bottom_labelLayer
10
399.1848322
20
99.9722111
40
7.1963807
50
188.9102519
51
205.3171454
0
ARC
8
bottom_labelLayer
10
401.6845955
20
100.3955899
40
9.7316027
50
179.774463
51
189.0932878
0
ARC
8
bottom_labelLayer
10
402.053358
20
100.5023095
40
10.1005216
50
169.2442975
51
180.3880772
0
ARC
8
bottom_labelLayer
10
398.6232999
20
101.1803076
40
6.604245
50
150.7111509
51
169.4695445
0
ARC
8
bottom_labelLayer
10
397.5283064
20
101.7426291
40
5.3743262
50
138.1759262
51
150.2287565
0
ARC
8
bottom_labelLayer
10
397.3461772
20
101.8823923
40
5.1454329
50
99.1759396
51
137.9832734
0
ARC
8
bottom_labelLayer
10
397.8474982
20
99.5231129
40
7.5553974
50
89.7326269
51
100.0759727
0
ARC
8
bottom_labelLayer
10
397.9476967
20
100.5420113
40
6.5367395
50
73.5222687
51
90.5692303
0
ARC
8
bottom_labelLayer
10
398.3310374
20
101.9347876
40
5.0925067
50
41.1445685
51
73.2133837
0
ARC
8
bottom_labelLayer
10
397.5992708
20
101.305844
40
6.0573904
50
13.5014349
51
41.0703455
0
ARC
8
bottom_labelLayer
10
394.7721012
20
100.5660108
40
8.9793531
50
1.1277128
51
13.8800049
0
ARC
8
bottom_labelLayer
10
392.3363062
20
100.4355037
40
11.4175433
50
359.9919372
51
1.5419349
0
ARC
8
bottom_labelLayer
10
403.8195996
20
100.3833439
40
9.8510362
50
179.705971
51
187.9160766
0
ARC
8
bottom_labelLayer
10
400.2065433
20
99.8643327
40
6.2009516
50
187.7639294
51
200.0976817
0
ARC
8
bottom_labelLayer
10
398.2161243
20
99.1350406
40
4.0811324
50
200.0845823
51
216.9131551
0
ARC
8
bottom_labelLayer
10
397.4892951
20
98.616051
40
3.1883642
50
217.3009547
51
261.7099106
0
ARC
8
bottom_labelLayer
10
397.8267132
20
100.2261753
40
4.8313858
50
260.5033213
51
270.2476922
0
ARC
8
bottom_labelLayer
10
397.8911183
20
99.913086
40
4.5184611
50
269.4481552
51
284.7255622
0
ARC
8
bottom_labelLayer
10
398.2488174
20
98.5864933
40
3.1445297
50
284.5662336
51
322.6333806
0
ARC
8
bottom_labelLayer
10
397.4124964
20
99.1906977
40
4.1760003
50
323.0089257
51
342.6390464
0
ARC
8
bottom_labelLayer
10
395.0204471
20
99.9724887
40
6.6924346
50
342.3615655
51
353.7537662
0
ARC
8
bottom_labelLayer
10
391.4913577
20
100.3978733
40
10.2469298
50
353.5363176
51
0.2014268
0
ARC
8
bottom_labelLayer
10
392.0320766
20
100.4834373
40
9.7062742
50
359.7075639
51
7.8972796
0
ARC
8
bottom_labelLayer
10
395.5867768
20
100.9930386
40
6.1152909
50
7.7439865
51
20.0690117
0
ARC
8
bottom_labelLayer
10
397.5676099
20
101.71993
40
4.0053009
50
20.0256933
51
37.4350686
0
ARC
8
bottom_labelLayer
10
398.2248266
20
102.1862823
40
3.2000982
50
37.9577645
51
80.400624
0
ARC
8
bottom_labelLayer
10
397.8513479
20
100.5198508
40
4.9063088
50
79.345361
51
90.3174798
0
ARC
8
bottom_labelLayer
10
397.7821936
20
100.7966592
40
4.6296155
50
89.4805969
51
103.8805122
0
ARC
8
bottom_labelLayer
10
397.3931853
20
102.2779972
40
3.0982933
50
103.4685158
51
142.3118982
0
ARC
8
bottom_labelLayer
10
398.1494489
20
101.7461387
40
4.022135
50
142.90258
51
162.3749602
0
ARC
8
bottom_labelLayer
10
400.5324328
20
100.9520162
40
6.5338029
50
162.0653208
51
173.1674858
0
ARC
8
bottom_labelLayer
10
404.248115
20
100.4781026
40
10.2795168
50
173.0086176
51
180.2463933
0
LINE
8
bottom_labelLayer
10
425.4804119
20
94.0003032
11
423.5350994
21
94.0003032
0
LINE
8
bottom_labelLayer
10
423.5350994
20
94.0003032
11
423.5350994
21
102.355772
0
LINE
8
bottom_labelLayer
10
417.2890056
20
101.1721782
11
417.2890056
21
94.0003032
0
LINE
8
bottom_labelLayer
10
417.2890056
20
94.0003032
11
415.3436931
21
94.0003032
0
LINE
8
bottom_labelLayer
10
415.3436931
20
94.0003032
11
415.3436931
21
102.355772
0
LINE
8
bottom_labelLayer
10
409.1093181
20
100.7385845
11
409.1093181
21
94.0003032
0
LINE
8
bottom_labelLayer
10
409.1093181
20
94.0003032
11
407.1640056
21
94.0003032
0
LINE
8
bottom_labelLayer
10
407.1640056
20
94.0003032
11
407.1640056
21
106.8440532
0
LINE
8
bottom_labelLayer
10
407.1640056
20
106.8440532
11
408.7460369
21
106.8440532
0
LINE
8
bottom_labelLayer
10
408.7460369
20
106.8440532
11
409.0624431
21
105.0862407
0
LINE
8
bottom_labelLayer
10
409.0624431
20
105.0862407
11
409.1561931
21
105.0862407
0
LINE
8
bottom_labelLayer
10
416.8905681
20
104.8987407
11
416.9843181
21
104.8987407
0
LINE
8
bottom_labelLayer
10
425.4804119
20
102.3792095
11
425.4804119
21
94.0003032
0
ARC
8
bottom_labelLayer
10
417.7963538
20
102.386338
40
5.738827
50
359.6948306
51
8.1471464
0
ARC
8
bottom_labelLayer
10
419.9101425
20
102.6991537
40
3.6020551
50
7.9864714
51
20.794961
0
ARC
8
bottom_labelLayer
10
421.0785855
20
103.146741
40
2.3508264
50
20.7071265
51
40.0217442
0
ARC
8
bottom_labelLayer
10
421.3349185
20
103.3144555
40
2.0469966
50
41.040815
51
73.1792698
0
ARC
8
bottom_labelLayer
10
420.9640109
20
102.1926395
40
3.2282915
50
72.6395588
51
86.2568116
0
ARC
8
bottom_labelLayer
10
420.8451905
20
100.9104919
40
4.5155957
50
85.8144564
51
90.0685631
0
ARC
8
bottom_labelLayer
10
420.8015328
20
100.4206395
40
5.0055912
50
89.5621262
51
101.2961714
0
ARC
8
bottom_labelLayer
10
420.4245267
20
102.2254939
40
3.1618939
50
101.0032182
51
121.7840557
0
ARC
8
bottom_labelLayer
10
420.1379124
20
102.7371824
40
2.5761033
50
122.3597321
51
140.2883936
0
ARC
8
bottom_labelLayer
10
420.6535635
20
102.3590899
40
3.2145823
50
140.9765189
51
161.1699563
0
ARC
8
bottom_labelLayer
10
422.5961537
20
101.6677652
40
5.2764094
50
160.8731749
51
172.5272558
0
ARC
8
bottom_labelLayer
10
425.842163
20
101.2194646
40
8.5531826
50
172.3776394
51
180.1829645
0
ARC
8
bottom_labelLayer
10
428.1165053
20
101.1721902
40
10.8274996
50
179.8943709
51
180.0000634
0
ARC
8
bottom_labelLayer
10
409.6049475
20
102.386338
40
5.738827
50
359.6948306
51
8.1471464
0
ARC
8
bottom_labelLayer
10
411.7187363
20
102.6991537
40
3.6020551
50
7.9864714
51
20.794961
0
ARC
8
bottom_labelLayer
10
412.8871793
20
103.146741
40
2.3508264
50
20.7071265
51
40.0217442
0
ARC
8
bottom_labelLayer
10
413.148843
20
103.3181401
40
2.0405568
50
41.0610636
51
72.8993765
0
ARC
8
bottom_labelLayer
10
412.7709057
20
102.192977
40
3.227252
50
72.3601236
51
85.9561587
0
ARC
8
bottom_labelLayer
10
412.6429682
20
100.8707356
40
4.5553533
50
85.5237991
51
90.079319
0
ARC
8
bottom_labelLayer
10
412.5993326
20
100.5946328
40
4.8315958
50
89.5573242
51
101.4832207
0
ARC
8
bottom_labelLayer
10
412.2284923
20
102.3321033
40
3.0551273
50
101.15465
51
123.0655549
0
ARC
8
bottom_labelLayer
10
411.9764096
20
102.771219
40
2.5497493
50
123.7020334
51
142.3022232
0
ARC
8
bottom_labelLayer
10
412.5668943
20
102.3706266
40
3.2622277
50
143.076996
51
161.3913819
0
ARC
8
bottom_labelLayer
10
414.94707
20
101.5300041
40
5.7863325
50
161.0234575
51
171.4469212
0
ARC
8
bottom_labelLayer
10
418.8873935
20
100.9127628
40
9.7746638
50
171.3041906
51
178.3501659
0
ARC
8
bottom_labelLayer
10
422.6533344
20
100.7445639
40
13.5440178
50
178.0975982
51
180.025295
0
ARC
8
bottom_labelLayer
10
412.4518147
20
103.148253
40
3.8232078
50
117.1209502
51
149.5423758
0
ARC
8
bottom_labelLayer
10
412.8420065
20
102.4547372
40
4.6184507
50
93.8343264
51
117.507214
0
ARC
8
bottom_labelLayer
10
412.9497771
20
101.5002172
40
5.5782122
50
89.9661966
51
94.2831787
0
ARC
8
bottom_labelLayer
10
413.0143486
20
100.7097503
40
6.3689728
50
77.5572325
51
90.5512927
0
ARC
8
bottom_labelLayer
10
413.6053207
20
103.2516322
40
3.7595768
50
52.7026985
51
78.005389
0
ARC
8
bottom_labelLayer
10
413.8158704
20
103.6433664
40
3.321104
50
22.2097981
51
51.4970546
0
ARC
8
bottom_labelLayer
10
420.5083374
20
102.8791171
40
4.0617227
50
119.4041794
51
150.1828776
0
ARC
8
bottom_labelLayer
10
420.9588053
20
102.1940839
40
4.8799962
50
118.2583504
51
120.062965
0
ARC
8
bottom_labelLayer
10
420.9575191
20
102.1440164
40
4.9235505
50
95.8635224
51
117.9693158
0
ARC
8
bottom_labelLayer
10
421.1241488
20
100.9391599
40
6.1392743
50
89.9196748
51
96.261756
0
ARC
8
bottom_labelLayer
10
421.1776455
20
100.3165646
40
6.7620126
50
79.936093
51
90.3803632
0
ARC
8
bottom_labelLayer
10
421.6282093
20
102.7567629
40
4.2806609
50
62.9723209
51
80.1665129
0
ARC
8
bottom_labelLayer
10
422.0992134
20
103.7230817
40
3.2059021
50
44.228992
51
62.6229026
0
ARC
8
bottom_labelLayer
10
421.9591258
20
103.6611955
40
3.3498757
50
19.5612034
51
43.3161219
0
ARC
8
bottom_labelLayer
10
419.9246043
20
102.8970262
40
5.5229646
50
7.5041831
51
19.9645449
0
ARC
8
bottom_labelLayer
10
416.5579939
20
102.4242541
40
8.9225317
50
359.7107459
51
7.6907169
0
ENDSEC
0
EOF