0
SECTION
2
HEADER
9
$INSUNITS
70
4
9
$ACADVER
1
AC1014
9
$HANDSEED
5
FFFF
0
ENDSEC
0
SECTION
2
TABLES
0
TABLE
2
VPORT
5
8
100
AcDbSymbolTable
0
ENDTAB
0
TABLE
2
LTYPE
5
5
100
AcDbSymbolTable
0
LTYPE
5
14
100
AcDbSymbolTableRecord
100
AcDbLinetypeTableRecord
2
BYBLOCK
70
0
0
LTYPE
5
15
100
AcDbSymbolTableRecord
100
AcDbLinetypeTableRecord
2
BYLAYER
70
0
0
LTYPE
5
16
100
AcDbSymbolTableRecord
100
AcDbLinetypeTableRecord
2
DASHED
70
0
3
Dashed __ __ __ __ __ __ __ __ __ __ __ __ __ _
72
65
73
2
40
0.75
49
0.5
74
0
49
-0.25
74
0
0
ENDTAB
0
TABLE
2
LAYER
5
2
100
AcDbSymbolTable
70
3
0
LAYER
5
50
100
AcDbSymbolTableRecord
100
AcDbLayerTableRecord
2
1
70
0
62
7
6
DASHED
0
LAYER
5
51
100
AcDbSymbolTableRecord
100
AcDbLayerTableRecord
2
0
70
0
62
7
6
CONTINUOUS
0
ENDTAB
0
TABLE
2
STYLE
5
3
100
AcDbSymbolTable
70
1
0
STYLE
5
11
100
AcDbSymbolTableRecord
100
AcDbTextStyleTableRecord
2
STANDARD
70
0
0
ENDTAB
0
TABLE
2
VIEW
5
6
100
AcDbSymbolTable
70
0
0
ENDTAB
0
TABLE
2
UCS
5
7
100
AcDbSymbolTable
70
0
0
ENDTAB
0
TABLE
2
APPID
5
9
100
AcDbSymbolTable
70
2
0
APPID
5
12
100
AcDbSymbolTableRecord
100
AcDbRegAppTableRecord
2
ACAD
70
0
0
ENDTAB
0
TABLE
2
DIMSTYLE
5
A
100
AcDbSymbolTable
70
1
0
ENDTAB
0
TABLE
2
BLOCK_RECORD
5
1
100
AcDbSymbolTable
70
1
0
BLOCK_RECORD
5
1F
100
AcDbSymbolTableRecord
100
AcDbBlockTableRecord
2
*MODEL_SPACE
0
BLOCK_RECORD
5
1B
100
AcDbSymbolTableRecord
100
AcDbBlockTableRecord
2
*PAPER_SPACE
0
ENDTAB
0
ENDSEC
0
SECTION
2
BLOCKS
0
BLOCK
5
20
100
AcDbEntity
100
AcDbBlockBegin
2
*MODEL_SPACE
0
ENDBLK
5
21
100
AcDbEntity
100
AcDbBlockEnd
0
BLOCK
5
1C
100
AcDbEntity
100
AcDbBlockBegin
2
*PAPER_SPACE
0
ENDBLK
5
1D
100
AcDbEntity
100
AcDbBlockEnd
0
ENDSEC
0
SECTION
2
ENTITIES
0
LINE
5
100
100
AcDbEntity
8
0
100
AcDbLine
10
-15.000000000000028
20
-147.81099562800023
30
0
11
-150.00000000000651
21
-147.81099562800023
31
0
0
LINE
5
101
100
AcDbEntity
8
0
100
AcDbLine
10
-150.00000000000651
20
-147.81099562800023
30
0
11
-150.00000000000651
21
-141.80457712546303
31
0
0
LINE
5
102
100
AcDbEntity
8
0
100
AcDbLine
10
-150.00000000000651
20
-141.80457712546303
30
0
11
-15.000000000000036
21
-141.80457712546303
31
0
0
LINE
5
103
100
AcDbEntity
8
0
100
AcDbLine
10
-14.999999999999734
20
-69.271179288088121
30
-4.9303806576313238e-31
11
-150.00000000003661
21
-69.271179288088121
31
-4.9303806576313238e-31
0
LINE
5
104
100
AcDbEntity
8
0
100
AcDbLine
10
-150.00000000003661
20
-69.271179288088121
30
-4.9303806576313238e-31
11
-150.00000000003661
21
-63.264760785550926
31
-4.9303806576313238e-31
0
LINE
5
105
100
AcDbEntity
8
0
100
AcDbLine
10
-150.00000000003661
20
-63.264760785550926
30
-4.9303806576313238e-31
11
-14.999999999999734
21
-63.264760785550926
31
0
0
LINE
5
106
100
AcDbEntity
8
0
100
AcDbLine
10
-15.000000000000034
20
-226.35081196791236
30
0
11
-150.00000000000657
21
-226.35081196791236
31
0
0
LINE
5
107
100
AcDbEntity
8
0
100
AcDbLine
10
-150.00000000000657
20
-226.35081196791236
30
0
11
-150.00000000000657
21
-220.34439346537513
31
0
0
LINE
5
108
100
AcDbEntity
8
0
100
AcDbLine
10
-150.00000000000657
20
-220.34439346537513
30
0
11
-15.000000000000036
21
-220.34439346537513
31
0
0
LINE
5
109
100
AcDbEntity
8
0
100
AcDbLine
10
-15.000000000000028
20
-147.81099562800023
30
0
11
-15.000000000000036
21
-141.80457712546303
31
0
0
LINE
5
110
100
AcDbEntity
8
0
100
AcDbLine
10
-14.999999999999734
20
-69.271179288088121
30
-4.9303806576313238e-31
11
-14.999999999999734
21
-63.264760785550926
31
0
0
LINE
5
111
100
AcDbEntity
8
0
100
AcDbLine
10
-15.000000000000034
20
-226.35081196791236
30
0
11
-15.000000000000036
21
-220.34439346537513
31
0
0
LINE
5
112
100
AcDbEntity
8
0
100
AcDbLine
10
0.017560553936015744
20
-70.267655999870172
30
0
11
-7.4999999999998668
21
-66.267694546687693
31
0
0
LINE
5
113
100
AcDbEntity
8
0
100
AcDbLine
10
0.017560553936015744
20
-62.267733093505214
30
0
11
-7.4999999999998668
21
-66.267694546687693
31
0
0
LINE
5
114
100
AcDbEntity
8
0
100
AcDbLine
10
-14.999999999999734
20
-66.267694546687693
30
0
11
-7.4999999999998668
21
-66.267694546687693
31
0
0
LINE
5
115
100
AcDbEntity
8
0
100
AcDbLine
10
0.017560553936015744
20
-70.267655999870172
30
0
11
-7.4999999999998668
21
-66.267694546687693
31
0
0
LINE
5
116
100
AcDbEntity
8
0
100
AcDbLine
10
0.017560553936015744
20
-62.267733093505214
30
0
11
-7.4999999999998668
21
-66.267694546687693
31
0
0
LINE
5
117
100
AcDbEntity
8
0
100
AcDbLine
10
-14.999999999999734
20
-144.80769454668771
30
0
11
-7.4999999999998668
21
-144.80769454668771
31
0
0
LINE
5
118
100
AcDbEntity
8
0
100
AcDbLine
10
0.017560553936015744
20
-140.80773309350522
30
0
11
-7.4999999999998668
21
-144.80769454668771
31
0
0
LINE
5
119
100
AcDbEntity
8
0
100
AcDbLine
10
0.017560553936015744
20
-148.80765599987018
30
0
11
-7.4999999999998668
21
-144.80769454668771
31
0
0
LINE
5
120
100
AcDbEntity
8
0
100
AcDbLine
10
-14.999999999999734
20
-223.34769454668773
30
0
11
-7.4999999999998668
21
-223.34769454668773
31
0
0
LINE
5
121
100
AcDbEntity
8
0
100
AcDbLine
10
0.017560553936015744
20
-219.34773309350527
30
0
11
-7.4999999999998668
21
-223.34769454668773
31
0
0
LINE
5
122
100
AcDbEntity
8
0
100
AcDbLine
10
0.017560553936015744
20
-227.3476559998702
30
0
11
-7.4999999999998668
21
-223.34769454668773
31
0
0
SPLINE
5
123
100
AcDbEntity
8
0
100
AcDbSpline
70
0
71
3
72
26
73
22
74
0
42
0.000000001
43
0.0000000001
44
0.0000000001
40
0
40
0
40
0
40
0
40
0.19215359624316516
40
0.19215359624316516
40
0.19215359624316516
40
0.35382440263246023
40
0.35382440263246023
40
0.35382440263246023
40
0.54642886206404795
40
0.54642886206404795
40
0.54642886206404795
40
0.76405569891652447
40
0.76405569891652447
40
0.76405569891652447
40
0.97707936498272785
40
0.97707936498272785
40
0.97707936498272785
40
1.1930969121780179
40
1.1930969121780179
40
1.1930969121780179
40
1.2888240474835342
40
1.2888240474835342
40
1.2888240474835342
40
1.2888240474835342
10
-39
20
-181.05227674437799
30
0
10
-39.640511987477225
20
-181.05227674437799
30
0
10
-40.347083581696161
20
-181.31583110469836
30
0
10
-40.846729607403219
20
-181.75579459304493
30
0
10
-41.267112975003826
20
-182.12596331917607
30
0
10
-41.587891774157214
20
-182.63294025390917
30
0
10
-41.742738479846615
20
-183.19956542787313
30
0
10
-41.927213133682713
20
-183.87460712382949
30
0
10
-41.87580346838547
20
-184.58071681676071
30
0
10
-41.593176776583448
20
-185.22137825545985
30
0
10
-41.273832390017979
20
-185.94527178735905
30
0
10
-40.693541594971748
20
-186.49932954736374
30
0
10
-39.969833676276274
20
-186.77058945188406
30
0
10
-39.261433387822152
20
-187.03611175673129
30
0
10
-38.49181418442565
20
-187.00239563523331
30
0
10
-37.807523795432104
20
-186.67595480618161
30
0
10
-37.113616239856754
20
-186.34492610642093
30
0
10
-36.583587241572047
20
-185.74933777751002
30
0
10
-36.322110285760672
20
-185.00751328520658
30
0
10
-36.206238032542267
20
-184.67877733542059
30
0
10
-36.150000000000006
20
-184.34037454016504
30
0
10
-36.150000000000006
20
-183.99977252442994
30
0
0
SPLINE
5
124
100
AcDbEntity
8
0
100
AcDbSpline
70
0
71
3
72
14
73
10
74
0
42
0.000000001
43
0.0000000001
44
0.0000000001
40
1.2888240474835342
40
1.2888240474835342
40
1.2888240474835342
40
1.2888240474835342
40
1.4051422460193066
40
1.4051422460193066
40
1.4051422460193066
40
1.624281486959184
40
1.624281486959184
40
1.624281486959184
40
1.718452096037699
40
1.718452096037699
40
1.718452096037699
40
1.718452096037699
10
-36.150000000000006
20
-183.99977252442994
30
0
10
-36.150000000000006
20
-183.5859064585384
30
0
10
-36.234681512174156
20
-183.17022918105661
30
0
10
-36.404671340663384
20
-182.78297443079924
30
0
10
-36.724925973657662
20
-182.05340061440577
30
0
10
-37.310550218498079
20
-181.49517858901959
30
0
10
-38.040166937686053
20
-181.22480138317621
30
0
10
-38.353704807695607
20
-181.10861230610351
30
0
10
-38.686097969738285
20
-181.05227674437802
30
0
10
-39
20
-181.05227674437802
30
0
0
SPLINE
5
125
100
AcDbEntity
8
0
100
AcDbSpline
70
0
71
3
72
26
73
22
74
0
42
0.000000001
43
0.0000000001
44
0.0000000001
40
0
40
0
40
0
40
0
40
0.19214042087617592
40
0.19214042087617592
40
0.19214042087617592
40
0.35380127125743599
40
0.35380127125743599
40
0.35380127125743599
40
0.54643263833226263
40
0.54643263833226263
40
0.54643263833226263
40
0.76402164293199515
40
0.76402164293199515
40
0.76402164293199515
40
0.97710234292574127
40
0.97710234292574127
40
0.97710234292574127
40
1.1930854287721779
40
1.1930854287721779
40
1.1930854287721779
40
1.2888376692734913
40
1.2888376692734913
40
1.2888376692734913
40
1.2888376692734913
10
-305.00000000001387
20
-181.13044646283998
30
0
10
-305.64046806960113
20
-181.13044646283998
30
0
10
-306.34700773152247
20
-181.39391379637726
30
0
10
-306.84666361007481
20
-181.83380307890963
30
0
10
-307.26705820407244
20
-182.20391195638319
30
0
10
-307.58784773598728
20
-182.71082332431035
30
0
10
-307.74271116975405
20
-183.27740699851714
30
0
10
-307.9272428908605
20
-183.9525351292138
30
0
10
-307.87579521045978
20
-184.65875455583267
30
0
10
-307.59310684704593
20
-185.29949751849429
30
0
10
-307.27379291317732
20
-186.02325619584235
30
0
10
-306.69369027787559
20
-186.57726058948296
30
0
10
-305.97015371509355
20
-186.84859867654566
30
0
10
-305.26160836579032
20
-187.11431481249033
30
0
10
-304.49173566426913
20
-187.08059241087682
30
0
10
-303.80730894696831
20
-186.7539673693978
30
0
10
-303.11355960954484
20
-186.4228933473234
30
0
10
-302.58367755925065
20
-185.827386851715
30
0
10
-302.32219280473009
20
-185.08569536860574
30
0
10
-302.20626821274567
20
-184.75687970699906
30
0
10
-302.15000000001385
20
-184.41838554839788
30
0
10
-302.15000000001385
20
-184.07769454668212
30
0
0
SPLINE
5
126
100
AcDbEntity
8
0
100
AcDbSpline
70
0
71
3
72
14
73
10
74
0
42
0.000000001
43
0.0000000001
44
0.0000000001
40
1.2888376692734913
40
1.2888376692734913
40
1.2888376692734913
40
1.2888376692734913
40
1.4051294947112101
40
1.4051294947112101
40
1.4051294947112101
40
1.6243227238505713
40
1.6243227238505713
40
1.6243227238505713
40
1.7184502256979866
40
1.7184502256979866
40
1.7184502256979866
40
1.7184502256979866
10
-302.15000000001385
20
-184.07769454668212
30
0
10
-302.15000000001385
20
-183.66392273004055
30
0
10
-302.23464328748969
20
-183.24834132533789
30
0
10
-302.40457246283955
20
-182.86116538328386
30
0
10
-302.72486431938012
20
-182.13139487134583
30
0
10
-303.31073598304459
20
-181.57307588078993
30
0
10
-304.04058709457615
20
-181.30278760437852
30
0
10
-304.35400490460052
20
-181.18671850709325
30
0
10
-304.68624166052251
20
-181.13044646283998
30
0
10
-305.00000000001387
20
-181.13044646283998
30
0
0
ENDSEC
0
SECTION
2
OBJECTS
0
DICTIONARY
5
C
100
AcDbDictionary
3
ACAD_GROUP
350
D
3
ACAD_MLINESTYLE
350
17
0
DICTIONARY
5
D
100
AcDbDictionary
0
DICTIONARY
5
1A
330
C
100
AcDbDictionary
0
DICTIONARY
5
17
100
AcDbDictionary
0
ENDSEC
0
EOF
