0
SECTION
2
HEADER
9
$INSUNITS
70
4
9
$ACADVER
1
AC1014
9
$HANDSEED
5
FFFF
0
ENDSEC
0
SECTION
2
TABLES
0
TABLE
2
VPORT
5
8
100
AcDbSymbolTable
0
ENDTAB
0
TABLE
2
LTYPE
5
5
100
AcDbSymbolTable
70
3
0
LTYPE
5
14
100
AcDbSymbolTableRecord
100
AcDbLinetypeTableRecord
2
BYBLOCK
70
0
0
LTYPE
5
15
100
AcDbSymbolTableRecord
100
AcDbLinetypeTableRecord
2
BYLAYER
70
0
0
LTYPE
5
16
100
AcDbSymbolTableRecord
100
AcDbLinetypeTableRecord
2
DASHED
70
0
3
Dashed __ __ __ __ __ __ __ __ __ __ __ __ __ _
72
65
73
2
40
0.75
49
0.5
74
0
49
-0.25
74
0
0
ENDTAB
0
TABLE
2
LAYER
5
2
100
AcDbSymbolTable
70
7
0
LAYER
5
50
100
AcDbSymbolTableRecord
100
AcDbLayerTableRecord
2
0
70
0
6
CONTINUOUS
0
LAYER
5
51
100
AcDbSymbolTableRecord
100
AcDbLayerTableRecord
2
PERIMETER D 6.0
70
0
62
5
6
CONTINUOUS
0
LAYER
5
52
100
AcDbSymbolTableRecord
100
AcDbLayerTableRecord
2
HOLES DIAM 31.0 D 6.0
70
0
62
5
6
CONTINUOUS
0
LAYER
5
53
100
AcDbSymbolTableRecord
100
AcDbLayerTableRecord
2
HOLES DIAM 4.1 D 6.0
70
0
62
5
6
CONTINUOUS
0
LAYER
5
54
100
AcDbSymbolTableRecord
100
AcDbLayerTableRecord
2
INSETS D 0.5
70
0
62
3
6
CONTINUOUS
0
LAYER
5
55
100
AcDbSymbolTableRecord
100
AcDbLayerTableRecord
2
INSETS D 0.05
70
0
62
3
6
CONTINUOUS
0
LAYER
5
56
100
AcDbSymbolTableRecord
100
AcDbLayerTableRecord
2
INSETS D 0.0 - 4.24
70
0
62
3
6
CONTINUOUS
0
ENDTAB
0
TABLE
2
STYLE
5
3
100
AcDbSymbolTable
70
1
0
STYLE
5
11
100
AcDbSymbolTableRecord
100
AcDbTextStyleTableRecord
2
STANDARD
70
0
0
ENDTAB
0
TABLE
2
VIEW
5
6
100
AcDbSymbolTable
0
ENDTAB
0
TABLE
2
UCS
5
7
100
AcDbSymbolTable
0
ENDTAB
0
TABLE
2
APPID
5
9
100
AcDbSymbolTable
70
1
0
APPID
5
12
100
AcDbSymbolTableRecord
100
AcDbRegAppTableRecord
2
ACAD
70
0
0
ENDTAB
0
TABLE
2
DIMSTYLE
5
A
100
AcDbSymbolTable
0
ENDTAB
0
TABLE
2
BLOCK_RECORD
5
1
100
AcDbSymbolTable
70
2
0
BLOCK_RECORD
5
1F
100
AcDbSymbolTableRecord
100
AcDbBlockTableRecord
2
*MODEL_SPACE
0
BLOCK_RECORD
5
1B
100
AcDbSymbolTableRecord
100
AcDbBlockTableRecord
2
*PAPER_SPACE
0
ENDTAB
0
ENDSEC
0
SECTION
2
BLOCKS
0
BLOCK
5
20
100
AcDbEntity
100
AcDbBlockBegin
2
*MODEL_SPACE
0
ENDBLK
5
21
100
AcDbEntity
100
AcDbBlockEnd
0
BLOCK
5
1C
100
AcDbEntity
100
AcDbBlockBegin
2
*PAPER_SPACE
0
ENDBLK
5
1D
100
AcDbEntity
100
AcDbBlockEnd
0
ENDSEC
0
SECTION
2
ENTITIES
0
LWPOLYLINE
5
100
100
AcDbEntity
8
PERIMETER D 6.0
100
AcDbPolyline
90
18
70
1
43
0.0
10
34.319970649779009
20
-78.319674877099587
10
34.319970649779009
20
-87.999607160065452
42
-0.5243283206945305
10
4.4622301855297986
20
-36.284483676780717
10
12.84529744949138
20
-41.124449818263678
10
15.795297449491379
20
-36.014899935935489
10
7.4122301855298156
20
-31.174933794452549
42
-0.19537746123395522
10
30.269970649770734
20
-16.201000000008996
10
30.769970649784419
20
-16.201000000006303
10
30.769970649784408
20
-22.201000000006278
10
43.769970649784433
20
-22.20100000000626
10
43.76997064978444
20
-16.201000000006299
10
44.269970649769647
20
-16.201000000005529
42
-0.19537746123408373
10
67.127711114028216
20
-31.174933794452514
10
58.744643850066623
20
-36.014899935935475
10
61.694643850066633
20
-41.124449818263649
10
70.077711114028304
20
-36.284483676780667
42
-0.52432832069453117
10
40.219970649779015
20
-87.999607160065509
10
40.219970649779015
20
-78.319674877099587
0
LWPOLYLINE
5
101
100
AcDbEntity
8
PERIMETER D 6.0
100
AcDbPolyline
90
18
70
1
43
0.0
10
107.91997064977903
20
-78.319674877099587
10
107.91997064977903
20
-87.999607160065452
42
-0.5243283206945305
10
78.062230185529813
20
-36.284483676780717
10
86.445297449491392
20
-41.124449818263678
10
89.395297449491395
20
-36.014899935935489
10
81.01223018552983
20
-31.174933794452532
42
-0.19537746123395511
10
103.86997064977074
20
-16.201000000008989
10
104.36997064978442
20
-16.201000000006303
10
104.36997064978442
20
-22.201000000006278
10
117.36997064978445
20
-22.20100000000626
10
117.36997064978446
20
-16.201000000006299
10
117.86997064976966
20
-16.201000000005529
42
-0.19537746123408373
10
140.72771111402824
20
-31.174933794452514
10
132.34464385006663
20
-36.014899935935475
10
135.29464385006665
20
-41.124449818263649
10
143.67771111402831
20
-36.284483676780667
42
-0.52432832069453117
10
113.81997064977902
20
-87.999607160065509
10
113.81997064977902
20
-78.319674877099587
0
LWPOLYLINE
5
102
100
AcDbEntity
8
PERIMETER D 6.0
100
AcDbPolyline
90
18
70
1
43
0.0
10
181.51997064977905
20
-78.319674877099587
10
181.51997064977903
20
-87.999607160065381
42
-0.52432832069452917
10
151.66223018552981
20
-36.284483676780717
10
160.04529744949139
20
-41.124449818263678
10
162.99529744949137
20
-36.014899935935489
10
154.61223018552991
20
-31.174933794452592
42
-0.19537746123395558
10
177.46997064977077
20
-16.201000000008992
10
177.96997064978444
20
-16.201000000006303
10
177.96997064978444
20
-22.201000000006278
10
190.96997064978444
20
-22.20100000000626
10
190.96997064978444
20
-16.201000000006299
10
191.46997064976969
20
-16.201000000005511
42
-0.19537746123408398
10
214.3277111140282
20
-31.174933794452482
10
205.94464385006663
20
-36.014899935935475
10
208.8946438500667
20
-41.124449818263649
10
217.27771111402845
20
-36.284483676780596
42
-0.52432832069453106
10
187.41997064977906
20
-87.999607160065509
10
187.41997064977906
20
-78.319674877099587
0
LWPOLYLINE
5
103
100
AcDbEntity
8
PERIMETER D 6.0
100
AcDbPolyline
90
30
70
1
43
0.0
10
0.99999999999999201
20
-103.00000000000003
10
8.9999999999861799
20
-103.00000000000003
10
8.9999999999861799
20
-102.50000000000001
10
14.99999999998618
20
-102.50000000000001
10
14.99999999998618
20
-103.00000000000003
10
63.499999999986173
20
-103.00000000000003
10
63.499999999986173
20
-102.50000000000001
10
69.499999999986187
20
-102.50000000000001
10
69.499999999986187
20
-103.00000000000003
10
117.99999999998619
20
-103.00000000000003
10
117.99999999998619
20
-102.50000000000001
10
123.99999999998619
20
-102.50000000000001
10
123.99999999998619
20
-103.00000000000003
10
296
20
-103.00000000000003
42
0.41421356237309609
10
301
20
-98
10
301
20
-94
42
0.41421356237309503
10
296
20
-89
10
123.99999999998619
20
-89
10
123.99999999998619
20
-89.5
10
117.99999999998619
20
-89.5
10
117.99999999998619
20
-89
10
69.499999999986187
20
-89
10
69.499999999986187
20
-89.5
10
63.499999999986173
20
-89.5
10
63.499999999986173
20
-89
10
14.99999999998618
20
-89
10
14.99999999998618
20
-89.5
10
8.9999999999861799
20
-89.5
10
8.9999999999861799
20
-89
10
0.99999999999999201
20
-89
0
LWPOLYLINE
5
104
100
AcDbEntity
8
PERIMETER D 6.0
100
AcDbPolyline
90
26
70
1
43
0.0
10
55.630996639587131
20
-156.64000000039877
10
55.630996639587131
20
-145.63999999999999
10
104.13099663958711
20
-145.63999999999999
10
104.13099663958711
20
-156.64000000039874
10
110.13099663958712
20
-156.64000000039874
10
110.13099663958712
20
-145.63999999999999
10
158.63099663958712
20
-145.63999999999999
10
158.63099663958712
20
-156.64000000039874
10
164.63099663958712
20
-156.64000000039874
10
164.63099663958712
20
-145.63999999999999
10
172.63099663958229
20
-145.63999999999999
10
172.63099663958712
20
-167.63999999999993
10
187.63099663958712
20
-167.63999999999993
10
187.6309966395915
20
-172.63999999999993
10
176.26691013237723
20
-184.00408650721417
42
0.33174809685367834
10
175.4047268077552
20
-189.91871334115163
10
202.63902833428739
20
-240.26090707202064
42
-0.56815214190802787
10
198.24131110374364
20
-247.63999999999996
10
144.60214667343988
20
-247.63999999999987
42
-0.13013010653950141
10
137.18005391546532
20
-245.6750504061938
10
0.9999999999999698
20
-168.13480618386507
10
5.1309966395870443
20
-167.64000000000004
10
37.630996639580587
20
-167.64000000000004
10
37.630996639582307
20
-145.63999999999999
10
49.630996639587117
20
-145.63999999999999
10
49.630996639587117
20
-156.64000000039877
0
LWPOLYLINE
5
105
100
AcDbEntity
8
PERIMETER D 6.0
100
AcDbPolyline
90
26
70
1
43
0.0
10
148.60923516762202
20
-290.28000000000003
10
148.60923516762202
20
-301.28000000039879
10
154.60923516762205
20
-301.28000000039879
10
154.60923516762205
20
-290.28000000000003
10
166.60923516762688
20
-290.28000000000003
10
166.60923516762861
20
-312.28000000000003
10
199.1092351676221
20
-312.28000000000003
10
203.24023180720923
20
-312.77480618386505
10
67.060177891743777
20
-390.3150504061939
42
-0.13013010653949386
10
59.638085133769223
20
-392.28000000000003
10
5.998920703465453
20
-392.27999999999997
42
-0.56815214190803043
10
1.6012034729216955
20
-384.90090707202069
10
28.835504999453846
20
-334.55871334115159
42
0.33174809685368378
10
27.973321674831805
20
-328.64408650721418
10
16.609235167617577
20
-317.27999999999997
10
16.609235167621961
20
-312.27999999999997
10
31.609235167621968
20
-312.27999999999997
10
31.609235167626785
20
-290.28000000000003
10
39.609235167622003
20
-290.28000000000003
10
39.609235167621975
20
-301.28000000039879
10
45.609235167621975
20
-301.28000000039879
10
45.609235167621975
20
-290.28000000000003
10
94.109235167622018
20
-290.28000000000003
10
94.109235167621989
20
-301.28000000039879
10
100.10923516762202
20
-301.28000000039879
10
100.10923516762202
20
-290.28000000000003
0
LWPOLYLINE
5
106
100
AcDbEntity
8
PERIMETER D 6.0
100
AcDbPolyline
90
26
70
1
43
0.0
10
55.630996639587131
20
-445.92000000039877
10
55.630996639587131
20
-434.92000000000007
10
104.13099663958711
20
-434.92000000000007
10
104.13099663958711
20
-445.92000000039877
10
110.13099663958712
20
-445.92000000039877
10
110.13099663958712
20
-434.92000000000007
10
158.63099663958712
20
-434.92000000000007
10
158.63099663958712
20
-445.92000000039877
10
164.63099663958712
20
-445.92000000039877
10
164.63099663958712
20
-434.92000000000007
10
172.63099663958229
20
-434.92000000000007
10
172.63099663958712
20
-456.91999999999996
10
187.63099663958712
20
-456.91999999999996
10
187.6309966395915
20
-461.91999999999996
10
176.26691013237723
20
-473.28408650721417
42
0.33174809685368362
10
175.4047268077552
20
-479.19871334115157
10
202.63902833428742
20
-529.54090707202067
42
-0.56815214190803276
10
198.24131110374364
20
-536.91999999999996
10
144.60214667343988
20
-536.91999999999985
42
-0.13013010653951113
10
137.18005391546532
20
-534.95505040619378
10
0.9999999999999698
20
-457.41480618386504
10
5.1309966395870443
20
-456.92000000000002
10
37.630996639580587
20
-456.92000000000002
10
37.630996639582307
20
-434.92000000000007
10
49.630996639587117
20
-434.92000000000007
10
49.630996639587117
20
-445.92000000039877
0
CIRCLE
5
107
100
AcDbEntity
8
HOLES DIAM 31.0 D 6.0
100
AcDbCircle
10
37.269970649779033
20
-51.819674877099537
30
0
40
15.5
210
0
220
0
230
1
0
CIRCLE
5
108
100
AcDbEntity
8
HOLES DIAM 31.0 D 6.0
100
AcDbCircle
10
110.86997064977905
20
-51.819674877099537
30
0
40
15.5
210
0
220
0
230
1
0
CIRCLE
5
109
100
AcDbEntity
8
HOLES DIAM 31.0 D 6.0
100
AcDbCircle
10
184.4699706497791
20
-51.819674877099445
30
0
40
15.5
210
0
220
0
230
1
0
CIRCLE
5
10A
100
AcDbEntity
8
HOLES DIAM 4.1 D 6.0
100
AcDbCircle
10
24.99999999998618
20
-96.075428463259826
30
0
40
2.0499999999999998
210
0
220
0
230
1
0
CIRCLE
5
10B
100
AcDbEntity
8
HOLES DIAM 4.1 D 6.0
100
AcDbCircle
10
291
20
-96
30
0
40
2.0499999999999998
210
0
220
0
230
1
0
LWPOLYLINE
5
10C
100
AcDbEntity
8
INSETS D 0.5
100
AcDbPolyline
90
4
70
1
43
0.0
10
168.53073107190079
20
-187.72044297137387
10
164.13301410346855
20
-190.09953575757012
10
164.63857044311683
20
-191.03404899146744
10
169.03628741154907
20
-188.65495620527116
0
LWPOLYLINE
5
10D
100
AcDbEntity
8
INSETS D 0.5
100
AcDbPolyline
90
4
70
1
43
0.0
10
169.94497151129153
20
-190.33464499570766
10
165.54725454285929
20
-192.71373778190392
10
166.0528108825076
20
-193.64825101580124
10
170.45052785093984
20
-191.26915822960495
0
LINE
5
10E
100
AcDbEntity
8
INSETS D 0.5
100
AcDbLine
10
184.52021578099917
20
-217.27676319128389
30
0
11
183.58570097435563
21
-217.78232038176213
31
0
0
LINE
5
10F
100
AcDbEntity
8
INSETS D 0.5
100
AcDbLine
10
183.58570097435563
20
-217.78232038176213
30
0
11
184.29612468307153
21
-219.09552784333059
31
0
0
LINE
5
110
100
AcDbEntity
8
INSETS D 0.5
100
AcDbLine
10
184.29612468307153
20
-219.09552784333059
30
0
11
182.62254915727033
21
-220.00090476712288
31
0
0
LINE
5
111
100
AcDbEntity
8
INSETS D 0.5
100
AcDbLine
10
182.62254915727033
20
-220.00090476712288
30
0
11
181.91212544855446
21
-218.68769730555442
31
0
0
LINE
5
112
100
AcDbEntity
8
INSETS D 0.5
100
AcDbLine
10
181.91212544855446
20
-218.68769730555442
30
0
11
180.97761064191093
21
-219.19325449603267
31
0
0
LINE
5
113
100
AcDbEntity
8
INSETS D 0.5
100
AcDbLine
10
180.97761064191093
20
-219.19325449603267
30
0
11
181.68803435062676
21
-220.50646195760109
31
0
0
LINE
5
114
100
AcDbEntity
8
INSETS D 0.5
100
AcDbLine
10
181.68803435062676
20
-220.50646195760109
30
0
11
180.63746869592134
21
-221.07480075440787
31
0
0
LINE
5
115
100
AcDbEntity
8
INSETS D 0.5
100
AcDbLine
10
180.63746869592134
20
-221.07480075440787
30
0
11
181.14302617000953
21
-222.00931608530013
31
0
0
LINE
5
116
100
AcDbEntity
8
INSETS D 0.5
100
AcDbLine
10
181.14302617000953
20
-222.00931608530013
30
0
11
184.85054581009339
21
-220.00360873902929
31
0
0
SPLINE
5
117
100
AcDbEntity
8
INSETS D 0.5
100
AcDbSpline
70
0
71
3
72
9
73
5
74
0
42
0.000000001
43
0.0000000001
44
0.0000000001
40
0
40
0
40
0
40
0
40
0.026045327238494335
40
0.052747694192320629
40
0.052747694192320629
40
0.052747694192320629
40
0.052747694192320629
10
185.22728572437939
20
-219.64188901542596
30
0
10
185.17798667256
20
-219.71461461819081
30
0
10
185.078144912634
20
-219.86190045643227
30
0
10
184.92703958073031
20
-219.95598200963838
30
0
10
184.85054581009339
20
-220.00360873902932
30
0
0
SPLINE
5
118
100
AcDbEntity
8
INSETS D 0.5
100
AcDbSpline
70
0
71
3
72
9
73
5
74
0
42
0.000000001
43
0.0000000001
44
0.0000000001
40
0
40
0
40
0
40
0
40
0.025962001974622218
40
0.051924030853966636
40
0.051924030853966636
40
0.051924030853966636
40
0.051924030853966636
10
185.37447614873119
20
-219.14774530457109
30
0
10
185.36465079118503
20
-219.23448312678528
30
0
10
185.34500006591063
20
-219.40795886110101
30
0
10
185.26652385177744
20
-219.56391227038159
30
0
10
185.22728572437939
20
-219.64188901542596
30
0
0
SPLINE
5
119
100
AcDbEntity
8
INSETS D 0.5
100
AcDbSpline
70
0
71
3
72
9
73
5
74
0
42
0.000000001
43
0.0000000001
44
0.0000000001
40
0
40
0
40
0
40
0
40
0.027218995907506489
40
0.053423340712344128
40
0.053423340712344128
40
0.053423340712344128
40
0.053423340712344128
10
185.25376958505817
20
-218.63272628363816
30
0
10
185.29271205857196
20
-218.71592280477284
30
0
10
185.3691453347214
20
-218.87921450406114
30
0
10
185.37272185325602
20
-219.05937561704874
30
0
10
185.37447614873119
20
-219.14774530457109
30
0
0
LINE
5
11A
100
AcDbEntity
8
INSETS D 0.5
100
AcDbLine
10
185.25376958505817
20
-218.63272628363816
30
0
11
184.52021578099917
21
-217.27676319128389
31
0
0
SPLINE
5
11B
100
AcDbEntity
8
INSETS D 0.5
100
AcDbSpline
70
0
71
3
72
9
73
5
74
0
42
0.000000001
43
0.0000000001
44
0.0000000001
40
0
40
0
40
0
40
0
40
0.026204368498650564
40
0.053423356802585323
40
0.053423356802585323
40
0.053423356802585323
40
0.053423356802585323
10
175.9109750087737
20
-201.65460683370418
30
0
10
175.98398129624712
20
-201.70443033193982
30
0
10
176.13282063747081
20
-201.80600646889326
30
0
10
176.22767260949706
20
-201.95933412825008
30
0
10
176.27599931286628
20
-202.0374539622793
30
0
0
SPLINE
5
11C
100
AcDbEntity
8
INSETS D 0.5
100
AcDbSpline
70
0
71
3
72
9
73
5
74
0
42
0.000000001
43
0.0000000001
44
0.0000000001
40
0
40
0
40
0
40
0
40
0.02580194095123578
40
0.051695621768553482
40
0.051695621768553482
40
0.051695621768553482
40
0.051695621768553482
10
175.41848376434544
20
-201.51046721047697
30
0
10
175.50480810025792
20
-201.51944260320926
30
0
10
175.67776370182241
20
-201.53742530105308
30
0
10
175.83314599183541
20
-201.61550013854099
30
0
10
175.9109750087737
20
-201.65460683370418
30
0
0
SPLINE
5
11D
100
AcDbEntity
8
INSETS D 0.5
100
AcDbSpline
70
0
71
3
72
9
73
5
74
0
42
0.000000001
43
0.0000000001
44
0.0000000001
40
0
40
0
40
0
40
0
40
0.026691251386224191
40
0.052633455374042133
40
0.052633455374042133
40
0.052633455374042133
40
0.052633455374042133
10
174.91122426943181
20
-201.63092346685912
30
0
10
174.99279831076424
20
-201.59283595686372
30
0
10
175.15365714806731
20
-201.5177298020925
30
0
10
175.3310497401618
20
-201.51286499669601
30
0
10
175.41848376434544
20
-201.51046721047697
30
0
0
LINE
5
11E
100
AcDbEntity
8
INSETS D 0.5
100
AcDbLine
10
174.91122426943181
20
-201.63092346685912
30
0
11
172.25427002192907
21
-203.0682921581282
31
0
0
LINE
5
11F
100
AcDbEntity
8
INSETS D 0.5
100
AcDbLine
10
172.25427002192907
20
-203.0682921581282
30
0
11
172.75982863045724
21
-204.00280958601545
31
0
0
LINE
5
120
100
AcDbEntity
8
INSETS D 0.5
100
AcDbLine
10
172.75982863045724
20
-204.00280958601545
30
0
11
175.3679192250263
21
-202.59187532993994
31
0
0
LINE
5
121
100
AcDbEntity
8
INSETS D 0.5
100
AcDbLine
10
175.3679192250263
20
-202.59187532993994
30
0
11
176.29973001679213
21
-204.31431346017732
31
0
0
LINE
5
122
100
AcDbEntity
8
INSETS D 0.5
100
AcDbLine
10
176.29973001679213
20
-204.31431346017732
30
0
11
173.69163942222301
21
-205.72524771625282
31
0
0
LINE
5
123
100
AcDbEntity
8
INSETS D 0.5
100
AcDbLine
10
173.69163942222301
20
-205.72524771625282
30
0
11
174.19719689631123
21
-206.65976304714513
31
0
0
LINE
5
124
100
AcDbEntity
8
INSETS D 0.5
100
AcDbLine
10
174.19719689631123
20
-206.65976304714513
30
0
11
176.85415114381397
21
-205.22239435587605
31
0
0
SPLINE
5
125
100
AcDbEntity
8
INSETS D 0.5
100
AcDbSpline
70
0
71
3
72
9
73
5
74
0
42
0.000000001
43
0.0000000001
44
0.0000000001
40
0
40
0
40
0
40
0
40
0.02594229732761372
40
0.052633518473645287
40
0.052633518473645287
40
0.052633518473645287
40
0.052633518473645287
10
177.23254280261023
20
-204.86372785697344
30
0
10
177.18269317769261
20
-204.93559961788856
30
0
10
177.08155482741972
20
-205.0814179934967
30
0
10
176.93066802918474
20
-205.17495857124351
30
0
10
176.85415114381399
20
-205.22239435587605
30
0
0
SPLINE
5
126
100
AcDbEntity
8
INSETS D 0.5
100
AcDbSpline
70
0
71
3
72
9
73
5
74
0
42
0.000000001
43
0.0000000001
44
0.0000000001
40
0
40
0
40
0
40
0
40
0.026098790292758915
40
0.051953522629994232
40
0.051953522629994232
40
0.051953522629994232
40
0.051953522629994232
10
177.37973436140197
20
-204.36958624311359
30
0
10
177.37042835400987
20
-204.45690949822819
30
0
10
177.35190336261309
20
-204.63073942137135
30
0
10
177.27220485815684
20
-204.78630864685624
30
0
10
177.23254280261023
20
-204.86372785697344
30
0
0
SPLINE
5
127
100
AcDbEntity
8
INSETS D 0.5
100
AcDbSpline
70
0
71
3
72
9
73
5
74
0
42
0.000000001
43
0.0000000001
44
0.0000000001
40
0
40
0
40
0
40
0
40
0.026788676491706385
40
0.053072676882459743
40
0.053072676882459743
40
0.053072676882459743
40
0.053072676882459743
10
177.26067954223919
20
-203.85762044688147
30
0
10
177.29870344563579
20
-203.93960053707983
30
0
10
177.37403491411663
20
-204.1020162816292
30
0
10
177.37784662769357
20
-204.28096346789334
30
0
10
177.37973436140197
20
-204.36958624311359
30
0
0
LINE
5
128
100
AcDbEntity
8
INSETS D 0.5
100
AcDbLine
10
177.26067954223919
20
-203.85762044688147
30
0
11
176.2759993128663
21
-202.0374539622793
31
0
0
LINE
5
129
100
AcDbEntity
8
INSETS D 0.5
100
AcDbLine
10
188.3862429234409
20
-224.42305578793344
30
0
11
185.72928893806252
21
-225.86042433739752
31
0
0
SPLINE
5
12A
100
AcDbEntity
8
INSETS D 0.5
100
AcDbSpline
70
0
71
3
72
9
73
5
74
0
42
0.000000001
43
0.0000000001
44
0.0000000001
40
0
40
0
40
0
40
0
40
0.026262086217462868
40
0.052608966322465485
40
0.052608966322465485
40
0.052608966322465485
40
0.052608966322465485
10
185.35089727926629
20
-226.21909083630015
30
0
10
185.40177288888927
20
-226.14666217786203
30
0
10
185.50368837310208
20
-226.0015710064676
30
0
10
185.65400798920848
20
-225.90752375479948
30
0
10
185.72928893806252
20
-225.86042433739755
30
0
0
SPLINE
5
12B
100
AcDbEntity
8
INSETS D 0.5
100
AcDbSpline
70
0
71
3
72
9
73
5
74
0
42
0.000000001
43
0.0000000001
44
0.0000000001
40
0
40
0
40
0
40
0
40
0.02584011656728907
40
0.051986301097275138
40
0.051986301097275138
40
0.051986301097275138
40
0.051986301097275138
10
185.198999702766
20
-226.71183153718943
30
0
10
185.20839378253561
20
-226.62534225580083
30
0
10
185.22729321196204
20
-226.45133925499215
30
0
10
185.30953452565043
20
-226.29681023768828
30
0
10
185.35089727926629
20
-226.21909083630015
30
0
0
SPLINE
5
12C
100
AcDbEntity
8
INSETS D 0.5
100
AcDbSpline
70
0
71
3
72
9
73
5
74
0
42
0.000000001
43
0.0000000001
44
0.0000000001
40
0
40
0
40
0
40
0
40
0.027208050042995681
40
0.053309993809655926
40
0.053309993809655926
40
0.053309993809655926
40
0.053309993809655926
10
185.32276027751294
20
-227.22519838819716
30
0
10
185.28369737519068
20
-227.14214866596927
30
0
10
185.20715961972141
20
-226.97942549503779
30
0
10
185.20168178936419
20
-226.79978710978006
30
0
10
185.198999702766
20
-226.71183153718943
30
0
0
LINE
5
12D
100
AcDbEntity
8
INSETS D 0.5
100
AcDbLine
10
185.32276027751294
20
-227.22519838819716
30
0
11
186.78656326217052
21
-229.93101602650921
31
0
0
LINE
5
12E
100
AcDbEntity
8
INSETS D 0.5
100
AcDbLine
10
186.78656326217052
20
-229.93101602650921
30
0
11
187.72107806881408
21
-229.42545883603088
31
0
0
LINE
5
12F
100
AcDbEntity
8
INSETS D 0.5
100
AcDbLine
10
187.72107806881408
20
-229.42545883603088
30
0
11
186.28370980296006
21
-226.76850537490125
31
0
0
LINE
5
130
100
AcDbEntity
8
INSETS D 0.5
100
AcDbLine
10
186.28370980296006
20
-226.76850537490125
30
0
11
186.6501864135893
21
-226.57024753636449
31
0
0
LINE
5
131
100
AcDbEntity
8
INSETS D 0.5
100
AcDbLine
10
186.6501864135893
20
-226.57024753636449
30
0
11
188.08755467944337
21
-229.22720099749415
31
0
0
LINE
5
132
100
AcDbEntity
8
INSETS D 0.5
100
AcDbLine
10
188.08755467944337
20
-229.22720099749415
30
0
11
189.44351750967328
21
-228.4936473352401
31
0
0
SPLINE
5
133
100
AcDbEntity
8
INSETS D 0.5
100
AcDbSpline
70
0
71
3
72
9
73
5
74
0
42
0.000000001
43
0.0000000001
44
0.0000000001
40
0
40
0
40
0
40
0
40
0.025942250657483918
40
0.052633486923349876
40
0.052633486923349876
40
0.052633486923349876
40
0.052633486923349876
10
189.82190916846952
20
-228.13498083633755
30
0
10
189.7720592168244
20
-228.20685210224525
30
0
10
189.67092008234124
20
-228.3526696484661
30
0
10
189.52003408042853
20
-228.44621106827799
30
0
10
189.44351750967328
20
-228.49364733524013
30
0
0
SPLINE
5
134
100
AcDbEntity
8
INSETS D 0.5
100
AcDbSpline
70
0
71
3
72
9
73
5
74
0
42
0.000000001
43
0.0000000001
44
0.0000000001
40
0
40
0
40
0
40
0
40
0.026098602352712746
40
0.051953481174704191
40
0.051953481174704191
40
0.051953481174704191
40
0.051953481174704191
10
189.96910072726126
20
-227.64083922247764
30
0
10
189.95979400500343
20
-227.72816167344502
30
0
10
189.94126747193138
20
-227.9019911088742
30
0
10
189.86157064536656
20
-228.05756086282065
30
0
10
189.82190916846952
20
-228.13498083633755
30
0
0
SPLINE
5
135
100
AcDbEntity
8
INSETS D 0.5
100
AcDbSpline
70
0
71
3
72
9
73
5
74
0
42
0.000000001
43
0.0000000001
44
0.0000000001
40
0
40
0
40
0
40
0
40
0.026788440084412932
40
0.05307265937137165
40
0.05307265937137165
40
0.05307265937137165
40
0.05307265937137165
10
189.85004590809848
20
-227.12887342624555
30
0
10
189.88806922317787
20
-227.21085285821573
30
0
10
189.96340016604046
20
-227.3732686784241
30
0
10
189.9672126136696
20
-227.55221574114194
30
0
10
189.96910072726126
20
-227.64083922247764
30
0
0
LINE
5
136
100
AcDbEntity
8
INSETS D 0.5
100
AcDbLine
10
189.85004590809848
20
-227.12887342624555
30
0
11
188.3862429234409
21
-224.42305578793344
31
0
0
LWPOLYLINE
5
137
100
AcDbEntity
8
INSETS D 0.5
100
AcDbPolyline
90
4
70
1
43
0.0
10
188.40046090181232
20
-227.84991022425709
10
187.4686501100465
20
-226.12747209401971
10
187.95728559088559
20
-225.86312830930399
10
188.88909638265142
20
-227.5855664395414
0
SPLINE
5
138
100
AcDbEntity
8
INSETS D 0.5
100
AcDbSpline
70
0
71
3
72
9
73
5
74
0
42
0.000000001
43
0.0000000001
44
0.0000000001
40
0
40
0
40
0
40
0
40
0.026683188104450584
40
0.054074336047950748
40
0.054074336047950748
40
0.054074336047950748
40
0.054074336047950748
10
194.21016377789374
20
-235.48038001305707
30
0
10
194.28401058840547
20
-235.53175271006972
30
0
10
194.43366351713533
20
-235.63586112736519
30
0
10
194.52979677277429
20
-235.79083451282116
30
0
10
194.57849270544673
20
-235.86933568802866
30
0
0
SPLINE
5
139
100
AcDbEntity
8
INSETS D 0.5
100
AcDbSpline
70
0
71
3
72
9
73
5
74
0
42
0.000000001
43
0.0000000001
44
0.0000000001
40
0
40
0
40
0
40
0
40
0.02663968423744479
40
0.053187550872097977
40
0.053187550872097977
40
0.053187550872097977
40
0.053187550872097977
10
193.70495724966668
20
-235.32733130662842
30
0
10
193.79402883852947
20
-235.33729793364344
30
0
10
193.97186501788028
20
-235.35719683622276
30
0
10
194.13082232715755
20
-235.43936623709041
30
0
10
194.21016377789374
20
-235.48038001305707
30
0
0
SPLINE
5
13A
100
AcDbEntity
8
INSETS D 0.5
100
AcDbSpline
70
0
71
3
72
9
73
5
74
0
42
0.000000001
43
0.0000000001
44
0.0000000001
40
0
40
0
40
0
40
0
40
0.027402292027201316
40
0.054188214019435313
40
0.054188214019435313
40
0.054188214019435313
40
0.054188214019435313
10
193.18217737060701
20
-235.4482882205636
30
0
10
193.26603851160726
20
-235.40935276285956
30
0
10
193.43187447350141
20
-235.33235763730892
30
0
10
193.61462255392217
20
-235.3289939968175
30
0
10
193.70495724966668
20
-235.32733130662842
30
0
0
LINE
5
13B
100
AcDbEntity
8
INSETS D 0.5
100
AcDbLine
10
193.18217737060701
20
-235.4482882205636
30
0
11
191.52081762697705
21
-236.34705660645994
31
0
0
LINE
5
13C
100
AcDbEntity
8
INSETS D 0.5
100
AcDbLine
10
191.52081762697705
20
-236.34705660645994
30
0
11
192.55506210327667
21
-238.25884185053292
31
0
0
LINE
5
13D
100
AcDbEntity
8
INSETS D 0.5
100
AcDbLine
10
192.55506210327667
20
-238.25884185053292
30
0
11
193.50790071423921
21
-237.74337178230832
31
0
0
LINE
5
13E
100
AcDbEntity
8
INSETS D 0.5
100
AcDbLine
10
193.50790071423921
20
-237.74337178230832
30
0
11
192.99243078781961
21
-236.7905334334701
31
0
0
LINE
5
13F
100
AcDbEntity
8
INSETS D 0.5
100
AcDbLine
10
192.99243078781961
20
-236.7905334334701
30
0
11
193.65208826755338
21
-236.43366955099191
31
0
0
LINE
5
140
100
AcDbEntity
8
INSETS D 0.5
100
AcDbLine
10
193.65208826755338
20
-236.43366955099191
30
0
11
195.00024077549534
21
-238.92570903537467
31
0
0
LINE
5
141
100
AcDbEntity
8
INSETS D 0.5
100
AcDbLine
10
195.00024077549534
20
-238.92570903537467
30
0
11
192.50820129111258
21
-240.27386154331674
31
0
0
LINE
5
142
100
AcDbEntity
8
INSETS D 0.5
100
AcDbLine
10
192.50820129111258
20
-240.27386154331674
30
0
11
191.16004878317062
21
-237.78182205893393
31
0
0
LINE
5
143
100
AcDbEntity
8
INSETS D 0.5
100
AcDbLine
10
191.16004878317062
20
-237.78182205893393
30
0
11
191.52652539379989
21
-237.58356422039719
31
0
0
LINE
5
144
100
AcDbEntity
8
INSETS D 0.5
100
AcDbLine
10
191.52652539379989
20
-237.58356422039719
30
0
11
191.00775084391989
21
-236.62461732516243
31
0
0
LINE
5
145
100
AcDbEntity
8
INSETS D 0.5
100
AcDbLine
10
191.00775084391989
20
-236.62461732516243
30
0
11
190.59241084248131
21
-236.84930945708777
31
0
0
SPLINE
5
146
100
AcDbEntity
8
INSETS D 0.5
100
AcDbSpline
70
0
71
3
72
9
73
5
74
0
42
0.000000001
43
0.0000000001
44
0.0000000001
40
0
40
0
40
0
40
0
40
0.026785949324576321
40
0.054188211801895703
40
0.054188211801895703
40
0.054188211801895703
40
0.054188211801895703
10
190.20510747923993
20
-237.22069265783909
30
0
10
190.25592979385382
20
-237.14599171915728
30
0
10
190.35874378469623
20
-236.99487106115714
30
0
10
190.51393346989221
20
-236.89819650323582
30
0
10
190.59241084248131
20
-236.84930945708777
30
0
0
SPLINE
5
147
100
AcDbEntity
8
INSETS D 0.5
100
AcDbSpline
70
0
71
3
72
9
73
5
74
0
42
0.000000001
43
0.0000000001
44
0.0000000001
40
0
40
0
40
0
40
0
40
0.026547866634653187
40
0.053187550872097977
40
0.053187550872097977
40
0.053187550872097977
40
0.053187550872097977
10
190.05676454988105
20
-237.72730090689544
30
0
10
190.06585087759345
20
-237.63844915242396
30
0
10
190.08405495870076
20
-237.46043834364349
30
0
10
190.16471022736363
20
-237.30069980525377
30
0
10
190.20510747923993
20
-237.22069265783909
30
0
0
SPLINE
5
148
100
AcDbEntity
8
INSETS D 0.5
100
AcDbSpline
70
0
71
3
72
9
73
5
74
0
42
0.000000001
43
0.0000000001
44
0.0000000001
40
0
40
0
40
0
40
0
40
0.027391147943500165
40
0.054074336047950748
40
0.054074336047950748
40
0.054074336047950748
40
0.054074336047950748
10
190.1807757370145
20
-238.24842847422491
30
0
10
190.14171585414738
20
-238.16471435404077
30
0
10
190.06460564188075
20
-237.99944981397357
30
0
10
190.05935533426884
20
-237.81722194590947
30
0
10
190.05676454988105
20
-237.72730090689544
30
0
0
LINE
5
149
100
AcDbEntity
8
INSETS D 0.5
100
AcDbLine
10
190.1807757370145
20
-238.24842847422491
30
0
11
191.57849277549317
21
-240.83208724232719
31
0
0
SPLINE
5
14A
100
AcDbEntity
8
INSETS D 0.5
100
AcDbSpline
70
0
71
3
72
9
73
5
74
0
42
0.000000001
43
0.0000000001
44
0.0000000001
40
0
40
0
40
0
40
0
40
0.026683203907705802
40
0.054074311286230636
40
0.054074311286230636
40
0.054074311286230636
40
0.054074311286230636
10
191.94682163214367
20
-241.22104278623667
30
0
10
191.87297489757694
20
-241.16966991978356
30
0
10
191.72332227991359
20
-241.06556126844396
30
0
10
191.6271887813835
20
-240.91058818449724
30
0
10
191.57849277549317
20
-240.83208724232719
30
0
0
SPLINE
5
14B
100
AcDbEntity
8
INSETS D 0.5
100
AcDbSpline
70
0
71
3
72
9
73
5
74
0
42
0.000000001
43
0.0000000001
44
0.0000000001
40
0
40
0
40
0
40
0
40
0.026479262299312335
40
0.052958499123511527
40
0.052958499123511527
40
0.052958499123511527
40
0.052958499123511527
10
192.45037616770173
20
-241.37103780924684
30
0
10
192.36171918729298
20
-241.36192187831855
30
0
10
192.18440531177043
20
-241.34369002523229
30
0
10
192.0260161666221
20
-241.26192518612447
30
0
10
191.94682163214367
20
-241.22104278623667
30
0
0
SPLINE
5
14C
100
AcDbEntity
8
INSETS D 0.5
100
AcDbSpline
70
0
71
3
72
9
73
5
74
0
42
0.000000001
43
0.0000000001
44
0.0000000001
40
0
40
0
40
0
40
0
40
0.027391120270531314
40
0.054074327086814519
40
0.054074327086814519
40
0.054074327086814519
40
0.054074327086814519
10
192.97150369957993
20
-241.24702655658226
30
0
10
192.88778963215333
20
-241.28608629468749
30
0
10
192.72252505666
20
-241.36319628629676
30
0
10
192.54029725292963
20
-241.36844688096409
30
0
10
192.45037616770173
20
-241.37103780924684
30
0
0
LINE
5
14D
100
AcDbEntity
8
INSETS D 0.5
100
AcDbLine
10
192.97150369957993
20
-241.24702655658226
30
0
11
195.56127022770562
21
-239.84600532005805
31
0
0
SPLINE
5
14E
100
AcDbEntity
8
INSETS D 0.5
100
AcDbSpline
70
0
71
3
72
9
73
5
74
0
42
0.000000001
43
0.0000000001
44
0.0000000001
40
0
40
0
40
0
40
0
40
0.026683180832989668
40
0.054074330193189149
40
0.054074330193189149
40
0.054074330193189149
40
0.054074330193189149
10
195.95022593812848
20
-239.47767645803617
30
0
10
195.89885319356725
20
-239.55152319602803
30
0
10
195.7947446628144
20
-239.70117600237273
30
0
10
195.63977136903461
20
-239.7973093387148
30
0
10
195.56127022770565
20
-239.84600532005805
30
0
0
SPLINE
5
14F
100
AcDbEntity
8
INSETS D 0.5
100
AcDbSpline
70
0
71
3
72
9
73
5
74
0
42
0.000000001
43
0.0000000001
44
0.0000000001
40
0
40
0
40
0
40
0
40
0.026479230937806065
40
0.052958497804562528
40
0.052958497804562528
40
0.052958497804562528
40
0.052958497804562528
10
196.10022086015636
20
-238.97412189239822
30
0
10
196.09110493916222
20
-239.06277876382461
30
0
10
196.07287308480488
20
-239.24009262697348
30
0
10
195.99110833884467
20
-239.39848181186301
30
0
10
195.95022593812848
20
-239.47767645803617
30
0
0
SPLINE
5
150
100
AcDbEntity
8
INSETS D 0.5
100
AcDbSpline
70
0
71
3
72
9
73
5
74
0
42
0.000000001
43
0.0000000001
44
0.0000000001
40
0
40
0
40
0
40
0
40
0.027391111156437678
40
0.054074303429851478
40
0.054074303429851478
40
0.054074303429851478
40
0.054074303429851478
10
195.97620974392541
20
-238.45299445613094
30
0
10
196.01526925993682
20
-238.53670856798843
30
0
10
196.09237880502107
20
-238.70197321388355
30
0
10
196.09762975622019
20
-238.88420088317764
30
0
10
196.10022086015636
20
-238.97412189239822
30
0
0
LINE
5
151
100
AcDbEntity
8
INSETS D 0.5
100
AcDbLine
10
195.97620974392541
20
-238.45299445613094
30
0
11
194.57849270544673
21
-235.86933568802868
31
0
0
LINE
5
152
100
AcDbEntity
8
INSETS D 0.5
100
AcDbLine
10
186.09636575335185
20
-220.19025253412366
30
0
11
185.16185094670831
21
-220.69580972460193
31
0
0
LINE
5
153
100
AcDbEntity
8
INSETS D 0.5
100
AcDbLine
10
185.16185094670831
20
-220.69580972460193
30
0
11
186.59921921256233
21
-223.35276318573162
31
0
0
LINE
5
154
100
AcDbEntity
8
INSETS D 0.5
100
AcDbLine
10
186.59921921256233
20
-223.35276318573162
30
0
11
184.9256434246368
21
-224.25814025132883
31
0
0
LINE
5
155
100
AcDbEntity
8
INSETS D 0.5
100
AcDbLine
10
184.9256434246368
20
-224.25814025132883
30
0
11
183.49157978224321
21
-221.60729533659571
31
0
0
LINE
5
156
100
AcDbEntity
8
INSETS D 0.5
100
AcDbLine
10
183.49157978224321
20
-221.60729533659571
30
0
11
182.55706497559964
21
-222.11285252707398
31
0
0
LINE
5
157
100
AcDbEntity
8
INSETS D 0.5
100
AcDbLine
10
182.55706497559964
20
-222.11285252707398
30
0
11
184.0175633367968
21
-224.81256161898949
31
0
0
SPLINE
5
158
100
AcDbEntity
8
INSETS D 0.5
100
AcDbSpline
70
0
71
3
72
9
73
5
74
0
42
0.000000001
43
0.0000000001
44
0.0000000001
40
0
40
0
40
0
40
0
40
0.026045291480589892
40
0.052747677810698765
40
0.052747677810698765
40
0.052747677810698765
40
0.052747677810698765
10
184.3792835846489
20
-225.1893012496655
30
0
10
184.30655839215532
20
-225.14000192324872
30
0
10
184.15927322833863
20
-225.04015950113347
30
0
10
184.06519063970296
20
-224.8890550320867
30
0
10
184.0175633367968
20
-224.81256161898949
30
0
0
SPLINE
5
159
100
AcDbEntity
8
INSETS D 0.5
100
AcDbSpline
70
0
71
3
72
9
73
5
74
0
42
0.000000001
43
0.0000000001
44
0.0000000001
40
0
40
0
40
0
40
0
40
0.025961978557810957
40
0.051923980532433175
40
0.051923980532433175
40
0.051923980532433175
40
0.051923980532433175
10
184.87342626849184
20
-225.33649290729102
30
0
10
184.78668849432552
20
-225.32666758309759
30
0
10
184.61321286775842
20
-225.30701692584864
30
0
10
184.45726003579608
20
-225.22853982019052
30
0
10
184.3792835846489
20
-225.1893012496655
30
0
0
SPLINE
5
15A
100
AcDbEntity
8
INSETS D 0.5
100
AcDbSpline
70
0
71
3
72
9
73
5
74
0
42
0.000000001
43
0.0000000001
44
0.0000000001
40
0
40
0
40
0
40
0
40
0.026702427505542026
40
0.052747632075129045
40
0.052747632075129045
40
0.052747632075129045
40
0.052747632075129045
10
185.38233750791574
20
-225.21908987560971
30
0
10
185.30061621330574
20
-225.25705363137433
30
0
10
185.13918501833686
20
-225.33204674654513
30
0
10
184.96127360716656
20
-225.33502321574156
30
0
10
184.87342626849184
20
-225.33649290729102
30
0
0
LINE
5
15B
100
AcDbEntity
8
INSETS D 0.5
100
AcDbLine
10
185.38233750791574
20
-225.21908987560971
30
0
11
187.15364033958423
21
-224.26084408143029
31
0
0
SPLINE
5
15C
100
AcDbEntity
8
INSETS D 0.5
100
AcDbSpline
70
0
71
3
72
9
73
5
74
0
42
0.000000001
43
0.0000000001
44
0.0000000001
40
0
40
0
40
0
40
0
40
0.026045327238494335
40
0.052747694192320629
40
0.052747694192320629
40
0.052747694192320629
40
0.052747694192320629
10
187.53038025387019
20
-223.89912435782693
30
0
10
187.4810812020508
20
-223.97184996059181
30
0
10
187.38123944212481
20
-224.1191357988333
30
0
10
187.23013411022112
20
-224.21321735203935
30
0
10
187.15364033958423
20
-224.26084408143032
30
0
0
SPLINE
5
15D
100
AcDbEntity
8
INSETS D 0.5
100
AcDbSpline
70
0
71
3
72
9
73
5
74
0
42
0.000000001
43
0.0000000001
44
0.0000000001
40
0
40
0
40
0
40
0
40
0.025961908307455709
40
0.051923937186800127
40
0.051923937186800127
40
0.051923937186800127
40
0.051923937186800127
10
187.67757124544201
20
-223.40498169546962
30
0
10
187.66774561174148
20
-223.49171914982495
30
0
10
187.6480942987084
20
-223.66519446136039
30
0
10
187.56961832955895
20
-223.82114760495915
30
0
10
187.53038025387019
20
-223.89912435782693
30
0
0
SPLINE
5
15E
100
AcDbEntity
8
INSETS D 0.5
100
AcDbSpline
70
0
71
3
72
9
73
5
74
0
42
0.000000001
43
0.0000000001
44
0.0000000001
40
0
40
0
40
0
40
0
40
0.026702390205463486
40
0.052747669766809197
40
0.052747669766809197
40
0.052747669766809197
40
0.052747669766809197
10
187.56016873800942
20
-222.89607017243571
30
0
10
187.59813272708783
20
-222.97779126631923
30
0
10
187.67312646148881
20
-223.13922240562852
30
0
10
187.67610200686622
20
-223.3171340509918
30
0
10
187.67757124544201
20
-223.40498169546962
30
0
0
LINE
5
15F
100
AcDbEntity
8
INSETS D 0.5
100
AcDbLine
10
187.56016873800942
20
-222.89607017243571
30
0
11
186.09636575335185
21
-220.19025253412366
31
0
0
LWPOLYLINE
5
160
100
AcDbEntity
8
INSETS D 0.5
100
AcDbPolyline
90
4
70
1
43
0.0
10
169.23785015715623
20
-189.02754188654575
10
164.840133188724
20
-191.40663467274203
10
165.3456895283723
20
-192.34114790663932
10
169.74340649680457
20
-189.9620551204431
0
LWPOLYLINE
5
161
100
AcDbEntity
8
INSETS D 0.5
100
AcDbPolyline
90
4
70
1
43
0.0
10
183.74370754415426
20
-215.84139948074943
10
180.20110214294164
20
-217.75789092730321
10
180.70665961702986
20
-218.69240625819543
10
184.24926501824245
20
-216.77591481164166
0
LINE
5
162
100
AcDbEntity
8
INSETS D 0.5
100
AcDbLine
10
191.79297164804072
20
-230.72034221826749
30
0
11
189.13601766266237
21
-232.15771076773154
31
0
0
SPLINE
5
163
100
AcDbEntity
8
INSETS D 0.5
100
AcDbSpline
70
0
71
3
72
9
73
5
74
0
42
0.000000001
43
0.0000000001
44
0.0000000001
40
0
40
0
40
0
40
0
40
0.026262086217462868
40
0.052608966322465485
40
0.052608966322465485
40
0.052608966322465485
40
0.052608966322465485
10
188.75762600386611
20
-232.51637726663415
30
0
10
188.80850161348914
20
-232.44394860819602
30
0
10
188.91041709770195
20
-232.29885743680165
30
0
10
189.06073671380835
20
-232.20481018513345
30
0
10
189.13601766266237
20
-232.15771076773154
30
0
0
SPLINE
5
164
100
AcDbEntity
8
INSETS D 0.5
100
AcDbSpline
70
0
71
3
72
9
73
5
74
0
42
0.000000001
43
0.0000000001
44
0.0000000001
40
0
40
0
40
0
40
0
40
0.025840069712952815
40
0.051986254242938887
40
0.051986254242938887
40
0.051986254242938887
40
0.051986254242938887
10
188.60572814375587
20
-233.0091174432747
30
0
10
188.61512236235728
20
-232.92262834618359
30
0
10
188.63402208832755
20
-232.7486255574695
30
0
10
188.71626327623267
20
-232.59409667184309
30
0
10
188.75762600386611
20
-232.51637726663415
30
0
0
SPLINE
5
165
100
AcDbEntity
8
INSETS D 0.5
100
AcDbSpline
70
0
71
3
72
9
73
5
74
0
42
0.000000001
43
0.0000000001
44
0.0000000001
40
0
40
0
40
0
40
0
40
0.027207931760101934
40
0.053310040249428745
40
0.053310040249428745
40
0.053310040249428745
40
0.053310040249428745
10
188.72948900211281
20
-233.52248481853113
30
0
10
188.69042642104722
20
-233.43943542124919
30
0
10
188.61388889562221
20
-233.27671203783183
30
0
10
188.60841051457638
20
-233.09707354632974
30
0
10
188.60572814375587
20
-233.0091174432747
30
0
0
LINE
5
166
100
AcDbEntity
8
INSETS D 0.5
100
AcDbLine
10
188.72948900211281
20
-233.52248481853113
30
0
11
190.19329198677039
21
-236.22830245684321
31
0
0
LINE
5
167
100
AcDbEntity
8
INSETS D 0.5
100
AcDbLine
10
190.19329198677039
20
-236.22830245684321
30
0
11
191.12780679341392
21
-235.72274526636491
31
0
0
LINE
5
168
100
AcDbEntity
8
INSETS D 0.5
100
AcDbLine
10
191.12780679341392
20
-235.72274526636491
30
0
11
189.6904382439499
21
-233.0657912809865
31
0
0
LINE
5
169
100
AcDbEntity
8
INSETS D 0.5
100
AcDbLine
10
189.6904382439499
20
-233.0657912809865
30
0
11
190.05691485457919
21
-232.86753344244977
31
0
0
LINE
5
16A
100
AcDbEntity
8
INSETS D 0.5
100
AcDbLine
10
190.05691485457919
20
-232.86753344244977
30
0
11
191.49428340404319
21
-235.52448742782821
31
0
0
LINE
5
16B
100
AcDbEntity
8
INSETS D 0.5
100
AcDbLine
10
191.49428340404319
20
-235.52448742782821
30
0
11
192.85024623427313
21
-234.79093376557412
31
0
0
SPLINE
5
16C
100
AcDbEntity
8
INSETS D 0.5
100
AcDbSpline
70
0
71
3
72
9
73
5
74
0
42
0.000000001
43
0.0000000001
44
0.0000000001
40
0
40
0
40
0
40
0
40
0.025942227322592951
40
0.052633463588458905
40
0.052633463588458905
40
0.052633463588458905
40
0.052633463588458905
10
193.22863817667937
20
-234.43226779092029
30
0
10
193.17878808979526
20
-234.50413884826753
30
0
10
193.07764863479514
20
-234.64995603786008
30
0
10
192.92676276961339
20
-234.74349747088218
30
0
10
192.85024623427313
20
-234.79093376557415
30
0
0
SPLINE
5
16D
100
AcDbEntity
8
INSETS D 0.5
100
AcDbSpline
70
0
71
3
72
9
73
5
74
0
42
0.000000001
43
0.0000000001
44
0.0000000001
40
0
40
0
40
0
40
0
40
0.026098602352712746
40
0.051953554417595492
40
0.051953554417595492
40
0.051953554417595492
40
0.051953554417595492
10
193.37582916825113
20
-233.93812512856294
30
0
10
193.36652236594236
20
-234.02544754544181
30
0
10
193.34799564739754
20
-234.19927715807316
30
0
10
193.26829941455057
20
-234.35484744298975
30
0
10
193.22863817667937
20
-234.43226779092029
30
0
0
SPLINE
5
16E
100
AcDbEntity
8
INSETS D 0.5
100
AcDbSpline
70
0
71
3
72
9
73
5
74
0
42
0.000000001
43
0.0000000001
44
0.0000000001
40
0
40
0
40
0
40
0
40
0.026788440084412932
40
0.053072604647288468
40
0.053072604647288468
40
0.053072604647288468
40
0.053072604647288468
10
193.2567746326983
20
-233.42615985657955
30
0
10
193.2947979742143
20
-233.50813928531406
30
0
10
193.3701288917776
20
-233.67055493164233
30
0
10
193.37394115029909
20
-233.84950182448966
30
0
10
193.37582916825113
20
-233.93812512856294
30
0
0
LINE
5
16F
100
AcDbEntity
8
INSETS D 0.5
100
AcDbLine
10
193.2567746326983
20
-233.42615985657955
30
0
11
191.79297164804072
21
-230.72034221826749
31
0
0
LWPOLYLINE
5
170
100
AcDbEntity
8
INSETS D 0.5
100
AcDbPolyline
90
4
70
1
43
0.0
10
191.80718991002215
20
-234.14719717883983
10
190.87537855103636
20
-232.42475800010496
10
191.36401403187546
20
-232.16041421538927
10
192.29582539086124
20
-233.88285339412414
0
LINE
5
171
100
AcDbEntity
8
INSETS D 0.5
100
AcDbLine
10
190.54725225741259
20
-228.41764879922277
30
0
11
189.61273745076906
21
-228.92320598970105
31
0
0
LINE
5
172
100
AcDbEntity
8
INSETS D 0.5
100
AcDbLine
10
189.61273745076906
20
-228.92320598970105
30
0
11
189.99933982468124
21
-229.63783462026748
31
0
0
LINE
5
173
100
AcDbEntity
8
INSETS D 0.5
100
AcDbLine
10
189.99933982468124
20
-229.63783462026748
30
0
11
186.22463246522031
21
-231.67988942128321
31
0
0
LINE
5
174
100
AcDbEntity
8
INSETS D 0.5
100
AcDbLine
10
186.22463246522031
20
-231.67988942128321
30
0
11
186.73349399554905
21
-232.62051225007457
31
0
0
LINE
5
175
100
AcDbEntity
8
INSETS D 0.5
100
AcDbLine
10
186.73349399554905
20
-232.62051225007457
30
0
11
190.55706448369483
21
-230.55202329747527
31
0
0
SPLINE
5
176
100
AcDbEntity
8
INSETS D 0.5
100
AcDbSpline
70
0
71
3
72
9
73
5
74
0
42
0.000000001
43
0.0000000001
44
0.0000000001
40
0
40
0
40
0
40
0
40
0.026045334191398869
40
0.052747716646185827
40
0.052747716646185827
40
0.052747716646185827
40
0.052747716646185827
10
190.9338049222296
20
-230.19030329026191
30
0
10
190.88450536512713
20
-230.26302849420745
30
0
10
190.78466256604028
20
-230.41031354812782
30
0
10
190.63355791931713
20
-230.50439607022867
30
0
10
190.55706448369483
20
-230.55202329747527
30
0
0
SPLINE
5
177
100
AcDbEntity
8
INSETS D 0.5
100
AcDbSpline
70
0
71
3
72
9
73
5
74
0
42
0.000000001
43
0.0000000001
44
0.0000000001
40
0
40
0
40
0
40
0
40
0.025962001974622218
40
0.051923957115635001
40
0.051923957115635001
40
0.051923957115635001
40
0.051923957115635001
10
191.08099591380136
20
-229.69616062790459
30
0
10
191.07117063486595
20
-229.78289848316228
30
0
10
191.05152009471919
20
-229.95637403720889
30
0
10
190.97304328946501
20
-230.1123269194656
30
0
10
190.9338049222296
20
-230.19030329026191
30
0
0
SPLINE
5
178
100
AcDbEntity
8
INSETS D 0.5
100
AcDbSpline
70
0
71
3
72
9
73
5
74
0
42
0.000000001
43
0.0000000001
44
0.0000000001
40
0
40
0
40
0
40
0
40
0.026702390205463486
40
0.052747669766809197
40
0.052747669766809197
40
0.052747669766809197
40
0.052747669766809197
10
190.9635934063688
20
-229.18724910487069
30
0
10
191.00155739544721
20
-229.26897019875418
30
0
10
191.07655112984816
20
-229.43040133806349
30
0
10
191.07952667522562
20
-229.60831298342674
30
0
10
191.08099591380136
20
-229.69616062790459
30
0
0
LINE
5
179
100
AcDbEntity
8
INSETS D 0.5
100
AcDbLine
10
190.9635934063688
20
-229.18724910487069
30
0
11
190.54725225741259
21
-228.41764879922277
31
0
0
SPLINE
5
17A
100
AcDbEntity
8
INSETS D 0.5
100
AcDbSpline
70
0
71
3
72
9
73
5
74
0
42
0.000000001
43
0.0000000001
44
0.0000000001
40
0
40
0
40
0
40
0
40
0.026422047527547263
40
0.053285696252122206
40
0.053285696252122206
40
0.053285696252122206
40
0.053285696252122206
10
173.18297749746577
20
-193.56894335724297
30
0
10
173.25568763402018
20
-193.62034134996412
30
0
10
173.40232313782994
20
-193.72399636857125
30
0
10
173.49714412425402
20
-193.87653925864927
30
0
10
173.54494752836007
20
-193.95344279754829
30
0
0
SPLINE
5
17B
100
AcDbEntity
8
INSETS D 0.5
100
AcDbSpline
70
0
71
3
72
9
73
5
74
0
42
0.000000001
43
0.0000000001
44
0.0000000001
40
0
40
0
40
0
40
0
40
0.0256799486227316
40
0.051757154438149357
40
0.051757154438149357
40
0.051757154438149357
40
0.051757154438149357
10
172.69188825747679
20
-193.42009848119477
30
0
10
172.77796212565937
20
-193.42864252632853
30
0
10
172.95144138584263
20
-193.44586278911066
30
0
10
173.10540488278986
20
-193.52770710507093
30
0
10
173.18297749746577
20
-193.56894335724297
30
0
0
SPLINE
5
17C
100
AcDbEntity
8
INSETS D 0.5
100
AcDbSpline
70
0
71
3
72
9
73
5
74
0
42
0.000000001
43
0.0000000001
44
0.0000000001
40
0
40
0
40
0
40
0
40
0.027197347018523662
40
0.053198976849966141
40
0.053198976849966141
40
0.053198976849966141
40
0.053198976849966141
10
172.18017475380546
20
-193.54691649611809
30
0
10
172.26307989166366
20
-193.50773666441771
30
0
10
172.42524528620226
20
-193.43109952189815
30
0
10
172.60434913212481
20
-193.42371013267214
30
0
10
172.69188825747679
20
-193.42009848119477
30
0
0
LINE
5
17D
100
AcDbEntity
8
INSETS D 0.5
100
AcDbLine
10
172.18017475380546
20
-193.54691649611809
30
0
11
168.26498524406446
21
-195.66496983744909
31
0
0
LINE
5
17E
100
AcDbEntity
8
INSETS D 0.5
100
AcDbLine
10
168.26498524406446
20
-195.66496983744909
30
0
11
168.77054158371277
21
-196.59948307134641
31
0
0
LINE
5
17F
100
AcDbEntity
8
INSETS D 0.5
100
AcDbLine
10
168.77054158371277
20
-196.59948307134641
30
0
11
171.36641613398623
21
-195.19515749497177
31
0
0
LINE
5
180
100
AcDbEntity
8
INSETS D 0.5
100
AcDbLine
10
171.36641613398623
20
-195.19515749497177
30
0
11
172.30153268365243
21
-196.92370626860068
31
0
0
LINE
5
181
100
AcDbEntity
8
INSETS D 0.5
100
AcDbLine
10
172.30153268365243
20
-196.92370626860068
30
0
11
169.7056581333789
21
-198.32803184497533
31
0
0
LINE
5
182
100
AcDbEntity
8
INSETS D 0.5
100
AcDbLine
10
169.7056581333789
20
-198.32803184497533
30
0
11
170.21121447302721
21
-199.26254507887262
31
0
0
LINE
5
183
100
AcDbEntity
8
INSETS D 0.5
100
AcDbLine
10
170.21121447302721
20
-199.26254507887262
30
0
11
172.85595267623435
21
-197.83178506730445
31
0
0
SPLINE
5
184
100
AcDbEntity
8
INSETS D 0.5
100
AcDbSpline
70
0
71
3
72
9
73
5
74
0
42
0.000000001
43
0.0000000001
44
0.0000000001
40
0
40
0
40
0
40
0
40
0.0262620401161693
40
0.052608935539154522
40
0.052608935539154522
40
0.052608935539154522
40
0.052608935539154522
10
173.23434433503064
20
-197.47311856840184
30
0
10
173.18346839598203
20
-197.545546728056
30
0
10
173.081552132582
20
-197.69063707007095
30
0
10
172.93123331366729
20
-197.78468517009662
30
0
10
172.85595267623438
20
-197.83178506730445
30
0
0
SPLINE
5
185
100
AcDbEntity
8
INSETS D 0.5
100
AcDbSpline
70
0
71
3
72
9
73
5
74
0
42
0.000000001
43
0.0000000001
44
0.0000000001
40
0
40
0
40
0
40
0
40
0.02625161677628645
40
0.052503019113971407
40
0.052503019113971407
40
0.052503019113971407
40
0.052503019113971407
10
173.38293728807045
20
-196.974269321116
30
0
10
173.37464347540279
20
-197.06231768491406
30
0
10
173.35805591781619
20
-197.23841369327954
30
0
10
173.27558141700871
20
-197.39488382305188
30
0
10
173.23434433503064
20
-197.47311856840184
30
0
0
SPLINE
5
186
100
AcDbEntity
8
INSETS D 0.5
100
AcDbSpline
70
0
71
3
72
9
73
5
74
0
42
0.000000001
43
0.0000000001
44
0.0000000001
40
0
40
0
40
0
40
0
40
0.026863175689124774
40
0.053285663420625899
40
0.053285663420625899
40
0.053285663420625899
40
0.053285663420625899
10
173.25917645119915
20
-196.4609026119133
30
0
10
173.29738632599577
20
-196.54299414895792
30
0
10
173.37317924606296
20
-196.70583051883708
30
0
10
173.37970259072148
20
-196.88528443240193
30
0
10
173.38293728807045
20
-196.974269321116
30
0
0
LINE
5
187
100
AcDbEntity
8
INSETS D 0.5
100
AcDbLine
10
173.25917645119915
20
-196.4609026119133
30
0
11
172.3009309406298
21
-194.68960030449352
31
0
0
LINE
5
188
100
AcDbEntity
8
INSETS D 0.5
100
AcDbLine
10
172.3009309406298
20
-194.68960030449352
30
0
11
172.63075941837229
21
-194.5111685050594
31
0
0
LINE
5
189
100
AcDbEntity
8
INSETS D 0.5
100
AcDbLine
10
172.63075941837229
20
-194.5111685050594
30
0
11
173.76743644476576
21
-196.61229876597292
31
0
0
LINE
5
18A
100
AcDbEntity
8
INSETS D 0.5
100
AcDbLine
10
173.76743644476576
20
-196.61229876597292
30
0
11
174.7080592735571
21
-196.10343723564424
31
0
0
LINE
5
18B
100
AcDbEntity
8
INSETS D 0.5
100
AcDbLine
10
174.7080592735571
20
-196.10343723564424
30
0
11
173.54494752836007
21
-193.95344279754826
31
0
0
LINE
5
18C
100
AcDbEntity
8
INSETS D 0.5
100
AcDbLine
10
181.5529600023585
20
-211.79183584287614
30
0
11
180.61844519571497
21
-212.29739303335441
31
0
0
LINE
5
18D
100
AcDbEntity
8
INSETS D 0.5
100
AcDbLine
10
180.61844519571497
20
-212.29739303335441
30
0
11
182.05581346156902
21
-214.95434649448407
31
0
0
LINE
5
18E
100
AcDbEntity
8
INSETS D 0.5
100
AcDbLine
10
182.05581346156902
20
-214.95434649448407
30
0
11
180.38223767364346
21
-215.85972356008131
31
0
0
LINE
5
18F
100
AcDbEntity
8
INSETS D 0.5
100
AcDbLine
10
180.38223767364346
20
-215.85972356008131
30
0
11
178.94817403124986
21
-213.20887864534814
31
0
0
LINE
5
190
100
AcDbEntity
8
INSETS D 0.5
100
AcDbLine
10
178.94817403124986
20
-213.20887864534814
30
0
11
178.01365922460633
21
-213.71443583582646
31
0
0
LINE
5
191
100
AcDbEntity
8
INSETS D 0.5
100
AcDbLine
10
178.01365922460633
20
-213.71443583582646
30
0
11
179.47415758580348
21
-216.41414492774197
31
0
0
SPLINE
5
192
100
AcDbEntity
8
INSETS D 0.5
100
AcDbSpline
70
0
71
3
72
9
73
5
74
0
42
0.000000001
43
0.0000000001
44
0.0000000001
40
0
40
0
40
0
40
0
40
0.026045182220599025
40
0.052747568550707891
40
0.052747568550707891
40
0.052747568550707891
40
0.052747568550707891
10
179.83587726643563
20
-216.79088350992046
30
0
10
179.76315226617288
20
-216.74158453759193
30
0
10
179.6158671788881
20
-216.64174262055892
30
0
10
179.52178485389825
20
-216.49063838240227
30
0
10
179.47415758580348
20
-216.41414492774197
30
0
0
SPLINE
5
193
100
AcDbEntity
8
INSETS D 0.5
100
AcDbSpline
70
0
71
3
72
9
73
5
74
0
42
0.000000001
43
0.0000000001
44
0.0000000001
40
0
40
0
40
0
40
0
40
0.025961904819883773
40
0.051924094129467309
40
0.051924094129467309
40
0.051924094129467309
40
0.051924094129467309
10
180.33002051749855
20
-216.9380762160435
30
0
10
180.24328288185032
20
-216.92825139250198
30
0
10
180.06980666008573
20
-216.90860163775884
30
0
10
179.91385401580476
20
-216.83012302919352
30
0
10
179.83587726643563
20
-216.79088350992046
30
0
0
SPLINE
5
194
100
AcDbEntity
8
INSETS D 0.5
100
AcDbSpline
70
0
71
3
72
9
73
5
74
0
42
0.000000001
43
0.0000000001
44
0.0000000001
40
0
40
0
40
0
40
0
40
0.026702396503131817
40
0.052747696426657754
40
0.052747696426657754
40
0.052747696426657754
40
0.052747696426657754
10
180.83893175692239
20
-216.82067318436214
30
0
10
180.75721092269927
20
-216.85863799195701
30
0
10
180.59578025280302
20
-216.93363336346508
30
0
10
180.4178683254793
20
-216.93660761561856
30
0
10
180.33002051749855
20
-216.9380762160435
30
0
0
LINE
5
195
100
AcDbEntity
8
INSETS D 0.5
100
AcDbLine
10
180.83893175692239
20
-216.82067318436214
30
0
11
182.61023458859088
21
-215.86242739018275
31
0
0
SPLINE
5
196
100
AcDbEntity
8
INSETS D 0.5
100
AcDbSpline
70
0
71
3
72
9
73
5
74
0
42
0.000000001
43
0.0000000001
44
0.0000000001
40
0
40
0
40
0
40
0
40
0.026045231884655424
40
0.052747629840926236
40
0.052747629840926236
40
0.052747629840926236
40
0.052747629840926236
10
182.9869745028769
20
-215.50070766657939
30
0
10
182.93767479458015
20
-215.57343227947544
30
0
10
182.83783146141195
20
-215.72071647254208
30
0
10
182.68672773076051
20
-215.81479969989113
30
0
10
182.61023458859088
20
-215.86242739018275
30
0
0
SPLINE
5
197
100
AcDbEntity
8
INSETS D 0.5
100
AcDbSpline
70
0
71
3
72
9
73
5
74
0
42
0.000000001
43
0.0000000001
44
0.0000000001
40
0
40
0
40
0
40
0
40
0.025962001974622218
40
0.051924030853966636
40
0.051924030853966636
40
0.051924030853966636
40
0.051924030853966636
10
183.13416492722871
20
-215.00656395572457
30
0
10
183.12433956968255
20
-215.09330177793871
30
0
10
183.10468884440812
20
-215.26677751225449
30
0
10
183.02621263027493
20
-215.42273092153505
30
0
10
182.9869745028769
20
-215.50070766657939
30
0
0
SPLINE
5
198
100
AcDbEntity
8
INSETS D 0.5
100
AcDbSpline
70
0
71
3
72
9
73
5
74
0
42
0.000000001
43
0.0000000001
44
0.0000000001
40
0
40
0
40
0
40
0
40
0.026702390205463486
40
0.052747560506768321
40
0.052747560506768321
40
0.052747560506768321
40
0.052747560506768321
10
183.01676298701608
20
-214.49765348118817
30
0
10
183.05472702993148
20
-214.57937456867739
30
0
10
183.12972071534142
20
-214.74080536097154
30
0
10
183.13269587983979
20
-214.91871666589986
30
0
10
183.13416492722871
20
-215.00656395572457
30
0
0
LINE
5
199
100
AcDbEntity
8
INSETS D 0.5
100
AcDbLine
10
183.01676298701608
20
-214.49765348118817
30
0
11
181.5529600023585
21
-211.79183584287614
31
0
0
LWPOLYLINE
5
19A
100
AcDbEntity
8
INSETS D 0.5
100
AcDbPolyline
90
4
70
1
43
0.0
10
179.98121622898893
20
-217.87684560206424
10
179.04059340019759
20
-218.38570713239292
10
179.54615087428581
20
-219.32022246328523
10
180.48677370307715
20
-218.81136093295652
0
LINE
5
19B
100
AcDbEntity
8
INSETS D 0.5
100
AcDbLine
10
174.94106529876601
20
-199.56984866348267
30
0
11
172.33297470419689
21
-200.98078291955818
31
0
0
LINE
5
19C
100
AcDbEntity
8
INSETS D 0.5
100
AcDbLine
10
172.33297470419689
20
-200.98078291955818
30
0
11
171.29872852623743
21
-199.06899452999278
31
0
0
LINE
5
19D
100
AcDbEntity
8
INSETS D 0.5
100
AcDbLine
10
171.29872852623743
20
-199.06899452999278
30
0
11
170.36421371959389
21
-199.57455172047105
31
0
0
LINE
5
19E
100
AcDbEntity
8
INSETS D 0.5
100
AcDbLine
10
170.36421371959389
20
-199.57455172047105
30
0
11
171.42158885845657
21
-201.52909364382734
31
0
0
SPLINE
5
19F
100
AcDbEntity
8
INSETS D 0.5
100
AcDbSpline
70
0
71
3
72
9
73
5
74
0
42
0.000000001
43
0.0000000001
44
0.0000000001
40
0
40
0
40
0
40
0
40
0.026284012201742691
40
0.053072684830576977
40
0.053072684830576977
40
0.053072684830576977
40
0.053072684830576977
10
171.7849614180389
20
-201.90888754770162
30
0
10
171.71181643377227
20
-201.85881379194177
30
0
10
171.56412206096789
20
-201.75770485022747
30
0
10
171.46940015821764
20
-201.60577892645165
30
0
10
171.42158885845657
20
-201.52909364382734
30
0
0
SPLINE
5
1A0
100
AcDbEntity
8
INSETS D 0.5
100
AcDbSpline
70
0
71
3
72
9
73
5
74
0
42
0.000000001
43
0.0000000001
44
0.0000000001
40
0
40
0
40
0
40
0
40
0.026015675274646703
40
0.052182930381395279
40
0.052182930381395279
40
0.052182930381395279
40
0.052182930381395279
10
172.28075641361204
20
-202.05913347852541
30
0
10
172.19383890469945
20
-202.04911626400272
30
0
10
172.01949746367865
20
-202.02902346984945
30
0
10
171.86329134795221
20
-201.94901032855711
30
0
10
171.7849614180389
20
-201.90888754770162
30
0
0
SPLINE
5
1A1
100
AcDbEntity
8
INSETS D 0.5
100
AcDbSpline
70
0
71
3
72
9
73
5
74
0
42
0.000000001
43
0.0000000001
44
0.0000000001
40
0
40
0
40
0
40
0
40
0.026702427505542026
40
0.052747632075129045
40
0.052747632075129045
40
0.052747632075129045
40
0.052747632075129045
10
172.78966765303593
20
-201.94173044684408
30
0
10
172.70794635842594
20
-201.97969420260873
30
0
10
172.54651516345703
20
-202.05468731777952
30
0
10
172.36860375228676
20
-202.05766378697592
30
0
10
172.28075641361204
20
-202.05913347852541
30
0
0
LINE
5
1A2
100
AcDbEntity
8
INSETS D 0.5
100
AcDbLine
10
172.78966765303593
20
-201.94173044684408
30
0
11
175.44662163841429
21
-200.50436189737997
31
0
0
LINE
5
1A3
100
AcDbEntity
8
INSETS D 0.5
100
AcDbLine
10
175.44662163841429
20
-200.50436189737997
30
0
11
174.94106529876601
21
-199.56984866348267
31
0
0
LWPOLYLINE
5
1A4
100
AcDbEntity
8
INSETS D 0.5
100
AcDbPolyline
90
10
70
1
43
0.0
10
179.59351227955406
20
-208.1698264158664
10
177.87107310081922
20
-209.10163777485224
10
176.51961710385675
20
-206.60349184106792
10
175.56677849289417
20
-207.11896190929249
10
176.91823448985667
20
-209.61710784307684
10
176.14863392208437
20
-210.03344913383808
10
174.4700519668578
20
-206.93061582265517
10
173.51721335589525
20
-207.44608589087977
10
175.7145701446118
20
-211.50786662154613
10
180.11228711304403
20
-209.1287738353499
0
LWPOLYLINE
5
1A5
100
AcDbEntity
8
INSETS D 0.05
100
AcDbPolyline
90
4
70
1
43
0.0
10
164.63099663958712
20
-166.31993228336461
10
164.63099663958712
20
-156.64000000039874
10
158.63099663958712
20
-156.64000000039874
10
158.63099663958712
20
-166.31993228336461
0
LWPOLYLINE
5
1A6
100
AcDbEntity
8
INSETS D 0.05
100
AcDbPolyline
90
4
70
1
43
0.0
10
55.63099663958711
20
-166.31993228336461
10
55.63099663958711
20
-156.64000000039874
10
49.630996639587117
20
-156.64000000039877
10
49.630996639587117
20
-166.31993228336461
0
LWPOLYLINE
5
1A7
100
AcDbEntity
8
INSETS D 0.05
100
AcDbPolyline
90
4
70
1
43
0.0
10
110.13099663958712
20
-166.31993228336461
10
110.13099663958712
20
-156.64000000039874
10
104.13099663958711
20
-156.64000000039874
10
104.13099663958711
20
-166.31993228336461
0
LWPOLYLINE
5
1A8
100
AcDbEntity
8
INSETS D 0.0 - 4.24
100
AcDbPolyline
90
4
70
1
43
0.0
10
94.109235167621961
20
-301.28000000039879
10
94.109235167621961
20
-310.95993228336465
10
100.10923516762197
20
-310.95993228336465
10
100.10923516762197
20
-301.28000000039879
0
LWPOLYLINE
5
1A9
100
AcDbEntity
8
INSETS D 0.0 - 4.24
100
AcDbPolyline
90
4
70
1
43
0.0
10
39.609235167621961
20
-301.28000000039879
10
39.609235167621961
20
-310.95993228336471
10
45.609235167621961
20
-310.95993228336465
10
45.609235167621961
20
-301.28000000039879
0
LWPOLYLINE
5
1AA
100
AcDbEntity
8
INSETS D 0.0 - 4.24
100
AcDbPolyline
90
4
70
1
43
0.0
10
148.60923516762199
20
-301.28000000039879
10
148.60923516762199
20
-310.95993228336465
10
154.60923516762199
20
-310.95993228336465
10
154.60923516762199
20
-301.28000000039879
0
LWPOLYLINE
5
1AB
100
AcDbEntity
8
INSETS D 0.0 - 4.24
100
AcDbPolyline
90
4
70
1
43
0.0
10
110.13099663958712
20
-455.59993228336464
10
110.13099663958712
20
-445.92000000039883
10
104.13099663958711
20
-445.92000000039877
10
104.13099663958711
20
-455.59993228336458
0
LWPOLYLINE
5
1AC
100
AcDbEntity
8
INSETS D 0.0 - 4.24
100
AcDbPolyline
90
4
70
1
43
0.0
10
55.63099663958711
20
-455.59993228336464
10
55.63099663958711
20
-445.92000000039883
10
49.630996639587117
20
-445.92000000039877
10
49.630996639587117
20
-455.59993228336458
0
LWPOLYLINE
5
1AD
100
AcDbEntity
8
INSETS D 0.0 - 4.24
100
AcDbPolyline
90
4
70
1
43
0.0
10
164.63099663958712
20
-455.59993228336464
10
164.63099663958712
20
-445.92000000039883
10
158.63099663958712
20
-445.92000000039877
10
158.63099663958712
20
-455.59993228336458
0
ENDSEC
0
SECTION
2
OBJECTS
0
DICTIONARY
5
C
100
AcDbDictionary
3
ACAD_GROUP
350
D
3
ACAD_MLINESTYLE
350
17
0
DICTIONARY
5
D
100
AcDbDictionary
0
DICTIONARY
5
1A
330
C
100
AcDbDictionary
0
DICTIONARY
5
17
100
AcDbDictionary
0
ENDSEC
0
EOF
