0
SECTION
2
HEADER
9
$INSUNITS
70
4
9
$ACADVER
1
AC1014
9
$HANDSEED
5
FFFF
0
ENDSEC
0
SECTION
2
TABLES
0
TABLE
2
VPORT
5
8
100
AcDbSymbolTable
0
ENDTAB
0
TABLE
2
LTYPE
5
5
100
AcDbSymbolTable
70
3
0
LTYPE
5
14
100
AcDbSymbolTableRecord
100
AcDbLinetypeTableRecord
2
BYBLOCK
70
0
0
LTYPE
5
15
100
AcDbSymbolTableRecord
100
AcDbLinetypeTableRecord
2
BYLAYER
70
0
0
LTYPE
5
16
100
AcDbSymbolTableRecord
100
AcDbLinetypeTableRecord
2
DASHED
70
0
3
Dashed __ __ __ __ __ __ __ __ __ __ __ __ __ _
72
65
73
2
40
0.75
49
0.5
74
0
49
-0.25
74
0
0
ENDTAB
0
TABLE
2
LAYER
5
2
100
AcDbSymbolTable
70
3
0
LAYER
5
50
100
AcDbSymbolTableRecord
100
AcDbLayerTableRecord
2
0
70
0
6
CONTINUOUS
0
LAYER
5
51
100
AcDbSymbolTableRecord
100
AcDbLayerTableRecord
2
PERIMETER D 6.0
70
0
62
5
6
CONTINUOUS
0
LAYER
5
52
100
AcDbSymbolTableRecord
100
AcDbLayerTableRecord
2
INSETS D 0.5
70
0
62
3
6
CONTINUOUS
0
ENDTAB
0
TABLE
2
STYLE
5
3
100
AcDbSymbolTable
70
1
0
STYLE
5
11
100
AcDbSymbolTableRecord
100
AcDbTextStyleTableRecord
2
STANDARD
70
0
0
ENDTAB
0
TABLE
2
VIEW
5
6
100
AcDbSymbolTable
0
ENDTAB
0
TABLE
2
UCS
5
7
100
AcDbSymbolTable
0
ENDTAB
0
TABLE
2
APPID
5
9
100
AcDbSymbolTable
70
1
0
APPID
5
12
100
AcDbSymbolTableRecord
100
AcDbRegAppTableRecord
2
ACAD
70
0
0
ENDTAB
0
TABLE
2
DIMSTYLE
5
A
100
AcDbSymbolTable
0
ENDTAB
0
TABLE
2
BLOCK_RECORD
5
1
100
AcDbSymbolTable
70
2
0
BLOCK_RECORD
5
1F
100
AcDbSymbolTableRecord
100
AcDbBlockTableRecord
2
*MODEL_SPACE
0
BLOCK_RECORD
5
1B
100
AcDbSymbolTableRecord
100
AcDbBlockTableRecord
2
*PAPER_SPACE
0
ENDTAB
0
ENDSEC
0
SECTION
2
BLOCKS
0
BLOCK
5
20
100
AcDbEntity
100
AcDbBlockBegin
2
*MODEL_SPACE
0
ENDBLK
5
21
100
AcDbEntity
100
AcDbBlockEnd
0
BLOCK
5
1C
100
AcDbEntity
100
AcDbBlockBegin
2
*PAPER_SPACE
0
ENDBLK
5
1D
100
AcDbEntity
100
AcDbBlockEnd
0
ENDSEC
0
SECTION
2
ENTITIES
0
LWPOLYLINE
5
100
100
AcDbEntity
8
PERIMETER D 6.0
100
AcDbPolyline
90
4
70
1
43
0.0
10
0.99999999999994316
20
-197.00000000000003
10
59.000000000000057
20
-197.00000000000003
10
59.000000000000057
20
-237.00000000000003
10
0.99999999999994316
20
-237.00000000000003
0
LWPOLYLINE
5
101
100
AcDbEntity
8
PERIMETER D 6.0
100
AcDbPolyline
90
48
70
1
43
0.0
10
36.999999999999957
20
-296.00000000000011
10
21.999999999999957
20
-296.00000000000011
10
21.999999999999957
20
-288
10
16.000000000000014
20
-288
10
16.000000000000014
20
-296.00000000000011
10
1.0000000000000142
20
-296.00000000000011
10
1.0000000000000107
20
-237.99999999999997
10
244.25000000000009
20
-237.99999999999997
10
244.25000000000006
20
-295.99999999999994
10
229.25000000000006
20
-295.99999999999994
10
229.25000000000006
20
-288
10
223.75000000000006
20
-288
10
223.75000000000006
20
-295.99999999999994
10
208.75000000000006
20
-295.99999999999994
10
208.75000000000006
20
-288
10
203.20000000000007
20
-288
10
203.20000000000007
20
-295.99999999999994
10
188.20000000000007
20
-295.99999999999994
10
188.20000000000007
20
-288
10
182.60000000000005
20
-288
10
182.60000000000005
20
-295.99999999999994
10
167.60000000000005
20
-296.00000000000011
10
167.60000000000005
20
-288
10
161.95000000000007
20
-288
10
161.95000000000007
20
-296.00000000000011
10
146.95000000000007
20
-296.00000000000011
10
146.95000000000007
20
-288
10
141.25000000000006
20
-288
10
141.25000000000006
20
-296.00000000000011
10
126.25000000000007
20
-296.00000000000011
10
126.25000000000007
20
-288
10
120.50000000000004
20
-288
10
120.50000000000004
20
-296.00000000000011
10
105.50000000000004
20
-295.99999999999994
10
105.50000000000004
20
-288
10
99.70000000000006
20
-288
10
99.70000000000006
20
-296.00000000000011
10
84.70000000000006
20
-296.00000000000011
10
84.70000000000006
20
-288
10
78.850000000000051
20
-288
10
78.850000000000051
20
-296.00000000000011
10
63.84999999999998
20
-296.00000000000011
10
63.84999999999998
20
-288
10
57.949999999999946
20
-288
10
57.949999999999946
20
-296.00000000000011
10
42.949999999999946
20
-296.00000000000011
10
42.949999999999946
20
-288
10
36.999999999999957
20
-288
0
LINE
5
102
100
AcDbEntity
8
INSETS D 0.5
100
AcDbLine
10
224.94839907726231
20
-273.42905617713302
30
0
11
227.20351449448509
21
-273.42729481579426
31
0
0
SPLINE
5
103
100
AcDbEntity
8
INSETS D 0.5
100
AcDbSpline
70
0
71
3
72
9
73
5
74
0
42
0.000000001
43
0.0000000001
44
0.0000000001
40
0
40
0
40
0
40
0
40
0.039488419090367335
40
0.09195983728195628
40
0.09195983728195628
40
0.09195983728195628
40
0.09195983728195628
10
228.11220164747695
20
-273.54527465755751
30
0
10
227.98461688159918
20
-273.51092981742596
30
0
10
227.68750004126872
20
-273.43094824351823
30
0
10
227.37934491249746
20
-273.42862209452846
30
0
10
227.20351449448509
20
-273.42729481579426
30
0
0
SPLINE
5
104
100
AcDbEntity
8
INSETS D 0.5
100
AcDbSpline
70
0
71
3
72
9
73
5
74
0
42
0.000000001
43
0.0000000001
44
0.0000000001
40
0
40
0
40
0
40
0
40
0.03040701367092365
40
0.062174388083101439
40
0.062174388083101439
40
0.062174388083101439
40
0.062174388083101439
10
228.59135456861674
20
-273.92757427154748
30
0
10
228.52930427609044
20
-273.84527419229141
30
0
10
228.40242766104538
20
-273.67699206099388
30
0
10
228.21034456275009
20
-273.58981625397234
30
0
10
228.11220164747695
20
-273.54527465755751
30
0
0
SPLINE
5
105
100
AcDbEntity
8
INSETS D 0.5
100
AcDbSpline
70
0
71
3
72
9
73
5
74
0
42
0.000000001
43
0.0000000001
44
0.0000000001
40
0
40
0
40
0
40
0
40
0.030206994149341231
40
0.060392066808800958
40
0.060392066808800958
40
0.060392066808800958
40
0.060392066808800958
10
228.75551436359757
20
-274.50248084806418
30
0
10
228.7486236318469
20
-274.40077950399188
30
0
10
228.73484716901217
20
-274.19745062143591
30
0
10
228.63917385938322
20
-274.01751128300828
30
0
10
228.59135456861674
20
-273.92757427154748
30
0
0
SPLINE
5
106
100
AcDbEntity
8
INSETS D 0.5
100
AcDbSpline
70
0
71
3
72
9
73
5
74
0
42
0.000000001
43
0.0000000001
44
0.0000000001
40
0
40
0
40
0
40
0
40
0.030045017037676168
40
0.06577413419822345
40
0.06577413419822345
40
0.06577413419822345
40
0.06577413419822345
10
228.51040838985242
20
-275.0920312748359
30
0
10
228.58183290354845
20
-275.0173096558683
30
0
10
228.73819445737928
20
-274.85373012494904
30
0
10
228.74941776127002
20
-274.62612049899531
30
0
10
228.75551436359757
20
-274.50248084806418
30
0
0
SPLINE
5
107
100
AcDbEntity
8
INSETS D 0.5
100
AcDbSpline
70
0
71
3
72
9
73
5
74
0
42
0.000000001
43
0.0000000001
44
0.0000000001
40
0
40
0
40
0
40
0
40
0.043209263764336883
40
0.076745017844655844
40
0.076745017844655844
40
0.076745017844655844
40
0.076745017844655844
10
227.77385075982693
20
-275.27268894039281
30
0
10
227.92030839863713
20
-275.26967271754711
30
0
10
228.18043535116473
20
-275.26431553124127
30
0
10
228.41006546981831
20
-275.14442193509211
30
0
10
228.51040838985242
20
-275.0920312748359
30
0
0
LINE
5
108
100
AcDbEntity
8
INSETS D 0.5
100
AcDbLine
10
227.77385075982693
20
-275.27268894039281
30
0
11
224.94984077220934
21
-275.27489463770422
31
0
0
LINE
5
109
100
AcDbEntity
8
INSETS D 0.5
100
AcDbLine
10
224.94984077220934
20
-275.27489463770422
30
0
11
224.95041617199377
21
-276.01159351730485
31
0
0
LINE
5
10A
100
AcDbEntity
8
INSETS D 0.5
100
AcDbLine
10
224.95041617199377
20
-276.01159351730485
30
0
11
227.47565379648131
21
-276.0096211766039
31
0
0
SPLINE
5
10B
100
AcDbEntity
8
INSETS D 0.5
100
AcDbSpline
70
0
71
3
72
9
73
5
74
0
42
0.000000001
43
0.0000000001
44
0.0000000001
40
0
40
0
40
0
40
0
40
0.045694354865793936
40
0.10415067823735097
40
0.10415067823735097
40
0.10415067823735097
40
0.10415067823735097
10
228.45201594635063
20
-276.31172180086867
30
0
10
228.32392411570851
20
-276.22382487619109
30
0
10
228.03196570909094
20
-276.02348230987116
30
0
10
227.67564487150997
20
-276.01460417783102
30
0
10
227.47565379648131
20
-276.0096211766039
30
0
0
SPLINE
5
10C
100
AcDbEntity
8
INSETS D 0.5
100
AcDbSpline
70
0
71
3
72
9
73
5
74
0
42
0.000000001
43
0.0000000001
44
0.0000000001
40
0
40
0
40
0
40
0
40
0.042637872938974253
40
0.08375807383403705
40
0.08375807383403705
40
0.08375807383403705
40
0.08375807383403705
10
228.75752186814645
20
-277.07273963515746
30
0
10
228.74565003673197
20
-276.92738490669444
30
0
10
228.72232894532624
20
-276.64184927277188
30
0
10
228.54102522235587
20
-276.42042692187613
30
0
10
228.45201594635063
20
-276.31172180086867
30
0
0
SPLINE
5
10D
100
AcDbEntity
8
INSETS D 0.5
100
AcDbSpline
70
0
71
3
72
9
73
5
74
0
42
0.000000001
43
0.0000000001
44
0.0000000001
40
0
40
0
40
0
40
0
40
0.022316021620629369
40
0.046238902887382596
40
0.046238902887382596
40
0.046238902887382596
40
0.046238902887382596
10
228.6391767123572
20
-277.51485071255797
30
0
10
228.67373094236484
20
-277.44796269311519
30
0
10
228.74532747121009
20
-277.30937039884708
30
0
10
228.75336397630335
20
-277.15342301189963
30
0
10
228.75752186814645
20
-277.07273963515746
30
0
0
SPLINE
5
10E
100
AcDbEntity
8
INSETS D 0.5
100
AcDbSpline
70
0
71
3
72
9
73
5
74
0
42
0.000000001
43
0.0000000001
44
0.0000000001
40
0
40
0
40
0
40
0
40
0.020236069545667219
40
0.041272678812989662
40
0.041272678812989662
40
0.041272678812989662
40
0.041272678812989662
10
228.32628285519462
20
-277.77498573439016
30
0
10
228.38827406674554
20
-277.74561365938041
30
0
10
228.51470886465899
20
-277.68570754889737
30
0
10
228.59715438215503
20
-277.5725347050647
30
0
10
228.6391767123572
20
-277.51485071255797
30
0
0
SPLINE
5
10F
100
AcDbEntity
8
INSETS D 0.5
100
AcDbSpline
70
0
71
3
72
9
73
5
74
0
42
0.000000001
43
0.0000000001
44
0.0000000001
40
0
40
0
40
0
40
0
40
0.03805375813132434
40
0.064241579297928633
40
0.064241579297928633
40
0.064241579297928633
40
0.064241579297928633
10
227.68991337645105
20
-277.8471061189374
30
0
10
227.81737595352178
20
-277.84697679798853
30
0
10
228.03255567963845
20
-277.84675848099698
30
0
10
228.24122119708647
20
-277.79577069860665
30
0
10
228.32628285519462
20
-277.77498573439016
30
0
0
LINE
5
110
100
AcDbEntity
8
INSETS D 0.5
100
AcDbLine
10
227.68991337645105
20
-277.8471061189374
30
0
11
224.95185147224433
21
-277.84924468636689
31
0
0
LINE
5
111
100
AcDbEntity
8
INSETS D 0.5
100
AcDbLine
10
224.95185147224433
20
-277.84924468636689
30
0
11
224.95242367654265
21
-278.58185230439813
31
0
0
LINE
5
112
100
AcDbEntity
8
INSETS D 0.5
100
AcDbLine
10
224.95242367654265
20
-278.58185230439813
30
0
11
227.93605187394959
21
-278.57952193704051
31
0
0
SPLINE
5
113
100
AcDbEntity
8
INSETS D 0.5
100
AcDbSpline
70
0
71
3
72
9
73
5
74
0
42
0.000000001
43
0.0000000001
44
0.0000000001
40
0
40
0
40
0
40
0
40
0.052433607702278562
40
0.11783367833693119
40
0.11783367833693119
40
0.11783367833693119
40
0.11783367833693119
10
229.03878105755183
20
-278.23077445710567
30
0
10
228.8920680634248
20
-278.33204016675199
30
0
10
228.5623609821198
20
-278.55961388482939
30
0
10
228.1595950811554
20
-278.5724163245203
30
0
10
227.93605187394959
20
-278.57952193704051
30
0
0
SPLINE
5
114
100
AcDbEntity
8
INSETS D 0.5
100
AcDbSpline
70
0
71
3
72
9
73
5
74
0
42
0.000000001
43
0.0000000001
44
0.0000000001
40
0
40
0
40
0
40
0
40
0.057893071344319445
40
0.10796418030941382
40
0.10796418030941382
40
0.10796418030941382
40
0.10796418030941382
10
229.3961213812095
20
-277.23595102330819
30
0
10
229.38618552547848
20
-277.43406547454708
30
0
10
229.36765625254878
20
-277.803527032533
30
0
10
229.14298022597939
20
-278.09540752451085
30
0
10
229.03878105755183
20
-278.23077445710567
30
0
0
SPLINE
5
115
100
AcDbEntity
8
INSETS D 0.5
100
AcDbSpline
70
0
71
3
72
9
73
5
74
0
42
0.000000001
43
0.0000000001
44
0.0000000001
40
0
40
0
40
0
40
0
40
0.082350283424223306
40
0.15962814977521311
40
0.15962814977521311
40
0.15962814977521311
40
0.15962814977521311
10
228.63381808263611
20
-275.89411828143454
30
0
10
228.85592533140448
20
-276.07416206541654
30
0
10
229.28645899441472
20
-276.42315972420477
30
0
10
229.36034991618286
20
-276.970821507349
30
0
10
229.3961213812095
20
-277.23595102330819
30
0
0
SPLINE
5
116
100
AcDbEntity
8
INSETS D 0.5
100
AcDbSpline
70
0
71
3
72
9
73
5
74
0
42
0.000000001
43
0.0000000001
44
0.0000000001
40
0
40
0
40
0
40
0
40
0.035669817229540164
40
0.072041568636097439
40
0.072041568636097439
40
0.072041568636097439
40
0.072041568636097439
10
229.19418700364929
20
-275.45780124098201
30
0
10
229.12018756102418
20
-275.55347223144634
30
0
10
228.9707324659615
20
-275.74669688919175
30
0
10
228.74685000704153
20
-275.84465965191782
30
0
10
228.63381808263611
20
-275.89411828143454
30
0
0
SPLINE
5
117
100
AcDbEntity
8
INSETS D 0.5
100
AcDbSpline
70
0
71
3
72
9
73
5
74
0
42
0.000000001
43
0.0000000001
44
0.0000000001
40
0
40
0
40
0
40
0
40
0.044231334411188587
40
0.082555223018675433
40
0.082555223018675433
40
0.082555223018675433
40
0.082555223018675433
10
229.39411387666067
20
-274.66569223621491
30
0
10
229.38854273198331
20
-274.81509865009343
30
0
10
229.37814451322211
20
-275.09395706534065
30
0
10
229.25250946325826
20
-275.3424469546195
30
0
10
229.19418700364929
20
-275.45780124098201
30
0
0
SPLINE
5
118
100
AcDbEntity
8
INSETS D 0.5
100
AcDbSpline
70
0
71
3
72
9
73
5
74
0
42
0.000000001
43
0.0000000001
44
0.0000000001
40
0
40
0
40
0
40
0
40
0.039140431895766575
40
0.080457212349130669
40
0.080457212349130669
40
0.080457212349130669
40
0.080457212349130669
10
229.19910325808914
20
-273.89231192301821
30
0
10
229.25588655377544
20
-274.01128152981084
30
0
10
229.37261050028388
20
-274.25583588072584
30
0
10
229.38681798153297
20
-274.52663179590701
30
0
10
229.39411387666067
20
-274.66569223621491
30
0
0
SPLINE
5
119
100
AcDbEntity
8
INSETS D 0.5
100
AcDbSpline
70
0
71
3
72
9
73
5
74
0
42
0.000000001
43
0.0000000001
44
0.0000000001
40
0
40
0
40
0
40
0
40
0.037389432734005155
40
0.075402228642556829
40
0.075402228642556829
40
0.075402228642556829
40
0.075402228642556829
10
228.6850358283823
20
-273.34837504381608
30
0
10
228.78656727250979
20
-273.4225975287136
30
0
10
228.99132291079326
20
-273.57227994878326
30
0
10
229.12946246784259
20
-273.78504826752862
30
0
10
229.19910325808914
20
-273.89231192301821
30
0
0
LINE
5
11A
100
AcDbEntity
8
INSETS D 0.5
100
AcDbLine
10
228.6850358283823
20
-273.34837504381608
30
0
11
229.29485821365148
21
-273.34789874111124
31
0
0
LINE
5
11B
100
AcDbEntity
8
INSETS D 0.5
100
AcDbLine
10
229.29485821365148
20
-273.34789874111124
30
0
11
229.2943435504489
21
-272.68896244155115
31
0
0
LINE
5
11C
100
AcDbEntity
8
INSETS D 0.5
100
AcDbLine
10
229.2943435504489
20
-272.68896244155115
30
0
11
224.94782367747788
21
-272.69235729753234
31
0
0
LINE
5
11D
100
AcDbEntity
8
INSETS D 0.5
100
AcDbLine
10
224.94782367747788
20
-272.69235729753234
30
0
11
224.94839907726231
21
-273.42905617713302
31
0
0
SPLINE
5
11E
100
AcDbEntity
8
INSETS D 0.5
100
AcDbSpline
70
0
71
3
72
9
73
5
74
0
42
0.000000001
43
0.0000000001
44
0.0000000001
40
0
40
0
40
0
40
0
40
0.075213074185857667
40
0.14375292944595769
40
0.14375292944595769
40
0.14375292944595769
40
0.14375292944595769
10
224.83047707538736
20
-253.45233405621158
30
0
10
224.84557139626509
20
-253.19645735588153
30
0
10
224.874420806659
20
-252.70740640765794
30
0
10
225.15435413340725
20
-252.30672687194286
30
0
10
225.28782334180357
20
-252.11568716590392
30
0
0
SPLINE
5
11F
100
AcDbEntity
8
INSETS D 0.5
100
AcDbSpline
70
0
71
3
72
9
73
5
74
0
42
0.000000001
43
0.0000000001
44
0.0000000001
40
0
40
0
40
0
40
0
40
0.087424308950222032
40
0.17858685728863197
40
0.17858685728863197
40
0.17858685728863197
40
0.17858685728863197
10
225.56022057092355
20
-255.02748100547592
30
0
10
225.34759700141672
20
-254.81436588325494
30
0
10
224.91325813709295
20
-254.37902289484441
30
0
10
224.85845316127234
20
-253.76551108008726
30
0
10
224.83047707538736
20
-253.45233405621158
30
0
0
SPLINE
5
120
100
AcDbEntity
8
INSETS D 0.5
100
AcDbSpline
70
0
71
3
72
9
73
5
74
0
42
0.000000001
43
0.0000000001
44
0.0000000001
40
0
40
0
40
0
40
0
40
0.076843044400579902
40
0.15084323913734171
40
0.15084323913734171
40
0.15084323913734171
40
0.15084323913734171
10
226.96850332781503
20
-255.50114233731662
30
0
10
226.70815313326494
20
-255.483098262483
30
0
10
226.19708453932367
20
-255.4476776630473
30
0
10
225.76982445781681
20
-255.16577561320474
30
0
10
225.56022057092355
20
-255.02748100547592
30
0
0
SPLINE
5
121
100
AcDbEntity
8
INSETS D 0.5
100
AcDbSpline
70
0
71
3
72
9
73
5
74
0
42
0.000000001
43
0.0000000001
44
0.0000000001
40
0
40
0
40
0
40
0
40
0.074241761306141296
40
0.15316855318919587
40
0.15316855318919587
40
0.15316855318919587
40
0.15316855318919587
10
228.36780810714544
20
-254.95980377001203
30
0
10
228.16939920149332
20
-255.11748947495889
30
0
10
227.76006078489416
20
-255.44281165024699
30
0
10
227.23768188742341
20
-255.48130629106893
30
0
10
226.96850332781503
20
-255.50114233731662
30
0
0
SPLINE
5
122
100
AcDbEntity
8
INSETS D 0.5
100
AcDbSpline
70
0
71
3
72
9
73
5
74
0
42
0.000000001
43
0.0000000001
44
0.0000000001
40
0
40
0
40
0
40
0
40
0.073709138128880261
40
0.14641669064394094
40
0.14641669064394094
40
0.14641669064394094
40
0.14641669064394094
10
228.91111074644584
20
-253.63332140528527
30
0
10
228.88925314199298
20
-253.88441848931265
30
0
10
228.84583494188058
20
-254.38320066214644
30
0
10
228.52642205459853
20
-254.76848125753648
30
0
10
228.36780810714544
20
-254.95980377001203
30
0
0
SPLINE
5
123
100
AcDbEntity
8
INSETS D 0.5
100
AcDbSpline
70
0
71
3
72
9
73
5
74
0
42
0.000000001
43
0.0000000001
44
0.0000000001
40
0
40
0
40
0
40
0
40
0.062142150108237537
40
0.12091589086633267
40
0.12091589086633267
40
0.12091589086633267
40
0.12091589086633267
10
228.53369032774737
20
-252.49991881134989
30
0
10
228.64362800737786
20
-252.67922202854621
30
0
10
228.85754420514616
20
-253.02810934906447
30
0
10
228.89358994692509
20
-253.4353657626896
30
0
10
228.91111074644584
20
-253.63332140528527
30
0
0
LINE
5
124
100
AcDbEntity
8
INSETS D 0.5
100
AcDbLine
10
228.53369032774737
20
-252.49991881134989
30
0
11
230.146493584474
21
-252.82198790136604
31
0
0
LINE
5
125
100
AcDbEntity
8
INSETS D 0.5
100
AcDbLine
10
230.146493584474
20
-252.82198790136604
30
0
11
230.14836363237663
21
-255.21625747192942
31
0
0
LINE
5
126
100
AcDbEntity
8
INSETS D 0.5
100
AcDbLine
10
230.14836363237663
20
-255.21625747192942
30
0
11
230.85231990245003
21
-255.21570764581014
31
0
0
LINE
5
127
100
AcDbEntity
8
INSETS D 0.5
100
AcDbLine
10
230.85231990245003
20
-255.21570764581014
30
0
11
230.84998953520866
21
-252.23207959741472
31
0
0
LINE
5
128
100
AcDbEntity
8
INSETS D 0.5
100
AcDbLine
10
230.84998953520866
20
-252.23207959741472
30
0
11
227.76768107318034
21
-251.65331356113072
31
0
0
LINE
5
129
100
AcDbEntity
8
INSETS D 0.5
100
AcDbLine
10
227.76768107318034
20
-251.65331356113072
30
0
11
227.67818047413741
21
-252.34506175366889
31
0
0
SPLINE
5
12A
100
AcDbEntity
8
INSETS D 0.5
100
AcDbSpline
70
0
71
3
72
9
73
5
74
0
42
0.000000001
43
0.0000000001
44
0.0000000001
40
0
40
0
40
0
40
0
40
0.031610239262055431
40
0.062016811867883513
40
0.062016811867883513
40
0.062016811867883513
40
0.062016811867883513
10
228.09804079388152
20
-252.79493856927161
30
0
10
228.04093892997906
20
-252.70515560469335
30
0
10
227.9289095485629
20
-252.52900846524795
30
0
10
227.760668383981
20
-252.4055787870266
30
0
10
227.67818047413741
20
-252.34506175366889
30
0
0
SPLINE
5
12B
100
AcDbEntity
8
INSETS D 0.5
100
AcDbSpline
70
0
71
3
72
9
73
5
74
0
42
0.000000001
43
0.0000000001
44
0.0000000001
40
0
40
0
40
0
40
0
40
0.034107973279951249
40
0.066826345322123962
40
0.066826345322123962
40
0.066826345322123962
40
0.066826345322123962
10
228.26020710663911
20
-253.43737699778998
30
0
10
228.25395958774897
20
-253.32262818937409
30
0
10
228.24171908165596
20
-253.09780558166409
30
0
10
228.14526499420325
20
-252.89448494253108
30
0
10
228.09804079388152
20
-252.79493856927161
30
0
0
SPLINE
5
12C
100
AcDbEntity
8
INSETS D 0.5
100
AcDbSpline
70
0
71
3
72
9
73
5
74
0
42
0.000000001
43
0.0000000001
44
0.0000000001
40
0
40
0
40
0
40
0
40
0.049165362600887705
40
0.10178403664861385
40
0.10178403664861385
40
0.10178403664861385
40
0.10178403664861385
10
227.89667476067052
20
-254.3646734827702
30
0
10
228.00278080924278
20
-254.23441119088636
30
0
10
228.22244565793284
20
-253.96473715230215
30
0
10
228.24733843774021
20
-253.61709529386715
30
0
10
228.26020710663911
20
-253.43737699778998
30
0
0
SPLINE
5
12D
100
AcDbEntity
8
INSETS D 0.5
100
AcDbSpline
70
0
71
3
72
9
73
5
74
0
42
0.000000001
43
0.0000000001
44
0.0000000001
40
0
40
0
40
0
40
0
40
0.057068433845668148
40
0.10767057057489821
40
0.10767057057489821
40
0.10767057057489821
40
0.10767057057489821
10
226.90240814210563
20
-254.7194746340675
30
0
10
227.09721375394332
20
-254.70845468045027
30
0
10
227.4647519876801
20
-254.68766341961299
30
0
10
227.75858263103169
20
-254.4679381657636
30
0
10
227.89667476067052
20
-254.3646734827702
30
0
0
SPLINE
5
12E
100
AcDbEntity
8
INSETS D 0.5
100
AcDbSpline
70
0
71
3
72
9
73
5
74
0
42
0.000000001
43
0.0000000001
44
0.0000000001
40
0
40
0
40
0
40
0
40
0.054223005285851708
40
0.11468279192801148
40
0.11468279192801148
40
0.11468279192801148
40
0.11468279192801148
10
225.83800142803526
20
-254.35195662407068
30
0
10
225.98814729301182
20
-254.45918844799522
30
0
10
226.30570894237422
20
-254.68598600166047
30
0
10
226.69642564144908
20
-254.70791424945517
30
0
10
226.90240814210563
20
-254.7194746340675
30
0
0
SPLINE
5
12F
100
AcDbEntity
8
INSETS D 0.5
100
AcDbSpline
70
0
71
3
72
9
73
5
74
0
42
0.000000001
43
0.0000000001
44
0.0000000001
40
0
40
0
40
0
40
0
40
0.050126412707037375
40
0.10092005057187806
40
0.10092005057187806
40
0.10092005057187806
40
0.10092005057187806
10
225.43620670897141
20
-253.45186095015663
30
0
10
225.45348996956642
20
-253.62277958147928
30
0
10
225.48828654564474
20
-253.96689191637904
30
0
10
225.72091712750094
20
-254.22303722649644
30
0
10
225.83800142803526
20
-254.35195662407068
30
0
0
SPLINE
5
130
100
AcDbEntity
8
INSETS D 0.5
100
AcDbSpline
70
0
71
3
72
9
73
5
74
0
42
0.000000001
43
0.0000000001
44
0.0000000001
40
0
40
0
40
0
40
0
40
0.040591041414855242
40
0.082182327858881132
40
0.082182327858881132
40
0.082182327858881132
40
0.082182327858881132
10
225.72006450783192
20
-252.69652296678856
30
0
10
225.63719049381854
20
-252.80720181803417
30
0
10
225.46940028314077
20
-253.03128687037741
30
0
10
225.44736064884106
20
-253.31053666935944
30
0
10
225.43620670897141
20
-253.45186095015663
30
0
0
SPLINE
5
131
100
AcDbEntity
8
INSETS D 0.5
100
AcDbSpline
70
0
71
3
72
9
73
5
74
0
42
0.000000001
43
0.0000000001
44
0.0000000001
40
0
40
0
40
0
40
0
40
0.05148932881387968
40
0.095237485139858163
40
0.095237485139858163
40
0.095237485139858163
40
0.095237485139858163
10
226.56900193714671
20
-252.29681480555826
30
0
10
226.3971451639103
20
-252.33020697747321
30
0
10
226.07926945520873
20
-252.39197096915447
30
0
10
225.83313053411473
20
-252.60065991027886
30
0
10
225.72006450783192
20
-252.69652296678856
30
0
0
LINE
5
132
100
AcDbEntity
8
INSETS D 0.5
100
AcDbLine
10
226.56900193714671
20
-252.29681480555826
30
0
11
226.50291374089983
21
-251.52333275422535
31
0
0
SPLINE
5
133
100
AcDbEntity
8
INSETS D 0.5
100
AcDbSpline
70
0
71
3
72
9
73
5
74
0
42
0.000000001
43
0.0000000001
44
0.0000000001
40
0
40
0
40
0
40
0
40
0.067052058519611504
40
0.13775381081147126
40
0.13775381081147126
40
0.13775381081147126
40
0.13775381081147126
10
225.28782334180357
20
-252.11568716590392
30
0
10
225.45613606623533
20
-251.96119675315288
30
0
10
225.80192290276855
20
-251.64380689876012
30
0
10
226.26515908538195
20
-251.56419389987036
30
0
10
226.50291374089983
20
-251.52333275422535
30
0
0
LWPOLYLINE
5
134
100
AcDbEntity
8
INSETS D 0.5
100
AcDbPolyline
90
4
70
1
43
0.0
10
224.93590971492765
20
-257.43861007627089
10
225.77492708863346
20
-257.43795476047069
10
225.77427177283306
20
-256.59893738676487
10
224.93525439912725
20
-256.59959270256525
0
LINE
5
135
100
AcDbEntity
8
INSETS D 0.5
100
AcDbLine
10
16.895627707466474
20
-276.41315362764232
30
0
11
19.150743133917132
21
-276.41140412093051
31
0
0
SPLINE
5
136
100
AcDbEntity
8
INSETS D 0.5
100
AcDbSpline
70
0
71
3
72
9
73
5
74
0
42
0.000000001
43
0.0000000001
44
0.0000000001
40
0
40
0
40
0
40
0
40
0.039488472836070834
40
0.091959877545179508
40
0.091959877545179508
40
0.091959877545179508
40
0.091959877545179508
10
20.059429666699913
20
-276.529388739453
30
0
10
19.931845126801093
20
-276.49504213300872
30
0
10
19.634729087027836
20
-276.41505651959119
30
0
10
19.326573621764567
20
-276.41273102522223
30
0
10
19.150743133917132
20
-276.41140412093051
30
0
0
SPLINE
5
137
100
AcDbEntity
8
INSETS D 0.5
100
AcDbSpline
70
0
71
3
72
9
73
5
74
0
42
0.000000001
43
0.0000000001
44
0.0000000001
40
0
40
0
40
0
40
0
40
0.03040701367092365
40
0.062174388083101439
40
0.062174388083101439
40
0.062174388083101439
40
0.062174388083101439
10
20.538580578160079
20
-276.91169087223528
30
0
10
20.476530718269785
20
-276.8293904667961
30
0
10
20.349654987852119
20
-276.66110766853944
30
0
10
20.157572347825337
20
-276.57393085178217
30
0
10
20.059429666699913
20
-276.529388739453
30
0
0
SPLINE
5
138
100
AcDbEntity
8
INSETS D 0.5
100
AcDbSpline
70
0
71
3
72
9
73
5
74
0
42
0.000000001
43
0.0000000001
44
0.0000000001
40
0
40
0
40
0
40
0
40
0.030206994149341231
40
0.060392066808800958
40
0.060392066808800958
40
0.060392066808800958
40
0.060392066808800958
10
20.702737350969116
20
-277.48659831169459
30
0
10
20.695847153842308
20
-277.3848969314007
30
0
10
20.682071759867213
20
-277.1815679764278
30
0
10
20.586399396144941
20
-277.00162813506995
30
0
10
20.538580578160079
20
-276.91169087223528
30
0
0
SPLINE
5
139
100
AcDbEntity
8
INSETS D 0.5
100
AcDbSpline
70
0
71
3
72
9
73
5
74
0
42
0.000000001
43
0.0000000001
44
0.0000000001
40
0
40
0
40
0
40
0
40
0.030045017037676168
40
0.06577413419822345
40
0.06577413419822345
40
0.06577413419822345
40
0.06577413419822345
10
20.457628278078133
20
-278.07614744999199
30
0
10
20.52905318456979
20
-278.00142620648774
30
0
10
20.685415598303578
20
-277.83784749752783
30
0
10
20.69664009869264
20
-277.61023793057564
30
0
10
20.702737350969116
20
-277.48659831169459
30
0
0
SPLINE
5
13A
100
AcDbEntity
8
INSETS D 0.5
100
AcDbSpline
70
0
71
3
72
9
73
5
74
0
42
0.000000001
43
0.0000000001
44
0.0000000001
40
0
40
0
40
0
40
0
40
0.043209263764336883
40
0.076745017844655844
40
0.076745017844655844
40
0.076745017844655844
40
0.076745017844655844
10
19.72106969838137
20
-278.25680124363117
30
0
10
19.867527353045276
20
-278.2537857906799
30
0
10
20.127654333730973
20
-278.24842997180212
30
0
10
20.357285082638157
20
-278.12853758276776
30
0
10
20.457628278078133
20
-278.07614744999199
30
0
0
LINE
5
13B
100
AcDbEntity
8
INSETS D 0.5
100
AcDbLine
10
19.72106969838137
20
-278.25680124363117
30
0
11
16.897059699208086
21
-278.25899209576664
31
0
0
LINE
5
13C
100
AcDbEntity
8
INSETS D 0.5
100
AcDbLine
10
16.897059699208086
20
-278.25899209576664
30
0
11
16.89763122538821
21
-278.99568978628935
31
0
0
LINE
5
13D
100
AcDbEntity
8
INSETS D 0.5
100
AcDbLine
10
16.89763122538821
20
-278.99568978628935
30
0
11
19.422868860208951
21
-278.99373072018602
31
0
0
SPLINE
5
13E
100
AcDbEntity
8
INSETS D 0.5
100
AcDbSpline
70
0
71
3
72
9
73
5
74
0
42
0.000000001
43
0.0000000001
44
0.0000000001
40
0
40
0
40
0
40
0
40
0.045694473383882571
40
0.10415079675543959
40
0.10415079675543959
40
0.10415079675543959
40
0.10415079675543959
10
20.399229423831571
20
-279.29583886114472
30
0
10
20.271138146449701
20
-279.20794028732826
30
0
10
19.979181425892705
20
-279.00759425379943
30
0
10
19.622860024248254
20
-278.99871458069197
30
0
10
19.422868860208951
20
-278.99373072018602
30
0
0
SPLINE
5
13F
100
AcDbEntity
8
INSETS D 0.5
100
AcDbSpline
70
0
71
3
72
9
73
5
74
0
42
0.000000001
43
0.0000000001
44
0.0000000001
40
0
40
0
40
0
40
0
40
0.042637872938974253
40
0.083757974760172577
40
0.083757974760172577
40
0.083757974760172577
40
0.083757974760172577
10
20.704731344178953
20
-280.0568571093055
30
0
10
20.692860341455344
20
-279.91150227941233
30
0
10
20.669540905517962
20
-279.62596678398825
30
0
10
20.488238126997658
20
-279.40454404121283
30
0
10
20.399229423831571
20
-279.29583886114472
30
0
0
SPLINE
5
140
100
AcDbEntity
8
INSETS D 0.5
100
AcDbSpline
70
0
71
3
72
9
73
5
74
0
42
0.000000001
43
0.0000000001
44
0.0000000001
40
0
40
0
40
0
40
0
40
0.022316130935135074
40
0.046238893913152154
40
0.046238893913152154
40
0.046238893913152154
40
0.046238893913152154
10
20.586383864301467
20
-280.49896756458634
30
0
10
20.62093844882547
20
-280.432079326289
30
0
10
20.69253534761863
20
-280.29348728434161
30
0
10
20.700572919935283
20
-280.13754003273777
30
0
10
20.704731344178953
20
-280.0568571093055
30
0
0
SPLINE
5
141
100
AcDbEntity
8
INSETS D 0.5
100
AcDbSpline
70
0
71
3
72
9
73
5
74
0
42
0.000000001
43
0.0000000001
44
0.0000000001
40
0
40
0
40
0
40
0
40
0.020236069545667219
40
0.041272678812989662
40
0.041272678812989662
40
0.041272678812989662
40
0.041272678812989662
10
20.273488639665089
20
-280.75910094160338
30
0
10
20.335480005618365
20
-280.72972919246763
30
0
10
20.461915118444551
20
-280.66982374662427
30
0
10
20.544361230866599
20
-280.55665133619044
30
0
10
20.586383864301467
20
-280.49896756458634
30
0
0
SPLINE
5
142
100
AcDbEntity
8
INSETS D 0.5
100
AcDbSpline
70
0
71
3
72
9
73
5
74
0
42
0.000000001
43
0.0000000001
44
0.0000000001
40
0
40
0
40
0
40
0
40
0.038053763740602847
40
0.064241584907207147
40
0.064241584907207147
40
0.064241584907207147
40
0.064241584907207147
10
19.637118782732657
20
-280.83121917299309
30
0
10
19.764581354708568
20
-280.83109000852846
30
0
10
19.979761059294248
20
-280.83087195572375
30
0
10
20.188426869601344
20
-280.77988540281285
30
0
10
20.273488639665089
20
-280.75910094160338
30
0
0
LINE
5
143
100
AcDbEntity
8
INSETS D 0.5
100
AcDbLine
10
19.637118782732657
20
-280.83121917299309
30
0
11
16.899056867321818
21
-280.83334334705626
31
0
0
LINE
5
144
100
AcDbEntity
8
INSETS D 0.5
100
AcDbLine
10
16.899056867321818
20
-280.83334334705626
30
0
11
16.899625217673204
21
-281.56594739180775
31
0
0
LINE
5
145
100
AcDbEntity
8
INSETS D 0.5
100
AcDbLine
10
16.899625217673204
20
-281.56594739180775
30
0
11
19.883253427289134
21
-281.5636327087023
31
0
0
SPLINE
5
146
100
AcDbEntity
8
INSETS D 0.5
100
AcDbSpline
70
0
71
3
72
9
73
5
74
0
42
0.000000001
43
0.0000000001
44
0.0000000001
40
0
40
0
40
0
40
0
40
0.052433489062816682
40
0.11783355969746931
40
0.11783355969746931
40
0.11783355969746931
40
0.11783355969746931
10
20.985984446021888
20
-281.21489340975302
30
0
10
20.839270825557676
20
-281.31615737058053
30
0
10
20.50956192263321
20
-281.54372744433761
30
0
10
20.106796560503
20
-281.55652808662455
30
0
10
19.883253427289134
20
-281.5636327087023
30
0
0
SPLINE
5
147
100
AcDbEntity
8
INSETS D 0.5
100
AcDbSpline
70
0
71
3
72
9
73
5
74
0
42
0.000000001
43
0.0000000001
44
0.0000000001
40
0
40
0
40
0
40
0
40
0.057893071344319445
40
0.10796418030941382
40
0.10796418030941382
40
0.10796418030941382
40
0.10796418030941382
10
21.343329999263432
20
-280.22007185442561
30
0
10
21.333393102084273
20
-280.41818625343137
30
0
10
21.31486188696897
20
-280.78764771400802
30
0
10
21.090184326045005
20
-281.07952702491116
30
0
10
20.985984446021888
20
-281.21489340975302
30
0
0
SPLINE
5
148
100
AcDbEntity
8
INSETS D 0.5
100
AcDbSpline
70
0
71
3
72
9
73
5
74
0
42
0.000000001
43
0.0000000001
44
0.0000000001
40
0
40
0
40
0
40
0
40
0.082350283424223306
40
0.15962814977521311
40
0.15962814977521311
40
0.15962814977521311
40
0.15962814977521311
10
20.581033754448299
20
-278.87823510531621
30
0
10
20.803140056759304
20
-279.05828005686288
30
0
10
21.233671885152248
20
-279.40727997886341
30
0
10
21.307559927970416
20
-279.95494215042766
30
0
10
21.343329999263432
20
-280.22007185442561
30
0
0
SPLINE
5
149
100
AcDbEntity
8
INSETS D 0.5
100
AcDbSpline
70
0
71
3
72
9
73
5
74
0
42
0.000000001
43
0.0000000001
44
0.0000000001
40
0
40
0
40
0
40
0
40
0.035669905282402173
40
0.072041656688959455
40
0.072041656688959455
40
0.072041656688959455
40
0.072041656688959455
10
21.141404968160771
20
-278.44191981850855
30
0
10
21.06740509453175
20
-278.53759089091994
30
0
10
20.917949315246531
20
-278.73081547335619
30
0
10
20.694065982081611
20
-278.82877710652906
30
0
10
20.581033754448299
20
-278.87823510531621
30
0
0
SPLINE
5
14A
100
AcDbEntity
8
INSETS D 0.5
100
AcDbSpline
70
0
71
3
72
9
73
5
74
0
42
0.000000001
43
0.0000000001
44
0.0000000001
40
0
40
0
40
0
40
0
40
0.04423109752921086
40
0.082554986136697706
40
0.082554986136697706
40
0.082554986136697706
40
0.082554986136697706
10
21.341336006978437
20
-277.64981424890732
30
0
10
21.335763965839334
20
-277.79921981326538
30
0
10
21.32536404802849
20
-278.07807733621462
30
0
10
21.199728039914305
20
-278.32656584295563
30
0
10
21.141404968160771
20
-278.44191981850855
30
0
0
SPLINE
5
14B
100
AcDbEntity
8
INSETS D 0.5
100
AcDbSpline
70
0
71
3
72
9
73
5
74
0
42
0.000000001
43
0.0000000001
44
0.0000000001
40
0
40
0
40
0
40
0
40
0.039140431895766575
40
0.080457330730787313
40
0.080457330730787313
40
0.080457330730787313
40
0.080457330730787313
10
21.14632945299121
20
-276.87643171850254
30
0
10
21.20311212207298
20
-276.99540162556093
30
0
10
21.319834952272103
20
-277.23995695353199
30
0
10
21.334040892853565
20
-277.51075336163922
30
0
10
21.341336006978437
20
-277.64981424890732
30
0
0
SPLINE
5
14C
100
AcDbEntity
8
INSETS D 0.5
100
AcDbSpline
70
0
71
3
72
9
73
5
74
0
42
0.000000001
43
0.0000000001
44
0.0000000001
40
0
40
0
40
0
40
0
40
0.037389432734005155
40
0.075402228642556829
40
0.075402228642556829
40
0.075402228642556829
40
0.075402228642556829
10
20.632264882659399
20
-276.33249213697286
30
0
10
20.733795936612651
20
-276.40671515559688
30
0
10
20.938550788042534
20
-276.55639865201817
30
0
10
21.076689226609346
20
-276.76916769692866
30
0
10
21.14632945299121
20
-276.87643171850254
30
0
0
LINE
5
14D
100
AcDbEntity
8
INSETS D 0.5
100
AcDbLine
10
20.632264882659399
20
-276.33249213697286
30
0
11
21.242087270423937
21
-276.33201903996508
31
0
0
LINE
5
14E
100
AcDbEntity
8
INSETS D 0.5
100
AcDbLine
10
21.242087270423937
20
-276.33201903996508
30
0
11
21.241576071118473
21
-275.67308273770863
31
0
0
LINE
5
14F
100
AcDbEntity
8
INSETS D 0.5
100
AcDbLine
10
21.241576071118473
20
-275.67308273770863
30
0
11
16.895056180361507
21
-275.67645474502712
31
0
0
LINE
5
150
100
AcDbEntity
8
INSETS D 0.5
100
AcDbLine
10
16.895056180361507
20
-275.67645474502712
30
0
11
16.895627707466474
21
-276.41315362764232
31
0
0
LINE
5
151
100
AcDbEntity
8
INSETS D 0.5
100
AcDbLine
10
16.890210904209155
20
-269.430890017975
30
0
11
19.145326330659813
21
-269.4291405112632
31
0
0
SPLINE
5
152
100
AcDbEntity
8
INSETS D 0.5
100
AcDbSpline
70
0
71
3
72
9
73
5
74
0
42
0.000000001
43
0.0000000001
44
0.0000000001
40
0
40
0
40
0
40
0
40
0.039488459399516868
40
0.091959870849730702
40
0.091959870849730702
40
0.091959870849730702
40
0.091959870849730702
10
20.054012863905015
20
-269.54712572583207
30
0
10
19.926428310835291
20
-269.51277942547193
30
0
10
19.629312160924144
20
-269.43279450346427
30
0
10
19.321156796411216
20
-269.43046799465293
30
0
10
19.145326330659813
20
-269.4291405112632
30
0
0
SPLINE
5
153
100
AcDbEntity
8
INSETS D 0.5
100
AcDbSpline
70
0
71
3
72
9
73
5
74
0
42
0.000000001
43
0.0000000001
44
0.0000000001
40
0
40
0
40
0
40
0
40
0.03040714754999254
40
0.062174463791883225
40
0.062174463791883225
40
0.062174463791883225
40
0.062174463791883225
10
20.533163775827532
20
-269.92942845466047
30
0
10
20.471114066772742
20
-269.84712726911084
30
0
10
20.34423904889799
20
-269.67884341175204
30
0
10
20.152155639111484
20
-269.59166732789413
30
0
10
20.054012863905015
20
-269.54712572583207
30
0
0
SPLINE
5
154
100
AcDbEntity
8
INSETS D 0.5
100
AcDbSpline
70
0
71
3
72
9
73
5
74
0
42
0.000000001
43
0.0000000001
44
0.0000000001
40
0
40
0
40
0
40
0
40
0.030206935094330988
40
0.060392007753790715
40
0.060392007753790715
40
0.060392007753790715
40
0.060392007753790715
10
20.697320548174218
20
-270.5043352980735
30
0
10
20.690430324506224
20
-270.40263412309827
30
0
10
20.676654864007347
20
-270.19930537993048
30
0
10
20.580982593821346
20
-270.01936571650663
30
0
10
20.533163775827532
20
-269.92942845466047
30
0
0
SPLINE
5
155
100
AcDbEntity
8
INSETS D 0.5
100
AcDbSpline
70
0
71
3
72
9
73
5
74
0
42
0.000000001
43
0.0000000001
44
0.0000000001
40
0
40
0
40
0
40
0
40
0.030044922852180252
40
0.065774157449079357
40
0.065774157449079357
40
0.065774157449079357
40
0.065774157449079357
10
20.452211475283164
20
-271.0938844363709
30
0
10
20.523636372125935
20
-271.01916359704671
30
0
10
20.67999931017809
20
-270.8555852023004
30
0
10
20.691223465471893
20
-270.62797540484524
30
0
10
20.697320548174218
20
-270.5043352980735
30
0
0
SPLINE
5
156
100
AcDbEntity
8
INSETS D 0.5
100
AcDbSpline
70
0
71
3
72
9
73
5
74
0
42
0.000000001
43
0.0000000001
44
0.0000000001
40
0
40
0
40
0
40
0
40
0.043209263764336883
40
0.076744993839553147
40
0.076744993839553147
40
0.076744993839553147
40
0.076744993839553147
10
19.715652895124123
20
-271.27453763396386
30
0
10
19.862110524183549
20
-271.27152212444241
30
0
10
20.12223737802735
20
-271.26616620676475
30
0
10
20.351868261486956
20
-271.14627432595182
30
0
10
20.452211475283164
20
-271.0938844363709
30
0
0
LINE
5
157
100
AcDbEntity
8
INSETS D 0.5
100
AcDbLine
10
19.715652895124123
20
-271.27453763396386
30
0
11
16.891642895950767
21
-271.2767284860995
31
0
0
LINE
5
158
100
AcDbEntity
8
INSETS D 0.5
100
AcDbLine
10
16.891642895950767
20
-271.2767284860995
30
0
11
16.892214423055734
21
-272.01342736871453
31
0
0
LINE
5
159
100
AcDbEntity
8
INSETS D 0.5
100
AcDbLine
10
16.892214423055734
20
-272.01342736871453
30
0
11
19.417452057876474
21
-272.01146830261121
31
0
0
SPLINE
5
15A
100
AcDbEntity
8
INSETS D 0.5
100
AcDbSpline
70
0
71
3
72
9
73
5
74
0
42
0.000000001
43
0.0000000001
44
0.0000000001
40
0
40
0
40
0
40
0
40
0.045694473383882571
40
0.10415078131468641
40
0.10415078131468641
40
0.10415078131468641
40
0.10415078131468641
10
20.393812620574252
20
-272.31357525147729
30
0
10
20.265721352504045
20
-272.22567660883755
30
0
10
19.973764696454666
20
-272.02533044814277
30
0
10
19.617443233276148
20
-272.01645166373976
30
0
10
19.417452057876474
20
-272.01146830261121
30
0
0
SPLINE
5
15B
100
AcDbEntity
8
INSETS D 0.5
100
AcDbSpline
70
0
71
3
72
9
73
5
74
0
42
0.000000001
43
0.0000000001
44
0.0000000001
40
0
40
0
40
0
40
0
40
0.042637872938974253
40
0.08375807383403705
40
0.08375807383403705
40
0.08375807383403705
40
0.08375807383403705
10
20.699314541846476
20
-273.07459469173068
30
0
10
20.687443474533111
20
-272.92923990086206
30
0
10
20.664123884131627
20
-272.64370414434995
30
0
10
20.482821325137053
20
-272.42228084038487
30
0
10
20.393812620574252
20
-272.31357525147729
30
0
0
SPLINE
5
15C
100
AcDbEntity
8
INSETS D 0.5
100
AcDbSpline
70
0
71
3
72
9
73
5
74
0
42
0.000000001
43
0.0000000001
44
0.0000000001
40
0
40
0
40
0
40
0
40
0.022316130935135074
40
0.046238893913152154
40
0.046238893913152154
40
0.046238893913152154
40
0.046238893913152154
10
20.58096706196892
20
-273.51670514701152
30
0
10
20.615521646492923
20
-273.44981690871418
30
0
10
20.687118545286154
20
-273.31122486676691
30
0
10
20.695156117602806
20
-273.15527761516307
30
0
10
20.699314541846476
20
-273.07459469173068
30
0
0
SPLINE
5
15D
100
AcDbEntity
8
INSETS D 0.5
100
AcDbSpline
70
0
71
3
72
9
73
5
74
0
42
0.000000001
43
0.0000000001
44
0.0000000001
40
0
40
0
40
0
40
0
40
0.020236069545667219
40
0.041272678812989662
40
0.041272678812989662
40
0.041272678812989662
40
0.041272678812989662
10
20.268071837332613
20
-273.77683852402856
30
0
10
20.330063203285818
20
-273.74746677489298
30
0
10
20.456498316112075
20
-273.68756132904946
30
0
10
20.538944428534123
20
-273.57438891861563
30
0
10
20.58096706196892
20
-273.51670514701152
30
0
0
SPLINE
5
15E
100
AcDbEntity
8
INSETS D 0.5
100
AcDbSpline
70
0
71
3
72
9
73
5
74
0
42
0.000000001
43
0.0000000001
44
0.0000000001
40
0
40
0
40
0
40
0
40
0.03805375813132434
40
0.064241579297928633
40
0.064241579297928633
40
0.064241579297928633
40
0.064241579297928633
10
19.631701979475409
20
-273.84895556332583
30
0
10
19.759164557224196
20
-273.84882691241853
30
0
10
19.974344284485497
20
-273.84860972657776
30
0
10
20.183010069963245
20
-273.79762304109505
30
0
10
20.268071837332613
20
-273.77683852402856
30
0
0
LINE
5
15F
100
AcDbEntity
8
INSETS D 0.5
100
AcDbLine
10
19.631701979475409
20
-273.84895556332583
30
0
11
16.89364006406457
21
-273.851079737389
31
0
0
LINE
5
160
100
AcDbEntity
8
INSETS D 0.5
100
AcDbLine
10
16.89364006406457
20
-273.851079737389
30
0
11
16.894208415340728
21
-274.58368497423294
31
0
0
LINE
5
161
100
AcDbEntity
8
INSETS D 0.5
100
AcDbLine
10
16.894208415340728
20
-274.58368497423294
30
0
11
19.877836624956657
21
-274.58137029112748
31
0
0
SPLINE
5
162
100
AcDbEntity
8
INSETS D 0.5
100
AcDbSpline
70
0
71
3
72
9
73
5
74
0
42
0.000000001
43
0.0000000001
44
0.0000000001
40
0
40
0
40
0
40
0
40
0.052433489062816682
40
0.11783357555026712
40
0.11783357555026712
40
0.11783357555026712
40
0.11783357555026712
10
20.980567642764569
20
-274.23262980008576
30
0
10
20.833854012255415
20
-274.33389368938606
30
0
10
20.504145042399387
20
-274.56146363301656
30
0
10
20.101379745871526
20
-274.57426517109855
30
0
10
19.877836624956657
20
-274.58137029112748
30
0
0
SPLINE
5
163
100
AcDbEntity
8
INSETS D 0.5
100
AcDbSpline
70
0
71
3
72
9
73
5
74
0
42
0.000000001
43
0.0000000001
44
0.0000000001
40
0
40
0
40
0
40
0
40
0.057892953569121754
40
0.10796406253421613
40
0.10796406253421613
40
0.10796406253421613
40
0.10796406253421613
10
21.337913196930955
20
-273.23780943685097
30
0
10
21.327976224327188
20
-273.43592341381407
30
0
10
21.309444851069301
20
-273.80538443590933
30
0
10
21.084767526733046
20
-274.09726341941519
30
0
10
20.980567642764569
20
-274.23262980008576
30
0
0
SPLINE
5
164
100
AcDbEntity
8
INSETS D 0.5
100
AcDbSpline
70
0
71
3
72
9
73
5
74
0
42
0.000000001
43
0.0000000001
44
0.0000000001
40
0
40
0
40
0
40
0
40
0.082350369331390061
40
0.15962823568237988
40
0.15962823568237988
40
0.15962823568237988
40
0.15962823568237988
10
20.57561695119098
20
-271.89597149564872
30
0
10
20.79772325162196
20
-272.07601686658194
30
0
10
21.228254858943174
20
-272.42501742527008
30
0
10
21.302143065581163
20
-272.97267978462583
30
0
10
21.337913196930955
20
-273.23780943685097
30
0
0
SPLINE
5
165
100
AcDbEntity
8
INSETS D 0.5
100
AcDbSpline
70
0
71
3
72
9
73
5
74
0
42
0.000000001
43
0.0000000001
44
0.0000000001
40
0
40
0
40
0
40
0
40
0.035669817229540164
40
0.072041568636097439
40
0.072041568636097439
40
0.072041568636097439
40
0.072041568636097439
10
21.135988165828294
20
-271.45965740093374
30
0
10
21.061988220280838
20
-271.55532800239871
30
0
10
20.9125321094767
20
-271.74855187449009
30
0
10
20.688649135589046
20
-271.84651346031586
30
0
10
20.57561695119098
20
-271.89597149564872
30
0
0
SPLINE
5
166
100
AcDbEntity
8
INSETS D 0.5
100
AcDbSpline
70
0
71
3
72
9
73
5
74
0
42
0.000000001
43
0.0000000001
44
0.0000000001
40
0
40
0
40
0
40
0
40
0.044231215970197656
40
0.082555104577684502
40
0.082555104577684502
40
0.082555104577684502
40
0.082555104577684502
10
21.335919203721119
20
-270.66755063924006
30
0
10
21.330347218112991
20
-270.8169566137143
30
0
10
21.319947416875564
20
-271.09581455547993
30
0
10
21.194311234706404
20
-271.34430342327079
30
0
10
21.135988165828294
20
-271.45965740093374
30
0
0
SPLINE
5
167
100
AcDbEntity
8
INSETS D 0.5
100
AcDbSpline
70
0
71
3
72
9
73
5
74
0
42
0.000000001
43
0.0000000001
44
0.0000000001
40
0
40
0
40
0
40
0
40
0.039140431895766575
40
0.080457330730787313
40
0.080457330730787313
40
0.080457330730787313
40
0.080457330730787313
10
21.140912649733892
20
-269.89416810883529
30
0
10
21.197695318815661
20
-270.01313801589362
30
0
10
21.314418149014784
20
-270.2576933438645
30
0
10
21.328624089596246
20
-270.52848975197179
30
0
10
21.335919203721119
20
-270.66755063924006
30
0
0
SPLINE
5
168
100
AcDbEntity
8
INSETS D 0.5
100
AcDbSpline
70
0
71
3
72
9
73
5
74
0
42
0.000000001
43
0.0000000001
44
0.0000000001
40
0
40
0
40
0
40
0
40
0.037389356723325447
40
0.07540224857376529
40
0.07540224857376529
40
0.07540224857376529
40
0.07540224857376529
10
20.62684807940208
20
-269.35022852730555
30
0
10
20.728379204012981
20
-269.42445107828075
30
0
10
20.933134668316171
20
-269.57413397547072
30
0
10
21.071272547830446
20
-269.78690356854077
30
0
10
21.140912649733892
20
-269.89416810883529
30
0
0
LINE
5
169
100
AcDbEntity
8
INSETS D 0.5
100
AcDbLine
10
20.62684807940208
20
-269.35022852730555
30
0
11
21.236670467166618
21
-269.34975543029782
31
0
0
LINE
5
16A
100
AcDbEntity
8
INSETS D 0.5
100
AcDbLine
10
21.236670467166618
20
-269.34975543029782
30
0
11
21.236159268323576
21
-268.69081972408753
31
0
0
LINE
5
16B
100
AcDbEntity
8
INSETS D 0.5
100
AcDbLine
10
21.236159268323576
20
-268.69081972408753
30
0
11
16.88963937756661
21
-268.69419173140602
31
0
0
LINE
5
16C
100
AcDbEntity
8
INSETS D 0.5
100
AcDbLine
10
16.88963937756661
20
-268.69419173140602
30
0
11
16.890210904209155
21
-269.430890017975
31
0
0
LINE
5
16D
100
AcDbEntity
8
INSETS D 0.5
100
AcDbLine
10
224.94294557149686
20
-266.44679498022231
30
0
11
227.19806098871965
21
-266.44503361888354
31
0
0
SPLINE
5
16E
100
AcDbEntity
8
INSETS D 0.5
100
AcDbSpline
70
0
71
3
72
9
73
5
74
0
42
0.000000001
43
0.0000000001
44
0.0000000001
40
0
40
0
40
0
40
0
40
0.039488445963048291
40
0.091959857413262125
40
0.091959857413262125
40
0.091959857413262125
40
0.091959857413262125
10
228.10674814171151
20
-266.5630134606468
30
0
10
227.97916339854737
20
-266.52866807270061
30
0
10
227.68204674826302
20
-266.44868525997379
30
0
10
227.37389144513594
20
-266.44636024824592
30
0
10
227.19806098871965
20
-266.44503361888354
30
0
0
SPLINE
5
16F
100
AcDbEntity
8
INSETS D 0.5
100
AcDbSpline
70
0
71
3
72
9
73
5
74
0
42
0.000000001
43
0.0000000001
44
0.0000000001
40
0
40
0
40
0
40
0
40
0.030407102923584901
40
0.062174419165475586
40
0.062174419165475586
40
0.062174419165475586
40
0.062174419165475586
10
228.58590106285129
20
-266.94531307463677
30
0
10
228.52385088568673
20
-266.86301244965932
30
0
10
228.39697481551283
20
-266.69472961233066
30
0
10
228.20489112883536
20
-266.60755456505115
30
0
10
228.10674814171151
20
-266.5630134606468
30
0
0
SPLINE
5
170
100
AcDbEntity
8
INSETS D 0.5
100
AcDbSpline
70
0
71
3
72
9
73
5
74
0
42
0.000000001
43
0.0000000001
44
0.0000000001
40
0
40
0
40
0
40
0
40
0.030206876039322903
40
0.060392057600267876
40
0.060392057600267876
40
0.060392057600267876
40
0.060392057600267876
10
228.75006085783212
20
-267.52021965115347
30
0
10
228.7431700237442
20
-267.41851873771952
30
0
10
228.7293933045425
20
-267.21518995211085
30
0
10
228.63372035396844
20
-267.03525048740289
30
0
10
228.58590106285129
20
-266.94531307463677
30
0
0
SPLINE
5
171
100
AcDbEntity
8
INSETS D 0.5
100
AcDbSpline
70
0
71
3
72
9
73
5
74
0
42
0.000000001
43
0.0000000001
44
0.0000000001
40
0
40
0
40
0
40
0
40
0.030044922852180252
40
0.065774157449079357
40
0.065774157449079357
40
0.065774157449079357
40
0.065774157449079357
10
228.50495488408697
20
-268.10977007792519
30
0
10
228.5763793881361
20
-268.0350488631376
30
0
10
228.73274146628711
20
-267.87146964642915
30
0
10
228.74396442508129
20
-267.6438597899745
30
0
10
228.75006085783212
20
-267.52021965115347
30
0
0
SPLINE
5
172
100
AcDbEntity
8
INSETS D 0.5
100
AcDbSpline
70
0
71
3
72
9
73
5
74
0
42
0.000000001
43
0.0000000001
44
0.0000000001
40
0
40
0
40
0
40
0
40
0.043209263764336883
40
0.076745017844655844
40
0.076745017844655844
40
0.076745017844655844
40
0.076745017844655844
10
227.76839725406148
20
-268.2904277434821
30
0
10
227.91485489287169
20
-268.2874115206364
30
0
10
228.17498184539929
20
-268.28205433433055
30
0
10
228.40461196405286
20
-268.1621607381814
30
0
10
228.50495488408697
20
-268.10977007792519
30
0
0
LINE
5
173
100
AcDbEntity
8
INSETS D 0.5
100
AcDbLine
10
227.76839725406148
20
-268.2904277434821
30
0
11
224.9443872664439
21
-268.29263344079334
31
0
0
LINE
5
174
100
AcDbEntity
8
INSETS D 0.5
100
AcDbLine
10
224.9443872664439
20
-268.29263344079334
30
0
11
224.94496266529723
21
-269.02933112830158
31
0
0
LINE
5
175
100
AcDbEntity
8
INSETS D 0.5
100
AcDbLine
10
224.94496266529723
20
-269.02933112830158
30
0
11
227.47020028978477
21
-269.02735878760052
31
0
0
SPLINE
5
176
100
AcDbEntity
8
INSETS D 0.5
100
AcDbSpline
70
0
71
3
72
9
73
5
74
0
42
0.000000001
43
0.0000000001
44
0.0000000001
40
0
40
0
40
0
40
0
40
0.045694473383882571
40
0.10415079675543959
40
0.10415079675543959
40
0.10415079675543959
40
0.10415079675543959
10
228.44656244151622
20
-269.3294617960504
30
0
10
228.3184707020709
20
-269.24156389558175
30
0
10
228.02651292833866
20
-269.04121939680567
30
0
10
227.67019148002043
20
-269.03234159679857
30
0
10
227.47020028978477
20
-269.02735878760052
30
0
0
SPLINE
5
177
100
AcDbEntity
8
INSETS D 0.5
100
AcDbSpline
70
0
71
3
72
9
73
5
74
0
42
0.000000001
43
0.0000000001
44
0.0000000001
40
0
40
0
40
0
40
0
40
0.042637872938974253
40
0.083757974760172577
40
0.083757974760172577
40
0.083757974760172577
40
0.083757974760172577
10
228.75206836238092
20
-270.09047843824675
30
0
10
228.74019659555609
20
-269.94512367075885
30
0
10
228.71687565861572
20
-269.65958829792373
30
0
10
228.5355717161226
20
-269.43816650821873
30
0
10
228.44656244151622
20
-269.3294617960504
30
0
0
SPLINE
5
178
100
AcDbEntity
8
INSETS D 0.5
100
AcDbSpline
70
0
71
3
72
9
73
5
74
0
42
0.000000001
43
0.0000000001
44
0.0000000001
40
0
40
0
40
0
40
0
40
0.022316130935135074
40
0.046239012201888308
40
0.046239012201888308
40
0.046239012201888308
40
0.046239012201888308
10
228.63372320752285
20
-270.53259070773976
30
0
10
228.66827743881387
20
-270.46570228571824
30
0
10
228.73987378886824
20
-270.32710950854693
30
0
10
228.74791041680936
20
-270.17116179382572
30
0
10
228.75206836238092
20
-270.09047843824675
30
0
0
SPLINE
5
179
100
AcDbEntity
8
INSETS D 0.5
100
AcDbSpline
70
0
71
3
72
9
73
5
74
0
42
0.000000001
43
0.0000000001
44
0.0000000001
40
0
40
0
40
0
40
0
40
0.020236069545667219
40
0.041272678812989662
40
0.041272678812989662
40
0.041272678812989662
40
0.041272678812989662
10
228.32082935036021
20
-270.79272572957194
30
0
10
228.3828205619111
20
-270.76335365456231
30
0
10
228.50925535982464
20
-270.70344754407915
30
0
10
228.59170087732068
20
-270.59027470024648
30
0
10
228.63372320752285
20
-270.53259070773976
30
0
0
SPLINE
5
17A
100
AcDbEntity
8
INSETS D 0.5
100
AcDbSpline
70
0
71
3
72
9
73
5
74
0
42
0.000000001
43
0.0000000001
44
0.0000000001
40
0
40
0
40
0
40
0
40
0.03805375813132434
40
0.064241579297928633
40
0.064241579297928633
40
0.064241579297928633
40
0.064241579297928633
10
227.6844598716167
20
-270.86484611411919
30
0
10
227.81192244868743
20
-270.86471679317026
30
0
10
228.0271021748041
20
-270.86449847617882
30
0
10
228.23576769225213
20
-270.81351069378854
30
0
10
228.32082935036021
20
-270.79272572957194
30
0
0
LINE
5
17B
100
AcDbEntity
8
INSETS D 0.5
100
AcDbLine
10
227.6844598716167
20
-270.86484611411919
30
0
11
224.94639796740998
21
-270.86698468154879
31
0
0
LINE
5
17C
100
AcDbEntity
8
INSETS D 0.5
100
AcDbLine
10
224.94639796740998
20
-270.86698468154879
30
0
11
224.94697016984611
21
-271.59958991539486
31
0
0
LINE
5
17D
100
AcDbEntity
8
INSETS D 0.5
100
AcDbLine
10
224.94697016984611
20
-271.59958991539486
30
0
11
227.93059836725305
21
-271.59725954803719
31
0
0
SPLINE
5
17E
100
AcDbEntity
8
INSETS D 0.5
100
AcDbSpline
70
0
71
3
72
9
73
5
74
0
42
0.000000001
43
0.0000000001
44
0.0000000001
40
0
40
0
40
0
40
0
40
0.052433607702278562
40
0.11783367833693119
40
0.11783367833693119
40
0.11783367833693119
40
0.11783367833693119
10
229.03332755085529
20
-271.24851206810251
30
0
10
228.88661455672826
20
-271.34977777774878
30
0
10
228.55690747542326
20
-271.57735149582618
30
0
10
228.15414157445886
20
-271.59015393551715
30
0
10
227.93059836725305
20
-271.59725954803719
30
0
0
SPLINE
5
17F
100
AcDbEntity
8
INSETS D 0.5
100
AcDbSpline
70
0
71
3
72
9
73
5
74
0
42
0.000000001
43
0.0000000001
44
0.0000000001
40
0
40
0
40
0
40
0
40
0.057892835793929939
40
0.10796394475902432
40
0.10796394475902432
40
0.10796394475902432
40
0.10796394475902432
10
229.39066787637515
20
-270.25369101848992
30
0
10
229.38073186979051
20
-270.45180462564485
30
0
10
229.36220228057073
20
-270.82126530666972
30
0
10
229.13752672717345
20
-271.11314514385015
30
0
10
229.03332755085529
20
-271.24851206810251
30
0
0
SPLINE
5
180
100
AcDbEntity
8
INSETS D 0.5
100
AcDbSpline
70
0
71
3
72
9
73
5
74
0
42
0.000000001
43
0.0000000001
44
0.0000000001
40
0
40
0
40
0
40
0
40
0.082350369331390061
40
0.15962823568237988
40
0.15962823568237988
40
0.15962823568237988
40
0.15962823568237988
10
228.62836457687067
20
-268.91185708452383
30
0
10
228.85047182376127
20
-269.09190128789237
30
0
10
229.28100526570296
20
-269.44089958336917
30
0
10
229.3548963512921
20
-269.98856155430406
30
0
10
229.39066787637515
20
-270.25369101848992
30
0
0
SPLINE
5
181
100
AcDbEntity
8
INSETS D 0.5
100
AcDbSpline
70
0
71
3
72
9
73
5
74
0
42
0.000000001
43
0.0000000001
44
0.0000000001
40
0
40
0
40
0
40
0
40
0.035669905282402173
40
0.072041656688959455
40
0.072041656688959455
40
0.072041656688959455
40
0.072041656688959455
10
229.18873349695275
20
-268.47553885197868
30
0
10
229.11473412624849
20
-268.57121031338932
30
0
10
228.96527936270857
20
-268.76443568147761
30
0
10
228.74139654451156
20
-268.86239849155277
30
0
10
228.62836457687067
20
-268.91185708452383
30
0
0
SPLINE
5
182
100
AcDbEntity
8
INSETS D 0.5
100
AcDbSpline
70
0
71
3
72
9
73
5
74
0
42
0.000000001
43
0.0000000001
44
0.0000000001
40
0
40
0
40
0
40
0
40
0.044231215970197656
40
0.082554994933108
40
0.082554994933108
40
0.082554994933108
40
0.082554994933108
10
229.38866037182629
20
-267.68343223139664
30
0
10
229.38308923062453
20
-267.83283825790818
30
0
10
229.37269101923482
20
-268.11169592643682
30
0
10
229.24705595668064
20
-268.36018496968609
30
0
10
229.18873349695275
20
-268.47553885197868
30
0
0
SPLINE
5
183
100
AcDbEntity
8
INSETS D 0.5
100
AcDbSpline
70
0
71
3
72
9
73
5
74
0
42
0.000000001
43
0.0000000001
44
0.0000000001
40
0
40
0
40
0
40
0
40
0.039140431895766575
40
0.080457330730787313
40
0.080457330730787313
40
0.080457330730787313
40
0.080457330730787313
10
229.19364975232369
20
-266.9100507261075
30
0
10
229.25043304680577
20
-267.02902033467069
30
0
10
229.36715716258198
20
-267.27357504905297
30
0
10
229.38136452668613
20
-267.54437138247908
30
0
10
229.38866037182629
20
-267.68343223139664
30
0
0
SPLINE
5
184
100
AcDbEntity
8
INSETS D 0.5
100
AcDbSpline
70
0
71
3
72
9
73
5
74
0
42
0.000000001
43
0.0000000001
44
0.0000000001
40
0
40
0
40
0
40
0
40
0.037389432734005155
40
0.075402324584444999
40
0.075402324584444999
40
0.075402324584444999
40
0.075402324584444999
10
228.67958232168576
20
-266.36611265481292
30
0
10
228.78111380512806
20
-266.44033511211728
30
0
10
228.98586978322811
20
-266.59001766699674
30
0
10
229.12400903089144
20
-266.80278661775458
30
0
10
229.19364975232369
20
-266.9100507261075
30
0
0
LINE
5
185
100
AcDbEntity
8
INSETS D 0.5
100
AcDbLine
10
228.67958232168576
20
-266.36611265481292
30
0
11
229.28940470695494
21
-266.36563635210803
31
0
0
LINE
5
186
100
AcDbEntity
8
INSETS D 0.5
100
AcDbLine
10
229.28940470695494
20
-266.36563635210803
30
0
11
229.28889004468346
21
-265.70670124464044
31
0
0
LINE
5
187
100
AcDbEntity
8
INSETS D 0.5
100
AcDbLine
10
229.28889004468346
20
-265.70670124464044
30
0
11
224.94237017171244
21
-265.71009610062163
31
0
0
LINE
5
188
100
AcDbEntity
8
INSETS D 0.5
100
AcDbLine
10
224.94237017171244
20
-265.71009610062163
30
0
11
224.94294557149686
21
-266.44679498022231
31
0
0
SPLINE
5
189
100
AcDbEntity
8
INSETS D 0.5
100
AcDbSpline
70
0
71
3
72
9
73
5
74
0
42
0.000000001
43
0.0000000001
44
0.0000000001
40
0
40
0
40
0
40
0
40
0.065170126964038552
40
0.12476186520664562
40
0.12476186520664562
40
0.12476186520664562
40
0.12476186520664562
10
22.910257137061265
20
-263.61448523937884
30
0
10
22.89705363143888
20
-263.83612329012931
30
0
10
22.871776804993118
20
-264.26042776674421
30
0
10
22.629757784281352
20
-264.6087290079704
30
0
10
22.51415888626795
20
-264.77509295549839
30
0
0
SPLINE
5
18A
100
AcDbEntity
8
INSETS D 0.5
100
AcDbSpline
70
0
71
3
72
9
73
5
74
0
42
0.000000001
43
0.0000000001
44
0.0000000001
40
0
40
0
40
0
40
0
40
0.083593330659238671
40
0.17054139279250657
40
0.17054139279250657
40
0.17054139279250657
40
0.17054139279250657
10
22.221500241182
20
-262.10478702794148
30
0
10
22.422184097893023
20
-262.31074032778281
30
0
10
22.831605569254165
20
-262.73091215642228
30
0
10
22.883698374076076
20
-263.31612363331487
30
0
10
22.910257137061265
20
-263.61448523937884
30
0
0
SPLINE
5
18B
100
AcDbEntity
8
INSETS D 0.5
100
AcDbSpline
70
0
71
3
72
9
73
5
74
0
42
0.000000001
43
0.0000000001
44
0.0000000001
40
0
40
0
40
0
40
0
40
0.15106120120860861
40
0.26453210216239875
40
0.26453210216239875
40
0.26453210216239875
40
0.26453210216239875
10
19.691671356414702
20
-261.46418464428325
30
0
10
20.205155198568931
20
-261.47156056119798
30
0
10
21.10434677856901
20
-261.48447696058599
30
0
10
21.886147323714837
20
-261.91857913638171
30
0
10
22.221500241182
20
-262.10478702794148
30
0
0
SPLINE
5
18C
100
AcDbEntity
8
INSETS D 0.5
100
AcDbSpline
70
0
71
3
72
9
73
5
74
0
42
0.000000001
43
0.0000000001
44
0.0000000001
40
0
40
0
40
0
40
0
40
0.099714194720763039
40
0.23407984698981171
40
0.23407984698981171
40
0.23407984698981171
40
0.23407984698981171
10
17.45951678629865
20
-262.04708973921231
30
0
10
17.751621736993428
20
-261.87827867937557
30
0
10
18.437340378708171
20
-261.48199340457154
30
0
10
19.234238709470048
20
-261.47067918878736
30
0
10
19.691671356414702
20
-261.46418464428325
30
0
0
SPLINE
5
18D
100
AcDbEntity
8
INSETS D 0.5
100
AcDbSpline
70
0
71
3
72
9
73
5
74
0
42
0.000000001
43
0.0000000001
44
0.0000000001
40
0
40
0
40
0
40
0
40
0.085292736910000527
40
0.16906419587446442
40
0.16906419587446442
40
0.16906419587446442
40
0.16906419587446442
10
16.783329125904132
20
-263.54966135914208
30
0
10
16.810296185115021
20
-263.25772648390898
30
0
10
16.863749320115389
20
-262.67906367254807
30
0
10
17.262122514998097
20
-262.25648021642473
30
0
10
17.45951678629865
20
-262.04708973921231
30
0
0
SPLINE
5
18E
100
AcDbEntity
8
INSETS D 0.5
100
AcDbSpline
70
0
71
3
72
9
73
5
74
0
42
0.000000001
43
0.0000000001
44
0.0000000001
40
0
40
0
40
0
40
0
40
0.049374370516643819
40
0.10093849807668243
40
0.10093849807668243
40
0.10093849807668243
40
0.10093849807668243
10
17.041922711866135
20
-264.51535430284565
30
0
10
16.966612879230709
20
-264.36688046289544
30
0
10
16.812653217222149
20
-264.06334795703413
30
0
10
16.793244176081075
20
-263.72334886877684
30
0
10
16.783329125904132
20
-263.54966135914208
30
0
0
SPLINE
5
18F
100
AcDbEntity
8
INSETS D 0.5
100
AcDbSpline
70
0
71
3
72
9
73
5
74
0
42
0.000000001
43
0.0000000001
44
0.0000000001
40
0
40
0
40
0
40
0
40
0.051663489746502589
40
0.10100730499039368
40
0.10100730499039368
40
0.10100730499039368
40
0.10100730499039368
10
17.785279411796182
20
-265.1839457478394
30
0
10
17.634055429080249
20
-265.09699871410373
30
0
10
17.338397373091468
20
-264.92700854120528
30
0
10
17.139222890841879
20
-264.650455329365
30
0
10
17.041922711866135
20
-264.51535430284565
30
0
0
SPLINE
5
190
100
AcDbEntity
8
INSETS D 0.5
100
AcDbSpline
70
0
71
3
72
9
73
5
74
0
42
0.000000001
43
0.0000000001
44
0.0000000001
40
0
40
0
40
0
40
0
40
0.054824035275911932
40
0.10852015510049003
40
0.10852015510049003
40
0.10852015510049003
40
0.10852015510049003
10
18.835263167991414
20
-265.4266510918589
30
0
10
18.65117230807904
20
-265.4170757702575
30
0
10
18.286777958598321
20
-265.3981221237392
30
0
10
17.951283261122484
20
-265.25484147238501
30
0
10
17.785279411796182
20
-265.1839457478394
30
0
0
SPLINE
5
191
100
AcDbEntity
8
INSETS D 0.5
100
AcDbSpline
70
0
71
3
72
9
73
5
74
0
42
0.000000001
43
0.0000000001
44
0.0000000001
40
0
40
0
40
0
40
0
40
0.073290623608136984
40
0.15237542747740879
40
0.15237542747740879
40
0.15237542747740879
40
0.15237542747740879
10
20.236634781001968
20
-264.90782827805305
30
0
10
20.037686904928194
20
-265.05892874847336
30
0
10
19.624062812649328
20
-265.3730753287432
30
0
10
19.104778431269978
20
-265.40834544732775
30
0
10
18.835263167991414
20
-265.4266510918589
30
0
0
SPLINE
5
192
100
AcDbEntity
8
INSETS D 0.5
100
AcDbSpline
70
0
71
3
72
9
73
5
74
0
42
0.000000001
43
0.0000000001
44
0.0000000001
40
0
40
0
40
0
40
0
40
0.069530293358856049
40
0.13975488577182377
40
0.13975488577182377
40
0.13975488577182377
40
0.13975488577182377
10
20.77795343392971
20
-263.65297425688652
30
0
10
20.75509608883273
20
-263.88985871749526
30
0
10
20.7091531552026
20
-264.36599306317714
30
0
10
20.394661701169241
20
-264.72661934540599
30
0
10
20.236634781001968
20
-264.90782827805305
30
0
0
SPLINE
5
193
100
AcDbEntity
8
INSETS D 0.5
100
AcDbSpline
70
0
71
3
72
9
73
5
74
0
42
0.000000001
43
0.0000000001
44
0.0000000001
40
0
40
0
40
0
40
0
40
0.0420581825430811
40
0.083584293052760161
40
0.083584293052760161
40
0.083584293052760161
40
0.083584293052760161
10
20.580875252021684
20
-262.84685130031875
30
0
10
20.638273684197443
20
-262.97612883911228
30
0
10
20.752344409218253
20
-263.23304844510278
30
0
10
20.769453395883843
20
-263.51359427592996
30
0
10
20.77795343392971
20
-263.65297425688652
30
0
0
SPLINE
5
194
100
AcDbEntity
8
INSETS D 0.5
100
AcDbSpline
70
0
71
3
72
9
73
5
74
0
42
0.000000001
43
0.0000000001
44
0.0000000001
40
0
40
0
40
0
40
0
40
0.046048884901650551
40
0.089393868065679824
40
0.089393868065679824
40
0.089393868065679824
40
0.089393868065679824
10
19.978733221122766
20
-262.19656791898643
30
0
10
20.104099909409996
20
-262.28804169368016
30
0
10
20.347471995759463
20
-262.4656180793819
30
0
10
20.504658981356485
20
-262.72236214443126
30
0
10
20.580875252021684
20
-262.84685130031875
30
0
0
SPLINE
5
195
100
AcDbEntity
8
INSETS D 0.5
100
AcDbSpline
70
0
71
3
72
9
73
5
74
0
42
0.000000001
43
0.0000000001
44
0.0000000001
40
0
40
0
40
0
40
0
40
0.060974876597394416
40
0.14087998989894168
40
0.14087998989894168
40
0.14087998989894168
40
0.14087998989894168
10
21.366343643027648
20
-262.4042227000898
30
0
10
21.170791996837437
20
-262.34565606318483
30
0
10
20.71897781569696
20
-262.21034021383798
30
0
10
20.246637746124136
20
-262.20155229865964
30
0
10
19.978733221122766
20
-262.19656791898643
30
0
0
SPLINE
5
196
100
AcDbEntity
8
INSETS D 0.5
100
AcDbSpline
70
0
71
3
72
9
73
5
74
0
42
0.000000001
43
0.0000000001
44
0.0000000001
40
0
40
0
40
0
40
0
40
0.044061607637886718
40
0.093066556072756657
40
0.093066556072756657
40
0.093066556072756657
40
0.093066556072756657
10
22.107560449284023
20
-262.95207911029547
30
0
10
22.009241016528804
20
-262.84076928888408
30
0
10
21.801571539809927
20
-262.60566162279599
30
0
10
21.516467488855469
20
-262.47370534584763
30
0
10
21.366343643027648
20
-262.4042227000898
30
0
0
SPLINE
5
197
100
AcDbEntity
8
INSETS D 0.5
100
AcDbSpline
70
0
71
3
72
9
73
5
74
0
42
0.000000001
43
0.0000000001
44
0.0000000001
40
0
40
0
40
0
40
0
40
0.033412055915429124
40
0.065719158817935136
40
0.065719158817935136
40
0.065719158817935136
40
0.065719158817935136
10
22.304492574280559
20
-263.56993459450763
30
0
10
22.296784025574894
20
-263.45696863279983
30
0
10
22.281621853635443
20
-263.2347725489285
30
0
10
22.164926910098117
20
-263.04524808207407
30
0
10
22.107560449284023
20
-262.95207911029547
30
0
0
SPLINE
5
198
100
AcDbEntity
8
INSETS D 0.5
100
AcDbSpline
70
0
71
3
72
9
73
5
74
0
42
0.000000001
43
0.0000000001
44
0.0000000001
40
0
40
0
40
0
40
0
40
0.040881249844321225
40
0.081957678733685813
40
0.081957678733685813
40
0.081957678733685813
40
0.081957678733685813
10
21.989920729763028
20
-264.30687736764992
30
0
10
22.081755503449401
20
-264.20124422356537
30
0
10
22.265863496894553
20
-263.98947361186731
30
0
10
22.291595788332614
20
-263.71000278328734
30
0
10
22.304492574280559
20
-263.56993459450763
30
0
0
SPLINE
5
199
100
AcDbEntity
8
INSETS D 0.5
100
AcDbSpline
70
0
71
3
72
9
73
5
74
0
42
0.000000001
43
0.0000000001
44
0.0000000001
40
0
40
0
40
0
40
0
40
0.039284702555566563
40
0.069436080963843044
40
0.069436080963843044
40
0.069436080963843044
40
0.069436080963843044
10
21.359850493374211
20
-264.58567435013106
30
0
10
21.488541104202099
20
-264.5544296196307
30
0
10
21.716002968272221
20
-264.49920426483391
30
0
10
21.906988620323418
20
-264.36510679825943
30
0
10
21.989920729763028
20
-264.30687736764992
30
0
0
LINE
5
19A
100
AcDbEntity
8
INSETS D 0.5
100
AcDbLine
10
21.359850493374211
20
-264.58567435013106
30
0
11
21.417717666731022
21
-265.31823543287288
31
0
0
SPLINE
5
19B
100
AcDbEntity
8
INSETS D 0.5
100
AcDbSpline
70
0
71
3
72
9
73
5
74
0
42
0.000000001
43
0.0000000001
44
0.0000000001
40
0
40
0
40
0
40
0
40
0.059521846074167911
40
0.12449675729127099
40
0.12449675729127099
40
0.12449675729127099
40
0.12449675729127099
10
22.51415888626795
20
-264.77509295549839
30
0
10
22.364585627415252
20
-264.91141386267145
30
0
10
22.051736027934723
20
-265.19654465100274
30
0
10
21.635139548606759
20
-265.276504403584
30
0
10
21.417717666731022
20
-265.31823543287288
30
0
0
SPLINE
5
19C
100
AcDbEntity
8
INSETS D 0.5
100
AcDbSpline
70
0
71
3
72
9
73
5
74
0
42
0.000000001
43
0.0000000001
44
0.0000000001
40
0
40
0
40
0
40
0
40
0.04700644951209676
40
0.094010434345438015
40
0.094010434345438015
40
0.094010434345438015
40
0.094010434345438015
10
20.127088925794681
20
-263.50613944816462
30
0
10
20.112044643202296
20
-263.34602298719074
30
0
10
20.08195686683095
20
-263.02579846059416
30
0
10
19.872860165067223
20
-262.78140684711246
30
0
10
19.768314555137536
20
-262.65921424398857
30
0
0
SPLINE
5
19D
100
AcDbEntity
8
INSETS D 0.5
100
AcDbSpline
70
0
71
3
72
9
73
5
74
0
42
0.000000001
43
0.0000000001
44
0.0000000001
40
0
40
0
40
0
40
0
40
0.046084811711212453
40
0.09299082106496645
40
0.09299082106496645
40
0.09299082106496645
40
0.09299082106496645
10
19.769619540894325
20
-264.34134189897986
30
0
10
19.873976282163994
20
-264.22286479114206
30
0
10
20.084549325516008
20
-263.98379940004787
30
0
10
20.11282582288807
20
-263.66629405712814
30
0
10
20.127088925794681
20
-263.50613944816462
30
0
0
SPLINE
5
19E
100
AcDbEntity
8
INSETS D 0.5
100
AcDbSpline
70
0
71
3
72
9
73
5
74
0
42
0.000000001
43
0.0000000001
44
0.0000000001
40
0
40
0
40
0
40
0
40
0.056224730260414503
40
0.10538690403169193
40
0.10538690403169193
40
0.10538690403169193
40
0.10538690403169193
10
18.789658374064402
20
-264.67361672520184
30
0
10
18.981338168085387
20
-264.66375671141066
30
0
10
19.340620284046466
20
-264.64527522964346
30
0
10
19.633154566060966
20
-264.43802331196139
30
0
10
19.769619540894325
20
-264.34134189897986
30
0
0
SPLINE
5
19F
100
AcDbEntity
8
INSETS D 0.5
100
AcDbSpline
70
0
71
3
72
9
73
5
74
0
42
0.000000001
43
0.0000000001
44
0.0000000001
40
0
40
0
40
0
40
0
40
0.05104405958680517
40
0.10956138119733558
40
0.10956138119733558
40
0.10956138119733558
40
0.10956138119733558
10
17.766205914031659
20
-264.33880338259155
30
0
10
17.909559033478359
20
-264.43645579164667
30
0
10
18.217253325285512
20
-264.64605771006632
30
0
10
18.590373100134272
20
-264.66402193582621
30
0
10
18.789658374064402
20
-264.67361672520184
30
0
0
SPLINE
5
1A0
100
AcDbEntity
8
INSETS D 0.5
100
AcDbSpline
70
0
71
3
72
9
73
5
74
0
42
0.000000001
43
0.0000000001
44
0.0000000001
40
0
40
0
40
0
40
0
40
0.044392903470135518
40
0.090807469239868821
40
0.090807469239868821
40
0.090807469239868821
40
0.090807469239868821
10
17.389049236330081
20
-263.53691288414097
30
0
10
17.406207010042962
20
-263.68815374180929
30
0
10
17.441303926145935
20
-263.99752299808597
30
0
10
17.656309681372093
20
-264.22336725127752
30
0
10
17.766205914031659
20
-264.33880338259155
30
0
0
SPLINE
5
1A1
100
AcDbEntity
8
INSETS D 0.5
100
AcDbSpline
70
0
71
3
72
9
73
5
74
0
42
0.000000001
43
0.0000000001
44
0.0000000001
40
0
40
0
40
0
40
0
40
0.032758655316610985
40
0.064296418284392337
40
0.064296418284392337
40
0.064296418284392337
40
0.064296418284392337
10
17.570704037108342
20
-262.92694920250909
30
0
10
17.517664236401558
20
-263.02399781871156
30
0
10
17.413561391550161
20
-263.21447811654321
30
0
10
17.397115862778563
20
-263.43080386186728
30
0
10
17.389049236330081
20
-263.53691288414097
30
0
0
SPLINE
5
1A2
100
AcDbEntity
8
INSETS D 0.5
100
AcDbSpline
70
0
71
3
72
9
73
5
74
0
42
0.000000001
43
0.0000000001
44
0.0000000001
40
0
40
0
40
0
40
0
40
0.036263582561712762
40
0.070429393163218362
40
0.070429393163218362
40
0.070429393163218362
40
0.070429393163218362
10
18.100367061874394
20
-262.47428716932791
30
0
10
17.992328719672628
20
-262.53210960597841
30
0
10
17.78250182607529
20
-262.6444095729654
30
0
10
17.639887354155448
20
-262.83465820710063
30
0
10
17.570704037108342
20
-262.92694920250909
30
0
0
SPLINE
5
1A3
100
AcDbEntity
8
INSETS D 0.5
100
AcDbSpline
70
0
71
3
72
9
73
5
74
0
42
0.000000001
43
0.0000000001
44
0.0000000001
40
0
40
0
40
0
40
0
40
0.037462848994666904
40
0.07507770239027671
40
0.07507770239027671
40
0.07507770239027671
40
0.07507770239027671
10
18.828754426680234
20
-262.31205763015805
30
0
10
18.703131241527586
20
-262.31894546562376
30
0
10
18.451375158866909
20
-262.33274908374341
30
0
10
18.217527578973076
20
-262.42704416998311
30
0
10
18.100367061874394
20
-262.47428716932791
30
0
0
SPLINE
5
1A4
100
AcDbEntity
8
INSETS D 0.5
100
AcDbSpline
70
0
71
3
72
9
73
5
74
0
42
0.000000001
43
0.0000000001
44
0.0000000001
40
0
40
0
40
0
40
0
40
0.04892586913091608
40
0.10218172507846614
40
0.10218172507846614
40
0.10218172507846614
40
0.10218172507846614
10
19.768314555137536
20
-262.65921424398857
30
0
10
19.63576649254513
20
-262.55790041429248
30
0
10
19.358939735410559
20
-262.34630638282124
30
0
10
19.010405943905795
20
-262.32379190076483
30
0
10
18.828754426680234
20
-262.31205763015805
30
0
0
SPLINE
5
1A5
100
AcDbEntity
8
INSETS D 0.5
100
AcDbSpline
70
0
71
3
72
9
73
5
74
0
42
0.000000001
43
0.0000000001
44
0.0000000001
40
0
40
0
40
0
40
0
40
0.07521313309458541
40
0.14375296901813617
40
0.14375296901813617
40
0.14375296901813617
40
0.14375296901813617
10
224.83593697608214
20
-260.44278284265442
30
0
10
224.85103125010895
20
-260.18690592665592
30
0
10
224.87988055630387
20
-259.69785481464146
30
0
10
225.15981403551444
20
-259.29717521151315
30
0
10
225.29328324220734
20
-259.10613557981787
30
0
0
SPLINE
5
1A6
100
AcDbEntity
8
INSETS D 0.5
100
AcDbSpline
70
0
71
3
72
9
73
5
74
0
42
0.000000001
43
0.0000000001
44
0.0000000001
40
0
40
0
40
0
40
0
40
0.087424239155566325
40
0.17858678749397627
40
0.17858678749397627
40
0.17858678749397627
40
0.17858678749397627
10
225.56568047092
20
-262.0179288978494
30
0
10
225.35305690263789
20
-261.80481408500998
30
0
10
224.91871786381097
20
-261.36947155117724
30
0
10
224.86391301040968
20
-260.75595990359022
30
0
10
224.83593697608214
20
-260.44278284265442
30
0
0
SPLINE
5
1A7
100
AcDbEntity
8
INSETS D 0.5
100
AcDbSpline
70
0
71
3
72
9
73
5
74
0
42
0.000000001
43
0.0000000001
44
0.0000000001
40
0
40
0
40
0
40
0
40
0.076843053607009215
40
0.15084324834377102
40
0.15084324834377102
40
0.15084324834377102
40
0.15084324834377102
10
226.973963228277
20
-262.49159082573641
30
0
10
226.71361303996127
20
-262.47354650662305
30
0
10
226.20254448829621
20
-262.43812542974706
30
0
10
225.77528436534976
20
-262.15622345855411
30
0
10
225.56568047092
20
-262.0179288978494
30
0
0
SPLINE
5
1A8
100
AcDbEntity
8
INSETS D 0.5
100
AcDbSpline
70
0
71
3
72
9
73
5
74
0
42
0.000000001
43
0.0000000001
44
0.0000000001
40
0
40
0
40
0
40
0
40
0.074241761306141296
40
0.15316855828904713
40
0.15316855828904713
40
0.15316855828904713
40
0.15316855828904713
10
228.37326800737463
20
-261.95025196040859
30
0
10
228.1748590975925
20
-262.10793764262735
30
0
10
227.76552065884331
20
-262.43325978185652
30
0
10
227.24314178443302
20
-262.47175465774103
30
0
10
226.973963228277
20
-262.49159082573641
30
0
0
SPLINE
5
1A9
100
AcDbEntity
8
INSETS D 0.5
100
AcDbSpline
70
0
71
3
72
9
73
5
74
0
42
0.000000001
43
0.0000000001
44
0.0000000001
40
0
40
0
40
0
40
0
40
0.07370910883888146
40
0.14641666135394216
40
0.14641666135394216
40
0.14641666135394216
40
0.14641666135394216
10
228.91657064690781
20
-260.62376989370506
30
0
10
228.89471302397396
20
-260.87486687184037
30
0
10
228.85129477858294
20
-261.37364893275247
30
0
10
228.53188195495056
20
-261.75892944897356
30
0
10
228.37326800737463
20
-261.95025196040859
30
0
0
SPLINE
5
1AA
100
AcDbEntity
8
INSETS D 0.5
100
AcDbSpline
70
0
71
3
72
9
73
5
74
0
42
0.000000001
43
0.0000000001
44
0.0000000001
40
0
40
0
40
0
40
0
40
0.062142163381825939
40
0.1209158894311258
40
0.1209158894311258
40
0.1209158894311258
40
0.1209158894311258
10
228.53915022820934
20
-259.49036729976967
30
0
10
228.64908790745645
20
-259.66967056736803
30
0
10
228.86300405624718
20
-260.01855790729462
30
0
10
228.89904983405251
20
-260.42581430569885
30
0
10
228.91657064690781
20
-260.62376989370506
30
0
0
LINE
5
1AB
100
AcDbEntity
8
INSETS D 0.5
100
AcDbLine
10
228.53915022820934
20
-259.49036729976967
30
0
11
230.15195348516872
21
-259.81243668780894
31
0
0
LINE
5
1AC
100
AcDbEntity
8
INSETS D 0.5
100
AcDbLine
10
230.15195348516872
20
-259.81243668780894
30
0
11
230.15382353307137
21
-262.20670625837226
31
0
0
LINE
5
1AD
100
AcDbEntity
8
INSETS D 0.5
100
AcDbLine
10
230.15382353307137
20
-262.20670625837226
30
0
11
230.85777980314478
21
-262.20615643225301
31
0
0
LINE
5
1AE
100
AcDbEntity
8
INSETS D 0.5
100
AcDbLine
10
230.85777980314478
20
-262.20615643225301
30
0
11
230.85544943578702
21
-259.2225282348461
31
0
0
LINE
5
1AF
100
AcDbEntity
8
INSETS D 0.5
100
AcDbLine
10
230.85544943578702
20
-259.2225282348461
30
0
11
227.7731409737587
21
-258.64376219856211
31
0
0
LINE
5
1B0
100
AcDbEntity
8
INSETS D 0.5
100
AcDbLine
10
227.7731409737587
20
-258.64376219856211
30
0
11
227.68364037459941
21
-259.33551024208867
31
0
0
SPLINE
5
1B1
100
AcDbEntity
8
INSETS D 0.5
100
AcDbSpline
70
0
71
3
72
9
73
5
74
0
42
0.000000001
43
0.0000000001
44
0.0000000001
40
0
40
0
40
0
40
0
40
0.031610239262055431
40
0.062016811867883513
40
0.062016811867883513
40
0.062016811867883513
40
0.062016811867883513
10
228.1035006943435
20
-259.78538705769142
30
0
10
228.04639883044103
20
-259.69560409311299
30
0
10
227.93436944902487
20
-259.51945695366771
30
0
10
227.766128284443
20
-259.39602727544639
30
0
10
227.68364037459941
20
-259.33551024208867
30
0
0
SPLINE
5
1B2
100
AcDbEntity
8
INSETS D 0.5
100
AcDbSpline
70
0
71
3
72
9
73
5
74
0
42
0.000000001
43
0.0000000001
44
0.0000000001
40
0
40
0
40
0
40
0
40
0.034107958483773376
40
0.066826344366141988
40
0.066826344366141988
40
0.066826344366141988
40
0.066826344366141988
10
228.26566700710111
20
-260.42782548620977
30
0
10
228.25941947597173
20
-260.31307673105505
30
0
10
228.24717894076377
20
-260.08825413338468
30
0
10
228.15072489493696
20
-259.88493348098132
30
0
10
228.1035006943435
20
-259.78538705769142
30
0
0
SPLINE
5
1B3
100
AcDbEntity
8
INSETS D 0.5
100
AcDbSpline
70
0
71
3
72
9
73
5
74
0
42
0.000000001
43
0.0000000001
44
0.0000000001
40
0
40
0
40
0
40
0
40
0.049165337822963798
40
0.10178401187068994
40
0.10178401187068994
40
0.10178401187068994
40
0.10178401187068994
10
227.90213466089972
20
-261.35512167316676
30
0
10
228.00824070905855
20
-261.22485948338738
30
0
10
228.22790561412305
20
-260.95518558592431
30
0
10
228.25279835512859
20
-260.60754379245293
30
0
10
228.26566700710111
20
-260.42782548620977
30
0
0
SPLINE
5
1B4
100
AcDbEntity
8
INSETS D 0.5
100
AcDbSpline
70
0
71
3
72
9
73
5
74
0
42
0.000000001
43
0.0000000001
44
0.0000000001
40
0
40
0
40
0
40
0
40
0.057068429223706203
40
0.10767062850427614
40
0.10767062850427614
40
0.10767062850427614
40
0.10767062850427614
10
226.90786804303309
20
-261.70992371853345
30
0
10
227.10267370728715
20
-261.69890396293067
30
0
10
227.47021226742879
20
-261.67811306281567
30
0
10
227.7640425870166
20
-261.45838686968648
30
0
10
227.90213466089972
20
-261.35512167316676
30
0
0
SPLINE
5
1B5
100
AcDbEntity
8
INSETS D 0.5
100
AcDbSpline
70
0
71
3
72
9
73
5
74
0
42
0.000000001
43
0.0000000001
44
0.0000000001
40
0
40
0
40
0
40
0
40
0.05422305083803948
40
0.11468282840173734
40
0.11468282840173734
40
0.11468282840173734
40
0.11468282840173734
10
225.84346132873003
20
-261.34240541051355
30
0
10
225.99360714935835
20
-261.44963764659724
30
0
10
226.31116853914051
20
-261.67643595358743
30
0
10
226.70188550052808
20
-261.69836363691547
30
0
10
226.90786804303309
20
-261.70992371853345
30
0
0
SPLINE
5
1B6
100
AcDbEntity
8
INSETS D 0.5
100
AcDbSpline
70
0
71
3
72
9
73
5
74
0
42
0.000000001
43
0.0000000001
44
0.0000000001
40
0
40
0
40
0
40
0
40
0.050126383507088104
40
0.10092004538556654
40
0.10092004538556654
40
0.10092004538556654
40
0.10092004538556654
10
225.44166660966619
20
-260.44230973659967
30
0
10
225.45894990474807
20
-260.61322825098529
30
0
10
225.49374656874102
20
-260.95734053322502
30
0
10
225.72637702835181
20
-261.21348591120807
30
0
10
225.84346132873003
20
-261.34240541051355
30
0
0
SPLINE
5
1B7
100
AcDbEntity
8
INSETS D 0.5
100
AcDbSpline
70
0
71
3
72
9
73
5
74
0
42
0.000000001
43
0.0000000001
44
0.0000000001
40
0
40
0
40
0
40
0
40
0.040591016060585995
40
0.08218236123157116
40
0.08218236123157116
40
0.08218236123157116
40
0.08218236123157116
10
225.72552440829389
20
-259.68697145520832
30
0
10
225.64265039477931
20
-259.79765020637683
30
0
10
225.47486001216853
20
-260.02173528706589
30
0
10
225.45282049930074
20
-260.30098523716379
30
0
10
225.44166660966619
20
-260.44230973659967
30
0
0
SPLINE
5
1B8
100
AcDbEntity
8
INSETS D 0.5
100
AcDbSpline
70
0
71
3
72
9
73
5
74
0
42
0.000000001
43
0.0000000001
44
0.0000000001
40
0
40
0
40
0
40
0
40
0.051489326748479426
40
0.095237474344236739
40
0.095237474344236739
40
0.095237474344236739
40
0.095237474344236739
10
226.57446183778325
20
-259.28726351749532
30
0
10
226.40260507001415
20
-259.32065566827731
30
0
10
226.08472939470687
20
-259.38241961634617
30
0
10
225.83859044018538
20
-259.59110845433725
30
0
10
225.72552440829389
20
-259.68697145520832
30
0
0
LINE
5
1B9
100
AcDbEntity
8
INSETS D 0.5
100
AcDbLine
10
226.57446183778325
20
-259.28726351749532
30
0
11
226.50837364142001
21
-258.51378131715092
31
0
0
SPLINE
5
1BA
100
AcDbEntity
8
INSETS D 0.5
100
AcDbSpline
70
0
71
3
72
9
73
5
74
0
42
0.000000001
43
0.0000000001
44
0.0000000001
40
0
40
0
40
0
40
0
40
0.067052054000299163
40
0.13775380434592766
40
0.13775380434592766
40
0.13775380434592766
40
0.13775380434592766
10
225.29328324220734
20
-259.10613557981787
30
0
10
225.46159596894177
20
-258.95164519203036
30
0
10
225.80738281728196
20
-258.6342553824278
30
0
10
226.27061898759882
20
-258.55464243643809
30
0
10
226.50837364142001
20
-258.51378131715092
30
0
0
ENDSEC
0
SECTION
2
OBJECTS
0
DICTIONARY
5
C
100
AcDbDictionary
3
ACAD_GROUP
350
D
3
ACAD_MLINESTYLE
350
17
0
DICTIONARY
5
D
100
AcDbDictionary
0
DICTIONARY
5
1A
330
C
100
AcDbDictionary
0
DICTIONARY
5
17
100
AcDbDictionary
0
ENDSEC
0
EOF
