0
SECTION
2
HEADER
9
$INSUNITS
70
4
9
$ACADVER
1
AC1014
9
$HANDSEED
5
FFFF
0
ENDSEC
0
SECTION
2
TABLES
0
TABLE
2
VPORT
5
8
100
AcDbSymbolTable
0
ENDTAB
0
TABLE
2
LTYPE
5
5
100
AcDbSymbolTable
70
3
0
LTYPE
5
14
100
AcDbSymbolTableRecord
100
AcDbLinetypeTableRecord
2
BYBLOCK
70
0
0
LTYPE
5
15
100
AcDbSymbolTableRecord
100
AcDbLinetypeTableRecord
2
BYLAYER
70
0
0
LTYPE
5
16
100
AcDbSymbolTableRecord
100
AcDbLinetypeTableRecord
2
DASHED
70
0
3
Dashed __ __ __ __ __ __ __ __ __ __ __ __ __ _
72
65
73
2
40
0.75
49
0.5
74
0
49
-0.25
74
0
0
ENDTAB
0
TABLE
2
LAYER
5
2
100
AcDbSymbolTable
70
3
0
LAYER
5
50
100
AcDbSymbolTableRecord
100
AcDbLayerTableRecord
2
0
70
0
6
CONTINUOUS
0
LAYER
5
51
100
AcDbSymbolTableRecord
100
AcDbLayerTableRecord
2
PERIMETER D 6.0
70
0
62
5
6
CONTINUOUS
0
LAYER
5
52
100
AcDbSymbolTableRecord
100
AcDbLayerTableRecord
2
INSETS D 0.5
70
0
62
3
6
CONTINUOUS
0
ENDTAB
0
TABLE
2
STYLE
5
3
100
AcDbSymbolTable
70
1
0
STYLE
5
11
100
AcDbSymbolTableRecord
100
AcDbTextStyleTableRecord
2
STANDARD
70
0
0
ENDTAB
0
TABLE
2
VIEW
5
6
100
AcDbSymbolTable
0
ENDTAB
0
TABLE
2
UCS
5
7
100
AcDbSymbolTable
0
ENDTAB
0
TABLE
2
APPID
5
9
100
AcDbSymbolTable
70
1
0
APPID
5
12
100
AcDbSymbolTableRecord
100
AcDbRegAppTableRecord
2
ACAD
70
0
0
ENDTAB
0
TABLE
2
DIMSTYLE
5
A
100
AcDbSymbolTable
0
ENDTAB
0
TABLE
2
BLOCK_RECORD
5
1
100
AcDbSymbolTable
70
2
0
BLOCK_RECORD
5
1F
100
AcDbSymbolTableRecord
100
AcDbBlockTableRecord
2
*MODEL_SPACE
0
BLOCK_RECORD
5
1B
100
AcDbSymbolTableRecord
100
AcDbBlockTableRecord
2
*PAPER_SPACE
0
ENDTAB
0
ENDSEC
0
SECTION
2
BLOCKS
0
BLOCK
5
20
100
AcDbEntity
100
AcDbBlockBegin
2
*MODEL_SPACE
0
ENDBLK
5
21
100
AcDbEntity
100
AcDbBlockEnd
0
BLOCK
5
1C
100
AcDbEntity
100
AcDbBlockBegin
2
*PAPER_SPACE
0
ENDBLK
5
1D
100
AcDbEntity
100
AcDbBlockEnd
0
ENDSEC
0
SECTION
2
ENTITIES
0
LWPOLYLINE
5
100
100
AcDbEntity
8
PERIMETER D 6.0
100
AcDbPolyline
90
24
70
1
43
0.0
10
10.5
20
-270
10
8
20
-267.5
10
8.0000000000000018
20
-264
10
1.0000000000000009
20
-264
10
1.0000000000000002
20
-261.5
10
3.4999999999999964
20
-259
10
148.5
20
-259
10
151
20
-261.5
10
151
20
-276
10
144
20
-276
10
144
20
-279.49999999999994
10
141.5
20
-282
10
140.44812303003653
20
-282
10
137.94812303003653
20
-279.5
10
137.94812303003653
20
-276
10
130.94812303003653
20
-276
10
130.94812303003653
20
-293.5
10
128.44812303003653
20
-296
10
23.448123030036534
20
-296
10
20.948123030036541
20
-293.5
10
20.948123030036538
20
-264
10
13.948123030036541
20
-264
10
13.948123030036541
20
-267.50000000000006
10
11.448123030036541
20
-270
0
LINE
5
101
100
AcDbEntity
8
INSETS D 0.5
100
AcDbLine
10
107.48478328606355
20
-276.98032928470968
30
0
11
107.49005303748888
21
-273.22180593853352
31
0
0
SPLINE
5
102
100
AcDbEntity
8
INSETS D 0.5
100
AcDbSpline
70
0
71
3
72
9
73
5
74
0
42
0.000000001
43
0.0000000001
44
0.0000000001
40
0
40
0
40
0
40
0
40
0.065814063736380421
40
0.15326636695039331
40
0.15326636695039331
40
0.15326636695039331
40
0.15326636695039331
10
107.68999194061372
20
-271.70776023461349
30
0
10
107.6322871800764
20
-271.92027630295178
30
0
10
107.4979055828737
20
-272.41517912255682
30
0
10
107.49290584146758
20
-272.92876106235843
30
0
10
107.49005303748888
20
-273.22180593853352
30
0
0
SPLINE
5
103
100
AcDbEntity
8
INSETS D 0.5
100
AcDbSpline
70
0
71
3
72
9
73
5
74
0
42
0.000000001
43
0.0000000001
44
0.0000000001
40
0
40
0
40
0
40
0
40
0.050678481940942405
40
0.10362395084074577
40
0.10362395084074577
40
0.10362395084074577
40
0.10362395084074577
10
108.32889907075295
20
-270.91056574499919
30
0
10
108.19150566888176
20
-271.01368264949633
30
0
10
107.91057288289312
20
-271.22452915936049
30
0
10
107.76458352713615
20
-271.54435095642475
30
0
10
107.68999194061372
20
-271.70776023461349
30
0
0
SPLINE
5
104
100
AcDbEntity
8
INSETS D 0.5
100
AcDbSpline
70
0
71
3
72
9
73
5
74
0
42
0.000000001
43
0.0000000001
44
0.0000000001
40
0
40
0
40
0
40
0
40
0.050344764796776173
40
0.10065334826773489
40
0.10065334826773489
40
0.10065334826773489
40
0.10065334826773489
10
109.28767092408916
20
-270.63905816556598
30
0
10
109.11814488236018
20
-270.65017317170538
30
0
10
108.77921463236346
20
-270.67239519595091
30
0
10
108.47896828196821
20
-270.83119458957532
30
0
10
108.32889907075295
20
-270.91056574499919
30
0
0
SPLINE
5
105
100
AcDbEntity
8
INSETS D 0.5
100
AcDbSpline
70
0
71
3
72
9
73
5
74
0
42
0.000000001
43
0.0000000001
44
0.0000000001
40
0
40
0
40
0
40
0
40
0.050075431392946457
40
0.10962396682158759
40
0.10962396682158759
40
0.10962396682158759
40
0.10962396682158759
10
110.26936636062999
20
-271.04971206514176
30
0
10
110.1450885590726
20
-270.9303998606963
30
0
10
109.87302249362668
20
-270.66920436466739
30
0
10
109.49371403519272
20
-270.64966959461827
30
0
10
109.28767092408916
20
-270.63905816556598
30
0
0
SPLINE
5
106
100
AcDbEntity
8
INSETS D 0.5
100
AcDbSpline
70
0
71
3
72
9
73
5
74
0
42
0.000000001
43
0.0000000001
44
0.0000000001
40
0
40
0
40
0
40
0
40
0.072015318887558466
40
0.1279083474685894
40
0.1279083474685894
40
0.1279083474685894
40
0.1279083474685894
10
110.56777539430956
20
-272.27796231383434
30
0
10
110.56328515592983
20
-272.03385578925565
30
0
10
110.55530992260776
20
-271.60029161641739
30
0
10
110.35632028897203
20
-271.21714040140881
30
0
10
110.26936636062999
20
-271.04971206514176
30
0
0
LINE
5
107
100
AcDbEntity
8
INSETS D 0.5
100
AcDbLine
10
110.56777539430956
20
-272.27796231383434
30
0
11
110.56117625069801
21
-276.98464263458595
31
0
0
LINE
5
108
100
AcDbEntity
8
INSETS D 0.5
100
AcDbLine
10
110.56117625069801
20
-276.98464263458595
30
0
11
111.78900211599428
21
-276.98636414500578
31
0
0
LINE
5
109
100
AcDbEntity
8
INSETS D 0.5
100
AcDbLine
10
111.78900211599428
20
-276.98636414500578
30
0
11
111.79490308980114
21
-272.77763663051707
31
0
0
SPLINE
5
10A
100
AcDbEntity
8
INSETS D 0.5
100
AcDbSpline
70
0
71
3
72
9
73
5
74
0
42
0.000000001
43
0.0000000001
44
0.0000000001
40
0
40
0
40
0
40
0
40
0.076157872972239304
40
0.17358492817531346
40
0.17358492817531346
40
0.17358492817531346
40
0.17358492817531346
10
112.30196341697793
20
-271.15147057017521
30
0
10
112.15499734211633
20
-271.3646360229838
30
0
10
111.8200208708281
20
-271.85049924855895
30
0
10
111.80393276962631
20
-272.44433673814012
30
0
10
111.79490308980114
20
-272.77763663051707
30
0
0
SPLINE
5
10B
100
AcDbEntity
8
INSETS D 0.5
100
AcDbSpline
70
0
71
3
72
9
73
5
74
0
42
0.000000001
43
0.0000000001
44
0.0000000001
40
0
40
0
40
0
40
0
40
0.071063519631450842
40
0.1395966978219603
40
0.1395966978219603
40
0.1395966978219603
40
0.1395966978219603
10
113.57143346003973
20
-270.64506434449595
30
0
10
113.32913139100837
20
-270.66432144052567
30
0
10
112.85315484372178
20
-270.70214994985565
30
0
10
112.48346018711896
20
-271.00351790366238
30
0
10
112.30196341697793
20
-271.15147057017521
30
0
0
SPLINE
5
10C
100
AcDbEntity
8
INSETS D 0.5
100
AcDbSpline
70
0
71
3
72
9
73
5
74
0
42
0.000000001
43
0.0000000001
44
0.0000000001
40
0
40
0
40
0
40
0
40
0.037193450169375662
40
0.077065464800724626
40
0.077065464800724626
40
0.077065464800724626
40
0.077065464800724626
10
114.30785925344227
20
-270.84391415418133
30
0
10
114.19650494733695
20
-270.786080419195
30
0
10
113.96577692080302
20
-270.66624793128148
30
0
10
113.70589221794773
20
-270.65228728350883
30
0
10
113.57143346003973
20
-270.64506434449595
30
0
0
SPLINE
5
10D
100
AcDbEntity
8
INSETS D 0.5
100
AcDbSpline
70
0
71
3
72
9
73
5
74
0
42
0.000000001
43
0.0000000001
44
0.0000000001
40
0
40
0
40
0
40
0
40
0.033726157914424723
40
0.068787267580513789
40
0.068787267580513789
40
0.068787267580513789
40
0.068787267580513789
10
114.74026698479476
20
-271.36634887361424
30
0
10
114.69154408519469
20
-271.26292317764188
30
0
10
114.59216973189322
20
-271.05197798069401
30
0
10
114.40384766586124
20
-270.91416030373438
30
0
10
114.30785925344227
20
-270.84391415418133
30
0
0
SPLINE
5
10E
100
AcDbEntity
8
INSETS D 0.5
100
AcDbSpline
70
0
71
3
72
9
73
5
74
0
42
0.000000001
43
0.0000000001
44
0.0000000001
40
0
40
0
40
0
40
0
40
0.063422987463987654
40
0.10706941126847397
40
0.10706941126847397
40
0.10706941126847397
40
0.10706941126847397
10
114.85816061934622
20
-272.42722516584797
30
0
10
114.85840553796871
20
-272.21478751760509
30
0
10
114.85881900465907
20
-271.85615455441427
30
0
10
114.77459895594677
20
-271.50819373228944
30
0
10
114.74026698479476
20
-271.36634887361424
30
0
0
LINE
5
10F
100
AcDbEntity
8
INSETS D 0.5
100
AcDbLine
10
114.85816061934622
20
-272.42722516584797
30
0
11
114.85176231967554
21
-276.9906583806569
31
0
0
LINE
5
110
100
AcDbEntity
8
INSETS D 0.5
100
AcDbLine
10
114.85176231967554
20
-276.9906583806569
30
0
11
116.07276942031174
21
-276.99237033062138
31
0
0
LINE
5
111
100
AcDbEntity
8
INSETS D 0.5
100
AcDbLine
10
116.07276942031174
20
-276.99237033062138
30
0
11
116.07974155873902
21
-272.01966043660667
31
0
0
SPLINE
5
112
100
AcDbEntity
8
INSETS D 0.5
100
AcDbSpline
70
0
71
3
72
9
73
5
74
0
42
0.000000001
43
0.0000000001
44
0.0000000001
40
0
40
0
40
0
40
0
40
0.087389170750687722
40
0.19638947292950376
40
0.19638947292950376
40
0.19638947292950376
40
0.19638947292950376
10
115.50250470984572
20
-270.18051330637809
30
0
10
115.67074488332621
20
-270.42540296411869
30
0
10
116.04883061994065
20
-270.97574290208172
30
0
10
116.06870876738751
20
-271.64706339509593
30
0
10
116.07974155873902
20
-272.01966043660667
30
0
0
SPLINE
5
113
100
AcDbEntity
8
INSETS D 0.5
100
AcDbSpline
70
0
71
3
72
9
73
5
74
0
42
0.000000001
43
0.0000000001
44
0.0000000001
40
0
40
0
40
0
40
0
40
0.096488141245889655
40
0.17993929749128487
40
0.17993929749128487
40
0.17993929749128487
40
0.17993929749128487
10
113.8457809306118
20
-269.58132802069724
30
0
10
114.17593388172726
20
-269.59860840172809
30
0
10
114.79163120288302
20
-269.63083432693429
30
0
10
115.27727552914214
20
-270.00635609700464
30
0
10
115.50250470984572
20
-270.18051330637809
30
0
0
SPLINE
5
114
100
AcDbEntity
8
INSETS D 0.5
100
AcDbSpline
70
0
71
3
72
9
73
5
74
0
42
0.000000001
43
0.0000000001
44
0.0000000001
40
0
40
0
40
0
40
0
40
0.13725055030732103
40
0.26604759819457946
40
0.26604759819457946
40
0.26604759819457946
40
0.26604759819457946
10
111.60661752721825
20
-270.84694795870712
30
0
10
111.90749821428193
20
-270.47742500630858
30
0
10
112.49072781851436
20
-269.76113866907144
30
0
10
113.40376698335312
20
-269.6399816732644
30
0
10
113.8457809306118
20
-269.58132802069724
30
0
0
SPLINE
5
115
100
AcDbEntity
8
INSETS D 0.5
100
AcDbSpline
70
0
71
3
72
9
73
5
74
0
42
0.000000001
43
0.0000000001
44
0.0000000001
40
0
40
0
40
0
40
0
40
0.059449715472313654
40
0.12006906031116521
40
0.12006906031116521
40
0.12006906031116521
40
0.12006906031116521
10
110.88146709533405
20
-269.91141472560975
30
0
10
111.0406493652247
20
-270.03509490386438
30
0
10
111.36214569892653
20
-270.28488857678906
30
0
10
111.5245994140455
20
-270.65838206005901
30
0
10
111.60661752721825
20
-270.84694795870712
30
0
0
SPLINE
5
116
100
AcDbEntity
8
INSETS D 0.5
100
AcDbSpline
70
0
71
3
72
9
73
5
74
0
42
0.000000001
43
0.0000000001
44
0.0000000001
40
0
40
0
40
0
40
0
40
0.073719208780036558
40
0.13759227946396133
40
0.13759227946396133
40
0.13759227946396133
40
0.13759227946396133
10
109.56201362629432
20
-269.57532183508164
30
0
10
109.81100455556161
20
-269.58515058258286
30
0
10
110.27573050814142
20
-269.60349532332754
30
0
10
110.68942287621056
20
-269.81379120011275
30
0
10
110.88146709533405
20
-269.91141472560975
30
0
0
SPLINE
5
117
100
AcDbEntity
8
INSETS D 0.5
100
AcDbSpline
70
0
71
3
72
9
73
5
74
0
42
0.000000001
43
0.0000000001
44
0.0000000001
40
0
40
0
40
0
40
0
40
0.065233979406797496
40
0.1340952801624043
40
0.1340952801624043
40
0.1340952801624043
40
0.1340952801624043
10
108.27234074845131
20
-269.89752477765961
30
0
10
108.47082929472357
20
-269.80331905412123
30
0
10
108.878843300054
20
-269.60966931811481
30
0
10
109.33022021959744
20
-269.58697562008649
30
0
10
109.56201362629432
20
-269.57532183508164
30
0
0
SPLINE
5
118
100
AcDbEntity
8
INSETS D 0.5
100
AcDbSpline
70
0
71
3
72
9
73
5
74
0
42
0.000000001
43
0.0000000001
44
0.0000000001
40
0
40
0
40
0
40
0
40
0.062315673444819461
40
0.12567044352663501
40
0.12567044352663501
40
0.12567044352663501
40
0.12567044352663501
10
107.36391098374362
20
-270.75232304219492
30
0
10
107.48798358243934
20
-270.58337405444911
30
0
10
107.73819765613297
20
-270.24265890126708
30
0
10
108.09331429923532
20
-270.01320190152649
30
0
10
108.27234074845131
20
-269.89752477765961
30
0
0
LINE
5
119
100
AcDbEntity
8
INSETS D 0.5
100
AcDbLine
10
107.36391098374362
20
-270.75232304219492
30
0
11
107.36533601641904
21
-269.73595279104694
31
0
0
LINE
5
11A
100
AcDbEntity
8
INSETS D 0.5
100
AcDbLine
10
107.36533601641904
20
-269.73595279104694
30
0
11
106.26710959496572
21
-269.73441298945022
31
0
0
LINE
5
11B
100
AcDbEntity
8
INSETS D 0.5
100
AcDbLine
10
106.26710959496572
20
-269.73441298945022
30
0
11
106.2569526524004
21
-276.97860776760416
31
0
0
LINE
5
11C
100
AcDbEntity
8
INSETS D 0.5
100
AcDbLine
10
106.2569526524004
20
-276.97860776760416
30
0
11
107.48478328606355
21
-276.98032928470968
31
0
0
LWPOLYLINE
5
11D
100
AcDbEntity
8
INSETS D 0.5
100
AcDbPolyline
90
4
70
1
43
0.0
10
50.042818376644277
20
-276.89979103908126
10
50.052975319209594
20
-269.65559626092733
10
48.825147069729894
20
-269.65387474716465
10
48.814990127164577
20
-276.89806952531859
0
LWPOLYLINE
5
11E
100
AcDbEntity
8
INSETS D 0.5
100
AcDbPolyline
90
4
70
1
43
0.0
10
50.054859422556
20
-268.31180490483302
10
50.0568391655559
20
-266.89980086821214
10
48.829010916076207
20
-266.89807935444952
10
48.827031173076314
20
-268.31008339107041
0
SPLINE
5
11F
100
AcDbEntity
8
INSETS D 0.5
100
AcDbSpline
70
0
71
3
72
9
73
5
74
0
42
0.000000001
43
0.0000000001
44
0.0000000001
40
0
40
0
40
0
40
0
40
0.1253549438897133
40
0.23958822995044271
40
0.23958822995044271
40
0.23958822995044271
40
0.23958822995044271
10
85.840635978689448
20
-277.12051508542436
30
0
10
85.414231417725091
20
-277.09442681796463
30
0
10
84.599253477213068
20
-277.04456486893264
30
0
10
83.932474101007386
20
-276.57655291697148
30
0
10
83.614560323534874
20
-276.35340947123848
30
0
0
SPLINE
5
120
100
AcDbEntity
8
INSETS D 0.5
100
AcDbSpline
70
0
71
3
72
9
73
5
74
0
42
0.000000001
43
0.0000000001
44
0.0000000001
40
0
40
0
40
0
40
0
40
0.1457073878287482
40
0.29764475065813789
40
0.29764475065813789
40
0.29764475065813789
40
0.29764475065813789
10
88.468530739124148
20
-275.91001007404884
30
0
10
88.112564894077281
20
-276.2636060280048
30
0
10
87.3854132597599
20
-276.98591655128882
30
0
10
86.36269719777107
20
-277.07502718520828
30
0
10
85.840635978689448
20
-277.12051508542436
30
0
0
SPLINE
5
121
100
AcDbEntity
8
INSETS D 0.5
100
AcDbSpline
70
0
71
3
72
9
73
5
74
0
42
0.000000001
43
0.0000000001
44
0.0000000001
40
0
40
0
40
0
40
0
40
0.12807174495344587
40
0.25140551075629392
40
0.25140551075629392
40
0.25140551075629392
40
0.25140551075629392
10
89.263088318495392
20
-273.56460018514258
30
0
10
89.232068062078042
20
-273.99845057662264
30
0
10
89.171175135139038
20
-274.85010118309719
30
0
10
88.699784266046919
20
-275.56117406163702
30
0
10
88.468530739124148
20
-275.91001007404884
30
0
0
SPLINE
5
122
100
AcDbEntity
8
INSETS D 0.5
100
AcDbSpline
70
0
71
3
72
9
73
5
74
0
42
0.000000001
43
0.0000000001
44
0.0000000001
40
0
40
0
40
0
40
0
40
0.12373646577666848
40
0.25528120406715682
40
0.25528120406715682
40
0.25528120406715682
40
0.25528120406715682
10
88.365948478515833
20
-271.23046072516843
30
0
10
88.628037396253717
20
-271.56171479992406
30
0
10
89.168754104726304
20
-272.24512642417727
30
0
10
89.231008853021976
20
-273.1158975218479
30
0
10
89.263088318495392
20
-273.56460018514258
30
0
0
SPLINE
5
123
100
AcDbEntity
8
INSETS D 0.5
100
AcDbSpline
70
0
71
3
72
9
73
5
74
0
42
0.000000001
43
0.0000000001
44
0.0000000001
40
0
40
0
40
0
40
0
40
0.12284892479147347
40
0.24402755923692276
40
0.24402755923692276
40
0.24402755923692276
40
0.24402755923692276
10
86.157130114850332
20
-270.32013251559556
30
0
10
86.575546247500228
20
-270.3574748212186
30
0
10
87.406689603205024
20
-270.43165171542387
30
0
10
88.04765792758684
20
-270.96540885403903
30
0
10
88.365948478515833
20
-271.23046072516843
30
0
0
SPLINE
5
124
100
AcDbEntity
8
INSETS D 0.5
100
AcDbSpline
70
0
71
3
72
9
73
5
74
0
42
0.000000001
43
0.0000000001
44
0.0000000001
40
0
40
0
40
0
40
0
40
0.10357035591933757
40
0.20152652200481574
40
0.20152652200481574
40
0.20152652200481574
40
0.20152652200481574
10
84.266756237137713
20
-270.94504031182254
30
0
10
84.565994737840313
20
-270.76246387027351
30
0
10
85.148251057819493
20
-270.40720782293448
30
0
10
85.827141342875393
20
-270.34861350500438
30
0
10
86.157130114850332
20
-270.32013251559556
30
0
0
LINE
5
125
100
AcDbEntity
8
INSETS D 0.5
100
AcDbLine
10
84.266756237137713
20
-270.94504031182254
30
0
11
84.809402355016786
21
-268.25821314972086
31
0
0
LINE
5
126
100
AcDbEntity
8
INSETS D 0.5
100
AcDbLine
10
84.809402355016786
20
-268.25821314972086
30
0
11
88.799848338146859
21
-268.26380807529949
31
0
0
LINE
5
127
100
AcDbEntity
8
INSETS D 0.5
100
AcDbLine
10
88.799848338146859
20
-268.26380807529949
30
0
11
88.801493341523866
21
-267.09054901656771
31
0
0
LINE
5
128
100
AcDbEntity
8
INSETS D 0.5
100
AcDbLine
10
88.801493341523866
20
-267.09054901656771
30
0
11
83.828787619830194
21
-267.08357688399042
31
0
0
LINE
5
129
100
AcDbEntity
8
INSETS D 0.5
100
AcDbLine
10
83.828787619830194
20
-267.08357688399042
30
0
11
82.852963735988169
21
-272.21863984043614
31
0
0
LINE
5
12A
100
AcDbEntity
8
INSETS D 0.5
100
AcDbLine
10
82.852963735988169
20
-272.21863984043614
30
0
11
84.005548941286065
21
-272.37032381115876
31
0
0
SPLINE
5
12B
100
AcDbEntity
8
INSETS D 0.5
100
AcDbSpline
70
0
71
3
72
9
73
5
74
0
42
0.000000001
43
0.0000000001
44
0.0000000001
40
0
40
0
40
0
40
0
40
0.052683740914103196
40
0.10336140775444658
40
0.10336140775444658
40
0.10336140775444658
40
0.10336140775444658
10
84.756869926872696
20
-271.67219497955153
30
0
10
84.607024056989104
20
-271.76703765546819
30
0
10
84.31303809872901
20
-271.95311161923479
30
0
10
84.106710501227298
20
-272.23306421959302
30
0
10
84.005548941286065
20
-272.37032381115876
30
0
0
SPLINE
5
12C
100
AcDbEntity
8
INSETS D 0.5
100
AcDbSpline
70
0
71
3
72
9
73
5
74
0
42
0.000000001
43
0.0000000001
44
0.0000000001
40
0
40
0
40
0
40
0
40
0.056846573036174491
40
0.11137692091606022
40
0.11137692091606022
40
0.11137692091606022
40
0.11137692091606022
10
85.828184761299994
20
-271.40425637158495
30
0
10
85.636914577783216
20
-271.41425109445544
30
0
10
85.262167553198452
20
-271.43383330318443
30
0
10
84.922950988579004
20
-271.59385034023666
30
0
10
84.756869926872696
20
-271.67219497955153
30
0
0
SPLINE
5
12D
100
AcDbEntity
8
INSETS D 0.5
100
AcDbSpline
70
0
71
3
72
9
73
5
74
0
42
0.000000001
43
0.0000000001
44
0.0000000001
40
0
40
0
40
0
40
0
40
0.081942736303955072
40
0.16964033757632319
40
0.16964033757632319
40
0.16964033757632319
40
0.16964033757632319
10
87.372355966073073
20
-272.01351678499498
30
0
10
87.155636874957992
20
-271.8361997587765
30
0
10
86.706978440613938
20
-271.46911267403277
30
0
10
86.127666827698562
20
-271.42635860096283
30
0
10
85.828184761299994
20
-271.40425637158495
30
0
0
SPLINE
5
12E
100
AcDbEntity
8
INSETS D 0.5
100
AcDbSpline
70
0
71
3
72
9
73
5
74
0
42
0.000000001
43
0.0000000001
44
0.0000000001
40
0
40
0
40
0
40
0
40
0.095113950567050382
40
0.17945077469059567
40
0.17945077469059567
40
0.17945077469059567
40
0.17945077469059567
10
87.960069639256261
20
-273.67191422859332
30
0
10
87.942411897881613
20
-273.34719932604844
30
0
10
87.909097170125392
20
-272.73456216327827
30
0
10
87.543960123090017
20
-272.24404573149116
30
0
10
87.372355966073073
20
-272.01351678499498
30
0
0
SPLINE
5
12F
100
AcDbEntity
8
INSETS D 0.5
100
AcDbSpline
70
0
71
3
72
9
73
5
74
0
42
0.000000001
43
0.0000000001
44
0.0000000001
40
0
40
0
40
0
40
0
40
0.090371548942968866
40
0.19113790836454436
40
0.19113790836454436
40
0.19113790836454436
40
0.19113790836454436
10
87.343670073946214
20
-275.444584359168
30
0
10
87.522934597245481
20
-275.19473190062018
30
0
10
87.902083194654267
20
-274.66628819366645
30
0
10
87.940052518702771
20
-274.01517554890205
30
0
10
87.960069639256261
20
-273.67191422859332
30
0
0
SPLINE
5
130
100
AcDbEntity
8
INSETS D 0.5
100
AcDbSpline
70
0
71
3
72
9
73
5
74
0
42
0.000000001
43
0.0000000001
44
0.0000000001
40
0
40
0
40
0
40
0
40
0.083544365413491098
40
0.16820026699032053
40
0.16820026699032053
40
0.16820026699032053
40
0.16820026699032053
10
85.842051447566661
20
-276.11096598311985
30
0
10
86.126979504589869
20
-276.08278327249906
30
0
10
86.700626512705156
20
-276.02604288758539
30
0
10
87.128379963609888
20
-275.6392558842158
30
0
10
87.343670073946214
20
-275.444584359168
30
0
0
SPLINE
5
131
100
AcDbEntity
8
INSETS D 0.5
100
AcDbSpline
70
0
71
3
72
9
73
5
74
0
42
0.000000001
43
0.0000000001
44
0.0000000001
40
0
40
0
40
0
40
0
40
0.067651439891829077
40
0.13697051190940948
40
0.13697051190940948
40
0.13697051190940948
40
0.13697051190940948
10
84.584191533546189
20
-275.63512204923734
30
0
10
84.768353129882726
20
-275.77364774970545
30
0
10
85.141215971599109
20
-276.05411385857269
30
0
10
85.606551118823617
20
-276.09186207859489
30
0
10
85.842051447566661
20
-276.11096598311985
30
0
0
SPLINE
5
132
100
AcDbEntity
8
INSETS D 0.5
100
AcDbSpline
70
0
71
3
72
9
73
5
74
0
42
0.000000001
43
0.0000000001
44
0.0000000001
40
0
40
0
40
0
40
0
40
0.085815485121129825
40
0.15872900701337883
40
0.15872900701337883
40
0.15872900701337883
40
0.15872900701337883
10
83.921103317379135
20
-274.21877495282678
30
0
10
83.976132634283431
20
-274.50532303836218
30
0
10
84.077917863563613
20
-275.03533802358794
30
0
10
84.42483307508806
20
-275.44632957709752
30
0
10
84.584191533546189
20
-275.63512204923734
30
0
0
LINE
5
133
100
AcDbEntity
8
INSETS D 0.5
100
AcDbLine
10
83.921103317379135
20
-274.21877495282678
30
0
11
82.631726935826975
21
-274.32610812387395
31
0
0
SPLINE
5
134
100
AcDbEntity
8
INSETS D 0.5
100
AcDbSpline
70
0
71
3
72
9
73
5
74
0
42
0.000000001
43
0.0000000001
44
0.0000000001
40
0
40
0
40
0
40
0
40
0.11175354010467263
40
0.22958976675834442
40
0.22958976675834442
40
0.22958976675834442
40
0.22958976675834442
10
83.614560323534874
20
-276.35340947123848
30
0
10
83.357688291407598
20
-276.07232703826367
30
0
10
82.829962817229301
20
-275.49486300297582
30
0
10
82.69896245848436
20
-274.72251388351185
30
0
10
82.631726935826975
20
-274.32610812387395
30
0
0
SPLINE
5
135
100
AcDbEntity
8
INSETS D 0.5
100
AcDbSpline
70
0
71
3
72
9
73
5
74
0
42
0.000000001
43
0.0000000001
44
0.0000000001
40
0
40
0
40
0
40
0
40
0.16661483842750072
40
0.31599125622607771
40
0.31599125622607771
40
0.31599125622607771
40
0.31599125622607771
10
78.083367214147884
20
-270.86474790437569
30
0
10
78.355267484627561
20
-270.37908953280157
30
0
10
78.870936490149361
20
-269.45802031484476
30
0
10
79.535964648280356
20
-268.63861383968799
30
0
10
79.850338929338704
20
-268.2512613368317
30
0
0
SPLINE
5
136
100
AcDbEntity
8
INSETS D 0.5
100
AcDbSpline
70
0
71
3
72
9
73
5
74
0
42
0.000000001
43
0.0000000001
44
0.0000000001
40
0
40
0
40
0
40
0
40
0.17278354486727768
40
0.34708744413617099
40
0.34708744413617099
40
0.34708744413617099
40
0.34708744413617099
10
76.806681325198966
20
-274.08601784948144
30
0
10
76.971911571607194
20
-273.53302855656034
30
0
10
77.303825955953627
20
-272.42218411554541
30
0
10
77.822762425321002
20
-271.38540711343848
30
0
10
78.083367214147884
20
-270.86474790437569
30
0
0
SPLINE
5
137
100
AcDbEntity
8
INSETS D 0.5
100
AcDbSpline
70
0
71
3
72
9
73
5
74
0
42
0.000000001
43
0.0000000001
44
0.0000000001
40
0
40
0
40
0
40
0
40
0.13089618810587739
40
0.28937798420378291
40
0.28937798420378291
40
0.28937798420378291
40
0.28937798420378291
10
76.338835925915049
20
-276.93666016644784
30
0
10
76.370001434171883
20
-276.50060921292538
30
0
10
76.4389003997304
20
-275.53661211135665
30
0
10
76.676536614281758
20
-274.59933204768078
30
0
10
76.806681325198966
20
-274.08601784948144
30
0
0
LINE
5
138
100
AcDbEntity
8
INSETS D 0.5
100
AcDbLine
10
76.338835925915049
20
-276.93666016644784
30
0
11
77.600774687979111
21
-276.93842950588714
31
0
0
SPLINE
5
139
100
AcDbEntity
8
INSETS D 0.5
100
AcDbSpline
70
0
71
3
72
9
73
5
74
0
42
0.000000001
43
0.0000000001
44
0.0000000001
40
0
40
0
40
0
40
0
40
0.1349003660613991
40
0.27930813965757401
40
0.27930813965757401
40
0.27930813965757401
40
0.27930813965757401
10
78.075295393278566
20
-274.19011517412025
30
0
10
77.96246966662099
20
-274.62621636709787
30
0
10
77.728866565767319
20
-275.52915396815348
30
0
10
77.644430029467472
20
-276.45813047433813
30
0
10
77.600774687979111
20
-276.93842950588714
30
0
0
SPLINE
5
13A
100
AcDbEntity
8
INSETS D 0.5
100
AcDbSpline
70
0
71
3
72
9
73
5
74
0
42
0.000000001
43
0.0000000001
44
0.0000000001
40
0
40
0
40
0
40
0
40
0.1900234972473121
40
0.3762322271439581
40
0.3762322271439581
40
0.3762322271439581
40
0.3762322271439581
10
79.529675440375755
20
-270.72693953423436
30
0
10
79.234895684506455
20
-271.28905556386997
30
0
10
78.651253947172677
20
-272.40200300882657
30
0
10
78.265979427666863
20
-273.59812042152606
30
0
10
78.075295393278566
20
-274.19011517412025
30
0
0
SPLINE
5
13B
100
AcDbEntity
8
INSETS D 0.5
100
AcDbSpline
70
0
71
3
72
9
73
5
74
0
42
0.000000001
43
0.0000000001
44
0.0000000001
40
0
40
0
40
0
40
0
40
0.15180608329863757
40
0.33044671770067813
40
0.33044671770067813
40
0.33044671770067813
40
0.33044671770067813
10
81.426366149394198
20
-268.02836852683231
30
0
10
81.09743142657662
20
-268.4142693689796
30
0
10
80.38141664554162
20
-269.25428621069375
30
0
10
79.828554578914023
20
-270.21018003729347
30
0
10
79.529675440375755
20
-270.72693953423436
30
0
0
LINE
5
13C
100
AcDbEntity
8
INSETS D 0.5
100
AcDbLine
10
81.426366149394198
20
-268.02836852683231
30
0
11
81.427705106214333
21
-267.07338980736745
31
0
0
LINE
5
13D
100
AcDbEntity
8
INSETS D 0.5
100
AcDbLine
10
81.427705106214333
20
-267.07338980736745
30
0
11
74.954313260384026
21
-267.06431359238502
31
0
0
LINE
5
13E
100
AcDbEntity
8
INSETS D 0.5
100
AcDbLine
10
74.954313260384026
20
-267.06431359238502
30
0
11
74.952658692373106
21
-268.24439439600616
31
0
0
LINE
5
13F
100
AcDbEntity
8
INSETS D 0.5
100
AcDbLine
10
74.952658692373106
20
-268.24439439600616
30
0
11
79.850338929338719
21
-268.25126133683165
31
0
0
LWPOLYLINE
5
140
100
AcDbEntity
8
INSETS D 0.5
100
AcDbPolyline
90
12
70
1
43
0.0
10
37.812272598880355
20
-276.88264283216364
10
37.81713109862573
20
-273.41743484671633
10
39.456475189968636
20
-271.82355156923666
10
43.010085173097224
20
-276.88993058261741
10
44.756331463507877
20
-276.89237896008649
10
40.38541263122616
20
-270.93808623192581
10
44.58617765737003
20
-266.89213056165164
10
42.792182132963205
20
-266.88961523592366
10
37.819340376961122
20
-271.84172025762228
10
37.826293387791992
20
-266.88265266129457
10
36.502966074274084
20
-266.88079725017849
10
36.488945285362455
20
-276.88078742104756
0
LINE
5
141
100
AcDbEntity
8
INSETS D 0.5
100
AcDbLine
10
68.521656300265676
20
-276.92569985313327
30
0
11
69.804056124676762
21
-276.9274978806244
31
0
0
SPLINE
5
142
100
AcDbEntity
8
INSETS D 0.5
100
AcDbSpline
70
0
71
3
72
9
73
5
74
0
42
0.000000001
43
0.0000000001
44
0.0000000001
40
0
40
0
40
0
40
0
40
0.045933846598597665
40
0.092677228669407807
40
0.092677228669407807
40
0.092677228669407807
40
0.092677228669407807
10
69.494907299510373
20
-276.05734955261948
30
0
10
69.527571935194658
20
-276.20763286738838
30
0
10
69.593476886225005
20
-276.51084808142735
30
0
10
69.733455474264531
20
-276.78780819880336
30
0
10
69.804056124676762
20
-276.9274978806244
30
0
0
SPLINE
5
143
100
AcDbEntity
8
INSETS D 0.5
100
AcDbSpline
70
0
71
3
72
9
73
5
74
0
42
0.000000001
43
0.0000000001
44
0.0000000001
40
0
40
0
40
0
40
0
40
0.13976483773209622
40
0.21681444125898242
40
0.21681444125898242
40
0.21681444125898242
40
0.21681444125898242
10
69.419499458477191
20
-273.89148427834118
30
0
10
69.416024567892435
20
-274.35774038124413
30
0
10
69.410634038537637
20
-275.08103429461215
30
0
10
69.472811294704485
20
-275.80136483832234
30
0
10
69.494907299510373
20
-276.05734955261948
30
0
0
LINE
5
144
100
AcDbEntity
8
INSETS D 0.5
100
AcDbLine
10
69.419499458477191
20
-273.89148427834118
30
0
11
69.421794811832157
21
-272.25437875360979
31
0
0
SPLINE
5
145
100
AcDbEntity
8
INSETS D 0.5
100
AcDbSpline
70
0
71
3
72
9
73
5
74
0
42
0.000000001
43
0.0000000001
44
0.0000000001
40
0
40
0
40
0
40
0
40
0.044237520536547996
40
0.11349056780635122
40
0.11349056780635122
40
0.11349056780635122
40
0.11349056780635122
10
69.361989707809343
20
-271.12196110645823
30
0
10
69.379487357237807
20
-271.26849416236104
30
0
10
69.424377263924001
20
-271.64442209672785
30
0
10
69.422773465322805
20
-272.02322782024356
30
0
10
69.421794811832157
20
-272.25437875360984
30
0
0
SPLINE
5
146
100
AcDbEntity
8
INSETS D 0.5
100
AcDbSpline
70
0
71
3
72
9
73
5
74
0
42
0.000000001
43
0.0000000001
44
0.0000000001
40
0
40
0
40
0
40
0
40
0.044034368121923712
40
0.092542866020934783
40
0.092542866020934783
40
0.092542866020934783
40
0.092542866020934783
10
68.981172191215563
20
-270.28581929655275
30
0
10
69.065899542506045
20
-270.40718769884728
30
0
10
69.243963001872004
20
-270.66225618902348
30
0
10
69.321399542227965
20
-270.9638655418226
30
0
10
69.361989707809343
20
-271.12196110645823
30
0
0
SPLINE
5
147
100
AcDbEntity
8
INSETS D 0.5
100
AcDbSpline
70
0
71
3
72
9
73
5
74
0
42
0.000000001
43
0.0000000001
44
0.0000000001
40
0
40
0
40
0
40
0
40
0.05601802963381642
40
0.10226061133586345
40
0.10226061133586345
40
0.10226061133586345
40
0.10226061133586345
10
68.129281796457505
20
-269.7355111836963
30
0
10
68.304137386130861
20
-269.80691596716611
30
0
10
68.623335323158884
20
-269.93726501474339
30
0
10
68.869744953399262
20
-270.17728257404571
30
0
10
68.981172191215563
20
-270.28581929655275
30
0
0
SPLINE
5
148
100
AcDbEntity
8
INSETS D 0.5
100
AcDbSpline
70
0
71
3
72
9
73
5
74
0
42
0.000000001
43
0.0000000001
44
0.0000000001
40
0
40
0
40
0
40
0
40
0.084249270647658595
40
0.15290765653414029
40
0.15290765653414029
40
0.15290765653414029
40
0.15290765653414029
10
66.622085339236833
20
-269.51511660886587
30
0
10
66.904388606726314
20
-269.52026637958591
30
0
10
67.416753054891984
20
-269.52961292189343
30
0
10
67.908484995832509
20
-269.6717078943575
30
0
10
68.129281796457505
20
-269.7355111836963
30
0
0
SPLINE
5
149
100
AcDbEntity
8
INSETS D 0.5
100
AcDbSpline
70
0
71
3
72
9
73
5
74
0
42
0.000000001
43
0.0000000001
44
0.0000000001
40
0
40
0
40
0
40
0
40
0.078935948534080744
40
0.16699233269638594
40
0.16699233269638594
40
0.16699233269638594
40
0.16699233269638594
10
64.977798824451881
20
-269.76860954003917
30
0
10
65.231432906551689
20
-269.69441745068161
30
0
10
65.768006518546301
20
-269.53746095241291
30
0
10
66.327211898327576
20
-269.52283106484691
30
0
10
66.622085339236833
20
-269.51511660886587
30
0
0
SPLINE
5
14A
100
AcDbEntity
8
INSETS D 0.5
100
AcDbSpline
70
0
71
3
72
9
73
5
74
0
42
0.000000001
43
0.0000000001
44
0.0000000001
40
0
40
0
40
0
40
0
40
0.062162664528186376
40
0.13202118448025912
40
0.13202118448025912
40
0.13202118448025912
40
0.13202118448025912
10
63.892193740075307
20
-270.49696490864437
30
0
10
64.037610598684864
20
-270.34608458846657
30
0
10
64.34644719799644
20
-270.02564467914448
30
0
10
64.759325698004972
20
-269.85755406491882
30
0
10
64.977798824451881
20
-269.76860954003917
30
0
0
SPLINE
5
14B
100
AcDbEntity
8
INSETS D 0.5
100
AcDbSpline
70
0
71
3
72
9
73
5
74
0
42
0.000000001
43
0.0000000001
44
0.0000000001
40
0
40
0
40
0
40
0
40
0.07295133153927226
40
0.13654925878590324
40
0.13654925878590324
40
0.13654925878590324
40
0.13654925878590324
10
63.351568018940299
20
-271.74109226494073
30
0
10
63.410459569831623
20
-271.50293610498022
30
0
10
63.520691932329797
20
-271.0571588116569
30
0
10
63.774146889608204
20
-270.6749697649405
30
0
10
63.892193740075307
20
-270.49696490864437
30
0
0
LINE
5
14C
100
AcDbEntity
8
INSETS D 0.5
100
AcDbLine
10
63.351568018940299
20
-271.74109226494073
30
0
11
64.551882137710535
21
-271.90648607598371
31
0
0
SPLINE
5
14D
100
AcDbEntity
8
INSETS D 0.5
100
AcDbSpline
70
0
71
3
72
9
73
5
74
0
42
0.000000001
43
0.0000000001
44
0.0000000001
40
0
40
0
40
0
40
0
40
0.055277806262890035
40
0.12534721110359234
40
0.12534721110359234
40
0.12534721110359234
40
0.12534721110359234
10
65.163892013824523
20
-270.83299143860239
30
0
10
65.032249568103978
20
-270.96590312563586
30
0
10
64.733738926139466
20
-271.26729188215575
30
0
10
64.617089473687997
20
-271.67729391377816
30
0
10
64.551882137710535
20
-271.90648607598371
30
0
0
SPLINE
5
14E
100
AcDbEntity
8
INSETS D 0.5
100
AcDbSpline
70
0
71
3
72
9
73
5
74
0
42
0.000000001
43
0.0000000001
44
0.0000000001
40
0
40
0
40
0
40
0
40
0.07567144054551081
40
0.13299527220930352
40
0.13299527220930352
40
0.13299527220930352
40
0.13299527220930352
10
66.443308053282863
20
-270.53123760187179
30
0
10
66.186796054380807
20
-270.53487093485535
30
0
10
65.735967011442028
20
-270.54125664795521
30
0
10
65.336200154179977
20
-270.74512135257737
30
0
10
65.163892013824523
20
-270.83299143860239
30
0
0
SPLINE
5
14F
100
AcDbEntity
8
INSETS D 0.5
100
AcDbSpline
70
0
71
3
72
9
73
5
74
0
42
0.000000001
43
0.0000000001
44
0.0000000001
40
0
40
0
40
0
40
0
40
0.066296788589277345
40
0.14830312429198944
40
0.14830312429198944
40
0.14830312429198944
40
0.14830312429198944
10
67.841086389661967
20
-270.94929604532456
30
0
10
67.651697205934326
20
-270.82802014691623
30
0
10
67.228041577184001
20
-270.55673106914975
30
0
10
66.722728276836392
20
-270.54031506588854
30
0
10
66.443308053282863
20
-270.53123760187179
30
0
0
SPLINE
5
150
100
AcDbEntity
8
INSETS D 0.5
100
AcDbSpline
70
0
71
3
72
9
73
5
74
0
42
0.000000001
43
0.0000000001
44
0.0000000001
40
0
40
0
40
0
40
0
40
0.06453820709513057
40
0.1137963859207699
40
0.1137963859207699
40
0.1137963859207699
40
0.1137963859207699
10
68.18748971693006
20
-272.00708154931635
30
0
10
68.182902906949522
20
-271.78520539973539
30
0
10
68.174815257444138
20
-271.3939843683375
30
0
10
67.941904641969458
20
-271.0836347372263
30
0
10
67.841086389661967
20
-270.94929604532456
30
0
0
SPLINE
5
151
100
AcDbEntity
8
INSETS D 0.5
100
AcDbSpline
70
0
71
3
72
9
73
5
74
0
42
0.000000001
43
0.0000000001
44
0.0000000001
40
0
40
0
40
0
40
0
40
0.020640755123869006
40
0.032067644663656344
40
0.032067644663656344
40
0.032067644663656344
40
0.032067644663656344
10
68.180216677030344
20
-272.32767193827806
30
0
10
68.18223667889869
20
-272.25889765987216
30
0
10
68.185374970194033
20
-272.15204938282579
30
0
10
68.186934130399493
20
-272.04516751691369
30
0
10
68.18748971693006
20
-272.00708154931635
30
0
0
SPLINE
5
152
100
AcDbEntity
8
INSETS D 0.5
100
AcDbSpline
70
0
71
3
72
9
73
5
74
0
42
0.000000001
43
0.0000000001
44
0.0000000001
40
0
40
0
40
0
40
0
40
0.13054855011112512
40
0.22327847812472271
40
0.22327847812472271
40
0.22327847812472271
40
0.22327847812472271
10
65.989994399961887
20
-272.74752147516426
30
0
10
66.422882010744814
20
-272.69573165254297
30
0
10
67.163253978509942
20
-272.60715500602032
30
0
10
67.88179778691692
20
-272.40968382229551
30
0
10
68.180216677030344
20
-272.32767193827806
30
0
0
SPLINE
5
153
100
AcDbEntity
8
INSETS D 0.5
100
AcDbSpline
70
0
71
3
72
9
73
5
74
0
42
0.000000001
43
0.0000000001
44
0.0000000001
40
0
40
0
40
0
40
0
40
0.046321032541627817
40
0.11073713629526938
40
0.11073713629526938
40
0.11073713629526938
40
0.11073713629526938
10
64.898333283969663
20
-272.93016583575809
30
0
10
65.049235368300415
20
-272.89710534629882
30
0
10
65.409988653857184
20
-272.81806945857443
30
0
10
65.776685697774283
20
-272.77346690567805
30
0
10
65.989994399961887
20
-272.74752147516426
30
0
0
SPLINE
5
154
100
AcDbEntity
8
INSETS D 0.5
100
AcDbSpline
70
0
71
3
72
9
73
5
74
0
42
0.000000001
43
0.0000000001
44
0.0000000001
40
0
40
0
40
0
40
0
40
0.047794630140760609
40
0.097396552395497521
40
0.097396552395497521
40
0.097396552395497521
40
0.097396552395497521
10
64.014412353238839
20
-273.33138223313546
30
0
10
64.150859542828854
20
-273.2478941351601
30
0
10
64.428913495981845
20
-273.07776094478049
30
0
10
64.73993624016353
20
-272.97996908127016
30
0
10
64.898333283969663
20
-272.93016583575809
30
0
0
SPLINE
5
155
100
AcDbEntity
8
INSETS D 0.5
100
AcDbSpline
70
0
71
3
72
9
73
5
74
0
42
0.000000001
43
0.0000000001
44
0.0000000001
40
0
40
0
40
0
40
0
40
0.048520134912853147
40
0.09559614476247362
40
0.09559614476247362
40
0.09559614476247362
40
0.09559614476247362
10
63.37904371837682
20
-274.03649480149858
30
0
10
63.465195532456121
20
-273.89789885995361
30
0
10
63.634934988149425
20
-273.62483206582334
30
0
10
63.889200252634986
20
-273.42820874600017
30
0
10
64.014412353238839
20
-273.33138223313546
30
0
0
SPLINE
5
156
100
AcDbEntity
8
INSETS D 0.5
100
AcDbSpline
70
0
71
3
72
9
73
5
74
0
42
0.000000001
43
0.0000000001
44
0.0000000001
40
0
40
0
40
0
40
0
40
0.051262497794771988
40
0.10099668917949149
40
0.10099668917949149
40
0.10099668917949149
40
0.10099668917949149
10
63.135526491842
20
-275.00818687322152
30
0
10
63.145232232532358
20
-274.83582955046904
30
0
10
63.164354353340535
20
-274.4962534528795
30
0
10
63.308206197034082
20
-274.18819380752154
30
0
10
63.37904371837682
20
-274.03649480149858
30
0
0
SPLINE
5
157
100
AcDbEntity
8
INSETS D 0.5
100
AcDbSpline
70
0
71
3
72
9
73
5
74
0
42
0.000000001
43
0.0000000001
44
0.0000000001
40
0
40
0
40
0
40
0
40
0.082003542962439654
40
0.16616693848134889
40
0.16616693848134889
40
0.16616693848134889
40
0.16616693848134889
10
63.774636675696854
20
-276.49953432737988
30
0
10
63.58792225313011
20
-276.28944592773968
30
0
10
63.209575625077214
20
-275.86373570940611
30
0
10
63.160422501801001
20
-275.29583037984298
30
0
10
63.135526491842
20
-275.00818687322152
30
0
0
SPLINE
5
158
100
AcDbEntity
8
INSETS D 0.5
100
AcDbSpline
70
0
71
3
72
9
73
5
74
0
42
0.000000001
43
0.0000000001
44
0.0000000001
40
0
40
0
40
0
40
0
40
0.10656157978629843
40
0.19593092352735794
40
0.19593092352735794
40
0.19593092352735794
40
0.19593092352735794
10
65.608741371703829
20
-277.08532718293293
30
0
10
65.245445401741492
20
-277.07027631180102
30
0
10
64.577466238414189
20
-277.04260281928447
30
0
10
64.026120320780393
20
-276.66964869563003
30
0
10
63.774636675696854
20
-276.49953432737988
30
0
0
SPLINE
5
159
100
AcDbEntity
8
INSETS D 0.5
100
AcDbSpline
70
0
71
3
72
9
73
5
74
0
42
0.000000001
43
0.0000000001
44
0.0000000001
40
0
40
0
40
0
40
0
40
0.067805923832199674
40
0.13806341582868081
40
0.13806341582868081
40
0.13806341582868081
40
0.13806341582868081
10
66.963099190686194
20
-276.84848065408755
30
0
10
66.746774910994347
20
-276.91780556972651
30
0
10
66.306305003750737
20
-277.05896188932536
30
0
10
65.843998945258107
20
-277.07643532745885
30
0
10
65.608741371703829
20
-277.08532718293293
30
0
0
SPLINE
5
15A
100
AcDbEntity
8
INSETS D 0.5
100
AcDbSpline
70
0
71
3
72
9
73
5
74
0
42
0.000000001
43
0.0000000001
44
0.0000000001
40
0
40
0
40
0
40
0
40
0.083221572816947212
40
0.15529183237722186
40
0.15529183237722186
40
0.15529183237722186
40
0.15529183237722186
10
68.277343054497919
20
-276.03176836193052
30
0
10
68.06059738496694
20
-276.20706549129528
30
0
10
67.656148982443639
20
-276.53417072985411
30
0
10
67.182785234012556
20
-276.74884927917873
30
0
10
66.963099190686194
20
-276.84848065408755
30
0
0
SPLINE
5
15B
100
AcDbEntity
8
INSETS D 0.5
100
AcDbSpline
70
0
71
3
72
9
73
5
74
0
42
0.000000001
43
0.0000000001
44
0.0000000001
40
0
40
0
40
0
40
0
40
0.044309780162977999
40
0.09304289451631971
40
0.09304289451631971
40
0.09304289451631971
40
0.09304289451631971
10
68.521656300265676
20
-276.92569985313327
30
0
10
68.463498419040832
20
-276.78917838928464
30
0
10
68.341376901213536
20
-276.50250686635326
30
0
10
68.29935361044005
20
-276.19357679164614
30
0
10
68.277343054497919
20
-276.03176836193052
30
0
0
SPLINE
5
15C
100
AcDbEntity
8
INSETS D 0.5
100
AcDbSpline
70
0
71
3
72
9
73
5
74
0
42
0.000000001
43
0.0000000001
44
0.0000000001
40
0
40
0
40
0
40
0
40
0.053595160036735125
40
0.12504889891251611
40
0.12504889891251611
40
0.12504889891251611
40
0.12504889891251611
10
67.978699716280218
20
-274.96722925507129
30
0
10
68.03633994382966
20
-274.79704482172417
30
0
10
68.170826844945069
20
-274.39996836953105
30
0
10
68.175542422768331
20
-273.97977636682617
30
0
10
68.178236934030437
20
-273.739675974899
30
0
0
SPLINE
5
15D
100
AcDbEntity
8
INSETS D 0.5
100
AcDbSpline
70
0
71
3
72
9
73
5
74
0
42
0.000000001
43
0.0000000001
44
0.0000000001
40
0
40
0
40
0
40
0
40
0.060389035933345665
40
0.11892679679548741
40
0.11892679679548741
40
0.11892679679548741
40
0.11892679679548741
10
67.165775600015337
20
-275.81533966789215
30
0
10
67.337186279538784
20
-275.70404027604405
30
0
10
67.674752904625507
20
-275.48485346583584
30
0
10
67.878441016682416
20
-275.13797074095521
30
0
10
67.978699716280218
20
-274.96722925507129
30
0
0
SPLINE
5
15E
100
AcDbEntity
8
INSETS D 0.5
100
AcDbSpline
70
0
71
3
72
9
73
5
74
0
42
0.000000001
43
0.0000000001
44
0.0000000001
40
0
40
0
40
0
40
0
40
0.067466643566492651
40
0.1310550072573497
40
0.1310550072573497
40
0.1310550072573497
40
0.1310550072573497
10
65.903406445142707
20
-276.12393856797598
30
0
10
66.130452648835572
20
-276.11292627876719
30
0
10
66.571493440251203
20
-276.09153473524464
30
0
10
66.971628581671084
20
-275.90557028970517
30
0
10
67.165775600015337
20
-275.81533966789215
30
0
0
SPLINE
5
15F
100
AcDbEntity
8
INSETS D 0.5
100
AcDbSpline
70
0
71
3
72
9
73
5
74
0
42
0.000000001
43
0.0000000001
44
0.0000000001
40
0
40
0
40
0
40
0
40
0.051957213870468665
40
0.11549831886274922
40
0.11549831886274922
40
0.11549831886274922
40
0.11549831886274922
10
64.815872011388734
20
-275.79499081670997
30
0
10
64.964063416598407
20
-275.89044722484425
30
0
10
65.293485587200081
20
-276.10264210295441
30
0
10
65.686945486784765
20
-276.11638045093804
30
0
10
65.903406445142707
20
-276.12393856797598
30
0
0
SPLINE
5
160
100
AcDbEntity
8
INSETS D 0.5
100
AcDbSpline
70
0
71
3
72
9
73
5
74
0
42
0.000000001
43
0.0000000001
44
0.0000000001
40
0
40
0
40
0
40
0
40
0.045969666441268479
40
0.092167343642885383
40
0.092167343642885383
40
0.092167343642885383
40
0.092167343642885383
10
64.445258730618093
20
-274.97591741168804
30
0
10
64.460681326020577
20
-275.13296240254977
30
0
10
64.491603013306261
20
-275.44783133157796
30
0
10
64.707604225148586
20
-275.67908029442827
30
0
10
64.815872011388734
20
-275.79499081670997
30
0
0
SPLINE
5
161
100
AcDbEntity
8
INSETS D 0.5
100
AcDbSpline
70
0
71
3
72
9
73
5
74
0
42
0.000000001
43
0.0000000001
44
0.0000000001
40
0
40
0
40
0
40
0
40
0.030520557210659799
40
0.0614265931226608
40
0.0614265931226608
40
0.0614265931226608
40
0.0614265931226608
10
64.616609939861704
20
-274.39293755838474
30
0
10
64.566745269366947
20
-274.48315438858833
30
0
10
64.466386130949672
20
-274.6647274995733
30
0
10
64.45233059892945
20
-274.87175437961776
30
0
10
64.445258730618093
20
-274.97591741168804
30
0
0
SPLINE
5
162
100
AcDbEntity
8
INSETS D 0.5
100
AcDbSpline
70
0
71
3
72
9
73
5
74
0
42
0.000000001
43
0.0000000001
44
0.0000000001
40
0
40
0
40
0
40
0
40
0.03247767273762113
40
0.063457026257523447
40
0.063457026257523447
40
0.063457026257523447
40
0.063457026257523447
10
65.101478154195021
20
-273.99457104609951
30
0
10
65.003495561857619
20
-274.04408954425236
30
0
10
64.812050688791572
20
-274.14084206291051
30
0
10
64.680723240981081
20
-274.31023896814361
30
0
10
64.616609939861704
20
-274.39293755838474
30
0
0
SPLINE
5
163
100
AcDbEntity
8
INSETS D 0.5
100
AcDbSpline
70
0
71
3
72
9
73
5
74
0
42
0.000000001
43
0.0000000001
44
0.0000000001
40
0
40
0
40
0
40
0
40
0.065663754325377216
40
0.11006019757756381
40
0.11006019757756381
40
0.11006019757756381
40
0.11006019757756381
10
66.172764283695486
20
-273.7505064657708
30
0
10
65.955463985245203
20
-273.78132584229172
30
0
10
65.591243053517928
20
-273.83298275262172
30
0
10
65.242254358072643
20
-273.94812470709417
30
0
10
65.101478154195021
20
-273.99457104609951
30
0
0
SPLINE
5
164
100
AcDbEntity
8
INSETS D 0.5
100
AcDbSpline
70
0
71
3
72
9
73
5
74
0
42
0.000000001
43
0.0000000001
44
0.0000000001
40
0
40
0
40
0
40
0
40
0.087288866570479573
40
0.20616973268550198
40
0.20616973268550198
40
0.20616973268550198
40
0.20616973268550198
10
68.178868156411994
20
-273.28947180658639
30
0
10
67.901854638117072
20
-273.38006601329374
30
0
10
67.247569558461251
20
-273.59404271059242
30
0
10
66.565853182595049
20
-273.69328292334433
30
0
10
66.172764283695486
20
-273.7505064657708
30
0
0
LINE
5
165
100
AcDbEntity
8
INSETS D 0.5
100
AcDbLine
10
68.178868156411994
20
-273.28947180658639
30
0
11
68.178236934030437
21
-273.739675974899
31
0
0
LWPOLYLINE
5
166
100
AcDbEntity
8
INSETS D 0.5
100
AcDbPolyline
90
4
70
1
43
0.0
10
46.905032688234925
20
-276.89539161167829
10
46.919053477146562
20
-266.89540144080922
10
45.691224035575139
20
-266.89367992537512
10
45.67720324666351
20
-276.89367009624419
0
LINE
5
167
100
AcDbEntity
8
INSETS D 0.5
100
AcDbLine
10
53.139677171992673
20
-276.90413308369494
30
0
11
53.14494692341799
21
-273.14560973751884
31
0
0
SPLINE
5
168
100
AcDbEntity
8
INSETS D 0.5
100
AcDbSpline
70
0
71
3
72
9
73
5
74
0
42
0.000000001
43
0.0000000001
44
0.0000000001
40
0
40
0
40
0
40
0
40
0.065814224973324939
40
0.15326650122170796
40
0.15326650122170796
40
0.15326650122170796
40
0.15326650122170796
10
53.344888210726289
20
-271.6315640369416
30
0
10
53.287180292296284
20
-271.84407996935226
30
0
10
53.152791552565034
20
-272.33898169352591
30
0
10
53.147796849304299
20
-272.85256463620044
30
0
10
53.14494692341799
20
-273.14560973751884
30
0
0
SPLINE
5
169
100
AcDbEntity
8
INSETS D 0.5
100
AcDbSpline
70
0
71
3
72
9
73
5
74
0
42
0.000000001
43
0.0000000001
44
0.0000000001
40
0
40
0
40
0
40
0
40
0.050678481940942405
40
0.10362406718097916
40
0.10362406718097916
40
0.10362406718097916
40
0.10362406718097916
10
53.983797725048966
20
-270.83436955067015
30
0
10
53.84640447686759
20
-270.93748654434893
30
0
10
53.565471689726266
20
-271.14833347328658
30
0
10
53.419480708118655
20
-271.46815481553136
30
0
10
53.344888210726289
20
-271.6315640369416
30
0
0
SPLINE
5
16A
100
AcDbEntity
8
INSETS D 0.5
100
AcDbSpline
70
0
71
3
72
9
73
5
74
0
42
0.000000001
43
0.0000000001
44
0.0000000001
40
0
40
0
40
0
40
0
40
0.050344764796776173
40
0.10065334826773489
40
0.10065334826773489
40
0.10065334826773489
40
0.10065334826773489
10
54.942569578385168
20
-270.56286197123694
30
0
10
54.773043536656196
20
-270.57397697737633
30
0
10
54.434113286659468
20
-270.59619900162187
30
0
10
54.133866936264212
20
-270.75499839524628
30
0
10
53.983797725048966
20
-270.83436955067015
30
0
0
SPLINE
5
16B
100
AcDbEntity
8
INSETS D 0.5
100
AcDbSpline
70
0
71
3
72
9
73
5
74
0
42
0.000000001
43
0.0000000001
44
0.0000000001
40
0
40
0
40
0
40
0
40
0.050074866277959061
40
0.10962340170660019
40
0.10962340170660019
40
0.10962340170660019
40
0.10962340170660019
10
55.92425786237564
20
-270.97351586078429
30
0
10
55.799982520082523
20
-270.85420368896541
30
0
10
55.52792017058362
20
-270.59300666315255
30
0
10
55.148613033747623
20
-270.57347290520693
30
0
10
54.942569578385168
20
-270.56286197123694
30
0
0
SPLINE
5
16C
100
AcDbEntity
8
INSETS D 0.5
100
AcDbSpline
70
0
71
3
72
9
73
5
74
0
42
0.000000001
43
0.0000000001
44
0.0000000001
40
0
40
0
40
0
40
0
40
0.072015418247593818
40
0.12790835080762608
40
0.12790835080762608
40
0.12790835080762608
40
0.12790835080762608
10
56.222674048605583
20
-272.20176611950529
30
0
10
56.218179559512365
20
-271.95765977332138
30
0
10
56.210196787189084
20
-271.52409650420714
30
0
10
56.011210275046878
20
-271.14094432596067
30
0
10
55.92425786237564
20
-270.97351586078429
30
0
0
LINE
5
16D
100
AcDbEntity
8
INSETS D 0.5
100
AcDbLine
10
56.222674048605583
20
-272.20176611950529
30
0
11
56.216074904994016
21
-276.90844644025685
31
0
0
LINE
5
16E
100
AcDbEntity
8
INSETS D 0.5
100
AcDbLine
10
56.216074904994016
20
-276.90844644025685
30
0
11
57.443903154473723
21
-276.91016795401958
31
0
0
LINE
5
16F
100
AcDbEntity
8
INSETS D 0.5
100
AcDbLine
10
57.443903154473723
20
-276.91016795401958
30
0
11
57.44980412828059
21
-272.70144043953081
31
0
0
SPLINE
5
170
100
AcDbEntity
8
INSETS D 0.5
100
AcDbSpline
70
0
71
3
72
9
73
5
74
0
42
0.000000001
43
0.0000000001
44
0.0000000001
40
0
40
0
40
0
40
0
40
0.076157398894157943
40
0.17358451585963183
40
0.17358451585963183
40
0.17358451585963183
40
0.17358451585963183
10
57.956859687090486
20
-271.07527437250332
30
0
10
57.809897789805234
20
-271.28844023647127
30
0
10
57.474929550862015
20
-271.77430626960745
30
0
10
57.458836572604582
20
-272.36814105944808
30
0
10
57.44980412828059
20
-272.70144043953081
30
0
0
SPLINE
5
171
100
AcDbEntity
8
INSETS D 0.5
100
AcDbSpline
70
0
71
3
72
9
73
5
74
0
42
0.000000001
43
0.0000000001
44
0.0000000001
40
0
40
0
40
0
40
0
40
0.071063050476551551
40
0.13959662496220832
40
0.13959662496220832
40
0.13959662496220832
40
0.13959662496220832
10
59.226329730152294
20
-270.56886814682406
30
0
10
58.984029509310567
20
-270.58812579903861
30
0
10
58.508053698670906
20
-270.62595563093868
30
0
10
58.138358075834191
20
-270.92732169901092
30
0
10
57.956859687090486
20
-271.07527437250332
30
0
0
SPLINE
5
172
100
AcDbEntity
8
INSETS D 0.5
100
AcDbSpline
70
0
71
3
72
9
73
5
74
0
42
0.000000001
43
0.0000000001
44
0.0000000001
40
0
40
0
40
0
40
0
40
0.037193668798441805
40
0.077064973697181946
40
0.077064973697181946
40
0.077064973697181946
40
0.077064973697181946
10
59.962750755187955
20
-270.76771794982386
30
0
10
59.85139565643167
20
-270.70988420085166
30
0
10
59.620668814097179
20
-270.59005315198419
30
0
10
59.360785983064083
20
-270.57609151505642
30
0
10
59.226329730152294
20
-270.56886814682406
30
0
0
SPLINE
5
173
100
AcDbEntity
8
INSETS D 0.5
100
AcDbSpline
70
0
71
3
72
9
73
5
74
0
42
0.000000001
43
0.0000000001
44
0.0000000001
40
0
40
0
40
0
40
0
40
0.033726751609686904
40
0.068787861275775963
40
0.068787861275775963
40
0.068787861275775963
40
0.068787861275775963
10
60.395170407457677
20
-271.29015268597084
30
0
10
60.346442990517922
20
-271.18672724837751
30
0
10
60.247060315436471
20
-270.97578447108629
30
0
10
60.05873830884962
20
-270.83796460757753
30
0
10
59.962750755187955
20
-270.76771794982386
30
0
0
SPLINE
5
174
100
AcDbEntity
8
INSETS D 0.5
100
AcDbSpline
70
0
71
3
72
9
73
5
74
0
42
0.000000001
43
0.0000000001
44
0.0000000001
40
0
40
0
40
0
40
0
40
0.063422953804526477
40
0.10706932870336019
40
0.10706932870336019
40
0.10706932870336019
40
0.10706932870336019
10
60.513054505275335
20
-272.35102896483329
30
0
10
60.513302182093021
20
-272.13859135629804
30
0
10
60.51372030501247
20
-271.7799585463643
30
0
10
60.429501755480644
20
-271.43199756145111
30
0
10
60.395170407457677
20
-271.29015268597084
30
0
0
LINE
5
175
100
AcDbEntity
8
INSETS D 0.5
100
AcDbLine
10
60.513054505275335
20
-272.35102896483329
30
0
11
60.506656205604649
21
-276.91446217964221
31
0
0
LINE
5
176
100
AcDbEntity
8
INSETS D 0.5
100
AcDbLine
10
60.506656205604649
20
-276.91446217964221
30
0
11
61.727663306240856
21
-276.9161741296067
31
0
0
LINE
5
177
100
AcDbEntity
8
INSETS D 0.5
100
AcDbLine
10
61.727663306240856
20
-276.9161741296067
30
0
11
61.734635444668136
21
-271.94346423559193
31
0
0
SPLINE
5
178
100
AcDbEntity
8
INSETS D 0.5
100
AcDbSpline
70
0
71
3
72
9
73
5
74
0
42
0.000000001
43
0.0000000001
44
0.0000000001
40
0
40
0
40
0
40
0
40
0.087389170750687722
40
0.19638937781060845
40
0.19638937781060845
40
0.19638937781060845
40
0.19638937781060845
10
61.157405748325182
20
-270.10431711539184
30
0
10
61.325646351098285
20
-270.34920671379632
30
0
10
61.70373286933922
20
-270.89954625186283
30
0
10
61.723605641176427
20
-271.57086712679308
30
0
10
61.734635444668136
20
-271.94346423559193
30
0
0
SPLINE
5
179
100
AcDbEntity
8
INSETS D 0.5
100
AcDbSpline
70
0
71
3
72
9
73
5
74
0
42
0.000000001
43
0.0000000001
44
0.0000000001
40
0
40
0
40
0
40
0
40
0.09648837679627166
40
0.17994013668472786
40
0.17994013668472786
40
0.17994013668472786
40
0.17994013668472786
10
59.500672432357476
20
-269.50513181633971
30
0
10
59.830825972932516
20
-269.52241249303574
30
0
10
60.446525761762558
20
-269.55463904124736
30
0
10
60.932174119258548
20
-269.93015988710857
30
0
10
61.157405748325182
20
-270.10431711539184
30
0
0
SPLINE
5
17A
100
AcDbEntity
8
INSETS D 0.5
100
AcDbSpline
70
0
71
3
72
9
73
5
74
0
42
0.000000001
43
0.0000000001
44
0.0000000001
40
0
40
0
40
0
40
0
40
0.13725072212171166
40
0.26604684570694714
40
0.26604684570694714
40
0.26604684570694714
40
0.26604684570694714
10
57.261516181514267
20
-270.77075176437808
30
0
10
57.562397658393976
20
-270.40122884278219
30
0
10
58.145626413901056
20
-269.68494548785878
30
0
10
59.058662093995224
20
-269.56378628320488
30
0
10
59.500672432357476
20
-269.50513181633971
30
0
0
SPLINE
5
17B
100
AcDbEntity
8
INSETS D 0.5
100
AcDbSpline
70
0
71
3
72
9
73
5
74
0
42
0.000000001
43
0.0000000001
44
0.0000000001
40
0
40
0
40
0
40
0
40
0.059449715472313654
40
0.12006928633844845
40
0.12006928633844845
40
0.12006928633844845
40
0.12006928633844845
10
56.536360981263165
20
-269.83521852459501
30
0
10
56.695542927270196
20
-269.95889888252469
30
0
10
57.017039212040991
20
-270.20869338856602
30
0
10
57.179496242900441
20
-270.58218597194036
30
0
10
57.261516181514267
20
-270.77075176437808
30
0
0
SPLINE
5
17C
100
AcDbEntity
8
INSETS D 0.5
100
AcDbSpline
70
0
71
3
72
9
73
5
74
0
42
0.000000001
43
0.0000000001
44
0.0000000001
40
0
40
0
40
0
40
0
40
0.073718735016072456
40
0.13759180569999724
40
0.13759180569999724
40
0.13759180569999724
40
0.13759180569999724
10
55.216912280590343
20
-269.4991256407526
30
0
10
55.465901568912919
20
-269.50895460680516
30
0
10
55.930625845215154
20
-269.52729981019263
30
0
10
56.344316770604827
20
-269.73759498761461
30
0
10
56.536360981263165
20
-269.83521852459501
30
0
0
SPLINE
5
17D
100
AcDbEntity
8
INSETS D 0.5
100
AcDbSpline
70
0
71
3
72
9
73
5
74
0
42
0.000000001
43
0.0000000001
44
0.0000000001
40
0
40
0
40
0
40
0
40
0.065234200665278214
40
0.13409573818419929
40
0.13409573818419929
40
0.13409573818419929
40
0.13409573818419929
10
53.927234634380426
20
-269.82132857664493
30
0
10
54.125723988087401
20
-269.72712285427127
30
0
10
54.533739662926621
20
-269.53347311603517
30
0
10
54.98511809297046
20
-269.51077942330193
30
0
10
55.216912280590343
20
-269.4991256407526
30
0
0
SPLINE
5
17E
100
AcDbEntity
8
INSETS D 0.5
100
AcDbSpline
70
0
71
3
72
9
73
5
74
0
42
0.000000001
43
0.0000000001
44
0.0000000001
40
0
40
0
40
0
40
0
40
0.062315673444819461
40
0.12567044352663501
40
0.12567044352663501
40
0.12567044352663501
40
0.12567044352663501
10
53.018804869672742
20
-270.67612684118023
30
0
10
53.142877468368461
20
-270.50717785343443
30
0
10
53.393091542062109
20
-270.1664627002524
30
0
10
53.748208185164437
20
-269.9370057005118
30
0
10
53.927234634380426
20
-269.82132857664493
30
0
0
LINE
5
17F
100
AcDbEntity
8
INSETS D 0.5
100
AcDbLine
10
53.018804869672742
20
-270.67612684118023
30
0
11
53.02022990234817
21
-269.65975659003226
31
0
0
LINE
5
180
100
AcDbEntity
8
INSETS D 0.5
100
AcDbLine
10
53.02022990234817
20
-269.65975659003226
30
0
11
51.922005865078276
21
-269.65821679177839
31
0
0
LINE
5
181
100
AcDbEntity
8
INSETS D 0.5
100
AcDbLine
10
51.922005865078276
20
-269.65821679177839
30
0
11
51.911848922512966
21
-276.90241156993233
31
0
0
LINE
5
182
100
AcDbEntity
8
INSETS D 0.5
100
AcDbLine
10
51.911848922512966
20
-276.90241156993233
30
0
11
53.139677171992673
21
-276.90413308369494
31
0
0
LINE
5
183
100
AcDbEntity
8
INSETS D 0.5
100
AcDbLine
10
95.847688782554869
20
-276.96401314411452
30
0
11
95.8529585339802
21
-273.20548979793836
31
0
0
SPLINE
5
184
100
AcDbEntity
8
INSETS D 0.5
100
AcDbSpline
70
0
71
3
72
9
73
5
74
0
42
0.000000001
43
0.0000000001
44
0.0000000001
40
0
40
0
40
0
40
0
40
0.065814171226856955
40
0.15326644747523999
40
0.15326644747523999
40
0.15326644747523999
40
0.15326644747523999
10
96.052897437105031
20
-271.69144409401832
30
0
10
95.995190485511856
20
-271.90396006671835
30
0
10
95.860803934706126
20
-272.39886211532439
30
0
10
95.855808740814751
20
-272.91244476247806
30
0
10
95.8529585339802
20
-273.20548979793836
30
0
0
SPLINE
5
185
100
AcDbEntity
8
INSETS D 0.5
100
AcDbSpline
70
0
71
3
72
9
73
5
74
0
42
0.000000001
43
0.0000000001
44
0.0000000001
40
0
40
0
40
0
40
0
40
0.050678838953519365
40
0.1036240751753099
40
0.1036240751753099
40
0.1036240751753099
40
0.1036240751753099
10
96.691804567244262
20
-270.89424960440402
30
0
10
96.554408983489211
20
-270.99736604268355
30
0
10
96.273473378140238
20
-271.20821036691694
30
0
10
96.127487056224794
20
-271.52803452413889
30
0
10
96.052897437105031
20
-271.69144409401832
30
0
0
SPLINE
5
186
100
AcDbEntity
8
INSETS D 0.5
100
AcDbSpline
70
0
71
3
72
9
73
5
74
0
42
0.000000001
43
0.0000000001
44
0.0000000001
40
0
40
0
40
0
40
0
40
0.050344764796776173
40
0.10065334826773489
40
0.10065334826773489
40
0.10065334826773489
40
0.10065334826773489
10
97.650576420580464
20
-270.62274202497082
30
0
10
97.481050378851506
20
-270.63385703111021
30
0
10
97.142120128854756
20
-270.65607905535575
30
0
10
96.841873778459515
20
-270.81487844898015
30
0
10
96.691804567244262
20
-270.89424960440402
30
0
0
SPLINE
5
187
100
AcDbEntity
8
INSETS D 0.5
100
AcDbSpline
70
0
71
3
72
9
73
5
74
0
42
0.000000001
43
0.0000000001
44
0.0000000001
40
0
40
0
40
0
40
0
40
0.050075054649194976
40
0.10962359007783611
40
0.10962359007783611
40
0.10962359007783611
40
0.10962359007783611
10
98.632267088754389
20
-271.03339591786101
30
0
10
98.507990926706384
20
-270.9140837351664
30
0
10
98.235927338553751
20
-270.65288721928374
30
0
10
97.856619761188526
20
-270.63335312396941
30
0
10
97.650576420580464
20
-270.62274202497082
30
0
0
SPLINE
5
188
100
AcDbEntity
8
INSETS D 0.5
100
AcDbSpline
70
0
71
3
72
9
73
5
74
0
42
0.000000001
43
0.0000000001
44
0.0000000001
40
0
40
0
40
0
40
0
40
0.072015418247593818
40
0.12790825478747944
40
0.12790825478747944
40
0.12790825478747944
40
0.12790825478747944
10
98.930680890800886
20
-272.26164617323917
30
0
10
98.926186175204691
20
-272.01753992897977
30
0
10
98.918203006576846
20
-271.58397716636978
30
0
10
98.719218528489137
20
-271.20082445434349
30
0
10
98.632267088754389
20
-271.03339591786101
30
0
0
LINE
5
189
100
AcDbEntity
8
INSETS D 0.5
100
AcDbLine
10
98.930680890800886
20
-272.26164617323917
30
0
11
98.924081747189319
21
-276.96832649399079
31
0
0
LINE
5
18A
100
AcDbEntity
8
INSETS D 0.5
100
AcDbLine
10
98.924081747189319
20
-276.96832649399079
30
0
11
100.15191238085249
21
-276.97004801109625
31
0
0
LINE
5
18B
100
AcDbEntity
8
INSETS D 0.5
100
AcDbLine
10
100.15191238085249
20
-276.97004801109625
30
0
11
100.15781335465934
21
-272.76132049660754
31
0
0
SPLINE
5
18C
100
AcDbEntity
8
INSETS D 0.5
100
AcDbSpline
70
0
71
3
72
9
73
5
74
0
42
0.000000001
43
0.0000000001
44
0.0000000001
40
0
40
0
40
0
40
0
40
0.076157398894157943
40
0.17358451585963183
40
0.17358451585963183
40
0.17358451585963183
40
0.17358451585963183
10
100.66486891346923
20
-271.13515442958004
30
0
10
100.517907016184
20
-271.348320293548
30
0
10
100.18293877724075
20
-271.83418632668412
30
0
10
100.16684579898333
20
-272.4280211165248
30
0
10
100.15781335465934
20
-272.76132049660754
30
0
0
SPLINE
5
18D
100
AcDbEntity
8
INSETS D 0.5
100
AcDbSpline
70
0
71
3
72
9
73
5
74
0
42
0.000000001
43
0.0000000001
44
0.0000000001
40
0
40
0
40
0
40
0
40
0.071062581321754512
40
0.13959655210358468
40
0.13959655210358468
40
0.13959655210358468
40
0.13959655210358468
10
101.93433895653104
20
-270.62874820390078
30
0
10
101.69204058387271
20
-270.6480064122909
30
0
10
101.2160655098705
20
-270.68583756675986
30
0
10
100.8463689208161
20
-270.98720174911108
30
0
10
100.66486891346923
20
-271.13515442958004
30
0
0
SPLINE
5
18E
100
AcDbEntity
8
INSETS D 0.5
100
AcDbSpline
70
0
71
3
72
9
73
5
74
0
42
0.000000001
43
0.0000000001
44
0.0000000001
40
0
40
0
40
0
40
0
40
0.037193450169375662
40
0.077064991645630146
40
0.077064991645630146
40
0.077064991645630146
40
0.077064991645630146
10
102.6707599815667
20
-270.82759800690053
30
0
10
102.55940568379415
20
-270.7697642654731
30
0
10
102.32867909111542
20
-270.64993249994336
30
0
10
102.0687960728152
20
-270.63597135748466
30
0
10
101.93433895653104
20
-270.62874820390078
30
0
0
SPLINE
5
18F
100
AcDbEntity
8
INSETS D 0.5
100
AcDbSpline
70
0
71
3
72
9
73
5
74
0
42
0.000000001
43
0.0000000001
44
0.0000000001
40
0
40
0
40
0
40
0
40
0.033726870352541453
40
0.068787619372424363
40
0.068787619372424363
40
0.068787619372424363
40
0.068787619372424363
10
103.10317724965299
20
-271.35003273970472
30
0
10
103.05444880593632
20
-271.24660750830537
30
0
10
102.95506473608472
20
-271.03566663603823
30
0
10
102.76674548232737
20
-270.89784506131309
30
0
10
102.6707599815667
20
-270.82759800690053
30
0
0
SPLINE
5
190
100
AcDbEntity
8
INSETS D 0.5
100
AcDbSpline
70
0
71
3
72
9
73
5
74
0
42
0.000000001
43
0.0000000001
44
0.0000000001
40
0
40
0
40
0
40
0
40
0.063422942586494641
40
0.10706936639098096
40
0.10706936639098096
40
0.10706936639098096
40
0.10706936639098096
10
103.22106134747062
20
-272.41090901856717
30
0
10
103.22131037464163
20
-272.19847133308531
30
0
10
103.22173077742221
20
-271.83983820358202
30
0
10
103.13750966770831
20
-271.49187757779646
30
0
10
103.10317724965299
20
-271.35003273970472
30
0
0
LINE
5
191
100
AcDbEntity
8
INSETS D 0.5
100
AcDbLine
10
103.22106134747062
20
-272.41090901856717
30
0
11
103.21466304779996
21
-276.97434223337609
31
0
0
LINE
5
192
100
AcDbEntity
8
INSETS D 0.5
100
AcDbLine
10
103.21466304779996
20
-276.97434223337609
30
0
11
104.43567491680305
21
-276.97605419002616
31
0
0
LINE
5
193
100
AcDbEntity
8
INSETS D 0.5
100
AcDbLine
10
104.43567491680305
20
-276.97605419002616
30
0
11
104.44264705523032
21
-272.00334429601151
31
0
0
SPLINE
5
194
100
AcDbEntity
8
INSETS D 0.5
100
AcDbSpline
70
0
71
3
72
9
73
5
74
0
42
0.000000001
43
0.0000000001
44
0.0000000001
40
0
40
0
40
0
40
0
40
0.087389408030147678
40
0.19638958338479454
40
0.19638958338479454
40
0.19638958338479454
40
0.19638958338479454
10
103.86541497470392
20
-270.16419717246856
30
0
10
104.03365767614159
20
-270.40908656734183
30
0
10
104.41174827988463
20
-270.95942472981034
30
0
10
104.4316186175223
20
-271.6307469429052
30
0
10
104.44264705523032
20
-272.00334429601151
30
0
0
SPLINE
5
195
100
AcDbEntity
8
INSETS D 0.5
100
AcDbSpline
70
0
71
3
72
9
73
5
74
0
42
0.000000001
43
0.0000000001
44
0.0000000001
40
0
40
0
40
0
40
0
40
0.096488141245889655
40
0.1799401023490915
40
0.1799401023490915
40
0.1799401023490915
40
0.1799401023490915
10
102.20868165873623
20
-269.56501187341644
30
0
10
102.53883426991732
20
-269.58229284734676
30
0
10
103.15453371110931
20
-269.6145200223919
30
0
10
103.64018254066274
20
-269.99003992738579
30
0
10
103.86541497470392
20
-270.16419717246856
30
0
0
SPLINE
5
196
100
AcDbEntity
8
INSETS D 0.5
100
AcDbSpline
70
0
71
3
72
9
73
5
74
0
42
0.000000001
43
0.0000000001
44
0.0000000001
40
0
40
0
40
0
40
0
40
0.13725055030732103
40
0.26604713604351443
40
0.26604713604351443
40
0.26604713604351443
40
0.26604713604351443
10
99.96952302370957
20
-270.83063181811201
30
0
10
100.27040368629983
20
-270.46110887832094
30
0
10
100.85363222996526
20
-269.7448238097827
30
0
10
101.76666946428412
20
-269.6236658729639
30
0
10
102.20868165873623
20
-269.56501187341644
30
0
0
SPLINE
5
197
100
AcDbEntity
8
INSETS D 0.5
100
AcDbSpline
70
0
71
3
72
9
73
5
74
0
42
0.000000001
43
0.0000000001
44
0.0000000001
40
0
40
0
40
0
40
0
40
0.059449715472313654
40
0.12006928633844845
40
0.12006928633844845
40
0.12006928633844845
40
0.12006928633844845
10
99.244367823458475
20
-269.89509857832894
30
0
10
99.403549769465513
20
-270.01877893625863
30
0
10
99.725046054236302
20
-270.2685734422999
30
0
10
99.887503085095744
20
-270.6420660256743
30
0
10
99.96952302370957
20
-270.83063181811201
30
0
0
SPLINE
5
198
100
AcDbEntity
8
INSETS D 0.5
100
AcDbSpline
70
0
71
3
72
9
73
5
74
0
42
0.000000001
43
0.0000000001
44
0.0000000001
40
0
40
0
40
0
40
0
40
0.073718735016072456
40
0.13759180569999724
40
0.13759180569999724
40
0.13759180569999724
40
0.13759180569999724
10
97.924919122785639
20
-269.55900569448647
30
0
10
98.173908411108215
20
-269.56883466053904
30
0
10
98.63863268741045
20
-269.58717986392651
30
0
10
99.052323612800137
20
-269.79747504134849
30
0
10
99.244367823458475
20
-269.89509857832894
30
0
0
SPLINE
5
199
100
AcDbEntity
8
INSETS D 0.5
100
AcDbSpline
70
0
71
3
72
9
73
5
74
0
42
0.000000001
43
0.0000000001
44
0.0000000001
40
0
40
0
40
0
40
0
40
0.065233979406797496
40
0.1340952801624043
40
0.1340952801624043
40
0.1340952801624043
40
0.1340952801624043
10
96.635246244942635
20
-269.88120863706445
30
0
10
96.833734791214923
20
-269.78700291352607
30
0
10
97.241748796545338
20
-269.59335317751965
30
0
10
97.693125716088758
20
-269.57065947949138
30
0
10
97.924919122785639
20
-269.55900569448647
30
0
0
SPLINE
5
19A
100
AcDbEntity
8
INSETS D 0.5
100
AcDbSpline
70
0
71
3
72
9
73
5
74
0
42
0.000000001
43
0.0000000001
44
0.0000000001
40
0
40
0
40
0
40
0
40
0.062315673444819461
40
0.12567044352663501
40
0.12567044352663501
40
0.12567044352663501
40
0.12567044352663501
10
95.726816480234959
20
-270.73600690159981
30
0
10
95.850889078930663
20
-270.567057913854
30
0
10
96.101103152624304
20
-270.22634276067197
30
0
10
96.456219795726639
20
-269.99688576093132
30
0
10
96.635246244942635
20
-269.88120863706445
30
0
0
LINE
5
19B
100
AcDbEntity
8
INSETS D 0.5
100
AcDbLine
10
95.726816480234959
20
-270.73600690159981
30
0
11
95.728241512910358
21
-269.71963665045178
31
0
0
LINE
5
19C
100
AcDbEntity
8
INSETS D 0.5
100
AcDbLine
10
95.728241512910358
20
-269.71963665045178
30
0
11
94.630015091457039
21
-269.71809684885505
31
0
0
LINE
5
19D
100
AcDbEntity
8
INSETS D 0.5
100
AcDbLine
10
94.630015091457039
20
-269.71809684885505
30
0
11
94.619858148891723
21
-276.96229162700899
31
0
0
LINE
5
19E
100
AcDbEntity
8
INSETS D 0.5
100
AcDbLine
10
94.619858148891723
20
-276.96229162700899
30
0
11
95.847688782554869
21
-276.96401314411452
31
0
0
ENDSEC
0
SECTION
2
OBJECTS
0
DICTIONARY
5
C
100
AcDbDictionary
3
ACAD_GROUP
350
D
3
ACAD_MLINESTYLE
350
17
0
DICTIONARY
5
D
100
AcDbDictionary
0
DICTIONARY
5
1A
330
C
100
AcDbDictionary
0
DICTIONARY
5
17
100
AcDbDictionary
0
ENDSEC
0
EOF
