0
SECTION
2
HEADER
9
$INSUNITS
70
4
9
$ACADVER
1
AC1014
9
$HANDSEED
5
FFFF
0
ENDSEC
0
SECTION
2
TABLES
0
TABLE
2
VPORT
5
8
100
AcDbSymbolTable
0
ENDTAB
0
TABLE
2
LTYPE
5
5
100
AcDbSymbolTable
70
3
0
LTYPE
5
14
100
AcDbSymbolTableRecord
100
AcDbLinetypeTableRecord
2
BYBLOCK
70
0
0
LTYPE
5
15
100
AcDbSymbolTableRecord
100
AcDbLinetypeTableRecord
2
BYLAYER
70
0
0
LTYPE
5
16
100
AcDbSymbolTableRecord
100
AcDbLinetypeTableRecord
2
DASHED
70
0
3
Dashed __ __ __ __ __ __ __ __ __ __ __ __ __ _
72
65
73
2
40
0.75
49
0.5
74
0
49
-0.25
74
0
0
ENDTAB
0
TABLE
2
LAYER
5
2
100
AcDbSymbolTable
70
6
0
LAYER
5
50
100
AcDbSymbolTableRecord
100
AcDbLayerTableRecord
2
0
70
0
6
CONTINUOUS
0
LAYER
5
51
100
AcDbSymbolTableRecord
100
AcDbLayerTableRecord
2
PERIMETER D 6.0
70
0
62
5
6
CONTINUOUS
0
LAYER
5
52
100
AcDbSymbolTableRecord
100
AcDbLayerTableRecord
2
INSETS D 0.5
70
0
62
3
6
CONTINUOUS
0
LAYER
5
53
100
AcDbSymbolTableRecord
100
AcDbLayerTableRecord
2
HOLES DIAM 12.0 D 6.0
70
0
62
5
6
CONTINUOUS
0
LAYER
5
54
100
AcDbSymbolTableRecord
100
AcDbLayerTableRecord
2
CUTOUTS D 6.0
70
0
62
5
6
CONTINUOUS
0
LAYER
5
55
100
AcDbSymbolTableRecord
100
AcDbLayerTableRecord
2
HOLES DIAM 2.5 D 6.0
70
0
62
5
6
CONTINUOUS
0
ENDTAB
0
TABLE
2
STYLE
5
3
100
AcDbSymbolTable
70
1
0
STYLE
5
11
100
AcDbSymbolTableRecord
100
AcDbTextStyleTableRecord
2
STANDARD
70
0
0
ENDTAB
0
TABLE
2
VIEW
5
6
100
AcDbSymbolTable
0
ENDTAB
0
TABLE
2
UCS
5
7
100
AcDbSymbolTable
0
ENDTAB
0
TABLE
2
APPID
5
9
100
AcDbSymbolTable
70
1
0
APPID
5
12
100
AcDbSymbolTableRecord
100
AcDbRegAppTableRecord
2
ACAD
70
0
0
ENDTAB
0
TABLE
2
DIMSTYLE
5
A
100
AcDbSymbolTable
0
ENDTAB
0
TABLE
2
BLOCK_RECORD
5
1
100
AcDbSymbolTable
70
2
0
BLOCK_RECORD
5
1F
100
AcDbSymbolTableRecord
100
AcDbBlockTableRecord
2
*MODEL_SPACE
0
BLOCK_RECORD
5
1B
100
AcDbSymbolTableRecord
100
AcDbBlockTableRecord
2
*PAPER_SPACE
0
ENDTAB
0
ENDSEC
0
SECTION
2
BLOCKS
0
BLOCK
5
20
100
AcDbEntity
100
AcDbBlockBegin
2
*MODEL_SPACE
0
ENDBLK
5
21
100
AcDbEntity
100
AcDbBlockEnd
0
BLOCK
5
1C
100
AcDbEntity
100
AcDbBlockBegin
2
*PAPER_SPACE
0
ENDBLK
5
1D
100
AcDbEntity
100
AcDbBlockEnd
0
ENDSEC
0
SECTION
2
ENTITIES
0
LWPOLYLINE
5
100
100
AcDbEntity
8
PERIMETER D 6.0
100
AcDbPolyline
90
20
70
1
43
0.0
10
35.999999999999957
20
-68.59999999999998
10
15.999999999999959
20
-68.599999999999937
42
-0.99999999999999989
10
15.999999999999963
20
-38.599999999999987
10
35.999999999999957
20
-38.600000000000001
10
35.999999999999957
20
-33.599999999999987
10
147.99999999999994
20
-33.599999999999994
10
147.99999999999997
20
-38.599999999999994
10
158.99999999999997
20
-38.600000000000009
10
158.99999999999997
20
-33.600000000000009
10
174
20
-33.599999999999952
10
174
20
-38.600000000000001
10
180
20
-38.600000000000001
10
179.99999999999997
20
-43.599999999999703
10
185.99999999999994
20
-43.600000000000051
10
185.99999999999994
20
-38.600000000000001
10
194
20
-38.60000000000003
42
-0.99999999999999989
10
194
20
-68.599999999999994
10
174
20
-68.599999999999994
10
174
20
-73.600000000000051
10
35.999999999999979
20
-73.600000000000009
0
LWPOLYLINE
5
101
100
AcDbEntity
8
PERIMETER D 6.0
100
AcDbPolyline
90
4
70
1
43
0.0
10
131.08143316649915
20
-142.4775580496198
10
134.95189242226098
20
-127.93130280591066
42
-6.8786312571923549
10
116.96860573238637
20
-117.73664080591274
10
111.75391158007255
20
-137.33490218652588
0
CIRCLE
5
102
100
AcDbEntity
8
PERIMETER D 6.0
100
AcDbCircle
10
37.299999999999997
20
-152.53999999999999
30
0
40
36.299999999999997
210
0
220
0
230
1
0
LWPOLYLINE
5
103
100
AcDbEntity
8
PERIMETER D 6.0
100
AcDbPolyline
90
4
70
1
43
0.0
10
6.9528269468237358
20
-290.84684072228561
10
7.9101443014032196
20
-290.12327767553643
42
-14.45079967736555
10
14.747457805438412
20
-296.96059117957162
10
14.02389475868922
20
-297.91790853415114
42
-0.069200322634484626
0
CIRCLE
5
104
100
AcDbEntity
8
PERIMETER D 6.0
100
AcDbCircle
10
107.30000000000001
20
-268.98000000000002
30
0
40
35.100000000000001
210
0
220
-0
230
1
0
SPLINE
5
105
100
AcDbEntity
8
INSETS D 0.5
100
AcDbSpline
70
0
71
3
72
9
73
5
74
0
42
0.000000001
43
0.0000000001
44
0.0000000001
40
0
40
0
40
0
40
0
40
0.025793756060664842
40
0.055616624022108138
40
0.055616624022108138
40
0.055616624022108138
40
0.055616624022108138
10
104.04623533188109
20
-51.998363099063063
30
0
10
104.11650604589937
20
-52.051210988212077
30
0
10
104.26802410601155
20
-52.165161867419044
30
0
10
104.45815801455197
20
-52.1746966395527
30
0
10
104.56011203547816
20
-52.179809395952141
30
0
0
SPLINE
5
106
100
AcDbEntity
8
INSETS D 0.5
100
AcDbSpline
70
0
71
3
72
9
73
5
74
0
42
0.000000001
43
0.0000000001
44
0.0000000001
40
0
40
0
40
0
40
0
40
0.028837279285746701
40
0.054351682200206315
40
0.054351682200206315
40
0.054351682200206315
40
0.054351682200206315
10
103.86493819344615
20
-51.497681129732911
30
0
10
103.87046465482882
20
-51.596216608549526
30
0
10
103.88088077175115
20
-51.78193347098366
30
0
10
103.9934103703866
20
-51.929221451196938
30
0
10
104.04623533188109
20
-51.998363099063063
30
0
0
SPLINE
5
107
100
AcDbEntity
8
INSETS D 0.5
100
AcDbSpline
70
0
71
3
72
9
73
5
74
0
42
0.000000001
43
0.0000000001
44
0.0000000001
40
0
40
0
40
0
40
0
40
0.025680705984347178
40
0.054730718411898131
40
0.054730718411898131
40
0.054730718411898131
40
0.054730718411898131
10
104.04894242522538
20
-50.994270703354026
30
0
10
103.99532925469163
20
-51.063569725861868
30
0
10
103.88106887020534
20
-51.211259796742645
30
0
10
103.8705313215512
20
-51.398367800766763
30
0
10
103.86493819344615
20
-51.497681129732911
30
0
0
SPLINE
5
108
100
AcDbEntity
8
INSETS D 0.5
100
AcDbSpline
70
0
71
3
72
9
73
5
74
0
42
0.000000001
43
0.0000000001
44
0.0000000001
40
0
40
0
40
0
40
0
40
0.029488533329551214
40
0.055339733118414003
40
0.055339733118414003
40
0.055339733118414003
40
0.055339733118414003
10
104.56011183178148
20
-50.812824253721168
30
0
10
104.45937597526307
20
-50.818187078334596
30
0
10
104.27032976693241
20
-50.828251237156969
30
0
10
104.11943217323369
20
-50.94141009151204
30
0
10
104.04894242522538
20
-50.994270703354026
30
0
0
LINE
5
109
100
AcDbEntity
8
INSETS D 0.5
100
AcDbLine
10
104.56011183178148
20
-50.812824253721168
30
0
11
106.99999935543258
21
-50.812823890149588
31
0
0
LINE
5
10A
100
AcDbEntity
8
INSETS D 0.5
100
AcDbLine
10
106.99999935543258
20
-50.812823890149588
30
0
11
106.9999991716584
21
-49.57953613847495
31
0
0
LINE
5
10B
100
AcDbEntity
8
INSETS D 0.5
100
AcDbLine
10
106.9999991716584
20
-49.57953613847495
30
0
11
104.61685646192637
21
-49.579536493590901
31
0
0
SPLINE
5
10C
100
AcDbEntity
8
INSETS D 0.5
100
AcDbSpline
70
0
71
3
72
9
73
5
74
0
42
0.000000001
43
0.0000000001
44
0.0000000001
40
0
40
0
40
0
40
0
40
0.037003835788128901
40
0.068761696221264712
40
0.068761696221264712
40
0.068761696221264712
40
0.068761696221264712
10
103.94065430100133
20
-49.694134123525771
30
0
10
104.05985478455007
20
-49.660770021432086
30
0
10
104.28135688736276
20
-49.598771793302532
30
0
10
104.51085968857211
20
-49.585613639013772
30
0
10
104.61685646192636
20
-49.579536493590894
30
0
0
SPLINE
5
10D
100
AcDbEntity
8
INSETS D 0.5
100
AcDbSpline
70
0
71
3
72
9
73
5
74
0
42
0.000000001
43
0.0000000001
44
0.0000000001
40
0
40
0
40
0
40
0
40
0.027887698973578814
40
0.053368174724863771
40
0.053368174724863771
40
0.053368174724863771
40
0.053368174724863771
10
103.4798550038029
20
-49.95743562432294
30
0
10
103.55300311392992
20
-49.898979942090236
30
0
10
103.69298530198171
20
-49.787114382080723
30
0
10
103.86061838553854
20
-49.724181324196302
30
0
10
103.94065430100133
20
-49.694134123525771
30
0
0
SPLINE
5
10E
100
AcDbEntity
8
INSETS D 0.5
100
AcDbSpline
70
0
71
3
72
9
73
5
74
0
42
0.000000001
43
0.0000000001
44
0.0000000001
40
0
40
0
40
0
40
0
40
0.026622782045361695
40
0.05492819088698473
40
0.05492819088698473
40
0.05492819088698473
40
0.05492819088698473
10
103.13493252445409
20
-50.381719418625067
30
0
10
103.18071883372583
20
-50.30513926543194
30
0
10
103.27518526219319
20
-50.147138900722517
30
0
10
103.41025257482394
20
-50.021948378962819
30
0
10
103.4798550038029
20
-49.95743562432294
30
0
0
SPLINE
5
10F
100
AcDbEntity
8
INSETS D 0.5
100
AcDbSpline
70
0
71
3
72
9
73
5
74
0
42
0.000000001
43
0.0000000001
44
0.0000000001
40
0
40
0
40
0
40
0
40
0.032266958241887161
40
0.060189616016361899
40
0.060189616016361899
40
0.060189616016361899
40
0.060189616016361899
10
102.97269353573878
20
-50.958800139621772
30
0
10
102.9880308150577
20
-50.851742785481335
30
0
10
103.01664042077329
20
-50.652041871960563
30
0
10
103.09744592030241
20
-50.467384230444154
30
0
10
103.13493252445409
20
-50.381719418625067
30
0
0
SPLINE
5
110
100
AcDbEntity
8
INSETS D 0.5
100
AcDbSpline
70
0
71
3
72
9
73
5
74
0
42
0.000000001
43
0.0000000001
44
0.0000000001
40
0
40
0
40
0
40
0
40
0.030542334590391865
40
0.063869389888997014
40
0.063869389888997014
40
0.063869389888997014
40
0.063869389888997014
10
102.93178696296584
20
-51.595907637210559
30
0
10
102.93377016540066
20
-51.494067233220349
30
0
10
102.93791739026859
20
-51.281101048541387
30
0
10
102.96076936998435
20
-51.06931179664403
30
0
10
102.97269353573878
20
-50.958800139621772
30
0
0
SPLINE
5
111
100
AcDbEntity
8
INSETS D 0.5
100
AcDbSpline
70
0
71
3
72
9
73
5
74
0
42
0.000000001
43
0.0000000001
44
0.0000000001
40
0
40
0
40
0
40
0
40
0.040878923109841356
40
0.087860059765446141
40
0.087860059765446141
40
0.087860059765446141
40
0.087860059765446141
10
103.06539924776608
20
-52.460846412867348
30
0
10
103.02647895301075
20
-52.329627964381899
30
0
10
102.94282852479122
20
-52.047603394035882
30
0
10
102.93563404485755
20
-51.75328669228734
30
0
10
102.93178696296584
20
-51.595907637210559
30
0
0
SPLINE
5
112
100
AcDbEntity
8
INSETS D 0.5
100
AcDbSpline
70
0
71
3
72
9
73
5
74
0
42
0.000000001
43
0.0000000001
44
0.0000000001
40
0
40
0
40
0
40
0
40
0.031428593968887357
40
0.059933725779917429
40
0.059933725779917429
40
0.059933725779917429
40
0.059933725779917429
10
103.39667836094333
20
-52.956071554619257
30
0
10
103.32479344857359
20
-52.878751632973781
30
0
10
103.18771029970773
20
-52.731304025683059
30
0
10
103.10482188112559
20
-52.548018840379541
30
0
10
103.06539924776608
20
-52.460846412867348
30
0
0
SPLINE
5
113
100
AcDbEntity
8
INSETS D 0.5
100
AcDbSpline
70
0
71
3
72
9
73
5
74
0
42
0.000000001
43
0.0000000001
44
0.0000000001
40
0
40
0
40
0
40
0
40
0.03274943308508807
40
0.065494732904542274
40
0.065494732904542274
40
0.065494732904542274
40
0.065494732904542274
10
103.9474759942517
20
-53.302592909712132
30
0
10
103.84579627314071
20
-53.260530745788827
30
0
10
103.64244966379118
20
-53.176411726556125
30
0
10
103.47859868176997
20
-53.029515188464671
30
0
10
103.39667836094333
20
-52.956071554619257
30
0
0
SPLINE
5
114
100
AcDbEntity
8
INSETS D 0.5
100
AcDbSpline
70
0
71
3
72
9
73
5
74
0
42
0.000000001
43
0.0000000001
44
0.0000000001
40
0
40
0
40
0
40
0
40
0.03456759780397254
40
0.068089360860698084
40
0.068089360860698084
40
0.068089360860698084
40
0.068089360860698084
10
104.61685703317147
20
-53.413097437194367
30
0
10
104.5011857961304
20
-53.408782601260441
30
0
10
104.27334292880836
20
-53.400283473764638
30
0
10
104.0549803082194
20
-53.334821270297013
30
0
10
103.9474759942517
20
-53.302592909712132
30
0
0
LINE
5
115
100
AcDbEntity
8
INSETS D 0.5
100
AcDbLine
10
104.61685703317147
20
-53.413097437194367
30
0
11
106.9999997429035
21
-53.413097082078423
31
0
0
LINE
5
116
100
AcDbEntity
8
INSETS D 0.5
100
AcDbLine
10
106.9999997429035
20
-53.413097082078423
30
0
11
106.99999955912926
21
-52.179809032380568
31
0
0
LINE
5
117
100
AcDbEntity
8
INSETS D 0.5
100
AcDbLine
10
106.99999955912926
20
-52.179809032380568
30
0
11
104.56011203547816
21
-52.179809395952141
31
0
0
LINE
5
118
100
AcDbEntity
8
INSETS D 0.5
100
AcDbLine
10
103.00000010248297
20
-54.226194439828326
30
0
11
103.00000028747687
21
-55.467667399346745
31
0
0
LINE
5
119
100
AcDbEntity
8
INSETS D 0.5
100
AcDbLine
10
103.00000028747687
20
-55.467667399346745
30
0
11
104.48431151050696
21
-55.467667178167147
31
0
0
LINE
5
11A
100
AcDbEntity
8
INSETS D 0.5
100
AcDbLine
10
104.48431151050696
20
-55.467667178167147
30
0
11
104.48431161133882
21
-56.144338444722912
31
0
0
SPLINE
5
11B
100
AcDbEntity
8
INSETS D 0.5
100
AcDbSpline
70
0
71
3
72
9
73
5
74
0
42
0.000000001
43
0.0000000001
44
0.0000000001
40
0
40
0
40
0
40
0
40
0.052642306460381857
40
0.11837499645056103
40
0.11837499645056103
40
0.11837499645056103
40
0.11837499645056103
10
104.8253755148896
20
-57.256208205912166
30
0
10
104.72621166745145
20
-57.107429018979389
30
0
10
104.5032252354769
20
-56.772874230078976
30
0
10
104.4910644168088
20
-56.368747043436372
30
0
10
104.48431161133882
20
-56.144338444722912
30
0
0
SPLINE
5
11C
100
AcDbEntity
8
INSETS D 0.5
100
AcDbSpline
70
0
71
3
72
9
73
5
74
0
42
0.000000001
43
0.0000000001
44
0.0000000001
40
0
40
0
40
0
40
0
40
0.05471945209696067
40
0.10375722458074373
40
0.10375722458074373
40
0.10375722458074373
40
0.10375722458074373
10
105.77216972142777
20
-57.6204639699802
30
0
10
105.58483064042485
20
-57.608899954476271
30
0
10
105.22960443922081
20
-57.586972648779366
30
0
10
104.95510807422431
20
-57.362363196629545
30
0
10
104.8253755148896
20
-57.256208205912166
30
0
0
SPLINE
5
11D
100
AcDbEntity
8
INSETS D 0.5
100
AcDbSpline
70
0
71
3
72
9
73
5
74
0
42
0.000000001
43
0.0000000001
44
0.0000000001
40
0
40
0
40
0
40
0
40
0.046090111181950923
40
0.098937705854362012
40
0.098937705854362012
40
0.098937705854362012
40
0.098937705854362012
10
106.6807643991379
20
-57.286221252267865
30
0
10
106.55714789760935
20
-57.383586919900537
30
0
10
106.29179090988815
20
-57.592593484161696
30
0
10
105.95308796486536
20
-57.61076020991419
30
0
10
105.77216972142777
20
-57.6204639699802
30
0
0
SPLINE
5
11E
100
AcDbEntity
8
INSETS D 0.5
100
AcDbSpline
70
0
71
3
72
9
73
5
74
0
42
0.000000001
43
0.0000000001
44
0.0000000001
40
0
40
0
40
0
40
0
40
0.059237248112409047
40
0.10745092487812209
40
0.10745092487812209
40
0.10745092487812209
40
0.10745092487812209
10
107.0000001702191
20
-56.280763565003809
30
0
10
106.99309329750328
20
-56.483110114627991
30
0
10
106.9805648650561
20
-56.850148162407606
30
0
10
106.77362098056585
20
-57.151157231426104
30
0
10
106.6807643991379
20
-57.286221252267865
30
0
0
LINE
5
11F
100
AcDbEntity
8
INSETS D 0.5
100
AcDbLine
10
107.0000001702191
20
-56.280763565003809
30
0
11
106.99999986406436
21
-54.226193843781907
31
0
0
LINE
5
120
100
AcDbEntity
8
INSETS D 0.5
100
AcDbLine
10
106.99999986406436
20
-54.226193843781907
30
0
11
103.00000010248297
21
-54.226194439828326
31
0
0
LINE
5
121
100
AcDbEntity
8
INSETS D 0.5
100
AcDbLine
10
106.18690328735475
20
-55.467666924461192
30
0
11
106.18690333980365
21
-55.819645464881724
31
0
0
SPLINE
5
122
100
AcDbEntity
8
INSETS D 0.5
100
AcDbSpline
70
0
71
3
72
9
73
5
74
0
42
0.000000001
43
0.0000000001
44
0.0000000001
40
0
40
0
40
0
40
0
40
0.020572811255447986
40
0.049883145410314203
40
0.049883145410314203
40
0.049883145410314203
40
0.049883145410314203
10
106.05593531626999
20
-56.291678508231712
30
0
10
106.09384939301115
20
-56.233051198351689
30
0
10
106.18578011554075
20
-56.090896847764995
30
0
10
106.18648762276916
20
-55.920038435564798
30
0
10
106.18690333980365
20
-55.819645464881717
30
0
0
SPLINE
5
123
100
AcDbEntity
8
INSETS D 0.5
100
AcDbSpline
70
0
71
3
72
9
73
5
74
0
42
0.000000001
43
0.0000000001
44
0.0000000001
40
0
40
0
40
0
40
0
40
0.017675039770936377
40
0.034987269901764914
40
0.034987269901764914
40
0.034987269901764914
40
0.034987269901764914
10
105.73669881802003
20
-56.417189248398088
30
0
10
105.79683568076065
20
-56.412180256130327
30
0
10
105.9158749969387
20
-56.402265089506713
30
0
10
106.00957241645355
20
-56.328284983307398
30
0
10
106.05593531626999
20
-56.291678508231712
30
0
0
SPLINE
5
124
100
AcDbEntity
8
INSETS D 0.5
100
AcDbSpline
70
0
71
3
72
9
73
5
74
0
42
0.000000001
43
0.0000000001
44
0.0000000001
40
0
40
0
40
0
40
0
40
0.017831727984632669
40
0.035831548290512209
40
0.035831548290512209
40
0.035831548290512209
40
0.035831548290512209
10
105.41882722588424
20
-56.272578890796382
30
0
10
105.46325879431112
20
-56.314756654990568
30
0
10
105.55254076917541
20
-56.399509775709554
30
0
10
105.67512111948633
20
-56.411277689026782
30
0
10
105.73669881802003
20
-56.417189248398088
30
0
0
SPLINE
5
125
100
AcDbEntity
8
INSETS D 0.5
100
AcDbSpline
70
0
71
3
72
9
73
5
74
0
42
0.000000001
43
0.0000000001
44
0.0000000001
40
0
40
0
40
0
40
0
40
0.030580830797065188
40
0.05244432114403863
40
0.05244432114403863
40
0.05244432114403863
40
0.05244432114403863
10
105.29467961670308
20
-55.770532562631388
30
0
10
105.29538455782571
20
-55.874618712930896
30
0
10
105.29659349027321
20
-56.053120321640563
30
0
10
105.3828625534631
20
-56.208007882553474
30
0
10
105.41882722588424
20
-56.272578890796382
30
0
0
LINE
5
126
100
AcDbEntity
8
INSETS D 0.5
100
AcDbLine
10
105.29467961670308
20
-55.770532562631388
30
0
11
105.2946795715726
21
-55.467667057412882
31
0
0
LINE
5
127
100
AcDbEntity
8
INSETS D 0.5
100
AcDbLine
10
105.2946795715726
20
-55.467667057412882
30
0
11
106.18690328735475
21
-55.467666924461192
31
0
0
LWPOLYLINE
5
128
100
AcDbEntity
8
INSETS D 0.5
100
AcDbPolyline
90
8
70
1
43
0.0
10
83.448024008887785
20
-146.49022058938294
10
83.115207082857182
20
-147.74103855065221
10
87.367200197598976
20
-147.31703827210652
10
87.713873332885939
20
-146.01414484815064
10
84.234945057816219
20
-143.53275387084807
10
83.910437749888715
20
-144.75234199144018
10
84.498405297877127
20
-145.11053232530844
10
84.137579542521678
20
-146.4666152056775
0
LWPOLYLINE
5
129
100
AcDbEntity
8
INSETS D 0.5
100
AcDbPolyline
90
3
70
1
43
0.0
10
85.265231170643361
20
-145.59237019428377
10
86.542466593463203
20
-146.38432103667191
10
85.03936306654893
20
-146.44124493406542
0
LWPOLYLINE
5
12A
100
AcDbEntity
8
INSETS D 0.5
100
AcDbPolyline
90
10
70
1
43
0.0
10
82.452906089906776
20
-150.23014866782421
10
82.15402866165276
20
-151.35341261938092
10
84.276463193269478
20
-151.91814878274482
10
81.768855838670021
20
-152.80099850669038
10
81.469276771999318
20
-153.9268994092711
10
85.334781146885121
20
-154.95543059721621
10
85.634360213555837
20
-153.82952969463548
10
83.495775076923294
20
-153.26049618754823
10
86.02163795178862
20
-152.37403295425395
10
86.318410464792592
20
-151.25867985576929
0
LWPOLYLINE
5
12B
100
AcDbEntity
8
INSETS D 0.5
100
AcDbPolyline
90
4
70
1
43
0.0
10
83.001549322508609
20
-148.16819581629127
10
82.683027244692113
20
-149.3652897884802
10
86.548531619577943
20
-150.39382097642527
10
86.867053697394425
20
-149.19672700423638
0
LWPOLYLINE
5
12C
100
AcDbEntity
8
INSETS D 0.5
100
AcDbPolyline
90
13
70
1
43
0.0
10
85.491492945085881
20
-138.81029974167518
10
85.23120302427705
20
-139.78854117899652
10
88.179111515356169
20
-140.5729189802434
10
85.031019591410086
20
-140.54088582794483
10
84.795416829020738
20
-141.42634610316583
10
87.542769228034501
20
-142.96446910958966
10
84.594860736955383
20
-142.18009130834281
10
84.334570816146552
20
-143.15833274566415
10
88.200075191032369
20
-144.18686393360926
10
88.617795423163756
20
-142.61695589026812
10
86.425835911389939
20
-141.38966576125068
10
88.939025046692151
20
-141.40968621323205
10
89.356997319971725
20
-139.83883092962029
0
LINE
5
12D
100
AcDbEntity
8
INSETS D 0.5
100
AcDbLine
10
11.099999940395362
20
-144.53317845422774
30
0
11
11.099999940395357
21
-145.77465200979262
31
0
0
LINE
5
12E
100
AcDbEntity
8
INSETS D 0.5
100
AcDbLine
10
11.099999940395357
20
-145.77465200979262
30
0
11
12.584311163425447
21
-145.77465200979262
31
0
0
LINE
5
12F
100
AcDbEntity
8
INSETS D 0.5
100
AcDbLine
10
12.584311163425447
20
-145.77465200979262
30
0
11
12.584311163425447
21
-146.45132268030196
31
0
0
SPLINE
5
130
100
AcDbEntity
8
INSETS D 0.5
100
AcDbSpline
70
0
71
3
72
9
73
5
74
0
42
0.000000001
43
0.0000000001
44
0.0000000001
40
0
40
0
40
0
40
0
40
0.052642306460381857
40
0.11837499645056103
40
0.11837499645056103
40
0.11837499645056103
40
0.11837499645056103
10
12.92537490129471
20
-147.56319249231368
30
0
10
12.826211076026413
20
-147.41441329060433
30
0
10
12.603224693904401
20
-147.07985846847637
30
0
10
12.591063935455926
20
-146.67573128002167
30
0
10
12.584311163425447
20
-146.45132268030196
30
0
0
SPLINE
5
131
100
AcDbEntity
8
INSETS D 0.5
100
AcDbSpline
70
0
71
3
72
9
73
5
74
0
42
0.000000001
43
0.0000000001
44
0.0000000001
40
0
40
0
40
0
40
0
40
0.054719393323503472
40
0.10375721530549811
40
0.10375721530549811
40
0.10375721530549811
40
0.10375721530549811
10
13.872169053554536
20
-147.92744839746504
30
0
10
13.684830207960879
20
-147.91588427971612
30
0
10
13.3296041033433
20
-147.89395675855377
30
0
10
13.055107646558453
20
-147.66934750555123
30
0
10
12.92537490129471
20
-147.56319249231368
30
0
0
SPLINE
5
132
100
AcDbEntity
8
INSETS D 0.5
100
AcDbSpline
70
0
71
3
72
9
73
5
74
0
42
0.000000001
43
0.0000000001
44
0.0000000001
40
0
40
0
40
0
40
0
40
0.046090111181950923
40
0.098937705854362012
40
0.098937705854362012
40
0.098937705854362012
40
0.098937705854362012
10
14.780763781070711
20
-147.59320581514388
30
0
10
14.65714726503354
20
-147.69057146435625
30
0
10
14.391790246167936
20
-147.89957798907614
30
0
10
14.053087298438101
20
-147.91774466435794
30
0
10
13.872169053554536
20
-147.92744839746504
30
0
0
SPLINE
5
133
100
AcDbEntity
8
INSETS D 0.5
100
AcDbSpline
70
0
71
3
72
9
73
5
74
0
42
0.000000001
43
0.0000000001
44
0.0000000001
40
0
40
0
40
0
40
0
40
0.059237250120006274
40
0.10745088254983778
40
0.10745088254983778
40
0.10745088254983778
40
0.10745088254983778
10
15.100000000000001
20
-146.58774877149611
30
0
10
15.093093084789736
20
-146.79009534519653
30
0
10
15.080564580621548
20
-147.15713327962118
30
0
10
14.87362043214242
20
-147.45814201500173
30
0
10
14.780763781070711
20
-147.59320581514388
30
0
0
LINE
5
134
100
AcDbEntity
8
INSETS D 0.5
100
AcDbLine
10
15.100000000000001
20
-146.58774877149611
30
0
11
15.100000000000001
21
-144.53317845422774
31
0
0
LINE
5
135
100
AcDbEntity
8
INSETS D 0.5
100
AcDbLine
10
15.100000000000001
20
-144.53317845422774
30
0
11
11.099999940395362
21
-144.53317845422774
31
0
0
LINE
5
136
100
AcDbEntity
8
INSETS D 0.5
100
AcDbLine
10
14.286902940273286
20
-145.77465200979262
30
0
11
14.286902940273286
21
-146.1266299541667
31
0
0
SPLINE
5
137
100
AcDbEntity
8
INSETS D 0.5
100
AcDbSpline
70
0
71
3
72
9
73
5
74
0
42
0.000000001
43
0.0000000001
44
0.0000000001
40
0
40
0
40
0
40
0
40
0.020572825484754857
40
0.049883159639621075
40
0.049883159639621075
40
0.049883159639621075
40
0.049883159639621075
10
14.155934548377992
20
-146.59866297800093
30
0
10
14.193848754690883
20
-146.54003568415146
30
0
10
14.285779754033525
20
-146.39788143020621
30
0
10
14.286487237386245
20
-146.22702294128948
30
0
10
14.286902940273286
20
-146.1266299541667
30
0
0
SPLINE
5
138
100
AcDbEntity
8
INSETS D 0.5
100
AcDbSpline
70
0
71
3
72
9
73
5
74
0
42
0.000000001
43
0.0000000001
44
0.0000000001
40
0
40
0
40
0
40
0
40
0.017675021023218135
40
0.034987251154046668
40
0.034987251154046668
40
0.034987251154046668
40
0.034987251154046668
10
13.836698329448701
20
-146.72417426664381
30
0
10
13.896835080618072
20
-146.71916502302599
30
0
10
14.015874238420896
20
-146.70924935365744
30
0
10
14.109571635044977
20
-146.63526939813482
30
0
10
14.155934548377992
20
-146.59866297800093
30
0
0
SPLINE
5
139
100
AcDbEntity
8
INSETS D 0.5
100
AcDbSpline
70
0
71
3
72
9
73
5
74
0
42
0.000000001
43
0.0000000001
44
0.0000000001
40
0
40
0
40
0
40
0
40
0.017831764237989954
40
0.035831584543869491
40
0.035831584543869491
40
0.035831584543869491
40
0.035831584543869491
10
13.518826758861543
20
-146.5795632656291
30
0
10
13.563258288739291
20
-146.62174128467794
30
0
10
13.652540094957665
20
-146.70649483094914
30
0
10
13.775120610309868
20
-146.7182627236235
30
0
10
13.836698329448701
20
-146.72417426664381
30
0
0
SPLINE
5
13A
100
AcDbEntity
8
INSETS D 0.5
100
AcDbSpline
70
0
71
3
72
9
73
5
74
0
42
0.000000001
43
0.0000000001
44
0.0000000001
40
0
40
0
40
0
40
0
40
0.030580830797065188
40
0.05244432114403863
40
0.05244432114403863
40
0.05244432114403863
40
0.05244432114403863
10
13.394679224491121
20
-146.07751691896468
30
0
10
13.395384150103698
20
-146.18160306936923
30
0
10
13.39659305595239
20
-146.36010467825906
30
0
10
13.482862096062235
20
-146.51499225202704
30
0
10
13.518826758861543
20
-146.5795632656291
30
0
0
LINE
5
13B
100
AcDbEntity
8
INSETS D 0.5
100
AcDbLine
10
13.394679224491121
20
-146.07751691896468
30
0
11
13.394679224491121
21
-145.77465200979262
31
0
0
LINE
5
13C
100
AcDbEntity
8
INSETS D 0.5
100
AcDbLine
10
13.394679224491121
20
-145.77465200979262
30
0
11
14.286902940273286
21
-145.77465200979262
31
0
0
LWPOLYLINE
5
13D
100
AcDbEntity
8
INSETS D 0.5
100
AcDbPolyline
90
12
70
1
43
0.0
10
11.099999940395353
20
-157.88106406290083
10
11.099999940395353
20
-161.25350559312849
10
12.005866563320158
20
-161.25350559312849
10
12.005866563320158
20
-159.11980951387434
10
12.794406509399412
20
-159.11980951387434
10
12.794406509399412
20
-161.0434111412242
10
13.610231971740721
20
-161.0434111412242
10
13.610231971740721
20
-159.11980951387434
10
14.245975410938261
20
-159.11980951387434
10
14.245975410938261
20
-161.19347894746809
10
15.099999999999998
20
-161.19347894746809
10
15.099999999999998
20
-157.88106406290083
0
LWPOLYLINE
5
13E
100
AcDbEntity
8
INSETS D 0.5
100
AcDbPolyline
90
12
70
1
43
0.0
10
11.099999940395353
20
-161.91653574068098
10
11.09999994039535
20
-165.28897846300154
10
12.005866563320154
20
-165.28897846300154
10
12.005866563320154
20
-163.1552799995616
10
12.794406509399408
20
-163.1552799995616
10
12.794406509399408
20
-165.07888162691145
10
13.610231971740717
20
-165.07888162691145
10
13.610231971740717
20
-163.1552799995616
10
14.245975410938257
20
-163.1552799995616
10
14.245975410938257
20
-165.22894943315535
10
15.099999999999994
20
-165.22894943315535
10
15.099999999999994
20
-161.91653574068098
0
LWPOLYLINE
5
13F
100
AcDbEntity
8
INSETS D 0.5
100
AcDbPolyline
90
8
70
1
43
0.0
10
11.099999940395362
20
-142.8513910825923
10
11.099999940395362
20
-144.14572948772459
10
15.100000000000007
20
-142.64265978891402
10
15.100000000000007
20
-141.29443342048674
10
11.099999940395362
20
-139.79102281570434
10
11.099999940395362
20
-141.05304533798247
10
11.760300195217139
20
-141.24800602156668
10
11.760300195217139
20
-142.65127176601439
0
LWPOLYLINE
5
140
100
AcDbEntity
8
INSETS D 0.5
100
AcDbPolyline
90
3
70
1
43
0.0
10
12.625238692760474
20
-141.5164660866931
10
14.063164985179908
20
-141.95336932498961
10
12.625238692760474
20
-142.39487672407179
0
LINE
5
141
100
AcDbEntity
8
INSETS D 0.5
100
AcDbLine
10
12.548840439319608
20
-156.06660211641341
30
0
11
12.172305381298063
21
-156.06660211641341
31
0
0
SPLINE
5
142
100
AcDbEntity
8
INSETS D 0.5
100
AcDbSpline
70
0
71
3
72
9
73
5
74
0
42
0.000000001
43
0.0000000001
44
0.0000000001
40
0
40
0
40
0
40
0
40
0.02176167042670886
40
0.047795030999697487
40
0.047795030999697487
40
0.047795030999697487
40
0.047795030999697487
10
11.967667138576505
20
-155.63549721796065
30
0
10
11.99305287621376
20
-155.7035842330036
30
0
10
12.04880742508486
20
-155.85312335067448
30
0
10
12.128757543459008
20
-155.99132525388436
30
0
10
12.172305381298063
20
-156.06660211641341
30
0
0
SPLINE
5
143
100
AcDbEntity
8
INSETS D 0.5
100
AcDbSpline
70
0
71
3
72
9
73
5
74
0
42
0.000000001
43
0.0000000001
44
0.0000000001
40
0
40
0
40
0
40
0
40
0.02031464570904188
40
0.040136945766505075
40
0.040136945766505075
40
0.040136945766505075
40
0.040136945766505075
10
11.907639896869657
20
-155.23986304361372
30
0
10
11.910015948550988
20
-155.30779453238992
30
0
10
11.914710465937009
20
-155.44201112272083
30
0
10
11.950159862748073
20
-155.57153144614207
30
0
10
11.967667138576505
20
-155.63549721796065
30
0
0
SPLINE
5
144
100
AcDbEntity
8
INSETS D 0.5
100
AcDbSpline
70
0
71
3
72
9
73
5
74
0
42
0.000000001
43
0.0000000001
44
0.0000000001
40
0
40
0
40
0
40
0
40
0.03591700941012007
40
0.075382377730960098
40
0.075382377730960098
40
0.075382377730960098
40
0.075382377730960098
10
12.185948288440702
20
-154.55909932214766
30
0
10
12.104824085260049
20
-154.65166575334467
30
0
10
11.934561153358928
20
-154.84594355643299
30
0
10
11.916890903872698
20
-155.10449967615736
30
0
10
11.907639896869657
20
-155.23986304361372
30
0
0
SPLINE
5
145
100
AcDbEntity
8
INSETS D 0.5
100
AcDbSpline
70
0
71
3
72
9
73
5
74
0
42
0.000000001
43
0.0000000001
44
0.0000000001
40
0
40
0
40
0
40
0
40
0.055995454618538977
40
0.097376951843458334
40
0.097376951843458334
40
0.097376951843458334
40
0.097376951843458334
10
13.113642430305479
20
-154.31489790040999
30
0
10
12.922881104082471
20
-154.31734716676269
30
0
10
12.591144240728887
20
-154.32160647840334
30
0
10
12.306788606905918
20
-154.48827257595434
30
0
10
12.185948288440702
20
-154.55909932214766
30
0
0
SPLINE
5
146
100
AcDbEntity
8
INSETS D 0.5
100
AcDbSpline
70
0
71
3
72
9
73
5
74
0
42
0.000000001
43
0.0000000001
44
0.0000000001
40
0
40
0
40
0
40
0
40
0.040709994311600821
40
0.093952395457307519
40
0.093952395457307519
40
0.093952395457307519
40
0.093952395457307519
10
14.007230496406553
20
-154.55637062150984
30
0
10
13.888577850672675
20
-154.48625671098961
30
0
10
13.614745822873333
20
-154.32444460662444
30
0
10
13.294898483225124
20
-154.31835107656579
30
0
10
13.113642430305479
20
-154.31489790040999
30
0
0
SPLINE
5
147
100
AcDbEntity
8
INSETS D 0.5
100
AcDbSpline
70
0
71
3
72
9
73
5
74
0
42
0.000000001
43
0.0000000001
44
0.0000000001
40
0
40
0
40
0
40
0
40
0.037204005790314895
40
0.072531410476134539
40
0.072531410476134539
40
0.072531410476134539
40
0.072531410476134539
10
14.2896316409111
20
-155.20439231950789
30
0
10
14.279131238351548
20
-155.07686020521999
30
0
10
14.258660082301734
20
-154.82822880293389
30
0
10
14.089582177329154
20
-154.64541335740395
30
0
10
14.007230496406553
20
-154.55637062150984
30
0
0
SPLINE
5
148
100
AcDbEntity
8
INSETS D 0.5
100
AcDbSpline
70
0
71
3
72
9
73
5
74
0
42
0.000000001
43
0.0000000001
44
0.0000000001
40
0
40
0
40
0
40
0
40
0.021952070196470282
40
0.046996167618272945
40
0.046996167618272945
40
0.046996167618272945
40
0.046996167618272945
10
14.169577157497404
20
-155.65323317606001
30
0
10
14.204552414834083
20
-155.5878788075083
30
0
10
14.279429318997368
20
-155.44796467496622
30
0
10
14.286084902933469
20
-155.28906787970971
30
0
10
14.2896316409111
20
-155.20439231950789
30
0
0
SPLINE
5
149
100
AcDbEntity
8
INSETS D 0.5
100
AcDbSpline
70
0
71
3
72
9
73
5
74
0
42
0.000000001
43
0.0000000001
44
0.0000000001
40
0
40
0
40
0
40
0
40
0.02231494699256286
40
0.043322485308984172
40
0.043322485308984172
40
0.043322485308984172
40
0.043322485308984172
10
13.823056018352506
20
-155.90289199907332
30
0
10
13.89346115856879
20
-155.87500472917358
30
0
10
14.030146477772707
20
-155.8208640744393
30
0
10
14.124044835546812
20
-155.70797452888814
30
0
10
14.169577157497404
20
-155.65323317606001
30
0
0
LINE
5
14A
100
AcDbEntity
8
INSETS D 0.5
100
AcDbLine
10
13.823056018352506
20
-155.90289199907332
30
0
11
14.035879766941068
21
-157.09525192338972
31
0
0
SPLINE
5
14B
100
AcDbEntity
8
INSETS D 0.5
100
AcDbSpline
70
0
71
3
72
9
73
5
74
0
42
0.000000001
43
0.0000000001
44
0.0000000001
40
0
40
0
40
0
40
0
40
0.034347216784245252
40
0.072243292788644456
40
0.072243292788644456
40
0.072243292788644456
40
0.072243292788644456
10
14.675716257095335
20
-156.76919425088911
30
0
10
14.583058649872417
20
-156.8377985606536
30
0
10
14.388169768780577
20
-156.98209558675649
30
0
10
14.15709354210248
20
-157.05631778766309
30
0
10
14.035879766941068
20
-157.09525192338972
30
0
0
SPLINE
5
14C
100
AcDbEntity
8
INSETS D 0.5
100
AcDbSpline
70
0
71
3
72
9
73
5
74
0
42
0.000000001
43
0.0000000001
44
0.0000000001
40
0
40
0
40
0
40
0
40
0.033755451077703516
40
0.066628265088203353
40
0.066628265088203353
40
0.066628265088203353
40
0.066628265088203353
10
15.048158264160154
20
-156.22349227029829
30
0
10
15.003196464427706
20
-156.32793300884993
30
0
10
14.914448525479415
20
-156.53408357096819
30
0
10
14.754587778168084
20
-156.69151921738265
30
0
10
14.675716257095335
20
-156.76919425088911
30
0
0
SPLINE
5
14D
100
AcDbEntity
8
INSETS D 0.5
100
AcDbSpline
70
0
71
3
72
9
73
5
74
0
42
0.000000001
43
0.0000000001
44
0.0000000001
40
0
40
0
40
0
40
0
40
0.05802447709382396
40
0.1002307187464144
40
0.1002307187464144
40
0.1002307187464144
40
0.1002307187464144
10
15.16821274757385
20
-155.23167813379317
30
0
10
15.167255894991968
20
-155.4260480181355
30
0
10
15.165603040424035
20
-155.7618000005065
30
0
10
15.082958940852089
20
-156.08668581603686
30
0
10
15.048158264160154
20
-156.22349227029829
30
0
0
SPLINE
5
14E
100
AcDbEntity
8
INSETS D 0.5
100
AcDbSpline
70
0
71
3
72
9
73
5
74
0
42
0.000000001
43
0.0000000001
44
0.0000000001
40
0
40
0
40
0
40
0
40
0.049845296835785487
40
0.11176763385915478
40
0.11176763385915478
40
0.11176763385915478
40
0.11176763385915478
10
14.974488413333891
20
-154.13754427988081
30
0
10
15.030821199041631
20
-154.29498466738224
30
0
10
15.15713566734525
20
-154.64801174720634
30
0
10
15.164263649697531
20
-155.0235948085683
30
0
10
15.16821274757385
20
-155.23167813379317
30
0
0
SPLINE
5
14F
100
AcDbEntity
8
INSETS D 0.5
100
AcDbSpline
70
0
71
3
72
9
73
5
74
0
42
0.000000001
43
0.0000000001
44
0.0000000001
40
0
40
0
40
0
40
0
40
0.054062461039976618
40
0.10936313486937099
40
0.10936313486937099
40
0.10936313486937099
40
0.10936313486937099
10
14.239154255390165
20
-153.34627473909407
30
0
10
14.391331536640788
20
-153.44773906363071
30
0
10
14.699171472398795
20
-153.65299158812317
30
0
10
14.882026004801784
20
-153.97481216180461
30
0
10
14.974488413333891
20
-154.13754427988081
30
0
0
SPLINE
5
150
100
AcDbEntity
8
INSETS D 0.5
100
AcDbSpline
70
0
71
3
72
9
73
5
74
0
42
0.000000001
43
0.0000000001
44
0.0000000001
40
0
40
0
40
0
40
0
40
0.061592332786930111
40
0.11804706533014314
40
0.11804706533014314
40
0.11804706533014314
40
0.11804706533014314
10
13.099999821186064
20
-153.07615244943648
30
0
10
13.307314458803582
20
-153.08531460610325
30
0
10
13.704651001574097
20
-153.10287467661317
30
0
10
14.066232035645685
20
-153.26753007516612
30
0
10
14.239154255390165
20
-153.34627473909407
30
0
0
SPLINE
5
151
100
AcDbEntity
8
INSETS D 0.5
100
AcDbSpline
70
0
71
3
72
9
73
5
74
0
42
0.000000001
43
0.0000000001
44
0.0000000001
40
0
40
0
40
0
40
0
40
0.054793572113323717
40
0.11378050173053499
40
0.11378050173053499
40
0.11378050173053499
40
0.11378050173053499
10
11.997680461406706
20
-153.32308257181197
30
0
10
12.16723021218761
20
-153.25108824258626
30
0
10
12.51930537297909
20
-153.10158985098454
30
0
10
12.901736859942261
20
-153.08483738619253
30
0
10
13.099999821186064
20
-153.07615244943648
30
0
0
SPLINE
5
152
100
AcDbEntity
8
INSETS D 0.5
100
AcDbSpline
70
0
71
3
72
9
73
5
74
0
42
0.000000001
43
0.0000000001
44
0.0000000001
40
0
40
0
40
0
40
0
40
0.050000625497777437
40
0.10153571165231418
40
0.10153571165231418
40
0.10153571165231418
40
0.10153571165231418
10
11.274624860286711
20
-154.01885355073958
30
0
10
11.366639433193271
20
-153.8770539650796
30
0
10
11.553492398519998
20
-153.58910313049199
30
0
10
11.848133517001491
20
-153.4126450004847
30
0
10
11.997680461406706
20
-153.32308257181197
30
0
0
SPLINE
5
153
100
AcDbEntity
8
INSETS D 0.5
100
AcDbSpline
70
0
71
3
72
9
73
5
74
0
42
0.000000001
43
0.0000000001
44
0.0000000001
40
0
40
0
40
0
40
0
40
0.06491608427033245
40
0.11951029157745555
40
0.11951029157745555
40
0.11951029157745555
40
0.11951029157745555
10
11.031787192821501
20
-155.17983639795332
30
0
10
11.037914347229743
20
-154.96128869520277
30
0
10
11.049194417771581
20
-154.558943113628
30
0
10
11.20393630030776
20
-154.18821024025451
30
0
10
11.274624860286711
20
-154.01885355073958
30
0
0
SPLINE
5
154
100
AcDbEntity
8
INSETS D 0.5
100
AcDbSpline
70
0
71
3
72
9
73
5
74
0
42
0.000000001
43
0.0000000001
44
0.0000000001
40
0
40
0
40
0
40
0
40
0.047178133031261088
40
0.10120592356234798
40
0.10120592356234798
40
0.10120592356234798
40
0.10120592356234798
10
11.166848337650297
20
-156.1798366363719
30
0
10
11.127503862491942
20
-156.0270270074262
30
0
10
11.043102600940564
20
-155.69922175882886
30
0
10
11.035725425590076
20
-155.3606041109864
30
0
10
11.031787192821501
20
-155.17983639795332
30
0
0
SPLINE
5
155
100
AcDbEntity
8
INSETS D 0.5
100
AcDbSpline
70
0
71
3
72
9
73
5
74
0
42
0.000000001
43
0.0000000001
44
0.0000000001
40
0
40
0
40
0
40
0
40
0.060470005398479562
40
0.10980400446484333
40
0.10980400446484333
40
0.10980400446484333
40
0.10980400446484333
10
11.675716435909269
20
-157.14982235986739
30
0
10
11.56408806457784
20
-156.98115369513258
30
0
10
11.361388526132167
20
-156.67487796895105
30
0
10
11.227157285003987
20
-156.33330323829821
30
0
10
11.166848337650297
20
-156.1798366363719
30
0
0
LINE
5
156
100
AcDbEntity
8
INSETS D 0.5
100
AcDbLine
10
11.675716435909269
20
-157.14982235986739
30
0
11
13.381036615371702
21
-157.14982235986739
31
0
0
LINE
5
157
100
AcDbEntity
8
INSETS D 0.5
100
AcDbLine
10
13.381036615371702
20
-157.14982235986739
30
0
11
13.381036615371702
21
-155.23986304361372
31
0
0
LINE
5
158
100
AcDbEntity
8
INSETS D 0.5
100
AcDbLine
10
13.381036615371702
20
-155.23986304361372
30
0
11
12.548840439319608
21
-155.23986304361372
31
0
0
LINE
5
159
100
AcDbEntity
8
INSETS D 0.5
100
AcDbLine
10
12.548840439319608
20
-155.23986304361372
30
0
11
12.548840439319608
21
-156.06660211641341
31
0
0
SPLINE
5
15A
100
AcDbEntity
8
INSETS D 0.5
100
AcDbSpline
70
0
71
3
72
9
73
5
74
0
42
0.000000001
43
0.0000000001
44
0.0000000001
40
0
40
0
40
0
40
0
40
0.048847035989833254
40
0.10021789521852625
40
0.10021789521852625
40
0.10021789521852625
40
0.10021789521852625
10
11.247339642047884
20
-149.41312337476759
30
0
10
11.331524590371913
20
-149.27122952001179
30
0
10
11.504244145594678
20
-148.98011045454726
30
0
10
11.785366654724996
20
-148.79106391286666
30
0
10
11.929467713832857
20
-148.69416022855788
30
0
0
SPLINE
5
15B
100
AcDbEntity
8
INSETS D 0.5
100
AcDbSpline
70
0
71
3
72
9
73
5
74
0
42
0.000000001
43
0.0000000001
44
0.0000000001
40
0
40
0
40
0
40
0
40
0.062069417642417531
40
0.1147802442765592
40
0.1147802442765592
40
0.1147802442765592
40
0.1147802442765592
10
11.031787192821504
20
-150.53317869264632
30
0
10
11.037449245875104
20
-150.32457702537366
30
0
10
11.047919649131398
20
-149.93882585780202
30
0
10
11.184580519326609
20
-149.57856629834373
30
0
10
11.247339642047884
20
-149.41312337476759
30
0
0
SPLINE
5
15C
100
AcDbEntity
8
INSETS D 0.5
100
AcDbSpline
70
0
71
3
72
9
73
5
74
0
42
0.000000001
43
0.0000000001
44
0.0000000001
40
0
40
0
40
0
40
0
40
0.053486918927010359
40
0.11488946618665674
40
0.11488946618665674
40
0.11488946618665674
40
0.11488946618665674
10
11.281446015834806
20
-151.64504731256514
30
0
10
11.208721109683788
20
-151.48045065664229
30
0
10
11.052508603639701
20
-151.12689838041388
30
0
10
11.039004464790768
20
-150.73997139116091
30
0
10
11.031787192821504
20
-150.53317869264632
30
0
0
SPLINE
5
15D
100
AcDbEntity
8
INSETS D 0.5
100
AcDbSpline
70
0
71
3
72
9
73
5
74
0
42
0.000000001
43
0.0000000001
44
0.0000000001
40
0
40
0
40
0
40
0
40
0.049243606844149912
40
0.098698995060344713
40
0.098698995060344713
40
0.098698995060344713
40
0.098698995060344713
10
11.979945099353788
20
-152.32717598039656
30
0
10
11.838541857748135
20
-152.2395904415925
30
0
10
11.555127243361266
20
-152.06404268593883
30
0
10
11.37280349750676
20
-151.78491208330439
30
0
10
11.281446015834806
20
-151.64504731256514
30
0
0
SPLINE
5
15E
100
AcDbEntity
8
INSETS D 0.5
100
AcDbSpline
70
0
71
3
72
9
73
5
74
0
42
0.000000001
43
0.0000000001
44
0.0000000001
40
0
40
0
40
0
40
0
40
0.064085324527559107
40
0.11825290748167
40
0.11825290748167
40
0.11825290748167
40
0.11825290748167
10
13.130013442039488
20
-152.56319130022078
30
0
10
12.914371030846228
20
-152.55710941363367
30
0
10
12.516458680585831
20
-152.54588686342888
30
0
10
12.148496086791205
20
-152.39588614280055
30
0
10
11.979945099353788
20
-152.32717598039656
30
0
0
SPLINE
5
15F
100
AcDbEntity
8
INSETS D 0.5
100
AcDbSpline
70
0
71
3
72
9
73
5
74
0
42
0.000000001
43
0.0000000001
44
0.0000000001
40
0
40
0
40
0
40
0
40
0.07605121002799993
40
0.16295303998555261
40
0.16295303998555261
40
0.16295303998555261
40
0.16295303998555261
10
14.632060027122495
20
-152.02294672090559
30
0
10
14.425906736955682
20
-152.18033061787779
30
0
10
13.984187199247632
20
-152.5175531873405
30
0
10
13.427102958925868
20
-152.54731794331559
30
0
10
13.130013442039488
20
-152.56319130022078
30
0
0
SPLINE
5
160
100
AcDbEntity
8
INSETS D 0.5
100
AcDbSpline
70
0
71
3
72
9
73
5
74
0
42
0.000000001
43
0.0000000001
44
0.0000000001
40
0
40
0
40
0
40
0
40
0.089414308591201211
40
0.16625930753268112
40
0.16625930753268112
40
0.16625930753268112
40
0.16625930753268112
10
15.168212747573854
20
-150.48406446535139
30
0
10
15.153457453568798
20
-150.78968723292621
30
0
10
15.126021073392355
20
-151.35797021250525
30
0
10
14.788200560493813
20
-151.81274839153306
30
0
10
14.632060027122495
20
-152.02294672090559
30
0
0
SPLINE
5
161
100
AcDbEntity
8
INSETS D 0.5
100
AcDbSpline
70
0
71
3
72
9
73
5
74
0
42
0.000000001
43
0.0000000001
44
0.0000000001
40
0
40
0
40
0
40
0
40
0.077048745643284164
40
0.16481402980638574
40
0.16481402980638574
40
0.16481402980638574
40
0.16481402980638574
10
14.622510170936586
20
-148.96428311426192
30
0
10
14.78149282617947
20
-149.17344183892496
30
0
10
15.12157068028511
20
-149.62085070967382
30
0
10
15.152005742236728
20
-150.1841182846056
30
0
10
15.168212747573854
20
-150.48406446535139
30
0
0
SPLINE
5
162
100
AcDbEntity
8
INSETS D 0.5
100
AcDbSpline
70
0
71
3
72
9
73
5
74
0
42
0.000000001
43
0.0000000001
44
0.0000000001
40
0
40
0
40
0
40
0
40
0.088169641607617602
40
0.16533400025811362
40
0.16533400025811362
40
0.16533400025811362
40
0.16533400025811362
10
13.097271418571474
20
-148.41858053762465
30
0
10
13.398618018585191
20
-148.43461678576116
30
0
10
13.963697312727916
20
-148.46468764694652
30
0
10
14.412872168010837
20
-148.8053089917417
30
0
10
14.622510170936586
20
-148.96428311426192
30
0
0
SPLINE
5
163
100
AcDbEntity
8
INSETS D 0.5
100
AcDbSpline
70
0
71
3
72
9
73
5
74
0
42
0.000000001
43
0.0000000001
44
0.0000000001
40
0
40
0
40
0
40
0
40
0.056444206014956436
40
0.12106894800551038
40
0.12106894800551038
40
0.12106894800551038
40
0.12106894800551038
10
11.929467713832857
20
-148.69416022855788
30
0
10
12.10175118813269
20
-148.61388088873332
30
0
10
12.471287416292022
20
-148.44168721456663
30
0
10
12.879417733621912
20
-148.42662207654644
30
0
10
13.097271418571474
20
-148.41858053762465
30
0
0
SPLINE
5
164
100
AcDbEntity
8
INSETS D 0.5
100
AcDbSpline
70
0
71
3
72
9
73
5
74
0
42
0.000000001
43
0.0000000001
44
0.0000000001
40
0
40
0
40
0
40
0
40
0.034340590339336563
40
0.067314851581276786
40
0.067314851581276786
40
0.067314851581276786
40
0.067314851581276786
10
14.232332801818849
20
-150.48133695680647
30
0
10
14.222228345164073
20
-150.36367714990007
30
0
10
14.202421463764985
20
-150.13303893545114
30
0
10
14.044852410277233
20
-149.96391091329815
30
0
10
13.967667019367219
20
-149.8810633476451
30
0
0
SPLINE
5
165
100
AcDbEntity
8
INSETS D 0.5
100
AcDbSpline
70
0
71
3
72
9
73
5
74
0
42
0.000000001
43
0.0000000001
44
0.0000000001
40
0
40
0
40
0
40
0
40
0.033202425200665395
40
0.068763271043274496
40
0.068763271043274496
40
0.068763271043274496
40
0.068763271043274496
10
13.971759772300722
20
-151.09934413988142
30
0
10
14.04773547007041
20
-151.01453870220985
30
0
10
14.205083539281169
20
-150.83890396284039
30
0
10
14.22304437596534
20
-150.60322042497793
30
0
10
14.232332801818849
20
-150.48133695680647
30
0
0
SPLINE
5
166
100
AcDbEntity
8
INSETS D 0.5
100
AcDbSpline
70
0
71
3
72
9
73
5
74
0
42
0.000000001
43
0.0000000001
44
0.0000000001
40
0
40
0
40
0
40
0
40
0.04920527269767995
40
0.08695676381498138
40
0.08695676381498138
40
0.08695676381498138
40
0.08695676381498138
10
13.146384751796724
20
-151.32717574197798
30
0
10
13.314013496029071
20
-151.32382229638853
30
0
10
13.610251121016393
20
-151.31789600515793
30
0
10
13.862324429426277
20
-151.16550382437975
30
0
10
13.971759772300722
20
-151.09934413988142
30
0
0
SPLINE
5
167
100
AcDbEntity
8
INSETS D 0.5
100
AcDbSpline
70
0
71
3
72
9
73
5
74
0
42
0.000000001
43
0.0000000001
44
0.0000000001
40
0
40
0
40
0
40
0
40
0.039748921399329333
40
0.096831650356105678
40
0.096831650356105678
40
0.096831650356105678
40
0.096831650356105678
10
12.215961611270906
20
-151.10889399606734
30
0
10
12.334409283010954
20
-151.17206511258243
30
0
10
12.622957578955933
20
-151.32595516171216
30
0
10
12.9522596052752
20
-151.32672306138508
30
0
10
13.146384751796724
20
-151.32717574197798
30
0
0
SPLINE
5
168
100
AcDbEntity
8
INSETS D 0.5
100
AcDbSpline
70
0
71
3
72
9
73
5
74
0
42
0.000000001
43
0.0000000001
44
0.0000000001
40
0
40
0
40
0
40
0
40
0.035923543593258271
40
0.068652945989301467
40
0.068652945989301467
40
0.068652945989301467
40
0.068652945989301467
10
11.956752932071687
20
-150.49225056726485
30
0
10
11.965396187238774
20
-150.61564288861672
30
0
10
11.981914182703711
20
-150.85145610540795
30
0
10
12.140403759323943
20
-151.02578496920447
30
0
10
12.215961611270906
20
-151.10889399606734
30
0
0
SPLINE
5
169
100
AcDbEntity
8
INSETS D 0.5
100
AcDbSpline
70
0
71
3
72
9
73
5
74
0
42
0.000000001
43
0.0000000001
44
0.0000000001
40
0
40
0
40
0
40
0
40
0.03316510641999236
40
0.068476763042134597
40
0.068476763042134597
40
0.068476763042134597
40
0.068476763042134597
10
12.221418416500093
20
-149.87969959337264
30
0
10
12.144245403780403
20
-149.96341220051568
30
0
10
11.98490449775913
20
-150.1362555585433
30
0
10
11.966330864023501
20
-150.37113133693228
30
0
10
11.956752932071687
20
-150.49225056726485
30
0
0
SPLINE
5
16A
100
AcDbEntity
8
INSETS D 0.5
100
AcDbSpline
70
0
71
3
72
9
73
5
74
0
42
0.000000001
43
0.0000000001
44
0.0000000001
40
0
40
0
40
0
40
0
40
0.052349748011374916
40
0.091202679750096979
40
0.091202679750096979
40
0.091202679750096979
40
0.091202679750096979
10
13.091814315319063
20
-149.65459669191389
30
0
10
12.913641445493106
20
-149.65697741363743
30
0
10
12.603232249571818
20
-149.66112505921694
30
0
10
12.335481828477599
20
-149.81440243811608
30
0
10
12.221418416500093
20
-149.87969959337264
30
0
0
SPLINE
5
16B
100
AcDbEntity
8
INSETS D 0.5
100
AcDbSpline
70
0
71
3
72
9
73
5
74
0
42
0.000000001
43
0.0000000001
44
0.0000000001
40
0
40
0
40
0
40
0
40
0.039020244306090614
40
0.091780561956443657
40
0.091780561956443657
40
0.091780561956443657
40
0.091780561956443657
10
13.967667019367219
20
-149.8810633476451
30
0
10
13.853165499619031
20
-149.81537845884679
30
0
10
13.583843407606517
20
-149.66087927225374
30
0
10
13.271414794248763
20
-149.65688995964061
30
0
10
13.091814315319063
20
-149.65459669191389
30
0
0
CIRCLE
5
16C
100
AcDbEntity
8
HOLES DIAM 12.0 D 6.0
100
AcDbCircle
10
194
20
-53.600000000000009
30
0
40
6.0000000000000009
210
0
220
0
230
1
0
CIRCLE
5
16D
100
AcDbEntity
8
HOLES DIAM 12.0 D 6.0
100
AcDbCircle
10
15.999999999999961
20
-53.599999999999966
30
0
40
6.0000000000000009
210
0
220
0
230
1
0
LWPOLYLINE
5
16E
100
AcDbEntity
8
CUTOUTS D 6.0
100
AcDbPolyline
90
4
70
1
43
0.0
10
95.249999999999972
20
-42.099999999999994
10
95.249999999999972
20
-40.099999999999987
10
90.249999999999972
20
-40.099999999999994
10
90.249999999999972
20
-42.099999999999994
0
LWPOLYLINE
5
16F
100
AcDbEntity
8
CUTOUTS D 6.0
100
AcDbPolyline
90
4
70
1
43
0.0
10
60.249999999999972
20
-40.099999999999987
10
60.249999999999972
20
-42.099999999999994
10
65.249999999999972
20
-42.099999999999994
10
65.249999999999972
20
-40.099999999999987
0
LWPOLYLINE
5
170
100
AcDbEntity
8
CUTOUTS D 6.0
100
AcDbPolyline
90
4
70
1
43
0.0
10
65.249999999999972
20
-67.099999999999994
10
65.249999999999972
20
-65.099999999999994
10
60.249999999999972
20
-65.099999999999994
10
60.249999999999972
20
-67.099999999999994
0
LWPOLYLINE
5
171
100
AcDbEntity
8
CUTOUTS D 6.0
100
AcDbPolyline
90
4
70
1
43
0.0
10
110.24999999999997
20
-67.099999999999994
10
110.24999999999997
20
-65.099999999999994
10
105.24999999999997
20
-65.099999999999994
10
105.24999999999997
20
-67.099999999999994
0
LWPOLYLINE
5
172
100
AcDbEntity
8
CUTOUTS D 6.0
100
AcDbPolyline
90
4
70
1
43
0.0
10
110.24999999999997
20
-42.099999999999994
10
110.24999999999997
20
-40.099999999999987
10
105.24999999999997
20
-40.099999999999994
10
105.24999999999997
20
-42.099999999999994
0
LWPOLYLINE
5
173
100
AcDbEntity
8
CUTOUTS D 6.0
100
AcDbPolyline
90
4
70
1
43
0.0
10
80.249999999999972
20
-42.099999999999994
10
80.249999999999972
20
-40.099999999999987
10
75.249999999999972
20
-40.099999999999994
10
75.249999999999972
20
-42.099999999999994
0
LWPOLYLINE
5
174
100
AcDbEntity
8
CUTOUTS D 6.0
100
AcDbPolyline
90
4
70
1
43
0.0
10
80.249999999999972
20
-67.099999999999994
10
80.249999999999972
20
-65.099999999999994
10
75.249999999999972
20
-65.099999999999994
10
75.249999999999972
20
-67.099999999999994
0
LWPOLYLINE
5
175
100
AcDbEntity
8
CUTOUTS D 6.0
100
AcDbPolyline
90
4
70
1
43
0.0
10
95.249999999999972
20
-67.099999999999994
10
95.249999999999972
20
-65.099999999999994
10
90.249999999999972
20
-65.099999999999994
10
90.249999999999972
20
-67.099999999999994
0
LWPOLYLINE
5
176
100
AcDbEntity
8
CUTOUTS D 6.0
100
AcDbPolyline
90
4
70
1
43
0.0
10
100.23657856144381
20
-161.17501628310697
10
107.95056235608469
20
-132.1837339034671
10
102.15230588015672
20
-130.64093714453892
10
94.438322085515836
20
-159.63221952417879
0
LWPOLYLINE
5
177
100
AcDbEntity
8
CUTOUTS D 6.0
100
AcDbPolyline
90
4
70
1
43
0.0
10
25.099999999999998
20
-137.53999999999999
10
25.099999999999998
20
-167.54000000000002
10
31.099999999999998
20
-167.54000000000002
10
31.099999999999994
20
-137.54000000000002
0
LWPOLYLINE
5
178
100
AcDbEntity
8
CUTOUTS D 6.0
100
AcDbPolyline
90
4
70
1
43
0.0
10
29.68913724841083
20
-253.96839479696754
10
50.902340684007257
20
-275.18159823256394
10
55.144981371126534
20
-270.93895754544468
10
33.931777935530114
20
-249.72575410984831
0
LWPOLYLINE
5
179
100
AcDbEntity
8
CUTOUTS D 6.0
100
AcDbPolyline
90
4
70
1
43
0.0
10
101.10000000000001
20
-283.98000000000002
10
101.10000000000001
20
-253.98000000000002
10
95.099999999999994
20
-253.98000000000002
10
95.099999999999994
20
-283.98000000000002
0
CIRCLE
5
17A
100
AcDbEntity
8
HOLES DIAM 2.5 D 6.0
100
AcDbCircle
10
130.24999999999997
20
-36.79999999999999
30
0
40
1.2500000000000067
210
-0
220
0
230
1
0
CIRCLE
5
17B
100
AcDbEntity
8
HOLES DIAM 2.5 D 6.0
100
AcDbCircle
10
161.99999999999994
20
-36.79999999999999
30
0
40
1.2500000000000067
210
-0
220
0
230
1
0
CIRCLE
5
17C
100
AcDbEntity
8
HOLES DIAM 2.5 D 6.0
100
AcDbCircle
10
130.24999999999997
20
-50.769999999999989
30
0
40
1.2500000000000064
210
-0
220
0
230
1
0
CIRCLE
5
17D
100
AcDbEntity
8
HOLES DIAM 2.5 D 6.0
100
AcDbCircle
10
161.99999999999994
20
-50.769999999999989
30
0
40
1.2500000000000064
210
-0
220
0
230
1
0
CIRCLE
5
17E
100
AcDbEntity
8
HOLES DIAM 2.5 D 6.0
100
AcDbCircle
10
42.849999999999994
20
-172.53999999999996
30
0
40
1.25
210
0
220
-0
230
1
0
CIRCLE
5
17F
100
AcDbEntity
8
HOLES DIAM 2.5 D 6.0
100
AcDbCircle
10
49.349999999999987
20
-172.53999999999996
30
0
40
1.25
210
0
220
-0
230
1
0
CIRCLE
5
180
100
AcDbEntity
8
HOLES DIAM 2.5 D 6.0
100
AcDbCircle
10
17.845098663536159
20
-258.74136556997678
30
0
40
1.25
210
0
220
0
230
1
0
CIRCLE
5
181
100
AcDbEntity
8
HOLES DIAM 2.5 D 6.0
100
AcDbCircle
10
13.248904585823599
20
-263.33755964768932
30
0
40
1.25
210
0
220
0
230
1
0
CIRCLE
5
182
100
AcDbEntity
8
HOLES DIAM 2.5 D 6.0
100
AcDbCircle
10
112.84999999999999
20
-288.98000000000002
30
0
40
1.25
210
0
220
0
230
1
0
CIRCLE
5
183
100
AcDbEntity
8
HOLES DIAM 2.5 D 6.0
100
AcDbCircle
10
119.35000000000001
20
-288.98000000000002
30
0
40
1.25
210
0
220
0
230
1
0
ENDSEC
0
SECTION
2
OBJECTS
0
DICTIONARY
5
C
100
AcDbDictionary
3
ACAD_GROUP
350
D
3
ACAD_MLINESTYLE
350
17
0
DICTIONARY
5
D
100
AcDbDictionary
0
DICTIONARY
5
1A
330
C
100
AcDbDictionary
0
DICTIONARY
5
17
100
AcDbDictionary
0
ENDSEC
0
EOF
