0
SECTION
2
HEADER
9
$INSUNITS
70
4
9
$ACADVER
1
AC1014
9
$HANDSEED
5
FFFF
0
ENDSEC
0
SECTION
2
TABLES
0
TABLE
2
VPORT
5
8
100
AcDbSymbolTable
0
ENDTAB
0
TABLE
2
LTYPE
5
5
100
AcDbSymbolTable
0
LTYPE
5
14
100
AcDbSymbolTableRecord
100
AcDbLinetypeTableRecord
2
BYBLOCK
70
0
0
LTYPE
5
15
100
AcDbSymbolTableRecord
100
AcDbLinetypeTableRecord
2
BYLAYER
70
0
0
LTYPE
5
16
100
AcDbSymbolTableRecord
100
AcDbLinetypeTableRecord
2
DASHED
70
0
3
Dashed __ __ __ __ __ __ __ __ __ __ __ __ __ _
72
65
73
2
40
0.75
49
0.5
74
0
49
-0.25
74
0
0
ENDTAB
0
TABLE
2
LAYER
5
2
100
AcDbSymbolTable
70
3
0
LAYER
5
50
100
AcDbSymbolTableRecord
100
AcDbLayerTableRecord
2
1
70
0
62
7
6
DASHED
0
LAYER
5
51
100
AcDbSymbolTableRecord
100
AcDbLayerTableRecord
2
0
70
0
62
7
6
CONTINUOUS
0
ENDTAB
0
TABLE
2
STYLE
5
3
100
AcDbSymbolTable
70
1
0
STYLE
5
11
100
AcDbSymbolTableRecord
100
AcDbTextStyleTableRecord
2
STANDARD
70
0
0
ENDTAB
0
TABLE
2
VIEW
5
6
100
AcDbSymbolTable
70
0
0
ENDTAB
0
TABLE
2
UCS
5
7
100
AcDbSymbolTable
70
0
0
ENDTAB
0
TABLE
2
APPID
5
9
100
AcDbSymbolTable
70
2
0
APPID
5
12
100
AcDbSymbolTableRecord
100
AcDbRegAppTableRecord
2
ACAD
70
0
0
ENDTAB
0
TABLE
2
DIMSTYLE
5
A
100
AcDbSymbolTable
70
1
0
ENDTAB
0
TABLE
2
BLOCK_RECORD
5
1
100
AcDbSymbolTable
70
1
0
BLOCK_RECORD
5
1F
100
AcDbSymbolTableRecord
100
AcDbBlockTableRecord
2
*MODEL_SPACE
0
BLOCK_RECORD
5
1B
100
AcDbSymbolTableRecord
100
AcDbBlockTableRecord
2
*PAPER_SPACE
0
ENDTAB
0
ENDSEC
0
SECTION
2
BLOCKS
0
BLOCK
5
20
100
AcDbEntity
100
AcDbBlockBegin
2
*MODEL_SPACE
0
ENDBLK
5
21
100
AcDbEntity
100
AcDbBlockEnd
0
BLOCK
5
1C
100
AcDbEntity
100
AcDbBlockBegin
2
*PAPER_SPACE
0
ENDBLK
5
1D
100
AcDbEntity
100
AcDbBlockEnd
0
ENDSEC
0
SECTION
2
ENTITIES
0
SPLINE
5
100
100
AcDbEntity
8
0
100
AcDbSpline
70
0
71
3
72
23
73
19
74
0
42
0.000000001
43
0.0000000001
44
0.0000000001
40
0
40
0
40
0
40
0
40
0.12427821098559684
40
0.12427821098559684
40
0.12427821098559684
40
0.24233972180623897
40
0.24233972180623897
40
0.24233972180623897
40
0.34991833919279114
40
0.34991833919279114
40
0.34991833919279114
40
0.46921080819214295
40
0.46921080819214295
40
0.46921080819214295
40
0.58639032069537111
40
0.58639032069537111
40
0.58639032069537111
40
0.67812462174557087
40
0.67812462174557087
40
0.67812462174557087
40
0.67812462174557087
10
-148.58889202793432
20
-69.265000000000015
30
0
10
-148.58889202793432
20
-68.850739296714693
30
0
10
-148.38062061071912
20
-68.403111417257577
30
0
10
-148.04778513216704
20
-68.12690824133773
30
0
10
-147.73159889854702
20
-67.864521424019173
30
0
10
-147.2836665071394
20
-67.729335945319335
30
0
10
-146.86602605108533
20
-67.774152953011239
30
0
10
-146.48546864067538
20
-67.814990578155815
30
0
10
-146.11070200402193
20
-68.007155425050158
30
0
10
-145.86270282972069
20
-68.284775962309084
30
0
10
-145.58769991063792
20
-68.592625608819617
30
0
10
-145.44651077184687
20
-69.030672745160132
30
0
10
-145.49586095921254
20
-69.438969274628676
30
0
10
-145.54433703608439
20
-69.84003389070385
30
0
10
-145.7731875850929
20
-70.22507511482489
30
0
10
-146.11007545358984
20
-70.467752816383069
30
0
10
-146.37380904053413
20
-70.657733717116841
30
0
10
-146.7093727857301
20
-70.765000000000015
30
0
10
-147.03713740794581
20
-70.765000000000015
30
0
0
SPLINE
5
101
100
AcDbEntity
8
0
100
AcDbSpline
70
0
71
3
72
14
73
10
74
0
42
0.000000001
43
0.0000000001
44
0.0000000001
40
0.67812462174557087
40
0.67812462174557087
40
0.67812462174557087
40
0.67812462174557087
40
0.69306140791508797
40
0.69306140791508797
40
0.69306140791508797
40
0.81053692876293182
40
0.81053692876293182
40
0.81053692876293182
40
0.90416616232742486
40
0.90416616232742486
40
0.90416616232742486
40
0.90416616232742486
10
-147.03713740794581
20
-70.765000000000015
30
0
10
-147.09050621350622
20
-70.765000000000015
30
0
10
-147.14103292183711
20
-70.762510808379304
30
0
10
-147.19380932330859
20
-70.757330429519058
30
0
10
-147.60888758585946
20
-70.716587548293461
30
0
10
-148.0134817708954
20
-70.499426736318085
30
0
10
-148.26897977000695
20
-70.177018068830051
30
0
10
-148.47261437968072
20
-69.920054948227659
30
0
10
-148.58889202793435
20
-69.577097445214989
30
0
10
-148.58889202793435
20
-69.265000000000015
30
0
0
SPLINE
5
102
100
AcDbEntity
8
0
100
AcDbSpline
70
0
71
3
72
23
73
19
74
0
42
0.000000001
43
0.0000000001
44
0.0000000001
40
0
40
0
40
0
40
0
40
0.12427821098564361
40
0.12427821098564361
40
0.12427821098564361
40
0.24233972180617824
40
0.24233972180617824
40
0.24233972180617824
40
0.3499183391926376
40
0.3499183391926376
40
0.3499183391926376
40
0.46921080819195038
40
0.46921080819195038
40
0.46921080819195038
40
0.58639032069510877
40
0.58639032069510877
40
0.58639032069510877
40
0.6781246217455692
40
0.6781246217455692
40
0.6781246217455692
40
0.6781246217455692
10
-72.562349811061338
20
-69.265000000000015
30
0
10
-72.562349811061338
20
-68.850739296714551
30
0
10
-72.354078393845981
20
-68.403111417257293
30
0
10
-72.021242915293669
20
-68.126908241337432
30
0
10
-71.705056681673838
20
-67.864521424019188
30
0
10
-71.257124290266688
20
-67.729335945319477
30
0
10
-70.839483834212984
20
-67.774152953011153
30
0
10
-70.458926423803391
20
-67.814990578155545
30
0
10
-70.084159787149986
20
-68.007155425049547
30
0
10
-69.836160612848758
20
-68.28477596230789
30
0
10
-69.561157693765807
20
-68.592625608817968
30
0
10
-69.419968554974233
20
-69.030672745158341
30
0
10
-69.469318742339283
20
-69.438969274626714
30
0
10
-69.517794819210565
20
-69.840033890701619
30
0
10
-69.746645368218424
20
-70.225075114822886
30
0
10
-70.083533236714601
20
-70.467752816381449
30
0
10
-70.347266823659197
20
-70.657733717116173
30
0
10
-70.682830568856346
20
-70.765000000000015
30
0
10
-71.010595191072809
20
-70.765000000000015
30
0
0
SPLINE
5
103
100
AcDbEntity
8
0
100
AcDbSpline
70
0
71
3
72
14
73
10
74
0
42
0.000000001
43
0.0000000001
44
0.0000000001
40
0.6781246217455692
40
0.6781246217455692
40
0.6781246217455692
40
0.6781246217455692
40
0.69306140791455251
40
0.69306140791455251
40
0.69306140791455251
40
0.81053692876234873
40
0.81053692876234873
40
0.81053692876234873
40
0.90416616232742442
40
0.90416616232742442
40
0.90416616232742442
40
0.90416616232742442
10
-71.010595191072809
20
-70.765000000000015
30
0
10
-71.063963996631287
20
-70.765000000000015
30
0
10
-71.11449070496036
20
-70.762510808379474
30
0
10
-71.167267106429918
20
-70.757330429519612
30
0
10
-71.582345368980413
20
-70.71658754829555
30
0
10
-71.986939554017582
20
-70.499426736321482
30
0
10
-72.242437553130131
20
-70.17701806883484
30
0
10
-72.446072162806075
20
-69.920054948231851
30
0
10
-72.562349811061338
20
-69.577097445216936
30
0
10
-72.562349811061338
20
-69.265000000000015
30
0
0
SPLINE
5
104
100
AcDbEntity
8
0
100
AcDbSpline
70
2
71
3
72
32
73
28
74
0
42
0.000000001
43
0.0000000001
44
0.0000000001
40
0
40
0
40
0
40
0
40
0.19690999760205444
40
0.19690999760205444
40
0.19690999760205444
40
0.35314282800733565
40
0.35314282800733565
40
0.35314282800733565
40
0.57194858166776741
40
0.57194858166776741
40
0.57194858166776741
40
0.80559913197386313
40
0.80559913197386313
40
0.80559913197386313
40
1.0255138272933473
40
1.0255138272933473
40
1.0255138272933473
40
1.2571569554599744
40
1.2571569554599744
40
1.2571569554599744
40
1.4760452361027223
40
1.4760452361027223
40
1.4760452361027223
40
1.6911876943809432
40
1.6911876943809432
40
1.6911876943809432
40
1.8090433518651003
40
1.8090433518651003
40
1.8090433518651003
40
1.8090433518651003
10
8.1223010421221815
20
-68.999999999999972
30
0
10
8.1223010421221833
20
-69.656366658673491
30
0
10
7.8609723084033796
20
-70.379352883186414
30
0
10
7.4173209678484504
20
-70.901637311846045
30
0
10
7.0653179944490407
20
-71.316029549720156
30
0
10
6.5990198744794846
20
-71.638765729491112
30
0
10
6.0608623689073662
20
-71.824788304306423
30
0
10
5.3071670137808731
20
-72.085314914332855
30
0
10
4.4938452430542855
20
-72.056792993036055
30
0
10
3.7613131182193675
20
-71.743871833239126
30
0
10
2.9790826182381256
20
-71.409720651353666
30
0
10
2.37878342204319
20
-70.786356741394144
30
0
10
2.0906977362431887
20
-70.008279043289491
30
0
10
1.8195480396744699
20
-69.275942998330862
30
0
10
1.8515713775922393
20
-68.48441261460971
30
0
10
2.1812040453675134
20
-67.77443829911013
30
0
10
2.5284165961179128
20
-67.026599819642655
30
0
10
3.1683483594426001
20
-66.454236900536173
30
0
10
3.9657883569112462
20
-66.177029260459562
30
0
10
4.7193193221644458
20
-65.915085363407059
30
0
10
5.5330053952881695
20
-65.94232773446825
30
0
10
6.2663107410149443
20
-66.254307740338419
30
0
10
6.987067075182102
20
-66.560948850586371
30
0
10
7.5501014801352317
20
-67.106823455099516
30
0
10
7.8646201315564115
20
-67.804892996800476
30
0
10
8.0369143534916159
20
-68.187297499683112
30
0
10
8.1223010421221815
20
-68.607147808386102
30
0
10
8.1223010421221815
20
-68.999999999999972
30
0
0
LINE
5
105
100
AcDbEntity
8
0
100
AcDbLine
10
10.031894051600299
20
5.9999999999999964
30
0
11
10.031894051600299
21
0
31
0
0
LINE
5
106
100
AcDbEntity
8
0
100
AcDbLine
10
10.031894051600299
20
0
30
0
11
0
21
0
31
0
0
LINE
5
107
100
AcDbEntity
8
0
100
AcDbLine
10
0
20
0
30
0
11
0
21
5.9999999999999964
31
0
0
LINE
5
108
100
AcDbEntity
8
0
100
AcDbLine
10
0
20
0
30
0
11
0
21
5.9999999999999964
31
0
0
LINE
5
109
100
AcDbEntity
8
0
100
AcDbLine
10
10.031894051600299
20
0
30
0
11
0
21
0
31
0
0
LINE
5
110
100
AcDbEntity
8
0
100
AcDbLine
10
10.031894051600299
20
5.9999999999999964
30
0
11
10.031894051600299
21
0
31
0
0
SPLINE
5
111
100
AcDbEntity
8
0
100
AcDbSpline
70
2
71
3
72
32
73
28
74
0
42
0.000000001
43
0.0000000001
44
0.0000000001
40
0
40
0
40
0
40
0
40
0.19690999760205444
40
0.19690999760205444
40
0.19690999760205444
40
0.35314282800733565
40
0.35314282800733565
40
0.35314282800733565
40
0.57194858166776741
40
0.57194858166776741
40
0.57194858166776741
40
0.80559913197386313
40
0.80559913197386313
40
0.80559913197386313
40
1.0255138272933473
40
1.0255138272933473
40
1.0255138272933473
40
1.2571569554599744
40
1.2571569554599744
40
1.2571569554599744
40
1.4760452361027223
40
1.4760452361027223
40
1.4760452361027223
40
1.6911876943809432
40
1.6911876943809432
40
1.6911876943809432
40
1.8090433518651003
40
1.8090433518651003
40
1.8090433518651003
40
1.8090433518651003
10
8.1223010421221815
20
-68.999999999999972
30
0
10
8.1223010421221833
20
-69.656366658673491
30
0
10
7.8609723084033796
20
-70.379352883186414
30
0
10
7.4173209678484504
20
-70.901637311846045
30
0
10
7.0653179944490407
20
-71.316029549720156
30
0
10
6.5990198744794846
20
-71.638765729491112
30
0
10
6.0608623689073662
20
-71.824788304306423
30
0
10
5.3071670137808731
20
-72.085314914332855
30
0
10
4.4938452430542855
20
-72.056792993036055
30
0
10
3.7613131182193675
20
-71.743871833239126
30
0
10
2.9790826182381256
20
-71.409720651353666
30
0
10
2.37878342204319
20
-70.786356741394144
30
0
10
2.0906977362431887
20
-70.008279043289491
30
0
10
1.8195480396744699
20
-69.275942998330862
30
0
10
1.8515713775922393
20
-68.48441261460971
30
0
10
2.1812040453675134
20
-67.77443829911013
30
0
10
2.5284165961179128
20
-67.026599819642655
30
0
10
3.1683483594426001
20
-66.454236900536173
30
0
10
3.9657883569112462
20
-66.177029260459562
30
0
10
4.7193193221644458
20
-65.915085363407059
30
0
10
5.5330053952881695
20
-65.94232773446825
30
0
10
6.2663107410149443
20
-66.254307740338419
30
0
10
6.987067075182102
20
-66.560948850586371
30
0
10
7.5501014801352317
20
-67.106823455099516
30
0
10
7.8646201315564115
20
-67.804892996800476
30
0
10
8.0369143534916159
20
-68.187297499683112
30
0
10
8.1223010421221815
20
-68.607147808386102
30
0
10
8.1223010421221815
20
-68.999999999999972
30
0
0
SPLINE
5
112
100
AcDbEntity
8
0
100
AcDbSpline
70
0
71
3
72
23
73
19
74
0
42
0.000000001
43
0.0000000001
44
0.0000000001
40
0
40
0
40
0
40
0
40
0.12427821098559684
40
0.12427821098559684
40
0.12427821098559684
40
0.24233972180623897
40
0.24233972180623897
40
0.24233972180623897
40
0.34991833919279114
40
0.34991833919279114
40
0.34991833919279114
40
0.46921080819214295
40
0.46921080819214295
40
0.46921080819214295
40
0.58639032069537111
40
0.58639032069537111
40
0.58639032069537111
40
0.67812462174557087
40
0.67812462174557087
40
0.67812462174557087
40
0.67812462174557087
10
-148.58889202793432
20
-69.265000000000015
30
0
10
-148.58889202793432
20
-68.850739296714693
30
0
10
-148.38062061071912
20
-68.403111417257577
30
0
10
-148.04778513216704
20
-68.12690824133773
30
0
10
-147.73159889854702
20
-67.864521424019173
30
0
10
-147.2836665071394
20
-67.729335945319335
30
0
10
-146.86602605108533
20
-67.774152953011239
30
0
10
-146.48546864067538
20
-67.814990578155815
30
0
10
-146.11070200402193
20
-68.007155425050158
30
0
10
-145.86270282972069
20
-68.284775962309084
30
0
10
-145.58769991063792
20
-68.592625608819617
30
0
10
-145.44651077184687
20
-69.030672745160132
30
0
10
-145.49586095921254
20
-69.438969274628676
30
0
10
-145.54433703608439
20
-69.84003389070385
30
0
10
-145.7731875850929
20
-70.22507511482489
30
0
10
-146.11007545358984
20
-70.467752816383069
30
0
10
-146.37380904053413
20
-70.657733717116841
30
0
10
-146.7093727857301
20
-70.765000000000015
30
0
10
-147.03713740794581
20
-70.765000000000015
30
0
0
ENDSEC
0
SECTION
2
OBJECTS
0
DICTIONARY
5
C
100
AcDbDictionary
3
ACAD_GROUP
350
D
3
ACAD_MLINESTYLE
350
17
0
DICTIONARY
5
D
100
AcDbDictionary
0
DICTIONARY
5
1A
330
C
100
AcDbDictionary
0
DICTIONARY
5
17
100
AcDbDictionary
0
ENDSEC
0
EOF
