0
SECTION
2
HEADER
9
$INSUNITS
70
4
9
$ACADVER
1
AC1014
9
$HANDSEED
5
FFFF
0
ENDSEC
0
SECTION
2
TABLES
0
TABLE
2
VPORT
5
8
100
AcDbSymbolTable
0
ENDTAB
0
TABLE
2
LTYPE
5
5
100
AcDbSymbolTable
0
LTYPE
5
14
100
AcDbSymbolTableRecord
100
AcDbLinetypeTableRecord
2
BYBLOCK
70
0
0
LTYPE
5
15
100
AcDbSymbolTableRecord
100
AcDbLinetypeTableRecord
2
BYLAYER
70
0
0
LTYPE
5
16
100
AcDbSymbolTableRecord
100
AcDbLinetypeTableRecord
2
DASHED
70
0
3
Dashed __ __ __ __ __ __ __ __ __ __ __ __ __ _
72
65
73
2
40
0.75
49
0.5
74
0
49
-0.25
74
0
0
ENDTAB
0
TABLE
2
LAYER
5
2
100
AcDbSymbolTable
70
3
0
LAYER
5
50
100
AcDbSymbolTableRecord
100
AcDbLayerTableRecord
2
1
70
0
62
7
6
DASHED
0
LAYER
5
51
100
AcDbSymbolTableRecord
100
AcDbLayerTableRecord
2
0
70
0
62
7
6
CONTINUOUS
0
ENDTAB
0
TABLE
2
STYLE
5
3
100
AcDbSymbolTable
70
1
0
STYLE
5
11
100
AcDbSymbolTableRecord
100
AcDbTextStyleTableRecord
2
STANDARD
70
0
0
ENDTAB
0
TABLE
2
VIEW
5
6
100
AcDbSymbolTable
70
0
0
ENDTAB
0
TABLE
2
UCS
5
7
100
AcDbSymbolTable
70
0
0
ENDTAB
0
TABLE
2
APPID
5
9
100
AcDbSymbolTable
70
2
0
APPID
5
12
100
AcDbSymbolTableRecord
100
AcDbRegAppTableRecord
2
ACAD
70
0
0
ENDTAB
0
TABLE
2
DIMSTYLE
5
A
100
AcDbSymbolTable
70
1
0
ENDTAB
0
TABLE
2
BLOCK_RECORD
5
1
100
AcDbSymbolTable
70
1
0
BLOCK_RECORD
5
1F
100
AcDbSymbolTableRecord
100
AcDbBlockTableRecord
2
*MODEL_SPACE
0
BLOCK_RECORD
5
1B
100
AcDbSymbolTableRecord
100
AcDbBlockTableRecord
2
*PAPER_SPACE
0
ENDTAB
0
ENDSEC
0
SECTION
2
BLOCKS
0
BLOCK
5
20
100
AcDbEntity
100
AcDbBlockBegin
2
*MODEL_SPACE
0
ENDBLK
5
21
100
AcDbEntity
100
AcDbBlockEnd
0
BLOCK
5
1C
100
AcDbEntity
100
AcDbBlockBegin
2
*PAPER_SPACE
0
ENDBLK
5
1D
100
AcDbEntity
100
AcDbBlockEnd
0
ENDSEC
0
SECTION
2
ENTITIES
0
SPLINE
5
100
100
AcDbEntity
8
0
100
AcDbSpline
70
2
71
3
72
32
73
28
74
0
42
0.000000001
43
0.0000000001
44
0.0000000001
40
0
40
0
40
0
40
0
40
0.19690999760204414
40
0.19690999760204414
40
0.19690999760204414
40
0.35314282800733299
40
0.35314282800733299
40
0.35314282800733299
40
0.57194858166784901
40
0.57194858166784901
40
0.57194858166784901
40
0.80559913197368394
40
0.80559913197368394
40
0.80559913197368394
40
1.0255138272933286
40
1.0255138272933286
40
1.0255138272933286
40
1.2571569554599571
40
1.2571569554599571
40
1.2571569554599571
40
1.476045236102729
40
1.476045236102729
40
1.476045236102729
40
1.6911876943809299
40
1.6911876943809299
40
1.6911876943809299
40
1.8090433518651006
40
1.8090433518651006
40
1.8090433518651006
40
1.8090433518651006
10
-105.91751228318728
20
-68.999999999999972
30
0
10
-105.91751228318728
20
-69.656366658673463
30
0
10
-106.17884101690603
20
-70.379352883186343
30
0
10
-106.62249235746091
20
-70.901637311845974
30
0
10
-106.97449533086032
20
-71.316029549720113
30
0
10
-107.44079345082991
20
-71.638765729491084
30
0
10
-107.97895095640203
20
-71.824788304306423
30
0
10
-108.73264631152881
20
-72.08531491433294
30
0
10
-109.54596808225581
20
-72.056792993036026
30
0
10
-110.27850020709089
20
-71.743871833238785
30
0
10
-111.06073070707114
20
-71.409720651353467
30
0
10
-111.66102990326539
20
-70.78635674139494
30
0
10
-111.94911558906561
20
-70.008279043291282
30
0
10
-112.22026528563504
20
-69.275942998332255
30
0
10
-112.18824194771749
20
-68.484412614610406
30
0
10
-111.85860927994202
20
-67.774438299110301
30
0
10
-111.51139672919165
20
-67.026599819642783
30
0
10
-110.87146496586701
20
-66.454236900536259
30
0
10
-110.07402496839838
20
-66.177029260459619
30
0
10
-109.32049400314514
20
-65.915085363407044
30
0
10
-108.50680793002127
20
-65.942327734468236
30
0
10
-107.77350258429443
20
-66.254307740338447
30
0
10
-107.05274625012734
20
-66.560948850586399
30
0
10
-106.48971184517428
20
-67.106823455099459
30
0
10
-106.17519319375307
20
-67.804892996800334
30
0
10
-106.00289897181784
20
-68.187297499683012
30
0
10
-105.91751228318728
20
-68.60714780838606
30
0
10
-105.91751228318728
20
-68.999999999999972
30
0
0
LINE
5
101
100
AcDbEntity
8
0
100
AcDbLine
10
10.031894051600299
20
5.9999999999999964
30
0
11
10.031894051600299
21
0
31
0
0
LINE
5
102
100
AcDbEntity
8
0
100
AcDbLine
10
10.031894051600299
20
0
30
0
11
0
21
0
31
0
0
LINE
5
103
100
AcDbEntity
8
0
100
AcDbLine
10
0
20
0
30
0
11
0
21
5.9999999999999964
31
0
0
LINE
5
104
100
AcDbEntity
8
0
100
AcDbLine
10
0
20
0
30
0
11
0
21
5.9999999999999964
31
0
0
LINE
5
105
100
AcDbEntity
8
0
100
AcDbLine
10
10.031894051600299
20
0
30
0
11
0
21
0
31
0
0
LINE
5
106
100
AcDbEntity
8
0
100
AcDbLine
10
10.031894051600299
20
5.9999999999999964
30
0
11
10.031894051600299
21
0
31
0
0
SPLINE
5
107
100
AcDbEntity
8
0
100
AcDbSpline
70
2
71
3
72
32
73
28
74
0
42
0.000000001
43
0.0000000001
44
0.0000000001
40
0
40
0
40
0
40
0
40
0.19690999760204414
40
0.19690999760204414
40
0.19690999760204414
40
0.35314282800733299
40
0.35314282800733299
40
0.35314282800733299
40
0.57194858166784901
40
0.57194858166784901
40
0.57194858166784901
40
0.80559913197368394
40
0.80559913197368394
40
0.80559913197368394
40
1.0255138272933286
40
1.0255138272933286
40
1.0255138272933286
40
1.2571569554599571
40
1.2571569554599571
40
1.2571569554599571
40
1.476045236102729
40
1.476045236102729
40
1.476045236102729
40
1.6911876943809299
40
1.6911876943809299
40
1.6911876943809299
40
1.8090433518651006
40
1.8090433518651006
40
1.8090433518651006
40
1.8090433518651006
10
-105.91751228318728
20
-68.999999999999972
30
0
10
-105.91751228318728
20
-69.656366658673463
30
0
10
-106.17884101690603
20
-70.379352883186343
30
0
10
-106.62249235746091
20
-70.901637311845974
30
0
10
-106.97449533086032
20
-71.316029549720113
30
0
10
-107.44079345082991
20
-71.638765729491084
30
0
10
-107.97895095640203
20
-71.824788304306423
30
0
10
-108.73264631152881
20
-72.08531491433294
30
0
10
-109.54596808225581
20
-72.056792993036026
30
0
10
-110.27850020709089
20
-71.743871833238785
30
0
10
-111.06073070707114
20
-71.409720651353467
30
0
10
-111.66102990326539
20
-70.78635674139494
30
0
10
-111.94911558906561
20
-70.008279043291282
30
0
10
-112.22026528563504
20
-69.275942998332255
30
0
10
-112.18824194771749
20
-68.484412614610406
30
0
10
-111.85860927994202
20
-67.774438299110301
30
0
10
-111.51139672919165
20
-67.026599819642783
30
0
10
-110.87146496586701
20
-66.454236900536259
30
0
10
-110.07402496839838
20
-66.177029260459619
30
0
10
-109.32049400314514
20
-65.915085363407044
30
0
10
-108.50680793002127
20
-65.942327734468236
30
0
10
-107.77350258429443
20
-66.254307740338447
30
0
10
-107.05274625012734
20
-66.560948850586399
30
0
10
-106.48971184517428
20
-67.106823455099459
30
0
10
-106.17519319375307
20
-67.804892996800334
30
0
10
-106.00289897181784
20
-68.187297499683012
30
0
10
-105.91751228318728
20
-68.60714780838606
30
0
10
-105.91751228318728
20
-68.999999999999972
30
0
0
SPLINE
5
108
100
AcDbEntity
8
0
100
AcDbSpline
70
0
71
3
72
23
73
19
74
0
42
0.000000001
43
0.0000000001
44
0.0000000001
40
0
40
0
40
0
40
0
40
0.1242782109860126
40
0.1242782109860126
40
0.1242782109860126
40
0.24233972180656421
40
0.24233972180656421
40
0.24233972180656421
40
0.34991833919301507
40
0.34991833919301507
40
0.34991833919301507
40
0.46921080819230671
40
0.46921080819230671
40
0.46921080819230671
40
0.58639032069569763
40
0.58639032069569763
40
0.58639032069569763
40
0.67812462174556887
40
0.67812462174556887
40
0.67812462174556887
40
0.67812462174556887
10
41.477463514248136
20
-69.265000000000001
30
0
10
41.477463514248136
20
-68.8507392967133
30
0
10
41.685734931464509
20
-68.403111417255005
30
0
10
42.018570410018761
20
-68.126908241334959
30
0
10
42.334756643639544
20
-67.864521424017269
30
0
10
42.782689035046701
20
-67.729335945318809
30
0
10
43.200329491100582
20
-67.774152953011594
30
0
10
43.580886901510269
20
-67.81499057815698
30
0
10
43.955653538162672
20
-68.007155425051678
30
0
10
44.203652712463317
20
-68.284775962310803
30
0
10
44.478655631545585
20
-68.59262560882172
30
0
10
44.619844770335845
20
-69.030672745161951
30
0
10
44.570494582969744
20
-69.438969274630352
30
0
10
44.522018506097325
20
-69.840033890706152
30
0
10
44.293167957087917
20
-70.225075114827206
30
0
10
43.956280088589793
20
-70.467752816385087
30
0
10
43.692546501645907
20
-70.657733717117694
30
0
10
43.356982756451323
20
-70.765000000000001
30
0
10
43.029218134236665
20
-70.765000000000001
30
0
0
SPLINE
5
109
100
AcDbEntity
8
0
100
AcDbSpline
70
0
71
3
72
14
73
10
74
0
42
0.000000001
43
0.0000000001
44
0.0000000001
40
0.67812462174556887
40
0.67812462174556887
40
0.67812462174556887
40
0.67812462174556887
40
0.69306140791552806
40
0.69306140791552806
40
0.69306140791552806
40
0.81053692876306482
40
0.81053692876306482
40
0.81053692876306482
40
0.90416616232742641
40
0.90416616232742641
40
0.90416616232742641
40
0.90416616232742641
10
43.029218134236665
20
-70.765000000000001
30
0
10
42.975849328674649
20
-70.765000000000001
30
0
10
42.925322620342286
20
-70.762510808379147
30
0
10
42.872546218869225
20
-70.757330429518589
30
0
10
42.45746795631927
20
-70.716587548291869
30
0
10
42.05287377128527
20
-70.499426736316437
30
0
10
41.797375772174661
20
-70.177018068828957
30
0
10
41.593741162501374
20
-69.920054948226692
30
0
10
41.477463514248136
20
-69.577097445214534
30
0
10
41.477463514248136
20
-69.265000000000001
30
0
0
SPLINE
5
110
100
AcDbEntity
8
0
100
AcDbSpline
70
0
71
3
72
23
73
19
74
0
42
0.000000001
43
0.0000000001
44
0.0000000001
40
0
40
0
40
0
40
0
40
0.12427821098558292
40
0.12427821098558292
40
0.12427821098558292
40
0.24233972180615712
40
0.24233972180615712
40
0.24233972180615712
40
0.34991833919260051
40
0.34991833919260051
40
0.34991833919260051
40
0.46921080819184169
40
0.46921080819184169
40
0.46921080819184169
40
0.586390320694816
40
0.586390320694816
40
0.586390320694816
40
0.67812462174557075
40
0.67812462174557075
40
0.67812462174557075
40
0.67812462174557075
10
-34.549078702624847
20
-69.265000000000029
30
0
10
-34.549078702624854
20
-68.85073929671475
30
0
10
-34.340807285409682
20
-68.403111417257662
30
0
10
-34.007971806857668
20
-68.12690824133783
30
0
10
-33.691785573237851
20
-67.864521424019401
30
0
10
-33.243853181830552
20
-67.729335945319505
30
0
10
-32.826212725776713
20
-67.774152953011139
30
0
10
-32.445655315367176
20
-67.814990578155474
30
0
10
-32.070888678713779
20
-68.007155425049376
30
0
10
-31.82288950441253
20
-68.284775962307606
30
0
10
-31.547886585329682
20
-68.5926256088174
30
0
10
-31.406697446537969
20
-69.030672745157503
30
0
10
-31.456047633902653
20
-69.438969274625592
30
0
10
-31.504523710773533
20
-69.840033890699814
30
0
10
-31.733374259780554
20
-70.225075114820882
30
0
10
-32.070262128275566
20
-70.467752816379615
30
0
10
-32.333995715220503
20
-70.657733717115406
30
0
10
-32.669559460418974
20
-70.765000000000015
30
0
10
-32.997324082636311
20
-70.765000000000015
30
0
0
SPLINE
5
111
100
AcDbEntity
8
0
100
AcDbSpline
70
0
71
3
72
14
73
10
74
0
42
0.000000001
43
0.0000000001
44
0.0000000001
40
0.67812462174557075
40
0.67812462174557075
40
0.67812462174557075
40
0.67812462174557075
40
0.69306140791402571
40
0.69306140791402571
40
0.69306140791402571
40
0.8105369287606915
40
0.8105369287606915
40
0.8105369287606915
40
0.90416616232742497
40
0.90416616232742497
40
0.90416616232742497
40
0.90416616232742497
10
-32.997324082636311
20
-70.765000000000015
30
0
10
-33.050692888192877
20
-70.765000000000015
30
0
10
-33.10121959652016
20
-70.762510808379659
30
0
10
-33.153995997987835
20
-70.757330429520167
30
0
10
-33.569074260534123
20
-70.716587548297994
30
0
10
-33.973668445569494
20
-70.499426736328473
30
0
10
-34.229166444682832
20
-70.177018068848497
30
0
10
-34.432801054364958
20
-69.920054948243802
30
0
10
-34.549078702624847
20
-69.577097445222464
30
0
10
-34.549078702624847
20
-69.265000000000029
30
0
0
ENDSEC
0
SECTION
2
OBJECTS
0
DICTIONARY
5
C
100
AcDbDictionary
3
ACAD_GROUP
350
D
3
ACAD_MLINESTYLE
350
17
0
DICTIONARY
5
D
100
AcDbDictionary
0
DICTIONARY
5
1A
330
C
100
AcDbDictionary
0
DICTIONARY
5
17
100
AcDbDictionary
0
ENDSEC
0
EOF
