<!-- Created by MapBoards Pro AddIn Version 2.806 for Fusion 360 (https://icarussoftlandings.com/app/product/mapboardspro/) -->
<svg xmlns="http://www.w3.org/2000/svg" width="1190.55118px" height="1798.97953px" version="1.1" x="0" y="0" viewBox="0 0 1190.55118 1798.97953" enable-background="new 0 0 1190.55118 1798.97953" xml:space="preserve"><g><g><path fill="none" stroke="rgb(0,0,255)" stroke-width="0.75px" d="M428.91229 449.5748  L428.91229,480.75591  L288.59733,480.75591  L288.59733,449.5748  L271.58945,449.5748  L271.58945,480.75591  L131.27449,480.75591  L131.27449,449.5748  L114.26662,449.5748  L114.26662,480.75591  L85.92016,480.75591  L85.92016,422.22047  L49.06977,422.22047  L49.06977,408.04724  L81.89003,375.22698 A14.17323 14.17323,0,0,0,84.83397 359.48091  L3.9956,176.36976 A14.17323 14.17323,0,0,1,16.96152 156.47244  L169.56914,156.47244 A42.51969 42.51969,0,0,1,192.93319 163.46685  L580.55205,418.3937  L474.26662,418.3937  L474.26662,480.75591  L445.92016,480.75591  L445.92016,449.5748 Z" /></g><g><path fill="none" stroke="rgb(0,0,255)" stroke-width="0.75px" d="M583.43244 280.96957  L610.85996,280.96957  L610.85996,297.97744  L583.43244,297.97744 A102.89764 102.89764,0,0,0,677.47414 392.01914  L677.47414,364.59162  L694.48201,364.59162  L694.48201,392.01914 A102.89764 102.89764,0,0,0,788.52371 297.97744  L761.09618,297.97744  L761.09618,280.96957  L788.52371,280.96957 A102.89764 102.89764,0,0,0,694.48201 186.92787  L694.48201,214.3554  L677.47414,214.3554  L677.47414,186.92787 A102.89764 102.89764,0,0,0,622.79949 208.25534  L634.95815,220.41401  L616.91858,238.45358  L604.75991,226.29492 A102.89764 102.89764,0,0,0,583.43244 280.96957 " /><circle fill="none" stroke="rgb(0,0,255)" stroke-width="0.75px" cx="685.97807" cy="289.47351" r="43.93701" /></g><g><path fill="none" stroke="rgb(0,0,255)" stroke-width="0.75px" d="M583.43244 488.8965  L610.85996,488.8965  L610.85996,505.90437  L583.43244,505.90437 A102.89764 102.89764,0,0,0,677.47414 599.94607  L677.47414,572.51855  L694.48201,572.51855  L694.48201,599.94607 A102.89764 102.89764,0,0,0,788.52371 505.90437  L761.09618,505.90437  L761.09618,488.8965  L788.52371,488.8965 A102.89764 102.89764,0,0,0,694.48201 394.8548  L694.48201,422.28233  L677.47414,422.28233  L677.47414,394.8548 A102.89764 102.89764,0,0,0,622.79949 416.18227  L634.95815,428.34094  L616.91858,446.38051  L604.75991,434.22185 A102.89764 102.89764,0,0,0,583.43244 488.8965 " /><circle fill="none" stroke="rgb(0,0,255)" stroke-width="0.75px" cx="685.97807" cy="497.40044" r="43.93701" /></g><g><path fill="none" stroke="rgb(0,0,255)" stroke-width="0.75px" d="M154.47441 514.77165  L154.47441,483.59055  L294.78937,483.59055  L294.78937,514.77165  L311.79725,514.77165  L311.79725,483.59055  L452.11221,483.59055  L452.11221,514.77165  L469.12008,514.77165  L469.12008,483.59055  L497.46654,483.59055  L497.46654,542.12598  L534.31693,542.12598  L534.31693,556.29921  L501.49667,589.11947 A14.17323 14.17323,0,0,0,498.55273 604.86555  L579.3911,787.9767 A14.17323 14.17323,0,0,1,566.42518 807.87402  L413.81756,807.87402 A42.51969 42.51969,0,0,1,390.45351 800.8796  L2.83465,545.95276  L109.12008,545.95276  L109.12008,483.59055  L137.46654,483.59055  L137.46654,514.77165 Z" /></g><g><path fill="none" stroke="rgb(0,0,255)" stroke-width="0.75px" d="M583.43244 696.82343  L610.85996,696.82343  L610.85996,713.8313  L583.43244,713.8313 A102.89764 102.89764,0,0,0,677.47414 807.873  L677.47414,780.44548  L694.48201,780.44548  L694.48201,807.873 A102.89764 102.89764,0,0,0,788.52371 713.8313  L761.09618,713.8313  L761.09618,696.82343  L788.52371,696.82343 A102.89764 102.89764,0,0,0,694.48201 602.78173  L694.48201,630.20926  L677.47414,630.20926  L677.47414,602.78173 A102.89764 102.89764,0,0,0,622.79949 624.1092  L634.95815,636.26787  L616.91858,654.30744  L604.75991,642.14878 A102.89764 102.89764,0,0,0,583.43244 696.82343 " /><circle fill="none" stroke="rgb(0,0,255)" stroke-width="0.75px" cx="685.97807" cy="705.32737" r="43.93701" /></g><g><path fill="none" stroke="rgb(0,0,255)" stroke-width="0.75px" d="M31.1811 837.6378  L31.1811,839.05512  L2.83465,839.05512  L2.83465,810.70866  L31.1811,810.70866  L31.1811,812.12598  L48.18898,812.12598  L48.18898,810.70866  L188.50394,810.70866  L188.50394,812.12598  L205.51181,812.12598  L205.51181,810.70866  L345.82677,810.70866  L345.82677,812.12598  L362.83465,812.12598  L362.83465,810.70866  L890.07874,810.70866 A14.17323 14.17323,0,0,1,890.07874 839.05512  L362.83465,839.05512  L362.83465,837.6378  L345.82677,837.6378  L345.82677,839.05512  L205.51181,839.05512  L205.51181,837.6378  L188.50394,837.6378  L188.50394,839.05512  L48.18898,839.05512  L48.18898,837.6378 Z" /><circle fill="none" stroke="rgb(0,0,255)" stroke-width="0.75px" cx="844.72441" cy="824.88189" r="3.54331" /><circle fill="none" stroke="rgb(0,0,255)" stroke-width="0.75px" cx="56.69291" cy="824.88189" r="3.54331" /><circle fill="none" stroke="rgb(0,0,255)" stroke-width="0.75px" cx="878.74016" cy="824.88189" r="3.54331" /><circle fill="none" stroke="rgb(0,0,255)" stroke-width="0.75px" cx="22.67717" cy="824.88189" r="3.54331" /></g></g><g><g><path fill="none" stroke="rgb(0,0,255)" stroke-width="0.75px" d="M428.91229 1437.84567  L428.91229,1469.02677  L288.59733,1469.02677  L288.59733,1437.84567  L271.58945,1437.84567  L271.58945,1469.02677  L131.27449,1469.02677  L131.27449,1437.84567  L114.26662,1437.84567  L114.26662,1469.02677  L85.92016,1469.02677  L85.92016,1410.49134  L49.06977,1410.49134  L49.06977,1396.31811  L81.89003,1363.49785 A14.17323 14.17323,0,0,0,84.83397 1347.75178  L3.9956,1164.64062 A14.17323 14.17323,0,0,1,16.96152 1144.74331  L169.56914,1144.74331 A42.51969 42.51969,0,0,1,192.93319 1151.73772  L580.55205,1406.66457  L474.26662,1406.66457  L474.26662,1469.02677  L445.92016,1469.02677  L445.92016,1437.84567 Z" /></g><g><path fill="none" stroke="rgb(0,0,255)" stroke-width="0.75px" d="M428.91229 1764.96378  L428.91229,1796.14488  L288.59733,1796.14488  L288.59733,1764.96378  L271.58945,1764.96378  L271.58945,1796.14488  L131.27449,1796.14488  L131.27449,1764.96378  L114.26662,1764.96378  L114.26662,1796.14488  L85.92016,1796.14488  L85.92016,1737.60945  L49.06977,1737.60945  L49.06977,1723.43622  L81.89003,1690.61596 A14.17323 14.17323,0,0,0,84.83397 1674.86989  L3.9956,1491.75873 A14.17323 14.17323,0,0,1,16.96152 1471.86142  L169.56914,1471.86142 A42.51969 42.51969,0,0,1,192.93319 1478.85583  L580.55205,1733.78268  L474.26662,1733.78268  L474.26662,1796.14488  L445.92016,1796.14488  L445.92016,1764.96378 Z" /></g></g></svg>