0
SECTION
2
HEADER
9
$INSUNITS
70
4
9
$ACADVER
1
AC1014
9
$HANDSEED
5
FFFF
0
ENDSEC
0
SECTION
2
TABLES
0
TABLE
2
VPORT
5
8
100
AcDbSymbolTable
0
ENDTAB
0
TABLE
2
LTYPE
5
5
100
AcDbSymbolTable
0
LTYPE
5
14
100
AcDbSymbolTableRecord
100
AcDbLinetypeTableRecord
2
BYBLOCK
70
0
0
LTYPE
5
15
100
AcDbSymbolTableRecord
100
AcDbLinetypeTableRecord
2
BYLAYER
70
0
0
LTYPE
5
16
100
AcDbSymbolTableRecord
100
AcDbLinetypeTableRecord
2
DASHED
70
0
3
Dashed __ __ __ __ __ __ __ __ __ __ __ __ __ _
72
65
73
2
40
0.75
49
0.5
74
0
49
-0.25
74
0
0
ENDTAB
0
TABLE
2
LAYER
5
2
100
AcDbSymbolTable
70
3
0
LAYER
5
50
100
AcDbSymbolTableRecord
100
AcDbLayerTableRecord
2
1
70
0
62
7
6
DASHED
0
LAYER
5
51
100
AcDbSymbolTableRecord
100
AcDbLayerTableRecord
2
0
70
0
62
7
6
CONTINUOUS
0
ENDTAB
0
TABLE
2
STYLE
5
3
100
AcDbSymbolTable
70
1
0
STYLE
5
11
100
AcDbSymbolTableRecord
100
AcDbTextStyleTableRecord
2
STANDARD
70
0
0
ENDTAB
0
TABLE
2
VIEW
5
6
100
AcDbSymbolTable
70
0
0
ENDTAB
0
TABLE
2
UCS
5
7
100
AcDbSymbolTable
70
0
0
ENDTAB
0
TABLE
2
APPID
5
9
100
AcDbSymbolTable
70
2
0
APPID
5
12
100
AcDbSymbolTableRecord
100
AcDbRegAppTableRecord
2
ACAD
70
0
0
ENDTAB
0
TABLE
2
DIMSTYLE
5
A
100
AcDbSymbolTable
70
1
0
ENDTAB
0
TABLE
2
BLOCK_RECORD
5
1
100
AcDbSymbolTable
70
1
0
BLOCK_RECORD
5
1F
100
AcDbSymbolTableRecord
100
AcDbBlockTableRecord
2
*MODEL_SPACE
0
BLOCK_RECORD
5
1B
100
AcDbSymbolTableRecord
100
AcDbBlockTableRecord
2
*PAPER_SPACE
0
ENDTAB
0
ENDSEC
0
SECTION
2
BLOCKS
0
BLOCK
5
20
100
AcDbEntity
100
AcDbBlockBegin
2
*MODEL_SPACE
0
ENDBLK
5
21
100
AcDbEntity
100
AcDbBlockEnd
0
BLOCK
5
1C
100
AcDbEntity
100
AcDbBlockBegin
2
*PAPER_SPACE
0
ENDBLK
5
1D
100
AcDbEntity
100
AcDbBlockEnd
0
ENDSEC
0
SECTION
2
ENTITIES
0
LWPOLYLINE
5
100
100
AcDbEntity
8
0
100
AcDbPolyline
90
4
70
1
43
0.0
10
-36
20
-210.72751740669571
10
-16
20
-210.72751740669571
10
-16
20
-216.33273394161375
10
-36
20
-216.33273394161375
0
LWPOLYLINE
5
101
100
AcDbEntity
8
0
100
AcDbPolyline
90
4
70
1
43
0.0
10
-306
20
-210.72751740669571
10
-306
20
-216.33273394161375
10
-326
20
-216.33273394161375
10
-326
20
-210.72751740669571
0
LINE
5
102
100
AcDbEntity
8
0
100
AcDbLine
10
-14.999999999999734
20
-187.08090379795632
30
0
11
-150.00000000003661
21
-187.08090379795632
31
0
0
LINE
5
103
100
AcDbEntity
8
0
100
AcDbLine
10
-150.00000000003661
20
-187.08090379795632
30
0
11
-150.00000000003661
21
-181.07448529541909
31
0
0
LINE
5
104
100
AcDbEntity
8
0
100
AcDbLine
10
-150.00000000003661
20
-181.07448529541909
30
0
11
-14.999999999999734
21
-181.07448529541909
31
0
0
LINE
5
105
100
AcDbEntity
8
0
100
AcDbLine
10
-14.999999999999734
20
-128.17604154302222
30
0
11
-150.00000000003661
21
-128.17604154302222
31
0
0
LINE
5
106
100
AcDbEntity
8
0
100
AcDbLine
10
-150.00000000003661
20
-128.17604154302222
30
0
11
-150.00000000003661
21
-122.16962304048501
31
0
0
LINE
5
107
100
AcDbEntity
8
0
100
AcDbLine
10
-150.00000000003661
20
-122.16962304048501
30
0
11
-14.999999999999734
21
-122.16962304048501
31
0
0
LINE
5
108
100
AcDbEntity
8
0
100
AcDbLine
10
-14.999999999999734
20
-69.271179288088121
30
-4.9303806576313238e-31
11
-150.00000000003661
21
-69.271179288088121
31
-4.9303806576313238e-31
0
LINE
5
109
100
AcDbEntity
8
0
100
AcDbLine
10
-150.00000000003661
20
-69.271179288088121
30
-4.9303806576313238e-31
11
-150.00000000003661
21
-63.264760785550926
31
-4.9303806576313238e-31
0
LINE
5
110
100
AcDbEntity
8
0
100
AcDbLine
10
-150.00000000003661
20
-63.264760785550926
30
-4.9303806576313238e-31
11
-14.999999999999734
21
-63.264760785550926
31
0
0
LINE
5
111
100
AcDbEntity
8
0
100
AcDbLine
10
-14.999999999999734
20
-10.36631703315404
30
0
11
-150.00000000003661
21
-10.36631703315404
31
0
0
LINE
5
112
100
AcDbEntity
8
0
100
AcDbLine
10
-150.00000000003661
20
-10.36631703315404
30
0
11
-150.00000000003661
21
-4.3598985306168103
31
0
0
LINE
5
113
100
AcDbEntity
8
0
100
AcDbLine
10
-150.00000000003661
20
-4.3598985306168103
30
0
11
-14.999999999999734
21
-4.3598985306168103
31
0
0
LINE
5
114
100
AcDbEntity
8
0
100
AcDbLine
10
-14.999999999999734
20
-187.08090379795632
30
0
11
-14.999999999999734
21
-181.07448529541909
31
0
0
LINE
5
115
100
AcDbEntity
8
0
100
AcDbLine
10
-14.999999999999734
20
-128.17604154302222
30
0
11
-14.999999999999734
21
-122.16962304048501
31
0
0
LINE
5
116
100
AcDbEntity
8
0
100
AcDbLine
10
-14.999999999999734
20
-69.271179288088121
30
-4.9303806576313238e-31
11
-14.999999999999734
21
-63.264760785550926
31
0
0
LINE
5
117
100
AcDbEntity
8
0
100
AcDbLine
10
-14.999999999999734
20
-10.36631703315404
30
0
11
-14.999999999999734
21
-4.3598985306168103
31
0
0
LINE
5
118
100
AcDbEntity
8
0
100
AcDbLine
10
-14.999999999999734
20
-184.0776945466877
30
0
11
-7.4999999999998668
21
-184.0776945466877
31
0
0
LINE
5
119
100
AcDbEntity
8
0
100
AcDbLine
10
0.017560553936015744
20
-188.07765599987019
30
0
11
-7.4999999999998668
21
-184.0776945466877
31
0
0
LINE
5
120
100
AcDbEntity
8
0
100
AcDbLine
10
0.017560553936015744
20
-180.07773309350523
30
0
11
-7.4999999999998668
21
-184.0776945466877
31
0
0
LINE
5
121
100
AcDbEntity
8
0
100
AcDbLine
10
0.017560553936015744
20
-129.17265599987019
30
0
11
-7.4999999999998668
21
-125.17269454668771
31
0
0
LINE
5
122
100
AcDbEntity
8
0
100
AcDbLine
10
0.017560553936015744
20
-121.17273309350523
30
0
11
-7.4999999999998668
21
-125.17269454668771
31
0
0
LINE
5
123
100
AcDbEntity
8
0
100
AcDbLine
10
-14.999999999999734
20
-125.17269454668771
30
0
11
-7.4999999999998668
21
-125.17269454668771
31
0
0
LINE
5
124
100
AcDbEntity
8
0
100
AcDbLine
10
0.017560553936015744
20
-70.267655999870172
30
0
11
-7.4999999999998668
21
-66.267694546687693
31
0
0
LINE
5
125
100
AcDbEntity
8
0
100
AcDbLine
10
0.017560553936015744
20
-62.267733093505214
30
0
11
-7.4999999999998668
21
-66.267694546687693
31
0
0
LINE
5
126
100
AcDbEntity
8
0
100
AcDbLine
10
-14.999999999999734
20
-66.267694546687693
30
0
11
-7.4999999999998668
21
-66.267694546687693
31
0
0
LINE
5
127
100
AcDbEntity
8
0
100
AcDbLine
10
0.017560553936015744
20
-11.362655999870164
30
0
11
-7.4999999999998668
21
-7.3626945466876847
31
0
0
LINE
5
128
100
AcDbEntity
8
0
100
AcDbLine
10
0.017560553936015744
20
-3.3627330935052058
30
0
11
-7.4999999999998668
21
-7.3626945466876847
31
0
0
LINE
5
129
100
AcDbEntity
8
0
100
AcDbLine
10
-14.999999999999734
20
-7.3626945466876847
30
0
11
-7.4999999999998668
21
-7.3626945466876847
31
0
0
ENDSEC
0
SECTION
2
OBJECTS
0
DICTIONARY
5
C
100
AcDbDictionary
3
ACAD_GROUP
350
D
3
ACAD_MLINESTYLE
350
17
0
DICTIONARY
5
D
100
AcDbDictionary
0
DICTIONARY
5
1A
330
C
100
AcDbDictionary
0
DICTIONARY
5
17
100
AcDbDictionary
0
ENDSEC
0
EOF
