0
SECTION
2
HEADER
9
$INSUNITS
70
4
9
$ACADVER
1
AC1014
9
$HANDSEED
5
FFFF
0
ENDSEC
0
SECTION
2
TABLES
0
TABLE
2
VPORT
5
8
100
AcDbSymbolTable
0
ENDTAB
0
TABLE
2
LTYPE
5
5
100
AcDbSymbolTable
0
LTYPE
5
14
100
AcDbSymbolTableRecord
100
AcDbLinetypeTableRecord
2
BYBLOCK
70
0
0
LTYPE
5
15
100
AcDbSymbolTableRecord
100
AcDbLinetypeTableRecord
2
BYLAYER
70
0
0
LTYPE
5
16
100
AcDbSymbolTableRecord
100
AcDbLinetypeTableRecord
2
DASHED
70
0
3
Dashed __ __ __ __ __ __ __ __ __ __ __ __ __ _
72
65
73
2
40
0.75
49
0.5
74
0
49
-0.25
74
0
0
ENDTAB
0
TABLE
2
LAYER
5
2
100
AcDbSymbolTable
70
3
0
LAYER
5
50
100
AcDbSymbolTableRecord
100
AcDbLayerTableRecord
2
1
70
0
62
7
6
DASHED
0
LAYER
5
51
100
AcDbSymbolTableRecord
100
AcDbLayerTableRecord
2
0
70
0
62
7
6
CONTINUOUS
0
ENDTAB
0
TABLE
2
STYLE
5
3
100
AcDbSymbolTable
70
1
0
STYLE
5
11
100
AcDbSymbolTableRecord
100
AcDbTextStyleTableRecord
2
STANDARD
70
0
0
ENDTAB
0
TABLE
2
VIEW
5
6
100
AcDbSymbolTable
70
0
0
ENDTAB
0
TABLE
2
UCS
5
7
100
AcDbSymbolTable
70
0
0
ENDTAB
0
TABLE
2
APPID
5
9
100
AcDbSymbolTable
70
2
0
APPID
5
12
100
AcDbSymbolTableRecord
100
AcDbRegAppTableRecord
2
ACAD
70
0
0
ENDTAB
0
TABLE
2
DIMSTYLE
5
A
100
AcDbSymbolTable
70
1
0
ENDTAB
0
TABLE
2
BLOCK_RECORD
5
1
100
AcDbSymbolTable
70
1
0
BLOCK_RECORD
5
1F
100
AcDbSymbolTableRecord
100
AcDbBlockTableRecord
2
*MODEL_SPACE
0
BLOCK_RECORD
5
1B
100
AcDbSymbolTableRecord
100
AcDbBlockTableRecord
2
*PAPER_SPACE
0
ENDTAB
0
ENDSEC
0
SECTION
2
BLOCKS
0
BLOCK
5
20
100
AcDbEntity
100
AcDbBlockBegin
2
*MODEL_SPACE
0
ENDBLK
5
21
100
AcDbEntity
100
AcDbBlockEnd
0
BLOCK
5
1C
100
AcDbEntity
100
AcDbBlockBegin
2
*PAPER_SPACE
0
ENDBLK
5
1D
100
AcDbEntity
100
AcDbBlockEnd
0
ENDSEC
0
SECTION
2
ENTITIES
0
LINE
5
100
100
AcDbEntity
8
0
100
AcDbLine
10
-14.999999999999734
20
-187.08090379795632
30
0
11
-150.00000000003661
21
-187.08090379795632
31
0
0
LINE
5
101
100
AcDbEntity
8
0
100
AcDbLine
10
-150.00000000003661
20
-187.08090379795632
30
0
11
-150.00000000003661
21
-181.07448529541909
31
0
0
LINE
5
102
100
AcDbEntity
8
0
100
AcDbLine
10
-150.00000000003661
20
-181.07448529541909
30
0
11
-14.999999999999734
21
-181.07448529541909
31
0
0
LINE
5
103
100
AcDbEntity
8
0
100
AcDbLine
10
-14.999999999999734
20
-128.17604154302222
30
0
11
-150.00000000003661
21
-128.17604154302222
31
0
0
LINE
5
104
100
AcDbEntity
8
0
100
AcDbLine
10
-150.00000000003661
20
-128.17604154302222
30
0
11
-150.00000000003661
21
-122.16962304048501
31
0
0
LINE
5
105
100
AcDbEntity
8
0
100
AcDbLine
10
-150.00000000003661
20
-122.16962304048501
30
0
11
-14.999999999999734
21
-122.16962304048501
31
0
0
LINE
5
106
100
AcDbEntity
8
0
100
AcDbLine
10
-14.999999999999734
20
-69.271179288088121
30
-4.9303806576313238e-31
11
-150.00000000003661
21
-69.271179288088121
31
-4.9303806576313238e-31
0
LINE
5
107
100
AcDbEntity
8
0
100
AcDbLine
10
-150.00000000003661
20
-69.271179288088121
30
-4.9303806576313238e-31
11
-150.00000000003661
21
-63.264760785550926
31
-4.9303806576313238e-31
0
LINE
5
108
100
AcDbEntity
8
0
100
AcDbLine
10
-150.00000000003661
20
-63.264760785550926
30
-4.9303806576313238e-31
11
-14.999999999999734
21
-63.264760785550926
31
0
0
LINE
5
109
100
AcDbEntity
8
0
100
AcDbLine
10
-14.999999999999734
20
-10.36631703315404
30
0
11
-150.00000000003661
21
-10.36631703315404
31
0
0
LINE
5
110
100
AcDbEntity
8
0
100
AcDbLine
10
-150.00000000003661
20
-10.36631703315404
30
0
11
-150.00000000003661
21
-4.3598985306168103
31
0
0
LINE
5
111
100
AcDbEntity
8
0
100
AcDbLine
10
-150.00000000003661
20
-4.3598985306168103
30
0
11
-14.999999999999734
21
-4.3598985306168103
31
0
0
LINE
5
112
100
AcDbEntity
8
0
100
AcDbLine
10
-14.999999999999734
20
-187.08090379795632
30
0
11
-14.999999999999734
21
-181.07448529541909
31
0
0
LINE
5
113
100
AcDbEntity
8
0
100
AcDbLine
10
-14.999999999999734
20
-128.17604154302222
30
0
11
-14.999999999999734
21
-122.16962304048501
31
0
0
LINE
5
114
100
AcDbEntity
8
0
100
AcDbLine
10
-14.999999999999734
20
-69.271179288088121
30
-4.9303806576313238e-31
11
-14.999999999999734
21
-63.264760785550926
31
0
0
LINE
5
115
100
AcDbEntity
8
0
100
AcDbLine
10
-14.999999999999734
20
-10.36631703315404
30
0
11
-14.999999999999734
21
-4.3598985306168103
31
0
0
LINE
5
116
100
AcDbEntity
8
0
100
AcDbLine
10
-14.999999999999734
20
-184.0776945466877
30
0
11
-7.4999999999998668
21
-184.0776945466877
31
0
0
LINE
5
117
100
AcDbEntity
8
0
100
AcDbLine
10
0.017560553936015744
20
-188.07765599987019
30
0
11
-7.4999999999998668
21
-184.0776945466877
31
0
0
LINE
5
118
100
AcDbEntity
8
0
100
AcDbLine
10
0.017560553936015744
20
-180.07773309350523
30
0
11
-7.4999999999998668
21
-184.0776945466877
31
0
0
LINE
5
119
100
AcDbEntity
8
0
100
AcDbLine
10
0.017560553936015744
20
-129.17265599987019
30
0
11
-7.4999999999998668
21
-125.17269454668771
31
0
0
LINE
5
120
100
AcDbEntity
8
0
100
AcDbLine
10
0.017560553936015744
20
-121.17273309350523
30
0
11
-7.4999999999998668
21
-125.17269454668771
31
0
0
LINE
5
121
100
AcDbEntity
8
0
100
AcDbLine
10
-14.999999999999734
20
-125.17269454668771
30
0
11
-7.4999999999998668
21
-125.17269454668771
31
0
0
LINE
5
122
100
AcDbEntity
8
0
100
AcDbLine
10
0.017560553936015744
20
-70.267655999870172
30
0
11
-7.4999999999998668
21
-66.267694546687693
31
0
0
LINE
5
123
100
AcDbEntity
8
0
100
AcDbLine
10
0.017560553936015744
20
-62.267733093505214
30
0
11
-7.4999999999998668
21
-66.267694546687693
31
0
0
LINE
5
124
100
AcDbEntity
8
0
100
AcDbLine
10
-14.999999999999734
20
-66.267694546687693
30
0
11
-7.4999999999998668
21
-66.267694546687693
31
0
0
LINE
5
125
100
AcDbEntity
8
0
100
AcDbLine
10
0.017560553936015744
20
-11.362655999870164
30
0
11
-7.4999999999998668
21
-7.3626945466876847
31
0
0
LINE
5
126
100
AcDbEntity
8
0
100
AcDbLine
10
0.017560553936015744
20
-3.3627330935052058
30
0
11
-7.4999999999998668
21
-7.3626945466876847
31
0
0
LINE
5
127
100
AcDbEntity
8
0
100
AcDbLine
10
-14.999999999999734
20
-7.3626945466876847
30
0
11
-7.4999999999998668
21
-7.3626945466876847
31
0
0
SPLINE
5
128
100
AcDbEntity
8
0
100
AcDbSpline
70
0
71
3
72
20
73
16
74
0
42
0.000000001
43
0.0000000001
44
0.0000000001
40
1.2888017257312596
40
1.2888017257312596
40
1.2888017257312596
40
1.2888017257312596
40
1.4819355639550074
40
1.4819355639550074
40
1.4819355639550074
40
1.6484497601010697
40
1.6484497601010697
40
1.6484497601010697
40
1.8274807904075809
40
1.8274807904075809
40
1.8274807904075809
40
2.0411033696132779
40
2.0411033696132779
40
2.0411033696132779
40
2.148002876218766
40
2.148002876218766
40
2.148002876218766
40
2.148002876218766
10
-38.350000000000065
20
-213.53012567415473
30
0
10
-38.350000000000065
20
-212.88634621340753
30
0
10
-38.092815546935213
20
-212.17579780160713
30
0
10
-37.664152619917957
20
-211.67493016468865
30
0
10
-37.294572315573753
20
-211.24309712753629
30
0
10
-36.782011477920491
20
-210.91610051248614
30
0
10
-36.214883485053562
20
-210.76874668947337
30
0
10
-35.605124610263282
20
-210.61031631318014
30
0
10
-34.976405553307721
20
-210.65515705687181
30
0
10
-34.392724189600102
20
-210.90186702023661
30
0
10
-33.696266608274421
20
-211.19624514340049
30
0
10
-33.152992651385581
20
-211.74492197963178
30
0
10
-32.864993521295823
20
-212.44404527633458
30
0
10
-32.720875024908977
20
-212.793895632752
30
0
10
-32.65000000000007
20
-213.17379398546905
30
0
10
-32.65000000000007
20
-213.53012567415476
30
0
0
SPLINE
5
129
100
AcDbEntity
8
0
100
AcDbSpline
70
0
71
3
72
20
73
16
74
0
42
0.000000001
43
0.0000000001
44
0.0000000001
40
1.2888017257312596
40
1.2888017257312596
40
1.2888017257312596
40
1.2888017257312596
40
1.4819355639550074
40
1.4819355639550074
40
1.4819355639550074
40
1.6484497601010697
40
1.6484497601010697
40
1.6484497601010697
40
1.8274807904075809
40
1.8274807904075809
40
1.8274807904075809
40
2.0411033696132779
40
2.0411033696132779
40
2.0411033696132779
40
2.148002876218766
40
2.148002876218766
40
2.148002876218766
40
2.148002876218766
10
-38.350000000000065
20
-213.53012567415473
30
0
10
-38.350000000000065
20
-212.88634621340753
30
0
10
-38.092815546935213
20
-212.17579780160713
30
0
10
-37.664152619917957
20
-211.67493016468865
30
0
10
-37.294572315573753
20
-211.24309712753629
30
0
10
-36.782011477920491
20
-210.91610051248614
30
0
10
-36.214883485053562
20
-210.76874668947337
30
0
10
-35.605124610263282
20
-210.61031631318014
30
0
10
-34.976405553307721
20
-210.65515705687181
30
0
10
-34.392724189600102
20
-210.90186702023661
30
0
10
-33.696266608274421
20
-211.19624514340049
30
0
10
-33.152992651385581
20
-211.74492197963178
30
0
10
-32.864993521295823
20
-212.44404527633458
30
0
10
-32.720875024908977
20
-212.793895632752
30
0
10
-32.65000000000007
20
-213.17379398546905
30
0
10
-32.65000000000007
20
-213.53012567415476
30
0
0
SPLINE
5
130
100
AcDbEntity
8
0
100
AcDbSpline
70
0
71
3
72
20
73
16
74
0
42
0.000000001
43
0.0000000001
44
0.0000000001
40
1.2888017257312594
40
1.2888017257312594
40
1.2888017257312594
40
1.2888017257312594
40
1.4819355639511365
40
1.4819355639511365
40
1.4819355639511365
40
1.6484497600989434
40
1.6484497600989434
40
1.6484497600989434
40
1.8274807904076695
40
1.8274807904076695
40
1.8274807904076695
40
2.0411033696130128
40
2.0411033696130128
40
2.0411033696130128
40
2.148002876218766
40
2.148002876218766
40
2.148002876218766
40
2.148002876218766
10
-308.35000000000002
20
-213.53012567415476
30
0
10
-308.35000000000002
20
-212.88634621342044
30
0
10
-308.09281554694701
20
-212.17579780163499
30
0
10
-307.66415261994371
20
-211.67493016471872
30
0
10
-307.29457231560025
20
-211.24309712755513
30
0
10
-306.78201147794744
20
-210.91610051249796
30
0
10
-306.21488348507523
20
-210.76874668947903
30
0
10
-305.60512461027821
20
-210.61031631317888
30
0
10
-304.97640555331395
20
-210.65515705686894
30
0
10
-304.39272418959922
20
-210.90186702023701
30
0
10
-303.69626660827475
20
-211.1962451434006
30
0
10
-303.15299265138685
20
-211.74492197963065
30
0
10
-302.86499352129687
20
-212.44404527633202
30
0
10
-302.72087502490933
20
-212.79389563275018
30
0
10
-302.65000000000009
20
-213.17379398546814
30
0
10
-302.65000000000009
20
-213.53012567415476
30
0
0
SPLINE
5
131
100
AcDbEntity
8
0
100
AcDbSpline
70
0
71
3
72
20
73
16
74
0
42
0.000000001
43
0.0000000001
44
0.0000000001
40
0.42960057524375284
40
0.42960057524375284
40
0.42960057524375284
40
0.42960057524375284
40
0.62273441346965208
40
0.62273441346965208
40
0.62273441346965208
40
0.7892486096145106
40
0.7892486096145106
40
0.7892486096145106
40
0.96827963991962607
40
0.96827963991962607
40
0.96827963991962607
40
1.1819022191264241
40
1.1819022191264241
40
1.1819022191264241
40
1.2888017257312594
40
1.2888017257312594
40
1.2888017257312594
40
1.2888017257312594
10
-302.65000000000003
20
-213.53012567415473
30
0
10
-302.65000000000003
20
-214.17390513490909
30
0
10
-302.90718445307147
20
-214.88445354671782
30
0
10
-303.33584738009654
20
-215.38532118363759
30
0
10
-303.70542768444068
20
-215.8171542207831
30
0
10
-304.21798852209292
20
-216.14415083582884
30
0
10
-304.7851165149562
20
-216.29150465883862
30
0
10
-305.3948753897422
20
-216.44993503512842
30
0
10
-306.02359444669219
20
-216.40509429143657
30
0
10
-306.60727581039561
20
-216.1583843280747
30
0
10
-307.30373339172536
20
-215.86400620491048
30
0
10
-307.84700734861735
20
-215.31532936867563
30
0
10
-308.13500647870694
20
-214.61620607196858
30
0
10
-308.27912497509209
20
-214.26635571555289
30
0
10
-308.35000000000002
20
-213.88645736283826
30
0
10
-308.35000000000002
20
-213.53012567415476
30
-9.8607613152626476e-31
0
SPLINE
5
132
100
AcDbEntity
8
0
100
AcDbSpline
70
0
71
3
72
20
73
16
74
0
42
0.000000001
43
0.0000000001
44
0.0000000001
40
0.42960057524375306
40
0.42960057524375306
40
0.42960057524375306
40
0.42960057524375306
40
0.6227344134676368
40
0.6227344134676368
40
0.6227344134676368
40
0.78924860961357413
40
0.78924860961357413
40
0.78924860961357413
40
0.9682796399200484
40
0.9682796399200484
40
0.9682796399200484
40
1.1819022191255675
40
1.1819022191255675
40
1.1819022191255675
40
1.2888017257312596
40
1.2888017257312596
40
1.2888017257312596
40
1.2888017257312596
10
-32.65000000000007
20
-213.53012567415473
30
0
10
-32.65000000000007
20
-214.17390513490236
30
0
10
-32.907184453065334
20
-214.88445354670333
30
0
10
-33.335847380083088
20
-215.38532118362187
30
0
10
-33.705427684427178
20
-215.81715422077366
30
0
10
-34.217988522080176
20
-216.14415083582344
30
0
10
-34.785116514946694
20
-216.29150465883612
30
0
10
-35.394875389736846
20
-216.44993503512927
30
0
10
-36.02359444669225
20
-216.40509429143762
30
0
10
-36.607275810399777
20
-216.15838432807294
30
0
10
-37.303733391724919
20
-215.86400620490937
30
0
10
-37.847007348613431
20
-215.31532936867887
30
0
10
-38.135006478703481
20
-214.61620607197693
30
0
10
-38.279124975090866
20
-214.26635571555892
30
0
10
-38.350000000000072
20
-213.8864573628411
30
0
10
-38.350000000000072
20
-213.53012567415473
30
0
0
SPLINE
5
133
100
AcDbEntity
8
0
100
AcDbSpline
70
0
71
3
72
20
73
16
74
0
42
0.000000001
43
0.0000000001
44
0.0000000001
40
0.42960057524375306
40
0.42960057524375306
40
0.42960057524375306
40
0.42960057524375306
40
0.6227344134676368
40
0.6227344134676368
40
0.6227344134676368
40
0.78924860961357413
40
0.78924860961357413
40
0.78924860961357413
40
0.9682796399200484
40
0.9682796399200484
40
0.9682796399200484
40
1.1819022191255675
40
1.1819022191255675
40
1.1819022191255675
40
1.2888017257312596
40
1.2888017257312596
40
1.2888017257312596
40
1.2888017257312596
10
-32.65000000000007
20
-213.53012567415473
30
0
10
-32.65000000000007
20
-214.17390513490236
30
0
10
-32.907184453065334
20
-214.88445354670333
30
0
10
-33.335847380083088
20
-215.38532118362187
30
0
10
-33.705427684427178
20
-215.81715422077366
30
0
10
-34.217988522080176
20
-216.14415083582344
30
0
10
-34.785116514946694
20
-216.29150465883612
30
0
10
-35.394875389736846
20
-216.44993503512927
30
0
10
-36.02359444669225
20
-216.40509429143762
30
0
10
-36.607275810399777
20
-216.15838432807294
30
0
10
-37.303733391724919
20
-215.86400620490937
30
0
10
-37.847007348613431
20
-215.31532936867887
30
0
10
-38.135006478703481
20
-214.61620607197693
30
0
10
-38.279124975090866
20
-214.26635571555892
30
0
10
-38.350000000000072
20
-213.8864573628411
30
0
10
-38.350000000000072
20
-213.53012567415473
30
0
0
ENDSEC
0
SECTION
2
OBJECTS
0
DICTIONARY
5
C
100
AcDbDictionary
3
ACAD_GROUP
350
D
3
ACAD_MLINESTYLE
350
17
0
DICTIONARY
5
D
100
AcDbDictionary
0
DICTIONARY
5
1A
330
C
100
AcDbDictionary
0
DICTIONARY
5
17
100
AcDbDictionary
0
ENDSEC
0
EOF
