0
SECTION
2
HEADER
9
$INSUNITS
70
4
9
$ACADVER
1
AC1014
9
$HANDSEED
5
FFFF
0
ENDSEC
0
SECTION
2
TABLES
0
TABLE
2
VPORT
5
8
100
AcDbSymbolTable
0
ENDTAB
0
TABLE
2
LTYPE
5
5
100
AcDbSymbolTable
0
LTYPE
5
14
100
AcDbSymbolTableRecord
100
AcDbLinetypeTableRecord
2
BYBLOCK
70
0
0
LTYPE
5
15
100
AcDbSymbolTableRecord
100
AcDbLinetypeTableRecord
2
BYLAYER
70
0
0
LTYPE
5
16
100
AcDbSymbolTableRecord
100
AcDbLinetypeTableRecord
2
DASHED
70
0
3
Dashed __ __ __ __ __ __ __ __ __ __ __ __ __ _
72
65
73
2
40
0.75
49
0.5
74
0
49
-0.25
74
0
0
ENDTAB
0
TABLE
2
LAYER
5
2
100
AcDbSymbolTable
70
3
0
LAYER
5
50
100
AcDbSymbolTableRecord
100
AcDbLayerTableRecord
2
1
70
0
62
7
6
DASHED
0
LAYER
5
51
100
AcDbSymbolTableRecord
100
AcDbLayerTableRecord
2
0
70
0
62
7
6
CONTINUOUS
0
ENDTAB
0
TABLE
2
STYLE
5
3
100
AcDbSymbolTable
70
1
0
STYLE
5
11
100
AcDbSymbolTableRecord
100
AcDbTextStyleTableRecord
2
STANDARD
70
0
0
ENDTAB
0
TABLE
2
VIEW
5
6
100
AcDbSymbolTable
70
0
0
ENDTAB
0
TABLE
2
UCS
5
7
100
AcDbSymbolTable
70
0
0
ENDTAB
0
TABLE
2
APPID
5
9
100
AcDbSymbolTable
70
2
0
APPID
5
12
100
AcDbSymbolTableRecord
100
AcDbRegAppTableRecord
2
ACAD
70
0
0
ENDTAB
0
TABLE
2
DIMSTYLE
5
A
100
AcDbSymbolTable
70
1
0
ENDTAB
0
TABLE
2
BLOCK_RECORD
5
1
100
AcDbSymbolTable
70
1
0
BLOCK_RECORD
5
1F
100
AcDbSymbolTableRecord
100
AcDbBlockTableRecord
2
*MODEL_SPACE
0
BLOCK_RECORD
5
1B
100
AcDbSymbolTableRecord
100
AcDbBlockTableRecord
2
*PAPER_SPACE
0
ENDTAB
0
ENDSEC
0
SECTION
2
BLOCKS
0
BLOCK
5
20
100
AcDbEntity
100
AcDbBlockBegin
2
*MODEL_SPACE
0
ENDBLK
5
21
100
AcDbEntity
100
AcDbBlockEnd
0
BLOCK
5
1C
100
AcDbEntity
100
AcDbBlockBegin
2
*PAPER_SPACE
0
ENDBLK
5
1D
100
AcDbEntity
100
AcDbBlockEnd
0
ENDSEC
0
SECTION
2
ENTITIES
0
POINT
5
100
100
AcDbEntity
8
0
100
AcDbPoint
10
0
20
-117.80472450956734
30
0
0
SPLINE
5
101
100
AcDbEntity
8
0
100
AcDbSpline
70
2
71
3
72
32
73
28
74
0
42
0.000000001
43
0.0000000001
44
0.0000000001
40
0
40
0
40
0
40
0
40
0.19780019698274454
40
0.19780019698274454
40
0.19780019698274454
40
0.35760808832543012
40
0.35760808832543012
40
0.35760808832543012
40
0.5720849898910767
40
0.5720849898910767
40
0.5720849898910767
40
0.80620703199752275
40
0.80620703199752275
40
0.80620703199752275
40
1.0252357868479687
40
1.0252357868479687
40
1.0252357868479687
40
1.2577973042405171
40
1.2577973042405171
40
1.2577973042405171
40
1.4775045748906732
40
1.4775045748906732
40
1.4775045748906732
40
1.7107654692782333
40
1.7107654692782333
40
1.7107654692782333
40
1.808925626909033
40
1.808925626909033
40
1.808925626909033
40
1.808925626909033
10
-199.99999999999997
20
-63.264760785416165
30
0
10
-199.3406660100575
20
-63.264760785416165
30
0
10
-198.61417473814697
20
-63.519944406230557
30
0
10
-198.09119810982892
20
-63.952092185805995
30
0
10
-197.66867177533641
20
-64.301235545902841
30
0
10
-197.34125851883206
20
-64.767648220519234
30
0
10
-197.15952737040152
20
-65.302609439023072
30
0
10
-196.9156274396417
20
-66.020576641008418
30
0
10
-196.94969139189467
20
-66.788640998584441
30
0
10
-197.25685985059258
20
-67.482753243905307
30
4.9303806576313238e-31
10
-197.59216358864586
20
-68.240443116984125
30
-4.9303806576313238e-31
10
-198.21805452732059
20
-68.821323585953536
30
0
10
-198.99835294999178
20
-69.098501293628459
30
4.9303806576313238e-31
10
-199.72834740242246
20
-69.357810018420537
30
4.9303806576313238e-31
10
-200.51606981757311
20
-69.326408934641691
30
0
10
-201.22348409472858
20
-69.00958800493683
30
0
10
-201.97460619206581
20
-68.673192191500419
30
0
10
-202.54924569082181
20
-68.050948849404222
30
0
10
-202.82556586202668
20
-67.276147809771928
30
4.9303806576313238e-31
10
-203.08661313812664
20
-66.544171928193975
30
4.9303806576313238e-31
10
-203.056061480089
20
-65.753846699856837
30
-4.9303806576313238e-31
10
-202.73901374827463
20
-65.043904776285785
30
9.8607613152626476e-31
10
-202.40240751185965
20
-64.290166916062233
30
-4.9303806576313238e-31
10
-201.77820509917478
20
-63.712991532023217
30
0
10
-201.00069089172734
20
-63.437099315370844
30
0
10
-200.67349966936831
20
-63.320999171166164
30
4.9303806576313238e-31
10
-200.32720052543596
20
-63.264760785416165
30
0
10
-199.99999999999997
20
-63.264760785416165
30
0
0
LWPOLYLINE
5
102
100
AcDbEntity
8
0
100
AcDbPolyline
90
4
70
1
43
0.0
10
0
20
-235.60944901913467
10
0
20
0
10
-500
20
2.1033522146218786e-16
10
-500
20
-235.60944901913467
0
LINE
5
103
100
AcDbEntity
8
0
100
AcDbLine
10
-192.5
20
-235.60944901913467
30
0
11
-192.5
21
1.0660059551766047e-15
31
0
0
LINE
5
104
100
AcDbEntity
8
0
100
AcDbLine
10
-207.5
20
-235.60944901913467
30
0
11
-207.5
21
8.4441973420882189e-17
31
0
0
SPLINE
5
105
100
AcDbEntity
8
0
100
AcDbSpline
70
2
71
3
72
32
73
28
74
0
42
0.000000001
43
0.0000000001
44
0.0000000001
40
0
40
0
40
0
40
0
40
0.19780019698274454
40
0.19780019698274454
40
0.19780019698274454
40
0.35760808832543012
40
0.35760808832543012
40
0.35760808832543012
40
0.5720849898910767
40
0.5720849898910767
40
0.5720849898910767
40
0.80620703199752275
40
0.80620703199752275
40
0.80620703199752275
40
1.0252357868479687
40
1.0252357868479687
40
1.0252357868479687
40
1.2577973042405171
40
1.2577973042405171
40
1.2577973042405171
40
1.4775045748906732
40
1.4775045748906732
40
1.4775045748906732
40
1.7107654692782333
40
1.7107654692782333
40
1.7107654692782333
40
1.808925626909033
40
1.808925626909033
40
1.808925626909033
40
1.808925626909033
10
-199.99999999999997
20
-63.264760785416165
30
0
10
-199.3406660100575
20
-63.264760785416165
30
0
10
-198.61417473814697
20
-63.519944406230557
30
0
10
-198.09119810982892
20
-63.952092185805995
30
0
10
-197.66867177533641
20
-64.301235545902841
30
0
10
-197.34125851883206
20
-64.767648220519234
30
0
10
-197.15952737040152
20
-65.302609439023072
30
0
10
-196.9156274396417
20
-66.020576641008418
30
0
10
-196.94969139189467
20
-66.788640998584441
30
0
10
-197.25685985059258
20
-67.482753243905307
30
4.9303806576313238e-31
10
-197.59216358864586
20
-68.240443116984125
30
-4.9303806576313238e-31
10
-198.21805452732059
20
-68.821323585953536
30
0
10
-198.99835294999178
20
-69.098501293628459
30
4.9303806576313238e-31
10
-199.72834740242246
20
-69.357810018420537
30
4.9303806576313238e-31
10
-200.51606981757311
20
-69.326408934641691
30
0
10
-201.22348409472858
20
-69.00958800493683
30
0
10
-201.97460619206581
20
-68.673192191500419
30
0
10
-202.54924569082181
20
-68.050948849404222
30
0
10
-202.82556586202668
20
-67.276147809771928
30
4.9303806576313238e-31
10
-203.08661313812664
20
-66.544171928193975
30
4.9303806576313238e-31
10
-203.056061480089
20
-65.753846699856837
30
-4.9303806576313238e-31
10
-202.73901374827463
20
-65.043904776285785
30
9.8607613152626476e-31
10
-202.40240751185965
20
-64.290166916062233
30
-4.9303806576313238e-31
10
-201.77820509917478
20
-63.712991532023217
30
0
10
-201.00069089172734
20
-63.437099315370844
30
0
10
-200.67349966936831
20
-63.320999171166164
30
4.9303806576313238e-31
10
-200.32720052543596
20
-63.264760785416165
30
0
10
-199.99999999999997
20
-63.264760785416165
30
0
0
SPLINE
5
106
100
AcDbEntity
8
0
100
AcDbSpline
70
0
71
3
72
17
73
13
74
0
42
0.000000001
43
0.0000000001
44
0.0000000001
40
0.67811363960121507
40
0.67811363960121507
40
0.67811363960121507
40
0.67811363960121507
40
0.80262535480375707
40
0.80262535480375707
40
0.80262535480375707
40
0.92290056749589244
40
0.92290056749589244
40
0.92290056749589244
40
1.0314701359698026
40
1.0314701359698026
40
1.0314701359698026
40
1.1301893993353571
40
1.1301893993353571
40
1.1301893993353571
40
1.1301893993353571
10
-198.76499999999999
20
-144.80778637642319
30
0
10
-198.76499999999999
20
-145.22282542709834
30
0
10
-198.96681722421317
20
-145.67116785470381
30
-9.8607613152626476e-31
10
-199.28972011583144
20
-145.94762374023986
30
-9.8607613152626476e-31
10
-199.60163625886361
20
-146.21467323336387
30
9.8607613152626476e-31
10
-200.04353793015775
20
-146.34885458228607
30
0
10
-200.45562653098798
20
-146.29601487158743
30
0
10
-200.82760909134876
20
-146.24831772385073
30
0
10
-201.18654248978123
20
-146.04872031019102
30
0
10
-201.42318447687933
20
-145.76109874684437
30
0
10
-201.63835639822025
20
-145.49957252673735
30
-9.8607613152626476e-31
10
-201.76500000000001
20
-145.1368505876417
30
9.8607613152626476e-31
10
-201.76500000000001
20
-144.80778637642319
30
0
0
SPLINE
5
107
100
AcDbEntity
8
0
100
AcDbSpline
70
0
71
3
72
17
73
13
74
0
42
0.000000001
43
0.0000000001
44
0.0000000001
40
0.2260378798670733
40
0.2260378798670733
40
0.2260378798670733
40
0.2260378798670733
40
0.350549595069648
40
0.350549595069648
40
0.350549595069648
40
0.47082480776189317
40
0.47082480776189317
40
0.47082480776189317
40
0.57939437623606249
40
0.57939437623606249
40
0.57939437623606249
40
0.67811363960121507
40
0.67811363960121507
40
0.67811363960121507
40
0.67811363960121507
10
-201.76500000000001
20
-144.80778637642319
30
0
10
-201.76500000000001
20
-144.39274732574793
30
0
10
-201.56318277578674
20
-143.94440489814232
30
0
10
-201.2402798841683
20
-143.6679490126063
30
0
10
-200.9283637411358
20
-143.40089951948212
30
0
10
-200.48646206984125
20
-143.26671817056001
30
0
10
-200.07437346901057
20
-143.31955788125913
30
0
10
-199.70239090864885
20
-143.36725502899634
30
0
10
-199.34345751021607
20
-143.56685244265702
30
0
10
-199.10681552311803
20
-143.8544740060052
30
0
10
-198.89164360177858
20
-144.11600022611191
30
0
10
-198.76499999999999
20
-144.47872216520602
30
0
10
-198.76499999999999
20
-144.80778637642319
30
0
0
SPLINE
5
108
100
AcDbEntity
8
0
100
AcDbSpline
70
0
71
3
72
17
73
13
74
0
42
0.000000001
43
0.0000000001
44
0.0000000001
40
0.67811363960121607
40
0.67811363960121607
40
0.67811363960121607
40
0.67811363960121607
40
0.80262535480388852
40
0.80262535480388852
40
0.80262535480388852
40
0.92290056749623728
40
0.92290056749623728
40
0.92290056749623728
40
1.0314701359704748
40
1.0314701359704748
40
1.0314701359704748
40
1.130189399335358
40
1.130189399335358
40
1.130189399335358
40
1.130189399335358
10
-198.76499999999999
20
-223.34760271616804
30
9.8607613152626476e-31
10
-198.76499999999999
20
-223.76264176684361
30
-9.8607613152626476e-31
10
-198.96681722421357
20
-224.21098419444948
30
9.8607613152626476e-31
10
-199.28972011583249
20
-224.48744007998556
30
-9.8607613152626476e-31
10
-199.60163625886548
20
-224.75448957310982
30
-9.8607613152626476e-31
10
-200.04353793016043
20
-224.88867092203157
30
-9.8607613152626476e-31
10
-200.45562653099151
20
-224.83583121133182
30
9.8607613152626476e-31
10
-200.82760909135348
20
-224.78813406359407
30
-9.8607613152626476e-31
10
-201.18654248978598
20
-224.58853664993282
30
9.8607613152626476e-31
10
-201.4231844768837
20
-224.3009150865839
30
9.8607613152626476e-31
10
-201.63835639822221
20
-224.0393888664774
30
9.8607613152626476e-31
10
-201.76500000000001
20
-223.6766669273843
30
-9.8607613152626476e-31
10
-201.76500000000001
20
-223.34760271616804
30
9.8607613152626476e-31
0
SPLINE
5
109
100
AcDbEntity
8
0
100
AcDbSpline
70
0
71
3
72
17
73
13
74
0
42
0.000000001
43
0.0000000001
44
0.0000000001
40
0.22603787986707316
40
0.22603787986707316
40
0.22603787986707316
40
0.22603787986707316
40
0.35054959506999972
40
0.35054959506999972
40
0.35054959506999972
40
0.47082480776230023
40
0.47082480776230023
40
0.47082480776230023
40
0.57939437623688406
40
0.57939437623688406
40
0.57939437623688406
40
0.67811363960121607
40
0.67811363960121607
40
0.67811363960121607
40
0.67811363960121607
10
-201.76500000000001
20
-223.34760271616801
30
-9.8607613152626476e-31
10
-201.76500000000001
20
-222.93256366549159
30
-9.8607613152626476e-31
10
-201.56318277578578
20
-222.48422123788501
30
9.8607613152626476e-31
10
-201.24027988416557
20
-222.20776535234879
30
9.8607613152626476e-31
10
-200.9283637411321
20
-221.94071585922507
30
-9.8607613152626476e-31
10
-200.4864620698373
20
-221.80653451030423
30
9.8607613152626476e-31
10
-200.07437346900639
20
-221.85937422100454
30
-9.8607613152626476e-31
10
-199.70239090864317
20
-221.90707136874298
30
9.8607613152626476e-31
10
-199.34345751021027
20
-222.10666878240562
30
-9.8607613152626476e-31
10
-199.10681552311263
20
-222.39429034575662
30
-9.8607613152626476e-31
10
-198.89164360177614
20
-222.65581656586272
30
9.8607613152626476e-31
10
-198.76499999999999
20
-223.01853850495363
30
-9.8607613152626476e-31
10
-198.76499999999999
20
-223.34760271616804
30
9.8607613152626476e-31
0
SPLINE
5
110
100
AcDbEntity
8
0
100
AcDbSpline
70
0
71
3
72
17
73
13
74
0
42
0.000000001
43
0.0000000001
44
0.0000000001
40
0.22603787986706889
40
0.22603787986706889
40
0.22603787986706889
40
0.22603787986706889
40
0.35054959506947414
40
0.35054959506947414
40
0.35054959506947414
40
0.47082480776162683
40
0.47082480776162683
40
0.47082480776162683
40
0.57939437623540335
40
0.57939437623540335
40
0.57939437623540335
40
0.67811363960121229
40
0.67811363960121229
40
0.67811363960121229
40
0.67811363960121229
10
-279.54379134640396
20
-144.80778637642322
30
-9.8607613152626476e-31
10
-279.54379134640396
20
-144.39274732574856
30
0
10
-279.34197412219117
20
-143.9444048981434
30
0
10
-279.01907123057362
20
-143.66794901260747
30
0
10
-278.70715508754176
20
-143.40089951948323
30
0
10
-278.2652534162475
20
-143.26671817056052
30
0
10
-277.85316481541724
20
-143.31955788125885
30
0
10
-277.48118225505692
20
-143.36725502899515
30
0
10
-277.12224885662454
20
-143.56685244265429
30
0
10
-276.88560686952633
20
-143.85447400600006
30
0
10
-276.67043494818449
20
-144.11600022610725
30
0
10
-276.54379134640396
20
-144.47872216520386
30
0
10
-276.54379134640396
20
-144.80778637642322
30
-9.8607613152626476e-31
0
SPLINE
5
111
100
AcDbEntity
8
0
100
AcDbSpline
70
0
71
3
72
11
73
7
74
0
42
0.000000001
43
0.0000000001
44
0.0000000001
40
0.67811363960121229
40
0.67811363960121229
40
0.67811363960121229
40
0.67811363960121229
40
0.80262535480356412
40
0.80262535480356412
40
0.80262535480356412
40
0.90415151946828354
40
0.90415151946828354
40
0.90415151946828354
40
0.90415151946828354
10
-276.54379134640396
20
-144.80778637642325
30
0
10
-276.54379134640396
20
-145.22282542709777
30
0
10
-276.7456085706167
20
-145.67116785470273
30
9.8607613152626476e-31
10
-277.06851146223397
20
-145.94762374023864
30
0
10
-277.33180469606162
20
-146.1730443419213
30
-9.8607613152626476e-31
10
-277.69135547834742
20
-146.30818666469781
30
9.8607613152626476e-31
10
-278.04379134640396
20
-146.30818666469781
30
9.8607613152626476e-31
0
SPLINE
5
112
100
AcDbEntity
8
0
100
AcDbSpline
70
0
71
3
72
14
73
10
74
0
42
0.000000001
43
0.0000000001
44
0.0000000001
40
0.90415151946828354
40
0.90415151946828354
40
0.90415151946828354
40
0.90415151946828354
40
0.92290056749576921
40
0.92290056749576921
40
0.92290056749576921
40
1.0314701359698417
40
1.0314701359698417
40
1.0314701359698417
40
1.1301893993353538
40
1.1301893993353538
40
1.1301893993353538
40
1.1301893993353538
10
-278.04379134640396
20
-146.30818666469781
30
9.8607613152626476e-31
10
-278.10887641130944
20
-146.30818666469781
30
9.8607613152626476e-31
10
-278.1701796291631
20
-146.30425176638471
30
0
10
-278.23441787739068
20
-146.29601487158763
30
9.8607613152626476e-31
10
-278.60640043775203
20
-146.24831772385119
30
9.8607613152626476e-31
10
-278.96533383618521
20
-146.04872031019124
30
9.8607613152626476e-31
10
-279.20197582328359
20
-145.76109874684408
30
0
10
-279.41714774462434
20
-145.4995725267371
30
9.8607613152626476e-31
10
-279.54379134640396
20
-145.13685058764162
30
-9.8607613152626476e-31
10
-279.54379134640396
20
-144.80778637642322
30
-9.8607613152626476e-31
0
SPLINE
5
113
100
AcDbEntity
8
0
100
AcDbSpline
70
0
71
3
72
17
73
13
74
0
42
0.000000001
43
0.0000000001
44
0.0000000001
40
0.22603787986706941
40
0.22603787986706941
40
0.22603787986706941
40
0.22603787986706941
40
0.35054959506934252
40
0.35054959506934252
40
0.35054959506934252
40
0.47082480776150104
40
0.47082480776150104
40
0.47082480776150104
40
0.57939437623537315
40
0.57939437623537315
40
0.57939437623537315
40
0.67811363960121174
40
0.67811363960121174
40
0.67811363960121174
40
0.67811363960121174
10
-279.54379134640396
20
-223.34760271616804
30
9.8607613152626476e-31
10
-279.54379134640396
20
-222.93256366549377
30
-9.8607613152626476e-31
10
-279.34197412219152
20
-222.48422123788907
30
-9.8607613152626476e-31
10
-279.01907123057464
20
-222.20776535235316
30
9.8607613152626476e-31
10
-278.70715508754307
20
-221.94071585922867
30
9.8607613152626476e-31
10
-278.26525341624881
20
-221.80653451030554
30
-9.8607613152626476e-31
10
-277.85316481541849
20
-221.85937422100349
30
9.8607613152626476e-31
10
-277.48118225505789
20
-221.90707136873951
30
-9.8607613152626476e-31
10
-277.12224885662494
20
-222.10666878239869
30
-9.8607613152626476e-31
10
-276.8856068695265
20
-222.39429034574465
30
9.8607613152626476e-31
10
-276.67043494818455
20
-222.65581656585184
30
9.8607613152626476e-31
10
-276.54379134640396
20
-223.01853850494859
30
-9.8607613152626476e-31
10
-276.54379134640396
20
-223.34760271616804
30
9.8607613152626476e-31
0
SPLINE
5
114
100
AcDbEntity
8
0
100
AcDbSpline
70
0
71
3
72
11
73
7
74
0
42
0.000000001
43
0.0000000001
44
0.0000000001
40
0.67811363960121174
40
0.67811363960121174
40
0.67811363960121174
40
0.67811363960121174
40
0.80262535480356823
40
0.80262535480356823
40
0.80262535480356823
40
0.90415151946828454
40
0.90415151946828454
40
0.90415151946828454
40
0.90415151946828454
10
-276.54379134640396
20
-223.34760271616807
30
9.8607613152626476e-31
10
-276.54379134640396
20
-223.76264176684259
30
-9.8607613152626476e-31
10
-276.7456085706167
20
-224.21098419444758
30
-9.8607613152626476e-31
10
-277.06851146223403
20
-224.48744007998351
30
9.8607613152626476e-31
10
-277.33180469606162
20
-224.71286068166614
30
-9.8607613152626476e-31
10
-277.69135547834742
20
-224.84800300444263
30
-9.8607613152626476e-31
10
-278.04379134640396
20
-224.84800300444263
30
-9.8607613152626476e-31
0
SPLINE
5
115
100
AcDbEntity
8
0
100
AcDbSpline
70
0
71
3
72
14
73
10
74
0
42
0.000000001
43
0.0000000001
44
0.0000000001
40
0.90415151946828454
40
0.90415151946828454
40
0.90415151946828454
40
0.90415151946828454
40
0.92290056749582816
40
0.92290056749582816
40
0.92290056749582816
40
1.031470135969996
40
1.031470135969996
40
1.031470135969996
40
1.1301893993353542
40
1.1301893993353542
40
1.1301893993353542
40
1.1301893993353542
10
-278.04379134640396
20
-224.84800300444263
30
-9.8607613152626476e-31
10
-278.10887641130961
20
-224.84800300444263
30
-9.8607613152626476e-31
10
-278.1701796291635
20
-224.8440681061295
30
9.8607613152626476e-31
10
-278.23441787739131
20
-224.83583121133236
30
-9.8607613152626476e-31
10
-278.606400437753
20
-224.78813406359569
30
-9.8607613152626476e-31
10
-278.96533383618629
20
-224.58853664993541
30
9.8607613152626476e-31
10
-279.20197582328461
20
-224.30091508658765
30
9.8607613152626476e-31
10
-279.4171477446248
20
-224.03938886648081
30
9.8607613152626476e-31
10
-279.54379134640396
20
-223.67666692738595
30
-9.8607613152626476e-31
10
-279.54379134640396
20
-223.34760271616807
30
-9.8607613152626476e-31
0
SPLINE
5
116
100
AcDbEntity
8
0
100
AcDbSpline
70
0
71
3
72
17
73
13
74
0
42
0.000000001
43
0.0000000001
44
0.0000000001
40
0.22603787986706908
40
0.22603787986706908
40
0.22603787986706908
40
0.22603787986706908
40
0.35054959506936267
40
0.35054959506936267
40
0.35054959506936267
40
0.47082480776152147
40
0.47082480776152147
40
0.47082480776152147
40
0.57939437623538048
40
0.57939437623538048
40
0.57939437623538048
40
0.67811363960121129
40
0.67811363960121129
40
0.67811363960121129
40
0.67811363960121129
10
-279.54379134640396
20
-66.267970036678378
30
0
10
-279.54379134640396
20
-65.852930986004054
30
0
10
-279.34197412219146
20
-65.40458855839924
30
0
10
-279.01907123057447
20
-65.128132672863345
30
0
10
-278.70715508754284
20
-64.861083179738898
30
-4.9303806576313238e-31
10
-278.26525341624858
20
-64.726901830815834
30
0
10
-277.85316481541832
20
-64.779741541513843
30
0
10
-277.48118225505772
20
-64.827438689249931
30
4.9303806576313238e-31
10
-277.12224885662488
20
-65.027036102909094
30
4.9303806576313238e-31
10
-276.88560686952644
20
-65.314657666255016
30
0
10
-276.67043494818455
20
-65.57618388636223
30
-4.9303806576313238e-31
10
-276.54379134640396
20
-65.938905825458946
30
0
10
-276.54379134640396
20
-66.267970036678378
30
0
0
SPLINE
5
117
100
AcDbEntity
8
0
100
AcDbSpline
70
0
71
3
72
11
73
7
74
0
42
0.000000001
43
0.0000000001
44
0.0000000001
40
0.67811363960121129
40
0.67811363960121129
40
0.67811363960121129
40
0.67811363960121129
40
0.8026253548034763
40
0.8026253548034763
40
0.8026253548034763
40
0.90415151946828454
40
0.90415151946828454
40
0.90415151946828454
40
0.90415151946828454
10
-276.54379134640396
20
-66.267970036678378
30
0
10
-276.54379134640396
20
-66.683009087352588
30
4.9303806576313238e-31
10
-276.74560857061641
20
-67.131351514957331
30
0
10
-277.06851146223323
20
-67.407807400493198
30
-4.9303806576313238e-31
10
-277.33180469606094
20
-67.633228002176139
30
0
10
-277.69135547834719
20
-67.768370324952969
30
4.9303806576313238e-31
10
-278.04379134640396
20
-67.768370324952969
30
-4.9303806576313238e-31
0
SPLINE
5
118
100
AcDbEntity
8
0
100
AcDbSpline
70
0
71
3
72
14
73
10
74
0
42
0.000000001
43
0.0000000001
44
0.0000000001
40
0.90415151946828454
40
0.90415151946828454
40
0.90415151946828454
40
0.90415151946828454
40
0.92290056749558214
40
0.92290056749558214
40
0.92290056749558214
40
1.0314701359694185
40
1.0314701359694185
40
1.0314701359694185
40
1.1301893993353536
40
1.1301893993353536
40
1.1301893993353536
40
1.1301893993353536
10
-278.04379134640396
20
-67.768370324952969
30
-4.9303806576313238e-31
10
-278.10887641130876
20
-67.768370324952969
30
-4.9303806576313238e-31
10
-278.17017962916179
20
-67.76443542663992
30
0
10
-278.23441787738881
20
-67.756198531843012
30
-4.9303806576313238e-31
10
-278.60640043774924
20
-67.708501384107166
30
0
10
-278.96533383618225
20
-67.508903970448216
30
0
10
-279.2019758232808
20
-67.221282407102564
30
0
10
-279.41714774462309
20
-66.959756186995293
30
4.9303806576313238e-31
10
-279.54379134640396
20
-66.597034247898165
30
0
10
-279.54379134640396
20
-66.267970036678378
30
0
0
SPLINE
5
119
100
AcDbEntity
8
0
100
AcDbSpline
70
0
71
3
72
17
73
13
74
0
42
0.000000001
43
0.0000000001
44
0.0000000001
40
0.22603787986707316
40
0.22603787986707316
40
0.22603787986707316
40
0.22603787986707316
40
0.35054959506999972
40
0.35054959506999972
40
0.35054959506999972
40
0.47082480776230023
40
0.47082480776230023
40
0.47082480776230023
40
0.57939437623688406
40
0.57939437623688406
40
0.57939437623688406
40
0.67811363960121607
40
0.67811363960121607
40
0.67811363960121607
40
0.67811363960121607
10
-201.76500000000001
20
-223.34760271616801
30
-9.8607613152626476e-31
10
-201.76500000000001
20
-222.93256366549159
30
-9.8607613152626476e-31
10
-201.56318277578578
20
-222.48422123788501
30
9.8607613152626476e-31
10
-201.24027988416557
20
-222.20776535234879
30
9.8607613152626476e-31
10
-200.9283637411321
20
-221.94071585922507
30
-9.8607613152626476e-31
10
-200.4864620698373
20
-221.80653451030423
30
9.8607613152626476e-31
10
-200.07437346900639
20
-221.85937422100454
30
-9.8607613152626476e-31
10
-199.70239090864317
20
-221.90707136874298
30
9.8607613152626476e-31
10
-199.34345751021027
20
-222.10666878240562
30
-9.8607613152626476e-31
10
-199.10681552311263
20
-222.39429034575662
30
-9.8607613152626476e-31
10
-198.89164360177614
20
-222.65581656586272
30
9.8607613152626476e-31
10
-198.76499999999999
20
-223.01853850495363
30
-9.8607613152626476e-31
10
-198.76499999999999
20
-223.34760271616804
30
9.8607613152626476e-31
0
SPLINE
5
120
100
AcDbEntity
8
0
100
AcDbSpline
70
0
71
3
72
17
73
13
74
0
42
0.000000001
43
0.0000000001
44
0.0000000001
40
0.67811363960121607
40
0.67811363960121607
40
0.67811363960121607
40
0.67811363960121607
40
0.80262535480388852
40
0.80262535480388852
40
0.80262535480388852
40
0.92290056749623728
40
0.92290056749623728
40
0.92290056749623728
40
1.0314701359704748
40
1.0314701359704748
40
1.0314701359704748
40
1.130189399335358
40
1.130189399335358
40
1.130189399335358
40
1.130189399335358
10
-198.76499999999999
20
-223.34760271616804
30
9.8607613152626476e-31
10
-198.76499999999999
20
-223.76264176684361
30
-9.8607613152626476e-31
10
-198.96681722421357
20
-224.21098419444948
30
9.8607613152626476e-31
10
-199.28972011583249
20
-224.48744007998556
30
-9.8607613152626476e-31
10
-199.60163625886548
20
-224.75448957310982
30
-9.8607613152626476e-31
10
-200.04353793016043
20
-224.88867092203157
30
-9.8607613152626476e-31
10
-200.45562653099151
20
-224.83583121133182
30
9.8607613152626476e-31
10
-200.82760909135348
20
-224.78813406359407
30
-9.8607613152626476e-31
10
-201.18654248978598
20
-224.58853664993282
30
9.8607613152626476e-31
10
-201.4231844768837
20
-224.3009150865839
30
9.8607613152626476e-31
10
-201.63835639822221
20
-224.0393888664774
30
9.8607613152626476e-31
10
-201.76500000000001
20
-223.6766669273843
30
-9.8607613152626476e-31
10
-201.76500000000001
20
-223.34760271616804
30
9.8607613152626476e-31
0
SPLINE
5
121
100
AcDbEntity
8
0
100
AcDbSpline
70
0
71
3
72
17
73
13
74
0
42
0.000000001
43
0.0000000001
44
0.0000000001
40
0.2260378798670733
40
0.2260378798670733
40
0.2260378798670733
40
0.2260378798670733
40
0.350549595069648
40
0.350549595069648
40
0.350549595069648
40
0.47082480776189317
40
0.47082480776189317
40
0.47082480776189317
40
0.57939437623606249
40
0.57939437623606249
40
0.57939437623606249
40
0.67811363960121507
40
0.67811363960121507
40
0.67811363960121507
40
0.67811363960121507
10
-201.76500000000001
20
-144.80778637642319
30
0
10
-201.76500000000001
20
-144.39274732574793
30
0
10
-201.56318277578674
20
-143.94440489814232
30
0
10
-201.2402798841683
20
-143.6679490126063
30
0
10
-200.9283637411358
20
-143.40089951948212
30
0
10
-200.48646206984125
20
-143.26671817056001
30
0
10
-200.07437346901057
20
-143.31955788125913
30
0
10
-199.70239090864885
20
-143.36725502899634
30
0
10
-199.34345751021607
20
-143.56685244265702
30
0
10
-199.10681552311803
20
-143.8544740060052
30
0
10
-198.89164360177858
20
-144.11600022611191
30
0
10
-198.76499999999999
20
-144.47872216520602
30
0
10
-198.76499999999999
20
-144.80778637642319
30
0
0
SPLINE
5
122
100
AcDbEntity
8
0
100
AcDbSpline
70
0
71
3
72
17
73
13
74
0
42
0.000000001
43
0.0000000001
44
0.0000000001
40
0.67811363960121507
40
0.67811363960121507
40
0.67811363960121507
40
0.67811363960121507
40
0.80262535480375707
40
0.80262535480375707
40
0.80262535480375707
40
0.92290056749589244
40
0.92290056749589244
40
0.92290056749589244
40
1.0314701359698026
40
1.0314701359698026
40
1.0314701359698026
40
1.1301893993353571
40
1.1301893993353571
40
1.1301893993353571
40
1.1301893993353571
10
-198.76499999999999
20
-144.80778637642319
30
0
10
-198.76499999999999
20
-145.22282542709834
30
0
10
-198.96681722421317
20
-145.67116785470381
30
-9.8607613152626476e-31
10
-199.28972011583144
20
-145.94762374023986
30
-9.8607613152626476e-31
10
-199.60163625886361
20
-146.21467323336387
30
9.8607613152626476e-31
10
-200.04353793015775
20
-146.34885458228607
30
0
10
-200.45562653098798
20
-146.29601487158743
30
0
10
-200.82760909134876
20
-146.24831772385073
30
0
10
-201.18654248978123
20
-146.04872031019102
30
0
10
-201.42318447687933
20
-145.76109874684437
30
0
10
-201.63835639822025
20
-145.49957252673735
30
-9.8607613152626476e-31
10
-201.76500000000001
20
-145.1368505876417
30
9.8607613152626476e-31
10
-201.76500000000001
20
-144.80778637642319
30
0
0
ENDSEC
0
SECTION
2
OBJECTS
0
DICTIONARY
5
C
100
AcDbDictionary
3
ACAD_GROUP
350
D
3
ACAD_MLINESTYLE
350
17
0
DICTIONARY
5
D
100
AcDbDictionary
0
DICTIONARY
5
1A
330
C
100
AcDbDictionary
0
DICTIONARY
5
17
100
AcDbDictionary
0
ENDSEC
0
EOF
